<?xml version="1.0" encoding="UTF-8"?>
<svg width="24px" height="24px" viewBox="0 0 24 24" version="1.1" xmlns="http://www.w3.org/2000/svg" xmlns:xlink="http://www.w3.org/1999/xlink">
    <defs></defs>
    <g id="Large" stroke="none" stroke-width="1" fill="none" fill-rule="evenodd">
        <g id="Home-v2" transform="translate(-1083.000000, -25.000000)" fill-rule="nonzero" fill="#7A88A3">
            <g id="Group-2" transform="translate(0.000000, 5.000000)">
                <g id="Group-14" transform="translate(1083.000000, 20.000000)">
                    <path d="M19.2769231,4 L4.72307692,4 C2.66687832,4 1,5.66687832 1,7.72307692 L1,15.5076923 C1,17.5638909 2.66687832,19.2307692 4.72307692,19.2307692 L19.2769231,19.2307692 C21.3331217,19.2307692 23,17.5638909 23,15.5076923 L23,7.72307692 C23,5.66687832 21.3331217,4 19.2769231,4 Z M16.3086154,11.7643077 L9.70861538,15.1489231 C9.65636519,15.1759944 9.59380328,15.1739792 9.54340363,15.1436013 C9.49300398,15.1132234 9.46200351,15.0588449 9.46153846,15 L9.46153846,8.23076923 C9.46200351,8.17192432 9.49300398,8.11754578 9.54340363,8.08716791 C9.59380328,8.05679004 9.65636519,8.05477481 9.70861538,8.08184615 L16.3086154,11.4664615 C16.3651327,11.4954162 16.4006836,11.5535743 16.4006836,11.6170769 C16.4006836,11.6805796 16.3651327,11.7387376 16.3086154,11.7676923 L16.3086154,11.7643077 Z" id="Shape"></path>
                </g>
            </g>
        </g>
    </g>
</svg>