<svg width="355" height="132" viewBox="0 0 355 132" fill="none" xmlns="http://www.w3.org/2000/svg">
    <g filter="url(#filter0_d)">
        <rect x="12" y="9" width="369" height="108" fill="#F5F3EB"/>
    </g>
    <path d="M74.959 30.6162C68.061 30.6162 63.6742 25.594 62.343 23.0829M62.343 23.0829C57.5628 24.4444 47.8208 27.3488 45.2796 29.7994C42.7385 32.2499 39.2891 51.8547 40.0154 57.1189M62.343 23.0829L65.0658 22.1753C66.397 23.0224 70.2393 24.7166 74.959 24.7166M40.0154 57.1189C44.2812 57.1189 49.5454 57.1189 53.1759 57.1189M40.0154 57.1189H53.1759M53.1759 57.1189C52.7432 53.3976 52.5951 49.5493 51.3607 45.7736M53.1759 57.1189C53.6298 61.0217 53.5875 69.204 53.1759 77C52.7221 85.5965 52.0017 92.5877 52.001 96.5C52 101.5 53 101.552 55.082 102.134C58.001 102.949 67.501 102.949 74.959 102.949" stroke="black" stroke-width="2"/>
    <path d="M74.959 30.6162C81.8569 30.6162 86.2438 25.594 87.575 23.0829M87.575 23.0829C92.3551 24.4444 102.097 27.3488 104.638 29.7994C107.18 32.2499 110.629 51.8547 109.903 57.1189M87.575 23.0829L84.8521 22.1753C83.5209 23.0224 79.6786 24.7166 74.959 24.7166M109.903 57.1189C105.637 57.1189 100.373 57.1189 96.742 57.1189M109.903 57.1189H96.742M96.742 57.1189C97.1747 53.3976 97.3229 49.5493 98.5573 45.7736M96.742 57.1189C96.2882 61.0217 96.3305 69.204 96.742 77C97.1958 85.5965 97.9162 92.5877 97.917 96.5C97.918 101.5 96.918 101.552 94.836 102.134C91.917 102.949 82.417 102.949 74.959 102.949" stroke="black" stroke-width="2"/>
    <path d="M69.1088 44.1729C69.4378 44.1729 69.7046 43.9103 69.7046 43.5865C69.7046 43.2628 69.4378 43 69.1088 43C68.7798 43 68.513 43.2628 68.513 43.5865C68.513 43.605 68.5139 43.6233 68.5156 43.6414L63.6635 48.4173C63.6413 48.4148 63.6186 48.4135 63.5957 48.4135C63.2667 48.4135 63 48.6761 63 49.0001C63 49.3239 63.2667 49.5865 63.5957 49.5865C63.6218 49.5865 63.6475 49.5849 63.6727 49.5817L65.8214 51.7013L63.6584 53.8304C63.6378 53.8283 63.6169 53.8272 63.5957 53.8272C63.2667 53.8272 63 54.0897 63 54.4135C63 54.7373 63.2667 55 63.5957 55C63.9249 55 64.1916 54.7373 64.1916 54.4135C64.1916 54.3855 64.1896 54.358 64.1858 54.3311L66.3453 52.2054L68.5046 54.3361C68.5012 54.3614 68.4994 54.3872 68.4994 54.4134C68.4994 54.7372 68.7663 54.9999 69.0952 54.9999C69.4243 54.9999 69.691 54.7372 69.691 54.4134C69.691 54.0895 69.4243 53.8271 69.0952 53.8271C69.0723 53.8271 69.0497 53.8284 69.0275 53.8309L66.8631 51.6957L69.0135 49.5791C69.0445 49.584 69.0763 49.5865 69.1087 49.5865C69.1293 49.5865 69.1496 49.5855 69.1697 49.5835L74.0033 54.3414C74.0004 54.365 73.9989 54.389 73.9989 54.4134C73.9989 54.7372 74.2656 54.9999 74.5947 54.9999C74.9239 54.9999 75.1905 54.7372 75.1905 54.4134C75.1905 54.3824 75.188 54.352 75.1833 54.3222L78.1681 51.3839C78.1984 51.3886 78.2293 51.391 78.2609 51.391C78.2835 51.391 78.3059 51.3898 78.3278 51.3873L81.3353 54.3479C81.3329 54.3694 81.3317 54.3913 81.3317 54.4134C81.3317 54.7372 81.5986 54.9999 81.9277 54.9999C82.2564 54.9999 82.5232 54.7372 82.5232 54.4134C82.5232 54.3802 82.5204 54.3477 82.515 54.316L87.325 49.5814C87.3509 49.5848 87.3775 49.5865 87.4044 49.5865C87.7333 49.5865 88 49.3239 88 49C88 48.6761 87.7333 48.4135 87.4044 48.4135C87.0753 48.4135 86.8084 48.6761 86.8084 49C86.8084 49.0225 86.8097 49.0447 86.8122 49.0666L81.9738 53.8289C81.9586 53.8277 81.9432 53.8271 81.9277 53.8271C81.9005 53.8271 81.8738 53.8289 81.8477 53.8324L78.8514 50.8829C78.8549 50.8573 78.8567 50.8311 78.8567 50.8045C78.8567 50.4806 78.59 50.218 78.2609 50.218C77.9318 50.218 77.6653 50.4806 77.6653 50.8045C77.6653 50.8221 77.6661 50.8396 77.6676 50.8569L74.6479 53.8294C74.6304 53.8279 74.6126 53.8271 74.5947 53.8271C74.5699 53.8271 74.5454 53.8286 74.5214 53.8315L69.6985 49.0841C69.7025 49.0567 69.7046 49.0286 69.7046 49C69.7046 48.6761 69.4378 48.4135 69.1087 48.4135C68.7798 48.4135 68.5129 48.6761 68.5129 49C68.5129 49.0168 68.5137 49.0334 68.5151 49.0498L66.3394 51.1914L64.1877 49.0679C64.1903 49.0457 64.1916 49.023 64.1916 49.0001C64.1916 48.9737 64.1898 48.9477 64.1864 48.9222L69.0183 44.1662C69.0478 44.1706 69.078 44.1729 69.1088 44.1729Z" fill="black" stroke="black"/>
    <path d="M157.118 33.324C160.056 33.324 162.006 35.066 162.006 37.744C162.006 40.474 160.056 42.19 157.118 42.19V33.324ZM157.118 47.728V45.752C162.734 45.752 166.14 42.268 166.14 37.692C166.14 33.116 162.682 29.762 157.118 29.762V28.098H153.114V29.762C147.524 29.762 144.092 33.116 144.092 37.666C144.092 42.268 147.498 45.752 153.114 45.752V47.728H157.118ZM153.114 42.19C150.176 42.19 148.2 40.474 148.2 37.744C148.2 35.066 150.176 33.324 153.114 33.324V42.19ZM172.319 51.238C174.685 51.238 175.829 50.172 176.895 47.338L182.251 33.064H178.143L175.101 42.554L171.929 33.064H167.743L173.203 47.052C172.865 47.754 172.501 47.962 171.825 47.962C171.305 47.962 170.655 47.728 170.135 47.416L168.809 50.276C169.823 50.874 170.889 51.238 172.319 51.238ZM195.475 33.064H183.203V36.444H187.337V47H191.341V36.444H195.475V33.064ZM204.573 43.906C202.623 43.906 201.167 42.294 201.167 40.318C201.167 38.29 202.519 36.678 204.521 36.678C206.471 36.678 207.927 38.316 207.927 40.318C207.927 42.32 206.601 43.906 204.573 43.906ZM204.521 47.312C208.759 47.312 211.827 44.114 211.827 40.266C211.827 36.444 208.759 33.584 205.223 33.584C202.363 33.584 200.673 35.014 200.153 35.924C200.257 34.598 200.959 33.168 203.533 32.648L211.177 31.14L210.553 28.02L203.091 29.398C197.865 30.36 197.241 34.806 197.241 38.992C197.241 44.348 199.815 47.312 204.521 47.312ZM221.481 47.312C225.823 47.312 229.047 44.062 229.047 40.058C229.047 36.002 225.849 32.804 221.533 32.804C217.191 32.804 213.967 36.054 213.967 40.058C213.967 44.114 217.165 47.312 221.481 47.312ZM221.533 43.906C219.349 43.906 217.867 42.112 217.867 40.058C217.867 37.952 219.219 36.21 221.481 36.21C223.665 36.21 225.147 38.004 225.147 40.058C225.147 42.164 223.795 43.906 221.533 43.906ZM233.573 33.064C233.573 42.944 232.793 43.802 231.311 43.802C231.129 43.802 230.635 43.75 230.479 43.724L230.219 46.922C230.739 47.052 231.701 47.156 232.221 47.156C235.705 47.156 237.291 45.674 237.291 36.444H240.827V47H244.779V33.064H233.573ZM248.311 47H252.263V43.646L254.057 41.696L257.775 47H262.455L256.683 38.784L261.805 33.064H257.255L252.263 38.784V33.064H248.311V47ZM277.18 33.064H273.462L268.028 41.202V33.064H264.206V47H267.924L273.358 38.888V47H277.18V33.064ZM153.712 75.312C157.222 75.312 159.302 74.22 161.174 72.218L158.626 69.488C157.196 70.788 155.922 71.62 153.842 71.62C150.722 71.62 148.564 69.02 148.564 65.9C148.564 62.728 150.774 60.18 153.842 60.18C155.922 60.18 157.118 60.934 158.522 62.208L160.914 59.452C159.224 57.788 157.3 56.488 153.868 56.488C148.278 56.488 144.378 60.726 144.378 65.9C144.378 71.178 148.356 75.312 153.712 75.312ZM170.801 75.312C175.143 75.312 178.367 72.062 178.367 68.058C178.367 64.002 175.169 60.804 170.853 60.804C166.511 60.804 163.287 64.054 163.287 68.058C163.287 72.114 166.485 75.312 170.801 75.312ZM170.853 71.906C168.669 71.906 167.187 70.112 167.187 68.058C167.187 65.952 168.539 64.21 170.801 64.21C172.985 64.21 174.467 66.004 174.467 68.058C174.467 70.164 173.115 71.906 170.853 71.906ZM185.467 75.104H189.055L194.541 61.064H190.433L187.287 70.398L184.167 61.064H179.981L185.467 75.104ZM196.897 59.53H201.057V56.02H196.897V59.53ZM197.001 75H200.953V61.064H197.001V75ZM210.384 75.26C212.438 75.26 213.764 74.298 214.726 72.998V75H218.678V56.02H214.726V62.884C213.79 61.766 212.49 60.804 210.384 60.804C207.082 60.804 204.04 63.352 204.04 68.006C204.04 72.712 207.134 75.26 210.384 75.26ZM211.398 71.906C209.552 71.906 207.992 70.372 207.992 68.058C207.992 65.666 209.552 64.158 211.398 64.158C213.244 64.158 214.778 65.692 214.778 68.006C214.778 70.372 213.244 71.906 211.398 71.906ZM221.741 68.838H229.749V65.042H221.741V68.838ZM235.683 75H239.635V56.67H236.905L231.679 58.23L232.511 61.506L235.683 60.726V75ZM249.875 75.312C255.049 75.312 257.831 71.282 257.831 65.38C257.831 61.74 256.973 59.764 255.673 58.464C254.295 57.086 252.865 56.488 250.421 56.488C246.313 56.488 243.479 59.192 243.479 62.858C243.479 66.602 246.027 68.786 249.979 68.786C251.565 68.786 252.787 68.292 253.671 67.538C253.411 69.982 252.215 71.672 249.979 71.672C248.445 71.672 247.327 71.178 246.001 70.112L243.895 73.154C245.429 74.428 247.223 75.312 249.875 75.312ZM250.629 65.458C248.653 65.458 247.457 64.34 247.457 62.728C247.457 61.064 248.575 59.92 250.551 59.92C252.553 59.92 253.749 61.09 253.749 62.702C253.749 64.314 252.605 65.458 250.629 65.458Z" fill="#292929"/>
    <path d="M145.188 98H146.136V90.464H150.864V98H151.812V89.6H145.188V98ZM156.744 98.144C157.92 98.144 158.676 97.676 159.3 96.98L158.724 96.464C158.22 96.992 157.62 97.34 156.768 97.34C155.676 97.34 154.716 96.584 154.584 95.276H159.504C159.516 95.132 159.516 95.036 159.516 94.952C159.516 93.128 158.46 91.664 156.624 91.664C154.908 91.664 153.648 93.104 153.648 94.904C153.648 96.836 155.04 98.144 156.744 98.144ZM154.584 94.532C154.716 93.332 155.532 92.444 156.6 92.444C157.824 92.444 158.472 93.404 158.58 94.532H154.584ZM161.134 99.92H162.058V96.812C162.538 97.508 163.282 98.132 164.434 98.132C165.934 98.132 167.398 96.932 167.398 94.904C167.398 92.84 165.922 91.664 164.434 91.664C163.294 91.664 162.562 92.3 162.058 93.044V91.796H161.134V99.92ZM164.266 97.304C163.114 97.304 162.022 96.344 162.022 94.904C162.022 93.464 163.114 92.492 164.266 92.492C165.442 92.492 166.45 93.428 166.45 94.892C166.45 96.416 165.466 97.304 164.266 97.304ZM171.814 98.144C172.99 98.144 173.746 97.676 174.37 96.98L173.794 96.464C173.29 96.992 172.69 97.34 171.838 97.34C170.746 97.34 169.786 96.584 169.654 95.276H174.574C174.586 95.132 174.586 95.036 174.586 94.952C174.586 93.128 173.53 91.664 171.694 91.664C169.978 91.664 168.718 93.104 168.718 94.904C168.718 96.836 170.11 98.144 171.814 98.144ZM169.654 94.532C169.786 93.332 170.602 92.444 171.67 92.444C172.894 92.444 173.542 93.404 173.65 94.532H169.654ZM176.204 98H177.092L180.788 93.092V98H181.712V91.796H180.812L177.128 96.704V91.796H176.204V98ZM178.928 90.908C179.828 90.908 180.476 90.296 180.62 89.444L179.984 89.312C179.84 89.828 179.516 90.152 178.928 90.152C178.34 90.152 178.016 89.828 177.872 89.312L177.236 89.444C177.38 90.296 178.028 90.908 178.928 90.908ZM185.274 98H186.21V92.612H188.43V91.796H183.054V92.612H185.274V98ZM189.774 98H190.662L194.358 93.092V98H195.282V91.796H194.382L190.698 96.704V91.796H189.774V98ZM200.942 98H204.05C205.418 98 206.306 97.352 206.306 96.308C206.306 95.432 205.682 94.976 204.938 94.772C205.454 94.556 205.97 94.16 205.97 93.344C205.97 92.408 205.178 91.796 203.942 91.796H200.942V98ZM201.866 97.208V95.204H203.81C204.818 95.204 205.358 95.564 205.358 96.164C205.358 96.812 204.818 97.208 203.93 97.208H201.866ZM201.866 94.46V92.588H203.798C204.602 92.588 205.034 92.948 205.034 93.464C205.034 94.112 204.518 94.46 203.774 94.46H201.866ZM211.571 98H212.471V93.272L214.739 96.416L217.031 93.272V98H217.967V91.796H217.079L214.763 95.06L212.447 91.796H211.571V98ZM221.88 98.132C222.972 98.132 223.68 97.628 224.112 97.076V98H225.024V94.208C225.024 93.416 224.808 92.816 224.376 92.384C223.932 91.94 223.248 91.7 222.372 91.7C221.46 91.7 220.8 91.916 220.116 92.228L220.392 92.984C220.968 92.72 221.544 92.54 222.276 92.54C223.44 92.54 224.112 93.116 224.112 94.22V94.412C223.56 94.256 223.008 94.148 222.216 94.148C220.644 94.148 219.564 94.844 219.564 96.176C219.564 97.472 220.716 98.132 221.88 98.132ZM222.06 97.388C221.22 97.388 220.5 96.932 220.5 96.152C220.5 95.384 221.16 94.88 222.312 94.88C223.068 94.88 223.668 95.012 224.124 95.144V95.72C224.124 96.704 223.2 97.388 222.06 97.388ZM226.981 98H227.905V92.612H231.193V91.796H226.981V98ZM234.384 98.132C235.476 98.132 236.184 97.628 236.616 97.076V98H237.528V94.208C237.528 93.416 237.312 92.816 236.88 92.384C236.436 91.94 235.752 91.7 234.876 91.7C233.964 91.7 233.304 91.916 232.62 92.228L232.896 92.984C233.472 92.72 234.048 92.54 234.78 92.54C235.944 92.54 236.616 93.116 236.616 94.22V94.412C236.064 94.256 235.512 94.148 234.72 94.148C233.148 94.148 232.068 94.844 232.068 96.176C232.068 97.472 233.22 98.132 234.384 98.132ZM234.564 97.388C233.724 97.388 233.004 96.932 233.004 96.152C233.004 95.384 233.664 94.88 234.816 94.88C235.572 94.88 236.172 95.012 236.628 95.144V95.72C236.628 96.704 235.704 97.388 234.564 97.388ZM241.453 98.144C242.989 98.144 243.913 97.268 243.913 96.272C243.913 95.456 243.445 94.988 242.761 94.748C243.289 94.532 243.757 94.088 243.757 93.32C243.757 92.36 242.905 91.664 241.513 91.664C240.601 91.664 239.761 91.94 239.113 92.444L239.569 93.092C240.109 92.66 240.841 92.468 241.453 92.468C242.221 92.468 242.797 92.816 242.797 93.392C242.797 94.04 242.233 94.46 241.417 94.46H240.577V95.216H241.405C242.413 95.216 242.965 95.612 242.965 96.236C242.965 96.956 242.233 97.34 241.429 97.34C240.685 97.34 239.977 97.064 239.353 96.536L238.885 97.22C239.641 97.832 240.469 98.144 241.453 98.144ZM245.626 98H246.514L250.21 93.092V98H251.134V91.796H250.234L246.55 96.704V91.796H245.626V98ZM253.196 98H254.12V95.288H257.696V98H258.62V91.796H257.696V94.472H254.12V91.796H253.196V98Z" fill="#A7A6A3"/>
    <defs>
        <filter id="filter0_d" x="0" y="0" width="393" height="132" filterUnits="userSpaceOnUse" color-interpolation-filters="sRGB">
            <feFlood flood-opacity="0" result="BackgroundImageFix"/>
            <feColorMatrix in="SourceAlpha" type="matrix" values="0 0 0 0 0 0 0 0 0 0 0 0 0 0 0 0 0 0 127 0"/>
            <feOffset dy="3"/>
            <feGaussianBlur stdDeviation="6"/>
            <feColorMatrix type="matrix" values="0 0 0 0 0.0166667 0 0 0 0 0.0166667 0 0 0 0 0.0166667 0 0 0 0.17 0"/>
            <feBlend mode="normal" in2="BackgroundImageFix" result="effect1_dropShadow"/>
            <feBlend mode="normal" in="SourceGraphic" in2="effect1_dropShadow" result="shape"/>
        </filter>
    </defs>
</svg>
