<svg width="73" height="200" viewBox="0 0 73 200" fill="none" xmlns="http://www.w3.org/2000/svg">
    <g filter="url(#filter0_d)">
        <rect x="12" y="9" width="61" height="176" fill="#F5F3EB"/>
    </g>
    <path d="M40.48 137.925C40.48 135.665 41.82 134.165 43.88 134.165C45.98 134.165 47.3 135.665 47.3 137.925L40.48 137.925ZM51.56 137.925L50.04 137.925C50.04 133.605 47.36 130.985 43.84 130.985C40.32 130.985 37.74 133.645 37.74 137.925L36.46 137.925L36.46 141.005L37.74 141.005C37.74 145.305 40.32 147.945 43.82 147.945C47.36 147.945 50.04 145.325 50.04 141.005L51.56 141.005L51.56 137.925ZM47.3 141.005C47.3 143.265 45.98 144.785 43.88 144.785C41.82 144.785 40.48 143.265 40.48 141.005L47.3 141.005ZM54.26 126.232C54.26 124.412 53.44 123.532 51.26 122.712L40.28 118.592L40.28 121.752L47.58 124.092L40.28 126.532L40.28 129.752L51.04 125.552C51.58 125.812 51.74 126.092 51.74 126.612C51.74 127.012 51.56 127.512 51.32 127.912L53.52 128.932C53.98 128.152 54.26 127.332 54.26 126.232ZM40.28 108.42L40.28 117.86L42.88 117.86L42.88 114.68L51 114.68L51 111.6L42.88 111.6L42.88 108.42L40.28 108.42ZM48.62 101.421C48.62 102.921 47.38 104.041 45.86 104.041C44.3 104.041 43.06 103.001 43.06 101.461C43.06 99.9611 44.32 98.8411 45.86 98.8411C47.4 98.8411 48.62 99.8611 48.62 101.421ZM51.24 101.461C51.24 98.2011 48.78 95.8411 45.82 95.8411C42.88 95.8411 40.68 98.2011 40.68 100.921C40.68 103.121 41.78 104.421 42.48 104.821C41.46 104.741 40.36 104.201 39.96 102.221L38.8 96.3411L36.4 96.8211L37.46 102.561C38.2 106.581 41.62 107.061 44.84 107.061C48.96 107.061 51.24 105.081 51.24 101.461ZM51.24 88.4152C51.24 85.0752 48.74 82.5952 45.66 82.5952C42.54 82.5952 40.08 85.0552 40.08 88.3752C40.08 91.7152 42.58 94.1952 45.66 94.1952C48.78 94.1952 51.24 91.7352 51.24 88.4152ZM48.62 88.3752C48.62 90.0552 47.24 91.1952 45.66 91.1952C44.04 91.1952 42.7 90.1552 42.7 88.4152C42.7 86.7352 44.08 85.5952 45.66 85.5952C47.28 85.5952 48.62 86.6352 48.62 88.3752ZM40.28 79.1139C47.88 79.1139 48.54 79.7139 48.54 80.8539C48.54 80.9939 48.5 81.3739 48.48 81.4939L50.94 81.6939C51.04 81.2939 51.12 80.5539 51.12 80.1539C51.12 77.4739 49.98 76.2539 42.88 76.2539L42.88 73.5339L51 73.5339L51 70.4939L40.28 70.4939L40.28 79.1139ZM51 67.7767L51 64.7367L48.42 64.7367L46.92 63.3567L51 60.4967L51 56.8967L44.68 61.3367L40.28 57.3967L40.28 60.8967L44.68 64.7367L40.28 64.7367L40.28 67.7767L51 67.7767ZM40.28 45.5702L40.28 48.4302L46.54 52.6102L40.28 52.6102L40.28 55.5502L51 55.5502L51 52.6902L44.76 48.5102L51 48.5102L51 45.5702L40.28 45.5702Z" fill="black"/>
    <defs>
        <filter id="filter0_d" x="0" y="0" width="85" height="200" filterUnits="userSpaceOnUse" color-interpolation-filters="sRGB">
            <feFlood flood-opacity="0" result="BackgroundImageFix"/>
            <feColorMatrix in="SourceAlpha" type="matrix" values="0 0 0 0 0 0 0 0 0 0 0 0 0 0 0 0 0 0 127 0"/>
            <feOffset dy="3"/>
            <feGaussianBlur stdDeviation="6"/>
            <feColorMatrix type="matrix" values="0 0 0 0 0.0166667 0 0 0 0 0.0166667 0 0 0 0 0.0166667 0 0 0 0.17 0"/>
            <feBlend mode="normal" in2="BackgroundImageFix" result="effect1_dropShadow"/>
            <feBlend mode="normal" in="SourceGraphic" in2="effect1_dropShadow" result="shape"/>
        </filter>
    </defs>
</svg>
