<svg xmlns="http://www.w3.org/2000/svg" width="24" height="24" viewBox="0 0 24 24">
  <defs>
    <linearGradient id="icon_te-a" x1="61.235%" x2="74.706%" y1="43.69%" y2="80.24%">
      <stop offset="0%" stop-color="#FFF"/>
      <stop offset="100%" stop-color="#FFF"/>
    </linearGradient>
  </defs>
  <g fill="none" transform="translate(1 1)">
    <circle cx="11" cy="11" r="11" fill="#7A88A3"/>
    <path fill="#B5C2DB" d="M8.8,16.5 C8.41124,16.5 8.4773,16.35321 8.34322,15.98305 L7.2,12.22059 L16,7"/>
    <path fill="#8FA2C6" d="M8.8,16.5 C9.1,16.5 9.23255,16.3628 9.4,16.2 L11,14.6442 L9.0042,13.4407"/>
    <path fill="url(#icon_te-a)" d="M9.004,13.441 L13.84,17.0139 C14.39185,17.31839 14.79014,17.16074 14.9276,16.50155 L16.8961,7.22525 C17.09764,6.41723 16.58809,6.05075 16.06016,6.29043 L4.50116,10.74753 C3.71215,11.064 3.71675,11.50419 4.35734,11.70033 L7.32364,12.62616 L14.19094,8.29366 C14.51513,8.09707 14.81267,8.202761 14.56846,8.4195"/>
  </g>
</svg>
