<?xml version="1.0" encoding="UTF-8"?>
<svg width="24px" height="24px" viewBox="0 0 24 24" version="1.1" xmlns="http://www.w3.org/2000/svg" xmlns:xlink="http://www.w3.org/1999/xlink">
    <defs></defs>
    <g id="Large" stroke="none" stroke-width="1" fill="none" fill-rule="evenodd">
        <g id="Home-v2" transform="translate(-995.000000, -25.000000)" fill="#7A88A3">
            <g id="Group-2" transform="translate(0.000000, 5.000000)">
                <g id="Group-16" transform="translate(995.000000, 20.000000)">
                    <path d="M2,2.99180311 C2,2.44404538 2.45530558,2 2.99180311,2 L21.0081969,2 C21.5559546,2 22,2.45530558 22,2.99180311 L22,21.0081969 C22,21.5559546 21.5446944,22 21.0081969,22 L2.99180311,22 C2.44404538,22 2,21.5446944 2,21.0081969 L2,2.99180311 Z M15.2754811,10.5046781 L15.2754811,8.74028152 C15.2754811,8.07766508 15.7202423,7.92318361 16.0334996,7.92318361 L17.9561654,7.92318361 L17.9561654,5.01020493 L15.308268,5 C12.3688525,5 11.6999287,7.17259367 11.6999287,8.56292693 L11.6999287,10.5046781 L10,10.5046781 L10,13.5063341 L11.6999287,13.5063341 L11.6999287,22 L15.2754811,22 L15.2754811,13.5063341 L17.6881682,13.5063341 L18,10.5046781 L15.2754811,10.5046781 Z" id="Combined-Shape"></path>
                </g>
            </g>
        </g>
    </g>
</svg>