<?xml version="1.0" encoding="UTF-8"?>
<svg width="24px" height="24px" viewBox="0 0 24 24" version="1.1" xmlns="http://www.w3.org/2000/svg" xmlns:xlink="http://www.w3.org/1999/xlink">
    <defs></defs>
    <g id="Large" stroke="none" stroke-width="1" fill="none" fill-rule="evenodd">
        <g id="Home-v2" transform="translate(-1127.000000, -25.000000)" fill="#7A88A3">
            <g id="Group-2" transform="translate(0.000000, 5.000000)">
                <g id="Group-13" transform="translate(1127.000000, 20.000000)">
                    <path d="M2,6.63867188 C2,4.07680414 4.06502199,2 6.63867188,2 L17.3613281,2 C19.9231959,2 22,4.06502199 22,6.63867188 L22,17.3613281 C22,19.9231959 19.934978,22 17.3613281,22 L6.63867188,22 C4.07680414,22 2,19.934978 2,17.3613281 L2,6.63867188 Z M12,16.6195122 C14.5512861,16.6195122 16.6195122,14.5512861 16.6195122,12 C16.6195122,9.44871386 14.5512861,7.3804878 12,7.3804878 C9.44871386,7.3804878 7.3804878,9.44871386 7.3804878,12 C7.3804878,14.5512861 9.44871386,16.6195122 12,16.6195122 Z M17.4756098,7.13170732 C18.1437396,7.13170732 18.6853659,6.59008106 18.6853659,5.92195122 C18.6853659,5.25382138 18.1437396,4.71219512 17.4756098,4.71219512 C16.8074799,4.71219512 16.2658537,5.25382138 16.2658537,5.92195122 C16.2658537,6.59008106 16.8074799,7.13170732 17.4756098,7.13170732 Z" id="Combined-Shape"></path>
                </g>
            </g>
        </g>
    </g>
</svg>