<?xml version="1.0" encoding="UTF-8"?>
<svg width="580px" height="580px" viewBox="0 0 580 580" version="1.1" xmlns="http://www.w3.org/2000/svg" xmlns:xlink="http://www.w3.org/1999/xlink">
    <!-- Generator: Sketch 46.2 (44496) - http://www.bohemiancoding.com/sketch -->
    <title>JS_big</title>
    <desc>Created with Sketch.</desc>
    <defs>
        <polygon id="path-1" points="12.0794146 0.162983373 12.0794146 11.8602755 0.259953542 11.8602755 0.259953542 0.162983373"></polygon>
        <polygon id="path-3" points="0.246876656 0.050736342 12.0667698 0.050736342 12.0667698 11.7471164 0.246876656 11.7471164"></polygon>
    </defs>
    <g id="Large" stroke="none" stroke-width="1" fill="none" fill-rule="evenodd">
        <g id="big-copy" transform="translate(-19.000000, -31.000000)">
            <g id="Group" transform="translate(19.000000, 31.000000)">
                <rect id="Rectangle-11" x="0" y="0" width="580" height="580"></rect>
                <g id="Group-2" transform="translate(151.000000, 311.000000)" fill="#FFFFFF">
                    <path d="M27.101875,81.5283851 L19.32125,81.5283851 L19.32125,108.269464 L12.5196875,108.269464 L12.5196875,81.5283851 L7.273125,81.5283851 L7.273125,78.3583361 L12.5196875,76.2840254 L12.5196875,74.2090899 C12.5196875,70.4435241 13.4009375,67.6540309 15.17,65.8387357 C16.93875,64.0228156 19.6371875,63.1148556 23.268125,63.1148556 C25.6515625,63.1148556 27.99625,63.5082216 30.30125,64.2974532 L28.5134375,69.4265213 C26.843125,68.8878692 25.248125,68.6194805 23.73125,68.6194805 C22.19125,68.6194805 21.074375,69.095644 20.3725,70.0460963 C19.66875,70.9956113 19.32125,72.4234768 19.32125,74.324069 L19.32125,76.3999419 L27.101875,76.3999419 L27.101875,81.5283851" id="Fill-16"></path>
                    <path d="M61.405625,108.869522 L57.284375,93.9997239 C56.7846875,92.4246975 55.88125,88.7656748 54.575625,83.0223433 L54.3153125,83.0223433 C53.20125,88.2085886 52.318125,91.8863579 51.6646875,94.0581508 L47.4278125,108.869522 L39.9346875,108.869522 L31,77 L37.9178125,77 L41.9803125,92.7040218 C42.903125,96.583317 43.556875,99.907713 43.9409375,102.67346 L44.1134375,102.67346 C44.3071875,101.271215 44.5975,99.6633824 44.9925,97.8480872 C45.3871875,96.032792 45.7271875,94.6733515 46.0159375,93.7700781 L50.8584375,77 L58.293125,77 L62.990625,93.7700781 C63.27875,94.7099074 63.6396875,96.1515204 64.0721875,98.0927302 C64.5034375,100.032378 64.7575,101.539604 64.834375,102.616283 L65.0665625,102.616283 C65.354375,100.252963 66.0265625,96.9482507 67.0825,92.7040218 L71.2053125,77 L78.0059375,77 L69.0140625,108.869522 L61.405625,108.869522" id="Fill-21"></path>
                    <path d="M202.715625,99.1920509 C202.715625,102.305235 201.58125,104.690739 199.315625,106.35325 C197.046875,108.013261 193.8,108.846234 189.575,108.846234 C185.325,108.846234 181.915625,108.201039 179.34375,106.914398 L179.34375,101.064523 C183.090625,102.794521 186.578125,103.658739 189.803125,103.658739 C193.971875,103.658739 196.059375,102.400218 196.059375,99.8841126 C196.059375,99.0776966 195.828125,98.4037566 195.365625,97.8669791 C194.90625,97.3286394 194.146875,96.7715531 193.090625,96.1954078 C192.034375,95.61895 190.5625,94.9653188 188.68125,94.2363887 C185.009375,92.8128974 182.528125,91.3919055 181.23125,89.9721635 C179.93125,88.5486721 179.284375,86.7049446 179.284375,84.4394187 C179.284375,81.7105395 180.384375,79.5921744 182.584375,78.0855731 C184.784375,76.575535 187.778125,75.8231717 191.5625,75.8231717 C195.309375,75.8231717 198.853125,76.5811589 202.196875,78.0996331 L200.00625,83.199644 C196.565625,81.7774024 193.675,81.0669064 191.33125,81.0669064 C187.759375,81.0669064 185.971875,82.0851589 185.971875,84.1226013 C185.971875,85.1199201 186.434375,85.9657039 187.36875,86.6580781 C188.3,87.349515 190.33125,88.3002797 193.465625,89.5106848 C196.096875,90.5276876 198.00625,91.4587684 199.2,92.305802 C200.390625,93.1490863 201.275,94.1235967 201.85,95.2308955 C202.428125,96.3347575 202.715625,97.6538928 202.715625,99.1920509" id="Fill-25"></path>
                    <path d="M95.6721875,103.922216 C98.459375,103.922216 100.485,103.137984 101.755,101.572643 C103.022188,100.007302 103.673438,97.467139 103.713125,93.9521526 L103.713125,93.0023252 C103.713125,88.985555 103.060625,86.1332607 101.755,84.4441926 C100.445,82.7532498 98.3990625,81.9074659 95.6140625,81.9074659 C93.2321875,81.9074659 91.398125,82.8729155 90.1109375,84.8038147 C88.8221875,86.7344015 88.1784375,89.4870263 88.1784375,93.0585649 C88.1784375,96.5922979 88.803125,99.2855586 90.0534375,101.141471 C91.3,102.99426 93.174375,103.922216 95.6721875,103.922216 Z M93.8559375,109.399346 C89.880625,109.399346 86.7765625,107.955858 84.5484375,105.075132 C82.3184375,102.194405 81.2046875,98.1482652 81.2046875,92.9429609 C81.2046875,87.7182852 82.333125,83.652149 84.5909375,80.7408029 C86.848125,77.8307066 89.975625,76.3759709 93.9725,76.3759709 C98.1596875,76.3759709 101.351563,77.9213152 103.539688,81.0145032 L103.886563,81.0145032 C103.55875,78.7280436 103.3975,76.9233715 103.3975,75.5976748 L103.3975,63.9850972 L110.1975,63.9850972 L110.1975,108.821326 L104.895625,108.821326 L103.713125,104.64396 L103.3975,104.64396 C101.223125,107.812134 98.0453125,109.399346 93.8559375,109.399346 L93.8559375,109.399346 Z" id="Fill-26"></path>
                    <path d="M127.732813,104.209664 C130.191563,104.209664 132.164375,103.522289 133.655,102.150663 C135.14125,100.775913 135.886875,98.8512625 135.886875,96.3735876 L135.886875,93.6053406 L131.795,93.7803088 C128.605938,93.8959128 126.28625,94.4301907 124.834688,95.3800182 C123.384063,96.3298456 122.66,97.7858311 122.66,99.7448501 C122.66,101.166467 123.080938,102.266267 123.927813,103.044251 C124.773125,103.822234 126.040313,104.209664 127.732813,104.209664 Z M137.819063,108.821326 L136.464063,104.384632 L136.23375,104.384632 C134.695938,106.324905 133.150313,107.643415 131.59375,108.346412 C130.036875,109.046285 128.03875,109.399346 125.59875,109.399346 C122.465625,109.399346 120.0225,108.5495 118.264063,106.862307 C116.506875,105.171989 115.627188,102.778674 115.627188,99.6886104 C115.627188,96.4017075 116.847813,93.9240327 119.2875,92.2524614 C121.725938,90.5812025 125.444375,89.6685559 130.440938,89.5154587 L135.94625,89.3423651 L135.94625,87.6426739 C135.94625,85.6049192 135.470938,84.0842579 134.519375,83.0750663 C133.567813,82.0671244 132.092813,81.5622162 130.095625,81.5622162 C128.460625,81.5622162 126.896875,81.8021726 125.396563,82.2823978 C123.899063,82.7616857 122.458438,83.3290827 121.074063,83.9827139 L118.88375,79.141406 C120.614688,78.238445 122.503438,77.5523197 124.560938,77.0824051 C126.616875,76.6103034 128.556563,76.3759709 130.383438,76.3759709 C134.435313,76.3759709 137.495938,77.2579982 139.562813,79.0264269 C141.6275,80.7932934 142.660938,83.5690391 142.660938,87.3536639 L142.660938,108.821326 L137.819063,108.821326 L137.819063,108.821326 Z" id="Fill-27"></path>
                    <path d="M146.191563,76.9514914 L153.568125,76.9514914 L160.054688,95.017584 C161.0325,97.5921163 161.685313,100.013551 162.013125,102.281889 L162.243125,102.281889 C162.417188,101.222707 162.735,99.9416894 163.195625,98.4325886 C163.655625,96.9234877 166.095313,89.7635386 170.515,76.9514914 L177.83625,76.9514914 L164.204063,113.058056 C161.725625,119.684977 157.594375,123 151.811563,123 C150.311875,123 148.852813,122.834405 147.430313,122.509464 L147.430313,117.147938 C148.449063,117.379146 149.610313,117.49475 150.917813,117.49475 C154.183125,117.49475 156.480625,115.601344 157.805,111.817657 L158.986875,108.821326 L146.191563,76.9514914" id="Fill-28"></path>
                    <path d="M6.8709375,59.9623034 C4.7696875,59.9623034 2.775,59.7573406 0.886875,59.3486649 L0.886875,50.3884178 C1.509375,50.5049591 2.170625,50.6364977 2.8715625,50.7830336 C3.5725,50.9283197 4.33125,51.0017439 5.148125,51.0017439 C7.055625,51.0017439 8.41875,50.4268483 9.2359375,49.2792443 C10.053125,48.1313279 10.4621875,46.1666848 10.4621875,43.3834405 L10.4621875,3.89249046 L22.050625,3.89249046 L22.050625,42.3911208 C22.050625,48.1697584 20.785625,52.5427139 18.25625,55.5109246 C15.7265625,58.478198 11.9315625,59.9623034 6.8709375,59.9623034" id="Fill-29"></path>
                    <path d="M40.2884375,39.09297 C41.6696875,39.09297 42.851875,38.6558619 43.835,37.7794587 C44.8171875,36.9036803 45.309375,35.7663869 45.309375,34.3644541 L45.309375,31.7958583 L42.6815625,31.9130245 C38.9253125,32.0498747 37.0478125,33.4302489 37.0478125,36.0566467 C37.0478125,38.0819037 38.1275,39.09297 40.2884375,39.09297 Z M48.75375,46.5647375 L46.5646875,42.1864705 L46.3315625,42.1864705 C44.7928125,44.0942489 43.2265625,45.397762 41.63125,46.0979473 C40.034375,46.7978202 37.971875,47.1490064 35.4421875,47.1490064 C32.328125,47.1490064 29.8759375,46.2148011 28.0859375,44.3476403 C26.294375,42.4786049 25.4,39.8518946 25.4,36.4668847 C25.4,32.9443996 26.625625,30.3220636 29.078125,28.599564 C31.5296875,26.8773769 35.081875,25.9097402 39.73375,25.6957166 L45.2509375,25.5210609 L45.2509375,25.0539582 C45.2509375,22.3297657 43.9078125,20.9675132 41.2221875,20.9675132 C38.8084375,20.9675132 35.744375,21.7845522 32.0265625,23.4195677 L28.728125,15.888436 C32.580625,13.9037965 37.4465625,12.9121017 43.3240625,12.9121017 C47.566875,12.9121017 50.85125,13.9625359 53.1759375,16.0637166 C55.5021875,18.166772 56.6659375,21.1037384 56.6659375,24.8786776 L56.6659375,46.5647375 L48.75375,46.5647375 L48.75375,46.5647375 Z" id="Fill-30"></path>
                    <path d="M70.2196875,46.5647375 L57.6078125,13.4954332 L69.51875,13.4954332 L75.12375,33.0515677 C75.1425,33.1481126 75.1821875,33.3137075 75.2409375,33.5471026 C75.29875,33.7814351 75.3575,34.0585722 75.41625,34.3788265 C75.4746875,34.7003306 75.5275,35.0412062 75.5759375,35.4008283 C75.625,35.7610754 75.6496875,36.0969519 75.6496875,36.4081453 L75.85375,36.4081453 C75.85375,35.3961417 76.0278125,34.2972788 76.379375,33.1090572 L82.2465625,13.4954332 L94.12875,13.4954332 L81.516875,46.5647375 L70.2196875,46.5647375" id="Fill-31"></path>
                    <path d="M108.348125,39.09297 C109.729063,39.09297 110.911875,38.6558619 111.894688,37.7794587 C112.8775,36.9036803 113.369688,35.7663869 113.369688,34.3644541 L113.369688,31.7958583 L110.742188,31.9130245 C106.985,32.0498747 105.107188,33.4302489 105.107188,36.0566467 C105.107188,38.0819037 106.1875,39.09297 108.348125,39.09297 Z M116.814063,46.5647375 L114.625,42.1864705 L114.390938,42.1864705 C112.853125,44.0942489 111.285938,45.397762 109.690625,46.0979473 C108.094688,46.7978202 106.031563,47.1490064 103.50125,47.1490064 C100.387813,47.1490064 97.93625,46.2148011 96.1453125,44.3476403 C94.354375,42.4786049 93.459375,39.8518946 93.459375,36.4668847 C93.459375,32.9443996 94.6859375,30.3220636 97.1384375,28.599564 C99.5896875,26.8773769 103.142188,25.9097402 107.793125,25.6957166 L113.31,25.5210609 L113.31,25.0539582 C113.31,22.3297657 111.967813,20.9675132 109.281875,20.9675132 C106.868438,20.9675132 103.80375,21.7845522 100.085625,23.4195677 L96.7884375,15.888436 C100.640313,13.9037965 105.505625,12.9121017 111.38375,12.9121017 C115.627188,12.9121017 118.91125,13.9625359 121.23625,16.0637166 C123.562188,18.166772 124.725,21.1037384 124.725,24.8786776 L124.725,46.5647375 L116.814063,46.5647375 L116.814063,46.5647375 Z" id="Fill-32"></path>
                    <path d="M160.896875,33.6052171 C160.896875,36.2525486 160.225313,38.6014968 158.882188,40.6548738 C157.539063,42.7079382 155.602813,44.3032734 153.073125,45.4415041 C150.543125,46.5794223 147.574375,47.1490064 144.16875,47.1490064 C141.327188,47.1490064 138.942813,46.9496676 137.016875,46.5513025 C135.09,46.1523124 133.085313,45.4558765 131.003125,44.4635568 L131.003125,34.1894859 C133.2025,35.3183433 135.489063,36.1988084 137.864063,36.830881 C140.2375,37.463891 142.417188,37.7794587 144.4025,37.7794587 C146.114688,37.7794587 147.370625,37.4835749 148.169063,36.8896203 C148.96625,36.2959782 149.365313,35.5320545 149.365313,34.5975368 C149.365313,34.0145177 149.204688,33.503673 148.883125,33.0656276 C148.5625,32.6275822 148.047188,32.1857875 147.336563,31.7377439 C146.625625,31.2906376 144.733125,30.3761163 141.65875,28.993555 C138.874688,27.7287847 136.788438,26.5036948 135.397188,25.316723 C134.005313,24.1297511 132.973438,22.7674986 132.301875,21.2299655 C131.630625,19.6930572 131.294688,17.8730754 131.294688,15.7722071 C131.294688,11.8422961 132.725625,8.77754042 135.586563,6.57731517 C138.447188,4.37990191 142.378125,3.27978928 147.379375,3.27978928 C151.798125,3.27978928 156.303438,4.3017911 160.896875,6.3448574 L157.364688,15.24699 C153.374063,13.4182598 149.929688,12.5031135 147.030313,12.5031135 C145.531875,12.5031135 144.44125,12.7661907 143.760313,13.2904705 C143.078438,13.8163124 142.739063,14.4686939 142.739063,15.24699 C142.739063,16.0834005 143.17125,16.8335767 144.037813,17.4947066 C144.904375,18.156149 147.254375,19.3624923 151.087813,21.1124868 C154.766563,22.7674986 157.320313,24.5424886 158.750625,26.4399564 C160.180938,28.3371117 160.896875,30.7266776 160.896875,33.6052171" id="Fill-33"></path>
                    <path d="M180.10375,47.1490064 C174.693125,47.1490064 170.591562,45.6889591 167.799062,42.7704269 C165.00125,39.8518946 163.604062,35.6589064 163.604062,30.1908374 C163.604062,24.7033969 165.113125,20.4516694 168.135312,17.4356549 C171.15125,14.4190154 175.442812,12.9121017 181.008437,12.9121017 C184.842812,12.9121017 188.453125,13.7485123 191.838437,15.4225831 L188.480937,23.8569882 C187.099375,23.2539728 185.825937,22.7728102 184.65875,22.4125631 C183.490312,22.0532534 182.273437,21.8723488 181.008437,21.8723488 C179.159375,21.8723488 177.72875,22.592218 176.718125,24.031644 C175.705312,25.4723197 175.198125,27.5057003 175.198125,30.1324105 C175.198125,35.4255114 177.155625,38.0712807 181.067187,38.0712807 C184.414687,38.0712807 187.624687,37.0989573 190.70125,35.1527484 L190.70125,44.2301617 C187.7625,46.1757457 184.229062,47.1490064 180.10375,47.1490064" id="Fill-34"></path>
                    <path d="M215.69,12.9121017 C216.683437,12.9121017 217.626875,12.9908374 218.521875,13.1454968 L219.16375,13.2623506 L218.141875,24.031644 C217.209375,23.7985613 215.914062,23.68202 214.259687,23.68202 C211.768125,23.68202 209.959375,24.2506667 208.83,25.3895223 C207.700937,26.5274405 207.1375,28.1665177 207.1375,30.3073787 L207.1375,46.5647375 L195.7225,46.5647375 L195.7225,13.4954332 L204.2175,13.4954332 L205.998437,18.7785359 L206.553437,18.7785359 C207.506562,17.027604 208.835,15.6116113 210.538437,14.5318074 C212.24125,13.4516912 213.958437,12.9121017 215.69,12.9121017" id="Fill-35"></path>
                    <path d="M223.148438,46.5647375 L234.561875,46.5647375 L234.561875,13.4954332 L223.148438,13.4954332 L223.148438,46.5647375 Z M222.856563,5.2644287 C222.856563,3.55317711 223.333438,2.27840872 224.285938,1.4413733 C225.24,0.604650318 226.777188,0.185663942 228.9,0.185663942 C231.02,0.185663942 232.567813,0.613711172 233.540625,1.47043052 C234.513438,2.32621253 235.000938,3.59223252 235.000938,5.2644287 C235.000938,8.61225795 232.966563,10.2844541 228.9,10.2844541 C224.870625,10.2844541 222.856563,8.61225795 222.856563,5.2644287 L222.856563,5.2644287 Z" id="Fill-36"></path>
                    <path d="M255.831875,21.8723488 C254.1575,21.8723488 252.984687,22.4706776 252.313125,23.6676476 C251.6425,24.8646176 251.277187,26.6396076 251.21875,28.993555 L251.21875,29.8980781 C251.21875,32.7406866 251.59875,34.7931262 252.356875,36.0566467 C253.116562,37.3220418 254.31375,37.9547393 255.94875,37.9547393 C257.408437,37.9547393 258.469062,37.3270409 259.130625,36.0728937 C259.791875,34.8178093 260.122812,32.7406866 260.122812,29.8412134 C260.122812,26.9995422 259.791875,24.961475 259.130625,23.7260745 C258.469062,22.4903615 257.36875,21.8723488 255.831875,21.8723488 Z M259.656875,47.1490064 C257.9825,47.1490064 256.484375,46.8718692 255.159687,46.3166576 C253.835625,45.7623833 252.5225,44.7656894 251.21875,43.3256385 L250.693437,43.3256385 C251.044375,45.6414678 251.21875,47.0805813 251.21875,47.6445413 L251.21875,60.9252534 L239.805937,60.9252534 L239.805937,13.4954332 L249.088437,13.4954332 L250.693437,17.6981072 L251.21875,17.6981072 C253.340625,14.5071244 256.269687,12.9121017 260.006562,12.9121017 C263.664062,12.9121017 266.535625,14.4287012 268.618437,17.4647121 C270.70125,20.4997856 271.74125,24.664654 271.74125,29.9577548 C271.74125,35.2895985 270.657187,39.4872734 268.48625,42.5517166 C266.31625,45.6164723 263.373437,47.1490064 259.656875,47.1490064 L259.656875,47.1490064 Z" id="Fill-37"></path>
                    <path d="M292.500938,38.1293951 C294.0375,38.1293951 295.877188,37.7510263 298.01875,36.9917893 L298.01875,45.3099655 C296.479688,45.9710954 295.015313,46.4431971 293.624375,46.7256458 C292.233125,47.0074696 290.602813,47.1490064 288.734375,47.1490064 C284.90125,47.1490064 282.137188,46.2101144 280.443438,44.3317057 C278.750938,42.4548592 277.904063,39.5697584 277.904063,35.6782779 L277.904063,22.0476294 L273.904688,22.0476294 L273.904688,17.4065976 L278.984375,13.8163124 L281.932813,6.87038692 L289.405938,6.87038692 L289.405938,13.4954332 L297.521875,13.4954332 L297.521875,22.0476294 L289.405938,22.0476294 L289.405938,34.9190409 C289.405938,37.0599019 290.4375,38.1293951 292.500938,38.1293951" id="Fill-38"></path>
                </g>
                <g id="Page-1" transform="translate(136.000000, 144.000000)">
                    <g id="Group-3" transform="translate(235.902440, 54.106034)">
                        <g id="Fill-1-Clipped">
                            <mask id="mask-2" fill="white">
                                <use xlink:href="#path-1"></use>
                            </mask>
                            <g id="path-1"></g>
                            <path d="M12.0795587,6.01191448 C12.0795587,9.2416532 9.43422532,11.8602755 6.17162834,11.8602755 C2.90730314,11.8602755 0.259953542,9.2416532 0.259953542,6.01191448 C0.259953542,2.78103562 2.90730314,0.162983373 6.17162834,0.162983373 C9.43422532,0.162983373 12.0795587,2.78103562 12.0795587,6.01191448" id="Fill-1" fill="#FEFEFE" fill-rule="nonzero" mask="url(#mask-2)"></path>
                        </g>
                    </g>
                    <g id="Group-6" transform="translate(54.439024, 0.234300)">
                        <g id="Fill-4-Clipped">
                            <mask id="mask-4" fill="white">
                                <use xlink:href="#path-3"></use>
                            </mask>
                            <g id="path-3"></g>
                            <path d="M12.0667698,5.89932542 C12.0667698,9.1287791 9.4208604,11.7471164 6.15682322,11.7471164 C2.89365018,11.7471164 0.246876656,9.1287791 0.246876656,5.89932542 C0.246876656,2.67101188 2.89365018,0.050679335 6.15682322,0.050679335 C9.4208604,0.050679335 12.0667698,2.67101188 12.0667698,5.89932542" id="Fill-4" fill="#FEFEFE" fill-rule="nonzero" mask="url(#mask-4)"></path>
                        </g>
                    </g>
                    <path d="M11.819922,60.1179478 C11.819922,63.3476864 9.17401254,65.9663088 5.90911126,65.9663088 C2.64536214,65.9663088 2.88037166e-05,63.3476864 2.88037166e-05,60.1179478 C2.88037166e-05,56.8870688 2.64536214,54.2690166 5.90911126,54.2690166 C9.17401254,54.2690166 11.819922,56.8870688 11.819922,60.1179478" id="Fill-7" fill="#FEFEFE" fill-rule="nonzero"></path>
                    <path d="M66.5057942,60.1179478 C66.5057942,63.3476864 63.8598848,65.9663088 60.5958476,65.9663088 C57.3326746,65.9663088 54.685901,63.3476864 54.685901,60.1179478 C54.685901,56.8870688 57.3326746,54.2690166 60.5958476,54.2690166 C63.8598848,54.2690166 66.5057942,56.8870688 66.5057942,60.1179478" id="Fill-9" fill="#FEFEFE" fill-rule="nonzero"></path>
                    <path d="M11.819922,114.100618 C11.819922,117.329501 9.17401254,119.949264 5.90911126,119.949264 C2.64536214,119.949264 2.88037166e-05,117.329501 2.88037166e-05,114.100618 C2.88037166e-05,110.871734 2.64536214,108.254252 5.90911126,108.254252 C9.17401254,108.254252 11.819922,110.871734 11.819922,114.100618" id="Fill-11" fill="#FEFEFE" fill-rule="nonzero"></path>
                    <path d="M120.923849,114.100618 C120.923849,117.329501 118.279092,119.949264 115.013903,119.949264 C111.74929,119.949264 109.103956,117.329501 109.103956,114.100618 C109.103956,110.871734 111.74929,108.254252 115.013903,108.254252 C118.279092,108.254252 120.923849,110.871734 120.923849,114.100618" id="Fill-13" fill="#FEFEFE" fill-rule="nonzero"></path>
                    <path d="M157.29122,78.1119334 C157.29122,81.3425274 154.645599,83.9605796 151.380986,83.9605796 C148.116949,83.9605796 145.473344,81.3425274 145.473344,78.1119334 C145.473344,74.8816248 148.116949,72.2635724 151.380986,72.2635724 C154.645599,72.2635724 157.29122,74.8816248 157.29122,78.1119334" id="Fill-15" fill="#FEFEFE" fill-rule="nonzero"></path>
                    <path d="M193.658015,114.100618 C193.658015,117.329501 191.011242,119.949264 187.750661,119.949264 C184.486048,119.949264 181.838698,117.329501 181.838698,114.100618 C181.838698,110.871734 184.486048,108.254252 187.750661,108.254252 C191.011242,108.254252 193.658015,110.871734 193.658015,114.100618" id="Fill-17" fill="#FEFEFE" fill-rule="nonzero"></path>
                    <path d="M66.3714824,114.100618 C66.3714824,117.329501 63.725861,119.949264 60.4615358,119.949264 C57.198939,119.949264 54.5515894,117.329501 54.5515894,114.100618 C54.5515894,110.870309 57.198939,108.254252 60.4615358,108.254252 C63.725861,108.254252 66.3714824,110.870309 66.3714824,114.100618" id="Fill-19" fill="#FEFEFE" fill-rule="nonzero"></path>
                    <polygon id="Fill-21" fill="#FEFEFE" fill-rule="nonzero" points="29.457705 78.2857768 11.0411847 60.0608836 62.9719814 8.6743753 57.8348386 3.5887696 0.766610918 60.0608836 24.319122 83.3693872"></polygon>
                    <polygon id="Fill-23" fill="#FEFEFE" fill-rule="nonzero" points="36.7653808 95.6851782 57.8329952 116.535819 62.9730184 111.451069 41.9022356 90.6024228"></polygon>
                    <polygon id="Fill-25" fill="#FEFEFE" fill-rule="nonzero" points="187.565367 119.078993 151.233799 83.1237434 114.902807 119.078993 60.4030068 65.1476864 8.47278606 116.535905 3.33535516 111.450869 60.4030068 54.9776152 114.902807 108.908637 151.233799 72.9545274 187.565367 108.908637 239.49818 57.520133 244.634746 62.6034584"></polygon>
                </g>
            </g>
        </g>
    </g>
</svg>