<?xml version="1.0" encoding="UTF-8"?>
<svg width="92px" height="92px" viewBox="0 0 92 92" version="1.1" xmlns="http://www.w3.org/2000/svg" xmlns:xlink="http://www.w3.org/1999/xlink">
    <!-- Generator: Sketch 46.2 (44496) - http://www.bohemiancoding.com/sketch -->
    <title>highload_small</title>
    <desc>Created with Sketch.</desc>
    <defs>
        <linearGradient x1="50%" y1="98.3906649%" x2="50%" y2="15.1785714%" id="linearGradient-1">
            <stop stop-color="#19B2A1" offset="0%"></stop>
            <stop stop-color="#90B5F5" offset="100%"></stop>
        </linearGradient>
    </defs>
    <g id="Large" stroke="none" stroke-width="1" fill="none" fill-rule="evenodd">
        <g id="small" transform="translate(-317.000000, -56.000000)">
            <g id="Group-2" transform="translate(317.000000, 56.000000)">
                <rect id="Rectangle" x="0" y="0" width="92" height="92"></rect>
                <g id="highload_small" transform="translate(15.000000, 13.000000)" fill-rule="nonzero">
                    <path d="M10.3781731,55.3644956 L8.67411433,55.3644956 L8.67411433,61.2587848 L7.18464071,61.2587848 L7.18464071,55.3644956 L6.03597884,55.3644956 L6.03597884,54.6658191 L7.18464071,54.2085035 L7.18464071,53.751188 C7.18464071,52.9212408 7.37818619,52.3061999 7.76528297,51.9060468 C8.15237975,51.5058936 8.74353496,51.3058201 9.53876637,51.3058201 C10.0605056,51.3058201 10.5738218,51.3926243 11.0787306,51.566236 L10.6874283,52.6968214 C10.3213694,52.5782577 9.97214596,52.5189766 9.63974764,52.5189766 C9.30314175,52.5189766 9.05805427,52.6237771 8.90447782,52.833381 C8.75090138,53.0429851 8.67411433,53.3573863 8.67411433,53.7765943 L8.67411433,54.2339099 L10.3781731,54.2339099 L10.3781731,55.3644956 Z M17.2890783,61.2587848 L16.3865582,57.9813566 C16.2771614,57.634134 16.0794083,56.8274882 15.7932933,55.5613952 L15.7364914,55.5613952 C15.4924521,56.7046899 15.2989066,57.5155699 15.1558491,57.9940599 L14.2280838,61.2587848 L12.5871382,61.2587848 L10.6306263,54.2339099 L12.1453452,54.2339099 L13.0352426,57.6955345 C13.2372061,58.5508882 13.3802615,59.2834327 13.4644129,59.8931898 L13.5022809,59.8931898 C13.5443566,59.5840767 13.6085212,59.2294491 13.6947765,58.8292959 C13.7810317,58.4291429 13.8557151,58.1295619 13.9188287,57.930544 L14.9791319,54.2339099 L16.6074547,54.2339099 L17.6362013,57.930544 C17.6993149,58.1380308 17.7782058,58.4556079 17.8728762,58.8832846 C17.9675466,59.3109615 18.0232961,59.6433588 18.0401264,59.8804866 L18.0906171,59.8804866 C18.1537307,59.3596523 18.3009935,58.6313423 18.5324101,57.6955345 L19.4349301,54.2339099 L20.9244037,54.2339099 L18.9552691,61.2587848 L17.2890783,61.2587848 Z M24.4776818,61.385817 C23.606714,61.385817 22.9272011,61.0682397 22.4391227,60.4330761 C21.9510441,59.7979125 21.7070085,58.9065796 21.7070085,57.7590506 C21.7070085,56.607287 21.9541997,55.7106611 22.4485897,55.0691459 C22.9429795,54.4276306 23.627752,54.1068779 24.5029272,54.1068779 C25.4201783,54.1068779 26.1186251,54.447744 26.5982883,55.1294862 L26.6740243,55.1294862 C26.6024956,54.6255897 26.5667318,54.2275597 26.5667318,53.9353844 L26.5667318,51.3756877 L28.0562054,51.3756877 L28.0562054,61.2587848 L26.8949207,61.2587848 L26.6361564,60.3378021 L26.5667318,60.3378021 C26.091276,61.036482 25.3949329,61.385817 24.4776818,61.385817 Z M24.8752955,60.1790119 C25.4853938,60.1790119 25.9292862,60.0064619 26.2069859,59.6613562 C26.4846858,59.3162506 26.6277413,58.7562563 26.6361564,57.9813566 L26.6361564,57.7717539 C26.6361564,56.8867591 26.4931011,56.2579565 26.2069859,55.8853272 C25.9208709,55.5126978 25.4727711,55.326386 24.862673,55.326386 C24.3409339,55.326386 23.9391166,55.5391625 23.6572092,55.9647223 C23.3753016,56.3902818 23.2343501,56.9968541 23.2343501,57.7844569 C23.2343501,58.563591 23.3710942,59.1574602 23.6445865,59.5660822 C23.9180787,59.9747041 24.328311,60.1790119 24.8752955,60.1790119 Z M34.5442515,61.2587848 L34.2476191,60.2806376 L34.1971284,60.2806376 C33.8605225,60.7083144 33.5218179,60.9994268 33.1810045,61.1539834 C32.840191,61.3085399 32.4026099,61.385817 31.868248,61.385817 C31.1824134,61.385817 30.6470079,61.199505 30.2620148,60.8268755 C29.8770218,60.4542463 29.6845281,59.9270685 29.6845281,59.2453262 C29.6845281,58.5212395 29.9517051,57.9750069 30.4860669,57.606612 C31.020429,57.2382172 31.8345822,57.0370851 32.9285513,57.0032096 L34.1340151,56.9650998 L34.1340151,56.5903553 C34.1340151,56.1415063 34.0298793,55.8059332 33.8216043,55.5836258 C33.6133295,55.3613185 33.2904031,55.2501666 32.8528152,55.2501666 C32.4951716,55.2501666 32.1522595,55.3030961 31.8240688,55.4089568 C31.495878,55.5148174 31.1803148,55.6397311 30.8773694,55.7837015 L30.3977084,54.7166319 C30.7763899,54.5176138 31.1908298,54.3662355 31.6410401,54.262492 C32.0912507,54.1587486 32.5162091,54.1068779 32.9159285,54.1068779 C33.8037268,54.1068779 34.4737727,54.3016584 34.926087,54.6912254 C35.3784011,55.0807924 35.6045547,55.6926577 35.6045547,56.5268392 L35.6045547,61.2587848 L34.5442515,61.2587848 Z M32.3352864,60.242528 C32.8738558,60.242528 33.3061775,60.0911497 33.6322645,59.7883882 C33.9583514,59.4856269 34.1213924,59.0611323 34.1213924,58.5148915 L34.1213924,57.9051375 L33.2251837,57.943247 C32.5267264,57.9686536 32.0186697,58.0861572 31.7009979,58.2957612 C31.383326,58.5053652 31.2244925,58.8261181 31.2244925,59.2580292 C31.2244925,59.5713767 31.3170577,59.8137938 31.5021909,59.9852882 C31.6873243,60.1567822 31.9650198,60.242528 32.3352864,60.242528 Z M36.6143673,54.2339099 L38.2300676,54.2339099 L39.6501166,58.2163661 C39.8647029,58.7837789 40.0077581,59.3173083 40.0792869,59.8169705 L40.1297774,59.8169705 C40.1676459,59.5840772 40.2370697,59.3014335 40.3380514,58.9690313 C40.4390332,58.636629 40.9733872,57.0582709 41.9411288,54.2339099 L43.5442065,54.2339099 L40.558948,62.1924708 C40.016171,63.6533472 39.1115561,64.3837743 37.8450766,64.3837743 C37.5168859,64.3837743 37.1971149,64.3477824 36.8857546,64.2757971 L36.8857546,63.0943986 C37.1087559,63.1452117 37.3633104,63.1706178 37.6494254,63.1706178 C38.3647129,63.1706178 38.8675104,62.7535332 39.157833,61.9193517 L39.4165973,61.2587848 L36.6143673,54.2339099 Z M49.2938272,59.2580292 C49.2938272,59.9440061 49.0455841,60.4701253 48.5490904,60.8364031 C48.0525967,61.2026807 47.3415272,61.385817 46.4158612,61.385817 C45.4859874,61.385817 44.7391543,61.2439658 44.1753393,60.9602594 L44.1753393,59.6708836 C44.9958163,60.0519819 45.7594793,60.242528 46.4663518,60.242528 C47.3793951,60.242528 47.8359102,59.9651774 47.8359102,59.4104677 C47.8359102,59.232622 47.7854201,59.0844193 47.6844383,58.9658554 C47.5834564,58.8472915 47.4172599,58.7244951 47.1858433,58.5974623 C46.9544268,58.4704297 46.6325522,58.3264613 46.2202101,58.1655533 C45.4165633,57.8522058 44.8727428,57.5388631 44.5887316,57.2255157 C44.3047203,56.9121684 44.1627166,56.5056696 44.1627166,56.0060076 C44.1627166,55.4047193 44.4035966,54.937881 44.885364,54.6054787 C45.3671311,54.2730765 46.0224509,54.1068779 46.8513428,54.1068779 C47.6718197,54.1068779 48.4481054,54.2741349 49.1802232,54.6086546 L48.7005623,55.7328887 C47.9474064,55.4195412 47.3141763,55.2628699 46.8008522,55.2628699 C46.0182436,55.2628699 45.6269452,55.487291 45.6269452,55.93614 C45.6269452,56.1563301 45.7289773,56.3426418 45.9330445,56.4950813 C46.1371117,56.6475204 46.582056,56.8571212 47.2678906,57.1238899 C47.8443282,57.3483146 48.2629755,57.5536811 48.523845,57.7399957 C48.7847147,57.9263106 48.9782601,58.1412043 49.1044874,58.3846836 C49.2307145,58.6281631 49.2938272,58.9192755 49.2938272,59.2580292 Z" id="fwdays" fill="#181916"></path>
                    <path d="M13.8466736,47.207871 L11.3719362,47.207871 L11.3719362,43.4623348 L8.5107161,43.4623348 L8.5107161,47.207871 L6.03597884,47.207871 L6.03597884,38.0199955 L8.5107161,38.0199955 L8.5107161,41.4261709 L11.3719362,41.4261709 L11.3719362,38.0199955 L13.8466736,38.0199955 L13.8466736,47.207871 Z M17.9101464,47.207871 L15.4728107,47.207871 L15.4728107,40.0875817 L17.9101464,40.0875817 L17.9101464,47.207871 Z M15.4104748,38.3153649 C15.4104748,37.9466749 15.5122892,37.6722563 15.715921,37.492101 C15.9195527,37.3119456 16.2478521,37.2218695 16.7008289,37.2218695 C17.1538058,37.2218695 17.4841831,37.3140406 17.6919705,37.4983854 C17.8997581,37.6827304 18.0036504,37.9550542 18.0036504,38.3153649 C18.0036504,39.0359862 17.5693809,39.3962913 16.7008289,39.3962913 C15.8405886,39.3962913 15.4104748,39.0359862 15.4104748,38.3153649 Z M26.0628576,40.0875817 L26.0628576,41.275344 L25.0966505,41.633558 C25.2296346,41.8765582 25.2961257,42.1593559 25.2961257,42.4819597 C25.2961257,43.2486673 25.0291224,43.8435898 24.4951085,44.2667452 C23.9610946,44.6899009 23.1642413,44.9014754 22.1045249,44.9014754 C21.8427126,44.9014754 21.6349282,44.8847171 21.4811653,44.8511999 C21.4229848,44.960131 21.393895,45.0627761 21.393895,45.1591382 C21.393895,45.2806383 21.4915537,45.3738569 21.686874,45.4387966 C21.8821941,45.5037364 22.137769,45.5362055 22.4536061,45.5362055 L23.625522,45.5362055 C25.208863,45.5362055 26.0005217,46.2086359 26.0005217,47.5535161 C26.0005217,48.4207755 25.6337823,49.0953005 24.9002922,49.5771112 C24.1668022,50.058922 23.1372303,50.2998236 21.8115457,50.2998236 C20.8100098,50.2998236 20.0380907,50.1311926 19.4957653,49.793925 C18.9534397,49.4566575 18.6822811,48.9717117 18.6822811,48.3390733 C18.6822811,47.4885725 19.2058979,46.9397356 20.253147,46.6925455 C20.037048,46.6003732 19.8490031,46.4516425 19.6890066,46.2463492 C19.5290102,46.0410559 19.4490133,45.8378605 19.4490133,45.6367569 C19.4490133,45.4147051 19.5092708,45.2188414 19.6297876,45.04916 C19.7503043,44.879479 20.0017235,44.6773309 20.3840525,44.4427102 C20.0183464,44.2793133 19.7305651,44.023748 19.5206996,43.6760064 C19.3108343,43.3282647 19.2059031,42.9051156 19.2059031,42.4065462 C19.2059031,41.6314593 19.4677115,41.0302523 19.991336,40.602907 C20.5149606,40.1755619 21.2629846,39.9618925 22.2354303,39.9618925 C22.3642587,39.9618925 22.5865879,39.9765561 22.9024251,40.0058836 C23.2182621,40.0352114 23.4509806,40.0624438 23.6005877,40.0875817 L26.0628576,40.0875817 Z M20.7393675,48.0939794 C20.7393675,48.295083 20.8474154,48.4574298 21.0635144,48.5810248 C21.2796135,48.7046198 21.5684339,48.7664163 21.9299841,48.7664163 C22.5201007,48.7664163 22.9928103,48.692051 23.3481271,48.5433181 C23.7034437,48.3945852 23.8810995,48.2029111 23.8810995,47.9682903 C23.8810995,47.7797556 23.7730514,47.646736 23.5569524,47.5692273 C23.3408534,47.4917186 23.0312547,47.4529649 22.6281468,47.4529649 L21.6744067,47.4529649 C21.4125945,47.4529649 21.191304,47.5147613 21.0105289,47.6383563 C20.8297537,47.7619514 20.7393675,47.913824 20.7393675,48.0939794 Z M21.5060997,42.4191151 C21.5060997,43.1481157 21.7575188,43.5126106 22.2603646,43.5126106 C22.4930868,43.5126106 22.6728202,43.4225343 22.7995707,43.2423789 C22.926321,43.0622236 22.9896954,42.7919947 22.9896954,42.431684 C22.9896954,41.6943041 22.7465876,41.3256196 22.2603646,41.3256196 C21.7575188,41.3256196 21.5060997,41.6901145 21.5060997,42.4191151 Z M31.3668161,47.207871 L31.3668161,43.3240768 C31.3668161,42.3688347 31.086307,41.8912207 30.5252806,41.8912207 C30.1263286,41.8912207 29.8323136,42.059852 29.6432271,42.3971195 C29.4541403,42.7343871 29.3595984,43.2947454 29.3595984,44.0782116 L29.3595984,47.207871 L26.9222628,47.207871 L26.9222628,37.4292564 L29.3595984,37.4292564 L29.3595984,38.8181214 C29.3595984,39.4465702 29.3263529,40.162991 29.2598609,40.9674055 L29.3720657,40.9674055 C29.6047876,40.5987158 29.8811409,40.3389606 30.2011338,40.1881331 C30.5211267,40.0373052 30.8930607,39.9618925 31.3169471,39.9618925 C32.10654,39.9618925 32.7205429,40.1912728 33.1589746,40.6500405 C33.5974062,41.1088083 33.8166188,41.7508638 33.8166188,42.5762265 L33.8166188,47.207871 L31.3668161,47.207871 Z M37.6993175,47.207871 L35.2619818,47.207871 L35.2619818,37.4292564 L37.6993175,37.4292564 L37.6993175,47.207871 Z M45.9205984,43.6320152 C45.9205984,44.7967403 45.6099607,45.7048353 44.9886758,46.3563271 C44.3673912,47.0078191 43.4978134,47.3335603 42.3799163,47.3335603 C41.3077325,47.3335603 40.4547775,47.0004874 39.8210256,46.3343315 C39.1872734,45.6681758 38.8704021,44.7674126 38.8704021,43.6320152 C38.8704021,42.4714798 39.18104,41.5696691 39.8023247,40.9265565 C40.4236095,40.2834441 41.2952653,39.9618925 42.4173178,39.9618925 C43.1113282,39.9618925 43.7242924,40.1106233 44.2562284,40.4080889 C44.7881645,40.7055547 45.1985389,41.1318461 45.4873635,41.6869758 C45.7761882,42.2421057 45.9205984,42.8904457 45.9205984,43.6320152 Z M41.3451396,43.6320152 C41.3451396,44.2437055 41.4261754,44.709798 41.5882497,45.0303069 C41.7503241,45.3508157 42.0225217,45.5110679 42.4048508,45.5110679 C42.783024,45.5110679 43.0500272,45.3508157 43.2058677,45.0303069 C43.3617084,44.709798 43.4396276,44.2437055 43.4396276,43.6320152 C43.4396276,43.0245148 43.3606694,42.5657539 43.202751,42.2557191 C43.0448323,41.9456845 42.7747126,41.7906695 42.3923835,41.7906695 C42.018366,41.7906695 41.7503241,41.944637 41.5882497,42.252577 C41.4261754,42.5605168 41.3451396,43.0203249 41.3451396,43.6320152 Z M51.7045435,47.207871 L51.2370238,46.2652026 L51.1871551,46.2652026 C50.8588508,46.6757891 50.5243179,46.9564919 50.1835462,47.1073198 C49.8427748,47.2581475 49.4022717,47.3335603 48.8620241,47.3335603 C48.1971039,47.3335603 47.6734872,47.1324596 47.2911581,46.7302525 C46.908829,46.3280451 46.7176675,45.7624497 46.7176675,45.033449 C46.7176675,44.2751207 46.9794757,43.7105728 47.5031003,43.3397878 C48.026725,42.9690031 48.7851381,42.7605708 49.7783627,42.7144845 L50.9565121,42.6767778 L50.9565121,42.5762265 C50.9565121,41.9896742 50.6697696,41.6964027 50.0962759,41.6964027 C49.5809628,41.6964027 48.9264419,41.8723656 48.1326934,42.2242969 L47.4282973,40.602907 C48.2511359,40.1755619 49.290058,39.9618925 50.5450947,39.9618925 C51.4510485,39.9618925 52.1523209,40.1881307 52.648933,40.6406139 C53.1455453,41.0930969 53.3938478,41.7257259 53.3938478,42.5385198 L53.3938478,47.207871 L51.7045435,47.207871 Z M49.8968009,45.5990502 C50.1918593,45.5990502 50.4443172,45.5047842 50.6541827,45.3162497 C50.864048,45.127715 50.9689794,44.8826236 50.9689794,44.5809681 L50.9689794,44.0279359 L50.4079558,44.0530738 C49.6058958,44.0824014 49.2048718,44.3798627 49.2048718,44.9454667 C49.2048718,45.3811911 49.4355127,45.5990502 49.8968009,45.5990502 Z M57.0334363,47.3335603 C56.5305904,47.3335603 56.0911263,47.1890191 55.7150309,46.8999327 C55.3389354,46.6108462 55.0480371,46.1856023 54.8423275,45.624188 C54.6366177,45.0627737 54.5337646,44.407102 54.5337646,43.6571531 C54.5337646,42.5008073 54.7644052,41.5958545 55.2256936,40.9422679 C55.686982,40.2886809 56.3207244,39.9618925 57.1269401,39.9618925 C57.5217365,39.9618925 57.8676975,40.0414948 58.1648338,40.2007018 C58.4619699,40.359909 58.7331285,40.6280431 58.9783179,41.0051123 L59.0281866,41.0051123 C58.9492273,40.4478877 58.9097483,39.8906715 58.9097483,39.3334469 L58.9097483,37.4292564 L61.3657848,37.4292564 L61.3657848,47.207871 L59.5268743,47.207871 L59.0032522,46.3091938 L58.9097483,46.3091938 C58.4900175,46.9921082 57.8645863,47.3335603 57.0334363,47.3335603 Z M58.0308115,45.391663 C58.4214519,45.391663 58.6967664,45.26807 58.8567628,45.0208803 C59.0167592,44.7736902 59.1029897,44.392437 59.1154569,43.877109 L59.1154569,43.6822908 C59.1154569,43.0538421 59.0261096,42.6066027 58.8474123,42.3405593 C58.668715,42.0745161 58.3882061,41.9414964 58.0058769,41.9414964 C57.6858841,41.9414964 57.4375819,42.0933691 57.2609625,42.3971195 C57.0843429,42.7008697 56.9960345,43.1334455 56.9960345,43.6948598 C56.9960345,44.2478948 57.0853819,44.6689492 57.2640792,44.9580356 C57.4427764,45.247122 57.6983514,45.391663 58.0308115,45.391663 Z" id="Highload" fill="#181916"></path>
                    <g id="Group">
                        <polyline id="Fill-1" fill="url(#linearGradient-1)" points="53.3175596 12.9451072 41.766712 24.4651768 33.6847001 16.4053627 25.6029027 24.4651768 13.4800993 12.3753488 7.41891205 18.4202628 2.50013519 13.5150794 14.0514117 1.9952237 12.9087869 0.855493064 0.214456613 13.5150794 6.27607276 19.5597796 0.785983485 25.0349352 1.92882277 26.1746658 7.41891205 20.6997241 12.9087869 26.1746658 14.0514117 25.0349352 8.56175133 19.5597796 13.4800993 14.6550239 25.6029027 26.7448519 33.6847001 18.6852517 41.766712 26.7448519 54.4606134 14.0848378 53.3175596 12.9451072"></polyline>
                        <g id="Group-2">
                            <path d="M14.779063,1.37777158 C14.779063,2.10109096 14.1912374,2.68753146 13.4657307,2.68753146 C12.7404384,2.68753146 12.1523984,2.10109096 12.1523984,1.37777158 C12.1523984,0.65487994 12.7404384,0.0680116985 13.4657307,0.0680116985 C14.1912374,0.0680116985 14.779063,0.65487994 14.779063,1.37777158" id="Fill-3" fill="#A7C5FB"></path>
                            <path d="M2.62666459,13.4675995 C2.62666459,14.1909189 2.03862456,14.7775733 1.31311784,14.7775733 C0.588040031,14.7775733 0,14.1909189 0,13.4675995 C0,12.7440663 0.588040031,12.1578397 1.31311784,12.1578397 C2.03862456,12.1578397 2.62666459,12.7440663 2.62666459,13.4675995" id="Fill-5" fill="#149AAF"></path>
                            <path d="M14.8506915,13.500536 C14.8506915,14.2238555 14.2626515,14.8105097 13.5373592,14.8105097 C12.812067,14.8105097 12.2240269,14.2238555 12.2240269,13.500536 C12.2240269,12.7770028 12.812067,12.1907761 13.5373592,12.1907761 C14.2626515,12.1907761 14.8506915,12.7770028 14.8506915,13.500536" id="Fill-7" fill="#149AAF"></path>
                            <path d="M55.1685346,13.500536 C55.1685346,14.2238555 54.5804946,14.8105097 53.8554168,14.8105097 C53.1299101,14.8105097 52.5418701,14.2238555 52.5418701,13.500536 C52.5418701,12.7770028 53.1299101,12.1907761 53.8554168,12.1907761 C54.5804946,12.1907761 55.1685346,12.7770028 55.1685346,13.500536" id="Fill-8" fill="#149AAF"></path>
                            <path d="M2.62666459,25.5572136 C2.62666459,26.2807469 2.03862456,26.8671874 1.31311784,26.8671874 C0.588040031,26.8671874 0,26.2807469 0,25.5572136 C0,24.8341081 0.588040031,24.2478816 1.31311784,24.2478816 C2.03862456,24.2478816 2.62666459,24.8341081 2.62666459,25.5572136" id="Fill-10" fill="#00776F"></path>
                            <path d="M26.8602617,25.6908844 C26.8602617,26.4144177 26.2722218,27.0008582 25.5467151,27.0008582 C24.8214228,27.0008582 24.2335972,26.4144177 24.2335972,25.6908844 C24.2335972,24.967779 24.8214228,24.3815523 25.5467151,24.3815523 C26.2722218,24.3815523 26.8602617,24.967779 26.8602617,25.6908844" id="Fill-12" fill="#00776F"></path>
                            <path d="M35.0091842,17.5641281 C35.0091842,18.2872335 34.421573,18.8738879 33.6960663,18.8738879 C32.9705596,18.8738879 32.3829485,18.2872335 32.3829485,17.5641281 C32.3829485,16.8405948 32.9705596,16.2543682 33.6960663,16.2543682 C34.421573,16.2543682 35.0091842,16.8405948 35.0091842,17.5641281" id="Fill-13" fill="#149AAF"></path>
                            <path d="M42.9445077,25.6908844 C42.9445077,26.4144177 42.3560388,27.0008582 41.6313898,27.0008582 C40.9058832,27.0008582 40.3178431,26.4144177 40.3178431,25.6908844 C40.3178431,24.967779 40.9058832,24.3815523 41.6313898,24.3815523 C42.3560388,24.3815523 42.9445077,24.967779 42.9445077,25.6908844" id="Fill-14" fill="#00776F"></path>
                            <path d="M14.6364493,25.6908844 C14.6364493,26.4144177 14.0486237,27.0008582 13.3231171,27.0008582 C12.5980392,27.0008582 12.0095703,26.4144177 12.0095703,25.6908844 C12.0095703,24.9673512 12.5980392,24.3815523 13.3231171,24.3815523 C14.0486237,24.3815523 14.6364493,24.9673512 14.6364493,25.6908844" id="Fill-15" fill="#00776F"></path>
                        </g>
                    </g>
                </g>
            </g>
        </g>
    </g>
</svg>