<?xml version="1.0" encoding="UTF-8"?>
<svg width="92px" height="92px" viewBox="0 0 92 92" version="1.1" xmlns="http://www.w3.org/2000/svg" xmlns:xlink="http://www.w3.org/1999/xlink">
    <!-- Generator: Sketch 46.2 (44496) - http://www.bohemiancoding.com/sketch -->
    <title>JS_small</title>
    <desc>Created with Sketch.</desc>
    <defs>
        <linearGradient x1="50%" y1="15.1785714%" x2="50%" y2="100%" id="linearGradient-1">
            <stop stop-color="#46C8EE" offset="0%"></stop>
            <stop stop-color="#0474BB" offset="100%"></stop>
        </linearGradient>
    </defs>
    <g id="Large" stroke="none" stroke-width="1" fill="none" fill-rule="evenodd">
        <g id="small" transform="translate(-81.000000, -56.000000)">
            <g id="Group-2" transform="translate(81.000000, 56.000000)">
                <rect id="Rectangle" x="0" y="0" width="92" height="92"></rect>
                <g id="JS_small" transform="translate(13.000000, 16.000000)" fill-rule="nonzero">
                    <path d="M7.97428723,51.4746451 L6.36844093,51.4746451 L6.36844093,57.161472 L4.96481231,57.161472 L4.96481231,51.4746451 L3.88235294,51.4746451 L3.88235294,50.80056 L4.96481231,50.3593407 L4.96481231,49.9181214 C4.96481231,49.117386 5.1472029,48.5239928 5.51198957,48.1379239 C5.87677624,47.751855 6.43386054,47.5588235 7.18325923,47.5588235 C7.67492823,47.5588235 8.1586598,47.6425725 8.63446851,47.8100735 L8.2657186,48.9008655 C7.92075731,48.7864749 7.59166122,48.7292803 7.27842049,48.7292803 C6.9612147,48.7292803 6.73025271,48.8303921 6.58552756,49.0326186 C6.44080241,49.2348452 6.36844093,49.5381804 6.36844093,49.9426335 L6.36844093,50.3838528 L7.97428723,50.3838528 L7.97428723,51.4746451 Z M14.4868862,57.161472 L13.6363824,53.9993999 C13.5332905,53.6643986 13.3469348,52.8861445 13.07731,51.6646144 L13.0237817,51.6646144 C12.7938076,52.7676683 12.6114169,53.5500077 12.4766045,54.0116561 L11.6023103,57.161472 L10.0559399,57.161472 L8.21219039,50.3838528 L9.63960933,50.3838528 L10.4782179,53.723638 C10.6685415,54.5488857 10.8033519,55.2556467 10.8826533,55.843942 L10.9183388,55.843942 C10.9579895,55.5457088 11.018456,55.2035632 11.0997399,54.8174942 C11.181024,54.4314255 11.2514029,54.1423889 11.310879,53.9503758 L12.3100723,50.3838528 L13.8445477,50.3838528 L14.814003,53.9503758 C14.8734791,54.1505597 14.9478231,54.4569589 15.0370372,54.8695827 C15.1262513,55.2822065 15.1787877,55.6029044 15.194648,55.8316859 L15.2422287,55.8316859 C15.3017048,55.3291836 15.4404802,54.626508 15.6585592,53.723638 L16.509063,50.3838528 L17.9126916,50.3838528 L16.057047,57.161472 L14.4868862,57.161472 Z M21.2611785,57.284033 C20.4404085,57.284033 19.8000589,56.9776335 19.3401105,56.3648259 C18.8801622,55.7520182 18.6501914,54.8920577 18.6501914,53.7849185 C18.6501914,52.6736938 18.8831359,51.8086265 19.3490319,51.1896908 C19.8149279,50.5707551 20.4602338,50.2612919 21.2849688,50.2612919 C22.1493547,50.2612919 22.8075468,50.5901605 23.259565,51.2479074 L23.330936,51.2479074 C23.2635298,50.7617466 23.2298271,50.3777261 23.2298271,50.0958346 L23.2298271,47.626232 L24.6334558,47.626232 L24.6334558,57.161472 L23.5391011,57.161472 L23.2952506,56.2729052 L23.2298271,56.2729052 C22.781774,56.9469936 22.1255643,57.284033 21.2611785,57.284033 Z M21.6358759,56.119704 C22.2108115,56.119704 22.6291203,55.9532273 22.8908151,55.6202683 C23.1525099,55.2873095 23.2873204,54.7470254 23.2952506,53.9993999 L23.2952506,53.7971747 C23.2952506,52.9433292 23.1604401,52.3366586 22.8908151,51.9771449 C22.6211901,51.617631 22.1989163,51.4378769 21.6239809,51.4378769 C21.1323119,51.4378769 20.7536531,51.6431642 20.4879933,52.0537455 C20.2223334,52.4643265 20.0895055,53.0495492 20.0895055,53.8094306 C20.0895055,54.5611414 20.2183684,55.1341081 20.4760982,55.5283477 C20.7338277,55.9225872 21.1204165,56.119704 21.6358759,56.119704 Z M30.7475668,57.161472 L30.4680307,56.2177527 L30.4204501,56.2177527 C30.1032443,56.6303766 29.7840607,56.9112426 29.4628899,57.0603593 C29.141719,57.2094758 28.7293576,57.284033 28.2257934,57.284033 C27.5794866,57.284033 27.0749388,57.1042786 26.7121346,56.7447647 C26.3493304,56.3852509 26.1679311,55.8766283 26.1679311,55.2188814 C26.1679311,54.5202805 26.4197094,53.9932738 26.9232735,53.6378453 C27.4268379,53.282417 28.1940679,53.0883642 29.2249866,53.055681 L30.3609743,53.0189126 L30.3609743,52.657358 C30.3609743,52.2243072 30.2628402,51.9005453 30.0665691,51.6860626 C29.870298,51.4715799 29.5659833,51.3643401 29.1536156,51.3643401 C28.8165846,51.3643401 28.493436,51.4154067 28.1841604,51.5175414 C27.8748848,51.619676 27.5775088,51.7401931 27.2920236,51.8790962 L26.8400075,50.8495844 C27.196864,50.6575712 27.5874177,50.511521 28.0116805,50.4114289 C28.4359434,50.311337 28.8364096,50.2612919 29.2130915,50.2612919 C30.0497219,50.2612919 30.6811501,50.4492168 31.1073955,50.8250721 C31.5336407,51.2009274 31.7467602,51.7912568 31.7467602,52.5960775 L31.7467602,57.161472 L30.7475668,57.161472 Z M28.6659143,56.1809845 C29.1734435,56.1809845 29.5808485,56.0349343 29.8881418,55.7428292 C30.1954348,55.4507242 30.349079,55.0411706 30.349079,54.514156 L30.349079,53.9258635 L29.5045229,53.9626317 C28.8463208,53.987144 28.3675456,54.1005119 28.0681826,54.3027384 C27.7688196,54.504965 27.6191405,54.8144282 27.6191405,55.2311373 C27.6191405,55.5334558 27.7063707,55.7673406 27.8808338,55.9327988 C28.0552971,56.0982567 28.3169879,56.1809845 28.6659143,56.1809845 Z M32.6983727,50.3838528 L34.2209529,50.3838528 L35.5591582,54.2261378 C35.761377,54.7735793 35.8961872,55.28833 35.9635935,55.7704054 L36.0111741,55.7704054 C36.04686,55.5457093 36.1122826,55.2730139 36.2074443,54.9523113 C36.3026061,54.6316086 36.8061628,53.1088043 37.7181293,50.3838528 L39.2288144,50.3838528 L36.4156096,58.0622948 C35.9041152,59.4717525 35.0516374,60.1764706 33.8581507,60.1764706 C33.5488751,60.1764706 33.247534,60.1417456 32.9541187,60.072294 L32.9541187,58.9324774 C33.1642675,58.981502 33.4041508,59.0060138 33.6737759,59.0060138 C34.3478381,59.0060138 34.8216572,58.6036094 35.0952472,57.7987888 L35.3390978,57.161472 L32.6983727,50.3838528 Z M44.6470588,55.2311373 C44.6470588,55.8929697 44.4131231,56.4005711 43.9452445,56.7539569 C43.4773661,57.1073426 42.8072786,57.284033 41.9349628,57.284033 C41.0586818,57.284033 40.3548921,57.1471745 39.8235723,56.8734538 L39.8235723,55.6294604 C40.5967614,55.9971451 41.3164111,56.1809845 41.9825435,56.1809845 C42.8429641,56.1809845 43.2731681,55.9133959 43.2731681,55.3782104 C43.2731681,55.2066244 43.2255879,55.063638 43.1304262,54.9492472 C43.0352644,54.8348564 42.8786465,54.7163821 42.6605675,54.5938205 C42.4424886,54.4712591 42.139165,54.332358 41.750588,54.1771135 C40.9932589,53.874795 40.4807812,53.572481 40.2131388,53.2701626 C39.9454964,52.9678442 39.811677,52.575653 39.811677,52.0935776 C39.811677,51.5134531 40.038674,51.0630462 40.492675,50.7423434 C40.9466757,50.4216409 41.5642266,50.2612919 42.3453457,50.2612919 C43.1185348,50.2612919 43.8500798,50.422662 44.5400024,50.7454076 L44.0879864,51.8300718 C43.3782383,51.5277532 42.781504,51.3765963 42.297765,51.3765963 C41.5602617,51.3765963 41.1915156,51.5931185 41.1915156,52.0261692 C41.1915156,52.2386092 41.2876671,52.4183633 41.479973,52.5654374 C41.672279,52.7125111 42.0915791,52.9147345 42.7378859,53.1721137 C43.281101,53.3886392 43.6756198,53.5867775 43.9214541,53.7665343 C44.1672887,53.9462914 44.3496792,54.1536215 44.4686315,54.388531 C44.5875836,54.6234407 44.6470588,54.9043067 44.6470588,55.2311373 Z" id="fwdays" fill="#181916"></path>
                    <path d="M5.09653682,47.3587361 C4.67008963,47.3587361 4.26536572,47.3162937 3.88235294,47.2314074 L3.88235294,45.3699863 C4.00870768,45.3942395 4.14295755,45.4215237 4.28510663,45.4518402 C4.4272557,45.4821568 4.58124821,45.4973147 4.74708878,45.4973147 C5.13405014,45.4973147 5.41044695,45.3780718 5.57628753,45.1395822 C5.74212811,44.9010928 5.82504714,44.4928372 5.82504714,43.9148036 L5.82504714,35.7112107 L8.17641787,35.7112107 L8.17641787,43.7086526 C8.17641787,44.9091843 7.91976369,45.817654 7.40644761,46.4340886 C6.89313155,47.0505234 6.12316898,47.3587361 5.09653682,47.3587361 Z M14.0866306,44.5756989 L13.642417,43.6662098 L13.5950343,43.6662098 C13.283096,44.0623448 12.9652397,44.3331677 12.6414557,44.4786868 C12.3176717,44.6242058 11.899128,44.6969643 11.3858119,44.6969643 C10.7540383,44.6969643 10.2565239,44.5029418 9.89325412,44.1148912 C9.52998429,43.7268404 9.34835209,43.1811523 9.34835209,42.4778104 C9.34835209,41.7461732 9.59710924,41.2014957 10.094631,40.8437614 C10.5921527,40.4860272 11.3127587,40.2849311 12.2564705,40.2404669 L13.3758888,40.2040874 L13.3758888,40.1070752 C13.3758888,39.5411679 13.1034405,39.2582187 12.5585358,39.2582187 C12.0689112,39.2582187 11.4470185,39.4279883 10.6928386,39.7675326 L10.0235568,38.203211 C10.8053766,37.7909073 11.7925082,37.5847584 12.9849808,37.5847584 C13.8457724,37.5847584 14.5120862,37.8030336 14.9839421,38.2395907 C15.4557981,38.6761476 15.6917225,39.2865098 15.6917225,40.0706957 L15.6917225,44.5756989 L14.0866306,44.5756989 Z M12.3690047,43.0235041 C12.6493542,43.0235041 12.8892272,42.932556 13.0886307,42.7506573 C13.2880343,42.5687585 13.3877346,42.3322936 13.3877346,42.0412556 L13.3877346,41.5076886 L12.8546782,41.5319417 C12.0926012,41.560237 11.7115685,41.8472286 11.7115685,42.3929248 C11.7115685,42.813313 11.9307117,43.0235041 12.3690047,43.0235041 Z M18.8241194,44.5756989 L16.265449,37.7060237 L18.6819711,37.7060237 L19.819158,41.7684089 C19.8231065,41.7886199 19.8310036,41.822978 19.8428493,41.8714843 C19.8546951,41.9199907 19.8665407,41.977591 19.8783865,42.0442874 C19.8902322,42.1109835 19.9010906,42.1817207 19.9109621,42.2565014 C19.9208336,42.331282 19.9257692,42.4010088 19.9257692,42.4656841 L19.9672291,42.4656841 C19.9672291,42.2554897 20.0027659,42.0271093 20.0738404,41.7805355 L21.264333,37.7060237 L23.6749321,37.7060237 L21.1162617,44.5756989 L18.8241194,44.5756989 Z M28.6493349,44.5756989 L28.2051213,43.6662098 L28.1577384,43.6662098 C27.8458003,44.0623448 27.527944,44.3331677 27.2041598,44.4786868 C26.880376,44.6242058 26.4618322,44.6969643 25.9485161,44.6969643 C25.3167424,44.6969643 24.8192282,44.5029418 24.4559583,44.1148912 C24.0926884,43.7268404 23.9110563,43.1811523 23.9110563,42.4778104 C23.9110563,41.7461732 24.1598134,41.2014957 24.6573352,40.8437614 C25.154857,40.4860272 25.8754629,40.2849311 26.8191747,40.2404669 L27.9385932,40.2040874 L27.9385932,40.1070752 C27.9385932,39.5411679 27.6661448,39.2582187 27.12124,39.2582187 C26.6316154,39.2582187 26.0097227,39.4279883 25.2555428,39.7675326 L24.5862609,38.203211 C25.3680808,37.7909073 26.3552124,37.5847584 27.5476851,37.5847584 C28.4084767,37.5847584 29.0747903,37.8030336 29.5466463,38.2395907 C30.0185022,38.6761476 30.2544267,39.2865098 30.2544267,40.0706957 L30.2544267,44.5756989 L28.6493349,44.5756989 Z M26.9317089,43.0235041 C27.2120585,43.0235041 27.4519313,42.932556 27.6513349,42.7506573 C27.8507384,42.5687585 27.9504389,42.3322936 27.9504389,42.0412556 L27.9504389,41.5076886 L27.4173825,41.5319417 C26.6553056,41.560237 26.2742727,41.8472286 26.2742727,42.3929248 C26.2742727,42.813313 26.4934158,43.0235041 26.9317089,43.0235041 Z M37.426206,41.883611 C37.426206,42.4333493 37.289982,42.9214371 37.0175297,43.3478885 C36.7450772,43.77434 36.3521989,44.105795 35.8388828,44.3422634 C35.3255669,44.5787317 34.7234166,44.6969643 34.0324141,44.6969643 C33.4559206,44.6969643 32.9722262,44.6555323 32.5813164,44.5726674 C32.1904063,44.4898024 31.7837081,44.3452961 31.3612095,44.1391442 L31.3612095,42.0048761 C31.8073998,42.2393233 32.2713515,42.4222299 32.753079,42.5536012 C33.2348063,42.6849726 33.6770411,42.7506573 34.079797,42.7506573 C34.4272723,42.7506573 34.6819523,42.6890147 34.8438443,42.5657278 C35.0057363,42.4424408 35.0866811,42.2837871 35.0866811,42.0897617 C35.0866811,41.9684959 35.0541057,41.8623899 34.9889541,41.7714405 C34.9238025,41.6804911 34.8191665,41.5885324 34.6750432,41.4955622 C34.5309199,41.4025917 34.1469258,41.2126114 33.5230492,40.9256154 C32.9584016,40.6628729 32.5349221,40.4082184 32.2525982,40.1616446 C31.9702745,39.9150707 31.7610026,39.6321213 31.6247763,39.3127879 C31.4885502,38.9934546 31.4204381,38.615515 31.4204381,38.1789581 C31.4204381,37.3624348 31.7106549,36.7257987 32.2910968,36.2690306 C32.8715389,35.8122627 33.6691411,35.583882 34.6839274,35.583882 C35.5802562,35.583882 36.49434,35.7960942 37.426206,36.2205245 L36.7095415,38.0698193 C35.9000815,37.6898529 35.2011924,37.4998728 34.6128534,37.4998728 C34.3088122,37.4998728 34.0876948,37.5544415 33.9494943,37.6635807 C33.8112936,37.7727201 33.7421946,37.9081315 33.7421946,38.0698193 C33.7421946,38.2436337 33.8300493,38.3992559 34.0057613,38.5366904 C34.1814734,38.674125 34.6582579,38.9247375 35.4361291,39.2885349 C36.1824118,39.6321215 36.7006558,40.0009661 36.9908768,40.3950802 C37.2810978,40.7891941 37.426206,41.285366 37.426206,41.883611 Z M41.4825673,44.6969643 C40.3848607,44.6969643 39.5527089,44.3938041 38.986087,43.7874749 C38.4194649,43.1811457 38.1361582,42.310066 38.1361582,41.1742092 C38.1361582,40.0343104 38.442169,39.1511042 39.0541997,38.524564 C39.6662304,37.8980238 40.5368803,37.5847584 41.6661758,37.5847584 C42.444047,37.5847584 43.1764987,37.7585701 43.8635523,38.1061988 L43.182425,39.8584814 C42.9020753,39.7331733 42.6434469,39.6331306 42.4065318,39.55835 C42.1696166,39.4835694 41.9228337,39.4461797 41.6661758,39.4461797 C41.2910601,39.4461797 41.0008435,39.5957387 40.795517,39.8948609 C40.5901906,40.1939834 40.4875289,40.6163864 40.4875289,41.1620827 C40.4875289,42.2615597 40.8843557,42.8112898 41.6780214,42.8112898 C42.3571781,42.8112898 43.0086848,42.6091832 43.6325613,42.2049637 L43.6325613,44.0906381 C43.036325,44.4948576 42.3196674,44.6969643 41.4825673,44.6969643 Z M48.8142637,37.5847584 C49.0156415,37.5847584 49.207145,37.6009269 49.3887799,37.6332644 L49.5190827,37.6575176 L49.311783,39.8948609 C49.1222508,39.8463547 48.8596739,39.8221019 48.5240443,39.8221019 C48.0186252,39.8221019 47.6514124,39.9403342 47.4223944,40.1768027 C47.1933766,40.4132711 47.0788692,40.7538208 47.0788692,41.1984623 L47.0788692,44.5756989 L44.7630356,44.5756989 L44.7630356,37.7060237 L46.4865845,37.7060237 L46.8478781,38.803474 L46.9604124,38.803474 C47.1538931,38.4396765 47.4233798,38.1456111 47.7688811,37.9212695 C48.1143822,37.6969277 48.4628396,37.5847584 48.8142637,37.5847584 Z M52.5804055,44.5756989 L50.264572,44.5756989 L50.264572,37.7060237 L52.5804055,37.7060237 L52.5804055,44.5756989 Z M50.2053434,35.9961839 C50.2053434,35.6404707 50.3020823,35.375711 50.4955629,35.2018966 C50.6890437,35.0280822 51.0009771,34.9411765 51.4313729,34.9411765 C51.8617687,34.9411765 52.1756766,35.0301034 52.3731058,35.2079598 C52.570535,35.3858163 52.6692482,35.6485552 52.6692482,35.9961839 C52.6692482,36.6914414 52.2566273,37.0390648 51.4313729,37.0390648 C50.6140157,37.0390648 50.2053434,36.6914414 50.2053434,35.9961839 Z M58.0227133,44.6969643 C57.6831349,44.6969643 57.3790983,44.6393638 57.1105946,44.5241613 C56.8420908,44.4089587 56.5755653,44.2017994 56.3110102,43.902677 L56.2043988,43.902677 C56.2754733,44.3836981 56.3110102,44.682816 56.3110102,44.8000395 L56.3110102,47.5588235 L53.9951763,47.5588235 L53.9951763,37.7060237 L55.8786422,37.7060237 L56.2043988,38.5791334 L56.3110102,38.5791334 C56.741406,37.9162134 57.335659,37.5847584 58.0937874,37.5847584 C58.8361213,37.5847584 59.418529,37.9000448 59.8410275,38.5306273 C60.2635261,39.1612096 60.4747724,40.0262264 60.4747724,41.1257032 C60.4747724,42.2332644 60.254642,43.1053547 59.8143747,43.7420005 C59.3741075,44.3786461 58.776893,44.6969643 58.0227133,44.6969643 Z M57.2468201,39.4461797 C56.9072417,39.4461797 56.6693431,39.5704754 56.5331168,39.8190704 C56.3968907,40.0676651 56.3228559,40.4365099 56.3110102,40.9256154 L56.3110102,41.1135765 C56.3110102,41.703737 56.3880063,42.1301821 56.5420012,42.3929248 C56.6959959,42.6556675 56.9388303,42.7870368 57.2705115,42.7870368 C57.5666553,42.7870368 57.78185,42.6566779 57.916102,42.3959564 C58.050354,42.135235 58.1174789,41.703737 58.1174789,41.1014502 C58.1174789,40.5112898 58.050354,40.0878762 57.916102,39.8311967 C57.78185,39.5745175 57.5587583,39.4461797 57.2468201,39.4461797 Z M64.8805816,42.8234163 C65.1925199,42.8234163 65.5656557,42.7445948 66,42.5869492 L66,44.3149787 C65.6880617,44.4524133 65.3909353,44.550435 65.1086113,44.6090469 C64.8262875,44.6676587 64.4955984,44.6969643 64.1165343,44.6969643 C63.338663,44.6969643 62.7779722,44.5019312 62.4344453,44.1118595 C62.0909185,43.7217876 61.9191576,43.1225413 61.9191576,42.3141025 L61.9191576,39.4825593 L61.1077274,39.4825593 L61.1077274,38.5185007 L62.1383029,37.7727194 L62.7365107,36.3296633 L64.2527598,36.3296633 L64.2527598,37.7060237 L65.8993116,37.7060237 L65.8993116,39.4825593 L64.2527598,39.4825593 L64.2527598,42.1564577 C64.2527598,42.601099 64.4620317,42.8234163 64.8805816,42.8234163 Z" id="JavaScript" fill="#181916"></path>
                    <g id="Group">
                        <polyline id="Fill-1" fill="url(#linearGradient-1)" points="49.7632333 12.0269027 38.9824037 22.7298467 31.4391657 15.2417203 23.8961278 22.7298467 12.5814709 11.4975577 6.92434264 17.1137022 2.33346784 12.5564465 13.1146977 1.85370125 12.0482441 0.794812413 0.20016022 12.5564465 5.85768883 18.1723923 0.733587206 23.2591917 1.80024101 24.3180806 6.92434264 19.2314799 12.0482441 24.3180806 13.1146977 23.2591917 7.99099645 18.1723923 12.5814709 13.6155341 23.8961278 24.8478231 31.4391657 17.3598954 38.9824037 24.8478231 50.8300873 13.0857916 49.7632333 12.0269027"></polyline>
                        <path d="M13.7938414,1.2800454 C13.7938414,1.95205929 13.2452022,2.4969032 12.5680602,2.4969032 C11.8911184,2.4969032 11.342279,1.95205929 11.342279,1.2800454 C11.342279,0.608428903 11.8911184,0.0631875868 12.5680602,0.0631875868 C13.2452022,0.0631875868 13.7938414,0.608428903 13.7938414,1.2800454" id="Fill-3" fill="#25B0DF"></path>
                        <path d="M2.45156237,12.5123345 C2.45156237,13.1843483 1.90272305,13.729391 1.22558102,13.729391 C0.548839322,13.729391 0,13.1843483 0,12.5123345 C0,11.8401218 0.548839322,11.2954766 1.22558102,11.2954766 C1.90272305,11.2954766 2.45156237,11.8401218 2.45156237,12.5123345" id="Fill-5" fill="#308ACA"></path>
                        <path d="M13.8606949,12.5429347 C13.8606949,13.2149486 13.3118555,13.7599912 12.6349137,13.7599912 C11.9579718,13.7599912 11.4091325,13.2149486 11.4091325,12.5429347 C11.4091325,11.8707221 11.9579718,11.3260769 12.6349137,11.3260769 C13.3118555,11.3260769 13.8606949,11.8707221 13.8606949,12.5429347" id="Fill-7" fill="#308ACA"></path>
                        <path d="M51.4339707,12.5123345 C51.4339707,13.1843483 50.8851314,13.729391 50.2083896,13.729391 C49.5312477,13.729391 48.9824083,13.1843483 48.9824083,12.5123345 C48.9824083,11.8401218 49.5312477,11.2954766 50.2083896,11.2954766 C50.8851314,11.2954766 51.4339707,11.8401218 51.4339707,12.5123345" id="Fill-8" fill="#308ACA"></path>
                        <path d="M2.45156237,23.7444248 C2.45156237,24.4166373 1.90272305,24.9614813 1.22558102,24.9614813 C0.548839322,24.9614813 0,24.4166373 0,23.7444248 C0,23.0726095 0.548839322,22.5279643 1.22558102,22.5279643 C1.90272305,22.5279643 2.45156237,23.0726095 2.45156237,23.7444248" id="Fill-10" fill="#0C5B98"></path>
                        <path d="M25.0696672,23.8686142 C25.0696672,24.5408268 24.5208279,25.0856707 23.8436859,25.0856707 C23.166744,25.0856707 22.6181048,24.5408268 22.6181048,23.8686142 C22.6181048,23.196799 23.166744,22.6521538 23.8436859,22.6521538 C24.5208279,22.6521538 25.0696672,23.196799 25.0696672,23.8686142" id="Fill-12" fill="#0C5B98"></path>
                        <path d="M32.6753552,16.3182937 C32.6753552,16.9901088 32.1269162,17.5351515 31.4497742,17.5351515 C30.7726322,17.5351515 30.2241932,16.9901088 30.2241932,16.3182937 C30.2241932,15.646081 30.7726322,15.1014358 31.4497742,15.1014358 C32.1269162,15.1014358 32.6753552,15.646081 32.6753552,16.3182937" id="Fill-13" fill="#308ACA"></path>
                        <path d="M40.0816837,23.8686142 C40.0816837,24.5408268 39.532444,25.0856707 38.8561026,25.0856707 C38.1789606,25.0856707 37.6301213,24.5408268 37.6301213,23.8686142 C37.6301213,23.196799 38.1789606,22.6521538 38.8561026,22.6521538 C39.532444,22.6521538 40.0816837,23.196799 40.0816837,23.8686142" id="Fill-14" fill="#0C5B98"></path>
                        <path d="M13.6607348,23.8686142 C13.6607348,24.5408268 13.1120957,25.0856707 12.4349536,25.0856707 C11.7582119,25.0856707 11.2089723,24.5408268 11.2089723,23.8686142 C11.2089723,23.1964015 11.7582119,22.6521538 12.4349536,22.6521538 C13.1120957,22.6521538 13.6607348,23.1964015 13.6607348,23.8686142" id="Fill-15" fill="#0C5B98"></path>
                    </g>
                </g>
            </g>
        </g>
    </g>
</svg>