<?xml version="1.0" encoding="UTF-8"?>
<svg width="580px" height="580px" viewBox="0 0 580 580" version="1.1" xmlns="http://www.w3.org/2000/svg" xmlns:xlink="http://www.w3.org/1999/xlink">
    <!-- Generator: Sketch 46.2 (44496) - http://www.bohemiancoding.com/sketch -->
    <title>front_big</title>
    <desc>Created with Sketch.</desc>
    <defs>
        <polygon id="path-1" points="12.0794146 0.162983373 12.0794146 11.8602755 0.259953542 11.8602755 0.259953542 0.162983373"></polygon>
        <polygon id="path-3" points="0.246876656 0.050736342 12.0667698 0.050736342 12.0667698 11.7471164 0.246876656 11.7471164"></polygon>
    </defs>
    <g id="Large" stroke="none" stroke-width="1" fill="none" fill-rule="evenodd">
        <g id="big-copy" transform="translate(-3137.000000, -31.000000)">
            <g id="Group-Copy-4" transform="translate(3137.000000, 31.000000)">
                <rect id="Rectangle-11" x="0" y="0" width="580" height="580"></rect>
                <g id="PHP_big" transform="translate(156.000000, 144.000000)">
                    <path d="M43.473592,250 L35.8313394,250 L35.8313394,276.140846 L29.1514444,276.140846 L29.1514444,250 L24,250 L24,246.901408 L29.1514444,244.87324 L29.1514444,242.84507 C29.1514444,239.164302 30.0194448,236.436628 31.7554714,234.661972 C33.4914978,232.887314 36.1426726,232 39.709075,232 C42.048937,232 44.3510246,232.384972 46.6154072,233.15493 L44.8605194,238.169014 C43.2188422,237.64319 41.6526676,237.380282 40.1619492,237.380282 C38.6523608,237.380282 37.5532084,237.845066 36.8644588,238.774648 C36.175709,239.70423 35.8313394,241.098582 35.8313394,242.957746 L35.8313394,244.985916 L43.473592,244.985916 L43.473592,250 Z M74.4671724,276.140846 L70.419609,261.605634 C69.9289928,260.06572 69.042123,256.488292 67.7589728,250.87324 L67.504231,250.87324 C66.4097796,255.943688 65.5417792,259.539896 64.9002042,261.661972 L60.7394222,276.140846 L53.380216,276.140846 L44.6057776,244.985916 L51.3988912,244.985916 L55.3898454,260.338028 C56.2955984,264.131474 56.9371638,267.380268 57.3145608,270.084508 L57.4843888,270.084508 C57.6730872,268.713608 57.9608482,267.140854 58.3476802,265.366198 C58.7345122,263.59154 59.069447,262.262916 59.3524948,261.380282 L64.1076744,244.985916 L71.4102714,244.985916 L76.0239276,261.380282 C76.3069754,262.300474 76.66078,263.708912 77.0853516,265.605634 C77.5099234,267.502358 77.7599452,268.976522 77.8354246,270.02817 L78.0618616,270.02817 C78.3449094,267.718298 79.0053444,264.488284 80.0431864,260.338028 L84.0907498,244.985916 L90.770645,244.985916 L81.9395974,276.140846 L74.4671724,276.140846 Z M106.706157,276.704226 C102.800097,276.704226 99.7526614,275.295788 97.5637586,272.478874 C95.3748552,269.661958 94.2804202,265.708946 94.2804202,260.619718 C94.2804202,255.511712 95.3890074,251.535226 97.6062152,248.69014 C99.8234228,245.845056 102.894446,244.422536 106.819376,244.422536 C110.933004,244.422536 114.065353,245.934258 116.216515,248.957746 L116.556172,248.957746 C116.235384,246.722994 116.074993,244.957752 116.074993,243.661972 L116.074993,232.309858 L122.754888,232.309858 L122.754888,276.140846 L117.546833,276.140846 L116.386344,272.056338 L116.074993,272.056338 C113.942699,275.154944 110.819785,276.704226 106.706157,276.704226 Z M108.489349,271.352112 C111.225478,271.352112 113.216218,270.586862 114.461628,269.056338 C115.707039,267.525814 116.348604,265.04227 116.386344,261.605634 L116.386344,260.676056 C116.386344,256.751154 115.744779,253.96245 114.461628,252.30986 C113.178478,250.657268 111.168869,249.830986 108.43274,249.830986 C106.092878,249.830986 104.290834,250.774638 103.026554,252.661972 C101.762273,254.549306 101.130143,257.23942 101.130143,260.732394 C101.130143,264.18781 101.743404,266.821588 102.969945,268.633804 C104.196485,270.446018 106.036268,271.352112 108.489349,271.352112 Z M151.852057,276.140846 L150.521739,271.802816 L150.295302,271.802816 C148.785714,273.69954 147.266713,274.990606 145.738255,275.676058 C144.209797,276.361506 142.247361,276.704226 139.85089,276.704226 C136.775103,276.704226 134.373951,275.877942 132.647359,274.225352 C130.920767,272.572762 130.057484,270.234758 130.057484,267.211268 C130.057484,263.999984 131.255702,261.577474 133.652173,259.943662 C136.048646,258.309852 139.699908,257.417842 144.606069,257.267606 L150.012255,257.098592 L150.012255,255.43662 C150.012255,253.446 149.545234,251.957752 148.611176,250.97183 C147.677118,249.98591 146.228879,249.492958 144.266413,249.492958 C142.662476,249.492958 141.124606,249.727696 139.652758,250.197184 C138.180909,250.66667 136.765691,251.220654 135.407062,251.859156 L133.255909,247.12676 C134.954195,246.244126 136.812848,245.572772 138.831922,245.112676 C140.850998,244.65258 142.756824,244.422536 144.54946,244.422536 C148.531,244.422536 151.535978,245.286376 153.564488,247.014084 C155.592997,248.741792 156.607237,251.45538 156.607237,255.15493 L156.607237,276.140846 L151.852057,276.140846 Z M141.945434,271.633804 C144.360774,271.633804 146.299623,270.962448 147.762037,269.619718 C149.22445,268.276988 149.955646,266.394378 149.955646,263.971832 L149.955646,261.267606 L145.936387,261.43662 C142.803991,261.549296 140.525491,262.070418 139.100817,263 C137.676143,263.929582 136.963817,265.352104 136.963817,267.267606 C136.963817,268.657284 137.378947,269.73239 138.209221,270.492958 C139.039495,271.253526 140.284886,271.633804 141.945434,271.633804 Z M161.135979,244.985916 L168.381967,244.985916 L174.750511,262.647888 C175.712874,265.164332 176.354438,267.530506 176.675226,269.746478 L176.901663,269.746478 C177.071492,268.71361 177.38284,267.460102 177.835716,265.985916 C178.288593,264.51173 180.685029,257.5118 185.025094,244.985916 L192.214473,244.985916 L178.826379,280.28169 C176.392167,286.760596 172.335209,290 166.655384,290 C165.183535,290 163.749447,289.840378 162.353079,289.521128 L162.353079,284.28169 C163.353181,284.507044 164.49479,284.619718 165.77794,284.619718 C168.985815,284.619718 171.240729,282.769972 172.542749,279.070422 L173.703238,276.140846 L161.135979,244.985916 Z M218,267.267606 C218,270.309874 216.886696,272.643184 214.660052,274.267606 C212.43341,275.892026 209.244452,276.704226 205.093084,276.704226 C200.922846,276.704226 197.573498,276.075124 195.044937,274.816902 L195.044937,269.098592 C198.724558,270.788742 202.149386,271.633804 205.319522,271.633804 C209.41428,271.633804 211.461628,270.403768 211.461628,267.943662 C211.461628,267.154926 211.235194,266.497656 210.782318,265.971832 C210.32944,265.446006 209.584092,264.901412 208.54625,264.338028 C207.508408,263.774646 206.064886,263.136154 204.21564,262.422536 C200.611498,261.032856 198.172606,259.6432 196.898891,258.25352 C195.625176,256.863844 194.988327,255.061044 194.988327,252.84507 C194.988327,250.17839 196.06861,248.107988 198.22921,246.633802 C200.389808,245.159618 203.328744,244.422536 207.046104,244.422536 C210.725726,244.422536 214.207162,245.164312 217.490516,246.647888 L215.339364,251.633804 C211.96166,250.244124 209.12179,249.549296 206.819666,249.549296 C203.309874,249.549296 201.555004,250.544592 201.555004,252.535212 C201.555004,253.511742 202.012592,254.338024 202.92778,255.014084 C203.842966,255.690144 205.838424,256.619712 208.91421,257.802816 C211.49938,258.798128 213.376904,259.708916 214.546834,260.535212 C215.716766,261.361508 216.584764,262.31455 217.150862,263.394366 C217.716956,264.474184 218,265.765252 218,267.267606 Z" id="fwdays" fill="#FFFFFF" fill-rule="nonzero"></path>
                    <path d="M55.7188602,185.358413 C55.7188602,190.050639 54.369714,193.67509 51.6713812,196.231874 C48.9730484,198.788659 45.1403526,200.067032 40.1731794,200.067032 L37.0640432,200.067032 L37.0640432,214 L26,214 L26,172 L40.1731794,172 C45.345762,172 49.2298092,173.158675 51.8254374,175.47606 C54.4210656,177.793445 55.7188602,181.08753 55.7188602,185.358413 Z M37.0640432,190.816689 L39.0807802,190.816689 C40.742729,190.816689 42.0638654,190.337898 43.0442286,189.380301 C44.0245916,188.422704 44.5147658,187.101239 44.5147658,185.415868 C44.5147658,182.581381 42.983555,181.164159 39.9210872,181.164159 L37.0640432,181.164159 L37.0640432,190.816689 Z M96.385988,214 L85.2659242,214 L85.2659242,196.878248 L72.409226,196.878248 L72.409226,214 L61.2891624,214 L61.2891624,172 L72.409226,172 L72.409226,187.570451 L85.2659242,187.570451 L85.2659242,172 L96.385988,172 L96.385988,214 Z M134,185.358413 C134,190.050639 132.650854,193.67509 129.95252,196.231874 C127.254188,198.788659 123.421493,200.067032 118.454319,200.067032 L115.345183,200.067032 L115.345183,214 L104.281139,214 L104.281139,172 L118.454319,172 C123.626901,172 127.510949,173.158675 130.106577,175.47606 C132.702205,177.793445 134,181.08753 134,185.358413 Z M115.345183,190.816689 L117.36192,190.816689 C119.023869,190.816689 120.345005,190.337898 121.325368,189.380301 C122.305732,188.422704 122.795906,187.101239 122.795906,185.415868 C122.795906,182.581381 121.264694,181.164159 118.202227,181.164159 L115.345183,181.164159 L115.345183,190.816689 Z" id="Shape" fill="#FFFFFF" fill-rule="nonzero"></path>
                    <g id="Page-1">
                        <g id="Group-3" transform="translate(235.902440, 54.106034)">
                            <g id="Fill-1-Clipped">
                                <mask id="mask-2" fill="white">
                                    <use xlink:href="#path-1"></use>
                                </mask>
                                <g id="path-1"></g>
                                <path d="M12.0795587,6.01191448 C12.0795587,9.2416532 9.43422532,11.8602755 6.17162834,11.8602755 C2.90730314,11.8602755 0.259953542,9.2416532 0.259953542,6.01191448 C0.259953542,2.78103562 2.90730314,0.162983373 6.17162834,0.162983373 C9.43422532,0.162983373 12.0795587,2.78103562 12.0795587,6.01191448" id="Fill-1" fill="#FEFEFE" fill-rule="nonzero" mask="url(#mask-2)"></path>
                            </g>
                        </g>
                        <g id="Group-6" transform="translate(54.439024, 0.234300)">
                            <g id="Fill-4-Clipped">
                                <mask id="mask-4" fill="white">
                                    <use xlink:href="#path-3"></use>
                                </mask>
                                <g id="path-3"></g>
                                <path d="M12.0667698,5.89932542 C12.0667698,9.1287791 9.4208604,11.7471164 6.15682322,11.7471164 C2.89365018,11.7471164 0.246876656,9.1287791 0.246876656,5.89932542 C0.246876656,2.67101188 2.89365018,0.050679335 6.15682322,0.050679335 C9.4208604,0.050679335 12.0667698,2.67101188 12.0667698,5.89932542" id="Fill-4" fill="#FEFEFE" fill-rule="nonzero" mask="url(#mask-4)"></path>
                            </g>
                        </g>
                        <path d="M11.819922,60.1179478 C11.819922,63.3476864 9.17401254,65.9663088 5.90911126,65.9663088 C2.64536214,65.9663088 2.88037166e-05,63.3476864 2.88037166e-05,60.1179478 C2.88037166e-05,56.8870688 2.64536214,54.2690166 5.90911126,54.2690166 C9.17401254,54.2690166 11.819922,56.8870688 11.819922,60.1179478" id="Fill-7" fill="#FEFEFE" fill-rule="nonzero"></path>
                        <path d="M66.5057942,60.1179478 C66.5057942,63.3476864 63.8598848,65.9663088 60.5958476,65.9663088 C57.3326746,65.9663088 54.685901,63.3476864 54.685901,60.1179478 C54.685901,56.8870688 57.3326746,54.2690166 60.5958476,54.2690166 C63.8598848,54.2690166 66.5057942,56.8870688 66.5057942,60.1179478" id="Fill-9" fill="#FEFEFE" fill-rule="nonzero"></path>
                        <path d="M11.819922,114.100618 C11.819922,117.329501 9.17401254,119.949264 5.90911126,119.949264 C2.64536214,119.949264 2.88037166e-05,117.329501 2.88037166e-05,114.100618 C2.88037166e-05,110.871734 2.64536214,108.254252 5.90911126,108.254252 C9.17401254,108.254252 11.819922,110.871734 11.819922,114.100618" id="Fill-11" fill="#FEFEFE" fill-rule="nonzero"></path>
                        <path d="M120.923849,114.100618 C120.923849,117.329501 118.279092,119.949264 115.013903,119.949264 C111.74929,119.949264 109.103956,117.329501 109.103956,114.100618 C109.103956,110.871734 111.74929,108.254252 115.013903,108.254252 C118.279092,108.254252 120.923849,110.871734 120.923849,114.100618" id="Fill-13" fill="#FEFEFE" fill-rule="nonzero"></path>
                        <path d="M157.29122,78.1119334 C157.29122,81.3425274 154.645599,83.9605796 151.380986,83.9605796 C148.116949,83.9605796 145.473344,81.3425274 145.473344,78.1119334 C145.473344,74.8816248 148.116949,72.2635724 151.380986,72.2635724 C154.645599,72.2635724 157.29122,74.8816248 157.29122,78.1119334" id="Fill-15" fill="#FEFEFE" fill-rule="nonzero"></path>
                        <path d="M193.658015,114.100618 C193.658015,117.329501 191.011242,119.949264 187.750661,119.949264 C184.486048,119.949264 181.838698,117.329501 181.838698,114.100618 C181.838698,110.871734 184.486048,108.254252 187.750661,108.254252 C191.011242,108.254252 193.658015,110.871734 193.658015,114.100618" id="Fill-17" fill="#FEFEFE" fill-rule="nonzero"></path>
                        <path d="M66.3714824,114.100618 C66.3714824,117.329501 63.725861,119.949264 60.4615358,119.949264 C57.198939,119.949264 54.5515894,117.329501 54.5515894,114.100618 C54.5515894,110.870309 57.198939,108.254252 60.4615358,108.254252 C63.725861,108.254252 66.3714824,110.870309 66.3714824,114.100618" id="Fill-19" fill="#FEFEFE" fill-rule="nonzero"></path>
                        <polygon id="Fill-21" fill="#FEFEFE" fill-rule="nonzero" points="29.457705 78.2857768 11.0411847 60.0608836 62.9719814 8.6743753 57.8348386 3.5887696 0.766610918 60.0608836 24.319122 83.3693872"></polygon>
                        <polygon id="Fill-23" fill="#FEFEFE" fill-rule="nonzero" points="36.7653808 95.6851782 57.8329952 116.535819 62.9730184 111.451069 41.9022356 90.6024228"></polygon>
                        <polygon id="Fill-25" fill="#FEFEFE" fill-rule="nonzero" points="187.565367 119.078993 151.233799 83.1237434 114.902807 119.078993 60.4030068 65.1476864 8.47278606 116.535905 3.33535516 111.450869 60.4030068 54.9776152 114.902807 108.908637 151.233799 72.9545274 187.565367 108.908637 239.49818 57.520133 244.634746 62.6034584"></polygon>
                    </g>
                </g>
            </g>
        </g>
    </g>
</svg>