<?xml version="1.0" encoding="UTF-8"?>
<svg width="92px" height="92px" viewBox="0 0 92 92" version="1.1" xmlns="http://www.w3.org/2000/svg" xmlns:xlink="http://www.w3.org/1999/xlink">
    <!-- Generator: Sketch 46.2 (44496) - http://www.bohemiancoding.com/sketch -->
    <title>php_small</title>
    <desc>Created with Sketch.</desc>
    <defs>
        <linearGradient x1="50%" y1="26.5063507%" x2="50%" y2="100%" id="linearGradient-1">
            <stop stop-color="#94B2FF" offset="0%"></stop>
            <stop stop-color="#6671BC" offset="100%"></stop>
        </linearGradient>
    </defs>
    <g id="Large" stroke="none" stroke-width="1" fill="none" fill-rule="evenodd">
        <g id="small" transform="translate(-570.000000, -56.000000)">
            <g id="Group-2" transform="translate(570.000000, 56.000000)">
                <rect id="Rectangle" x="0" y="0" width="92" height="92"></rect>
                <g id="php_small" transform="translate(16.000000, 11.000000)" fill-rule="nonzero">
                    <path d="M10.4181217,57.7087717 L8.63366862,57.7087717 L8.63366862,63.842003 L7.07392446,63.842003 L7.07392446,57.7087717 L5.8710709,57.7087717 L5.8710709,56.9817723 L7.07392446,56.5059182 L7.07392446,56.0300641 C7.07392446,55.1664726 7.27660105,54.5264992 7.68196032,54.1101248 C8.08731959,53.6937502 8.70636439,53.4855662 9.53911331,53.4855662 C10.0854671,53.4855662 10.6230007,53.5758893 11.1517302,53.7565387 L10.7419669,54.9329557 C10.358638,54.8095856 9.99293893,54.7479014 9.64485868,54.7479014 C9.29237237,54.7479014 9.03572213,54.8569503 8.87490024,55.0750511 C8.71407835,55.2931521 8.63366862,55.6202986 8.63366862,56.0565003 L8.63366862,56.5323544 L10.4181217,56.5323544 L10.4181217,57.7087717 Z M17.6550703,63.842003 L16.709971,60.4317148 C16.595413,60.0704164 16.3883303,59.231071 16.088717,57.9136533 L16.0292352,57.9136533 C15.7736826,59.1032946 15.5710061,59.9470461 15.4211993,60.4449331 L14.4496638,63.842003 L12.7313017,63.842003 L10.6824851,56.5323544 L12.2686656,56.5323544 L13.2005467,60.134306 C13.4120385,61.024334 13.5618429,61.7865743 13.6499645,62.4210497 L13.689619,62.4210497 C13.7336798,62.0994057 13.8008715,61.7304024 13.8911961,61.3140278 C13.9815208,60.8976534 14.0597274,60.585928 14.1258187,60.3788423 L15.236145,56.5323544 L16.9412891,56.5323544 L18.01857,60.3788423 C18.0846612,60.5947402 18.1672739,60.9251911 18.2664107,61.3702051 C18.3655474,61.815219 18.4239271,62.1610911 18.4415514,62.4078314 L18.4944241,62.4078314 C18.5605153,61.8658837 18.7147257,61.1080495 18.9570601,60.134306 L19.9021593,56.5323544 L21.4619035,56.5323544 L19.3998689,63.842003 L17.6550703,63.842003 Z M25.1828185,63.9741848 C24.2707601,63.9741848 23.5591891,63.6437336 23.048084,62.9828218 C22.5369789,62.32191 22.2814301,61.3944443 22.2814301,60.2003969 C22.2814301,59.0019434 22.5402833,58.0689701 23.0579976,57.4014491 C23.5757118,56.7339282 24.2927906,56.4001728 25.209255,56.4001728 C26.1697803,56.4001728 26.9011784,56.7548569 27.4034712,57.4642356 L27.4827804,57.4642356 C27.407877,56.9399121 27.3704259,56.5257469 27.3704259,56.2217274 L27.3704259,53.5582659 L28.9301702,53.5582659 L28.9301702,63.842003 L27.7140982,63.842003 L27.4431258,62.8836856 L27.3704259,62.8836856 C26.872539,63.6106886 26.1433438,63.9741848 25.1828185,63.9741848 Z M25.5991908,62.7184585 C26.2380725,62.7184585 26.7029067,62.5389134 26.9937079,62.179818 C27.2845092,61.8207225 27.4343137,61.2380273 27.4431258,60.4317148 L27.4431258,60.2136152 C27.4431258,59.2927445 27.2933215,58.6384516 26.9937079,58.2507168 C26.6940946,57.8629817 26.2248542,57.6691173 25.5859728,57.6691173 C25.0396191,57.6691173 24.6188448,57.8905193 24.3236375,58.3333303 C24.0284302,58.7761411 23.8808288,59.4073026 23.8808288,60.2268331 C23.8808288,61.0375517 24.0240241,61.6554952 24.3104193,62.0806818 C24.5968143,62.5058684 25.0264007,62.7184585 25.5991908,62.7184585 Z M35.7243099,63.842003 L35.4136829,62.8242038 L35.3608102,62.8242038 C35.0083238,63.2692177 34.6536398,63.5721311 34.2967474,63.7329532 C33.9398551,63.8937751 33.4816297,63.9741848 32.9220576,63.9741848 C32.2038667,63.9741848 31.6432017,63.7803201 31.2400453,63.3925851 C30.8368892,63.0048503 30.635314,62.4563017 30.635314,61.746923 C30.635314,60.9934834 30.9150958,60.4251077 31.4746678,60.0417789 C32.0342401,59.65845 32.8868035,59.4491645 34.032384,59.4139157 L35.2947193,59.3742611 L35.2947193,58.9843252 C35.2947193,58.5172808 35.1856706,58.1681043 34.9675696,57.9367851 C34.7494686,57.7054659 34.4113072,57.5898081 33.9530748,57.5898081 C33.5785583,57.5898081 33.2194682,57.6448833 32.8757941,57.7550353 C32.5321199,57.8651873 32.201669,57.9951647 31.8844313,58.1449714 L31.3821407,57.034645 C31.7786878,56.8275591 32.21268,56.6700443 32.6841304,56.5620954 C33.1555811,56.4541464 33.6005882,56.4001728 34.0191658,56.4001728 C34.9488485,56.4001728 35.650506,56.6028493 36.1241596,57.0082086 C36.5978131,57.4135679 36.8346363,58.0502369 36.8346363,58.9182343 L36.8346363,63.842003 L35.7243099,63.842003 Z M33.4111301,62.7845493 C33.975108,62.7845493 34.4278258,62.6270344 34.7692971,62.3119996 C35.1107681,61.996965 35.281501,61.5552623 35.281501,60.986878 L35.281501,60.3524058 L34.343011,60.3920604 C33.6116019,60.4184968 33.0795759,60.5407637 32.7469169,60.7588646 C32.4142579,60.9769656 32.247931,61.3107211 32.247931,61.760141 C32.247931,62.0861909 32.3448633,62.3384352 32.5387307,62.5168815 C32.7325983,62.6953275 33.0233949,62.7845493 33.4111301,62.7845493 Z M37.8920898,56.5323544 L39.5840157,56.5323544 L41.07106,60.6762511 C41.2957701,61.2666656 41.4455743,61.8218232 41.5204777,62.3417405 L41.5733504,62.3417405 C41.6130054,62.0994062 41.6857044,61.8053048 41.7914502,61.4594278 C41.8971963,61.1135505 42.45676,59.4712091 43.4701579,56.5323544 L45.1488658,56.5323544 L42.0227683,64.8135387 C41.4543841,66.3336359 40.5070912,67.0936729 39.1808616,67.0936729 C38.8371875,67.0936729 38.5023304,67.056222 38.1762807,66.9813186 L38.1762807,65.7520287 C38.4098027,65.8049017 38.6763665,65.8313376 38.97598,65.8313376 C39.7250135,65.8313376 40.2515319,65.3973453 40.5555515,64.5293478 L40.8265237,63.842003 L37.8920898,56.5323544 Z M51.1697426,61.760141 C51.1697426,62.4739259 50.9097878,63.0213729 50.3898705,63.4024989 C49.8699532,63.7836246 49.1253369,63.9741848 48.1559996,63.9741848 C47.1822561,63.9741848 46.4001888,63.8265832 45.8097742,63.5313761 L45.8097742,62.1897316 C46.6689596,62.5862789 47.4686509,62.7845493 48.2088723,62.7845493 C49.1649913,62.7845493 49.6430439,62.4959555 49.6430439,61.918759 C49.6430439,61.7337038 49.5901716,61.5794933 49.4844258,61.4561231 C49.3786797,61.3327528 49.2046424,61.2049786 48.9623081,61.0727961 C48.7199738,60.9406138 48.3829137,60.7908093 47.951118,60.6233784 C47.1095568,60.2973284 46.5400798,59.9712836 46.2426695,59.6452336 C45.9452591,59.3191839 45.7965559,58.8962065 45.7965559,58.3762892 C45.7965559,57.7506261 46.0488003,57.2648631 46.5532964,56.9189858 C47.0577924,56.5731089 47.744029,56.4001728 48.6120264,56.4001728 C49.4712119,56.4001728 50.2841213,56.5742102 51.050779,56.9222905 L50.5484887,58.0920987 C49.7598003,57.7660488 49.0966955,57.6030264 48.5591538,57.6030264 C47.7396232,57.6030264 47.329864,57.8365451 47.329864,58.3035895 C47.329864,58.5327055 47.4367099,58.72657 47.6504045,58.885189 C47.8640993,59.0438077 48.3300352,59.2619052 49.0482261,59.5394883 C49.651859,59.7730106 50.0902573,59.9867022 50.3634341,60.1805696 C50.6366111,60.3744372 50.8392876,60.5980424 50.97147,60.8513918 C51.1036523,61.1047415 51.1697426,61.4076548 51.1697426,61.760141 Z" id="fwdays" fill="#181916"></path>
                    <path d="M13.4706379,42.5893873 C13.4706379,43.6688766 13.1523036,44.5027145 12.5156251,45.0909261 C11.8789467,45.6791376 10.9746125,45.9732391 9.80259554,45.9732391 L9.06898705,45.9732391 L9.06898705,49.1786454 L6.45839829,49.1786454 L6.45839829,39.5161625 L9.80259554,39.5161625 C11.0230794,39.5161625 11.9395301,39.7827263 12.5519751,40.3158619 C13.16442,40.8489974 13.4706379,41.6068316 13.4706379,42.5893873 Z M9.06898705,43.8451135 L9.5448412,43.8451135 C9.93698223,43.8451135 10.2487076,43.7349632 10.4800268,43.5146591 C10.7113459,43.2943553 10.8270038,42.9903403 10.8270038,42.6026053 C10.8270038,41.9505057 10.4657107,41.6244608 9.74311376,41.6244608 L9.06898705,41.6244608 L9.06898705,43.8451135 Z M23.0661488,49.1786454 L20.4423419,49.1786454 L20.4423419,45.2396303 L17.4087717,45.2396303 L17.4087717,49.1786454 L14.7849648,49.1786454 L14.7849648,39.5161625 L17.4087717,39.5161625 L17.4087717,43.0982868 L20.4423419,43.0982868 L20.4423419,39.5161625 L23.0661488,39.5161625 L23.0661488,49.1786454 Z M31.9412694,42.5893873 C31.9412694,43.6688766 31.6229349,44.5027145 30.9862565,45.0909261 C30.3495782,45.6791376 29.445244,45.9732391 28.273227,45.9732391 L27.5396184,45.9732391 L27.5396184,49.1786454 L24.9290296,49.1786454 L24.9290296,39.5161625 L28.273227,39.5161625 C29.4937107,39.5161625 30.4101615,39.7827263 31.0226064,40.3158619 C31.6350514,40.8489974 31.9412694,41.6068316 31.9412694,42.5893873 Z M27.5396184,43.8451135 L28.0154726,43.8451135 C28.4076136,43.8451135 28.719339,43.7349632 28.9506582,43.5146591 C29.1819774,43.2943553 29.2976352,42.9903403 29.2976352,42.6026053 C29.2976352,41.9505057 28.9363421,41.6244608 28.2137452,41.6244608 L27.5396184,41.6244608 L27.5396184,43.8451135 Z" id="Shape" fill="#181916"></path>
                    <g id="Group">
                        <polyline id="Fill-1" fill="url(#linearGradient-1)" points="56.085538 13.654293 43.9350288 25.805479 35.4334396 17.3041155 26.9320761 25.805479 14.179918 13.0533209 7.80406449 19.4293999 2.62992958 14.2554906 14.7808901 2.1045302 13.5789459 0.902360466 0.225590117 14.2554906 6.60189476 20.6313441 0.826787777 26.4064511 2.0289575 27.6086209 7.80406449 21.8337395 13.5789459 27.6086209 14.7808901 26.4064511 9.00623422 20.6313441 14.179918 15.457886 26.9320761 28.2100441 35.4334396 19.7089062 43.9350288 28.2100441 57.2879333 14.8564627 56.085538 13.654293"></polyline>
                        <path d="M15.5463173,1.45325153 C15.5463173,2.2161973 14.9279748,2.83476541 14.1648034,2.83476541 C13.4018577,2.83476541 12.7832895,2.2161973 12.7832895,1.45325153 C12.7832895,0.690756937 13.4018577,0.071737657 14.1648034,0.071737657 C14.9279748,0.071737657 15.5463173,0.690756937 15.5463173,1.45325153" id="Fill-3" fill="#90ADFA"></path>
                        <path d="M2.76302775,14.2054097 C2.76302775,14.9683554 2.14445965,15.5871491 1.38128829,15.5871491 C0.6185681,15.5871491 0,14.9683554 0,14.2054097 C0,13.4422383 0.6185681,12.8238957 1.38128829,12.8238957 C2.14445965,12.8238957 2.76302775,13.4422383 2.76302775,14.2054097" id="Fill-5" fill="#7080CB"></path>
                        <path d="M15.6216644,14.2401506 C15.6216644,15.0030962 15.0030962,15.6218899 14.2401506,15.6218899 C13.4772048,15.6218899 12.8586366,15.0030962 12.8586366,14.2401506 C12.8586366,13.4769792 13.4772048,12.8586366 14.2401506,12.8586366 C15.0030962,12.8586366 15.6216644,13.4769792 15.6216644,14.2401506" id="Fill-7" fill="#7080CB"></path>
                        <path d="M57.9685387,14.2054097 C57.9685387,14.9683554 57.3499706,15.5871491 56.5872505,15.5871491 C55.824079,15.5871491 55.205511,14.9683554 55.205511,14.2054097 C55.205511,13.4422383 55.824079,12.8238957 56.5872505,12.8238957 C57.3499706,12.8238957 57.9685387,13.4422383 57.9685387,14.2054097" id="Fill-8" fill="#7080CB"></path>
                        <path d="M2.76302775,26.9573422 C2.76302775,27.7205136 2.14445965,28.3390816 1.38128829,28.3390816 C0.6185681,28.3390816 0,27.7205136 0,26.9573422 C0,26.194622 0.6185681,25.5762794 1.38128829,25.5762794 C2.14445965,25.5762794 2.76302775,26.194622 2.76302775,26.9573422" id="Fill-10" fill="#404080"></path>
                        <path d="M28.2547109,27.098336 C28.2547109,27.8615073 27.6361428,28.4800754 26.8729714,28.4800754 C26.1100257,28.4800754 25.4916832,27.8615073 25.4916832,27.098336 C25.4916832,26.3356158 26.1100257,25.7172733 26.8729714,25.7172733 C27.6361428,25.7172733 28.2547109,26.3356158 28.2547109,27.098336" id="Fill-12" fill="#404080"></path>
                        <path d="M36.8266842,18.5263628 C36.8266842,19.2890829 36.2085672,19.9078766 35.4453959,19.9078766 C34.6822245,19.9078766 34.0641076,19.2890829 34.0641076,18.5263628 C34.0641076,17.7631914 34.6822245,17.1448489 35.4453959,17.1448489 C36.2085672,17.1448489 36.8266842,17.7631914 36.8266842,18.5263628" id="Fill-13" fill="#7080CB"></path>
                        <path d="M45.1739697,27.098336 C45.1739697,27.8615073 44.5549503,28.4800754 43.7926814,28.4800754 C43.02951,28.4800754 42.4109419,27.8615073 42.4109419,27.098336 C42.4109419,26.3356158 43.02951,25.7172733 43.7926814,25.7172733 C44.5549503,25.7172733 45.1739697,26.3356158 45.1739697,27.098336" id="Fill-14" fill="#404080"></path>
                        <path d="M15.3962999,27.098336 C15.3962999,27.8615073 14.7779573,28.4800754 14.0147859,28.4800754 C13.2520658,28.4800754 12.6330466,27.8615073 12.6330466,27.098336 C12.6330466,26.3351646 13.2520658,25.7172733 14.0147859,25.7172733 C14.7779573,25.7172733 15.3962999,26.3351646 15.3962999,27.098336" id="Fill-15" fill="#404080"></path>
                    </g>
                </g>
            </g>
        </g>
    </g>
</svg>