<?xml version="1.0" encoding="UTF-8"?>
<svg width="580px" height="580px" viewBox="0 0 580 580" version="1.1" xmlns="http://www.w3.org/2000/svg" xmlns:xlink="http://www.w3.org/1999/xlink">
    <!-- Generator: Sketch 46.2 (44496) - http://www.bohemiancoding.com/sketch -->
    <title>phpel_big</title>
    <desc>Created with Sketch.</desc>
    <defs>
        <path d="M1.98436923,1.37645586 L1.98436923,4.73696629 L5.87101538,16.5837014 L56.5389538,14.8069791 C104.871508,12.0454286 140.592985,29.2223307 156.705723,59.2336758 L156.705723,59.2279165 C148.354954,30.2071589 115.351015,1.37645586 70.5172923,1.37645586 L1.98436923,1.37645586 Z" id="path-1"></path>
    </defs>
    <g id="Large" stroke="none" stroke-width="1" fill="none" fill-rule="evenodd">
        <g id="big-copy" transform="translate(-931.000000, -1468.000000)">
            <g id="Group-Copy-13" transform="translate(931.000000, 1468.000000)">
                <rect id="Rectangle-11" x="0" y="0" width="580" height="580"></rect>
                <g id="Page-1" transform="translate(128.000000, 158.000000)">
                    <polygon id="Fill-3" fill="#94A9D6" points="350.425224 39.4285714 335.92135 43.1392306 335.142857 46 343.893635 46 351.869151 46 354.857143 44.9945602 354.194939 41.980495"></polygon>
                    <path d="M11.1746344,46 C9.33734002,48.1542427 7.82192819,50.3628357 6.57142857,52.5714286 L6.57142857,52.5714286 L353.455465,52.5714286 C352.307512,52.541783 346.431018,52.3688507 340.246884,51.7512352 L340.246884,51.7512352 C333.453168,51.0767991 329.824155,50.2294307 327.907102,49.5747583 L327.907102,49.5747583 C335.133794,46.0469388 348.322434,45.8147154 353.412737,46.0815252 L353.412737,46.0815252 C353.449768,46.0815252 353.486798,46.0815252 353.526678,46.0815252 L353.526678,46.0815252 C357.477573,46.3952739 362.137749,47.5934479 362.137749,49.2264232 L362.137749,49.2264232 C362.137749,50.8766917 357.517452,52.1712137 353.563708,52.5714286 L353.563708,52.5714286 L366.906169,52.5714286 C367.589813,51.6351235 368,50.5283566 368,49.2264232 L368,49.2264232 C368,47.9714286 367.623996,46.904189 366.985927,46 L366.985927,46 L11.1746344,46 Z M300.755024,48.492696 L320.458226,48.492696 C320.16198,49.0781955 320.119253,49.7476907 320.378468,50.3727175 L320.378468,50.3727175 C320.475318,50.6074114 320.597804,50.8495166 320.751624,51.0916219 L320.751624,51.0916219 L303.039536,51.0916219 C302.30177,50.2071966 301.535518,49.3450054 300.755024,48.492696 L300.755024,48.492696 Z" id="Fill-4"></path>
                    <path d="M361.797963,52.5714286 C362.009266,52.8678605 362.123484,53.1767738 362.123484,53.5012888 L362.123484,53.5012888 C362.123484,54.3843441 361.292548,55.1862705 360.033295,55.8571429 L360.033295,55.8571429 L367.688756,55.8571429 C367.888637,55.1363451 368,54.3531407 368,53.5012888 L368,53.5012888 C368,53.1830145 367.982867,52.8709809 367.954313,52.5714286 L367.954313,52.5714286 L361.797963,52.5714286 Z M8.33324116,52.5714286 C7.69933128,53.6635463 7.11396405,54.7587844 6.57142857,55.8571429 L6.57142857,55.8571429 L302.881465,55.8571429 C302.141903,54.7400624 301.373787,53.651065 300.591394,52.5745489 L300.591394,52.5745489 L320.342541,52.5745489 C320.045574,53.3140686 320.002743,54.1596798 320.262589,54.9491249 L320.262589,54.9491249 C320.359674,55.2455569 320.482458,55.5513499 320.636652,55.8571429 L320.636652,55.8571429 L334.762563,55.8571429 C331.296047,55.2049925 329.140182,54.5153982 327.809543,53.9412563 L327.809543,53.9412563 C328.637623,53.4326414 329.542801,52.9770723 330.505087,52.5714286 L330.505087,52.5714286 L8.33324116,52.5714286 Z" id="Fill-8"></path>
                    <g id="Group-96">
                        <path d="M75.0680369,145.102636 C74.2131446,145.102636 73.4346831,144.520954 73.1968985,143.642672 C72.9138215,142.597371 73.5224369,141.514636 74.5556677,141.223795 C74.6349292,141.203638 79.5066831,139.749432 84.3020062,134.390469 C90.7052062,127.225988 94.0964677,116.315127 94.0964677,102.84429 C94.0964677,101.752916 94.9626831,100.868874 96.0355446,100.868874 C97.1084062,100.868874 97.9774523,101.752916 97.9774523,102.84429 C97.9774523,121.296861 91.9960369,131.746983 86.9770831,137.258566 C81.4231138,143.363349 75.8181908,144.964415 75.5804062,145.033526 C75.4077292,145.079599 75.2407138,145.102636 75.0680369,145.102636" id="Fill-58" fill="#FFFFFF"></path>
                        <path d="M94.91088,104.158258 C88.91248,104.158258 84.3096492,98.9922289 84.1058338,98.7589801 C83.3953108,97.9469287 83.4604185,96.6971759 84.2615262,95.971513 C85.0598031,95.2458501 86.2855262,95.3149608 86.99888,96.1270122 C87.0639877,96.196123 91.0751877,100.648007 95.5846031,100.172871 C98.3587569,99.8820299 100.906449,97.7453557 103.159742,93.8175612 C103.697588,92.8730475 104.889342,92.5562899 105.817834,93.1062963 C106.740665,93.6563027 107.05488,94.8657409 106.511372,95.807375 C103.592849,100.895654 100.040234,103.686001 95.9582646,104.103545 C95.6015877,104.14098 95.2534031,104.158258 94.91088,104.158258" id="Fill-60" fill="#FFFFFF"></path>
                        <path d="M61.7571938,56.3042437 C61.7571938,56.3042437 63.1018092,57.1105358 63.9906708,55.4317204 C64.8795323,53.752905 62.4195938,53.4879804 62.4195938,53.4879804 C62.4195938,53.4879804 40.8378092,45.9030751 28.3824246,60.8453961 C26.6443323,63.6357429 30.2592246,65.4614186 30.2592246,65.4614186 C30.2592246,65.4614186 32.2747323,66.9185037 34.6299323,63.8805101 C36.9823015,60.8453961 47.7307323,52.3534122 61.7571938,56.3042437" id="Fill-62" fill="#FFFFFF"></path>
                        <path d="M62.7633179,92.2903958 C63.5435318,91.0601599 63.9909538,89.6270406 63.9909538,88.0969185 C63.9909538,81.8279971 59.9797538,79.8036279 55.0344,79.8036279 C50.0890462,79.8036279 46.0835077,84.998453 46.0835077,89.5799201 C46.0835077,94.1585075 50.0890462,96.390209 55.0344,96.390209 C57.7835921,96.390209 60.2440927,95.2431052 61.8872655,93.437184 C61.8594751,93.4667824 61.8313113,93.4962481 61.8027692,93.5255682 C55.4392,96.4858122 52.2913846,89.7763098 52.2913846,89.7763098 L55.9317538,87.3084799 L52.0507692,84.938557 C52.0507692,84.938557 52.5348308,81.5290931 57.2424,81.6788331 C63.1162462,81.6788331 63.8720615,89.4451541 63.8720615,89.4451541 C63.8720615,89.4451541 63.6653162,90.8373902 62.7633179,92.2903958 Z" id="Combined-Shape" fill="#FCFCFC"></path>
                        <path d="M62.0586708,86.3040703 C62.4634708,87.5538231 62.0586708,88.8122148 61.1556554,89.1145743 C60.2498092,89.4169339 59.1882708,88.6480767 58.7863015,87.3983239 C58.3815015,86.1485711 58.7863015,84.8901795 59.6893169,84.5878199 C60.5951631,84.2854604 61.6538708,85.0514379 62.0586708,86.3040703" id="Fill-72" fill="#FCFCFC"></path>
                        <g id="Group-76" transform="translate(152.861538, 17.277689)">
                            <mask id="mask-2" fill="white">
                                <use xlink:href="#path-1"></use>
                            </mask>
                            <g id="Clip-75"></g>
                            <path d="M1.98436923,1.37645586 L1.98436923,4.73696629 L5.87101538,16.5837014 L56.5389538,14.8069791 C104.871508,12.0454286 140.592985,29.2223307 156.705723,59.2336758 L156.705723,59.2336758 L156.705723,59.2279165 C148.354954,30.2071589 115.351015,1.37645586 70.5172923,1.37645586 L70.5172923,1.37645586 L1.98436923,1.37645586 Z" id="Fill-74" mask="url(#mask-2)"></path>
                        </g>
                        <path d="M134.143643,117.719804 C135.757182,113.244882 157.568258,105.608144 157.568258,105.608144 L157.503151,109.489865 C171.351274,109.489865 171.866474,104.819129 173.358289,98.5646061 C174.844443,92.3100828 168.696012,92.5087762 168.696012,92.5087762 L163.781797,92.3100828 C163.781797,92.3100828 159.510166,82.0413766 167.852443,74.4708693 C193.414289,74.4708693 194.710782,88.8862209 194.710782,88.8862209 C194.710782,88.8862209 197.881243,71.5768565 199.240012,64.6629014 C200.598782,57.751826 206.616997,58.0829817 206.616997,58.0829817 L214.574289,58.0829817 C222.537243,58.0829817 220.272628,66.1775788 220.272628,66.1775788 L218.780812,74.3124905 L225.83792,74.3124905 C248.158535,74.3124905 247.25552,87.7026992 247.25552,87.7026992 L248.418966,81.3848244 C249.845674,73.4831615 257.222658,74.3412867 257.222658,74.3412867 L277.083335,74.3412867 C304.264382,74.3412867 302.840505,95.8001759 302.840505,95.8001759 C302.840505,107.782253 297.014782,127.294523 267.702166,127.294523 L261.052689,127.294523 L259.597674,135.83546 C258.386105,144.624044 252.752874,143.593142 252.752874,143.593142 L243.584012,143.593142 C235.912628,143.593142 238.146105,135.440953 238.146105,135.440953 L240.037058,125.172247 C238.584874,127.936677 235.139828,127.493216 235.139828,127.493216 L226.644689,127.493216 C218.537366,127.493216 221.014289,118.016404 221.014289,118.016404 L225.254782,95.8001759 C225.707705,92.8053766 223.765797,92.8946446 223.765797,92.8946446 L215.287643,92.8946446 L210.435705,118.183422 C209.399643,127.991389 202.605797,127.530651 202.605797,127.530651 L194.903274,127.530651 C189.080382,127.530651 187.206412,122.45677 189.66352,115.151187 C179.308566,128.907107 162.550412,127.591123 162.550412,127.591123 L153.879766,127.591123 L152.133182,136.877881 C150.836689,143.918539 145.271397,143.587383 145.271397,143.587383 L135.827951,143.587383 C128.835951,143.587383 130.712751,134.899585 130.712751,134.899585 L134.143643,117.719804 Z M256.662732,78.5440844 C256.662732,78.5440844 253.727225,77.8788934 252.682671,82.2213525 L242.415471,135.543179 C242.415471,135.543179 241.277502,139.344271 243.992209,139.344271 L252.074055,139.344271 C252.074055,139.344271 254.794425,139.289558 255.278486,136.20837 C255.762548,133.121423 256.962794,126.771873 256.962794,126.771873 C256.962794,126.771873 257.087348,123.250104 261.426917,123.250104 L269.49744,123.250104 C287.212394,123.546704 297.694732,112.091596 298.761932,97.0830443 C298.761932,81.0867843 285.754548,78.5095291 278.47664,78.5095291 C271.195902,78.5095291 256.662732,78.5440844 256.662732,78.5440844 Z M203.154683,66.6711448 L192.915791,119.543752 C191.752345,123.396676 194.902991,123.301649 194.902991,123.301649 L201.504345,123.301649 C205.968468,123.301649 205.631606,119.595585 205.631606,119.595585 L210.967606,92.8957965 C211.162929,87.1768815 216.210191,88.2970517 216.210191,88.2970517 L223.635298,88.2970517 C232.082314,88.2970517 229.361945,96.5903422 229.361945,96.5903422 C229.361945,96.5903422 225.141268,118.164416 224.750622,120.779106 C224.362806,123.396676 226.791606,123.301649 226.791606,123.301649 L234.799852,123.301649 C237.562683,123.301649 237.854252,120.237739 237.854252,120.237739 L242.711852,95.0583872 C245.134991,82.5694979 238.389268,79.5084674 227.097329,78.6503422 L216.680098,78.6503422 C213.220898,78.6503422 214.186191,75.1631287 214.186191,75.1631287 C214.186191,75.1631287 214.641945,72.2345605 215.83936,67.2960212 C217.031114,62.3603615 214.741022,62.4928238 214.741022,62.4928238 L205.934498,62.4928238 C203.219791,62.4928238 203.154683,66.6711448 203.154683,66.6711448 Z M137.48848,139.290134 L144.820172,139.290134 C144.820172,139.290134 147.393342,139.638567 148.024603,136.283816 C148.653034,132.923306 149.918388,125.960397 149.918388,125.960397 C149.918388,125.960397 149.720234,123.299633 153.940911,123.299633 C163.455126,123.449373 184.906695,125.914323 190.732418,102.117187 C190.828665,96.7207888 196.456234,78.5532992 166.948295,78.6195303 C162.03408,82.6999445 164.686511,87.9005287 164.686511,87.9005287 C164.686511,87.9005287 179.890572,86.5816652 177.818449,98.169235 C175.751988,109.753925 171.998388,112.385893 163.908049,113.244018 C155.820542,114.099264 151.548911,115.144564 152.904849,108.959152 C143.039618,112.192959 139.124665,115.219434 139.124665,115.219434 L135.305957,133.974365 C135.305957,133.974365 133.593342,139.290134 137.48848,139.290134 Z" id="Combined-Shape" fill="#FEFEFE"></path>
                        <path d="M265.318375,88.0784889 L276.760345,88.0784889 C291.604898,86.9237634 286.455729,114.896341 267.214991,113.741616 L260.169206,113.741616 L265.318375,88.0784889 Z M268.541489,93.6338417 L265.622966,108.181656 L269.617182,108.181656 C280.521305,108.841087 283.44832,92.9772896 275.029612,93.6338417 L268.541489,93.6338417 Z" id="Combined-Shape" fill="#FEFEFE"></path>
                        <path d="M350.852332,55.0023698 C349.966302,54.9764533 343.96224,54.7835191 337.641132,54.0463377 C330.889748,53.2573233 327.283348,52.2696154 325.375409,51.5093971 C332.557071,47.3944276 345.666363,47.1237438 350.722117,47.4347422 C350.761748,47.4376218 350.795717,47.4347422 350.838178,47.4347422 C354.764455,47.8004533 359.395594,49.1999461 359.395594,51.1033714 C359.395594,53.0298337 354.787102,54.5416315 350.852332,55.0023698 M344.525563,65.1242157 C338.419594,64.79306 334.043225,61.8011403 331.305871,59.1173393 C332.763717,59.373625 334.391409,59.6155127 336.191778,59.837243 C340.899348,60.4189252 345.448394,60.6982478 348.19424,60.8278305 C349.320886,62.0862222 350.147471,63.5433072 350.153132,64.1221098 C349.937994,64.3035255 348.743409,65.1155769 344.525563,65.1242157 M304.736271,136.745994 C304.187102,138.11957 304.727778,139.665924 305.94784,140.403105 L305.94784,225.982376 C305.94784,226.117718 305.953502,226.232903 305.973317,226.371124 C306.001625,226.621651 306.675348,232.585333 301.814917,238.183304 C296.099594,244.768983 284.847286,248.250437 269.266732,248.250437 C253.595594,248.250437 241.972455,244.72003 235.662671,238.030684 C230.309686,232.357843 230.482363,226.376883 230.488025,226.146514 C230.490855,226.088922 230.493686,226.034209 230.493686,225.982376 L230.493686,174.595651 C230.493686,172.95715 229.188702,171.635407 227.580825,171.635407 C225.978609,171.635407 224.673625,172.95715 224.673625,174.595651 L224.673625,178.578158 C204.982794,181.92715 192.249994,179.882623 187.689625,178.851721 L187.689625,174.327847 C187.689625,172.692225 186.38464,171.364723 184.779594,171.364723 C183.168886,171.364723 181.866732,172.692225 181.866732,174.327847 L181.866732,225.320065 C181.866732,225.475564 181.878055,225.622424 181.897871,225.772164 C181.909194,225.852794 182.967902,233.308116 177.391286,239.93411 C171.565563,246.848065 160.802978,250.358315 145.414917,250.358315 C129.220086,250.358315 117.885686,247.141786 111.723102,240.797994 C106.401255,235.318087 106.474855,228.864871 106.505994,226.111959 C106.508825,225.904627 106.511655,225.705933 106.511655,225.544675 C106.511655,220.934412 106.500332,146.286158 106.500332,146.286158 L100.674609,146.286158 L100.674609,147.075172 C88.8703015,142.827741 69.3776246,136.996521 56.4042092,145.430912 C49.2961477,150.055574 45.2141785,158.273994 44.2715323,169.852925 L38.9666708,230.152058 C38.9468554,230.385307 38.9383631,230.51489 38.9751631,230.756778 C38.9864862,230.874842 39.2497477,233.780373 36.9681477,236.351869 C34.4119631,239.228604 29.4835938,240.749041 22.7152246,240.749041 C15.8987323,240.749041 11.2194708,239.48777 8.81048615,237.005542 C6.23165538,234.344778 6.27977846,230.261484 6.32790154,226.307773 C6.33356308,225.777924 6.33922462,225.256713 6.33922462,224.749901 C6.33922462,217.179394 5.84384,94.0816218 5.82402462,89.1517213 C5.91177846,88.0949027 5.92876308,86.7990761 5.94857846,85.1720937 C6.12125538,70.7855384 6.54304,35.3230825 62.4705477,27.3206331 C62.5752862,27.3119942 62.6771938,27.2947165 62.7819323,27.2745592 C67.2177477,26.6525624 71.9989169,26.2004629 77.1537477,25.9412976 C76.8876554,26.767747 76.9725785,27.7036218 77.4707938,28.4897567 C78.3426708,29.8633329 80.1487015,30.2549605 81.5018092,29.3651596 C82.9964554,28.3774517 84.9581785,27.1161804 87.2114708,25.6965303 L87.3586708,25.6965303 C88.5391015,25.6965303 89.5496862,24.9795063 90.0082708,23.9543634 C100.957686,17.1930279 116.526917,8.26622215 122.562117,7.57511461 C132.164086,6.47510177 142.346363,7.54343884 151.741686,22.6700552 C161.122855,37.7678754 167.28544,85.6097952 152.08704,103.43749 C145.884825,109.559551 139.195717,111.103025 133.296394,112.465083 C125.361748,114.296517 117.155348,116.191304 117.155348,130.062408 C117.155348,131.69803 118.460332,133.025532 120.07104,133.025532 C121.676086,133.025532 122.981071,131.69803 122.981071,130.062408 C122.981071,120.922511 126.615778,120.081664 134.584394,118.244469 C140.933809,116.775866 148.837317,114.95307 156.236948,107.595654 C156.293563,107.540941 156.341686,107.486229 156.395471,107.428636 C166.739102,95.4091242 167.443963,74.0337438 166.937255,62.3626652 C166.283348,47.1064661 163.025132,32.1411082 158.45344,22.7737213 L218.420455,21.81193 C253.561625,21.8176892 281.620209,34.9919268 297.432886,58.9128867 C312.212332,81.275975 315.009132,111.097265 304.736271,136.745994 M205.387594,214.970729 L205.387594,214.881461 L205.387594,186.358877 C210.831163,186.286887 217.273994,185.797352 224.673625,184.587914 L224.673625,225.924784 C224.645317,226.728196 224.642486,231.352858 227.493071,236.651349 C205.328148,232.619888 205.37344,215.728068 205.387594,214.970729 M80.8365785,207.388704 C80.84224,207.319593 80.8450708,207.244723 80.8450708,207.175612 L80.8450708,147.780678 C88.3635938,148.992996 95.7037785,151.532816 100.680271,153.361371 C100.680271,172.096145 100.688763,221.806935 100.688763,225.544675 C100.688763,225.688656 100.688763,225.858553 100.685932,226.039969 C100.660455,227.871404 100.623655,231.447885 101.920148,235.534058 C79.6391631,230.105985 80.7771323,208.373532 80.8365785,207.388704 M94.0619323,6.48662022 C99.7263015,6.48662022 103.058117,7.48584655 104.971717,8.4706748 C98.0448246,12.1133875 90.7725785,16.5048 85.5299938,19.7846812 C80.1090708,19.8278754 74.9344246,20.0697631 70.0145477,20.5074645 C76.6130708,14.2183859 86.4952862,6.48662022 94.0619323,6.48662022 M347.591286,38.5914453 C347.93664,39.199044 347.846055,40.3480103 347.579963,41.4278658 C344.253809,41.419227 339.002732,41.6064019 333.669563,42.6027486 C336.924948,40.0830857 341.09184,37.7822735 345.493686,37.7419589 C346.178732,37.8053104 347.254425,38.0011242 347.591286,38.5914453 M365.218486,51.1033714 C365.218486,44.7048674 358.084948,42.5365175 353.448148,41.7993361 C353.770855,39.9131884 353.762363,37.6325335 352.644209,35.648479 C351.761009,34.0819685 349.861563,32.1468674 345.83904,31.8272302 C345.762609,31.8214709 345.689009,31.8157117 345.612578,31.8157117 C334.997194,31.8157117 326.227471,41.0045624 323.408025,44.3218787 L293.294302,44.3218787 C286.690117,37.3589701 278.877194,31.5738241 269.931963,27.0585881 C255.248763,19.6464597 237.907471,15.8885624 218.394978,15.8885624 L218.346855,15.8885624 L154.95744,16.9079461 C144.242978,1.46745169 132.28864,0.499901124 121.908209,1.68630241 C119.196332,1.9973008 115.275717,3.46590433 110.885194,5.52194928 C108.629071,3.31040514 103.862055,0.563252648 94.0619323,0.563252648 C80.5223631,0.563252648 64.3671631,17.6019332 60.7522708,21.6074774 C38.1344246,25.0169413 21.66784,33.166251 11.6497477,45.9747775 C0.420086154,60.3325368 0.221932308,77.0630986 0.128516923,85.102983 C0.111532308,86.6032623 0.0917169231,87.9019685 0.0124553846,88.7312976 C0.00396307692,88.8320841 0.00113230769,88.9328706 0.00113230769,89.0307775 C0.00679384615,90.3093265 0.516332308,217.078607 0.516332308,224.749901 C0.516332308,225.233676 0.510670769,225.72897 0.502178462,226.232903 C0.448393846,230.920916 0.374793846,236.746376 4.66624,241.169465 C8.26131692,244.875529 14.1663015,246.675288 22.7152246,246.675288 C31.3943631,246.675288 37.6871631,244.49254 41.4124554,240.178877 C44.8263631,236.236684 44.8659938,231.78192 44.7895631,230.431381 L50.0746092,170.365497 C50.8615631,160.707269 54.0433477,153.997766 59.5435323,150.424164 C63.8236554,147.636697 69.3125169,146.850562 75.0250092,147.147163 L75.0250092,207.083465 C74.9655631,208.151802 74.7136246,215.471782 78.1388554,223.232344 C81.4338708,230.702065 88.8108554,239.939869 105.249132,242.180209 C105.925686,243.118964 106.695655,244.051959 107.581686,244.964797 C114.879409,252.477712 127.609378,256.284562 145.414917,256.284562 C162.583532,256.284562 174.82944,252.077445 181.812948,243.789914 C188.547348,235.790344 187.884948,226.808826 187.689625,225.127131 L187.689625,184.91907 C190.308086,185.448919 194.285317,186.053638 199.564702,186.281127 L199.564702,214.852665 C199.556209,215.584087 199.581686,221.899083 203.609871,228.427169 C207.374794,234.514675 215.45664,241.984396 232.577132,243.248546 C240.22304,250.502296 252.553871,254.176684 269.266732,254.176684 C286.919409,254.176684 299.377625,250.067474 306.301686,241.961359 C312.31424,234.92358 311.915102,227.309879 311.767902,225.815359 L311.767902,137.860405 C311.767902,137.215371 311.561255,136.613532 311.213071,136.123997 C320.404578,110.699879 317.865378,81.8634164 304.498486,59.2008482 L323.725071,59.2008482 C326.080271,62.5815159 332.786363,70.4601419 344.304763,71.0447037 C344.350055,71.0475833 344.401009,71.0475833 344.446302,71.0475833 C346.747717,71.0475833 353.736886,71.0475833 355.576886,66.3221355 C356.383655,64.240174 355.851471,62.1034998 354.931471,60.300861 C359.449378,59.2699589 365.218486,56.8280456 365.218486,51.1033714" id="Fill-87" fill="#FFFFFF"></path>
                        <path d="M116.995692,8.63596469 L80.4957538,28.3843628 L78.2311385,26.9359165 C57.5891692,27.0683788 11.6486154,35.7561766 7.7648,74.7288828 L7.7648,74.7288828 C3.88098462,109.220909 5.04726154,221.252321 10.7427692,227.570196 L10.7427692,227.570196 L13.5225846,96.2511236 C15.4644923,75.1205104 19.7361231,44.9075923 73.3140923,37.7978234 L73.3140923,37.7978234 C72.0855385,42.9984077 78.2962462,41.4203788 78.2962462,41.4203788 L78.2962462,41.4203788 C90.8535385,34.0456854 121.394708,4.68513323 145.722338,15.480809 L145.722338,15.480809 C139.868308,9.03047191 131.987446,7.54171108 125.960738,7.54171108 L125.960738,7.54171108 C120.797415,7.54171108 116.995692,8.63596469 116.995692,8.63596469" id="Fill-92"></path>
                    </g>
                </g>
            </g>
        </g>
    </g>
</svg>