<?xml version="1.0" encoding="UTF-8"?>
<svg width="580px" height="580px" viewBox="0 0 580 580" version="1.1" xmlns="http://www.w3.org/2000/svg" xmlns:xlink="http://www.w3.org/1999/xlink">
    <!-- Generator: Sketch 46.2 (44496) - http://www.bohemiancoding.com/sketch -->
    <title>zend_big</title>
    <desc>Created with Sketch.</desc>
    <defs>
        <polygon id="path-1" points="12.0794146 0.162983373 12.0794146 11.8602755 0.259953542 11.8602755 0.259953542 0.162983373"></polygon>
        <polygon id="path-3" points="0.246876656 0.050736342 12.0667698 0.050736342 12.0667698 11.7471164 0.246876656 11.7471164"></polygon>
    </defs>
    <g id="Large" stroke="none" stroke-width="1" fill="none" fill-rule="evenodd">
        <g id="big-copy" transform="translate(-2554.000000, -777.000000)">
            <g id="Group-Copy-10" transform="translate(2554.000000, 777.000000)">
                <rect id="Rectangle-11" x="0" y="0" width="580" height="580"></rect>
                <g id="frontend_big" transform="translate(120.000000, 110.000000)">
                    <g id="Page-1">
                        <g id="Group-3" transform="translate(235.902440, 54.106034)">
                            <g id="Fill-1-Clipped">
                                <mask id="mask-2" fill="white">
                                    <use xlink:href="#path-1"></use>
                                </mask>
                                <g id="path-1"></g>
                                <path d="M12.0795587,6.01191448 C12.0795587,9.2416532 9.43422532,11.8602755 6.17162834,11.8602755 C2.90730314,11.8602755 0.259953542,9.2416532 0.259953542,6.01191448 C0.259953542,2.78103562 2.90730314,0.162983373 6.17162834,0.162983373 C9.43422532,0.162983373 12.0795587,2.78103562 12.0795587,6.01191448" id="Fill-1" fill="#FEFEFE" fill-rule="nonzero" mask="url(#mask-2)"></path>
                            </g>
                        </g>
                        <g id="Group-6" transform="translate(54.439024, 0.234300)">
                            <g id="Fill-4-Clipped">
                                <mask id="mask-4" fill="white">
                                    <use xlink:href="#path-3"></use>
                                </mask>
                                <g id="path-3"></g>
                                <path d="M12.0667698,5.89932542 C12.0667698,9.1287791 9.4208604,11.7471164 6.15682322,11.7471164 C2.89365018,11.7471164 0.246876656,9.1287791 0.246876656,5.89932542 C0.246876656,2.67101188 2.89365018,0.050679335 6.15682322,0.050679335 C9.4208604,0.050679335 12.0667698,2.67101188 12.0667698,5.89932542" id="Fill-4" fill="#FEFEFE" fill-rule="nonzero" mask="url(#mask-4)"></path>
                            </g>
                        </g>
                        <path d="M11.819922,60.1179478 C11.819922,63.3476864 9.17401254,65.9663088 5.90911126,65.9663088 C2.64536214,65.9663088 2.88037166e-05,63.3476864 2.88037166e-05,60.1179478 C2.88037166e-05,56.8870688 2.64536214,54.2690166 5.90911126,54.2690166 C9.17401254,54.2690166 11.819922,56.8870688 11.819922,60.1179478" id="Fill-7" fill="#FEFEFE" fill-rule="nonzero"></path>
                        <path d="M66.5057942,60.1179478 C66.5057942,63.3476864 63.8598848,65.9663088 60.5958476,65.9663088 C57.3326746,65.9663088 54.685901,63.3476864 54.685901,60.1179478 C54.685901,56.8870688 57.3326746,54.2690166 60.5958476,54.2690166 C63.8598848,54.2690166 66.5057942,56.8870688 66.5057942,60.1179478" id="Fill-9" fill="#FEFEFE" fill-rule="nonzero"></path>
                        <path d="M11.819922,114.100618 C11.819922,117.329501 9.17401254,119.949264 5.90911126,119.949264 C2.64536214,119.949264 2.88037166e-05,117.329501 2.88037166e-05,114.100618 C2.88037166e-05,110.871734 2.64536214,108.254252 5.90911126,108.254252 C9.17401254,108.254252 11.819922,110.871734 11.819922,114.100618" id="Fill-11" fill="#FEFEFE" fill-rule="nonzero"></path>
                        <path d="M120.923849,114.100618 C120.923849,117.329501 118.279092,119.949264 115.013903,119.949264 C111.74929,119.949264 109.103956,117.329501 109.103956,114.100618 C109.103956,110.871734 111.74929,108.254252 115.013903,108.254252 C118.279092,108.254252 120.923849,110.871734 120.923849,114.100618" id="Fill-13" fill="#FEFEFE" fill-rule="nonzero"></path>
                        <path d="M157.29122,78.1119334 C157.29122,81.3425274 154.645599,83.9605796 151.380986,83.9605796 C148.116949,83.9605796 145.473344,81.3425274 145.473344,78.1119334 C145.473344,74.8816248 148.116949,72.2635724 151.380986,72.2635724 C154.645599,72.2635724 157.29122,74.8816248 157.29122,78.1119334" id="Fill-15" fill="#FEFEFE" fill-rule="nonzero"></path>
                        <path d="M193.658015,114.100618 C193.658015,117.329501 191.011242,119.949264 187.750661,119.949264 C184.486048,119.949264 181.838698,117.329501 181.838698,114.100618 C181.838698,110.871734 184.486048,108.254252 187.750661,108.254252 C191.011242,108.254252 193.658015,110.871734 193.658015,114.100618" id="Fill-17" fill="#FEFEFE" fill-rule="nonzero"></path>
                        <path d="M66.3714824,114.100618 C66.3714824,117.329501 63.725861,119.949264 60.4615358,119.949264 C57.198939,119.949264 54.5515894,117.329501 54.5515894,114.100618 C54.5515894,110.870309 57.198939,108.254252 60.4615358,108.254252 C63.725861,108.254252 66.3714824,110.870309 66.3714824,114.100618" id="Fill-19" fill="#FEFEFE" fill-rule="nonzero"></path>
                        <polygon id="Fill-21" fill="#FEFEFE" fill-rule="nonzero" points="29.457705 78.2857768 11.0411847 60.0608836 62.9719814 8.6743753 57.8348386 3.5887696 0.766610918 60.0608836 24.319122 83.3693872"></polygon>
                        <polygon id="Fill-23" fill="#FEFEFE" fill-rule="nonzero" points="36.7653808 95.6851782 57.8329952 116.535819 62.9730184 111.451069 41.9022356 90.6024228"></polygon>
                        <polygon id="Fill-25" fill="#FEFEFE" fill-rule="nonzero" points="187.565367 119.078993 151.233799 83.1237434 114.902807 119.078993 60.4030068 65.1476864 8.47278606 116.535905 3.33535516 111.450869 60.4030068 54.9776152 114.902807 108.908637 151.233799 72.9545274 187.565367 108.908637 239.49818 57.520133 244.634746 62.6034584"></polygon>
                    </g>
                    <g id="Group-53" transform="translate(30.000000, 171.000000)" fill="#FFFFFF">
                        <polygon id="Fill-21" points="34.8989071 46.469097 1.28878586 46.469097 1.28878586 39.2642081 19.9788465 12.7447333 1.73813939 12.7447333 1.73813939 3.33877374 34.4267051 3.33877374 34.4267051 10.4979657 15.7518768 37.0631374 34.8989071 37.0631374"></polygon>
                        <path d="M54.3818101,20.3037737 C53.0185172,20.3037737 51.8837091,20.7226626 50.9697697,21.5909051 C50.0634465,22.436299 49.522699,23.7767434 49.3627596,25.5970061 L59.279002,25.5970061 C59.2409212,23.9976121 58.7763354,22.7104808 57.9004768,21.7356121 C57.0322343,20.7759758 55.8517293,20.3037737 54.3818101,20.3037737 M55.0596485,47.0593495 C49.4922343,47.0593495 45.1662545,45.574198 42.0893253,42.6115111 C39.012396,39.6564404 37.4663152,35.444703 37.4663152,29.9839152 C37.4663152,24.3327232 38.8981535,19.9991273 41.746598,16.9831273 C44.6026586,13.9595111 48.6773051,12.4591273 53.9705374,12.4591273 C58.997204,12.4591273 62.8890626,13.7691071 65.638497,16.3814505 C68.372699,19.0090263 69.7512242,22.8018747 69.7512242,27.7371475 L69.7512242,32.8628242 L49.1342747,32.8628242 C49.2028202,34.7364 49.8958909,36.198703 51.1906384,37.2573495 C52.4701535,38.3312283 54.2218707,38.8643596 56.4457899,38.8643596 C58.4716889,38.8643596 60.3300323,38.6663394 62.0360525,38.270299 C63.7268404,37.9047232 65.5851838,37.2421172 67.5577697,36.3281778 L67.5577697,44.6145616 C65.7603556,45.5361172 63.8867798,46.1682586 61.9675071,46.5262182 C60.033002,46.8765616 57.7329212,47.0593495 55.0596485,47.0593495" id="Fill-23"></path>
                        <path d="M96.1815899,46.469097 L96.1815899,28.2360061 C96.1815899,26.019703 95.8693273,24.3365313 95.2295697,23.2017232 C94.5974283,22.0745313 93.5616303,21.5033192 92.1450242,21.5033192 C90.202903,21.5033192 88.7939131,22.2801677 87.9256707,23.8262485 C87.0574283,25.3875616 86.6309232,28.0532182 86.6309232,31.8308343 L86.6309232,46.469097 L75.0924384,46.469097 L75.0924384,13.0417636 L83.7977111,13.0417636 L85.2447818,17.1621071 L85.9302364,17.1621071 C86.9051051,15.6007939 88.2607818,14.4202889 90.0048828,13.6282081 C91.7489838,12.8437434 93.7520343,12.4553192 96.0216505,12.4553192 C99.7002566,12.4553192 102.586782,13.529198 104.643145,15.6769556 C106.691893,17.8094808 107.727691,20.833097 107.727691,24.7249556 L107.727691,46.469097 L96.1815899,46.469097 Z" id="Fill-25"></path>
                        <path d="M129.829792,37.9382343 C131.672903,37.9382343 132.982883,37.3670222 133.744499,36.1941333 C134.498499,35.0364768 134.909772,33.2542949 134.963085,30.8247394 L134.963085,29.9108 C134.963085,26.9709616 134.544196,24.8612848 133.698802,23.6198505 C132.845792,22.3708 131.528196,21.7386586 129.707933,21.7386586 C128.199933,21.7386586 127.011812,22.4698101 126.181651,23.8864162 C125.351489,25.3106384 124.9326,27.3441535 124.9326,29.9793455 C124.9326,32.5764566 125.359105,34.5566586 126.196883,35.9047192 C127.042277,37.2527798 128.253246,37.9382343 129.829792,37.9382343 M125.100156,47.0547798 C122.723913,47.0547798 120.644701,46.3693253 118.877752,45.0212646 C117.087954,43.673204 115.717044,41.6777697 114.742176,39.0425778 C113.767307,36.4073859 113.279873,33.3304566 113.279873,29.8041737 C113.279873,24.3738505 114.368984,20.1240323 116.554822,17.0547192 C118.740661,13.9854061 121.741428,12.4545576 125.549509,12.4545576 C127.430701,12.4545576 129.052943,12.8277495 130.461933,13.5741333 C131.870923,14.3205172 133.158055,15.5771838 134.308095,17.3517495 L134.559428,17.3517495 C134.17862,14.7241737 133.9806,12.1194465 133.9806,9.49948687 L133.9806,0.565729293 L145.610479,0.565729293 L145.610479,46.4683354 L136.912822,46.4683354 L134.429954,42.2413657 L133.9806,42.2413657 C132.008014,45.4553859 129.037711,47.0547798 125.100156,47.0547798" id="Fill-27"></path>
                        <path d="M20.8303333,82.3412182 L12.8638283,82.3412182 L12.8638283,109.728935 L5.90265657,109.728935 L5.90265657,82.3412182 L0.533262626,82.3412182 L0.533262626,79.1043495 L5.90265657,76.9794404 L5.90265657,74.8621475 C5.90265657,70.9931374 6.80136364,68.1370768 8.6140101,66.2863495 C10.4266566,64.4280061 13.1913232,63.4912182 16.9003939,63.4912182 C19.3375657,63.4912182 21.7442727,63.8948747 24.0900505,64.709804 L22.2697879,69.9649556 C20.5561515,69.4089758 18.9262929,69.1271778 17.372596,69.1271778 C15.7960505,69.1271778 14.6612424,69.6146121 13.9377071,70.5894808 C13.2141717,71.5643495 12.8638283,73.0266525 12.8638283,74.9687737 L12.8638283,77.101299 L20.8303333,77.101299 L20.8303333,82.3412182 Z" id="Fill-29"></path>
                        <path d="M42.7344141,76.5026687 C44.1357879,76.5026687 45.2782121,76.6016788 46.1921515,76.8073152 L45.506697,83.2658202 C44.516596,83.022103 43.5036465,82.9154768 42.4373838,82.9154768 C39.6574848,82.9154768 37.4183333,83.8218 35.6970808,85.6192141 C33.9682121,87.4318606 33.115202,89.7852545 33.115202,92.6717798 L33.115202,109.724366 L26.1768788,109.724366 L26.1768788,77.0967293 L31.607202,77.0967293 L32.5211414,82.8621636 L32.879101,82.8621636 C33.9682121,80.9048101 35.3695859,79.3587293 37.1136869,78.2163051 C38.8577879,77.0891131 40.7237475,76.5026687 42.7344141,76.5026687" id="Fill-31"></path>
                        <path d="M61.239402,105.010723 C63.7679677,105.010723 65.7786343,104.310036 67.3018667,102.908663 C68.8327152,101.499673 69.5867152,99.5118545 69.5867152,96.9756727 L69.5867152,94.1500768 L65.3978263,94.3328646 C62.1381091,94.4394909 59.7618667,94.9878545 58.2767152,95.9627232 C56.7915636,96.9375919 56.0451798,98.4303596 56.0451798,100.43341 C56.0451798,101.888097 56.4869172,103.015289 57.3475434,103.814986 C58.2157859,104.607067 59.5181495,105.010723 61.239402,105.010723 L61.239402,105.010723 Z M71.5745333,109.725127 L70.1731596,105.185895 L69.9446747,105.185895 C68.3757455,107.173713 66.7915838,108.521774 65.1998061,109.252925 C63.6080283,109.953612 61.5516646,110.319188 59.0611798,110.319188 C55.8471596,110.319188 53.3566747,109.458562 51.5516444,107.722077 C49.7542303,105.985592 48.8555232,103.54842 48.8555232,100.387713 C48.8555232,97.0061374 50.1045737,94.4699556 52.6026747,92.7563192 C55.0931596,91.0579152 58.8936242,90.1211273 64.0116848,89.9535717 L69.6476444,89.7860162 L69.6476444,88.0419152 C69.6476444,85.9550869 69.1678263,84.4090061 68.2005737,83.3579758 C67.2104727,82.3221778 65.7100889,81.8271273 63.6537253,81.8271273 C61.9857859,81.8271273 60.3863919,82.0632283 58.8479273,82.5506626 C57.3246949,83.0533293 55.8471596,83.6245414 54.4305535,84.2947636 L52.1837859,79.3290263 C53.9507354,78.4150869 55.9004727,77.7144 57.9949172,77.2269657 C60.0969778,76.7547636 62.0924121,76.5034303 63.9659879,76.5034303 C68.116796,76.5034303 71.2394222,77.4249859 73.349099,79.2147838 C75.4740081,81.0350465 76.5250384,83.8758747 76.5250384,87.7448848 L76.5250384,109.725127 L71.5745333,109.725127 Z" id="Fill-33"></path>
                        <path d="M110.439806,109.726651 L103.478634,109.726651 L103.478634,89.6047515 C103.478634,87.1066505 102.998816,85.2406909 102.062028,84.0144889 C101.117624,82.7882869 99.6477051,82.1789939 97.6294222,82.1789939 C94.9485333,82.1789939 92.998796,83.0396202 91.7497455,84.7837212 C90.5006949,86.5278222 89.8761697,89.4219636 89.8761697,93.4661455 L89.8761697,109.726651 L82.9454626,109.726651 L82.9454626,77.0990141 L88.3681697,77.0990141 L89.3430384,81.3640646 L89.6933818,81.3640646 C90.5997051,79.8179838 91.9096848,78.6222465 93.6385535,77.7692364 C95.3598061,76.9314586 97.2486141,76.5049535 99.3202101,76.5049535 C104.331644,76.5049535 107.659907,78.2109737 109.289766,81.6382465 L109.761968,81.6382465 C110.721604,80.0312364 112.077281,78.7745697 113.828998,77.8530141 C115.588331,76.9619232 117.583766,76.5049535 119.853382,76.5049535 C123.74524,76.5049535 126.586069,77.4950545 128.368251,79.4524081 C130.142816,81.4173778 131.041523,84.4181455 131.041523,88.4470949 L131.041523,109.726651 L124.1032,109.726651 L124.1032,89.6047515 C124.1032,87.1066505 123.623382,85.2406909 122.671362,84.0144889 C121.711725,82.7882869 120.23419,82.1789939 118.231139,82.1789939 C115.535018,82.1789939 113.562432,83.0091556 112.313382,84.6999434 C111.064331,86.375499 110.439806,88.9497616 110.439806,92.4303475 L110.439806,109.726651 Z" id="Fill-35"></path>
                        <path d="M151.815366,81.7532505 C149.614295,81.7532505 147.847345,82.4539374 146.522133,83.8476949 C145.189305,85.2566848 144.412457,87.2978162 144.153507,89.9558566 L158.959325,89.9558566 C158.928861,87.2673515 158.273871,85.2262202 157.017204,83.8324626 C155.760537,82.4539374 154.016436,81.7532505 151.815366,81.7532505 M153.094881,110.321473 C148.007285,110.321473 144.039265,108.843937 141.183204,105.873634 C138.319527,102.918564 136.895305,98.8439172 136.895305,93.6496949 C136.895305,88.3183818 138.220517,84.1294929 140.878558,81.0754121 C143.528982,78.0365636 147.184739,76.5057152 151.815366,76.5057152 C156.118497,76.5057152 159.530537,77.8080788 162.028638,80.4280384 C164.534356,83.0556141 165.77579,86.6504424 165.77579,91.2201394 L165.77579,94.9672909 L144.031648,94.9672909 C144.138275,98.1356141 144.983669,100.580402 146.590679,102.278806 C148.205305,103.97721 150.482537,104.83022 153.41476,104.83022 C155.341648,104.83022 157.131446,104.647432 158.799386,104.289473 C160.452093,103.923897 162.241891,103.306988 164.161164,102.476826 L164.161164,108.10517 C162.455143,108.912483 160.756739,109.491311 159.012638,109.826422 C157.291386,110.153917 155.311184,110.321473 153.094881,110.321473" id="Fill-37"></path>
                        <path d="M200.41257,109.726651 L196.193216,94.5019434 C195.682933,92.8949333 194.761378,89.1477818 193.420933,83.2604889 L193.161984,83.2604889 C192.011943,88.5765697 191.10562,92.3389535 190.435398,94.5704889 L186.109418,109.726651 L178.432327,109.726651 L169.292933,77.0990141 L176.375964,77.0990141 L180.526772,93.1767313 C181.478792,97.1523677 182.141398,100.549176 182.529822,103.382388 L182.720226,103.382388 C182.903014,101.950549 183.207661,100.297842 183.618933,98.4471152 C184.02259,96.5887717 184.372933,95.1950141 184.654731,94.2810747 L189.620469,77.0990141 L197.229014,77.0990141 L202.050044,94.2810747 C202.331842,95.2407111 202.712651,96.7182465 203.146772,98.6984485 C203.596125,100.678651 203.839842,102.224731 203.931236,103.321459 L204.159721,103.321459 C204.464368,100.914752 205.142206,97.5179434 206.231317,93.1767313 L210.450671,77.0990141 L217.404226,77.0990141 L208.203903,109.726651 L200.41257,109.726651 Z" id="Fill-39"></path>
                        <path d="M226.823895,93.3564727 C226.823895,100.88124 229.596178,104.643624 235.178824,104.643624 C240.677693,104.643624 243.44236,100.88124 243.44236,93.3564727 C243.44236,85.9002505 240.662461,82.1759475 235.110279,82.1759475 C232.200905,82.1759475 230.091228,83.1355838 228.788865,85.0624727 C227.471269,86.9969778 226.823895,89.7540283 226.823895,93.3564727 M250.571087,93.3564727 C250.571087,98.6801697 249.207794,102.84621 246.465976,105.839362 C243.73939,108.832513 239.931309,110.325281 235.049349,110.325281 C232.010501,110.325281 229.306764,109.624594 226.976218,108.246069 C224.622824,106.87516 222.82541,104.902574 221.57636,102.320695 C220.312077,99.7540485 219.687552,96.7532808 219.687552,93.3564727 C219.687552,88.0632404 221.027996,83.9352808 223.746966,80.9649778 C226.473552,77.9870586 230.289248,76.5019071 235.232137,76.5019071 C239.954158,76.5019071 243.678461,78.0175232 246.443127,81.0639879 C249.200178,84.0952202 250.571087,88.1927152 250.571087,93.3564727" id="Fill-41"></path>
                        <path d="M272.007535,76.5026687 C273.416525,76.5026687 274.558949,76.6016788 275.465273,76.8073152 L274.779818,83.2658202 C273.789717,83.022103 272.776768,82.9154768 271.718121,82.9154768 C268.938222,82.9154768 266.699071,83.8218 264.970202,85.6192141 C263.256566,87.4318606 262.380707,89.7852545 262.380707,92.6717798 L262.380707,109.724366 L255.45,109.724366 L255.45,77.0967293 L260.887939,77.0967293 L261.801879,82.8621636 L262.152222,82.8621636 C263.233717,80.9048101 264.650323,79.3587293 266.386808,78.2163051 C268.123293,77.0891131 269.989253,76.5026687 272.007535,76.5026687" id="Fill-43"></path>
                        <polygon id="Fill-45" points="286.459202 92.4935616 290.381525 87.5963697 300.236838 77.101299 308.226192 77.101299 295.095929 91.1074202 309.056354 109.728935 300.907061 109.728935 290.442455 95.4181677 286.634374 98.5407939 286.634374 109.728935 279.749364 109.728935 279.749364 63.811097 286.634374 63.811097 286.634374 86.2178444 286.28403 92.4935616"></polygon>
                        <path d="M17.3124283,165.137273 C20.1608727,165.137273 22.247701,164.345192 23.5424485,162.745798 C24.837196,161.138788 25.5150343,158.534061 25.5531152,154.931616 L25.5531152,153.956747 C25.5531152,149.84402 24.8828929,146.92703 23.5424485,145.205778 C22.202004,143.461677 20.1075596,142.593434 17.2591152,142.593434 C14.8219434,142.593434 12.9331354,143.583535 11.6231556,145.571354 C10.3055596,147.543939 9.63533737,150.361919 9.63533737,154.017677 C9.63533737,157.64297 10.2750949,160.40002 11.5698424,162.296444 C12.8493576,164.192869 14.7610141,165.137273 17.3124283,165.137273 M15.4464687,170.742768 C11.3794384,170.742768 8.21111515,169.280465 5.91865051,166.325394 C3.64141818,163.370323 2.5066101,159.234747 2.5066101,153.903434 C2.5066101,148.549273 3.65665051,144.375616 5.97196364,141.397697 C8.27966061,138.427394 11.4860646,136.934626 15.5759434,136.934626 C19.8562263,136.934626 23.1311758,138.511172 25.3703273,141.679495 L25.7206707,141.679495 C25.3855596,139.348949 25.2256202,137.490606 25.2256202,136.142545 L25.2256202,124.253717 L32.1867919,124.253717 L32.1867919,170.156323 L26.7564687,170.156323 L25.5531152,165.883657 L25.2256202,165.883657 C23.001701,169.120525 19.7419838,170.742768 15.4464687,170.742768" id="Fill-47"></path>
                        <path d="M50.1350384,165.434303 C52.6559879,165.434303 54.6742707,164.733616 56.2051192,163.332242 C57.7207354,161.915636 58.4975838,159.950667 58.4975838,157.414485 L58.4975838,154.573657 L54.2858465,154.756444 C51.0261293,154.878303 48.657503,155.426667 47.1647354,156.386303 C45.6872,157.353556 44.9332,158.853939 44.9332,160.85699 C44.9332,162.326909 45.3749374,163.438869 46.2279475,164.246182 C47.1114222,165.038263 48.4061697,165.434303 50.1350384,165.434303 L50.1350384,165.434303 Z M60.4625535,170.156323 L59.0764121,165.609475 L58.8403111,165.609475 C57.2637657,167.604909 55.6872202,168.960586 54.0878263,169.668889 C52.5036646,170.377192 50.447301,170.742768 47.9492,170.742768 C44.742796,170.742768 42.2446949,169.882141 40.4472808,168.145657 C38.6422505,166.424404 37.7435434,163.972 37.7435434,160.803677 C37.7435434,157.444949 38.9925939,154.901152 41.4906949,153.195131 C43.9811798,151.473879 47.7816444,150.544707 52.9073212,150.384768 L58.5432808,150.209596 L58.5432808,148.465495 C58.5432808,146.386283 58.0558465,144.82497 57.0885939,143.796788 C56.1137253,142.76099 54.6057253,142.250707 52.5569778,142.250707 C50.8890384,142.250707 49.2820283,142.479192 47.7435636,142.989475 C46.2127152,143.469293 44.7351798,144.055737 43.3261899,144.72596 L41.0794222,139.767838 C42.8463717,138.846283 44.7808768,138.13798 46.8905535,137.665778 C49.0002303,137.170727 50.9880485,136.934626 52.8540081,136.934626 C57.0048162,136.934626 60.1274424,137.840949 62.2523515,139.638364 C64.3544121,141.473859 65.4130586,144.299455 65.4130586,148.168465 L65.4130586,170.156323 L60.4625535,170.156323 Z" id="Fill-49"></path>
                        <path d="M69.041398,137.521071 L76.581398,137.521071 L83.2303071,156.020727 C84.2204081,158.655919 84.8982465,161.138788 85.2333576,163.454101 L85.4694586,163.454101 C85.6446303,162.380222 85.9645091,161.070242 86.4443273,159.524162 C86.9165293,157.978081 89.4070141,150.643717 93.9310141,137.521071 L101.432933,137.521071 L87.4648929,174.489919 C84.9363273,181.283535 80.7017414,184.665111 74.7839838,184.665111 C73.2607515,184.665111 71.7603677,184.505172 70.3056808,184.170061 L70.3056808,178.686424 C71.3414788,178.930141 72.5372162,179.036768 73.8700444,179.036768 C77.2211556,179.036768 79.5669333,177.102263 80.9226101,173.21802 L82.141196,170.156323 L69.041398,137.521071 Z" id="Fill-51"></path>
                    </g>
                </g>
            </g>
        </g>
    </g>
</svg>