<?xml version="1.0" encoding="UTF-8"?>
<svg width="92px" height="92px" viewBox="0 0 92 92" version="1.1" xmlns="http://www.w3.org/2000/svg" xmlns:xlink="http://www.w3.org/1999/xlink">
    <!-- Generator: Sketch 46.2 (44496) - http://www.bohemiancoding.com/sketch -->
    <title>zend-small</title>
    <desc>Created with Sketch.</desc>
    <defs>
        <linearGradient x1="49.9996573%" y1="50%" x2="49.9996573%" y2="111.572303%" id="linearGradient-1">
            <stop stop-color="#C8D63C" offset="0%"></stop>
            <stop stop-color="#74992C" offset="100%"></stop>
        </linearGradient>
    </defs>
    <g id="Large" stroke="none" stroke-width="1" fill="none" fill-rule="evenodd">
        <g id="small" transform="translate(-1720.000000, -56.000000)">
            <g id="Group" transform="translate(1720.000000, 56.000000)">
                <rect id="Rectangle" x="0" y="0" width="92" height="92"></rect>
                <g id="z" transform="translate(13.000000, 10.000000)">
                    <polygon id="Fill-1" fill="url(#linearGradient-1)" points="49.2209343 12.8868223 38.5533881 23.5543685 31.0904709 16.0914513 23.6245432 23.5543685 12.4301674 12.3584875 6.83222694 17.956428 2.28794557 13.4136519 12.956997 2.74610563 11.9033379 1.68943603 0.177616827 13.4136519 5.77555734 19.0115924 0.705951627 24.0827033 1.761116 25.1378677 6.83222694 20.0667567 11.9033379 25.1378677 12.956997 24.0827033 7.88889654 19.0115924 12.4301674 14.4703215 23.6245432 25.6662025 31.0904709 18.2017801 38.5533881 25.6662025 50.2776039 13.9419867"></polygon>
                    <g id="Group-53" transform="translate(0.000000, 0.752614)">
                        <path d="M13.6426281,1.46500664 C13.6426281,2.13483281 13.099241,2.67821988 12.4309201,2.67821988 C11.7595887,2.67821988 11.2162016,2.13483281 11.2162016,1.46500664 C11.2162016,0.795180466 11.7595887,0.251793393 12.4309201,0.251793393 C13.099241,0.251793393 13.6426281,0.795180466 13.6426281,1.46500664" id="Fill-3" fill="#C0D022"></path>
                        <path d="M2.44674706,12.6616403 C2.44674706,13.3314664 1.90335998,13.8748535 1.23202859,13.8748535 C0.563707642,13.8748535 0.0203205692,13.3314664 0.0203205692,12.6616403 C0.0203205692,11.9918141 0.563707642,11.448427 1.23202859,11.448427 C1.90335998,11.448427 2.44674706,11.9918141 2.44674706,12.6616403" id="Fill-5" fill="#9AC11C"></path>
                        <path d="M2.44674706,23.8575213 C2.44674706,24.5273475 1.90335998,25.0707345 1.23202859,25.0707345 C0.563707642,25.0707345 0.0203205692,24.5273475 0.0203205692,23.8575213 C0.0203205692,23.1876951 0.563707642,22.6443081 1.23202859,22.6443081 C1.90335998,22.6443081 2.44674706,23.1876951 2.44674706,23.8575213" id="Fill-7" fill="#74992C"></path>
                        <path d="M13.9226004,12.6616403 C13.9226004,13.4865049 13.2542794,14.1548258 12.4309201,14.1548258 C11.6060555,14.1548258 10.9377345,13.4865049 10.9377345,12.6616403 C10.9377345,11.8367757 11.6060555,11.1684547 12.4309201,11.1684547 C13.2542794,11.1684547 13.9226004,11.8367757 13.9226004,12.6616403" id="Fill-9" fill="#9AC11C"></path>
                        <path d="M24.8377565,23.8575213 C24.8377565,24.5273475 24.2958746,25.0707345 23.6245432,25.0707345 C22.9562223,25.0707345 22.4128352,24.5273475 22.4128352,23.8575213 C22.4128352,23.1876951 22.9562223,22.6443081 23.6245432,22.6443081 C24.2958746,22.6443081 24.8377565,23.1876951 24.8377565,23.8575213" id="Fill-11" fill="#74992C"></path>
                        <path d="M32.302781,16.3930989 C32.302781,17.062925 31.7593939,17.6063121 31.091073,17.6063121 C30.4197416,17.6063121 29.8778597,17.062925 29.8778597,16.3930989 C29.8778597,15.7247779 30.4197416,15.1798856 31.091073,15.1798856 C31.7593939,15.1798856 32.302781,15.7247779 32.302781,16.3930989" id="Fill-13" fill="#8ABD27"></path>
                        <path d="M39.7664508,23.8575213 C39.7664508,24.5273475 39.2230637,25.0707345 38.5532376,25.0707345 C37.8849166,25.0707345 37.3415296,24.5273475 37.3415296,23.8575213 C37.3415296,23.1876951 37.8849166,22.6443081 38.5532376,22.6443081 C39.2230637,22.6443081 39.7664508,23.1876951 39.7664508,23.8575213" id="Fill-15" fill="#74992C"></path>
                        <path d="M51.2438093,12.6616403 C51.2438093,13.4865049 50.5754884,14.1548258 49.7491186,14.1548258 C48.9272645,14.1548258 48.2574383,13.4865049 48.2574383,12.6616403 C48.2574383,11.8367757 48.9272645,11.1684547 49.7491186,11.1684547 C50.5754884,11.1684547 51.2438093,11.8367757 51.2438093,12.6616403" id="Fill-17" fill="#9AC11C"></path>
                        <path d="M13.6153835,23.8575213 C13.6153835,24.5273475 13.0735016,25.0707345 12.4036754,25.0707345 C11.7338493,25.0707345 11.1919674,24.5273475 11.1919674,23.8575213 C11.1919674,23.1876951 11.7338493,22.6443081 12.4036754,22.6443081 C13.0735016,22.6443081 13.6153835,23.1876951 13.6153835,23.8575213" id="Fill-19" fill="#74992C"></path>
                        <polygon id="Fill-21" fill="#1D1E1C" points="11.4648651 42.8918737 4.82229686 42.8918737 4.82229686 41.4679287 8.51612477 36.226727 4.91110527 36.226727 4.91110527 34.3677713 11.3715411 34.3677713 11.3715411 35.782685 7.68072359 41.032918 11.4648651 41.032918"></polygon>
                        <path d="M15.3153872,37.7206652 C15.0459515,37.7206652 14.8216727,37.8034527 14.6410454,37.9750486 C14.4619233,38.1421288 14.3550522,38.4070488 14.3234424,38.7667982 L16.2832484,38.7667982 C16.2757223,38.4507004 16.1839034,38.196317 16.0108023,38.0036479 C15.8392063,37.8139893 15.6058961,37.7206652 15.3153872,37.7206652 M15.4493525,43.0085289 C14.3490313,43.0085289 13.4940621,42.7150095 12.8859503,42.1294761 C12.2778384,41.5454479 11.9722773,40.7130571 11.9722773,39.6338091 C11.9722773,38.5169304 12.25526,37.6604561 12.8182151,37.0643861 C13.3826753,36.4668108 14.1879719,36.170281 15.234105,36.170281 C16.227555,36.170281 16.9967262,36.4291801 17.5401133,36.9454731 C18.0804899,37.4647765 18.352936,38.2143797 18.352936,39.1897671 L18.352936,40.2027851 L14.2782856,40.2027851 C14.2918326,40.573071 14.4288083,40.8620747 14.684697,41.0713013 C14.9375752,41.2835383 15.2837775,41.3889042 15.7233038,41.3889042 C16.1236943,41.3889042 16.4909698,41.3497683 16.8281407,41.2714965 C17.1623012,41.1992456 17.5295767,41.0682908 17.9194305,40.8876635 L17.9194305,42.5253509 C17.5641969,42.7074834 17.193911,42.8324173 16.8145937,42.9031629 C16.4322659,42.9724034 15.9776873,43.0085289 15.4493525,43.0085289" id="Fill-23" fill="#1D1E1C"></path>
                        <path d="M23.5765265,42.8918737 L23.5765265,39.2883595 C23.5765265,38.8503383 23.5148122,38.5176831 23.3883731,38.2934042 C23.2634392,38.0706305 23.0587283,37.9577385 22.778756,37.9577385 C22.394923,37.9577385 22.116456,38.1112717 21.94486,38.4168328 C21.7732641,38.7254044 21.6889714,39.252234 21.6889714,39.9988268 L21.6889714,42.8918737 L19.408552,42.8918737 L19.408552,36.2854309 L21.1290268,36.2854309 L21.41502,37.0997589 L21.5504905,37.0997589 C21.7431596,36.7911873 22.01109,36.5578771 22.3557871,36.4013334 C22.7004842,36.246295 23.096359,36.1695284 23.5449167,36.1695284 C24.2719415,36.1695284 24.8424227,36.3817655 25.2488341,36.8062396 C25.6537402,37.2277032 25.8584512,37.8252785 25.8584512,38.5944497 L25.8584512,42.8918737 L23.5765265,42.8918737 Z" id="Fill-25" fill="#1D1E1C"></path>
                        <path d="M30.2266209,41.2058686 C30.5908859,41.2058686 30.849785,41.0929765 31.0003078,40.8611715 C31.1493253,40.632377 31.2306076,40.2801538 31.2411442,39.7999862 L31.2411442,39.619359 C31.2411442,39.0383412 31.1583566,38.6213932 30.9912764,38.3760412 C30.8226909,38.1291839 30.5622866,38.00425 30.2025373,38.00425 C29.9045023,38.00425 29.6696868,38.1487518 29.505617,38.4287241 C29.3415472,38.7102016 29.2587597,39.1120973 29.2587597,39.632906 C29.2587597,40.1461885 29.3430525,40.5375476 29.5086275,40.8039729 C29.6757077,41.0703981 29.9150389,41.2058686 30.2266209,41.2058686 M29.2918747,43.0076257 C28.8222438,43.0076257 28.4113167,42.8721553 28.062104,42.60573 C27.7083756,42.3393048 27.4374346,41.9449352 27.2447655,41.4241265 C27.0520964,40.9033179 26.9557619,40.295206 26.9557619,39.5982858 C26.9557619,38.5250587 27.1710094,37.6851418 27.6030096,37.0785352 C28.0350099,36.4719286 28.6280695,36.1693779 29.3806831,36.1693779 C29.7524743,36.1693779 30.0730877,36.243134 30.3515548,36.3906463 C30.6300218,36.5381586 30.8844053,36.7865211 31.1116946,37.1372391 L31.1613671,37.1372391 C31.0861057,36.6179356 31.0469698,36.1031479 31.0469698,35.5853497 L31.0469698,33.819718 L33.345452,33.819718 L33.345452,42.8917232 L31.6264824,42.8917232 L31.1357782,42.056322 L31.0469698,42.056322 C30.6571159,42.691528 30.0700773,43.0076257 29.2918747,43.0076257" id="Fill-27" fill="#1D1E1C"></path>
                        <path d="M8.68440919,49.9814945 L7.10994138,49.9814945 L7.10994138,55.3942921 L5.73416359,55.3942921 L5.73416359,49.9814945 L4.67297831,49.9814945 L4.67297831,49.3417729 L5.73416359,48.9218145 L5.73416359,48.5033613 C5.73416359,47.7387058 5.91178041,47.1742455 6.27002452,46.8084753 C6.62826863,46.4411998 7.17466616,46.2560569 7.90771188,46.2560569 C8.38938463,46.2560569 8.86503647,46.3358339 9.3286465,46.4968932 L8.96889716,47.5355001 C8.63022101,47.4256185 8.30810235,47.3699251 8.00103597,47.3699251 C7.68945391,47.3699251 7.46517504,47.4662596 7.32217844,47.6589288 C7.17918184,47.8515979 7.10994138,48.1406015 7.10994138,48.5244345 L7.10994138,48.9458981 L8.68440919,48.9458981 L8.68440919,49.9814945 Z" id="Fill-29" fill="#1D1E1C"></path>
                        <path d="M13.013443,48.8275873 C13.2904049,48.8275873 13.516189,48.8471552 13.6968163,48.8877964 L13.5613458,50.1642291 C13.3656662,50.1160619 13.165471,50.0949887 12.9547392,50.0949887 C12.4053312,50.0949887 11.9627944,50.2741107 11.622613,50.6293444 C11.2809264,50.9875885 11.1123409,51.4527038 11.1123409,52.0231849 L11.1123409,55.393389 L9.74107879,55.393389 L9.74107879,48.944995 L10.8143059,48.944995 L10.9949332,50.0844521 L11.0656789,50.0844521 C11.2809264,49.6976087 11.5578882,49.3920475 11.9025853,49.1662634 C12.2472823,48.9434898 12.616063,48.8275873 13.013443,48.8275873" id="Fill-31" fill="#1D1E1C"></path>
                        <path d="M16.6706939,54.4618038 C17.1704294,54.4618038 17.5678094,54.3233228 17.8688549,54.046361 C18.1714056,53.7678939 18.3204231,53.3750296 18.3204231,52.8737889 L18.3204231,52.3153496 L17.4925481,52.351475 C16.8483108,52.3725482 16.3786798,52.4809246 16.0851605,52.6735937 C15.7916412,52.8662628 15.6441289,53.1612873 15.6441289,53.5571621 C15.6441289,53.8446605 15.7314321,54.0674342 15.9015228,54.2254831 C16.0731187,54.3820267 16.3305126,54.4618038 16.6706939,54.4618038 L16.6706939,54.4618038 Z M18.7132874,55.3935395 L18.4363256,54.496424 L18.3911688,54.496424 C18.081092,54.8892883 17.7680047,55.1557136 17.4534122,55.3002154 C17.1388196,55.4386963 16.7324083,55.5109472 16.2401989,55.5109472 C15.604993,55.5109472 15.1127836,55.3408565 14.7560447,54.9976647 C14.4008111,54.6544729 14.2231943,54.1728001 14.2231943,53.5481308 C14.2231943,52.8798098 14.4700516,52.3785691 14.9637661,52.0398929 C15.4559755,51.7042273 16.2070839,51.5190843 17.2185967,51.4859693 L18.3324649,51.4528543 L18.3324649,51.1081572 C18.3324649,50.6957249 18.2376356,50.3901638 18.0464717,50.1824424 C17.8507922,49.9777315 17.5542624,49.8798917 17.147851,49.8798917 C16.8182062,49.8798917 16.5021085,49.9265538 16.1980525,50.0228883 C15.8970071,50.1222333 15.604993,50.2351254 15.3250207,50.3675854 L14.8809786,49.3861771 C15.2301914,49.2055499 15.6155296,49.0670689 16.0294671,48.9707344 C16.4449098,48.8774103 16.8392794,48.8277378 17.2095653,48.8277378 C18.0299142,48.8277378 18.6470574,49.0098703 19.0640054,49.3635987 C19.4839639,49.7233481 19.6916852,50.2847979 19.6916852,51.0494534 L19.6916852,55.3935395 L18.7132874,55.3935395 Z" id="Fill-33" fill="#1D1E1C"></path>
                        <path d="M26.3944626,55.3938405 L25.0186848,55.3938405 L25.0186848,51.4170299 C25.0186848,50.9233153 24.9238555,50.5545346 24.7387125,50.312193 C24.5520643,50.0698514 24.2615555,49.9494332 23.8626702,49.9494332 C23.3328302,49.9494332 22.947492,50.1195239 22.7006347,50.464221 C22.4537774,50.808918 22.3303488,51.3809044 22.3303488,52.1801801 L22.3303488,55.3938405 L20.9605919,55.3938405 L20.9605919,48.9454466 L22.0323138,48.9454466 L22.2249829,49.7883739 L22.2942233,49.7883739 C22.4733454,49.4828127 22.7322445,49.246492 23.0739311,49.0779066 C23.4141125,48.9123316 23.7874088,48.8280388 24.1968307,48.8280388 C25.1872703,48.8280388 25.8450546,49.1652098 26.1671733,49.8425621 L26.2604974,49.8425621 C26.450156,49.5249591 26.7180865,49.2765966 27.0642888,49.0944641 C27.4119963,48.9183525 27.8063659,48.8280388 28.2549236,48.8280388 C29.0240948,48.8280388 29.5855446,49.0237184 29.9377678,49.4105618 C30.2884858,49.7989105 30.4661026,50.39197 30.4661026,51.1882353 L30.4661026,55.3938405 L29.0948405,55.3938405 L29.0948405,51.4170299 C29.0948405,50.9233153 29.0000112,50.5545346 28.8118577,50.312193 C28.6221991,50.0698514 28.330185,49.9494332 27.9343102,49.9494332 C27.4014597,49.9494332 27.0116058,50.113503 26.7647485,50.4476635 C26.5178913,50.7788135 26.3944626,51.2875803 26.3944626,51.9754692 L26.3944626,55.3938405 Z" id="Fill-35" fill="#1D1E1C"></path>
                        <path d="M34.5717607,49.865291 C34.13675,49.865291 33.7875373,50.0037719 33.5256277,50.2792285 C33.2622129,50.5576956 33.1086797,50.9610965 33.057502,51.4864209 L35.983664,51.4864209 C35.9776431,50.9550756 35.8481935,50.5516747 35.599831,50.2762181 C35.3514685,50.0037719 35.0067714,49.865291 34.5717607,49.865291 M34.8246389,55.5113988 C33.819147,55.5113988 33.0349236,55.2193847 32.4704633,54.632346 C31.9044978,54.0483178 31.6230203,53.2430212 31.6230203,52.2164561 C31.6230203,51.162797 31.8849299,50.3349219 32.4102542,49.7313258 C32.9340734,49.1307401 33.6565825,48.8281894 34.5717607,48.8281894 C35.4222142,48.8281894 36.096556,49.0855832 36.5902706,49.6033814 C37.0854904,50.1226849 37.3308424,50.8331522 37.3308424,51.7362886 L37.3308424,52.4768604 L33.0334184,52.4768604 C33.0544915,53.103035 33.2215718,53.586213 33.5391747,53.9218787 C33.8582829,54.2575444 34.3083459,54.4261299 34.8878585,54.4261299 C35.268681,54.4261299 35.6224094,54.3900044 35.9520542,54.3192587 C36.2786885,54.2470078 36.6324169,54.1250844 37.0117342,53.9610146 L37.0117342,55.0733776 C36.6745633,55.2329317 36.3388976,55.347329 35.9942006,55.413559 C35.6540192,55.4782838 35.2626601,55.5113988 34.8246389,55.5113988" id="Fill-37" fill="#1D1E1C"></path>
                        <path d="M44.1763154,55.3938405 L43.3424194,52.3848911 C43.2415692,52.0672881 43.0594367,51.3267162 42.7945167,50.1631755 L42.7433389,50.1631755 C42.5160496,51.2138242 42.3369276,51.9574065 42.2044675,52.3984381 L41.3494984,55.3938405 L39.8322292,55.3938405 L38.0259564,48.9454466 L39.4258179,48.9454466 L40.2461668,52.1229815 C40.4343202,52.9087102 40.565275,53.5800416 40.6420416,54.1399861 L40.6796722,54.1399861 C40.7157977,53.8570034 40.7760068,53.5303691 40.8572891,53.1645988 C40.9370661,52.7973234 41.0063066,52.5218667 41.062,52.3412395 L42.0434082,48.9454466 L43.5471303,48.9454466 L44.4999393,52.3412395 C44.5556327,52.5308981 44.630894,52.8229122 44.716692,53.2142713 C44.8055004,53.6056304 44.8536677,53.9111916 44.8717304,54.1279443 L44.9168872,54.1279443 C44.9770963,53.6522925 45.1110616,52.9809611 45.3263091,52.1229815 L46.160205,48.9454466 L47.5344776,48.9454466 L45.716163,55.3938405 L44.1763154,55.3938405 Z" id="Fill-39" fill="#1D1E1C"></path>
                        <path d="M49.3961428,52.1585049 C49.3961428,53.6456695 49.9440455,54.3892518 51.0473772,54.3892518 C52.1341513,54.3892518 52.6805489,53.6456695 52.6805489,52.1585049 C52.6805489,50.6848873 52.1311409,49.9488311 51.0338301,49.9488311 C50.4588333,49.9488311 50.0418853,50.1384898 49.7844914,50.5193123 C49.5240871,50.90164 49.3961428,51.4465323 49.3961428,52.1585049 M54.0894417,52.1585049 C54.0894417,53.2106588 53.820006,54.0340181 53.2781241,54.6255725 C52.7392527,55.2171268 51.986639,55.5121514 51.0217883,55.5121514 C50.4212026,55.5121514 49.8868469,55.3736705 49.4262473,55.1012243 C48.9611321,54.8302834 48.6058984,54.4404295 48.3590411,53.9301575 C48.1091734,53.4228958 47.9857448,52.8298363 47.9857448,52.1585049 C47.9857448,51.1123719 48.2506648,50.2965386 48.7880309,49.7095 C49.3269023,49.1209561 50.0810212,48.8274367 51.0579138,48.8274367 C51.9911547,48.8274367 52.7272109,49.126977 53.2736084,49.7290679 C53.8185007,50.3281484 54.0894417,51.1379607 54.0894417,52.1585049" id="Fill-41" fill="#1D1E1C"></path>
                        <path d="M58.3260545,48.8275873 C58.6045216,48.8275873 58.8303057,48.8471552 59.0094278,48.8877964 L58.8739573,50.1642291 C58.6782777,50.1160619 58.4780825,50.0949887 58.2688559,50.0949887 C57.7194479,50.0949887 57.2769111,50.2741107 56.9352245,50.6293444 C56.5965483,50.9875885 56.4234472,51.4527038 56.4234472,52.0231849 L56.4234472,55.393389 L55.0536903,55.393389 L55.0536903,48.944995 L56.1284226,48.944995 L56.3090499,50.0844521 L56.3782904,50.0844521 C56.5920326,49.6976087 56.8720049,49.3920475 57.2151968,49.1662634 C57.5583886,48.9434898 57.9271693,48.8275873 58.3260545,48.8275873" id="Fill-43" fill="#1D1E1C"></path>
                        <polygon id="Fill-45" fill="#1D1E1C" points="61.1822234 51.9879626 61.9574155 51.0201014 63.9051797 48.9458981 65.4841632 48.9458981 62.8891513 51.7140112 65.648233 55.3942921 64.0376397 55.3942921 61.9694573 52.5659699 61.2168437 53.1831131 61.2168437 55.3942921 59.8561181 55.3942921 59.8561181 46.3192764 61.2168437 46.3192764 61.2168437 50.7476553 61.1476032 51.9879626"></polygon>
                        <path d="M7.98914468,66.3449716 C8.55209971,66.3449716 8.964532,66.1884279 9.22042065,65.8723302 C9.4763093,65.5547272 9.61027453,65.0399395 9.61780067,64.3279669 L9.61780067,64.1352978 C9.61780067,63.3224751 9.48534066,62.745973 9.22042065,62.4057916 C8.95550064,62.0610945 8.54156311,61.8894986 7.97860809,61.8894986 C7.49693533,61.8894986 7.12363895,62.0851782 6.86473985,62.4780425 C6.60433552,62.8678964 6.47187551,63.4248305 6.47187551,64.1473397 C6.47187551,64.8638279 6.59831461,65.4087202 6.85420326,65.7835218 C7.10708145,66.1583234 7.48489352,66.3449716 7.98914468,66.3449716 M7.62036398,67.4528189 C6.81657257,67.4528189 6.190398,67.1638153 5.73732456,66.5797871 C5.28726159,65.9957588 5.06298271,65.1784204 5.06298271,64.1247612 C5.06298271,63.0665864 5.29027204,62.2417218 5.74786115,61.6531779 C6.20394504,61.0661393 6.83764576,60.7711147 7.64595284,60.7711147 C8.49189061,60.7711147 9.13913837,61.0826968 9.58167521,61.7088713 L9.65091567,61.7088713 C9.58468567,61.2482718 9.55307589,60.8809963 9.55307589,60.6145711 L9.55307589,58.2649112 L10.9288537,58.2649112 L10.9288537,67.3369164 L9.85562659,67.3369164 L9.61780067,66.4924839 L9.55307589,66.4924839 C9.11354951,67.1322055 8.4693122,67.4528189 7.62036398,67.4528189" id="Fill-47" fill="#1D1E1C"></path>
                        <path d="M14.4760725,66.4036755 C14.9743027,66.4036755 15.373188,66.2651945 15.6757387,65.9882327 C15.9752789,65.7082604 16.1288121,65.3199118 16.1288121,64.8186711 L16.1288121,64.2572213 L15.2964214,64.2933467 C14.6521841,64.3174303 14.1840584,64.4258067 13.8890338,64.6154654 C13.5970197,64.8066292 13.4480022,65.103159 13.4480022,65.4990338 C13.4480022,65.7895427 13.5353054,66.0093059 13.7038908,66.16886 C13.8784972,66.3254036 14.1343859,66.4036755 14.4760725,66.4036755 L14.4760725,66.4036755 Z M16.5171607,67.3369164 L16.2432094,66.4382957 L16.1965473,66.4382957 C15.8849653,66.8326652 15.5733832,67.1005957 15.2572855,67.2405819 C14.9441982,67.380568 14.5377868,67.4528189 14.0440722,67.4528189 C13.4103715,67.4528189 12.9166569,67.2827282 12.5614233,66.9395364 C12.2046844,66.599355 12.0270676,66.1146718 12.0270676,65.4884972 C12.0270676,64.824692 12.2739248,64.321946 12.7676394,63.9847751 C13.2598488,63.6445937 14.0109572,63.460956 15.0239752,63.4293462 L16.1378435,63.394726 L16.1378435,63.0500289 C16.1378435,62.6391019 16.0415089,62.3305302 15.850345,62.1273246 C15.6576759,61.9226136 15.3596409,61.8217634 14.9547348,61.8217634 C14.62509,61.8217634 14.307487,61.8669202 14.0034311,61.9677705 C13.7008804,62.0625998 13.4088663,62.1785023 13.1303992,62.3109623 L12.6863571,61.3310593 C13.0355699,61.1489268 13.4178976,61.0089406 13.8348456,60.9156165 C14.2517936,60.8177768 14.6446579,60.7711147 15.0134386,60.7711147 C15.8337875,60.7711147 16.4509307,60.9502368 16.8708892,61.3054704 C17.2863319,61.6682302 17.4955585,62.2266696 17.4955585,62.9913251 L17.4955585,67.3369164 L16.5171607,67.3369164 Z" id="Fill-49" fill="#1D1E1C"></path>
                        <path d="M18.2126488,60.8870172 L19.7028239,60.8870172 L21.0168874,64.5432144 C21.2125669,65.0640231 21.3465322,65.5547272 21.4127622,66.0123163 L21.4594242,66.0123163 C21.4940445,65.8000793 21.557264,65.5411802 21.6520933,65.235619 C21.7454174,64.9300579 22.2376268,63.4805239 23.1317318,60.8870172 L24.6143807,60.8870172 L21.8537938,68.1933908 C21.3540583,69.5360536 20.5171519,70.2043745 19.3475903,70.2043745 C19.0465448,70.2043745 18.750015,70.1727647 18.4625166,70.1065347 L18.4625166,69.022771 C18.6672275,69.0709383 18.9035482,69.0920115 19.166963,69.0920115 C19.829263,69.0920115 20.292873,68.7096837 20.5608035,67.9420178 L20.8016399,67.3369164 L18.2126488,60.8870172 Z" id="Fill-51" fill="#1D1E1C"></path>
                    </g>
                </g>
            </g>
        </g>
    </g>
</svg>