<svg width="230" height="180" viewBox="0 0 230 180" fill="none" xmlns="http://www.w3.org/2000/svg">
<mask id="mask0" mask-type="alpha" maskUnits="userSpaceOnUse" x="0" y="-1" width="230" height="181">
<rect y="-0.000183105" width="230" height="180" fill="#C4C4C4"/>
</mask>
<g mask="url(#mask0)">
<path d="M160.256 67.7963L167.498 67.3764C168.832 67.3007 169.977 68.3185 170.056 69.6524C170.133 70.9877 169.112 72.1321 167.778 72.2112L160.535 72.6311C159.651 72.6809 158.849 72.2494 158.388 71.5649C158.153 71.2177 158.005 70.8035 157.98 70.3537C157.899 69.0178 158.92 67.8734 160.256 67.7963Z" fill="#E3E0CC"/>
<path d="M184.21 66.4107C185.545 66.3337 186.69 67.3549 186.767 68.6868C186.844 70.022 185.823 71.1665 184.489 71.2455L177.248 71.6641C176.365 71.7139 175.563 71.2824 175.101 70.5979C174.867 70.2507 174.718 69.8345 174.693 69.3867C174.616 68.0514 175.637 66.907 176.971 66.8279L184.21 66.4107Z" fill="#E3E0CC"/>
<path d="M154.734 93.7841L157.164 135.83C157.241 137.165 156.219 138.309 154.885 138.389C154.002 138.438 153.2 138.007 152.738 137.322C152.504 136.975 152.355 136.559 152.33 136.111L149.901 94.0654C149.824 92.7302 150.845 91.5857 152.179 91.5067C153.512 91.431 154.656 92.4522 154.734 93.7841Z" fill="#E3E0CC"/>
<path d="M166.334 90.6894C167.668 90.6137 168.816 91.6356 168.892 92.9654L171.321 135.011C171.398 136.346 170.377 137.491 169.043 137.57C168.16 137.62 167.358 137.188 166.896 136.504C166.662 136.156 166.512 135.74 166.488 135.292L164.058 93.2468C163.978 91.9109 164.999 90.7664 166.334 90.6894Z" fill="#E3E0CC"/>
<path d="M180.494 89.8716C181.829 89.7945 182.974 90.8158 183.052 92.1477L185.479 134.195C185.556 135.53 184.535 136.674 183.201 136.753C182.317 136.803 181.515 136.372 181.054 135.687C180.819 135.34 180.67 134.924 180.646 134.476L178.218 92.429C178.138 91.0931 179.159 89.9486 180.494 89.8716Z" fill="#E3E0CC"/>
<path d="M194.65 89.0551C195.986 88.9781 197.13 89.9993 197.208 91.3312L199.637 133.377C199.714 134.712 198.693 135.857 197.359 135.936C196.476 135.985 195.674 135.554 195.212 134.869C194.978 134.522 194.828 134.106 194.804 133.658L192.374 91.6125C192.296 90.2753 193.315 89.1322 194.65 89.0551Z" fill="#E3E0CC"/>
<path d="M72.9467 12.4936L8.81715 55.7496C7.70714 56.4983 7.41645 58.0027 8.1638 59.1107L32.2308 94.7916C32.9227 95.8173 34.2783 96.1558 35.3711 95.5764C39.2307 93.5308 43.9848 94.7253 46.4313 98.3524C48.8778 101.979 48.201 106.834 44.862 109.647C43.9168 110.445 43.7228 111.829 44.4146 112.855L83.1417 170.27C83.8891 171.378 85.3929 171.672 86.5029 170.923L135.014 138.202L135.793 151.701C135.819 152.151 135.967 152.565 136.201 152.912C136.663 153.597 137.465 154.028 138.348 153.978L215.576 149.517C216.913 149.439 217.931 148.294 217.854 146.959L213.861 77.82C213.786 76.5916 212.798 75.6024 211.561 75.5433C207.199 75.3285 203.713 71.8762 203.467 67.51C203.214 63.1424 206.272 59.3123 210.581 58.5993C211.803 58.3973 212.674 57.3074 212.602 56.0709L210.12 13.1027C210.082 12.4623 209.801 11.8635 209.312 11.437C208.834 11.0092 208.203 10.7889 207.563 10.8267L130.339 15.2849C129.696 15.324 129.096 15.612 128.67 16.0924C128.242 16.5708 128.022 17.2013 128.059 17.8417L130.543 60.8085C130.619 62.0369 131.609 63.0248 132.844 63.0852C137.203 63.2994 140.687 66.7463 140.939 71.1205C141.191 75.4861 138.132 79.3162 133.822 80.0306C132.6 80.2326 131.729 81.3225 131.801 82.559L132.612 96.617L112.561 66.8897C111.869 65.864 110.513 65.5255 109.42 66.1049C105.559 68.1484 100.805 66.9539 98.3602 63.3289C95.915 59.7038 96.5905 54.847 99.9295 52.0341C100.876 51.2379 101.07 49.8542 100.378 48.8285L76.3099 13.1456C75.5605 12.039 74.0567 11.7449 72.9467 12.4936ZM136.75 84.2728C141.525 82.6528 144.942 78.4615 145.641 73.4891L151.067 73.1764C152.404 73.098 153.422 71.9529 153.345 70.6176C153.266 69.2837 152.121 68.2659 150.788 68.3416L145.463 68.6477C144.318 63.5819 140.339 59.6307 135.265 58.5346L133.037 19.9777L205.43 15.7961L207.655 54.3557C202.74 56.0235 199.24 60.408 198.689 65.575L193.682 65.8626C192.347 65.9397 191.327 67.0861 191.404 68.418C191.428 68.8691 191.576 69.2833 191.812 69.6326C192.274 70.3171 193.076 70.7485 193.959 70.6988L199.071 70.4052C200.337 75.2662 204.211 79.0313 209.143 80.0945L212.881 144.825L140.489 149.004L136.75 84.2728ZM73.6473 17.862L95.2448 49.8816C91.8689 53.8263 91.0958 59.3826 93.2628 64.1065L89.1018 66.9132C87.9918 67.6619 87.7011 69.1663 88.4485 70.2743C89.1958 71.3823 90.6996 71.6764 91.8096 70.9277L96.0549 68.0641C99.6237 71.5972 104.879 72.8594 109.661 71.2548L133.158 106.091L134.689 132.581L85.8023 165.555L49.5461 111.803C52.8232 107.972 53.6223 102.623 51.6847 97.9922L56.193 94.9514C57.303 94.2026 57.5937 92.6982 56.8463 91.5902C56.099 90.4822 54.5952 90.1881 53.4852 90.9369L49.0612 93.9209C45.4925 90.1454 40.0498 88.7787 35.1297 90.4298L13.5322 58.4102L73.6473 17.862Z" fill="#E3E0CC"/>
<path d="M70.7211 82.2282C71.4684 83.3362 71.1778 84.8406 70.0678 85.5893L64.054 89.6456C62.944 90.3943 61.4402 90.1003 60.6929 88.9923C59.9455 87.8843 60.2362 86.3798 61.3462 85.6311L67.3599 81.5748C68.4699 80.8261 69.9737 81.1202 70.7211 82.2282Z" fill="#E3E0CC"/>
<path d="M84.6 72.8672C85.3474 73.9752 85.0567 75.4797 83.9467 76.2284L77.9329 80.2847C76.8229 81.0334 75.3191 80.7393 74.5718 79.6313C73.8244 78.5233 74.1151 77.0189 75.2251 76.2702L81.2388 72.2139C82.3489 71.4652 83.8526 71.7592 84.6 72.8672Z" fill="#E3E0CC"/>
<path d="M69.8617 110.801L93.4129 145.717C94.1603 146.825 93.8696 148.329 92.7596 149.078C91.6495 149.827 90.1457 149.533 89.3984 148.425L65.8472 113.509C65.0999 112.401 65.3905 110.896 66.5006 110.148C67.6106 109.399 69.1144 109.693 69.8617 110.801Z" fill="#E3E0CC"/>
<path d="M81.6215 102.87L105.173 137.786C105.92 138.894 105.629 140.398 104.519 141.147C103.409 141.896 101.906 141.602 101.158 140.494L77.607 105.577C76.8596 104.469 77.1503 102.965 78.2603 102.216C79.3703 101.468 80.8741 101.762 81.6215 102.87Z" fill="#E3E0CC"/>
<path d="M93.3773 94.9397L116.929 129.856C117.676 130.964 117.385 132.468 116.275 133.217C115.165 133.966 113.661 133.672 112.914 132.564L89.3628 97.6476C88.6155 96.5396 88.9062 95.0351 90.0162 94.2864C91.1262 93.5377 92.63 93.8317 93.3773 94.9397Z" fill="#E3E0CC"/>
<path d="M105.135 87.0085L128.686 121.925C129.434 123.033 129.143 124.537 128.033 125.286C126.923 126.034 125.419 125.74 124.672 124.632L101.121 89.7163C100.373 88.6083 100.664 87.1039 101.774 86.3552C102.884 85.6065 104.388 85.9005 105.135 87.0085Z" fill="#E3E0CC"/>
</g>
</svg>
