<?xml version="1.0" encoding="UTF-8"?>
<svg width="24px" height="24px" viewBox="0 0 24 24" version="1.1" xmlns="http://www.w3.org/2000/svg" xmlns:xlink="http://www.w3.org/1999/xlink">
    <defs></defs>
    <g id="Large" stroke="none" stroke-width="1" fill="none" fill-rule="evenodd">
        <g id="Home-v2" transform="translate(-1039.000000, -25.000000)" fill-rule="nonzero" fill="#7A88A3">
            <g id="Group-2" transform="translate(0.000000, 5.000000)">
                <g id="Group-15" transform="translate(1039.000000, 20.000000)">
                    <path d="M20.493416,8.17222633 C20.5030801,8.3531606 20.5068384,8.53570557 20.5068384,8.71878744 C20.5068384,14.3046635 16.2551514,20.7452795 8.48034638,20.7452795 C6.09383937,20.7452795 3.87162282,20.0457027 2,18.8462749 C2.32911784,18.8827839 2.66736293,18.9058705 3.0082925,18.9058705 C4.98890541,18.9058705 6.81113372,18.2293803 8.25860794,17.094917 C6.4068503,17.0621663 4.84716461,15.8385781 4.30865696,14.1597013 C4.5669044,14.2090958 4.8321315,14.2364776 5.10219067,14.2364776 C5.48875649,14.2364776 5.86243678,14.1838617 6.21625188,14.0877571 C4.282349,13.697433 2.82467374,11.9911744 2.82467374,9.94130183 L2.82467374,9.88868593 C3.39485832,10.2043813 4.04718813,10.3944429 4.73978522,10.4159187 C3.60585883,9.65782023 2.86064584,8.36282475 2.86064584,6.89709603 C2.86064584,6.1228906 3.06896186,5.3975428 3.432978,4.77313163 C5.51613823,7.33037188 8.63175133,9.01247008 12.1452051,9.18857228 C12.0721871,8.88039342 12.0367519,8.55610766 12.0367519,8.22484223 C12.0367519,5.89256181 13.9287768,4 16.262131,4 C17.4787395,4 18.5777676,4.5132735 19.3487517,5.33311517 C20.3103341,5.14466433 21.2160793,4.79299682 22.0326996,4.30817886 C21.7164673,5.29445859 21.045883,6.1228906 20.1744992,6.64582825 C21.0287023,6.54489162 21.8421012,6.3177842 22.6012735,5.98007601 C22.035921,6.8321315 21.3202373,7.57627069 20.493416,8.17222633 Z" id="Shape"></path>
                </g>
            </g>
        </g>
    </g>
</svg>