<?xml version="1.0" encoding="UTF-8"?>
<svg width="171px" height="36px" viewBox="0 0 171 36" version="1.1" xmlns="http://www.w3.org/2000/svg" xmlns:xlink="http://www.w3.org/1999/xlink">
    <defs>
        <linearGradient x1="49.9552721%" y1="99.3261596%" x2="49.9552721%" y2="0.0291280148%" id="linearGradient-1">
            <stop stop-color="#9ACA3C" offset="0%"></stop>
            <stop stop-color="#B7CA3F" offset="11.95%"></stop>
            <stop stop-color="#D1CA46" offset="26.87%"></stop>
            <stop stop-color="#E5CA4D" offset="42.57%"></stop>
            <stop stop-color="#F2C952" offset="59.19%"></stop>
            <stop stop-color="#FBC955" offset="77.37%"></stop>
            <stop stop-color="#FFC956" offset="100%"></stop>
        </linearGradient>
        <linearGradient x1="49.9944298%" y1="95.8230392%" x2="49.9944298%" y2="8.90343137%" id="linearGradient-2">
            <stop stop-color="#1F6AB4" offset="0%"></stop>
            <stop stop-color="#2B79B2" offset="8.371949%"></stop>
            <stop stop-color="#398DB1" offset="21.22%"></stop>
            <stop stop-color="#459FAF" offset="34.67%"></stop>
            <stop stop-color="#4EADAC" offset="48.71%"></stop>
            <stop stop-color="#55B7A8" offset="63.56%"></stop>
            <stop stop-color="#59BEA6" offset="79.79%"></stop>
            <stop stop-color="#5AC1A6" offset="100%"></stop>
        </linearGradient>
    </defs>
    <g id="Large" stroke="none" stroke-width="1" fill="none" fill-rule="evenodd">
        <g id="Home-v2" transform="translate(-17.000000, -18.000000)">
            <g id="Group-2" transform="translate(0.000000, 5.000000)">
                <g id="logo_header" transform="translate(17.000000, 13.000000)">
                    <path d="M89.472,28 L92.376,28 L92.376,17.824 L95.688,17.824 L95.688,15.424 L92.328,15.424 L92.328,14.728 C92.328,13.408 92.904,12.808 94.008,12.808 C94.632,12.808 95.136,12.928 95.712,13.12 L95.712,10.672 C95.064,10.48 94.368,10.336 93.36,10.336 C92.112,10.336 91.176,10.672 90.504,11.344 C89.832,12.016 89.472,13.072 89.472,14.488 L89.472,15.4 L87.864,15.4 L87.864,17.824 L89.472,17.824 L89.472,28 Z M100.896,28.096 L103.488,28.096 L106.344,19.432 L109.176,28.096 L111.768,28.096 L115.92,15.328 L113.016,15.328 L110.424,24.016 L107.592,15.28 L105.12,15.28 L102.312,24.016 L99.768,15.328 L96.792,15.328 L100.896,28.096 Z M123.264,28.264 C120.288,28.264 117.384,25.888 117.384,21.64 C117.384,17.44 120.24,15.064 123.264,15.064 C125.352,15.064 126.672,16.12 127.584,17.296 L127.584,10.48 L130.488,10.48 L130.488,28 L127.584,28 L127.584,25.888 C126.648,27.208 125.328,28.264 123.264,28.264 Z M123.96,25.744 C125.904,25.744 127.632,24.112 127.632,21.64 C127.632,19.192 125.904,17.584 123.96,17.584 C121.968,17.584 120.312,19.12 120.312,21.688 C120.312,24.136 121.992,25.744 123.96,25.744 Z M144.744,28 L141.864,28 L141.864,26.44 C141,27.472 139.68,28.264 137.76,28.264 C135.36,28.264 133.248,26.896 133.248,24.304 C133.248,21.496 135.432,20.152 138.384,20.152 C139.92,20.152 140.904,20.368 141.888,20.68 L141.888,20.44 C141.888,18.688 140.784,17.728 138.768,17.728 C137.352,17.728 136.296,18.04 135.144,18.52 L134.352,16.192 C135.744,15.568 137.112,15.136 139.176,15.136 C142.92,15.136 144.744,17.104 144.744,20.488 L144.744,28 Z M141.936,23.416 L141.936,22.696 C141.192,22.408 140.16,22.192 139.032,22.192 C137.208,22.192 136.128,22.936 136.128,24.208 C136.128,25.408 137.208,26.08 138.576,26.08 C140.496,26.08 141.936,25 141.936,23.416 Z M150.312,31.912 C152.352,31.912 153.48,30.952 154.488,28.36 L159.528,15.328 L156.504,15.328 L153.216,24.736 L149.616,15.328 L146.52,15.328 L151.8,28 C151.32,29.104 150.816,29.464 150,29.464 C149.4,29.464 148.824,29.272 148.296,28.984 L147.312,31.144 C148.2,31.624 149.088,31.912 150.312,31.912 Z M165.888,28.24 C168.528,28.24 170.592,26.92 170.592,24.256 C170.592,21.928 168.504,21.088 166.656,20.512 C166.584,20.488 166.488,20.464 166.416,20.44 C165.024,19.984 163.8,19.6 163.8,18.736 C163.8,17.944 164.448,17.416 165.576,17.416 C166.632,17.416 167.928,17.872 169.152,18.616 L170.304,16.552 C168.96,15.664 167.232,15.112 165.648,15.112 C163.128,15.112 161.136,16.576 161.136,18.976 C161.136,21.448 163.224,22.216 165.096,22.768 L165.312,22.84 C166.704,23.248 167.928,23.584 167.928,24.52 C167.928,25.408 167.208,25.936 165.96,25.936 C164.664,25.936 163.176,25.408 161.808,24.376 L160.512,26.344 C162.096,27.592 164.088,28.24 165.888,28.24 Z" id="fwdays" fill="#121314"></path>
                    <polygon id="Shape" fill="url(#linearGradient-1)" points="16.8666667 34.2244898 0 17.5102041 16.8666667 0.795918367 18.4 2.28438908 3.03537415 17.5102041 18.4 32.7050093"></polygon>
                    <polygon id="Shape" fill="url(#linearGradient-2)" points="55.7473684 35.8163265 44.9157895 25.1104442 34.0842105 35.8163265 17.8210526 19.7418968 2.34736842 35.0672269 0.8 33.5378151 17.8210526 16.7142857 34.0842105 32.7887155 44.9157895 22.0828331 55.7473684 32.7887155 71.2526316 17.4945978 72.8 18.9927971"></polygon>
                    <path d="M19.2,1.59183673 C19.2,2.47303207 18.4857143,3.18367347 17.6,3.18367347 C16.7142857,3.18367347 16,2.47303207 16,1.59183673 C16,0.710641399 16.7142857,0 17.6,0 C18.4857143,0 19.2,0.710641399 19.2,1.59183673 L19.2,1.59183673 Z" id="Shape" fill="#F4772E"></path>
                    <ellipse id="Oval" fill="#C1B32D" cx="1.6" cy="17.5102041" rx="1.6" ry="1.59183673"></ellipse>
                    <ellipse id="Oval" fill="#1363A5" cx="1.6" cy="34.2244898" rx="1.6" ry="1.59183673"></ellipse>
                    <ellipse id="Oval" fill="#32BCA9" cx="18" cy="18.3061224" rx="2.4" ry="2.3877551"></ellipse>
                    <ellipse id="Oval" fill="#1363A5" cx="34.4" cy="34.2244898" rx="1.6" ry="1.59183673"></ellipse>
                    <ellipse id="Oval" fill="#32BCA9" cx="44.8" cy="23.877551" rx="1.6" ry="1.59183673"></ellipse>
                    <ellipse id="Oval" fill="#1363A5" cx="55.2" cy="34.2244898" rx="1.6" ry="1.59183673"></ellipse>
                    <ellipse id="Oval" fill="#32BCA9" cx="71.2" cy="19.1020408" rx="2.4" ry="2.3877551"></ellipse>
                    <path d="M20,34.2244898 C20,35.1056851 19.2857143,35.8163265 18.4,35.8163265 C17.5142857,35.8163265 16.8,35.1056851 16.8,34.2244898 C16.8,33.3432945 17.5142857,32.6326531 18.4,32.6326531 C19.2857143,32.6326531 20,33.3432945 20,34.2244898 L20,34.2244898 Z" id="Shape" fill="#4CB748"></path>
                </g>
            </g>
        </g>
    </g>
</svg>