<?xml version="1.0" encoding="UTF-8"?>
<svg width="50px" height="50px" viewBox="0 0 50 50" version="1.1" xmlns="http://www.w3.org/2000/svg" xmlns:xlink="http://www.w3.org/1999/xlink">
    <!-- Generator: Sketch 52.2 (67145) - http://www.bohemiancoding.com/sketch -->
    <title>ic_busdev</title>
    <desc>Created with Sketch.</desc>
    <g id="Business-event" stroke="none" stroke-width="1" fill="none" fill-rule="evenodd">
        <g id="Business_eventpage" transform="translate(-170.000000, -711.000000)" fill-rule="nonzero">
            <g id="themes-copy" transform="translate(170.000000, 652.000000)">
                <g id="1" transform="translate(0.000000, 59.000000)">
                    <g id="011_goal_career_growth_employee_business_rise_man_chart_flag_achive_achievement_climb_up">
                        <rect id="ic_busdev" x="0" y="0" width="50" height="50"></rect>
                        <path d="M47.2291927,26.6666667 C46.7691927,26.6666667 46.3958593,26.2941667 46.3958593,25.8333333 L46.3958593,22.845 L34.487526,34.755 C34.4866927,34.7558333 34.4858593,34.7558333 34.485026,34.7566667 L22.8208593,46.4225 C22.6358593,46.6083333 22.377526,46.6966667 22.112526,46.6583333 C21.8533593,46.6208333 21.6258593,46.4633333 21.500026,46.2316667 L17.0166927,38.0108333 L4.46919265,49.7741667 C4.30919265,49.925 4.10419265,50 3.90002599,50 C3.67752599,50 3.45669265,49.9116667 3.29169265,49.7366667 C2.97669265,49.4008333 2.99419265,48.8733333 3.33002599,48.5583333 L9.04169265,43.2041667 C8.12502599,42.9808333 7.20669265,42.46 6.58752599,41.8283333 C5.60585932,40.8266667 5.37502599,39.6041667 5.95585932,38.4741667 C5.97169265,38.445 5.98835932,38.4166667 6.00752599,38.3891667 C7.76835932,35.7825 10.2191927,31.595 10.1566927,30.4458333 L10.100026,29.9966667 C9.76669265,27.3716667 9.49335932,24.4725 9.98252599,22.875 C10.3766927,21.5841667 11.1041927,20.6516667 11.8083593,19.7491667 C12.675026,18.6375 13.4233593,17.6783333 13.4908593,16.155 C13.390026,15.8916667 12.2866927,15.415 11.670026,15.55 C11.2333593,15.6458333 9.56085932,16.7525 8.42419265,18.0125 C8.22169265,18.2366667 7.96752599,18.3633333 7.78252599,18.4558333 C7.74335932,18.4766667 7.70335932,18.4941667 7.67002599,18.5141667 C7.48919265,18.7125 7.36335932,18.8283333 7.26335932,18.9191667 C7.22335932,18.9558333 7.19002599,18.9791667 7.15919265,19.0208333 C5.54502599,21.1958333 4.02835932,21.2716667 3.22252599,20.6791667 C2.36585932,20.05 2.07419265,18.5058333 3.45835932,16.605 C3.86085932,16.0516667 4.45752599,15.85 4.89252599,15.705 C4.93252599,15.6908333 4.97835932,15.6766667 5.02335932,15.66 C5.01419265,15.3891667 5.04085932,15.0283333 5.30169265,14.7225 C6.97002599,12.7716667 10.3666927,10.5733333 11.470026,10.3541667 C13.632526,9.92083333 16.6416927,10.4641667 18.8833593,11.3241667 C18.660026,10.3058333 18.5058593,9.46333333 18.9133593,8.09083333 C19.212526,7.08583333 20.0133593,6.1925 21.1108593,5.64 C22.2483593,5.06666667 23.5383593,4.9475 24.5633593,5.32166667 C26.3516927,5.9725 27.3283593,7.59083333 27.2433593,9.76333333 C27.1708593,11.615 26.0066927,13.26 24.2566927,14.0125 L24.0616927,14.2466667 C25.2441927,15.1 26.695026,16.0691667 27.1966927,16.2191667 C27.200026,16.2191667 27.202526,16.2191667 27.2058593,16.2191667 C27.5141927,16.2191667 29.2616927,15.7516667 30.777526,14.5108333 C30.9241927,14.3916667 31.057526,14.3091667 31.1866927,14.2325 C31.2116927,14.2183333 31.2366927,14.2041667 31.2608593,14.1891667 C31.2658593,14.16 31.2691927,14.1291667 31.275026,14.0966667 C31.320026,13.8308333 31.3866927,13.4283333 31.6641927,12.9816667 C32.1358593,12.2225 32.6191927,11.7716667 33.0641927,11.495 L33.0641927,9.16666667 L33.0641927,2.5 L33.0641927,0.833333333 C33.0641927,0.3725 33.4366927,0 33.8966927,0 C34.357526,0 34.7308593,0.3725 34.7308593,0.833333333 L34.7308593,1.66666667 L40.5633593,1.66666667 C41.0241927,1.66666667 41.3966927,2.03916667 41.3966927,2.5 L41.3966927,3.33333333 L47.2291927,3.33333333 C47.545026,3.33333333 47.8333593,3.51166667 47.975026,3.79416667 C48.1158593,4.07666667 48.085026,4.41416667 47.8958593,4.66666667 L45.7708593,7.5 L47.8958593,10.3333333 C48.085026,10.5858333 48.1158593,10.9233333 47.975026,11.2058333 C47.8333593,11.4883333 47.545026,11.6666667 47.2291927,11.6666667 L40.5633593,11.6666667 C40.102526,11.6666667 39.730026,11.2941667 39.730026,10.8333333 L39.730026,10 L34.7308593,10 L34.7308593,11.1591667 C35.365026,11.2941667 35.900026,11.7208333 36.182526,12.3691667 C36.622526,13.3833333 36.3766927,14.6591667 35.5391927,15.7008333 C35.4158593,15.8533333 35.2183593,16.015 34.8491927,16.3083333 C34.812526,16.3383333 34.7708593,16.3708333 34.7308593,16.4033333 L34.7308593,32.155 L45.217526,21.6666667 L42.230026,21.6666667 C41.7691927,21.6666667 41.3966927,21.2941667 41.3966927,20.8333333 C41.3966927,20.3725 41.7691927,20 42.230026,20 L47.2291927,20 C47.2316927,20 47.2333593,20.0008333 47.2358593,20.0016667 C47.3416927,20.0025 47.447526,20.0225 47.547526,20.0641667 C47.7516927,20.1483333 47.9141927,20.3108333 47.9983593,20.515 C48.0383593,20.6125 48.0583593,20.7158333 48.060026,20.8191667 C48.060026,20.8241667 48.062526,20.8283333 48.062526,20.8333333 L48.062526,25.8333333 C48.062526,26.2941667 47.690026,26.6666667 47.2291927,26.6666667 Z M22.430026,44.4566667 L33.0641927,33.8216667 L33.0641927,18.1675 C31.077526,19.8808333 27.570026,22.0158333 26.302526,21.8008333 C24.8808593,21.5566667 22.605026,20.3858333 21.4133593,19.7325 C21.045026,20.3916667 20.4766927,21.3491667 19.8708593,22.1491667 C21.685026,22.7566667 23.5841927,23.9316667 23.585026,25.3875 C23.5883593,28.3441667 20.0858593,32.0216667 18.4366927,33.5891667 C19.1158593,34.1991667 19.5508593,35.015 19.1683593,35.8858333 C19.1508593,35.9275 19.1291927,35.9675 19.1041927,36.005 C18.9341927,36.2675 18.5883593,36.4733333 18.165026,36.6366667 L22.430026,44.4566667 Z M11.392526,39.8583333 C11.640026,39.9816667 11.910026,40.12 12.145026,40.2941667 L15.6208593,37.0358333 C15.2616927,37.0291667 14.9233593,37.0025 14.647526,36.9425 C14.1308593,36.8316667 13.7066927,36.6058333 13.4091927,36.2883333 C12.8208593,37.1058333 12.2033593,37.9258333 11.597526,38.7191667 C11.355026,39.0366667 11.107526,39.36 10.9233593,39.61 C11.075026,39.7008333 11.2658593,39.7958333 11.392526,39.8583333 Z M32.9191927,14.3725 C32.870026,14.6616667 32.7966927,15.0983333 32.3933593,15.4258333 C32.2783593,15.5191667 32.1616927,15.5925 32.037526,15.6658333 C31.9733593,15.7041667 31.9041927,15.7425 31.8316927,15.8008333 C30.0508593,17.26 27.6216927,18.0808333 26.722526,17.8166667 C25.6058593,17.4841667 22.8866927,15.4591667 22.352526,15.0566667 C22.1716927,14.9191667 22.0533593,14.7125 22.027526,14.4866667 C22.0008593,14.2591667 22.0683593,14.0325 22.215026,13.8575 L23.1108593,12.785 C23.2033593,12.675 23.3216927,12.59 23.4558593,12.54 C24.3966927,12.1825 25.5183593,11.2241667 25.5783593,9.69833333 C25.617526,8.69333333 25.3741927,7.39 23.9941927,6.8875 C23.4016927,6.67166667 22.585026,6.76333333 21.8608593,7.12833333 C21.1716927,7.475 20.680026,7.99916667 20.5108593,8.56583333 C20.2066927,9.5875 20.3258593,10.1258333 20.5416927,11.1033333 C20.6366927,11.5375 20.7441927,12.0283333 20.8333593,12.635 C20.880026,12.9491667 20.7433593,13.2625 20.4816927,13.4425 C20.2208593,13.6225 19.880026,13.64 19.602526,13.4833333 C17.6616927,12.3958333 14.0608593,11.5375 11.795026,11.9883333 C11.2241927,12.1083333 8.28335932,13.8883333 6.69169265,15.665 C6.69335932,15.68 6.69419265,15.6958333 6.69585932,15.7108333 C6.71502599,15.9783333 6.74752599,16.4266667 6.39835932,16.7716667 C6.11752599,17.0516667 5.74835932,17.175 5.42335932,17.2841667 C5.17585932,17.3675 4.89502599,17.4616667 4.80502599,17.585 C4.07919265,18.5841667 4.13585932,19.245 4.21752599,19.3425 C4.33585932,19.3741667 4.99169265,19.1458333 5.82169265,18.0275 C5.91919265,17.8958333 6.01169265,17.805 6.14002599,17.6883333 C6.21752599,17.6175 6.31752599,17.5258333 6.46585932,17.3608333 C6.64169265,17.1641667 6.86085932,17.0541667 7.03752599,16.9658333 C7.09752599,16.935 7.16252599,16.9083333 7.21419265,16.87 C8.28502599,15.6791667 10.282526,14.1491667 11.312526,13.9225 C12.257526,13.7141667 13.6283593,14.0808333 14.4291927,14.7541667 C15.060026,15.285 15.1733593,15.8491667 15.1558593,16.2283333 C15.065026,18.2833333 14.0333593,19.6066667 13.122526,20.775 C12.4841927,21.5933333 11.8808593,22.3666667 11.5758593,23.3633333 C11.1258593,24.8341667 11.5816927,28.4325 11.752526,29.7875 C11.7808593,30.0083333 11.802526,30.1866667 11.8166927,30.3091667 C11.935026,32.4475 8.24085932,38.0566667 7.41752599,39.2791667 C7.31502599,39.4875 7.12419265,39.9941667 7.77752599,40.6616667 C8.55835932,41.4583333 9.88585932,41.805 10.305026,41.5958333 C10.4708593,41.515 10.605026,41.4433333 10.712526,41.3816667 C10.690026,41.3708333 10.6691927,41.36 10.6491927,41.35 C10.0316927,41.0425 9.18835932,40.6216667 9.07085932,39.7483333 C9.04835932,39.58 9.07835932,39.4083333 9.15585932,39.2575 C9.28585932,39.0041667 9.59169265,38.5991667 10.2733593,37.7075 C11.785026,35.7275 14.9308593,31.6083333 15.1391927,29.5925 C15.2083593,28.9225 14.870026,25.6108333 14.617526,24.8808333 C14.4666927,24.4458333 14.6983593,23.9716667 15.132526,23.8208333 C15.5666927,23.6716667 16.0416927,23.9016667 16.192526,24.3358333 C16.352526,24.7991667 16.520026,25.8591667 16.6391927,26.9366667 C16.9066927,26.9383333 17.270026,26.9241667 17.7258593,26.8508333 C18.1891927,26.7758333 18.607526,27.0866667 18.6816927,27.54 C18.755026,27.995 18.4466927,28.4225 17.992526,28.4958333 C17.520026,28.5725 17.1158593,28.6 16.785026,28.6033333 C16.8141927,29.11 16.8216927,29.5283333 16.797526,29.7641667 C16.680026,30.8933333 15.995026,32.325 15.045026,33.8616667 C15.025026,33.9391667 14.9941927,34.0133333 14.9508593,34.085 C14.5858593,34.6908333 14.5608593,35.0191667 14.6033593,35.1183333 C14.6291927,35.1791667 14.7616927,35.2625 14.9983593,35.3133333 C15.795026,35.4841667 17.0416927,35.2958333 17.5808593,35.1 C17.4433593,34.9141667 17.095026,34.6125 16.7183593,34.4141667 C16.475026,34.2866667 16.3108593,34.0458333 16.2791927,33.7725 C16.247526,33.5 16.352526,33.2291667 16.560026,33.0483333 C18.0508593,31.7491667 21.9216927,27.8391667 21.9183593,25.3891667 C21.9016927,25.01 20.3983593,23.8175 18.187526,23.4308333 C17.865026,23.375 17.6058593,23.1358333 17.5241927,22.82 C17.4416927,22.5033333 17.5516927,22.1691667 17.8058593,21.9633333 C18.567526,21.345 19.765026,19.3316667 20.3416927,18.2091667 C20.445026,18.005 20.6291927,17.8533333 20.8491927,17.7891667 C21.067526,17.7258333 21.3058593,17.7541667 21.502526,17.8683333 C22.460026,18.4275 25.2416927,19.9283333 26.5841927,20.1583333 C27.2891927,20.1325 30.937526,18.0908333 32.6466927,16.2741667 C32.6666927,16.2508333 32.7116927,16.1683333 32.7416927,16.1141667 C32.817526,15.9758333 32.9108593,15.8041667 33.060026,15.6475 C33.0608593,15.6466667 33.062526,15.645 33.0641927,15.6441667 L33.0641927,13.8983333 C32.9783593,14.0508333 32.9483593,14.1941667 32.9191927,14.3725 Z M41.3966927,10 L45.562526,10 L44.0633593,8 C43.8408593,7.70333333 43.8408593,7.29666667 44.0633593,7 L45.562526,5 L41.3966927,5 L41.3966927,9.16666667 L41.3966927,10 Z M39.730026,8.33333333 L39.730026,4.16666667 L39.730026,3.33333333 L34.7308593,3.33333333 L34.7308593,8.33333333 L39.730026,8.33333333 Z" id="Shape" fill="#FF516B"></path>
                    </g>
                </g>
            </g>
        </g>
    </g>
</svg>