<?xml version="1.0" encoding="UTF-8"?>
<svg width="50px" height="50px" viewBox="0 0 50 50" version="1.1" xmlns="http://www.w3.org/2000/svg" xmlns:xlink="http://www.w3.org/1999/xlink">
    <!-- Generator: Sketch 52.2 (67145) - http://www.bohemiancoding.com/sketch -->
    <title>ic_hr</title>
    <desc>Created with Sketch.</desc>
    <g id="Business-event" stroke="none" stroke-width="1" fill="none" fill-rule="evenodd">
        <g id="Business_eventpage" transform="translate(-491.000000, -928.000000)" fill-rule="nonzero">
            <g id="themes-copy" transform="translate(491.000000, 652.000000)">
                <g id="Group-7-Copy-5" transform="translate(0.000000, 270.000000)">
                    <g id="011_chat_forum_comments_dialog_speech_talk_talking_comunity_communication_team_people_crowd" transform="translate(0.000000, 6.000000)">
                        <rect id="ic_hr" x="0" y="0" width="50" height="50"></rect>
                        <path d="M45.8906351,37.4783333 L45.8906351,44.1666667 C45.8906351,46.6241667 44.6211729,47.5 43.4336115,47.5 L40.15758,47.5 C38.9700186,47.5 37.7013754,46.6241667 37.7013754,44.1666667 L37.7013754,37.4783333 C36.5326511,37.3725 34.4253438,36.4475 34.4253438,33.9691667 L34.4253438,30.0316667 C34.4253438,28.3466667 35.2091344,26.315 38.707936,25.6491667 C38.3074412,25.0091667 38.1051462,24.1658333 38.1051462,23.1266667 C38.1051462,20.9433333 39.7357909,19.1666667 41.7407222,19.1666667 L41.8512883,19.1666667 C43.8562196,19.1666667 45.4868643,20.9433333 45.4868643,23.1266667 C45.4868643,24.1658333 45.2845693,25.0091667 44.8840745,25.6491667 C48.3820571,26.3158333 49.1666667,28.3466667 49.1666667,30.0316667 L49.1666667,33.9691667 C49.1666667,36.4475 47.0593594,37.3725 45.8906351,37.4783333 Z M47.5286509,30.0316667 C47.5286509,29.3216667 47.5286509,27.435 43.3492537,27.1316667 C42.9200936,27.1008333 42.5883954,26.7375 42.5883954,26.3008333 L42.5883954,25.9366667 C42.5883954,25.6283333 42.755473,25.345 43.0232886,25.2 C43.2272215,25.09 43.8488485,24.755 43.8488485,23.1266667 C43.8488485,21.8616667 42.9520349,20.8333333 41.8512883,20.8333333 L41.7407222,20.8333333 C40.6391566,20.8333333 39.743162,21.8616667 39.743162,23.1266667 C39.743162,24.755 40.36397,25.09 40.5679029,25.2 C40.8357185,25.345 41.0027961,25.6283333 41.0027961,25.9366667 L41.0027961,26.3008333 C41.0027961,26.7375 40.6702789,27.1008333 40.2419378,27.1316667 C36.0633596,27.435 36.0633596,29.3216667 36.0633596,30.0316667 L36.0633596,33.9691667 C36.0633596,35.3325 37.2075136,35.7008333 37.7013754,35.7975 L37.7013754,31.6208333 C37.7013754,31.1608333 38.0674719,30.7875 38.5203832,30.7875 C38.9724756,30.7875 39.3393911,31.1608333 39.3393911,31.6208333 L39.3393911,44.1666667 C39.3393911,44.6683333 39.4188349,45.8333333 40.15758,45.8333333 L40.9765879,45.8333333 L40.9765879,36.6666667 C40.9765879,36.2058333 41.3435034,35.8333333 41.7955957,35.8333333 C42.2485071,35.8333333 42.6146036,36.2058333 42.6146036,36.6666667 L42.6146036,45.8333333 L43.4336115,45.8333333 C44.1723566,45.8333333 44.2526194,44.6683333 44.2526194,44.1666667 L44.2526194,31.6208333 C44.2526194,31.1608333 44.6187159,30.7875 45.0716273,30.7875 C45.5245386,30.7875 45.8906351,31.1608333 45.8906351,31.6208333 L45.8906351,35.7975 C46.3836779,35.7008333 47.5286509,35.3325 47.5286509,33.9691667 L47.5286509,30.0316667 Z M38.5203832,17.5 L37.7013754,17.5 L37.7013754,20 C37.7013754,20.3366667 37.5023564,20.6416667 37.1960475,20.77 C37.0944905,20.8133333 36.9880195,20.8333333 36.8823675,20.8333333 C36.6694254,20.8333333 36.4597594,20.7483333 36.3033289,20.5891667 L33.2672667,17.5 L28.6931077,17.5 C27.3384687,17.5 26.2360841,16.3783333 26.2360841,15 L26.2360841,8.33333333 C26.2360841,6.955 27.3384687,5.83333333 28.6931077,5.83333333 L38.5203832,5.83333333 C39.8750223,5.83333333 40.9765879,6.955 40.9765879,8.33333333 L40.9765879,15 C40.9765879,16.3783333 39.8750223,17.5 38.5203832,17.5 Z M39.3393911,8.33333333 C39.3393911,7.87333333 38.9716566,7.5 38.5203832,7.5 L28.6931077,7.5 C28.2410153,7.5 27.8740998,7.87333333 27.8740998,8.33333333 L27.8740998,15 C27.8740998,15.46 28.2410153,15.8333333 28.6931077,15.8333333 L33.606336,15.8333333 C33.8241921,15.8333333 34.0322201,15.9216667 34.1853745,16.0775 L36.0633596,17.9883333 L36.0633596,16.6666667 C36.0633596,16.2058333 36.4294561,15.8333333 36.8823675,15.8333333 L38.5203832,15.8333333 C38.9716566,15.8333333 39.3393911,15.46 39.3393911,15 L39.3393911,8.33333333 Z M36.8823675,12.5 C36.6604163,12.5 36.4556644,12.4158333 36.3008719,12.2583333 C36.1444414,12.1 36.0633596,11.8908333 36.0633596,11.6666667 C36.0633596,11.45 36.1526315,11.2325 36.3008719,11.075 C36.6039048,10.7666667 37.1526401,10.7666667 37.4638631,11.075 C37.6104655,11.2325 37.7013754,11.45 37.7013754,11.6666667 C37.7013754,11.8908333 37.6186556,12.1 37.4638631,12.2583333 C37.3074326,12.4158333 37.1026806,12.5 36.8823675,12.5 Z M33.606336,12.5 C33.4998649,12.5 33.3933939,12.4825 33.295113,12.4416667 C33.196832,12.4 33.1067412,12.3333333 33.0248404,12.2583333 C32.8692289,12.1 32.7873281,11.8908333 32.7873281,11.6666667 C32.7873281,11.45 32.8774189,11.2325 33.0248404,11.075 C33.2533436,10.8416667 33.614526,10.7666667 33.917559,10.9 C33.9666994,10.9166667 34.0158399,10.9416667 34.0649804,10.975 C34.1059308,11 34.1468812,11.0416667 34.1878316,11.075 C34.335253,11.2325 34.4253438,11.4416667 34.4253438,11.6666667 C34.4253438,11.8908333 34.3434431,12.1 34.1878316,12.2583333 C34.0322201,12.4158333 33.8274681,12.5 33.606336,12.5 Z M30.3303044,12.5 C30.1091723,12.5 29.9044203,12.4158333 29.7488088,12.2583333 C29.5931973,12.1 29.5121156,11.8908333 29.5121156,11.6666667 C29.5121156,11.45 29.6013874,11.2325 29.7488088,11.075 C29.9371807,10.8833333 30.2246524,10.7916667 30.494925,10.85 C30.5432465,10.8583333 30.592387,10.875 30.6415274,10.9 C30.6906679,10.9166667 30.7406274,10.9416667 30.7889489,10.975 C30.8298992,11 30.8716686,11.0416667 30.9118,11.075 C31.0592215,11.2325 31.1493123,11.45 31.1493123,11.6666667 C31.1493123,11.8908333 31.0674115,12.1 30.9118,12.2583333 C30.7561885,12.4158333 30.5514366,12.5 30.3303044,12.5 Z M29.1067067,23.1266667 C29.1067067,24.1658333 28.9044117,25.0091667 28.5039169,25.6491667 C32.0035375,26.315 32.7873281,28.3466667 32.7873281,30.0316667 L32.7873281,33.9691667 C32.7873281,36.4475 30.6800208,37.3725 29.5121156,37.4783333 L29.5121156,44.1666667 C29.5121156,46.6241667 28.2426534,47.5 27.0550919,47.5 L23.7782414,47.5 C22.59068,47.5 21.3212178,46.6241667 21.3212178,44.1666667 L21.3212178,37.4783333 C20.1524935,37.3725 18.0460053,36.4475 18.0460053,33.9691667 L18.0460053,30.0316667 C18.0460053,28.3466667 18.8306148,26.3158333 22.3285975,25.6491667 C21.9281026,25.0091667 21.7258077,24.1658333 21.7258077,23.1266667 C21.7258077,20.9433333 23.3564523,19.1666667 25.3613836,19.1666667 L25.4711307,19.1666667 C27.476062,19.1666667 29.1067067,20.9433333 29.1067067,23.1266667 Z M25.4711307,20.8333333 L25.3613836,20.8333333 C24.259818,20.8333333 23.3638234,21.8616667 23.3638234,23.1266667 C23.3638234,24.755 23.9846314,25.09 24.1885644,25.2 C24.4563799,25.345 24.6234575,25.6283333 24.6234575,25.9366667 L24.6234575,26.3008333 C24.6234575,26.7375 24.2917593,27.1008333 23.8634182,27.1316667 C19.684021,27.435 19.684021,29.3216667 19.684021,30.0316667 L19.684021,33.9691667 C19.684021,35.3325 20.828175,35.7008333 21.3212178,35.7975 L21.3212178,31.6208333 C21.3212178,31.1608333 21.6881333,30.7875 22.1402256,30.7875 C22.593137,30.7875 22.9592335,31.1608333 22.9592335,31.6208333 L22.9592335,44.1666667 C22.9592335,44.6683333 23.0394963,45.8333333 23.7782414,45.8333333 L24.5980683,45.8333333 L24.5980683,36.6666667 C24.5980683,36.2058333 24.9641648,35.8333333 25.4170762,35.8333333 C25.8699875,35.8333333 26.2360841,36.2058333 26.2360841,36.6666667 L26.2360841,45.8333333 L27.0550919,45.8333333 C27.793837,45.8333333 27.8740998,44.6683333 27.8740998,44.1666667 L27.8740998,31.6208333 C27.8740998,31.1608333 28.2401963,30.7875 28.6931077,30.7875 C29.1452,30.7875 29.5121156,31.1608333 29.5121156,31.6208333 L29.5121156,35.7975 C30.0051583,35.7008333 31.1493123,35.3325 31.1493123,33.9691667 L31.1493123,30.0316667 C31.1493123,29.3216667 31.1493123,27.435 26.9699151,27.1316667 C26.541574,27.1008333 26.2098758,26.7375 26.2098758,26.3008333 L26.2098758,25.9366667 C26.2098758,25.6283333 26.3769534,25.345 26.644769,25.2 C26.8487019,25.09 27.4695099,24.755 27.4695099,23.1266667 C27.4695099,21.8616667 26.5726963,20.8333333 25.4711307,20.8333333 Z M18.8658321,14.1666667 L14.2908541,14.1666667 L11.2556109,17.2558333 C11.0983614,17.415 10.8886954,17.5 10.6757533,17.5 C10.5709203,17.5 10.4644493,17.48 10.3628923,17.4366667 C10.0565834,17.3075 9.85756447,17.0033333 9.85756447,16.6666667 L9.85756447,14.1666667 L9.03855659,14.1666667 C7.68391756,14.1666667 6.58153295,13.045 6.58153295,11.6666667 L6.58153295,5 C6.58153295,3.62166667 7.68391756,2.5 9.03855659,2.5 L18.8658321,2.5 C20.2204712,2.5 21.3220368,3.62166667 21.3220368,5 L21.3220368,11.6666667 C21.3220368,13.045 20.2204712,14.1666667 18.8658321,14.1666667 Z M19.68484,5 C19.68484,4.54 19.3179245,4.16666667 18.8658321,4.16666667 L9.03855659,4.16666667 C8.58646424,4.16666667 8.21954871,4.54 8.21954871,5 L8.21954871,11.6666667 C8.21954871,12.1266667 8.58646424,12.5 9.03855659,12.5 L10.6757533,12.5 C11.1286647,12.5 11.4955802,12.8725 11.4955802,13.3333333 L11.4955802,14.655 L13.3727463,12.7441667 C13.5267198,12.5875 13.7347478,12.5 13.9517849,12.5 L18.8658321,12.5 C19.3179245,12.5 19.68484,12.1266667 19.68484,11.6666667 L19.68484,5 Z M17.809312,8.925 C17.6528815,9.0825 17.4481295,9.16666667 17.2278164,9.16666667 C17.0058652,9.16666667 16.8011133,9.0825 16.6463208,8.925 C16.5726101,8.84083333 16.5152795,8.75 16.4743291,8.65 C16.4243697,8.55 16.4088085,8.44166667 16.4088085,8.33333333 C16.4088085,8.225 16.4243697,8.11666667 16.4743291,8.01666667 C16.5152795,7.90833333 16.5726101,7.825 16.6463208,7.74166667 C16.9493537,7.43333333 17.5062791,7.43333333 17.809312,7.74166667 C17.8830227,7.825 17.9403532,7.91666667 17.9813036,8.01666667 C18.022254,8.11666667 18.0468243,8.225 18.0468243,8.33333333 C18.0468243,8.44166667 18.022254,8.55 17.9813036,8.65 C17.9403532,8.75 17.8830227,8.84083333 17.809312,8.925 Z M13.9517849,9.16666667 C13.8453138,9.16666667 13.7396618,9.14166667 13.6405619,9.1 C13.5422809,9.05833333 13.4521901,9 13.3702893,8.925 C13.2146778,8.76583333 13.132777,8.5575 13.132777,8.33333333 C13.132777,8.225 13.1581662,8.11666667 13.1982976,8.01666667 C13.239248,7.91666667 13.2965786,7.825 13.3702893,7.74166667 C13.6741412,7.43333333 14.2302475,7.43333333 14.5332805,7.74166667 C14.6069912,7.825 14.6643217,7.91666667 14.7052721,8.01666667 C14.7462225,8.11666667 14.7707927,8.225 14.7707927,8.33333333 C14.7707927,8.5575 14.688892,8.76583333 14.5332805,8.925 C14.377669,9.0825 14.172917,9.16666667 13.9517849,9.16666667 Z M11.2572489,8.925 C11.1016374,9.0825 10.8968855,9.16666667 10.6757533,9.16666667 C10.4546212,9.16666667 10.2498692,9.0825 10.0950768,8.925 C10.021366,8.84083333 9.96321649,8.75 9.9230851,8.65 C9.87312562,8.55 9.85756447,8.44166667 9.85756447,8.33333333 C9.85756447,8.225 9.87312562,8.11666667 9.9230851,8.01666667 C9.96321649,7.90833333 10.021366,7.825 10.0950768,7.74166667 C10.3981097,7.43333333 10.954216,7.43333333 11.2572489,7.74166667 C11.3309596,7.825 11.3891092,7.91666667 11.4292406,8.01666667 C11.470191,8.11666667 11.4955802,8.225 11.4955802,8.33333333 C11.4955802,8.44166667 11.470191,8.55 11.4292406,8.65 C11.3891092,8.75 11.3309596,8.84083333 11.2572489,8.925 Z M9.09261111,19.1666667 C11.0975424,19.1666667 12.7281871,20.9433333 12.7281871,23.1266667 C12.7281871,24.1658333 12.5258921,25.0091667 12.1253973,25.6491667 C15.625018,26.315 16.4088085,28.3466667 16.4088085,30.0316667 L16.4088085,33.9691667 C16.4088085,36.4475 14.3015012,37.3725 13.132777,37.4783333 L13.132777,44.1666667 C13.132777,46.6241667 11.8641338,47.5 10.6757533,47.5 L7.39972182,47.5 C6.2121604,47.5 4.94269819,46.6241667 4.94269819,44.1666667 L4.94269819,37.4783333 C3.77397394,37.3725 1.66666667,36.4475 1.66666667,33.9691667 L1.66666667,30.0316667 C1.66666667,28.3466667 2.45127622,26.3158333 5.95007788,25.6491667 C5.54876402,25.0091667 5.34646907,24.1658333 5.34646907,23.1266667 C5.34646907,20.9433333 6.97711376,19.1666667 8.98204505,19.1666667 L9.09261111,19.1666667 Z M6.98448483,23.1266667 C6.98448483,24.755 7.60611181,25.09 7.81004477,25.2 C8.07786035,25.345 8.24493796,25.6283333 8.24493796,25.9366667 L8.24493796,26.3008333 C8.24493796,26.7375 7.91323977,27.1008333 7.48407964,27.1316667 C3.30468243,27.435 3.30468243,29.3216667 3.30468243,30.0316667 L3.30468243,33.9691667 C3.30468243,35.3325 4.44965544,35.7008333 4.94269819,35.7975 L4.94269819,31.6208333 C4.94269819,31.1608333 5.30879471,30.7875 5.76170607,30.7875 C6.21461742,30.7875 6.58071394,31.1608333 6.58071394,31.6208333 L6.58071394,44.1666667 C6.58071394,44.6683333 6.66097672,45.8333333 7.39972182,45.8333333 L8.21954871,45.8333333 L8.21954871,36.6666667 C8.21954871,36.2058333 8.58564523,35.8333333 9.03855659,35.8333333 C9.49064894,35.8333333 9.85756447,36.2058333 9.85756447,36.6666667 L9.85756447,45.8333333 L10.6757533,45.8333333 C11.4153175,45.8333333 11.4955802,44.6683333 11.4955802,44.1666667 L11.4955802,31.6208333 C11.4955802,31.1608333 11.8616768,30.7875 12.3145881,30.7875 C12.7666805,30.7875 13.132777,31.1608333 13.132777,31.6208333 L13.132777,35.7975 C13.6266387,35.7008333 14.7707927,35.3325 14.7707927,33.9691667 L14.7707927,30.0316667 C14.7707927,29.3216667 14.7707927,27.435 10.5913955,27.1316667 C10.1630544,27.1008333 9.83053721,26.7375 9.83053721,26.3008333 L9.83053721,25.9366667 C9.83053721,25.6283333 9.99843383,25.345 10.2662494,25.2 C10.4701824,25.09 11.0909903,24.755 11.0909903,23.1266667 C11.0909903,21.8616667 10.1941767,20.8333333 9.09261111,20.8333333 L8.98204505,20.8333333 C7.88129846,20.8333333 6.98448483,21.8616667 6.98448483,23.1266667 Z" id="Shape" fill="#FF516B"></path>
                    </g>
                </g>
            </g>
        </g>
    </g>
</svg>