<?xml version="1.0" encoding="UTF-8"?>
<svg width="50px" height="50px" viewBox="0 0 50 50" version="1.1" xmlns="http://www.w3.org/2000/svg" xmlns:xlink="http://www.w3.org/1999/xlink">
    <!-- Generator: Sketch 52.2 (67145) - http://www.bohemiancoding.com/sketch -->
    <title>ic_marketing</title>
    <desc>Created with Sketch.</desc>
    <g id="Business-event" stroke="none" stroke-width="1" fill="none" fill-rule="evenodd">
        <g id="Business_eventpage" transform="translate(-971.000000, -923.000000)" fill-rule="nonzero">
            <g id="themes-copy" transform="translate(491.000000, 652.000000)">
                <g id="Group-7-Copy-4" transform="translate(480.000000, 270.000000)">
                    <g id="017_megaphone_speaker_talk_advertise_loud_promote_2" transform="translate(0.000000, 1.000000)">
                        <rect id="ic_marketing" x="0" y="0" width="50" height="50"></rect>
                        <g id="Group-9" transform="translate(4.000000, 7.000000)" fill="#FF516B">
                            <path d="M39.9007,36.3608125 C38.9221,36.3608125 38.1045,35.6305662 37.8728,34.6488243 C37.8728,34.6488243 20.3231,27.812234 20.3231,27.812234 C20.3231,27.812234 19.2878,30.7801853 19.2878,30.7801853 C18.9805,31.6589049 18.1916,32.2505257 17.3236,32.2505257 C17.3229,32.2505257 17.3236,32.2505257 17.3229,32.2505257 C17.0695,32.2505257 16.8196,32.2005295 16.5809,32.1028099 C16.5809,32.1028099 11.3421,29.962067 11.3421,29.962067 C10.8178,29.7484473 10.4013,29.3249953 10.1703,28.7720079 C9.9393,28.2182631 9.9211,27.6016443 10.1192,27.0335066 C10.1192,27.0335066 11.1013,24.2193312 11.1013,24.2193312 C11.1013,24.2193312 3.9802,21.4453042 3.9802,21.4453042 C3.6386,22.1997911 2.9281,22.7255078 2.1,22.7255078 C0.9422,22.7255078 0,21.70589 0,20.452957 C0,20.452957 0,15.9078555 0,15.9078555 C0,14.6549225 0.9422,13.6353047 2.1,13.6353047 C2.9281,13.6353047 3.6386,14.1610214 3.9802,14.9162658 C3.9802,14.9162658 37.8728,1.71198826 37.8728,1.71198826 C38.1045,0.731003835 38.9221,4.22772928e-13 39.9007,4.22772928e-13 C41.0585,4.22772928e-13 42,1.01961778 42,2.27255078 C42,2.27255078 42,34.0882617 42,34.0882617 C42,35.3419522 41.0585,36.3608125 39.9007,36.3608125 Z M11.4464,28.1485715 C11.5227,28.3326481 11.662,28.4727887 11.8363,28.5447529 C11.8363,28.5447529 17.0758,30.6854957 17.0758,30.6854957 C17.1563,30.7180689 17.2389,30.7354918 17.3236,30.7354918 C17.6127,30.7354918 17.8759,30.5385374 17.9781,30.2446208 C17.9781,30.2446208 19.0057,27.2986375 19.0057,27.2986375 C19.0057,27.2986375 12.4187,24.7329277 12.4187,24.7329277 C12.4187,24.7329277 11.4296,27.5690711 11.4296,27.5690711 C11.3631,27.7584503 11.3694,27.9637374 11.4464,28.1485715 Z M2.1,15.1503385 C1.7143,15.1503385 1.4,15.4897061 1.4,15.9078555 C1.4,15.9078555 1.4,20.452957 1.4,20.452957 C1.4,20.8711064 1.7143,21.210474 2.1,21.210474 C2.4857,21.210474 2.8,20.8711064 2.8,20.452957 C2.8,20.452957 2.8,15.9078555 2.8,15.9078555 C2.8,15.4897061 2.4857,15.1503385 2.1,15.1503385 Z M37.8,3.35049737 C37.8,3.35049737 4.2,16.4403899 4.2,16.4403899 C4.2,16.4403899 4.2,19.9204226 4.2,19.9204226 C4.2,19.9204226 37.8,33.0103151 37.8,33.0103151 C37.8,33.0103151 37.8,3.35049737 37.8,3.35049737 Z M40.6,2.27255078 C40.6,1.85440144 40.2864,1.51503385 39.9007,1.51503385 C39.5143,1.51503385 39.2,1.85440144 39.2,2.27255078 C39.2,2.27255078 39.2,34.0882617 39.2,34.0882617 C39.2,34.5064111 39.5143,34.8457787 39.9007,34.8457787 C40.2864,34.8457787 40.6,34.5064111 40.6,34.0882617 C40.6,34.0882617 40.6,2.27255078 40.6,2.27255078 Z" id="Shape"></path>
                            <path d="M32.4053751,4.8928113 C32.4053751,4.28239131 32.9002183,3.78754814 33.5106383,3.78754814 C34.1210583,3.78754814 34.6159015,4.28239131 34.6159015,4.8928113 L34.6159015,5.99807445 C34.6159015,6.60849444 34.1210583,7.10333761 33.5106383,7.10333761 C32.9002183,7.10333761 32.4053751,6.60849444 32.4053751,5.99807445 L32.4053751,4.8928113 Z M32.4053751,9.31386393 C32.4053751,8.70344394 32.9002183,8.20860077 33.5106383,8.20860077 C34.1210583,8.20860077 34.6159015,8.70344394 34.6159015,9.31386393 L34.6159015,10.4191271 C34.6159015,11.0295471 34.1210583,11.5243902 33.5106383,11.5243902 C32.9002183,11.5243902 32.4053751,11.0295471 32.4053751,10.4191271 L32.4053751,9.31386393 Z M32.4053751,13.7349166 C32.4053751,13.1244966 32.9002183,12.6296534 33.5106383,12.6296534 C34.1210583,12.6296534 34.6159015,13.1244966 34.6159015,13.7349166 L34.6159015,14.8401797 C34.6159015,15.4505997 34.1210583,15.9454429 33.5106383,15.9454429 C32.9002183,15.9454429 32.4053751,15.4505997 32.4053751,14.8401797 L32.4053751,13.7349166 Z M32.4053751,18.1559692 C32.4053751,17.5455492 32.9002183,17.050706 33.5106383,17.050706 C34.1210583,17.050706 34.6159015,17.5455492 34.6159015,18.1559692 L34.6159015,19.2612323 C34.6159015,19.8716523 34.1210583,20.3664955 33.5106383,20.3664955 C32.9002183,20.3664955 32.4053751,19.8716523 32.4053751,19.2612323 L32.4053751,18.1559692 Z M32.4053751,22.5770218 C32.4053751,21.9666018 32.9002183,21.4717587 33.5106383,21.4717587 C34.1210583,21.4717587 34.6159015,21.9666018 34.6159015,22.5770218 L34.6159015,23.682285 C34.6159015,24.292705 34.1210583,24.7875481 33.5106383,24.7875481 C32.9002183,24.7875481 32.4053751,24.292705 32.4053751,23.682285 L32.4053751,22.5770218 Z M32.4053751,26.9980745 C32.4053751,26.3876545 32.9002183,25.8928113 33.5106383,25.8928113 C34.1210583,25.8928113 34.6159015,26.3876545 34.6159015,26.9980745 L34.6159015,28.1033376 C34.6159015,28.7137576 34.1210583,29.2086008 33.5106383,29.2086008 C32.9002183,29.2086008 32.4053751,28.7137576 32.4053751,28.1033376 L32.4053751,26.9980745 Z M32.4053751,31.4191271 C32.4053751,30.8087071 32.9002183,30.3138639 33.5106383,30.3138639 C34.1210583,30.3138639 34.6159015,30.8087071 34.6159015,31.4191271 L34.6159015,32.5243902 C34.6159015,32.6566042 34.5680037,32.8383898 34.4722083,33.0697471 L32.4053751,32.2855032 L32.4053751,31.4191271 Z" id="Line-2"></path>
                        </g>
                    </g>
                </g>
            </g>
        </g>
    </g>
</svg>