<?xml version="1.0" encoding="UTF-8"?>
<svg width="26px" height="26px" viewBox="0 0 26 26" version="1.1" xmlns="http://www.w3.org/2000/svg" xmlns:xlink="http://www.w3.org/1999/xlink">
    <!-- Generator: Sketch 48.1 (47250) - http://www.bohemiancoding.com/sketch -->
    <title>social_in</title>
    <desc>Created with Sketch.</desc>
    <defs>
        <radialGradient cx="26.5626266%" cy="107.702106%" fx="26.5626266%" fy="107.702106%" r="49.9906001%" id="radialGradient-1">
            <stop stop-color="#FFDD55" offset="0%"></stop>
            <stop stop-color="#FFDD55" offset="10%"></stop>
            <stop stop-color="#FF543E" offset="50%"></stop>
            <stop stop-color="#C837AB" offset="100%"></stop>
        </radialGradient>
        <radialGradient cx="-16.7505274%" cy="7.20383154%" fx="-16.7505274%" fy="7.20383154%" r="49.9906001%" id="radialGradient-2">
            <stop stop-color="#3771C8" offset="0%"></stop>
            <stop stop-color="#3771C8" offset="12.8%"></stop>
            <stop stop-color="#6600FF" stop-opacity="0" offset="100%"></stop>
        </radialGradient>
    </defs>
    <g id="Event-1920" stroke="none" stroke-width="1" fill="none" fill-rule="evenodd" transform="translate(-560.000000, -5606.000000)">
        <g id="footer" transform="translate(0.000000, 5569.000000)">
            <g id="Group" transform="translate(400.000000, 37.000000)">
                <g id="social_in" transform="translate(160.000000, 0.000000)">
                    <rect id="Rectangle-3" x="0" y="0" width="26" height="26"></rect>
                    <path d="M13.0039172,1 C7.99402847,1 6.52882706,1.00516967 6.24401907,1.02880244 C5.2159047,1.11428659 4.57614807,1.27620799 3.87917144,1.62331428 C3.34204167,1.89010609 2.91842901,2.19936302 2.50035378,2.63287663 C1.73895849,3.4234666 1.27750679,4.39610275 1.11046128,5.55226211 C1.02924578,6.11354038 1.00561946,6.2280116 1.00082036,9.09496188 C0.998974552,10.050612 1.00082036,11.3083184 1.00082036,12.9952919 C1.00082036,18.0024848 1.00635778,19.4666087 1.03035327,19.7509405 C1.11341457,20.7516405 1.27030815,21.3812323 1.60255337,22.0699059 C2.2375109,23.3881713 3.45020594,24.3777935 4.87886039,24.7470555 C5.3735366,24.8744509 5.9198954,24.9446107 6.62130198,24.9778443 C6.91847687,24.9907684 9.94744578,25 12.9782605,25 C16.0090752,25 19.0398899,24.9963074 19.3296816,24.9815369 C20.1418366,24.9433183 20.6134402,24.8799898 21.1348806,24.7452092 C22.5727641,24.3741009 23.7633095,23.3992492 24.4111876,22.0625207 C24.7369725,21.3904638 24.9021722,20.73687 24.9769274,19.7884206 C24.9931705,19.5816338 25,16.2846779 25,12.9921532 C25,9.69907454 24.9926168,6.40821146 24.9763737,6.20142474 C24.9006956,5.23765088 24.7354959,4.58959604 24.3991899,3.90461501 C24.1232418,3.34389064 23.8168379,2.92514751 23.3719984,2.49698821 C22.5781169,1.73852403 21.6072226,1.27694651 20.4502709,1.11004008 C19.8896994,1.02898707 19.7780281,1.00498504 16.9096443,1 L13.0039172,1 Z" id="Shape" fill="url(#radialGradient-1)" fill-rule="nonzero"></path>
                    <path d="M13.0039172,1 C7.99402847,1 6.52882706,1.00516967 6.24401907,1.02880244 C5.2159047,1.11428659 4.57614807,1.27620799 3.87917144,1.62331428 C3.34204167,1.89010609 2.91842901,2.19936302 2.50035378,2.63287663 C1.73895849,3.4234666 1.27750679,4.39610275 1.11046128,5.55226211 C1.02924578,6.11354038 1.00561946,6.2280116 1.00082036,9.09496188 C0.998974552,10.050612 1.00082036,11.3083184 1.00082036,12.9952919 C1.00082036,18.0024848 1.00635778,19.4666087 1.03035327,19.7509405 C1.11341457,20.7516405 1.27030815,21.3812323 1.60255337,22.0699059 C2.2375109,23.3881713 3.45020594,24.3777935 4.87886039,24.7470555 C5.3735366,24.8744509 5.9198954,24.9446107 6.62130198,24.9778443 C6.91847687,24.9907684 9.94744578,25 12.9782605,25 C16.0090752,25 19.0398899,24.9963074 19.3296816,24.9815369 C20.1418366,24.9433183 20.6134402,24.8799898 21.1348806,24.7452092 C22.5727641,24.3741009 23.7633095,23.3992492 24.4111876,22.0625207 C24.7369725,21.3904638 24.9021722,20.73687 24.9769274,19.7884206 C24.9931705,19.5816338 25,16.2846779 25,12.9921532 C25,9.69907454 24.9926168,6.40821146 24.9763737,6.20142474 C24.9006956,5.23765088 24.7354959,4.58959604 24.3991899,3.90461501 C24.1232418,3.34389064 23.8168379,2.92514751 23.3719984,2.49698821 C22.5781169,1.73852403 21.6072226,1.27694651 20.4502709,1.11004008 C19.8896994,1.02898707 19.7780281,1.00498504 16.9096443,1 L13.0039172,1 Z" id="Shape" fill="url(#radialGradient-2)" fill-rule="nonzero"></path>
                    <path d="M13.0008438,4 C10.5565683,4 10.2498151,4.0106875 9.2898051,4.054375 C8.33167012,4.09825 7.67766331,4.2499375 7.10540735,4.4725 C6.51346368,4.702375 6.01133345,5.009875 5.51107824,5.5103125 C5.01044803,6.0105625 4.70294482,6.5126875 4.47231742,7.1044375 C4.2491901,7.676875 4.09731351,8.3310625 4.05418806,9.2888125 C4.01125012,10.2488125 4,10.55575 4,13 C4,15.44425 4.01087511,15.7500625 4.05437557,16.7100625 C4.09843853,17.6681875 4.25012761,18.3221875 4.47250492,18.8944375 C4.70256982,19.486375 5.01007302,19.9885 5.51051573,20.48875 C6.01058344,20.989375 6.51271367,21.297625 7.10428234,21.5275 C7.6769133,21.7500625 8.33110762,21.90175 9.28905509,21.945625 C10.2490651,21.9893125 10.5556308,22 12.9997187,22 C15.4441817,22 15.7499974,21.9893125 16.7100074,21.945625 C17.6681424,21.90175 18.3228992,21.7500625 18.8955302,21.5275 C19.4872863,21.297625 19.9886665,20.989375 20.4887343,20.48875 C20.9893645,19.9885 21.2968677,19.486375 21.5274951,18.894625 C21.7487474,18.3221875 21.900624,17.668 21.9456244,16.71025 C21.9887499,15.75025 22,15.44425 22,13 C22,10.55575 21.9887499,10.249 21.9456244,9.289 C21.900624,8.330875 21.7487474,7.676875 21.5274951,7.104625 C21.2968677,6.5126875 20.9893645,6.0105625 20.4887343,5.5103125 C19.988104,5.0096875 19.4874738,4.7021875 18.8949677,4.4725 C18.3212117,4.2499375 17.6668299,4.09825 16.7086949,4.054375 C15.7486849,4.0106875 15.4430567,4 12.9980312,4 L13.0008438,4 Z M12.1934603,5.621875 C12.4330878,5.6215 12.7004656,5.621875 13.0008438,5.621875 C15.4038688,5.621875 15.6886843,5.6305 16.6376316,5.673625 C17.5151408,5.71375 17.9913957,5.860375 18.308649,5.9835625 C18.7286534,6.1466875 19.028094,6.3416875 19.3429098,6.6566875 C19.6579131,6.9716875 19.8529151,7.2716875 20.0164168,7.6916875 C20.1396056,8.0085625 20.2864197,8.4848125 20.3263576,9.3623125 C20.369483,10.3110625 20.3788581,10.5960625 20.3788581,12.9979375 C20.3788581,15.3998125 20.369483,15.6848125 20.3263576,16.6335625 C20.2862321,17.5110625 20.1396056,17.9873125 20.0164168,18.3041875 C19.8532901,18.7241875 19.6579131,19.02325 19.3429098,19.3380625 C19.0279065,19.6530625 18.7288409,19.8480625 18.308649,20.0111875 C17.9917707,20.1349375 17.5151408,20.2811875 16.6376316,20.3213125 C15.6888718,20.3644375 15.4038688,20.3738125 13.0008438,20.3738125 C10.5976312,20.3738125 10.3128158,20.3644375 9.36405588,20.3213125 C8.48654673,20.2808125 8.01029177,20.1341875 7.69285097,20.011 C7.27284659,19.847875 6.97284347,19.652875 6.65784019,19.337875 C6.3428369,19.022875 6.14783487,18.723625 5.98433317,18.3034375 C5.86114439,17.9865625 5.71433036,17.5103125 5.67439244,16.6328125 C5.63126699,15.6840625 5.6226419,15.3990625 5.6226419,12.9956875 C5.6226419,10.5923125 5.63126699,10.3088125 5.67439244,9.3600625 C5.71451786,8.4825625 5.86114439,8.0063125 5.98433317,7.6890625 C6.14745987,7.2690625 6.3428369,6.9690625 6.65784019,6.6540625 C6.97284347,6.3390625 7.27284659,6.1440625 7.69285097,5.9805625 C8.01010427,5.8568125 8.48654673,5.7105625 9.36405588,5.67025 C10.1943145,5.63275 10.5160679,5.6215 12.1934603,5.619625 L12.1934603,5.621875 Z M17.8050188,7.11625 C17.2087626,7.11625 16.7250076,7.5994375 16.7250076,8.195875 C16.7250076,8.792125 17.2087626,9.275875 17.8050188,9.275875 C18.401275,9.275875 18.8850301,8.792125 18.8850301,8.195875 C18.8850301,7.599625 18.401275,7.115875 17.8050188,7.115875 L17.8050188,7.11625 Z M13.0008438,8.378125 C10.4483797,8.378125 8.37892061,10.4475625 8.37892061,13 C8.37892061,15.5524375 10.4483797,17.6209375 13.0008438,17.6209375 C15.5533078,17.6209375 17.6220169,15.5524375 17.6220169,13 C17.6220169,10.4475625 15.5531203,8.378125 13.0006563,8.378125 L13.0008438,8.378125 Z M13.0008438,10 C14.657611,10 16.000875,11.3430625 16.000875,13 C16.000875,14.65675 14.657611,16 13.0008438,16 C11.343889,16 10.0008125,14.65675 10.0008125,13 C10.0008125,11.3430625 11.343889,10 13.0008438,10 Z" id="Shape" fill="#FFFFFF" fill-rule="nonzero"></path>
                </g>
            </g>
        </g>
    </g>
</svg>