<?xml version="1.0" encoding="UTF-8"?>
<svg width="81px" height="27px" viewBox="0 0 81 27" version="1.1" xmlns="http://www.w3.org/2000/svg" xmlns:xlink="http://www.w3.org/1999/xlink">
    <!-- Generator: Sketch 45.1 (43504) - http://www.bohemiancoding.com/sketch -->
    <title>login_google</title>
    <desc>Created with Sketch.</desc>
    <defs></defs>
    <g id="Large" stroke="none" stroke-width="1" fill="none" fill-rule="evenodd">
        <g id="popup_signin" transform="translate(-409.000000, -138.000000)" fill-rule="nonzero" fill="#FFFFFF">
            <path d="M443.663218,152.208765 C443.663218,156.093285 440.662216,158.955723 436.979306,158.955723 C433.296395,158.955723 430.295394,156.093285 430.295394,152.208765 C430.295394,148.296868 433.296395,145.461807 436.979306,145.461807 C440.662216,145.461807 443.663218,148.296868 443.663218,152.208765 Z M440.737316,152.208765 C440.737316,149.78132 438.997997,148.120437 436.979306,148.120437 C434.960614,148.120437 433.221295,149.78132 433.221295,152.208765 C433.221295,154.611875 434.960614,156.297093 436.979306,156.297093 C438.997997,156.297093 440.737316,154.608833 440.737316,152.208765 Z M458.082443,152.208765 C458.082443,156.093285 455.081442,158.955723 451.398531,158.955723 C447.715621,158.955723 444.714619,156.093285 444.714619,152.208765 C444.714619,148.29991 447.715621,145.461807 451.398531,145.461807 C455.081442,145.461807 458.082443,148.296868 458.082443,152.208765 Z M455.156542,152.208765 C455.156542,149.78132 453.417223,148.120437 451.398531,148.120437 C449.37984,148.120437 447.640521,149.78132 447.640521,152.208765 C447.640521,154.611875 449.37984,156.297093 451.398531,156.297093 C453.417223,156.297093 455.156542,154.608833 455.156542,152.208765 Z M471.900868,145.869423 L471.900868,157.982312 C471.900868,162.964962 468.998999,165 465.568425,165 C462.339119,165 460.395527,162.812866 459.66255,161.024223 L462.209947,159.950428 C462.663551,161.048558 463.775033,162.344412 465.565421,162.344412 C467.761348,162.344412 469.122163,160.97251 469.122163,158.389928 L469.122163,157.419558 L469.020027,157.419558 C468.365154,158.237832 467.103471,158.952681 465.511348,158.952681 C462.179907,158.952681 459.127837,156.014196 459.127837,152.2331 C459.127837,148.424628 462.179907,145.461807 465.511348,145.461807 C467.100467,145.461807 468.36215,146.176656 469.020027,146.970595 L469.122163,146.970595 L469.122163,145.872465 L471.900868,145.872465 L471.900868,145.869423 Z M469.329439,152.2331 C469.329439,149.857368 467.764352,148.120437 465.772697,148.120437 C463.754005,148.120437 462.06275,149.857368 462.06275,152.2331 C462.06275,154.584498 463.754005,156.297093 465.772697,156.297093 C467.764352,156.297093 469.329439,154.584498 469.329439,152.2331 Z M476.481976,138.769603 L476.481976,158.542023 L473.628171,158.542023 L473.628171,138.769603 L476.481976,138.769603 Z M487.602804,154.42936 L489.873832,155.962483 C489.140854,157.060613 487.374499,158.952681 484.32243,158.952681 C480.537383,158.952681 477.710614,155.98986 477.710614,152.205723 C477.710614,148.193443 480.561415,145.458765 483.994993,145.458765 C487.452603,145.458765 489.143858,148.245155 489.696595,149.750901 L490,150.517463 L481.093124,154.252929 C481.775033,155.60658 482.835447,156.297093 484.32243,156.297093 C485.812417,156.297093 486.845794,155.554867 487.602804,154.42936 Z M480.612483,152.001915 L486.566422,149.498423 C486.238985,148.655813 485.253672,148.068725 484.094126,148.068725 C482.607143,148.068725 480.537383,149.39804 480.612483,152.001915 L480.612483,152.001915 Z M419.492991,150.453583 L419.492991,147.591145 L429.018692,147.591145 C429.111816,148.090018 429.15988,148.680149 429.15988,149.31895 C429.15988,151.466539 428.580107,154.122127 426.711615,156.014196 C424.894192,157.930599 422.572096,158.952681 419.495995,158.952681 C413.794393,158.952681 409,154.249887 409,148.476341 C409,142.702794 413.794393,138 419.495995,138 C422.6502,138 424.897196,139.253267 426.585447,140.886773 L424.590788,142.906602 C423.380174,141.75676 421.739987,140.862438 419.492991,140.862438 C415.329439,140.862438 412.073097,144.260252 412.073097,148.476341 C412.073097,152.692429 415.329439,156.090243 419.492991,156.090243 C422.193591,156.090243 423.731642,154.992114 424.716956,153.994367 C425.516021,153.185219 426.041722,152.029292 426.248999,150.450541 L419.492991,150.453583 L419.492991,150.453583 Z" id="login_google"></path>
        </g>
    </g>
</svg>