<?xml version="1.0" encoding="UTF-8"?>
<svg width="100px" height="20px" viewBox="0 0 100 20" version="1.1" xmlns="http://www.w3.org/2000/svg" xmlns:xlink="http://www.w3.org/1999/xlink">
    <!-- Generator: Sketch 45.1 (43504) - http://www.bohemiancoding.com/sketch -->
    <title>login_fb</title>
    <desc>Created with Sketch.</desc>
    <defs></defs>
    <g id="Large" stroke="none" stroke-width="1" fill="none" fill-rule="evenodd">
        <g id="popup_signin" transform="translate(-116.000000, -138.000000)" fill="#FFFFFF">
            <path d="M123.823669,141.134894 C122.646587,141.134894 122.305464,141.675615 122.305464,142.864581 L122.305464,144.83745 L125.445964,144.83745 L125.132075,148.027656 L122.305464,148.027656 L122.305464,157.704368 L118.537418,157.704368 L118.537418,148.027656 L116,148.027656 L116,144.83745 L118.537418,144.83745 L118.537418,142.918224 C118.537418,139.702747 119.793895,138 123.300213,138 C124.059316,138 124.948358,138.053643 125.497894,138.134465 L125.497894,141.134894 M129.475506,151.730212 C129.475506,153.649437 130.156367,154.918749 131.908834,154.918749 C133.453119,154.918749 134.238071,153.756962 134.238071,151.919989 L134.238071,150.621829 C134.238071,148.783426 133.453119,147.6214 131.908834,147.6214 C130.156367,147.6214 129.475506,148.89238 129.475506,150.811606 L129.475506,151.730212 Z M125.707461,150.865487 C125.707461,147.270456 127.355836,144.567089 130.809994,144.567089 C132.694017,144.567089 133.844787,145.567709 134.394322,146.810319 L134.394322,144.83745 L138.006116,144.83745 L138.006116,157.702699 L134.394322,157.702699 L134.394322,155.758201 C133.870867,157.001049 132.694017,157.973298 130.809994,157.973298 C127.355836,157.973298 125.707461,155.271362 125.707461,151.67633 L125.707461,150.865487 Z M145.85425,144.567089 C147.318678,144.567089 148.706941,144.891093 149.464428,145.431814 L148.627315,148.188823 C148.051699,147.89176 147.110496,147.594459 146.115746,147.594459 C144.074318,147.594459 143.185044,148.810128 143.185044,150.89219 L143.185044,151.647959 C143.185044,153.730021 144.074318,154.945689 146.115746,154.945689 C147.110496,154.945689 148.051699,154.648388 148.627315,154.351326 L149.464428,157.108335 C148.706941,157.649056 147.318678,157.973298 145.85425,157.973298 C141.432808,157.973298 139.417229,155.513351 139.417229,151.567376 L139.417229,150.972773 C139.417229,147.027036 141.432808,144.567089 145.85425,144.567089 M153.729848,150.081347 L158.282846,150.081347 L158.282846,149.757343 C158.282846,148.351659 157.73331,147.243515 156.084935,147.243515 C154.383244,147.243515 153.729848,148.351659 153.729848,150.081347 M149.961803,151.757152 L149.961803,150.622068 C149.961803,146.973393 151.975766,144.567089 156.084935,144.567089 C159.957071,144.567089 161.657377,147.000095 161.657377,150.568186 L161.657377,152.621877 L153.729848,152.621877 C153.807859,154.379935 154.566961,155.162407 156.66055,155.162407 C158.073048,155.162407 159.565172,154.865106 160.664012,154.379935 L161.343489,157.054692 C160.350355,157.595413 158.308695,158 156.502914,158 C151.741734,158 149.961803,155.541722 149.961803,151.757152 M171.862212,150.783235 C171.862212,148.971533 171.181351,147.6214 169.376955,147.6214 C167.83267,147.6214 166.995557,148.756485 166.995557,150.593458 L166.995557,151.94526 C166.995557,153.783664 167.83267,154.918749 169.376955,154.918749 C171.181351,154.918749 171.862212,153.567185 171.862212,151.755484 L171.862212,150.783235 Z M175.630258,151.6749 C175.630258,155.269693 173.956033,157.973298 170.501644,157.973298 C168.617852,157.973298 167.309215,156.99938 166.78576,155.756771 L166.78576,157.702699 L163.227511,157.702699 L163.227511,138.376216 L166.995557,138.025272 L166.995557,146.620542 C167.544862,145.485695 168.747793,144.567089 170.501644,144.567089 C173.956033,144.567089 175.630258,147.268787 175.630258,150.863818 L175.630258,151.6749 Z M185.51982,150.67571 C185.51982,148.972964 184.838728,147.6214 183.086492,147.6214 C181.332641,147.6214 180.653165,148.972964 180.653165,150.67571 L180.653165,151.864438 C180.653165,153.567185 181.332641,154.918749 183.086492,154.918749 C184.838728,154.918749 185.51982,153.567185 185.51982,151.864438 L185.51982,150.67571 Z M176.885119,151.594316 L176.885119,150.946071 C176.885119,147.243515 178.925163,144.567089 183.086492,144.567089 C187.246206,144.567089 189.287635,147.243515 189.287635,150.946071 L189.287635,151.594316 C189.287635,155.298302 187.246206,157.973298 183.086492,157.973298 C178.925163,157.973298 176.885119,155.298302 176.885119,151.594316 L176.885119,151.594316 Z M199.177428,150.67571 C199.177428,148.972964 198.496336,147.6214 196.7441,147.6214 C194.990249,147.6214 194.310542,148.972964 194.310542,150.67571 L194.310542,151.864438 C194.310542,153.567185 194.990249,154.918749 196.7441,154.918749 C198.496336,154.918749 199.177428,153.567185 199.177428,151.864438 L199.177428,150.67571 Z M190.542727,151.594316 L190.542727,150.946071 C190.542727,147.243515 192.582771,144.567089 196.7441,144.567089 C200.903814,144.567089 202.945243,147.243515 202.945243,150.946071 L202.945243,151.594316 C202.945243,155.298302 200.903814,157.973298 196.7441,157.973298 C192.582771,157.973298 190.542727,155.298302 190.542727,151.594316 L190.542727,151.594316 Z M208.124401,150.972773 L211.840286,144.83745 L215.843748,144.83745 L211.944377,151.189491 L216,157.702699 L211.997923,157.702699 L208.124401,151.406208 L208.124401,157.702699 L204.356356,157.702699 L204.356356,138.377885 L208.124401,138.025272" id="login_fb"></path>
        </g>
    </g>
</svg>