<?xml version="1.0" encoding="UTF-8"?>
<svg width="50px" height="50px" viewBox="0 0 50 50" version="1.1" xmlns="http://www.w3.org/2000/svg" xmlns:xlink="http://www.w3.org/1999/xlink">
    <!-- Generator: Sketch 52.2 (67145) - http://www.bohemiancoding.com/sketch -->
    <title>ic_facas</title>
    <desc>Created with Sketch.</desc>
    <g id="Business-event" stroke="none" stroke-width="1" fill="none" fill-rule="evenodd">
        <g id="Business_eventpage" transform="translate(-491.000000, -1147.000000)" fill-rule="nonzero">
            <g id="themes-copy" transform="translate(491.000000, 652.000000)">
                <g id="Group-7-Copy-7" transform="translate(0.000000, 495.000000)">
                    <g id="024_delete_close_hide_circle_button">
                        <rect id="ic_facas" x="0" y="0" width="50" height="50"></rect>
                        <g id="Group-20" transform="translate(2.000000, 2.000000)" fill="#FF516B">
                            <path d="M23.1448295,46.2878788 C10.3836174,46.2878788 0.00178030303,35.9051515 0.00178030303,23.1439394 C0.00178030303,10.3827273 10.3836174,0 23.1448295,0 C35.9069318,0 46.2887689,10.3827273 46.2887689,23.1439394 C46.2887689,35.9051515 35.9069318,46.2878788 23.1448295,46.2878788 Z M23.1448295,1.78030303 C11.3654545,1.78030303 1.78208333,11.3645644 1.78208333,23.1439394 C1.78208333,34.9233144 11.3654545,44.5075758 23.1448295,44.5075758 C34.9250947,44.5075758 44.5084659,34.9233144 44.5084659,23.1439394 C44.5084659,11.3645644 34.9250947,1.78030303 23.1448295,1.78030303 Z M31.7855303,31.7846402 C31.6119508,31.9582197 31.384072,32.0454545 31.1561932,32.0454545 C30.9283144,32.0454545 30.7013258,31.9582197 30.5268561,31.7846402 C30.5268561,31.7846402 23.1457197,24.4026136 23.1457197,24.4026136 C23.1457197,24.4026136 15.7636932,31.7846402 15.7636932,31.7846402 C15.5892235,31.9582197 15.3622348,32.0454545 15.1343561,32.0454545 C14.9064773,32.0454545 14.6785985,31.9582197 14.5050189,31.7846402 C14.1569697,31.4365909 14.1569697,30.8740152 14.5050189,30.5259659 C14.5050189,30.5259659 21.8870455,23.1439394 21.8870455,23.1439394 C21.8870455,23.1439394 14.5050189,15.7619129 14.5050189,15.7619129 C14.1569697,15.4138636 14.1569697,14.8512879 14.5050189,14.5032386 C14.852178,14.1551894 15.4156439,14.1551894 15.7636932,14.5032386 C15.7636932,14.5032386 23.1457197,21.8852652 23.1457197,21.8852652 C23.1457197,21.8852652 30.5268561,14.5032386 30.5268561,14.5032386 C30.8749053,14.1551894 31.4383712,14.1551894 31.7855303,14.5032386 C32.1335795,14.8512879 32.1335795,15.4138636 31.7855303,15.7619129 C31.7855303,15.7619129 24.4043939,23.1439394 24.4043939,23.1439394 C24.4043939,23.1439394 31.7855303,30.5259659 31.7855303,30.5259659 C32.1335795,30.8740152 32.1335795,31.4365909 31.7855303,31.7846402 Z" id="Shape"></path>
                            <path d="M23.1439394,42.905303 C22.5539989,42.905303 22.0757576,42.4270617 22.0757576,41.8371212 C22.0757576,41.2471807 22.5539989,40.7689394 23.1439394,40.7689394 C23.4809817,40.7689394 23.8168359,40.7594912 24.1512542,40.7406665 C24.7402623,40.7075106 25.2446259,41.1581178 25.2777817,41.7471259 C25.3109376,42.336134 24.8603304,42.8404975 24.2713223,42.8736534 C23.8969268,42.8947285 23.5210342,42.905303 23.1439394,42.905303 Z M28.7315751,42.1039718 C28.1656286,42.2705084 27.5718338,41.9467228 27.4052971,41.3807764 C27.2387605,40.8148299 27.5625461,40.2210351 28.1284925,40.0544984 C28.4506734,39.9596928 28.7697843,39.8557001 29.0855025,39.7426744 C29.6409241,39.5438361 30.2523726,39.8329039 30.451211,40.3883255 C30.6500493,40.9437471 30.3609815,41.5551956 29.8055599,41.7540339 C29.4512561,41.8808731 29.093138,41.9975775 28.7315751,42.1039718 Z M33.8639157,39.7476113 C33.3685828,40.0680409 32.7072766,39.9262538 32.386847,39.430921 C32.0664173,38.9355881 32.2082044,38.2742819 32.7035373,37.9538522 C32.9854066,37.7715117 33.2620403,37.5811487 33.5330965,37.3830218 C34.0093696,37.0348929 34.6776795,37.1387743 35.0258084,37.6150474 C35.3739374,38.0913205 35.270056,38.7596304 34.7937829,39.1077593 C34.4899706,39.329829 34.1798881,39.5432095 33.8639157,39.7476113 Z M38.1676997,35.9818505 C37.7842547,36.4301805 37.1099679,36.4827801 36.6616379,36.0993352 C36.2133079,35.7158902 36.1607082,35.0416033 36.5441532,34.5932734 C36.7624562,34.3380301 36.9734579,34.0766387 37.1768745,33.8094332 C37.5342166,33.340033 38.2044236,33.249192 38.6738237,33.6065341 C39.1432238,33.9638762 39.2340648,34.6340831 38.8767228,35.1034832 C38.6487654,35.4029252 38.4123189,35.6958378 38.1676997,35.9818505 Z M41.1579895,31.2794946 C40.9148732,31.8170114 40.282045,32.0556702 39.7445283,31.8125539 C39.2070115,31.5694376 38.9683527,30.9366094 39.211469,30.3990926 C39.3497294,30.0934065 39.4792262,29.783719 39.5997764,29.4703659 C39.8115981,28.919765 40.4296638,28.6451302 40.9802647,28.8569519 C41.5308656,29.0687737 41.8055004,29.6868394 41.5936787,30.2374403 C41.4584117,30.5890478 41.3131126,30.9365259 41.1579895,31.2794946 Z M42.7285586,25.7974308 C42.6500487,26.3821239 42.1124164,26.7924664 41.5277233,26.7139565 C40.9430302,26.6354466 40.5326876,26.0978143 40.6111975,25.5131212 C40.6557924,25.1810066 40.6910023,24.8469695 40.7167374,24.511281 C40.7618321,23.9230665 41.2752306,23.4827809 41.8634451,23.5278755 C42.4516596,23.5729702 42.8919452,24.0863687 42.8468506,24.6745832 C42.8180132,25.0507374 42.7785499,25.4251265 42.7285586,25.7974308 Z M42.6757528,20.1233524 C42.7652322,20.7064676 42.3650614,21.2517132 41.7819463,21.3411926 C41.1988312,21.430672 40.6535855,21.0305012 40.5641061,20.447386 C40.5130685,20.1147865 40.452591,19.7843299 40.3827846,19.4563089 C40.2599888,18.8792898 40.6282096,18.3119777 41.2052287,18.189182 C41.7822478,18.0663862 42.3495598,18.434607 42.4723556,19.0116261 C42.5506683,19.3796187 42.6185089,19.750308 42.6757528,20.1233524 Z M41.0041787,14.676569 C41.2572474,15.2094724 41.0303966,15.8466287 40.4974932,16.0996974 C39.9645898,16.3527662 39.3274335,16.1259154 39.0743648,15.593012 C38.9304175,15.2898928 38.7778208,14.991009 38.6167856,14.696703 C38.3336077,14.1791703 38.5235898,13.5300661 39.0411225,13.2468882 C39.5586552,12.9637103 40.2077594,13.1536924 40.4909373,13.6712251 C40.6715491,14.0013091 40.8427091,14.3365518 41.0041787,14.676569 Z M37.8861116,9.98387978 C38.2791222,10.4238485 38.2410551,11.0991117 37.8010863,11.4921223 C37.3611175,11.8851329 36.6858544,11.8470657 36.2928438,11.407097 C36.0691076,11.1566281 35.8382853,10.9125465 35.600683,10.6751719 C35.1833322,10.2582209 35.1830081,9.58188564 35.5999591,9.16453485 C36.0169101,8.74718405 36.6932454,8.74685995 37.1105962,9.16381095 C37.3768096,9.42976933 37.6354282,9.70324385 37.8861116,9.98387978 Z M33.6048794,6.3755348 C34.1051262,6.68823735 34.257161,7.34726308 33.9444584,7.84750996 C33.6317558,8.34775683 32.9727301,8.49979154 32.4724832,8.18708898 C32.1877892,8.00912773 31.8980675,7.83933125 31.6036628,7.67793223 C31.0863595,7.39433542 30.896903,6.74507762 31.1804998,6.22777435 C31.4640966,5.71047107 32.1133544,5.52101456 32.6306577,5.80461137 C32.9608024,5.98560382 33.2856713,6.17599896 33.6048794,6.3755348 Z M28.3963226,4.08848333 C28.965139,4.24493719 29.2994248,4.83288484 29.1429709,5.40170117 C28.9865171,5.9705175 28.3985694,6.30480333 27.8297531,6.14834947 C27.5065521,6.05945251 27.1805071,5.97977258 26.8519249,5.90943857 C26.2750521,5.78595723 25.9075057,5.21820805 26.0309871,4.64133529 C26.1544684,4.06446253 26.7222176,3.69691615 27.2990904,3.82039749 C27.6677754,3.89931563 28.0336377,3.98872626 28.3963226,4.08848333 Z M22.7287238,3.38685596 C23.3185388,3.37468599 23.806544,3.8429598 23.818714,4.43277478 C23.8308839,5.02258977 23.3626101,5.510595 22.7727951,5.52276497 C22.4359251,5.52971579 22.1003649,5.54612906 21.7663685,5.57192853 C21.1781802,5.617363 20.6645274,5.17737405 20.6190929,4.5891857 C20.5736584,4.00099735 21.0136474,3.48734456 21.6018357,3.44191009 C21.9759133,3.41301456 22.3516433,3.39463646 22.7287238,3.38685596 Z M17.1528961,4.30734406 C17.7151297,4.12867339 18.3157513,4.43961259 18.494422,5.00184618 C18.6730926,5.56407978 18.3621534,6.16470136 17.7999198,6.34337203 C17.4798115,6.44509838 17.1629306,6.55595919 16.8496042,6.67579276 C16.2985881,6.88653217 15.6810633,6.61068343 15.4703239,6.05966734 C15.2595845,5.50865126 15.5354332,4.89112642 16.0864493,4.680387 C16.4380559,4.54591293 16.7936625,4.42150392 17.1528961,4.30734406 Z M12.0736498,6.77219607 C12.5620693,6.44132422 13.2262362,6.56904187 13.5571081,7.05746141 C13.8879799,7.54588095 13.7602623,8.21004784 13.2718427,8.54091969 C12.993821,8.729261 12.7211988,8.92551164 12.4543167,9.12940566 C11.9855299,9.48755189 11.3151682,9.39785996 10.9570219,8.92907311 C10.5988757,8.46028627 10.6885676,7.78992456 11.1573545,7.43177833 C11.4564625,7.20326422 11.7620204,6.98330432 12.0736498,6.77219607 Z M7.84667772,10.6328445 C8.22041468,10.1763902 8.89341765,10.1093346 9.34987194,10.4830716 C9.80632622,10.8568085 9.87338186,11.5298115 9.4996449,11.9862658 C9.28689258,12.2461055 9.08157571,12.5119345 8.8839713,12.783416 C8.5367974,13.2603858 7.868697,13.3656061 7.39172728,13.0184322 C6.91475756,12.6712583 6.80953726,12.0031579 7.15671116,11.5261881 C7.37817181,11.2219313 7.60826372,10.9240255 7.84667772,10.6328445 Z M4.96059372,15.3936162 C5.19214726,14.851018 5.81972122,14.5988665 6.3623194,14.8304201 C6.90491758,15.0619736 7.1570691,15.6895476 6.92551556,16.2321457 C6.79384988,16.5406772 6.67102577,16.8530476 6.55721849,17.168924 C6.35725137,17.7239402 5.74521647,18.0117643 5.19020027,17.8117972 C4.63518407,17.6118301 4.34735992,16.9997952 4.54732704,16.444779 C4.67503586,16.0903184 4.81285785,15.7398049 4.96059372,15.3936162 Z M3.50753694,20.9100618 C3.57353291,20.3238243 4.10227258,19.9020853 4.68851003,19.9680813 C5.27474749,20.0340772 5.69648655,20.5628169 5.63049057,21.1490544 C5.59300783,21.4820108 5.56491524,21.8167518 5.5462974,22.1530125 C5.51368394,22.7420508 5.00973557,23.1931223 4.42069721,23.1605089 C3.83165885,23.1278954 3.38058734,22.6239471 3.4132008,22.0349087 C3.4340554,21.6582496 3.46553114,21.2831962 3.50753694,20.9100618 Z M3.67991234,26.5770498 C3.57808523,25.9959637 3.9666014,25.4423531 4.54768751,25.340526 C5.12877362,25.2386989 5.68238417,25.6272151 5.78421129,26.2083012 C5.84221756,26.5393195 5.90961999,26.8680573 5.98630142,27.1942175 C6.12131736,27.7685001 5.76522135,28.3435002 5.19093873,28.4785161 C4.61665612,28.6135321 4.04165603,28.2574361 3.9066401,27.6831534 C3.82060355,27.3172019 3.74498366,26.9483854 3.67991234,26.5770498 Z M5.47019718,31.9933263 C5.20567909,31.4660123 5.41871722,30.8241056 5.94603118,30.5595875 C6.47334513,30.2950694 7.11525183,30.5081075 7.37976993,31.0354215 C7.5303206,31.3355426 7.68943805,31.6312587 7.85690297,31.9222259 C8.15118097,32.4335284 7.97524782,33.0865805 7.46394528,33.3808585 C6.95264275,33.6751365 6.29959069,33.4992034 6.00531269,32.9879008 C5.81751036,32.6615978 5.639056,32.3299445 5.47019718,31.9933263 Z M8.68636696,36.6158713 C8.2840986,36.1843508 8.3078122,35.5084313 8.73933276,35.1061629 C9.17085332,34.7038946 9.84677278,34.7276082 10.2490411,35.1591287 C10.4779946,35.4047312 10.7138885,35.6437985 10.9564117,35.8760159 C11.3825177,36.2840152 11.3971962,36.9601912 10.9891969,37.3862973 C10.5811976,37.8124034 9.90502157,37.8270818 9.47891548,37.4190825 C9.20718914,37.1589028 8.94289102,36.8910493 8.68636696,36.6158713 Z M13.0406051,40.1306451 C12.5338413,39.8286181 12.3678694,39.1729637 12.6698964,38.6661999 C12.9719234,38.1594361 13.6275779,37.9934642 14.1343416,38.2954912 C14.4227423,38.4673756 14.7160087,38.6309869 15.0137965,38.7861001 C15.537012,39.0586352 15.7402286,39.7037185 15.4676935,40.226934 C15.1951584,40.7501495 14.5500751,40.9533661 14.0268596,40.680831 C13.6928844,40.5068683 13.3640045,40.3233885 13.0406051,40.1306451 Z M18.2996024,42.3069229 C17.7275532,42.1627374 17.3807011,41.5821144 17.5248866,41.0100651 C17.6690721,40.4380159 18.2496951,40.0911638 18.8217444,40.2353493 C19.1467982,40.3172794 19.4745443,40.3899492 19.8046808,40.4532364 C20.3840713,40.5643058 20.7637207,41.1240341 20.6526513,41.7034247 C20.541582,42.2828153 19.9818536,42.6624646 19.4024631,42.5513953 C19.0320767,42.4803921 18.6643399,42.3988553 18.2996024,42.3069229 Z" id="Oval"></path>
                        </g>
                    </g>
                </g>
            </g>
        </g>
    </g>
</svg>