<?xml version="1.0" encoding="UTF-8"?>
<svg width="50px" height="50px" viewBox="0 0 50 50" version="1.1" xmlns="http://www.w3.org/2000/svg" xmlns:xlink="http://www.w3.org/1999/xlink">
    <!-- Generator: Sketch 52.2 (67145) - http://www.bohemiancoding.com/sketch -->
    <title>ic_finman</title>
    <desc>Created with Sketch.</desc>
    <g id="Business-event" stroke="none" stroke-width="1" fill="none" fill-rule="evenodd">
        <g id="Business_eventpage" transform="translate(-971.000000, -1147.000000)" fill-rule="nonzero">
            <g id="themes-copy" transform="translate(491.000000, 652.000000)">
                <g id="Group-7-Copy-6" transform="translate(480.000000, 495.000000)">
                    <g id="014_money_cash_flow_cycle_consumption_transfer_finance_business">
                        <rect id="ic_finman" x="0" y="0" width="50" height="50"></rect>
                        <path d="M25.1666667,48.6666667 C18.323131,48.6666667 12.0041488,45.7812024 7.54166667,40.7001667 L7.54166667,44.5281488 C7.54166667,44.9922738 7.16566667,45.3674345 6.70238095,45.3674345 C6.23909524,45.3674345 5.86309524,44.9922738 5.86309524,44.5281488 L5.86309524,38.5952381 C5.86309524,38.1311131 6.23909524,37.7559524 6.70238095,37.7559524 L12.577381,37.7559524 C13.0406667,37.7559524 13.4166667,38.1311131 13.4166667,38.5952381 C13.4166667,39.0593631 13.0406667,39.4345238 12.577381,39.4345238 L8.66127381,39.4345238 C12.812381,44.2511845 18.7419345,46.9880952 25.1666667,46.9880952 C37.1986667,46.9880952 46.9880952,37.199506 46.9880952,25.1666667 C46.9880952,21.5031845 46.0632024,17.8791488 44.3124524,14.6898631 C44.0892024,14.2828095 44.2385952,13.7725238 44.6448095,13.5492738 C45.0493452,13.3277024 45.5613095,13.4745774 45.7845595,13.881631 C47.6695952,17.318506 48.6666667,21.2211845 48.6666667,25.1666667 C48.6666667,38.1243988 38.1252381,48.6666667 25.1666667,48.6666667 Z M41.1130952,15.9345238 C41.576381,15.9345238 41.952381,16.3096845 41.952381,16.7738095 L41.952381,33.5595238 C41.952381,34.0236488 41.576381,34.3988095 41.1130952,34.3988095 L9.2202381,34.3988095 C8.75695238,34.3988095 8.38095238,34.0236488 8.38095238,33.5595238 L8.38095238,16.7738095 C8.38095238,16.3096845 8.75695238,15.9345238 9.2202381,15.9345238 L41.1130952,15.9345238 Z M10.0595238,32.7202381 L40.2738095,32.7202381 L40.2738095,17.6130952 L10.0595238,17.6130952 L10.0595238,32.7202381 Z M38.5952381,30.202381 C38.1327917,30.202381 37.7559524,30.578381 37.7559524,31.0416667 C37.7559524,31.5057917 37.3799524,31.8809524 36.9166667,31.8809524 L13.4166667,31.8809524 C12.953381,31.8809524 12.577381,31.5057917 12.577381,31.0416667 C12.577381,30.578381 12.2005417,30.202381 11.7380952,30.202381 C11.2748095,30.202381 10.8988095,29.8272202 10.8988095,29.3630952 L10.8988095,20.9702381 C10.8988095,20.5061131 11.2748095,20.1309524 11.7380952,20.1309524 C12.2005417,20.1309524 12.577381,19.7549524 12.577381,19.2916667 C12.577381,18.8275417 12.953381,18.452381 13.4166667,18.452381 L36.9166667,18.452381 C37.3799524,18.452381 37.7559524,18.8275417 37.7559524,19.2916667 C37.7559524,19.7549524 38.1327917,20.1309524 38.5952381,20.1309524 C39.0585238,20.1309524 39.4345238,20.5061131 39.4345238,20.9702381 L39.4345238,29.3630952 C39.4345238,29.8272202 39.0585238,30.202381 38.5952381,30.202381 Z M25.4797202,27.8851131 C25.484756,27.7608988 25.484756,27.6282917 25.4839167,27.4906488 C25.4839167,27.1079345 25.6526131,26.7957202 25.7877381,26.5456131 C25.8515238,26.4272738 25.9480417,26.2501845 25.9513988,26.1788452 C25.9572738,26.060506 25.9874881,25.9463631 26.0403631,25.8414524 C26.1175774,25.6878631 26.1553452,25.567006 26.1712917,25.4923095 C26.0848452,25.3252917 26.0563095,25.1330952 26.0932381,24.944256 L26.1964702,24.374381 C26.2904702,23.8783631 26.1125417,23.7768095 25.8708274,23.6945595 C25.819631,23.6786131 25.737381,23.6593095 25.6358274,23.6349702 C25.379006,23.5728631 25.1188274,23.5057202 24.8712381,23.4268274 C24.7873095,23.5409702 24.6698095,23.6425238 24.5053095,23.7138631 C24.1058095,23.8842381 24.0680417,24.0076131 24.1368631,24.374381 L24.2400952,24.944256 C24.2770238,25.1330952 24.2484881,25.3252917 24.1620417,25.4923095 C24.1779881,25.567006 24.215756,25.6878631 24.2929702,25.8414524 C24.3458452,25.9463631 24.3768988,26.0613452 24.3819345,26.1796845 C24.3852917,26.2434702 24.4767738,26.4104881 24.5372024,26.5212738 C24.6765238,26.7755774 24.8494167,27.0911488 24.8494167,27.4856131 C24.8485774,27.6282917 24.8477381,27.7608988 24.8536131,27.8859524 C24.8787917,28.4331667 24.4834881,28.915756 23.933756,29.0080774 C23.6257381,29.0601131 23.2799524,29.2027917 22.9568274,29.3790417 C23.152381,29.5376667 23.3571667,29.6803452 23.5737024,29.7953274 C23.5921667,29.8053988 23.6114702,29.8129524 23.6307738,29.8221845 C23.8254881,29.9212202 24.0294345,29.9959167 24.2384167,30.0563452 C24.303881,30.0756488 24.368506,30.0957917 24.4348095,30.1108988 C24.6731667,30.1646131 24.9157202,30.202381 25.1666667,30.202381 C25.4285238,30.202381 25.6828274,30.1654524 25.931256,30.1067024 C25.9690238,30.0974702 26.0059524,30.0865595 26.0437202,30.0764881 C26.5170774,29.9463988 26.9585417,29.7113988 27.3546845,29.3941488 C27.0072202,29.191881 26.677381,29.0550774 26.3987381,29.0080774 C25.8498452,28.915756 25.4545417,28.4331667 25.4797202,27.8851131 Z M14.1124345,20.1309524 C13.8589702,20.8460238 13.2916131,21.4125417 12.577381,21.666006 L12.577381,28.6673274 C13.2916131,28.9207917 13.8589702,29.4873095 14.1124345,30.202381 L21.3537917,30.202381 C21.219506,30.0588631 21.0919345,29.908631 20.9735952,29.7508452 C20.9635238,29.7365774 20.9618452,29.7197917 20.9526131,29.7055238 C20.0100952,28.510381 19.4318274,26.9174167 19.4318274,25.1666667 C19.4318274,23.1607738 20.1905417,21.3621845 21.3856845,20.1309524 L14.1124345,20.1309524 Z M25.1666667,20.1309524 C22.9299702,20.1309524 21.1103988,22.3894702 21.1103988,25.1666667 C21.1103988,26.2501845 21.3932381,27.2480952 21.8640774,28.0705952 C22.2190952,27.852381 22.6639167,27.623256 23.1515417,27.4730238 C23.1297202,27.4453274 23.0927917,27.3781845 23.0650952,27.3278274 C22.9433988,27.1054167 22.7839345,26.8141845 22.7260238,26.454131 C22.5984524,26.172131 22.4725595,25.7978095 22.4725595,25.4150952 C22.4725595,25.2463988 22.4985774,25.1003631 22.5397024,24.9753095 L22.4876667,24.6865952 C22.2971488,23.6744167 22.6211131,22.8871667 23.4268274,22.3852738 C23.4494881,22.0856488 23.5275417,21.6450238 23.9992202,21.4528274 C24.2996845,21.331131 24.6849167,21.407506 24.9241131,21.6290774 C25.0953274,21.7767917 25.7994881,21.9471667 26.031131,22.0033988 C26.1989881,22.0436845 26.3341131,22.0789345 26.4113274,22.1049524 C27.541006,22.4868274 28.0781488,23.4528452 27.8456667,24.6865952 L27.793631,24.9753095 C27.834756,25.1003631 27.8599345,25.2463988 27.8599345,25.4150952 C27.8599345,25.7978095 27.734881,26.172131 27.6073095,26.4549702 C27.5485595,26.8175417 27.3874167,27.1163274 27.264881,27.3429345 C27.2397024,27.3899345 27.2128452,27.435256 27.1901845,27.4797381 C27.646756,27.6266131 28.0714345,27.8557381 28.4499524,28.0999702 C28.9317024,27.2724345 29.2229345,26.2636131 29.2229345,25.1666667 C29.2229345,22.3894702 27.4033631,20.1309524 25.1666667,20.1309524 Z M37.7559524,21.666006 C37.0417202,21.4125417 36.4743631,20.8460238 36.2208988,20.1309524 L28.9476488,20.1309524 C30.1427917,21.3621845 30.901506,23.1607738 30.901506,25.1666667 C30.901506,26.9350417 30.3106488,28.5405952 29.3521845,29.7399345 C29.3429524,29.7550417 29.3404345,29.7726667 29.3295238,29.7869345 C29.221256,29.9329702 29.1029167,30.0697738 28.9812202,30.202381 L36.2208988,30.202381 C36.4743631,29.4873095 37.0417202,28.9207917 37.7559524,28.6673274 L37.7559524,21.666006 Z M34.3988095,26.8452381 C33.4730774,26.8452381 32.7202381,26.0915595 32.7202381,25.1666667 C32.7202381,24.2409345 33.4730774,23.4880952 34.3988095,23.4880952 C35.3245417,23.4880952 36.077381,24.2409345 36.077381,25.1666667 C36.077381,26.0915595 35.3245417,26.8452381 34.3988095,26.8452381 Z M15.9345238,26.8452381 C15.0087917,26.8452381 14.2559524,26.0915595 14.2559524,25.1666667 C14.2559524,24.2409345 15.0087917,23.4880952 15.9345238,23.4880952 C16.860256,23.4880952 17.6130952,24.2409345 17.6130952,25.1666667 C17.6130952,26.0915595 16.860256,26.8452381 15.9345238,26.8452381 Z M42.7916667,11.796006 L36.9166667,11.796006 C36.453381,11.796006 36.077381,11.4208452 36.077381,10.9567202 C36.077381,10.4934345 36.453381,10.1174345 36.9166667,10.1174345 L40.959506,10.1174345 C36.8478452,5.79847024 31.177631,3.3452381 25.1666667,3.3452381 C13.1346667,3.3452381 3.3452381,13.1338274 3.3452381,25.1666667 C3.3452381,28.6077381 4.12241667,31.8985774 5.65579167,34.949381 C5.86393452,35.3639881 5.69691667,35.8683988 5.28314881,36.0765417 C5.16229167,36.1369702 5.03304167,36.165506 4.90630952,36.165506 C4.59913095,36.165506 4.30370238,35.9968095 4.1559881,35.7038988 C2.50427381,32.417256 1.66666667,28.8712738 1.66666667,25.1666667 C1.66666667,12.2080952 12.2080952,1.66666667 25.1666667,1.66666667 C31.5334881,1.66666667 37.5427738,4.22313095 41.952381,8.73177381 L41.952381,5.02380952 C41.952381,4.55968452 42.328381,4.18452381 42.7916667,4.18452381 C43.2549524,4.18452381 43.6309524,4.55968452 43.6309524,5.02380952 L43.6309524,10.9567202 C43.6309524,11.4208452 43.2549524,11.796006 42.7916667,11.796006 Z" id="Shape" fill="#FF516B"></path>
                    </g>
                </g>
            </g>
        </g>
    </g>
</svg>