<?xml version="1.0" encoding="UTF-8"?>
<svg width="50px" height="50px" viewBox="0 0 50 50" version="1.1" xmlns="http://www.w3.org/2000/svg" xmlns:xlink="http://www.w3.org/1999/xlink">
    <!-- Generator: Sketch 52.2 (67145) - http://www.bohemiancoding.com/sketch -->
    <title>ic_sales</title>
    <desc>Created with Sketch.</desc>
    <g id="Business-event" stroke="none" stroke-width="1" fill="none" fill-rule="evenodd">
        <g id="Business_eventpage" transform="translate(-971.000000, -711.000000)" fill-rule="nonzero">
            <g id="themes-copy" transform="translate(491.000000, 652.000000)">
                <g id="Group-8" transform="translate(480.000000, 59.000000)">
                    <g id="014_money_budget_finance_sponsor_ad_advertisement_funding">
                        <rect id="ic_sales" x="0" y="0" width="50" height="50"></rect>
                        <path d="M47.827381,26.0059524 L44.4702381,26.0059524 C44.0061131,26.0059524 43.6309524,25.6307917 43.6309524,25.1666667 C43.6309524,24.7025417 44.0061131,24.327381 44.4702381,24.327381 L47.827381,24.327381 C48.291506,24.327381 48.6666667,24.7025417 48.6666667,25.1666667 C48.6666667,25.6307917 48.291506,26.0059524 47.827381,26.0059524 Z M45.6511131,20.5463988 L44.0296131,20.9811488 C43.9565952,21.0004524 43.8835774,21.0096845 43.8113988,21.0096845 C43.4404345,21.0096845 43.1013631,20.7629345 43.0014881,20.3877738 C42.8823095,19.9404345 43.1475238,19.4796667 43.5948631,19.3596488 L45.2163631,18.9248988 C45.6637024,18.8065595 46.1244702,19.0700952 46.2436488,19.5191131 C46.3636667,19.9664524 46.0984524,20.426381 45.6511131,20.5463988 Z M45.2113274,14.563131 L42.3032024,16.2417024 C42.1714345,16.3180774 42.0270774,16.3541667 41.8843988,16.3541667 C41.594006,16.3541667 41.312006,16.2030952 41.1567381,15.9345238 C40.924256,15.5333452 41.0627381,15.0197024 41.4639167,14.7880595 L44.3720417,13.1094881 C44.7715417,12.8761667 45.2860238,13.0146488 45.518506,13.4166667 C45.7509881,13.8186845 45.612506,14.3314881 45.2113274,14.563131 Z M39.4093452,12.1107381 C39.2448452,12.2743988 39.0308274,12.3558095 38.8159702,12.3558095 C38.6011131,12.3558095 38.386256,12.2743988 38.2225952,12.1107381 C37.8944345,11.7825774 37.8944345,11.2504702 38.2225952,10.9231488 L39.4101845,9.73639881 C39.7383452,9.40907738 40.2687738,9.40907738 40.5969345,9.73639881 C40.924256,10.0645595 40.924256,10.5966667 40.5969345,10.9231488 L39.4093452,12.1107381 Z M35.5452738,8.86857738 C35.390006,9.1379881 35.108006,9.28822024 34.8176131,9.28822024 C34.6749345,9.28822024 34.5305774,9.25213095 34.3988095,9.17575595 C33.997631,8.9441131 33.8599881,8.43130952 34.091631,8.02929167 L35.7702024,5.12200595 C36.0018452,4.7199881 36.5163274,4.58234524 36.9166667,4.81482738 C37.3186845,5.04647024 37.4563274,5.5601131 37.2238452,5.96129167 L35.5452738,8.86857738 Z M30.9728452,6.73847024 C30.8729702,7.11279167 30.5338988,7.36038095 30.1629345,7.36038095 C30.090756,7.36038095 30.0177381,7.35114881 29.9455595,7.33184524 C29.497381,7.21182738 29.2321667,6.75189881 29.3521845,6.30372024 L29.7860952,4.68222024 C29.9061131,4.23488095 30.366881,3.96966667 30.8142202,4.08884524 C31.2615595,4.20802381 31.5267738,4.66879167 31.4075952,5.11613095 L30.9728452,6.73847024 Z M25.1666667,6.70238095 C24.7025417,6.70238095 24.327381,6.32722024 24.327381,5.86309524 L24.327381,2.50595238 C24.327381,2.04182738 24.7025417,1.66666667 25.1666667,1.66666667 C25.6307917,1.66666667 26.0059524,2.04182738 26.0059524,2.50595238 L26.0059524,5.86309524 C26.0059524,6.32722024 25.6307917,6.70238095 25.1666667,6.70238095 Z M20.3877738,7.33184524 C20.314756,7.35114881 20.2417381,7.36038095 20.1695595,7.36038095 C19.7994345,7.36038095 19.4595238,7.11279167 19.3596488,6.73847024 L18.9257381,5.11613095 C18.8057202,4.66879167 19.0709345,4.20802381 19.5191131,4.08884524 C19.968131,3.96882738 20.4272202,4.23488095 20.5463988,4.68222024 L20.9811488,6.30372024 C21.1011667,6.75189881 20.8351131,7.21182738 20.3877738,7.33184524 Z M15.9345238,9.17575595 C15.802756,9.25213095 15.6583988,9.28822024 15.5157202,9.28822024 C15.2261667,9.28822024 14.9433274,9.1379881 14.7880595,8.86857738 L13.1094881,5.96129167 C12.8778452,5.5601131 13.0154881,5.04647024 13.4166667,4.81482738 C13.817006,4.58234524 14.3306488,4.7199881 14.563131,5.12200595 L16.2417024,8.02929167 C16.4741845,8.43130952 16.3365417,8.9441131 15.9345238,9.17575595 Z M11.5165238,12.3558095 C11.302506,12.3558095 11.0876488,12.2743988 10.9231488,12.1107381 L9.73639881,10.9231488 C9.40907738,10.5958274 9.40907738,10.0645595 9.73639881,9.73639881 C10.0645595,9.40907738 10.5958274,9.40907738 10.9231488,9.73639881 L12.1107381,10.9231488 C12.4380595,11.2513095 12.4380595,11.7825774 12.1107381,12.1107381 C11.9462381,12.2743988 11.731381,12.3558095 11.5165238,12.3558095 Z M8.44809524,16.3541667 C8.30541667,16.3541667 8.16189881,16.3180774 8.02929167,16.2417024 L5.12200595,14.563131 C4.72082738,14.3314881 4.58318452,13.8186845 4.81482738,13.4166667 C5.04647024,13.0138095 5.56095238,12.8761667 5.96129167,13.1094881 L8.86857738,14.7880595 C9.27059524,15.0197024 9.4082381,15.5333452 9.17575595,15.9345238 C9.0204881,16.2039345 8.7384881,16.3541667 8.44809524,16.3541667 Z M5.11697024,18.9248988 L6.73763095,19.3596488 C7.18497024,19.4796667 7.45102381,19.9404345 7.33100595,20.3877738 C7.23113095,20.7629345 6.89205952,21.0096845 6.52109524,21.0096845 C6.44975595,21.0096845 6.3767381,21.0004524 6.30372024,20.9811488 L4.68222024,20.5463988 C4.23488095,20.426381 3.96882738,19.9664524 4.08884524,19.5191131 C4.2088631,19.0700952 4.66879167,18.8065595 5.11697024,18.9248988 Z M6.70238095,25.1666667 C6.70238095,25.6307917 6.32722024,26.0059524 5.86309524,26.0059524 L2.50595238,26.0059524 C2.04182738,26.0059524 1.66666667,25.6307917 1.66666667,25.1666667 C1.66666667,24.7025417 2.04182738,24.327381 2.50595238,24.327381 L5.86309524,24.327381 C6.32722024,24.327381 6.70238095,24.7025417 6.70238095,25.1666667 Z M4.68222024,29.7869345 L6.30372024,29.3521845 C6.75105952,29.2321667 7.21182738,29.497381 7.33100595,29.9455595 C7.45102381,30.3937381 7.18497024,30.8536667 6.73763095,30.9736845 L5.11697024,31.4084345 C5.04395238,31.4277381 4.97093452,31.4369702 4.89875595,31.4369702 C4.52863095,31.4369702 4.18872024,31.1902202 4.08884524,30.8142202 C3.96882738,30.366881 4.23488095,29.9069524 4.68222024,29.7869345 Z M5.12200595,35.7702024 L8.02929167,34.091631 C8.42963095,33.8591488 8.94327381,33.9959524 9.17575595,34.3988095 C9.4082381,34.7999881 9.27059524,35.313631 8.86857738,35.5452738 L5.96129167,37.2238452 C5.82952381,37.3002202 5.68516667,37.3363095 5.5424881,37.3363095 C5.25293452,37.3363095 4.97093452,37.1860774 4.81482738,36.9166667 C4.58318452,36.5146488 4.72082738,36.0018452 5.12200595,35.7702024 Z M10.9231488,38.2234345 C11.2513095,37.8952738 11.7825774,37.8952738 12.1107381,38.2234345 C12.4380595,38.550756 12.4380595,39.0820238 12.1107381,39.4101845 L10.9231488,40.5969345 C10.7594881,40.7605952 10.544631,40.8428452 10.3306131,40.8428452 C10.115756,40.8428452 9.90089881,40.7605952 9.73639881,40.5969345 C9.40907738,40.2687738 9.40907738,39.737506 9.73639881,39.4101845 L10.9231488,38.2234345 Z M14.7880595,41.464756 C15.0197024,41.0627381 15.5341845,40.9250952 15.9345238,41.1575774 C16.3365417,41.3892202 16.4741845,41.9020238 16.2417024,42.3040417 L14.563131,45.2113274 C14.4078631,45.4807381 14.1258631,45.6309702 13.8354702,45.6309702 C13.6927917,45.6309702 13.5484345,45.594881 13.4166667,45.518506 C13.0154881,45.2868631 12.8778452,44.7732202 13.1094881,44.3720417 L14.7880595,41.464756 Z M19.3596488,43.5948631 C19.4796667,43.1475238 19.9412738,42.8823095 20.3877738,43.0014881 C20.8351131,43.121506 21.1011667,43.5822738 20.9811488,44.0296131 L20.5463988,45.6511131 C20.4465238,46.0262738 20.1074524,46.2730238 19.7373274,46.2730238 C19.6651488,46.2730238 19.592131,46.264631 19.5191131,46.2444881 C19.0709345,46.1253095 18.8057202,45.6645417 18.9257381,45.2172024 L19.3596488,43.5948631 Z M25.1666667,43.6309524 C25.6307917,43.6309524 26.0059524,44.0061131 26.0059524,44.4702381 L26.0059524,47.827381 C26.0059524,48.291506 25.6307917,48.6666667 25.1666667,48.6666667 C24.7025417,48.6666667 24.327381,48.291506 24.327381,47.827381 L24.327381,44.4702381 C24.327381,44.0061131 24.7025417,43.6309524 25.1666667,43.6309524 Z M29.9455595,43.0014881 C30.3945774,42.8823095 30.8536667,43.1475238 30.9728452,43.5948631 L31.4075952,45.2172024 C31.5267738,45.6645417 31.2615595,46.1253095 30.8142202,46.2444881 C30.7412024,46.264631 30.6681845,46.2730238 30.596006,46.2730238 C30.2250417,46.2730238 29.8859702,46.0262738 29.7860952,45.6511131 L29.3521845,44.0296131 C29.2321667,43.5822738 29.497381,43.121506 29.9455595,43.0014881 Z M34.3988095,41.1575774 C34.7991488,40.9250952 35.313631,41.0627381 35.5452738,41.464756 L37.2238452,44.3720417 C37.4563274,44.7732202 37.3186845,45.2868631 36.9166667,45.518506 C36.7848988,45.594881 36.6405417,45.6309702 36.4978631,45.6309702 C36.2074702,45.6309702 35.9254702,45.4807381 35.7702024,45.2113274 L34.091631,42.3040417 C33.8599881,41.9020238 33.997631,41.3892202 34.3988095,41.1575774 Z M39.4093452,38.2234345 L40.5969345,39.4101845 C40.924256,39.7366667 40.924256,40.2687738 40.5969345,40.5969345 C40.4332738,40.7605952 40.2184167,40.8428452 40.0035595,40.8428452 C39.7887024,40.8428452 39.5738452,40.7605952 39.4101845,40.5969345 L38.2225952,39.4101845 C37.8944345,39.0828631 37.8944345,38.550756 38.2225952,38.2234345 C38.5499167,37.8952738 39.0811845,37.8952738 39.4093452,38.2234345 Z M25.1658274,41.9532202 C15.9101845,41.9532202 8.3801131,34.4231488 8.3801131,25.167506 C8.3801131,15.9118631 15.9101845,8.38179167 25.1658274,8.38179167 C34.4214702,8.38179167 41.9515417,15.9118631 41.9515417,25.167506 C41.9515417,34.4231488 34.4214702,41.9532202 25.1658274,41.9532202 Z M25.1658274,10.0603631 C16.8359167,10.0603631 10.0586845,16.8375952 10.0586845,25.167506 C10.0586845,33.4974167 16.8359167,40.2746488 25.1658274,40.2746488 C33.4957381,40.2746488 40.2729702,33.4974167 40.2729702,25.167506 C40.2729702,16.8375952 33.4957381,10.0603631 25.1658274,10.0603631 Z M35.3472024,31.0416667 C35.5822024,30.6379702 36.0941667,30.496131 36.4970238,30.731131 C36.8914881,30.966131 37.0341667,31.4780952 36.7991667,31.8809524 C36.6480952,32.1486845 36.3627381,32.3005952 36.0689881,32.3005952 C35.9254702,32.3005952 35.783631,32.258631 35.6493452,32.182256 C35.254881,31.9564881 35.1122024,31.436131 35.3472024,31.0416667 Z M36.5222024,28.204881 C36.6397024,27.7600595 37.1013095,27.4906488 37.546131,27.6089881 C37.9909524,27.734881 38.2595238,28.1880952 38.1420238,28.6413095 C38.0413095,29.0189881 37.6972024,29.262381 37.3279167,29.262381 C37.252381,29.262381 37.1843988,29.2539881 37.1097024,29.2372024 C36.664881,29.1113095 36.3963095,28.6488631 36.5222024,28.204881 Z M36.9166667,25.1666667 C36.9166667,25.1582738 36.9166667,25.149881 36.9166667,25.1414881 C36.9166667,25.1330952 36.9166667,25.1247024 36.9166667,25.1154702 C36.9082738,24.6547024 37.2859524,24.2770238 37.7475595,24.2770238 C38.2091667,24.2770238 38.5868452,24.6463095 38.5952381,25.1154702 C38.5952381,25.1247024 38.5952381,25.1330952 38.5952381,25.1414881 C38.5952381,25.149881 38.5952381,25.1582738 38.5952381,25.1666667 C38.5952381,25.6282738 38.2175595,26.0059524 37.7559524,26.0059524 C37.2943452,26.0059524 36.9166667,25.6282738 36.9166667,25.1666667 Z M37.5377381,22.6655952 C37.4622024,22.6907738 37.3866667,22.6991667 37.311131,22.6991667 C36.9418452,22.6991667 36.606131,22.4549345 36.5054167,22.077256 C36.3795238,21.6332738 36.6480952,21.1716667 37.0929167,21.0541667 C37.5377381,20.9282738 38.0077381,21.1968452 38.1252381,21.6416667 C38.251131,22.0864881 37.9825595,22.5480952 37.5377381,22.6655952 Z M36.4718452,19.5518452 C36.3375595,19.6265417 36.1864881,19.6693452 36.0438095,19.6693452 C35.7584524,19.6693452 35.4814881,19.5174345 35.3220238,19.2497024 C35.0870238,18.8543988 35.2213095,18.3340417 35.6241667,18.1082738 C36.0270238,17.8724345 36.5389881,18.0075595 36.7739881,18.4011845 C37.0005952,18.804881 36.8663095,19.3252381 36.4718452,19.5518452 Z M34.0714881,34.902381 C33.8532738,34.902381 33.6434524,34.8184524 33.4755952,34.6589881 C33.1482738,34.3316667 33.1482738,33.7945238 33.4755952,33.4672024 C33.8029167,33.139881 34.3400595,33.139881 34.6665417,33.4672024 C34.9947024,33.7945238 34.9947024,34.3316667 34.6665417,34.6589881 C34.4995238,34.8184524 34.2897024,34.902381 34.0714881,34.902381 Z M34.0370774,17.0675595 C33.8197024,17.0675595 33.609881,16.9920238 33.4420238,16.8317202 L33.4420238,16.8241667 C33.1147024,16.4968452 33.1147024,15.9680952 33.4420238,15.6399345 C33.7693452,15.3134524 34.2980952,15.3134524 34.6254167,15.6399345 C34.9527381,15.9680952 34.961131,16.4968452 34.6338095,16.8241667 C34.4659524,16.9920238 34.2468988,17.0675595 34.0370774,17.0675595 Z M33.492381,24.8477381 C33.5343452,24.9484524 33.5595238,25.0575595 33.5595238,25.1666667 C33.5595238,25.3932738 33.4755952,25.6030952 33.316131,25.7625595 C33.1566667,25.9211845 32.9468452,26.0059524 32.7202381,26.0059524 C32.493631,26.0059524 32.2838095,25.9211845 32.1243452,25.7625595 C31.964881,25.6030952 31.8809524,25.3932738 31.8809524,25.1666667 C31.8809524,25.0575595 31.9069702,24.9484524 31.9480952,24.8477381 C31.9900595,24.7470238 32.0488095,24.6547024 32.1243452,24.5707738 C32.2082738,24.4952381 32.2922024,24.4364881 32.4013095,24.3945238 C32.7034524,24.2602381 33.081131,24.3357738 33.316131,24.5707738 C33.3916667,24.6547024 33.4504167,24.738631 33.492381,24.8477381 Z M31.4193452,15.0784524 C31.2850595,15.0784524 31.1339881,15.0440417 31.0080952,14.9693452 C30.6052381,14.733506 30.4625595,14.222381 30.6975595,13.8195238 C30.9241667,13.4166667 31.436131,13.282381 31.8389881,13.5081488 C32.2418452,13.7439881 32.3845238,14.2559524 32.1495238,14.6579702 C31.9984524,14.927381 31.7130952,15.0784524 31.4193452,15.0784524 Z M28.6497024,38.1420238 C28.5825595,38.1579702 28.5070238,38.1672024 28.4390417,38.1672024 C28.0622024,38.1672024 27.7264881,37.9238095 27.6257738,37.546131 C27.499881,37.0929167 27.7684524,36.6313095 28.2216667,36.5138095 C28.6664881,36.3963095 29.1280952,36.664881 29.2455952,37.1097024 C29.3630952,37.5545238 29.1029167,38.016131 28.6497024,38.1420238 Z M28.3895238,13.8279167 C28.3139881,13.8279167 28.2468452,13.8195238 28.1713095,13.8027381 C27.7264881,13.6843988 27.4579167,13.2227917 27.5754167,12.7788095 C27.6929167,12.3339881 28.1545238,12.0654167 28.5993452,12.1829167 C29.0441667,12.3004167 29.3127381,12.7620238 29.1952381,13.2068452 C29.0945238,13.5845238 28.7588095,13.8279167 28.3895238,13.8279167 Z M27.6845238,23.2329524 C27.2203988,23.2329524 26.8452381,22.8577917 26.8452381,22.3936667 C26.8452381,21.4863988 26.0923988,20.7478274 25.1666667,20.7478274 C24.2417738,20.7478274 23.4880952,21.4863988 23.4880952,22.3936667 C23.4880952,23.6802917 25.3781667,24.2434524 25.3974702,24.2484881 C25.5225238,24.2837381 28.5238095,25.1599524 28.5238095,27.7180952 C28.5238095,29.262381 27.4503631,30.5523631 26.0059524,30.9233274 L26.0059524,31.8809524 C26.0059524,32.3450774 25.6307917,32.7202381 25.1666667,32.7202381 C24.7025417,32.7202381 24.327381,32.3450774 24.327381,31.8809524 L24.327381,30.9233274 C22.8838095,30.5523631 21.8095238,29.262381 21.8095238,27.7180952 C21.8095238,27.2539702 22.1855238,26.8788095 22.6488095,26.8788095 C23.1129345,26.8788095 23.4880952,27.2539702 23.4880952,27.7180952 C23.4880952,28.6253631 24.2417738,29.3630952 25.1666667,29.3630952 C26.0923988,29.3630952 26.8452381,28.6253631 26.8452381,27.7180952 C26.8452381,26.4314702 24.9551667,25.8683095 24.9367024,25.8632738 C24.8108095,25.8280238 21.8095238,24.9518095 21.8095238,22.3936667 C21.8095238,20.8502202 22.8838095,19.5593988 24.327381,19.1875952 L24.327381,18.452381 C24.327381,17.988256 24.7025417,17.6130952 25.1666667,17.6130952 C25.6307917,17.6130952 26.0059524,17.988256 26.0059524,18.452381 L26.0059524,19.1875952 C27.4503631,19.5593988 28.5238095,20.849381 28.5238095,22.3936667 C28.5238095,22.8577917 28.1486488,23.2329524 27.6845238,23.2329524 Z M25.1330952,13.4166667 C25.1297381,13.4166667 25.1288988,13.4166667 25.1247024,13.4166667 C24.6630952,13.4166667 24.2854167,13.047381 24.2854167,12.577381 C24.2854167,12.1157738 24.6630952,11.7380952 25.1247024,11.7380952 C25.5863095,11.7380952 25.9639881,12.107381 25.9639881,12.577381 C25.9639881,13.0389881 25.5947024,13.4166667 25.1330952,13.4166667 Z M22.0864881,13.8195238 C22.0193452,13.8447024 21.9438095,13.852256 21.8674345,13.852256 C21.4989881,13.852256 21.1632738,13.6088631 21.0625595,13.2320238 C20.9366667,12.7872024 21.2052381,12.3172024 21.6500595,12.1997024 C22.094881,12.0822024 22.5564881,12.342381 22.682381,12.7955952 C22.799881,13.2404167 22.5397024,13.7020238 22.0864881,13.8195238 Z M18.8804167,36.9166667 C18.7377381,36.9166667 18.5950595,36.8830952 18.4691667,36.8075595 C18.0663095,36.5725595 17.923631,36.0605952 18.158631,35.6577381 C18.3852381,35.254881 18.9055952,35.119756 19.3084524,35.3555952 C19.7029167,35.5822024 19.8455952,36.0933274 19.6105952,36.4970238 C19.4595238,36.764756 19.1741667,36.9166667 18.8804167,36.9166667 Z M19.2664881,15.0029167 C19.1322024,15.0784524 18.9895238,15.1204167 18.8384524,15.1204167 C18.5530952,15.1204167 18.2677381,14.9693452 18.1166667,14.7007738 C17.8808274,14.2979167 18.0159524,13.7851131 18.4188095,13.5509524 C18.8216667,13.3159524 19.333631,13.458631 19.568631,13.852256 C19.7952381,14.2559524 19.6609524,14.7670774 19.2664881,15.0029167 Z M18.3852381,24.8477381 C18.4272024,24.9484524 18.452381,25.0575595 18.452381,25.1666667 C18.452381,25.3932738 18.3684524,25.6030952 18.2089881,25.7625595 C18.0495238,25.9211845 17.8397024,26.0059524 17.6130952,26.0059524 C17.3864881,26.0059524 17.1766667,25.9211845 17.0172024,25.7625595 C16.8577381,25.6030952 16.7738095,25.3932738 16.7738095,25.1666667 C16.7738095,25.0575595 16.7905952,24.9484524 16.8409524,24.8477381 C16.8829167,24.7470238 16.9416667,24.6547024 17.0172024,24.5707738 C17.3277381,24.2602381 17.8984524,24.2602381 18.2089881,24.5707738 C18.2845238,24.6547024 18.3432738,24.7470238 18.3852381,24.8477381 Z M16.2366667,17.1263095 C16.026006,17.1263095 15.808631,17.0415417 15.6491667,16.8829167 C15.3218452,16.5555952 15.3218452,16.0184524 15.6491667,15.6995238 C15.9764881,15.3629702 16.5052381,15.3629702 16.8317202,15.691131 C17.159881,16.0184524 17.159881,16.5463631 16.8317202,16.8745238 C16.6730952,17.0415417 16.454881,17.1263095 16.2366667,17.1263095 Z M14.692381,32.2082738 C14.5580952,32.2838095 14.4154167,32.317381 14.2727381,32.317381 C13.987381,32.317381 13.7020238,32.1747024 13.5425595,31.8968988 C13.3159524,31.5032738 13.4502381,30.9913095 13.8530952,30.7563095 C14.2475595,30.5213095 14.7595238,30.6555952 14.9945238,31.0584524 C15.2295238,31.4613095 15.0952381,31.9724345 14.692381,32.2082738 Z M14.2475595,19.7364881 C14.104881,19.7364881 13.9622024,19.7029167 13.8279167,19.6265417 C13.4250595,19.392381 13.2907738,18.8804167 13.517381,18.4775595 C13.7515417,18.0747024 14.2643452,17.9404167 14.6672024,18.1670238 C15.0616667,18.4011845 15.2043452,18.9139881 14.9693452,19.3168452 C14.8182738,19.5854167 14.5329167,19.7364881 14.2475595,19.7364881 Z M13.8027381,22.1443988 C13.7020238,22.5229167 13.3663095,22.7738631 12.988631,22.7738631 C12.9214881,22.7738631 12.8459524,22.7663095 12.7788095,22.7495238 C12.3339881,22.623631 12.0654167,22.1704167 12.183756,21.7172024 C12.3004167,21.2715417 12.7620238,21.0038095 13.2068452,21.1213095 C13.6600595,21.2379702 13.9202381,21.7004167 13.8027381,22.1443988 Z M13.4166667,25.1918452 C13.4166667,25.6534524 13.0389881,26.031131 12.577381,26.031131 C12.1157738,26.031131 11.7380952,25.6534524 11.7380952,25.1918452 C11.7380952,24.7302381 12.107381,24.3525595 12.577381,24.3525595 C13.0389881,24.3525595 13.4166667,24.7302381 13.4166667,25.1918452 Z M12.7872024,27.6333274 C13.2404167,27.5166667 13.693631,27.7852381 13.8195238,28.2292202 C13.9370238,28.674881 13.6768452,29.1356488 13.223631,29.262381 C13.1564881,29.2783274 13.0809524,29.2875595 13.0054167,29.2875595 C12.6352917,29.2875595 12.3004167,29.0441667 12.1997024,28.6664881 C12.0822024,28.2216667 12.342381,27.7600595 12.7872024,27.6333274 Z M16.866131,33.4839881 C17.2018452,33.8113095 17.2018452,34.3484524 16.8745238,34.6757738 C16.7066667,34.8343988 16.4884524,34.9191667 16.278631,34.9191667 C16.0604167,34.9191667 15.8505952,34.8343988 15.6827381,34.6757738 C15.3554167,34.3484524 15.3554167,33.8197024 15.6827381,33.492381 C16.0100595,33.1566667 16.5388095,33.1566667 16.866131,33.4839881 Z M22.1368452,36.5222024 C22.5816667,36.6397024 22.8502381,37.1013095 22.7327381,37.5545238 C22.6320238,37.9238095 22.2963095,38.1755952 21.918631,38.1755952 C21.8514881,38.1755952 21.7759524,38.1579702 21.7088095,38.1420238 C21.7088095,38.1420238 21.7088095,38.1420238 21.7004167,38.1420238 C21.2555952,38.0236845 20.9870238,37.5620774 21.1129167,37.1180952 C21.2304167,36.6732738 21.6920238,36.4047024 22.1368452,36.5222024 Z M25.1750595,36.9166667 C25.6366667,36.9166667 26.0143452,37.2943452 26.0143452,37.7559524 C26.0227381,38.2175595 25.6450595,38.5952381 25.1834524,38.5952381 C24.7134524,38.5952381 24.3357738,38.2175595 24.3357738,37.7559524 C24.3357738,37.2943452 24.7134524,36.9166667 25.1750595,36.9166667 Z M31.0500595,35.3388095 C31.4445238,35.1038095 31.964881,35.2464881 32.1914881,35.6493452 C32.4256488,36.0438095 32.2922024,36.5549345 31.8893452,36.7907738 C31.7550595,36.8663095 31.612381,36.9082738 31.4697024,36.9082738 C31.1759524,36.9082738 30.8989881,36.7572024 30.7395238,36.488631 C30.5129167,36.0857738 30.6472024,35.5729702 31.0500595,35.3388095 Z M42.3032024,34.091631 L45.2113274,35.7702024 C45.612506,36.0018452 45.7509881,36.5146488 45.518506,36.9166667 C45.3632381,37.1852381 45.0812381,37.3363095 44.7908452,37.3363095 C44.6481667,37.3363095 44.5038095,37.3002202 44.3720417,37.2238452 L41.4639167,35.5452738 C41.0627381,35.313631 40.924256,34.7999881 41.1567381,34.3988095 C41.388381,33.997631 41.9020238,33.8591488 42.3032024,34.091631 Z M45.2163631,31.4084345 L43.5948631,30.9736845 C43.1475238,30.8536667 42.8823095,30.3937381 43.0014881,29.9455595 C43.121506,29.497381 43.5822738,29.233006 44.0296131,29.3521845 L45.6511131,29.7869345 C46.0984524,29.9069524 46.3636667,30.366881 46.2436488,30.8142202 C46.1437738,31.1902202 45.8047024,31.4369702 45.4337381,31.4369702 C45.3623988,31.4369702 45.289381,31.4277381 45.2163631,31.4084345 Z" id="Shape" fill="#FF516B"></path>
                    </g>
                </g>
            </g>
        </g>
    </g>
</svg>