<?xml version="1.0" encoding="UTF-8"?>
<svg width="196px" height="414px" viewBox="0 0 196 414" version="1.1" xmlns="http://www.w3.org/2000/svg" xmlns:xlink="http://www.w3.org/1999/xlink">
    <!-- Generator: Sketch 53.2 (72643) - https://sketchapp.com -->
    <title>ic_tickets</title>
    <desc>Created with Sketch.</desc>
    <defs>
        <rect id="path-1" x="114.055715" y="0" width="194" height="414"></rect>
        <path d="M132,64.3419249 L68.8816142,64.3419249 C66.6724752,64.3419249 64.8816142,66.1327859 64.8816142,68.3419249 L64.8816142,109.88467 C65.5403244,109.636045 66.2542747,109.5 67,109.5 C70.3137085,109.5 73,112.186292 73,115.5 C73,118.813708 70.3137085,121.5 67,121.5 C66.2542747,121.5 65.5403244,121.363955 64.8816142,121.11533 L64.8816142,236 L2,236 C0.8954305,236 1.20935726e-11,235.104569 1.20934374e-11,234 L1.20934374e-11,56.1999457 C0.969329821,56.3967092 1.97260248,56.5 3,56.5 C11.2842712,56.5 18,49.7842712 18,41.5 C18,33.2157288 11.2842712,26.5 3,26.5 C1.97260248,26.5 0.969329821,26.6032908 1.20869981e-11,26.8000543 L1.20934374e-11,2 C1.20933021e-11,0.8954305 0.8954305,-2.18276699e-11 2,-2.18278728e-11 L130,-2.18278728e-11 C131.104569,-2.18280757e-11 132,0.8954305 132,2 L132,26.6321713 C131.345725,26.5449981 130.678118,26.5 130,26.5 C121.715729,26.5 115,33.2157288 115,41.5 C115,49.7842712 121.715729,56.5 130,56.5 C130.678118,56.5 131.345725,56.4550019 132,56.3678287 L132,64.3419249 Z" id="path-3"></path>
        <path d="M0,26.8000543 L0,2 C-1.3527075e-16,0.8954305 0.8954305,-2.91036276e-11 2,-2.91038305e-11 L130,-2.91038305e-11 C131.104569,-2.91040334e-11 132,0.8954305 132,2 L132,26.6321713 C131.345725,26.5449981 130.678118,26.5 130,26.5 C121.715729,26.5 115,33.2157288 115,41.5 C115,49.7842712 121.715729,56.5 130,56.5 C130.678118,56.5 131.345725,56.4550019 132,56.3678287 L132,234 C132,235.104569 131.104569,236 130,236 L2,236 C0.8954305,236 1.3527075e-16,235.104569 0,234 L0,56.1999457 C0.969329821,56.3967092 1.97260248,56.5 3,56.5 C11.2842712,56.5 18,49.7842712 18,41.5 C18,33.2157288 11.2842712,26.5 3,26.5 C1.97260248,26.5 0.969329821,26.6032908 -6.43929354e-15,26.8000543 Z" id="path-5"></path>
    </defs>
    <g id="Updates" stroke="none" stroke-width="1" fill="none" fill-rule="evenodd">
        <g id="js_v2" transform="translate(-169.000000, -165.000000)">
            <g id="Group-2" transform="translate(170.000000, 212.000000)">
                <g id="Group-4">
                    <g id="Group-8" transform="translate(-114.055715, -47.000000)">
                        <mask id="mask-2" fill="white">
                            <use xlink:href="#path-1"></use>
                        </mask>
                        <g id="Mask" fill-rule="nonzero"></g>
                        <g id="Group-6" mask="url(#mask-2)">
                            <g transform="translate(173.500000, 288.167356) rotate(34.000000) translate(-173.500000, -288.167356) translate(70.000000, 132.667356)">
                                <g id="Group-7-Copy" transform="translate(0.298758, 0.266835)">
                                    <mask id="mask-4" fill="white">
                                        <use xlink:href="#path-3"></use>
                                    </mask>
                                    <use id="Combined-Shape" fill="#000000" fill-rule="nonzero" xlink:href="#path-3"></use>
                                    <path d="M12,43 C10.6192881,43 9.5,41.8807119 9.5,40.5 C9.5,39.1192881 10.6192881,38 12,38 L14,38 C15.3807119,38 16.5,39.1192881 16.5,40.5 C16.5,41.8807119 15.3807119,43 14,43 L12,43 Z M24,43 C22.6192881,43 21.5,41.8807119 21.5,40.5 C21.5,39.1192881 22.6192881,38 24,38 L26,38 C27.3807119,38 28.5,39.1192881 28.5,40.5 C28.5,41.8807119 27.3807119,43 26,43 L24,43 Z M36,43 C34.6192881,43 33.5,41.8807119 33.5,40.5 C33.5,39.1192881 34.6192881,38 36,38 L38,38 C39.3807119,38 40.5,39.1192881 40.5,40.5 C40.5,41.8807119 39.3807119,43 38,43 L36,43 Z M48,43 C46.6192881,43 45.5,41.8807119 45.5,40.5 C45.5,39.1192881 46.6192881,38 48,38 L50,38 C51.3807119,38 52.5,39.1192881 52.5,40.5 C52.5,41.8807119 51.3807119,43 50,43 L48,43 Z M60,43 C58.6192881,43 57.5,41.8807119 57.5,40.5 C57.5,39.1192881 58.6192881,38 60,38 L62,38 C63.3807119,38 64.5,39.1192881 64.5,40.5 C64.5,41.8807119 63.3807119,43 62,43 L60,43 Z M72,43 C70.6192881,43 69.5,41.8807119 69.5,40.5 C69.5,39.1192881 70.6192881,38 72,38 L74,38 C75.3807119,38 76.5,39.1192881 76.5,40.5 C76.5,41.8807119 75.3807119,43 74,43 L72,43 Z M84,43 C82.6192881,43 81.5,41.8807119 81.5,40.5 C81.5,39.1192881 82.6192881,38 84,38 L86,38 C87.3807119,38 88.5,39.1192881 88.5,40.5 C88.5,41.8807119 87.3807119,43 86,43 L84,43 Z M96,43 C94.6192881,43 93.5,41.8807119 93.5,40.5 C93.5,39.1192881 94.6192881,38 96,38 L98,38 C99.3807119,38 100.5,39.1192881 100.5,40.5 C100.5,41.8807119 99.3807119,43 98,43 L96,43 Z M108,43 C106.619288,43 105.5,41.8807119 105.5,40.5 C105.5,39.1192881 106.619288,38 108,38 L110,38 C111.380712,38 112.5,39.1192881 112.5,40.5 C112.5,41.8807119 111.380712,43 110,43 L108,43 Z M118.232233,42.267767 C117.779822,41.8153559 117.5,41.1903559 117.5,40.5 C117.5,39.1192881 118.619288,38 120,38 L121,38 C124.333333,38 124.333333,43 121,43 L120,43 C119.309644,43 118.684644,42.720178 118.232233,42.267767 Z M110,38 C111.380712,38 112.5,39.1192881 112.5,40.5 C112.5,41.8807119 111.380712,43 110,43 L108,43 C106.619288,43 105.5,41.8807119 105.5,40.5 C105.5,39.1192881 106.619288,38 108,38 L110,38 Z M98,38 C99.3807119,38 100.5,39.1192881 100.5,40.5 C100.5,41.8807119 99.3807119,43 98,43 L96,43 C94.6192881,43 93.5,41.8807119 93.5,40.5 C93.5,39.1192881 94.6192881,38 96,38 L98,38 Z M86,38 C87.3807119,38 88.5,39.1192881 88.5,40.5 C88.5,41.8807119 87.3807119,43 86,43 L84,43 C82.6192881,43 81.5,41.8807119 81.5,40.5 C81.5,39.1192881 82.6192881,38 84,38 L86,38 Z M74,38 C75.3807119,38 76.5,39.1192881 76.5,40.5 C76.5,41.8807119 75.3807119,43 74,43 L72,43 C70.6192881,43 69.5,41.8807119 69.5,40.5 C69.5,39.1192881 70.6192881,38 72,38 L74,38 Z M62,38 C63.3807119,38 64.5,39.1192881 64.5,40.5 C64.5,41.8807119 63.3807119,43 62,43 L60,43 C58.6192881,43 57.5,41.8807119 57.5,40.5 C57.5,39.1192881 58.6192881,38 60,38 L62,38 Z M50,38 C51.3807119,38 52.5,39.1192881 52.5,40.5 C52.5,41.8807119 51.3807119,43 50,43 L48,43 C46.6192881,43 45.5,41.8807119 45.5,40.5 C45.5,39.1192881 46.6192881,38 48,38 L50,38 Z M38,38 C39.3807119,38 40.5,39.1192881 40.5,40.5 C40.5,41.8807119 39.3807119,43 38,43 L36,43 C34.6192881,43 33.5,41.8807119 33.5,40.5 C33.5,39.1192881 34.6192881,38 36,38 L38,38 Z M26,38 C27.3807119,38 28.5,39.1192881 28.5,40.5 C28.5,41.8807119 27.3807119,43 26,43 L24,43 C22.6192881,43 21.5,41.8807119 21.5,40.5 C21.5,39.1192881 22.6192881,38 24,38 L26,38 Z M14,38 C15.3807119,38 16.5,39.1192881 16.5,40.5 C16.5,41.8807119 15.3807119,43 14,43 L12,43 C10.6192881,43 9.5,41.8807119 9.5,40.5 C9.5,39.1192881 10.6192881,38 12,38 L14,38 Z" id="Rectangle-Copy-4" fill="#1C2122" fill-rule="nonzero" mask="url(#mask-4)"></path>
                                </g>
                                <g id="Group-7" transform="translate(74.298758, 74.266835)">
                                    <mask id="mask-6" fill="white">
                                        <use xlink:href="#path-5"></use>
                                    </mask>
                                    <use id="Combined-Shape" fill="#000000" fill-rule="nonzero" xlink:href="#path-5"></use>
                                    <path d="M12,43 C10.6192881,43 9.5,41.8807119 9.5,40.5 C9.5,39.1192881 10.6192881,38 12,38 L14,38 C15.3807119,38 16.5,39.1192881 16.5,40.5 C16.5,41.8807119 15.3807119,43 14,43 L12,43 Z M24,43 C22.6192881,43 21.5,41.8807119 21.5,40.5 C21.5,39.1192881 22.6192881,38 24,38 L26,38 C27.3807119,38 28.5,39.1192881 28.5,40.5 C28.5,41.8807119 27.3807119,43 26,43 L24,43 Z M36,43 C34.6192881,43 33.5,41.8807119 33.5,40.5 C33.5,39.1192881 34.6192881,38 36,38 L38,38 C39.3807119,38 40.5,39.1192881 40.5,40.5 C40.5,41.8807119 39.3807119,43 38,43 L36,43 Z M48,43 C46.6192881,43 45.5,41.8807119 45.5,40.5 C45.5,39.1192881 46.6192881,38 48,38 L50,38 C51.3807119,38 52.5,39.1192881 52.5,40.5 C52.5,41.8807119 51.3807119,43 50,43 L48,43 Z M60,43 C58.6192881,43 57.5,41.8807119 57.5,40.5 C57.5,39.1192881 58.6192881,38 60,38 L62,38 C63.3807119,38 64.5,39.1192881 64.5,40.5 C64.5,41.8807119 63.3807119,43 62,43 L60,43 Z M72,43 C70.6192881,43 69.5,41.8807119 69.5,40.5 C69.5,39.1192881 70.6192881,38 72,38 L74,38 C75.3807119,38 76.5,39.1192881 76.5,40.5 C76.5,41.8807119 75.3807119,43 74,43 L72,43 Z M84,43 C82.6192881,43 81.5,41.8807119 81.5,40.5 C81.5,39.1192881 82.6192881,38 84,38 L86,38 C87.3807119,38 88.5,39.1192881 88.5,40.5 C88.5,41.8807119 87.3807119,43 86,43 L84,43 Z M96,43 C94.6192881,43 93.5,41.8807119 93.5,40.5 C93.5,39.1192881 94.6192881,38 96,38 L98,38 C99.3807119,38 100.5,39.1192881 100.5,40.5 C100.5,41.8807119 99.3807119,43 98,43 L96,43 Z M108,43 C106.619288,43 105.5,41.8807119 105.5,40.5 C105.5,39.1192881 106.619288,38 108,38 L110,38 C111.380712,38 112.5,39.1192881 112.5,40.5 C112.5,41.8807119 111.380712,43 110,43 L108,43 Z M118.232233,42.267767 C117.779822,41.8153559 117.5,41.1903559 117.5,40.5 C117.5,39.1192881 118.619288,38 120,38 L121,38 C124.333333,38 124.333333,43 121,43 L120,43 C119.309644,43 118.684644,42.720178 118.232233,42.267767 Z M110,38 C111.380712,38 112.5,39.1192881 112.5,40.5 C112.5,41.8807119 111.380712,43 110,43 L108,43 C106.619288,43 105.5,41.8807119 105.5,40.5 C105.5,39.1192881 106.619288,38 108,38 L110,38 Z M98,38 C99.3807119,38 100.5,39.1192881 100.5,40.5 C100.5,41.8807119 99.3807119,43 98,43 L96,43 C94.6192881,43 93.5,41.8807119 93.5,40.5 C93.5,39.1192881 94.6192881,38 96,38 L98,38 Z M86,38 C87.3807119,38 88.5,39.1192881 88.5,40.5 C88.5,41.8807119 87.3807119,43 86,43 L84,43 C82.6192881,43 81.5,41.8807119 81.5,40.5 C81.5,39.1192881 82.6192881,38 84,38 L86,38 Z M74,38 C75.3807119,38 76.5,39.1192881 76.5,40.5 C76.5,41.8807119 75.3807119,43 74,43 L72,43 C70.6192881,43 69.5,41.8807119 69.5,40.5 C69.5,39.1192881 70.6192881,38 72,38 L74,38 Z M62,38 C63.3807119,38 64.5,39.1192881 64.5,40.5 C64.5,41.8807119 63.3807119,43 62,43 L60,43 C58.6192881,43 57.5,41.8807119 57.5,40.5 C57.5,39.1192881 58.6192881,38 60,38 L62,38 Z M50,38 C51.3807119,38 52.5,39.1192881 52.5,40.5 C52.5,41.8807119 51.3807119,43 50,43 L48,43 C46.6192881,43 45.5,41.8807119 45.5,40.5 C45.5,39.1192881 46.6192881,38 48,38 L50,38 Z M38,38 C39.3807119,38 40.5,39.1192881 40.5,40.5 C40.5,41.8807119 39.3807119,43 38,43 L36,43 C34.6192881,43 33.5,41.8807119 33.5,40.5 C33.5,39.1192881 34.6192881,38 36,38 L38,38 Z M26,38 C27.3807119,38 28.5,39.1192881 28.5,40.5 C28.5,41.8807119 27.3807119,43 26,43 L24,43 C22.6192881,43 21.5,41.8807119 21.5,40.5 C21.5,39.1192881 22.6192881,38 24,38 L26,38 Z M14,38 C15.3807119,38 16.5,39.1192881 16.5,40.5 C16.5,41.8807119 15.3807119,43 14,43 L12,43 C10.6192881,43 9.5,41.8807119 9.5,40.5 C9.5,39.1192881 10.6192881,38 12,38 L14,38 Z" id="Rectangle-Copy-4" fill="#1C2122" fill-rule="nonzero" mask="url(#mask-6)"></path>
                                </g>
                            </g>
                        </g>
                    </g>
                </g>
            </g>
        </g>
    </g>
</svg>