<svg width="61" height="157" viewBox="0 0 61 157" fill="none" xmlns="http://www.w3.org/2000/svg">
    <g filter="url(#filter0_d)">
        <rect x="12" y="9" width="49" height="133" fill="#F5F3EB"/>
    </g>
    <path d="M42 123.656L42 115.128L39.808 115.128L39.808 121.208L37.456 121.208L37.456 115.928L35.264 115.928L35.264 121.208L32.992 121.208L32.992 115.208L30.8 115.208L30.8 123.656L42 123.656ZM42 113.913L42 111.369L39.328 109.641L42 107.913L42 105.305L37.6 108.329L33.424 105.433L33.424 107.977L35.92 109.593L33.424 111.193L33.424 113.801L37.648 110.905L42 113.913ZM44.56 103.849L44.56 101.417L40.88 101.417C41.568 100.841 42.16 100.041 42.16 98.7455C42.16 96.7135 40.592 94.8415 37.728 94.8415C34.832 94.8415 33.264 96.7455 33.264 98.7455C33.264 100.009 33.856 100.825 34.656 101.417L33.424 101.417L33.424 103.849L44.56 103.849ZM40.096 99.3695C40.096 100.505 39.152 101.449 37.728 101.449C36.272 101.449 35.328 100.505 35.328 99.3695C35.328 98.2335 36.272 97.2735 37.696 97.2735C39.168 97.2735 40.096 98.2335 40.096 99.3695ZM42 92.9406L42 90.5086L30.32 90.5086L30.32 92.9406L42 92.9406ZM42.192 84.0165C42.192 81.3445 40.192 79.3605 37.728 79.3605C35.232 79.3605 33.264 81.3285 33.264 83.9845C33.264 86.6565 35.264 88.6405 37.728 88.6405C40.224 88.6405 42.192 86.6725 42.192 84.0165ZM40.096 83.9845C40.096 85.3285 38.992 86.2405 37.728 86.2405C36.432 86.2405 35.36 85.4085 35.36 84.0165C35.36 82.6725 36.464 81.7605 37.728 81.7605C39.024 81.7605 40.096 82.5925 40.096 83.9845ZM42 77.5995L42 75.1675L38.832 75.1675C36.784 75.1675 35.808 74.1755 35.808 72.5595L35.808 72.4315L33.264 72.4315C33.2 73.8715 33.968 74.6715 35.152 75.1675L33.424 75.1675L33.424 77.5995L42 77.5995ZM42.192 67.0824C42.192 65.5304 41.584 64.3784 40.592 63.5784L39.36 64.9704C39.984 65.6424 40.24 66.2344 40.24 67.0504C40.24 68.1384 39.664 68.9064 38.56 69.1464L38.56 63.1784C38.336 63.1624 38.112 63.1464 37.92 63.1464C35.488 63.1464 33.264 64.4584 33.264 67.3224C33.264 69.8184 35.28 71.5624 37.728 71.5624C40.384 71.5624 42.192 69.6584 42.192 67.0824ZM37.04 69.1784C35.936 68.9864 35.216 68.3304 35.216 67.3224C35.216 66.2984 35.952 65.6584 37.04 65.5144L37.04 69.1784ZM42 56.281L42 53.817L38.576 53.817L37.232 52.521L42 49.049L42 46.089L35.552 50.857L30.8 46.297L30.8 49.273L35.696 53.817L30.8 53.817L30.8 56.281L42 56.281ZM44.608 43.5984C44.608 42.1424 43.952 41.4384 42.208 40.7824L33.424 37.4864L33.424 40.0144L39.264 41.8864L33.424 43.8384L33.424 46.4144L42.032 43.0544C42.464 43.2624 42.592 43.4864 42.592 43.9024C42.592 44.2224 42.448 44.6224 42.256 44.9424L44.016 45.7584C44.384 45.1344 44.608 44.4784 44.608 43.5984ZM32.48 36.0046L32.48 33.4446L30.32 33.4446L30.32 36.0046L32.48 36.0046ZM42 35.9406L42 33.5086L33.424 33.5086L33.424 35.9406L42 35.9406ZM42.064 28.6165L42.064 26.4085L33.424 23.0325L33.424 25.5605L39.168 27.4965L33.424 29.4165L33.424 31.9925L42.064 28.6165Z" fill="black"/>
    <defs>
        <filter id="filter0_d" x="0" y="0" width="73" height="157" filterUnits="userSpaceOnUse" color-interpolation-filters="sRGB">
            <feFlood flood-opacity="0" result="BackgroundImageFix"/>
            <feColorMatrix in="SourceAlpha" type="matrix" values="0 0 0 0 0 0 0 0 0 0 0 0 0 0 0 0 0 0 127 0"/>
            <feOffset dy="3"/>
            <feGaussianBlur stdDeviation="6"/>
            <feColorMatrix type="matrix" values="0 0 0 0 0.0166667 0 0 0 0 0.0166667 0 0 0 0 0.0166667 0 0 0 0.17 0"/>
            <feBlend mode="normal" in2="BackgroundImageFix" result="effect1_dropShadow"/>
            <feBlend mode="normal" in="SourceGraphic" in2="effect1_dropShadow" result="shape"/>
        </filter>
    </defs>
</svg>
