<svg width="375" height="128" viewBox="0 0 375 128" fill="none" xmlns="http://www.w3.org/2000/svg">
    <g filter="url(#filter0_d)">
        <rect y="9" width="375" height="104" fill="#F5F3EB"/>
    </g>
    <path d="M136.184 48H150.042V44.438H140.162V40.616H148.742V37.054H140.162V33.362H149.912V29.8H136.184V48ZM152.016 48H156.15L158.958 43.658L161.766 48H166.004L161.09 40.85L165.796 34.064H161.662L159.036 38.12L156.436 34.064H152.198L156.904 40.928L152.016 48ZM168.37 52.16H172.322V46.18C173.258 47.298 174.558 48.26 176.664 48.26C179.966 48.26 183.008 45.712 183.008 41.058C183.008 36.352 179.914 33.804 176.664 33.804C174.61 33.804 173.284 34.766 172.322 36.066V34.064H168.37V52.16ZM175.65 44.906C173.804 44.906 172.27 43.372 172.27 41.058C172.27 38.692 173.804 37.158 175.65 37.158C177.496 37.158 179.056 38.692 179.056 41.006C179.056 43.398 177.496 44.906 175.65 44.906ZM186.096 48H190.048V29.02H186.096V48ZM200.598 48.312C204.94 48.312 208.164 45.062 208.164 41.058C208.164 37.002 204.966 33.804 200.65 33.804C196.308 33.804 193.084 37.054 193.084 41.058C193.084 45.114 196.282 48.312 200.598 48.312ZM200.65 44.906C198.466 44.906 196.984 43.112 196.984 41.058C196.984 38.952 198.336 37.21 200.598 37.21C202.782 37.21 204.264 39.004 204.264 41.058C204.264 43.164 202.912 44.906 200.65 44.906ZM211.026 48H214.978V42.852C214.978 39.524 216.59 37.938 219.216 37.938H219.424V33.804C217.084 33.7 215.784 34.948 214.978 36.872V34.064H211.026V48ZM228.116 48.312C230.638 48.312 232.51 47.324 233.81 45.712L231.548 43.71C230.456 44.724 229.494 45.14 228.168 45.14C226.4 45.14 225.152 44.204 224.762 42.41H234.46C234.486 42.046 234.512 41.682 234.512 41.37C234.512 37.418 232.38 33.804 227.726 33.804C223.67 33.804 220.836 37.08 220.836 41.058C220.836 45.374 223.93 48.312 228.116 48.312ZM224.71 39.94C225.022 38.146 226.088 36.976 227.726 36.976C229.39 36.976 230.43 38.172 230.664 39.94H224.71ZM136.444 76H140.396V65.444H143.542V62.22H140.344V61.674C140.344 60.634 140.864 60.166 141.774 60.166C142.45 60.166 142.996 60.296 143.568 60.504V57.228C142.84 56.994 142.008 56.838 140.76 56.838C139.356 56.838 138.29 57.202 137.562 57.93C136.834 58.658 136.444 59.776 136.444 61.31V62.194H134.806V65.444H136.444V76ZM149.267 76.26C151.191 76.26 152.517 75.558 153.479 74.492V76H157.301V67.914C157.301 66.042 156.833 64.508 155.793 63.468C154.805 62.48 153.245 61.908 151.087 61.908C148.721 61.908 147.213 62.35 145.679 63.026L146.667 66.042C147.941 65.574 149.007 65.288 150.515 65.288C152.491 65.288 153.505 66.198 153.505 67.836V68.07C152.517 67.732 151.503 67.498 150.099 67.498C146.797 67.498 144.483 68.902 144.483 71.944C144.483 74.752 146.641 76.26 149.267 76.26ZM150.463 73.53C149.189 73.53 148.305 72.906 148.305 71.84C148.305 70.54 149.345 69.864 151.035 69.864C151.997 69.864 152.881 70.072 153.557 70.384V71.086C153.557 72.516 152.309 73.53 150.463 73.53ZM165.59 76.26C168.606 76.26 170.92 74.856 170.92 71.762C170.92 69.162 168.658 68.226 166.708 67.576C165.2 67.056 163.874 66.692 163.874 65.912C163.874 65.314 164.368 64.898 165.33 64.898C166.344 64.898 167.722 65.392 169.1 66.198L170.608 63.468C169.1 62.454 167.176 61.856 165.408 61.856C162.6 61.856 160.312 63.442 160.312 66.276C160.312 69.032 162.522 69.942 164.472 70.514C166.006 70.982 167.358 71.268 167.358 72.126C167.358 72.802 166.838 73.218 165.694 73.218C164.394 73.218 162.808 72.646 161.3 71.554L159.61 74.154C161.456 75.61 163.64 76.26 165.59 76.26ZM180.33 76.312C183.112 76.312 184.672 75.246 186.024 73.764L183.71 71.424C182.748 72.334 181.838 72.906 180.512 72.906C178.354 72.906 176.976 71.19 176.976 69.058C176.976 66.952 178.38 65.21 180.356 65.21C181.916 65.21 182.748 65.782 183.606 66.588L185.92 64.248C184.62 62.792 183.008 61.804 180.382 61.804C176.118 61.804 173.076 65.08 173.076 69.058C173.076 73.088 176.144 76.312 180.33 76.312ZM188.684 60.53H192.844V57.02H188.684V60.53ZM188.788 76H192.74V62.064H188.788V76ZM196.452 76H200.404V68.226C200.404 66.354 201.366 65.392 202.874 65.392C204.382 65.392 205.266 66.354 205.266 68.226V76H209.218V66.978C209.218 63.78 207.476 61.804 204.486 61.804C202.484 61.804 201.314 62.87 200.404 64.04V62.064H196.452V76ZM216.603 76.26C218.527 76.26 219.853 75.558 220.815 74.492V76H224.637V67.914C224.637 66.042 224.169 64.508 223.129 63.468C222.141 62.48 220.581 61.908 218.423 61.908C216.057 61.908 214.549 62.35 213.015 63.026L214.003 66.042C215.277 65.574 216.343 65.288 217.851 65.288C219.827 65.288 220.841 66.198 220.841 67.836V68.07C219.853 67.732 218.839 67.498 217.435 67.498C214.133 67.498 211.819 68.902 211.819 71.944C211.819 74.752 213.977 76.26 216.603 76.26ZM217.799 73.53C216.525 73.53 215.641 72.906 215.641 71.84C215.641 70.54 216.681 69.864 218.371 69.864C219.333 69.864 220.217 70.072 220.893 70.384V71.086C220.893 72.516 219.645 73.53 217.799 73.53ZM232.617 76.234C233.943 76.234 234.905 75.922 235.737 75.428V72.256C235.165 72.568 234.515 72.75 233.787 72.75C232.903 72.75 232.513 72.308 232.513 71.398V65.444H235.789V62.064H232.513V58.502H228.561V62.064H226.897V65.444H228.561V72.048C228.561 75.272 230.199 76.234 232.617 76.234ZM238.78 60.53H242.94V57.02H238.78V60.53ZM238.884 76H242.836V62.064H238.884V76ZM246.547 76H250.499V68.226C250.499 66.354 251.461 65.392 252.969 65.392C254.477 65.392 255.361 66.354 255.361 68.226V76H259.313V66.978C259.313 63.78 257.571 61.804 254.581 61.804C252.579 61.804 251.409 62.87 250.499 64.04V62.064H246.547V76ZM268.987 80.212C271.691 80.212 273.693 79.64 274.993 78.34C276.163 77.17 276.761 75.35 276.761 72.854V62.064H272.809V63.884C271.743 62.714 270.469 61.804 268.311 61.804C265.113 61.804 262.123 64.144 262.123 68.304C262.123 72.49 265.061 74.856 268.311 74.856C270.417 74.856 271.691 73.998 272.861 72.594V73.27C272.861 75.766 271.587 77.066 268.883 77.066C267.037 77.066 265.607 76.598 264.177 75.792L262.825 78.756C264.593 79.692 266.725 80.212 268.987 80.212ZM269.455 71.58C267.531 71.58 266.075 70.28 266.075 68.356C266.075 66.406 267.531 65.08 269.455 65.08C271.379 65.08 272.861 66.406 272.861 68.304C272.861 70.254 271.379 71.58 269.455 71.58ZM288.502 76H292.506V70.436L294.612 68.252L300.254 76H305.064L297.316 65.522L304.726 57.8H299.89L292.506 65.756V57.8H288.502V76ZM309.112 80.238C311.478 80.238 312.622 79.172 313.688 76.338L319.044 62.064H314.936L311.894 71.554L308.722 62.064H304.536L309.996 76.052C309.658 76.754 309.294 76.962 308.618 76.962C308.098 76.962 307.448 76.728 306.928 76.416L305.602 79.276C306.616 79.874 307.682 80.238 309.112 80.238ZM321.451 60.53H325.611V57.02H321.451V60.53ZM321.555 76H325.507V62.064H321.555V76ZM333.457 76.104H337.045L342.531 62.064H338.423L335.277 71.398L332.157 62.064H327.971L333.457 76.104Z" fill="#292929"/>
    <path d="M135.188 100H136.136V96.736H138.536L140.972 100H142.136L139.556 96.568C140.876 96.328 141.836 95.512 141.836 94.12C141.836 93.436 141.596 92.848 141.188 92.44C140.66 91.912 139.832 91.6 138.8 91.6H135.188V100ZM136.136 95.884V92.476H138.728C140.084 92.476 140.876 93.1 140.876 94.132C140.876 95.236 139.976 95.884 138.716 95.884H136.136ZM144.139 97.276H149.059C149.071 97.132 149.071 97.036 149.071 96.952C149.071 95.128 148.015 93.664 146.179 93.664C144.463 93.664 143.203 95.104 143.203 96.904C143.203 98.836 144.595 100.144 146.299 100.144C147.475 100.144 148.231 99.676 148.855 98.98L148.279 98.464C147.775 98.992 147.175 99.34 146.323 99.34C145.231 99.34 144.271 98.584 144.139 97.276ZM144.139 96.532C144.271 95.332 145.087 94.444 146.155 94.444C147.379 94.444 148.027 95.404 148.135 96.532H144.139ZM152.536 100.132C153.628 100.132 154.336 99.628 154.768 99.076V100H155.68V96.208C155.68 95.416 155.464 94.816 155.032 94.384C154.588 93.94 153.904 93.7 153.028 93.7C152.116 93.7 151.456 93.916 150.772 94.228L151.048 94.984C151.624 94.72 152.2 94.54 152.932 94.54C154.096 94.54 154.768 95.116 154.768 96.22V96.412C154.216 96.256 153.664 96.148 152.872 96.148C151.3 96.148 150.22 96.844 150.22 98.176C150.22 99.472 151.372 100.132 152.536 100.132ZM152.716 99.388C151.876 99.388 151.156 98.932 151.156 98.152C151.156 97.384 151.816 96.88 152.968 96.88C153.724 96.88 154.324 97.012 154.78 97.144V97.72C154.78 98.704 153.856 99.388 152.716 99.388ZM160.241 100.132C161.381 100.132 162.113 99.496 162.617 98.752V100H163.541V91.24H162.617V94.984C162.137 94.288 161.393 93.664 160.241 93.664C158.753 93.664 157.277 94.864 157.277 96.892C157.277 98.956 158.753 100.132 160.241 100.132ZM160.409 99.304C159.233 99.304 158.225 98.368 158.225 96.904C158.225 95.38 159.209 94.492 160.409 94.492C161.561 94.492 162.653 95.452 162.653 96.88C162.653 98.332 161.561 99.304 160.409 99.304ZM172.036 100.144C173.908 100.144 175.288 98.656 175.288 96.904C175.288 95.128 173.92 93.664 172.06 93.664C170.188 93.664 168.82 95.152 168.82 96.904C168.82 98.68 170.176 100.144 172.036 100.144ZM172.06 99.316C170.752 99.316 169.768 98.236 169.768 96.904C169.768 95.572 170.692 94.48 172.036 94.48C173.344 94.48 174.34 95.572 174.34 96.904C174.34 98.236 173.404 99.316 172.06 99.316ZM176.962 100H177.886V96.448C177.886 95.284 178.678 94.504 179.746 94.504C180.838 94.504 181.462 95.224 181.462 96.376V100H182.386V96.148C182.386 94.672 181.51 93.664 180.01 93.664C178.942 93.664 178.294 94.204 177.886 94.876V93.796H176.962V100ZM188.11 100H189.034V93.208L192.094 97.696H192.142L195.202 93.196V100H196.15V91.6H195.19L192.13 96.184L189.07 91.6H188.11V100ZM198.924 97.276H203.844C203.856 97.132 203.856 97.036 203.856 96.952C203.856 95.128 202.8 93.664 200.964 93.664C199.248 93.664 197.988 95.104 197.988 96.904C197.988 98.836 199.38 100.144 201.084 100.144C202.26 100.144 203.016 99.676 203.64 98.98L203.064 98.464C202.56 98.992 201.96 99.34 201.108 99.34C200.016 99.34 199.056 98.584 198.924 97.276ZM198.924 96.532C199.056 95.332 199.872 94.444 200.94 94.444C202.164 94.444 202.812 95.404 202.92 96.532H198.924ZM208.077 100.132C209.217 100.132 209.949 99.496 210.453 98.752V100H211.377V91.24H210.453V94.984C209.973 94.288 209.229 93.664 208.077 93.664C206.589 93.664 205.113 94.864 205.113 96.892C205.113 98.956 206.589 100.132 208.077 100.132ZM208.245 99.304C207.069 99.304 206.061 98.368 206.061 96.904C206.061 95.38 207.045 94.492 208.245 94.492C209.397 94.492 210.489 95.452 210.489 96.88C210.489 98.332 209.397 99.304 208.245 99.304ZM213.466 92.44H214.522V91.42H213.466V92.44ZM213.526 100H214.45V93.796H213.526V100ZM218.875 100.132C219.943 100.132 220.579 99.592 220.999 98.92V100H221.911V93.796H220.999V97.348C220.999 98.512 220.195 99.292 219.139 99.292C218.047 99.292 217.423 98.572 217.423 97.42V93.796H216.499V97.648C216.499 99.124 217.375 100.132 218.875 100.132ZM223.989 100H224.913V96.46C224.913 95.32 225.657 94.504 226.641 94.504C227.625 94.504 228.237 95.188 228.237 96.352V100H229.149V96.424C229.149 95.2 229.929 94.504 230.865 94.504C231.873 94.504 232.473 95.176 232.473 96.376V100H233.397V96.16C233.397 94.624 232.521 93.664 231.093 93.664C230.013 93.664 229.353 94.216 228.909 94.9C228.573 94.204 227.925 93.664 226.917 93.664C225.873 93.664 225.321 94.228 224.913 94.84V93.796H223.989V100Z" fill="#A7A6A3"/>
    <path d="M75.4847 66.7984H70.7251C70.4586 66.7984 70.2491 66.5889 70.2491 66.3223C70.2491 66.0557 70.4586 65.8462 70.7251 65.8462H75.4847C75.7512 65.8462 75.9607 66.0557 75.9607 66.3223C75.9607 66.5794 75.7417 66.7984 75.4847 66.7984Z" fill="#292929"/>
    <path d="M85.956 66.7984H81.1964C80.9299 66.7984 80.7205 66.5889 80.7205 66.3223C80.7205 66.0557 80.9299 65.8462 81.1964 65.8462H85.956C86.2226 65.8462 86.432 66.0557 86.432 66.3223C86.432 66.5794 86.213 66.7984 85.956 66.7984Z" fill="#292929"/>
    <path d="M66.9175 77.2724C66.394 77.2724 65.9656 76.8439 65.9656 76.3202V74.4158C65.9656 74.2254 66.0227 74.0445 66.1179 73.8921C65.7848 73.2256 65.6515 72.3401 66.0132 71.2546C66.3178 70.35 65.9942 70.0548 64.5949 69.255C64.0999 68.9789 63.5668 68.6742 63.1099 68.2838C62.6529 68.6742 62.1199 68.9789 61.6249 69.255C60.2255 70.0453 59.9019 70.35 60.2065 71.2546C60.5682 72.3401 60.4254 73.2161 60.1018 73.8921C60.197 74.0445 60.2636 74.2254 60.2636 74.4158V76.3202C60.2636 76.8439 59.8353 77.2724 59.3117 77.2724C58.7881 77.2724 58.3598 76.8439 58.3598 76.3202V75.368C57.9219 75.368 57.5411 75.0633 57.4364 74.6444C57.3317 74.2159 57.5316 73.7779 57.9219 73.5779C58.1218 73.4637 58.7786 72.9876 58.4074 71.8735C57.5792 69.3788 59.4545 68.3219 60.692 67.6173C61.3774 67.2269 62.0247 66.865 62.2627 66.3889C62.5863 65.7414 63.6429 65.7414 63.9666 66.3889C64.2046 66.865 64.8519 67.2364 65.5373 67.6173C66.7748 68.3219 68.6596 69.3788 67.8219 71.8735C67.4221 73.0828 68.2122 73.5398 68.3074 73.5779C68.6976 73.7779 68.8975 74.2254 68.7928 74.6444C68.6881 75.0728 68.3073 75.368 67.8695 75.368V76.3202C67.8695 76.8439 67.4411 77.2724 66.9175 77.2724Z" fill="#292929"/>
    <path d="M97.3788 77.2724C96.8553 77.2724 96.4269 76.8439 96.4269 76.3202V74.4158C96.4269 74.2254 96.484 74.0445 96.5792 73.8921C96.2461 73.2256 96.1128 72.3401 96.4745 71.2546C96.7791 70.35 96.4555 70.0548 95.0561 69.255C94.5611 68.9789 94.0281 68.6742 93.5712 68.2838C93.1142 68.6742 92.5812 68.9789 92.0862 69.255C90.6868 70.0453 90.3632 70.35 90.6678 71.2546C91.0295 72.3401 90.8867 73.2161 90.5631 73.8921C90.6583 74.0445 90.7249 74.2254 90.7249 74.4158V76.3202C90.7249 76.8439 90.2966 77.2724 89.773 77.2724C89.2495 77.2724 88.8211 76.8439 88.8211 76.3202V75.368C88.3832 75.368 88.0024 75.0633 87.8977 74.6444C87.793 74.2159 87.9929 73.7779 88.3832 73.5779C88.5831 73.4637 89.2399 72.9876 88.8687 71.8735C88.0405 69.3788 89.9158 68.3219 91.1533 67.6173C91.8387 67.2269 92.486 66.865 92.7239 66.3889C93.0476 65.7414 94.1042 65.7414 94.4279 66.3889C94.6659 66.865 95.3132 67.2364 95.9986 67.6173C97.236 68.3219 99.1208 69.3788 98.2832 71.8735C97.8833 73.0828 98.6734 73.5398 98.7686 73.5779C99.1589 73.7779 99.3588 74.2254 99.2541 74.6444C99.1494 75.0728 98.7686 75.368 98.3308 75.368V76.3202C98.3308 76.8439 97.9024 77.2724 97.3788 77.2724Z" fill="#292929"/>
    <path d="M83.1002 81.0808C82.5766 81.0808 82.1483 80.6523 82.1483 80.1286V73.4633C82.1483 73.2253 82.234 73.0063 82.3767 72.8349C82.3767 72.8253 82.3672 72.8254 82.3672 72.8158C82.0721 72.3112 81.7961 71.4733 82.1959 70.3021C82.5671 69.2071 82.0816 68.6929 80.6157 67.5122C79.8637 66.9028 79.0069 66.2077 78.3406 65.2555C77.6743 66.2077 76.808 66.9123 76.0655 67.5122C74.5996 68.7024 74.1141 69.2166 74.4853 70.3021C74.8851 71.4733 74.6091 72.3207 74.314 72.8158C74.314 72.8254 74.3045 72.8253 74.3045 72.8349C74.4473 73.0063 74.5329 73.2157 74.5329 73.4633V80.1286C74.5329 80.6523 74.1046 81.0808 73.581 81.0808C73.0574 81.0808 72.6291 80.6523 72.6291 80.1286V74.4155H71.6772C71.1822 74.4155 70.7728 74.0346 70.7252 73.549C70.6872 73.0539 71.0203 72.6159 71.5153 72.5302C71.7343 72.4921 72.4292 72.2731 72.6767 71.8446C72.7243 71.7589 72.8766 71.5018 72.6767 70.9115C71.8485 68.4644 73.5239 67.1122 74.8661 66.0268C75.9418 65.1603 77.0555 64.2557 77.4172 62.7608C77.5219 62.3323 77.9027 62.0371 78.3406 62.0371C78.7785 62.0371 79.1593 62.3418 79.264 62.7608C79.6257 64.2557 80.7394 65.1508 81.8151 66.0268C83.1573 67.1122 84.8327 68.4644 84.0045 70.9115C83.8046 71.5018 83.9569 71.7589 84.0045 71.8446C84.2615 72.2826 84.9945 72.4921 85.1659 72.5206C85.6513 72.6063 85.994 73.0443 85.956 73.5395C85.9179 74.0346 85.499 74.406 85.004 74.406H84.0521V80.1191C84.0521 80.6523 83.6238 81.0808 83.1002 81.0808Z" fill="#292929"/>
    <path d="M85.9562 77.2724C85.4327 77.2724 85.0043 76.8439 85.0043 76.3202V65.8748C84.614 65.5605 84.2523 65.1606 84.0429 64.656C83.7668 63.9894 83.8049 63.2658 84.1571 62.5707C85.2138 60.4568 84.7378 60.2188 82.9672 59.3333C81.3775 58.5429 79.2452 57.4765 78.5122 54.4295H78.1791C77.4461 57.4765 75.3138 58.5429 73.7241 59.3333C71.9535 60.2188 71.4775 60.4568 72.5342 62.5707C72.8864 63.2753 72.9245 63.9894 72.6484 64.656C72.439 65.1606 72.0773 65.5605 71.687 65.8748V76.3202C71.687 76.8439 71.2586 77.2724 70.7351 77.2724C70.2115 77.2724 69.7831 76.8439 69.7831 76.3202V66.7984C69.3167 66.7984 68.9169 66.4556 68.8407 65.9985C68.7646 65.5415 69.0406 65.094 69.4785 64.9416C69.8498 64.8178 70.697 64.3894 70.8873 63.9228C70.9349 63.818 70.954 63.6752 70.8302 63.4181C68.9264 59.5999 71.1158 58.5049 72.8769 57.6289C74.4475 56.8385 76.0658 56.0292 76.4561 53.3345C76.5227 52.8679 76.9225 52.5156 77.3985 52.5156H79.3023C79.7783 52.5156 80.1781 52.8679 80.2447 53.3345C80.635 56.0292 82.2533 56.8385 83.824 57.6289C85.585 58.5049 87.7744 59.6094 85.8706 63.4181C85.7373 63.6752 85.7659 63.818 85.8135 63.9228C86.0134 64.3989 86.8606 64.8274 87.2223 64.9416C87.6697 65.0845 87.9362 65.532 87.8601 65.9985C87.7839 66.4556 87.3841 66.7984 86.9177 66.7984V76.3202C86.9082 76.8439 86.4798 77.2724 85.9562 77.2724Z" fill="#292929"/>
    <path d="M103.091 99.1726H53.5908C53.0673 99.1726 52.6389 98.7441 52.6389 98.2204V81.0811C52.6389 80.5574 53.0673 80.1289 53.5908 80.1289H103.091C103.614 80.1289 104.043 80.5574 104.043 81.0811V98.2204C104.043 98.7441 103.614 99.1726 103.091 99.1726ZM54.5428 97.2682H102.139V82.0333H54.5428V97.2682Z" fill="#292929"/>
    <path d="M74.5329 99.1726C74.0093 99.1726 73.5809 98.7441 73.5809 98.2204V82.0332C73.5809 81.5095 74.0093 81.0811 74.5329 81.0811C75.0564 81.0811 75.4848 81.5095 75.4848 82.0332V98.2204C75.4848 98.7441 75.0564 99.1726 74.5329 99.1726Z" fill="#292929"/>
    <path d="M82.1485 99.1726C81.6249 99.1726 81.1965 98.7441 81.1965 98.2204V82.0332C81.1965 81.5095 81.6249 81.0811 82.1485 81.0811C82.672 81.0811 83.1004 81.5095 83.1004 82.0332V98.2204C83.1004 98.7441 82.672 99.1726 82.1485 99.1726Z" fill="#292929"/>
    <path d="M103.091 83.937H53.5908C53.3243 83.937 53.1149 83.7276 53.1149 83.461C53.1149 83.1943 53.3243 82.9849 53.5908 82.9849H103.091C103.357 82.9849 103.567 83.1943 103.567 83.461C103.567 83.718 103.348 83.937 103.091 83.937Z" fill="#292929"/>
    <path d="M103.091 89.6504H53.5908C53.3243 89.6504 53.1149 89.4409 53.1149 89.1743C53.1149 88.9077 53.3243 88.6982 53.5908 88.6982H103.091C103.357 88.6982 103.567 88.9077 103.567 89.1743C103.567 89.4314 103.348 89.6504 103.091 89.6504Z" fill="#292929"/>
    <path d="M60.7299 96.7917C60.4633 96.7917 60.2539 96.5823 60.2539 96.3157V77.272C60.2539 77.0054 60.4633 76.7959 60.7299 76.7959C60.9964 76.7959 61.2058 77.0054 61.2058 77.272V96.3157C61.2058 96.5727 60.9869 96.7917 60.7299 96.7917Z" fill="#292929"/>
    <path d="M67.3934 96.7917C67.1269 96.7917 66.9175 96.5823 66.9175 96.3157V77.272C66.9175 77.0054 67.1269 76.7959 67.3934 76.7959C67.66 76.7959 67.8694 77.0054 67.8694 77.272V96.3157C67.8694 96.5727 67.6505 96.7917 67.3934 96.7917Z" fill="#292929"/>
    <path d="M104.042 82.0333H52.6387C52.1151 82.0333 51.6868 81.6048 51.6868 81.0811C51.6868 80.5574 52.1151 80.1289 52.6387 80.1289H104.042C104.566 80.1289 104.994 80.5574 104.994 81.0811C104.994 81.6048 104.566 82.0333 104.042 82.0333Z" fill="#292929"/>
    <path d="M66.9173 81.0813H54.0664C53.7999 81.0813 53.5905 80.8719 53.5905 80.6052V79.6911C53.5905 79.4721 53.7333 79.2912 53.9427 79.2341L55.4943 78.8151V78.2248C55.4943 78.1296 55.5229 78.0343 55.5704 77.9582L56.4462 76.6537V75.8443C56.4462 75.0445 57.2839 74.4161 58.35 74.4161C59.3496 74.4161 60.1682 75.0921 60.2444 75.9491C60.4252 75.9872 60.806 75.9776 61.2058 75.9205C61.2915 74.5303 62.4719 73.4639 63.9569 73.4639H64.1568C65.6989 73.4639 66.9173 74.616 66.9173 76.0824V76.3204C66.9173 76.587 66.7079 76.7965 66.4414 76.7965C66.1748 76.7965 65.9654 76.587 65.9654 76.3204V76.0824C65.9654 75.1302 65.1944 74.4161 64.1568 74.4161H63.9569C62.9288 74.4161 62.1482 75.1302 62.1482 76.0824V76.3204C62.1482 76.5394 61.9959 76.7394 61.777 76.787C61.2915 76.8917 60.1016 77.1012 59.578 76.6727C59.3972 76.5204 59.2925 76.3109 59.2925 76.0824C59.2925 75.692 58.8546 75.3682 58.3405 75.3682C57.7599 75.3682 57.3886 75.6539 57.3886 75.8443V76.7965C57.3886 76.8917 57.3601 76.9869 57.3125 77.0631L56.4367 78.3676V79.177C56.4367 79.396 56.2939 79.5769 56.0845 79.634L54.5329 80.053V80.1291H66.9078C67.1743 80.1291 67.3838 80.3386 67.3838 80.6052C67.3933 80.8623 67.1743 81.0813 66.9173 81.0813Z" fill="#292929"/>
    <path d="M102.615 81.0813H89.7637C89.4971 81.0813 89.2877 80.8719 89.2877 80.6052C89.2877 80.3386 89.4971 80.1291 89.7637 80.1291H102.139V80.053L100.587 79.634C100.378 79.5769 100.235 79.3864 100.235 79.177V78.3676L99.359 77.0631C99.3114 76.9869 99.2829 76.8917 99.2829 76.7965V75.8443C99.2829 75.6539 98.9116 75.3682 98.331 75.3682C97.8169 75.3682 97.379 75.692 97.379 76.0824C97.379 76.3204 97.2743 76.5299 97.0935 76.6727C96.5699 77.0917 95.38 76.8917 94.8945 76.787C94.6756 76.7394 94.5233 76.5489 94.5233 76.3204V76.0824C94.5233 75.1302 93.7522 74.4161 92.7146 74.4161H92.5147C91.4867 74.4161 90.7061 75.1302 90.7061 76.0824V76.3204C90.7061 76.587 90.4967 76.7965 90.2301 76.7965C89.9636 76.7965 89.7542 76.587 89.7542 76.3204V76.0824C89.7542 74.616 90.9631 73.4639 92.5147 73.4639H92.7146C94.1996 73.4639 95.38 74.5303 95.4657 75.9205C95.8655 75.9776 96.2463 75.9872 96.4271 75.9491C96.5033 75.0921 97.3219 74.4161 98.3214 74.4161C99.3876 74.4161 100.225 75.0445 100.225 75.8443V76.6537L101.101 77.9582C101.149 78.0343 101.177 78.1296 101.177 78.2248V78.8151L102.729 79.2341C102.938 79.2912 103.081 79.4817 103.081 79.6911V80.6052C103.091 80.8623 102.872 81.0813 102.615 81.0813Z" fill="#292929"/>
    <path d="M72.6291 77.272H55.4945C55.228 77.272 55.0186 77.0625 55.0186 76.7959C55.0186 76.5293 55.228 76.3198 55.4945 76.3198H72.6291C72.8956 76.3198 73.105 76.5293 73.105 76.7959C73.105 77.053 72.8861 77.272 72.6291 77.272Z" fill="#292929"/>
    <path d="M95.9511 96.7917C95.6845 96.7917 95.4751 96.5823 95.4751 96.3157V77.272C95.4751 77.0054 95.6845 76.7959 95.9511 76.7959C96.2176 76.7959 96.427 77.0054 96.427 77.272V96.3157C96.427 96.5727 96.2081 96.7917 95.9511 96.7917Z" fill="#292929"/>
    <path d="M89.2876 96.7917C89.0211 96.7917 88.8116 96.5823 88.8116 96.3157V77.272C88.8116 77.0054 89.0211 76.7959 89.2876 76.7959C89.5541 76.7959 89.7636 77.0054 89.7636 77.272V96.3157C89.7636 96.5727 89.5446 96.7917 89.2876 96.7917Z" fill="#292929"/>
    <path d="M101.187 77.272H84.0521C83.7856 77.272 83.5762 77.0625 83.5762 76.7959C83.5762 76.5293 83.7856 76.3198 84.0521 76.3198H101.187C101.453 76.3198 101.663 76.5293 101.663 76.7959C101.663 77.053 101.444 77.272 101.187 77.272Z" fill="#292929"/>
    <path d="M80.2442 80.6051C79.9777 80.6051 79.7683 80.3956 79.7683 80.129C79.7683 79.3387 79.1305 78.7007 78.3404 78.7007C77.5503 78.7007 76.9125 79.3387 76.9125 80.129C76.9125 80.3956 76.7031 80.6051 76.4365 80.6051C76.17 80.6051 75.9606 80.3956 75.9606 80.129C75.9606 78.815 77.0267 77.7485 78.3404 77.7485C79.654 77.7485 80.7202 78.815 80.7202 80.129C80.7202 80.3861 80.5012 80.6051 80.2442 80.6051Z" fill="#292929"/>
    <path d="M76.4367 80.6051C76.1702 80.6051 75.9607 80.3956 75.9607 80.129C75.9607 79.9385 75.5895 79.6529 75.0088 79.6529C74.4282 79.6529 74.0569 79.9385 74.0569 80.129C74.0569 80.3956 73.8475 80.6051 73.5809 80.6051C73.3144 80.6051 73.105 80.3956 73.105 80.129C73.105 79.3291 73.9427 78.7007 75.0088 78.7007C76.075 78.7007 76.9127 79.3291 76.9127 80.129C76.9127 80.3861 76.6937 80.6051 76.4367 80.6051Z" fill="#292929"/>
    <path d="M83.1 80.6051C82.8335 80.6051 82.6241 80.3956 82.6241 80.129C82.6241 79.9385 82.2528 79.6529 81.6722 79.6529C81.0915 79.6529 80.7202 79.9385 80.7202 80.129C80.7202 80.3956 80.5108 80.6051 80.2443 80.6051C79.9777 80.6051 79.7683 80.3956 79.7683 80.129C79.7683 79.3291 80.606 78.7007 81.6722 78.7007C82.7383 78.7007 83.576 79.3291 83.576 80.129C83.576 80.3861 83.3571 80.6051 83.1 80.6051Z" fill="#292929"/>
    <path d="M66.9177 74.416H59.3024C59.0358 74.416 58.8264 74.2066 58.8264 73.94C58.8264 73.6733 59.0358 73.4639 59.3024 73.4639H66.9177C67.1843 73.4639 67.3937 73.6733 67.3937 73.94C67.3937 74.197 67.1748 74.416 66.9177 74.416Z" fill="#292929"/>
    <path d="M97.379 74.416H89.7637C89.4971 74.416 89.2877 74.2066 89.2877 73.94C89.2877 73.6733 89.4971 73.4639 89.7637 73.4639H97.379C97.6456 73.4639 97.855 73.6733 97.855 73.94C97.855 74.197 97.6361 74.416 97.379 74.416Z" fill="#292929"/>
    <path d="M83.1001 74.416H73.5809C73.3144 74.416 73.105 74.2066 73.105 73.94C73.105 73.6733 73.3144 73.4639 73.5809 73.4639H83.1001C83.3667 73.4639 83.5761 73.6733 83.5761 73.94C83.5761 74.197 83.3572 74.416 83.1001 74.416Z" fill="#292929"/>
    <path d="M76.9126 78.7004C76.6461 78.7004 76.4366 78.4909 76.4366 78.2243V74.4155C76.4366 74.1489 76.6461 73.9395 76.9126 73.9395C77.1791 73.9395 77.3886 74.1489 77.3886 74.4155V78.2243C77.3886 78.4814 77.1696 78.7004 76.9126 78.7004Z" fill="#292929"/>
    <path d="M79.7682 78.7004C79.5017 78.7004 79.2922 78.4909 79.2922 78.2243V74.4155C79.2922 74.1489 79.5017 73.9395 79.7682 73.9395C80.0347 73.9395 80.2442 74.1489 80.2442 74.4155V78.2243C80.2442 78.4814 80.0252 78.7004 79.7682 78.7004Z" fill="#292929"/>
    <path d="M78.3407 54.4197C77.8172 54.4197 77.3888 53.9912 77.3888 53.4675V47.7544C77.3888 47.2307 77.8172 46.8022 78.3407 46.8022C78.8643 46.8022 79.2926 47.2307 79.2926 47.7544V53.4675C79.2926 53.9912 78.8643 54.4197 78.3407 54.4197Z" fill="#292929"/>
    <path d="M80.2441 50.6109H76.4364C75.9129 50.6109 75.4845 50.1824 75.4845 49.6587C75.4845 49.135 75.9129 48.7065 76.4364 48.7065H80.2441C80.7676 48.7065 81.196 49.135 81.196 49.6587C81.196 50.1824 80.7676 50.6109 80.2441 50.6109Z" fill="#292929"/>
    <path d="M63.1101 67.7502C62.5866 67.7502 62.1582 67.3217 62.1582 66.798V62.9893C62.1582 62.4656 62.5866 62.0371 63.1101 62.0371C63.6337 62.0371 64.062 62.4656 64.062 62.9893V66.798C64.062 67.3217 63.6337 67.7502 63.1101 67.7502Z" fill="#292929"/>
    <path d="M65.0135 65.8463H61.2058C60.6823 65.8463 60.2539 65.4178 60.2539 64.8941C60.2539 64.3704 60.6823 63.9419 61.2058 63.9419H65.0135C65.5371 63.9419 65.9654 64.3704 65.9654 64.8941C65.9654 65.4178 65.5371 65.8463 65.0135 65.8463Z" fill="#292929"/>
    <path d="M93.5713 67.7502C93.0477 67.7502 92.6194 67.3217 92.6194 66.798V62.9893C92.6194 62.4656 93.0477 62.0371 93.5713 62.0371C94.0949 62.0371 94.5232 62.4656 94.5232 62.9893V66.798C94.5232 67.3217 94.0949 67.7502 93.5713 67.7502Z" fill="#292929"/>
    <path d="M95.4754 65.8463H91.6677C91.1442 65.8463 90.7158 65.4178 90.7158 64.8941C90.7158 64.3704 91.1442 63.9419 91.6677 63.9419H95.4754C95.999 63.9419 96.4274 64.3704 96.4274 64.8941C96.4274 65.4178 95.999 65.8463 95.4754 65.8463Z" fill="#292929"/>
    <path d="M78.3407 63.9411C77.8172 63.9411 77.3888 63.5126 77.3888 62.9889V59.1802C77.3888 58.6565 77.8172 58.228 78.3407 58.228C78.8643 58.228 79.2926 58.6565 79.2926 59.1802V62.9889C79.2926 63.5126 78.8643 63.9411 78.3407 63.9411Z" fill="#292929"/>
    <path d="M80.2441 62.0372H76.4364C75.9129 62.0372 75.4845 61.6087 75.4845 61.085C75.4845 60.5613 75.9129 60.1328 76.4364 60.1328H80.2441C80.7676 60.1328 81.196 60.5613 81.196 61.085C81.196 61.6087 80.7676 62.0372 80.2441 62.0372Z" fill="#292929"/>
    <path d="M54.0664 81.5569C53.7999 81.5569 53.5905 81.3474 53.5905 81.0808V74.8916C53.5905 74.625 53.7999 74.4155 54.0664 74.4155H57.3981C57.6647 74.4155 57.8741 74.625 57.8741 74.8916C57.8741 75.1582 57.6647 75.3677 57.3981 75.3677H54.5424V81.0808C54.5424 81.3379 54.3234 81.5569 54.0664 81.5569Z" fill="#292929"/>
    <path d="M102.614 81.5569C102.348 81.5569 102.138 81.3474 102.138 81.0808V75.3677H99.2827C99.0162 75.3677 98.8068 75.1582 98.8068 74.8916C98.8068 74.625 99.0162 74.4155 99.2827 74.4155H102.614C102.881 74.4155 103.09 74.625 103.09 74.8916V81.0808C103.09 81.3379 102.871 81.5569 102.614 81.5569Z" fill="#292929"/>
    <path d="M69.7734 75.3677H67.8695C67.603 75.3677 67.3936 75.1582 67.3936 74.8916C67.3936 74.625 67.603 74.4155 67.8695 74.4155H69.7734C70.0399 74.4155 70.2493 74.625 70.2493 74.8916C70.2493 75.1487 70.0304 75.3677 69.7734 75.3677Z" fill="#292929"/>
    <path d="M88.8117 75.3677H86.9078C86.6413 75.3677 86.4319 75.1582 86.4319 74.8916C86.4319 74.625 86.6413 74.4155 86.9078 74.4155H88.8117C89.0782 74.4155 89.2877 74.625 89.2877 74.8916C89.2877 75.1487 89.0687 75.3677 88.8117 75.3677Z" fill="#292929"/>
    <path d="M58.8263 79.6524C58.5598 79.6524 58.3503 79.443 58.3503 79.1764V77.272C58.3503 77.0054 58.5598 76.7959 58.8263 76.7959C59.0928 76.7959 59.3023 77.0054 59.3023 77.272V79.1764C59.3023 79.4334 59.0833 79.6524 58.8263 79.6524Z" fill="#292929"/>
    <path d="M58.8263 82.5089C58.5598 82.5089 58.3503 82.2994 58.3503 82.0328V81.0806C58.3503 80.814 58.5598 80.6045 58.8263 80.6045C59.0928 80.6045 59.3023 80.814 59.3023 81.0806V82.0328C59.3023 82.2899 59.0833 82.5089 58.8263 82.5089Z" fill="#292929"/>
    <path d="M62.6342 82.5089C62.3676 82.5089 62.1582 82.2994 62.1582 82.0328V81.0806C62.1582 80.814 62.3676 80.6045 62.6342 80.6045C62.9007 80.6045 63.1101 80.814 63.1101 81.0806V82.0328C63.1101 82.2899 62.8912 82.5089 62.6342 82.5089Z" fill="#292929"/>
    <path d="M65.4898 82.5089C65.2232 82.5089 65.0138 82.2994 65.0138 82.0328V81.0806C65.0138 80.814 65.2232 80.6045 65.4898 80.6045C65.7563 80.6045 65.9657 80.814 65.9657 81.0806V82.0328C65.9657 82.2899 65.7468 82.5089 65.4898 82.5089Z" fill="#292929"/>
    <path d="M69.2975 82.5089C69.031 82.5089 68.8215 82.2994 68.8215 82.0328V81.0806C68.8215 80.814 69.031 80.6045 69.2975 80.6045C69.564 80.6045 69.7735 80.814 69.7735 81.0806V82.0328C69.7735 82.2899 69.5545 82.5089 69.2975 82.5089Z" fill="#292929"/>
    <path d="M72.1533 82.5089C71.8868 82.5089 71.6774 82.2994 71.6774 82.0328V81.0806C71.6774 80.814 71.8868 80.6045 72.1533 80.6045C72.4199 80.6045 72.6293 80.814 72.6293 81.0806V82.0328C72.6293 82.2899 72.4103 82.5089 72.1533 82.5089Z" fill="#292929"/>
    <path d="M55.9706 82.5089C55.7041 82.5089 55.4946 82.2994 55.4946 82.0328V81.0806C55.4946 80.814 55.7041 80.6045 55.9706 80.6045C56.2371 80.6045 56.4465 80.814 56.4465 81.0806V82.0328C56.4465 82.2899 56.2276 82.5089 55.9706 82.5089Z" fill="#292929"/>
    <path d="M100.711 82.5089C100.444 82.5089 100.235 82.2994 100.235 82.0328V81.0806C100.235 80.814 100.444 80.6045 100.711 80.6045C100.977 80.6045 101.187 80.814 101.187 81.0806V82.0328C101.187 82.2899 100.968 82.5089 100.711 82.5089Z" fill="#292929"/>
    <path d="M97.8546 82.5089C97.5881 82.5089 97.3787 82.2994 97.3787 82.0328V81.0806C97.3787 80.814 97.5881 80.6045 97.8546 80.6045C98.1212 80.6045 98.3306 80.814 98.3306 81.0806V82.0328C98.3306 82.2899 98.1116 82.5089 97.8546 82.5089Z" fill="#292929"/>
    <path d="M64.0615 79.1769C63.538 79.1769 63.1096 78.7484 63.1096 78.2247V76.3203C63.1096 75.7966 63.538 75.3682 64.0615 75.3682C64.5851 75.3682 65.0135 75.7966 65.0135 76.3203V78.2247C65.0135 78.7484 64.5851 79.1769 64.0615 79.1769Z" fill="#292929"/>
    <path d="M92.6192 79.1769C92.0956 79.1769 91.6672 78.7484 91.6672 78.2247V76.3203C91.6672 75.7966 92.0956 75.3682 92.6192 75.3682C93.1427 75.3682 93.5711 75.7966 93.5711 76.3203V78.2247C93.5711 78.7484 93.1427 79.1769 92.6192 79.1769Z" fill="#292929"/>
    <path d="M70.2492 79.6524C69.9826 79.6524 69.7732 79.443 69.7732 79.1764V77.272C69.7732 77.0054 69.9826 76.7959 70.2492 76.7959C70.5157 76.7959 70.7251 77.0054 70.7251 77.272V79.1764C70.7251 79.4334 70.5062 79.6524 70.2492 79.6524Z" fill="#292929"/>
    <path d="M86.4318 79.6524C86.1652 79.6524 85.9558 79.443 85.9558 79.1764V77.272C85.9558 77.0054 86.1652 76.7959 86.4318 76.7959C86.6983 76.7959 86.9077 77.0054 86.9077 77.272V79.1764C86.9077 79.4334 86.6888 79.6524 86.4318 79.6524Z" fill="#292929"/>
    <path d="M97.8546 79.6524C97.5881 79.6524 97.3787 79.443 97.3787 79.1764V77.272C97.3787 77.0054 97.5881 76.7959 97.8546 76.7959C98.1212 76.7959 98.3306 77.0054 98.3306 77.272V79.1764C98.3306 79.4334 98.1116 79.6524 97.8546 79.6524Z" fill="#292929"/>
    <path d="M84.5282 82.5089C84.2617 82.5089 84.0522 82.2994 84.0522 82.0328V81.0806C84.0522 80.814 84.2617 80.6045 84.5282 80.6045C84.7947 80.6045 85.0042 80.814 85.0042 81.0806V82.0328C85.0042 82.2899 84.7852 82.5089 84.5282 82.5089Z" fill="#292929"/>
    <path d="M87.3839 82.5089C87.1174 82.5089 86.908 82.2994 86.908 82.0328V81.0806C86.908 80.814 87.1174 80.6045 87.3839 80.6045C87.6504 80.6045 87.8599 80.814 87.8599 81.0806V82.0328C87.8599 82.2899 87.6409 82.5089 87.3839 82.5089Z" fill="#292929"/>
    <path d="M91.1918 82.5089C90.9252 82.5089 90.7158 82.2994 90.7158 82.0328V81.0806C90.7158 80.814 90.9252 80.6045 91.1918 80.6045C91.4583 80.6045 91.6677 80.814 91.6677 81.0806V82.0328C91.6677 82.2899 91.4488 82.5089 91.1918 82.5089Z" fill="#292929"/>
    <path d="M94.0475 82.5089C93.781 82.5089 93.5715 82.2994 93.5715 82.0328V81.0806C93.5715 80.814 93.781 80.6045 94.0475 80.6045C94.314 80.6045 94.5235 80.814 94.5235 81.0806V82.0328C94.5235 82.2899 94.3045 82.5089 94.0475 82.5089Z" fill="#292929"/>
    <path d="M62.158 73.9395C62.1009 73.9395 62.0343 73.9299 61.9771 73.9014C61.7392 73.7966 61.6249 73.5205 61.7201 73.2825C61.7201 73.2825 61.92 72.7302 61.6916 71.6638C61.3965 70.3021 61.8248 69.788 62.1961 69.3404C62.377 69.1214 62.5483 68.9119 62.6625 68.5692C62.7863 68.1788 63.4431 68.1788 63.5669 68.5692C63.6811 68.9119 63.8524 69.1214 64.0333 69.3404C64.4045 69.788 64.8234 70.3021 64.5378 71.6638C64.3094 72.7302 64.5093 73.2825 64.5188 73.292C64.614 73.53 64.4902 73.8062 64.2522 73.9109C64.0143 74.0061 63.7382 73.9014 63.6335 73.6538C63.5954 73.5776 63.3194 72.8349 63.6049 71.4638C63.7953 70.5497 63.6144 70.3212 63.3003 69.9403C63.2432 69.8736 63.1861 69.7975 63.1195 69.7118C63.0528 69.7975 62.9957 69.8736 62.9386 69.9403C62.6245 70.3212 62.4341 70.5497 62.634 71.4638C62.9291 72.8349 62.6435 73.5681 62.6054 73.6538C62.5197 73.8252 62.3389 73.9395 62.158 73.9395Z" fill="#292929"/>
    <path d="M92.6192 73.9395C92.5621 73.9395 92.4954 73.9299 92.4383 73.9014C92.2003 73.7966 92.0861 73.5205 92.1813 73.2825C92.1813 73.2825 92.3812 72.7302 92.1528 71.6638C91.8577 70.3021 92.286 69.788 92.6573 69.3404C92.8381 69.1214 93.0095 68.9119 93.1237 68.5692C93.2475 68.1788 93.9043 68.1788 94.028 68.5692C94.1423 68.9119 94.3136 69.1214 94.4945 69.3404C94.8657 69.788 95.2846 70.3021 94.999 71.6638C94.7705 72.7302 94.9704 73.2825 94.9799 73.292C95.0751 73.53 94.9514 73.8062 94.7134 73.9109C94.4754 74.0061 94.1994 73.9014 94.0947 73.6538C94.0566 73.5776 93.7805 72.8349 94.0661 71.4638C94.2565 70.5497 94.0756 70.3212 93.7615 69.9403C93.7044 69.8736 93.6473 69.7975 93.5806 69.7118C93.514 69.7975 93.4569 69.8736 93.3998 69.9403C93.0856 70.3212 92.8952 70.5497 93.0951 71.4638C93.3902 72.8349 93.1047 73.5681 93.0666 73.6538C92.9809 73.8252 92.8001 73.9395 92.6192 73.9395Z" fill="#292929"/>
    <path d="M80.2444 73.9396C80.2064 73.9396 80.1683 73.9396 80.1302 73.93C79.9113 73.8824 78.8356 73.492 79.2925 70.9116C79.6542 68.9025 79.1783 67.9694 78.6357 66.8934C78.531 66.6934 78.4263 66.484 78.3311 66.265C78.2264 66.484 78.1312 66.6839 78.0265 66.8934C77.4839 67.9694 77.0174 68.9025 77.3696 70.9116C77.8266 73.5016 76.7509 73.8824 76.532 73.93C76.275 73.9872 76.0179 73.8348 75.9608 73.5682C75.9037 73.3111 76.056 73.054 76.313 72.9969C76.294 72.9969 76.7128 72.6922 76.4273 71.064C76.0179 68.7406 76.5986 67.579 77.1698 66.4459C77.4268 65.9317 77.6933 65.408 77.8646 64.7605C77.9789 64.3415 78.6738 64.3415 78.788 64.7605C78.9593 65.408 79.2259 65.9412 79.4829 66.4459C80.054 67.5695 80.6347 68.7311 80.2254 71.064C79.9303 72.7208 80.3872 73.0064 80.3872 73.0064C80.6442 73.0636 80.7775 73.3111 80.7204 73.5682C80.6728 73.7967 80.4634 73.9396 80.2444 73.9396Z" fill="#292929"/>
    <path d="M82.1481 66.3216C82.11 66.3216 82.0814 66.3216 82.0434 66.3121C81.9672 66.2931 81.5769 66.1883 81.3009 65.7027C80.9011 65.0076 80.9582 63.8936 81.4532 62.3986C82.3289 59.7801 81.2152 58.6089 79.8159 57.1235C79.3018 56.5808 78.7783 56.019 78.3309 55.362C77.893 56.019 77.3599 56.5713 76.8459 57.1235C75.4466 58.6089 74.3328 59.7801 75.2086 62.3986C75.7036 63.8936 75.7607 65.0076 75.3609 65.7027C75.0848 66.1883 74.6945 66.2931 74.6184 66.3121C74.3614 66.3692 74.1043 66.2074 74.0472 65.9503C73.9901 65.6932 74.1519 65.4361 74.409 65.3885C74.5803 65.3218 74.9515 64.6839 74.2947 62.7033C73.2381 59.5421 74.7136 57.9805 76.1415 56.476C76.7888 55.7905 77.4551 55.0859 77.8835 54.2194C78.0453 53.8956 78.5784 53.8956 78.7307 54.2194C79.159 55.0859 79.8349 55.7905 80.4727 56.476C81.9006 57.9805 83.3761 59.5421 82.3194 62.7033C81.6626 64.6839 82.0338 65.3218 82.2337 65.398C82.4908 65.4551 82.6431 65.7027 82.586 65.9598C82.5764 66.1693 82.367 66.3216 82.1481 66.3216Z" fill="#292929"/>
    <path d="M75.9605 77.7486C75.6939 77.7486 75.4845 77.5391 75.4845 77.2725V76.3203C75.4845 76.0537 75.6939 75.8442 75.9605 75.8442C76.227 75.8442 76.4364 76.0537 76.4364 76.3203V77.2725C76.4364 77.5296 76.2175 77.7486 75.9605 77.7486Z" fill="#292929"/>
    <path d="M80.7203 77.7486C80.4538 77.7486 80.2444 77.5391 80.2444 77.2725V76.3203C80.2444 76.0537 80.4538 75.8442 80.7203 75.8442C80.9869 75.8442 81.1963 76.0537 81.1963 76.3203V77.2725C81.1963 77.5296 80.9774 77.7486 80.7203 77.7486Z" fill="#292929"/>
    <path d="M57.398 87.7462C56.8744 87.7462 56.446 87.3177 56.446 86.794V85.8418C56.446 85.3181 56.8744 84.8896 57.398 84.8896C57.9215 84.8896 58.3499 85.3181 58.3499 85.8418V86.794C58.3499 87.3177 57.9215 87.7462 57.398 87.7462Z" fill="#292929"/>
    <path d="M57.398 98.2199C56.8744 98.2199 56.446 97.7914 56.446 97.2677V95.3633C56.446 94.8396 56.8744 94.4111 57.398 94.4111C57.9215 94.4111 58.3499 94.8396 58.3499 95.3633V97.2677C58.3499 97.7914 57.9215 98.2199 57.398 98.2199Z" fill="#292929"/>
    <path d="M57.398 93.4591C56.8744 93.4591 56.446 93.0306 56.446 92.5069V91.5547C56.446 91.031 56.8744 90.6025 57.398 90.6025C57.9215 90.6025 58.3499 91.031 58.3499 91.5547V92.5069C58.3499 93.0306 57.9215 93.4591 57.398 93.4591Z" fill="#292929"/>
    <path d="M85.9557 98.2199C85.4322 98.2199 85.0038 97.7914 85.0038 97.2677V95.3633C85.0038 94.8396 85.4322 94.4111 85.9557 94.4111C86.4793 94.4111 86.9076 94.8396 86.9076 95.3633V97.2677C86.9076 97.7914 86.4793 98.2199 85.9557 98.2199Z" fill="#292929"/>
    <path d="M85.9557 93.4591C85.4322 93.4591 85.0038 93.0306 85.0038 92.5069V91.5547C85.0038 91.031 85.4322 90.6025 85.9557 90.6025C86.4793 90.6025 86.9076 91.031 86.9076 91.5547V92.5069C86.9076 93.0306 86.4793 93.4591 85.9557 93.4591Z" fill="#292929"/>
    <path d="M64.0615 93.4591C63.538 93.4591 63.1096 93.0306 63.1096 92.5069V91.5547C63.1096 91.031 63.538 90.6025 64.0615 90.6025C64.5851 90.6025 65.0135 91.031 65.0135 91.5547V92.5069C65.0135 93.0306 64.5851 93.4591 64.0615 93.4591Z" fill="#292929"/>
    <path d="M92.6192 93.4591C92.0956 93.4591 91.6672 93.0306 91.6672 92.5069V91.5547C91.6672 91.031 92.0956 90.6025 92.6192 90.6025C93.1427 90.6025 93.5711 91.031 93.5711 91.5547V92.5069C93.5711 93.0306 93.1427 93.4591 92.6192 93.4591Z" fill="#292929"/>
    <path d="M70.7251 98.2199C70.2016 98.2199 69.7732 97.7914 69.7732 97.2677V95.3633C69.7732 94.8396 70.2016 94.4111 70.7251 94.4111C71.2487 94.4111 71.677 94.8396 71.677 95.3633V97.2677C71.677 97.7914 71.2487 98.2199 70.7251 98.2199Z" fill="#292929"/>
    <path d="M70.7251 93.4591C70.2016 93.4591 69.7732 93.0306 69.7732 92.5069V91.5547C69.7732 91.031 70.2016 90.6025 70.7251 90.6025C71.2487 90.6025 71.677 91.031 71.677 91.5547V92.5069C71.677 93.0306 71.2487 93.4591 70.7251 93.4591Z" fill="#292929"/>
    <path d="M99.2827 98.2199C98.7592 98.2199 98.3308 97.7914 98.3308 97.2677V95.3633C98.3308 94.8396 98.7592 94.4111 99.2827 94.4111C99.8063 94.4111 100.235 94.8396 100.235 95.3633V97.2677C100.235 97.7914 99.8063 98.2199 99.2827 98.2199Z" fill="#292929"/>
    <path d="M99.2827 93.4591C98.7592 93.4591 98.3308 93.0306 98.3308 92.5069V91.5547C98.3308 91.031 98.7592 90.6025 99.2827 90.6025C99.8063 90.6025 100.235 91.031 100.235 91.5547V92.5069C100.235 93.0306 99.8063 93.4591 99.2827 93.4591Z" fill="#292929"/>
    <path d="M64.0615 87.7462C63.538 87.7462 63.1096 87.3177 63.1096 86.794V85.8418C63.1096 85.3181 63.538 84.8896 64.0615 84.8896C64.5851 84.8896 65.0135 85.3181 65.0135 85.8418V86.794C65.0135 87.3177 64.5851 87.7462 64.0615 87.7462Z" fill="#292929"/>
    <path d="M70.7251 87.7462C70.2016 87.7462 69.7732 87.3177 69.7732 86.794V85.8418C69.7732 85.3181 70.2016 84.8896 70.7251 84.8896C71.2487 84.8896 71.677 85.3181 71.677 85.8418V86.794C71.677 87.3177 71.2487 87.7462 70.7251 87.7462Z" fill="#292929"/>
    <path d="M78.3407 82.0333C77.8172 82.0333 77.3888 81.6048 77.3888 81.0811V80.1289C77.3888 79.6052 77.8172 79.1768 78.3407 79.1768C78.8643 79.1768 79.2926 79.6052 79.2926 80.1289V81.0811C79.2926 81.6048 78.8643 82.0333 78.3407 82.0333Z" fill="#292929"/>
    <path d="M85.9557 87.7462C85.4322 87.7462 85.0038 87.3177 85.0038 86.794V85.8418C85.0038 85.3181 85.4322 84.8896 85.9557 84.8896C86.4793 84.8896 86.9076 85.3181 86.9076 85.8418V86.794C86.9076 87.3177 86.4793 87.7462 85.9557 87.7462Z" fill="#292929"/>
    <path d="M92.6192 87.7462C92.0956 87.7462 91.6672 87.3177 91.6672 86.794V85.8418C91.6672 85.3181 92.0956 84.8896 92.6192 84.8896C93.1427 84.8896 93.5711 85.3181 93.5711 85.8418V86.794C93.5711 87.3177 93.1427 87.7462 92.6192 87.7462Z" fill="#292929"/>
    <path d="M99.2827 87.7462C98.7592 87.7462 98.3308 87.3177 98.3308 86.794V85.8418C98.3308 85.3181 98.7592 84.8896 99.2827 84.8896C99.8063 84.8896 100.235 85.3181 100.235 85.8418V86.794C100.235 87.3177 99.8063 87.7462 99.2827 87.7462Z" fill="#292929"/>
    <path d="M76.9126 87.2701C76.6461 87.2701 76.4366 87.0606 76.4366 86.794V85.8418C76.4366 85.5752 76.6461 85.3657 76.9126 85.3657C77.1791 85.3657 77.3886 85.5752 77.3886 85.8418V86.794C77.3886 87.0511 77.1696 87.2701 76.9126 87.2701Z" fill="#292929"/>
    <path d="M79.7682 87.2701C79.5017 87.2701 79.2922 87.0606 79.2922 86.794V85.8418C79.2922 85.5752 79.5017 85.3657 79.7682 85.3657C80.0347 85.3657 80.2442 85.5752 80.2442 85.8418V86.794C80.2442 87.0511 80.0252 87.2701 79.7682 87.2701Z" fill="#292929"/>
    <path d="M79.7684 98.6961C79.5018 98.6961 79.2924 98.4866 79.2924 98.22V92.6497L78.5594 91.5547H78.1216L77.3886 92.6497V98.22C77.3886 98.4866 77.1791 98.6961 76.9126 98.6961C76.6461 98.6961 76.4366 98.4866 76.4366 98.22V92.5069C76.4366 92.4117 76.4652 92.3165 76.5128 92.2403L77.4647 90.812C77.5504 90.6787 77.7027 90.6025 77.8645 90.6025H78.8165C78.9783 90.6025 79.1211 90.6787 79.2163 90.812L80.1682 92.2403C80.2158 92.3165 80.2443 92.4117 80.2443 92.5069V98.22C80.2443 98.4771 80.0254 98.6961 79.7684 98.6961Z" fill="#292929"/>
    <path d="M45.5467 99.9472H24.6045C24.081 99.9472 23.6526 99.5187 23.6526 98.995V89.4732C23.6526 88.9495 24.081 88.521 24.6045 88.521H45.5467C46.0703 88.521 46.4987 88.9495 46.4987 89.4732V98.995C46.4987 99.5187 46.0703 99.9472 45.5467 99.9472ZM25.5564 98.0428H44.5948V90.4254H25.5564V98.0428Z" fill="#292929"/>
    <path d="M45.5467 87.5689H24.6045C24.081 87.5689 23.6526 87.1404 23.6526 86.6167V75.1905C23.6526 74.6668 24.081 74.2383 24.6045 74.2383H45.5467C46.0703 74.2383 46.4987 74.6668 46.4987 75.1905V86.6167C46.4987 87.1404 46.0703 87.5689 45.5467 87.5689ZM25.5564 85.6645H44.5948V76.1426H25.5564V85.6645Z" fill="#292929"/>
    <path d="M43.6426 73.2857H26.5081C25.9845 73.2857 25.5562 72.8572 25.5562 72.3335V59.9551C25.5562 59.4314 25.9845 59.0029 26.5081 59.0029H43.6426C44.1662 59.0029 44.5946 59.4314 44.5946 59.9551V72.3335C44.5946 72.8572 44.1662 73.2857 43.6426 73.2857ZM27.46 71.3813H42.6907V60.9073H27.46V71.3813Z" fill="#292929"/>
    <path d="M41.7385 58.0515H28.4116C27.8881 58.0515 27.4597 57.623 27.4597 57.0993V39.96C27.4597 39.4363 27.8881 39.0078 28.4116 39.0078H41.7385C42.2621 39.0078 42.6904 39.4363 42.6904 39.96V57.0993C42.6904 57.623 42.2621 58.0515 41.7385 58.0515ZM29.3636 56.1471H40.7866V40.9122H29.3636V56.1471Z" fill="#292929"/>
    <path d="M40.7868 39.9596C40.2633 39.9596 39.8349 39.5311 39.8349 39.0074C39.8349 37.4172 39.0353 36.7126 37.9311 35.7319C36.9791 34.894 35.9225 33.9513 35.3228 32.3421H34.8183C34.2186 33.9608 33.1619 34.894 32.21 35.7319C31.1058 36.7031 30.3062 37.4077 30.3062 39.0074C30.3062 39.5311 29.8778 39.9596 29.3543 39.9596C28.8307 39.9596 28.4023 39.5311 28.4023 39.0074C28.4023 36.5508 29.7541 35.3605 30.944 34.3036C31.9054 33.4562 32.8097 32.6563 33.1905 31.1519C33.2952 30.7234 33.676 30.4282 34.1139 30.4282H36.0177C36.4556 30.4282 36.8363 30.7234 36.9411 31.1519C37.3123 32.6468 38.2262 33.4562 39.1876 34.3036C40.3775 35.3605 41.7292 36.5508 41.7292 39.0074C41.7387 39.5311 41.3104 39.9596 40.7868 39.9596Z" fill="#292929"/>
    <path d="M35.0752 32.3421C34.5517 32.3421 34.1233 31.9137 34.1233 31.39V23.7725C34.1233 23.2488 34.5517 22.8203 35.0752 22.8203C35.5988 22.8203 36.0271 23.2488 36.0271 23.7725V31.39C36.0271 31.9137 35.5988 32.3421 35.0752 32.3421Z" fill="#292929"/>
    <path d="M36.0275 29.4859H34.1237C33.6001 29.4859 33.1718 29.0574 33.1718 28.5337C33.1718 28.01 33.6001 27.5815 34.1237 27.5815H36.0275C36.5511 27.5815 36.9794 28.01 36.9794 28.5337C36.9794 29.0574 36.5511 29.4859 36.0275 29.4859Z" fill="#292929"/>
    <path d="M36.9792 26.629H33.1715C32.648 26.629 32.2196 26.2005 32.2196 25.6768C32.2196 25.1531 32.648 24.7246 33.1715 24.7246H36.9792C37.5028 24.7246 37.9311 25.1531 37.9311 25.6768C37.9311 26.2005 37.5028 26.629 36.9792 26.629Z" fill="#292929"/>
    <path d="M46.4984 76.1426H23.6524C23.1288 76.1426 22.7004 75.7142 22.7004 75.1905C22.7004 74.6668 23.1288 74.2383 23.6524 74.2383H46.4984C47.022 74.2383 47.4504 74.6668 47.4504 75.1905C47.4504 75.7142 47.022 76.1426 46.4984 76.1426Z" fill="#292929"/>
    <path d="M44.5943 60.9073H25.5559C25.0324 60.9073 24.604 60.4788 24.604 59.9551C24.604 59.4314 25.0324 59.0029 25.5559 59.0029H44.5943C45.1179 59.0029 45.5462 59.4314 45.5462 59.9551C45.5462 60.4788 45.1179 60.9073 44.5943 60.9073Z" fill="#292929"/>
    <path d="M43.6619 60.9079C43.6524 60.9079 43.6524 60.9079 43.6428 60.9079H26.5083C26.1275 60.9079 25.7753 60.6794 25.6325 60.3175C25.4897 59.9557 25.5659 59.5558 25.842 59.2797L28.6977 56.4231C28.8786 56.2422 29.1166 56.147 29.3736 56.147H40.7966C41.0536 56.147 41.2916 56.2517 41.4725 56.4231L44.2235 59.1749C44.471 59.3463 44.6233 59.632 44.6233 59.9557C44.6138 60.4794 44.1854 60.9079 43.6619 60.9079ZM28.8024 59.0035H41.3392L40.3873 58.0513H29.7543L28.8024 59.0035Z" fill="#292929"/>
    <path d="M45.5653 76.1427C45.5558 76.1427 45.5558 76.1427 45.5462 76.1427H24.604C24.2232 76.1427 23.871 75.9142 23.7282 75.5524C23.5854 75.1906 23.6616 74.7907 23.9377 74.5145L26.7934 71.658C26.9743 71.4771 27.2123 71.3818 27.4693 71.3818H42.7C42.957 71.3818 43.195 71.4866 43.3759 71.658L46.1269 74.4098C46.3744 74.5812 46.5267 74.8668 46.5267 75.1906C46.5172 75.7143 46.0888 76.1427 45.5653 76.1427ZM26.8981 74.2384H43.2426L42.2907 73.2862H27.85L26.8981 74.2384Z" fill="#292929"/>
    <path d="M45.5467 90.4255H24.6045C24.081 90.4255 23.6526 89.997 23.6526 89.4733V86.6167C23.6526 86.093 24.081 85.6646 24.6045 85.6646H45.5467C46.0703 85.6646 46.4987 86.093 46.4987 86.6167V89.4733C46.4987 89.997 46.0703 90.4255 45.5467 90.4255ZM25.5564 88.5211H44.5948V87.5689H25.5564V88.5211Z" fill="#292929"/>
    <path d="M42.6908 40.9122H27.4601C26.9365 40.9122 26.5082 40.4837 26.5082 39.96C26.5082 39.4363 26.9365 39.0078 27.4601 39.0078H42.6908C43.2144 39.0078 43.6427 39.4363 43.6427 39.96C43.6427 40.4837 43.2144 40.9122 42.6908 40.9122Z" fill="#292929"/>
    <path d="M42.6908 44.7208H27.4601C26.9365 44.7208 26.5082 44.2923 26.5082 43.7686C26.5082 43.2449 26.9365 42.8164 27.4601 42.8164H42.6908C43.2144 42.8164 43.6427 43.2449 43.6427 43.7686C43.6427 44.2923 43.2144 44.7208 42.6908 44.7208Z" fill="#292929"/>
    <path d="M46.4984 90.4254H23.6524C23.1288 90.4254 22.7004 89.9969 22.7004 89.4732C22.7004 88.9495 23.1288 88.521 23.6524 88.521H46.4984C47.022 88.521 47.4504 88.9495 47.4504 89.4732C47.4504 89.9969 47.022 90.4254 46.4984 90.4254Z" fill="#292929"/>
    <path d="M44.5944 69.4771H25.556C25.2895 69.4771 25.0801 69.2676 25.0801 69.001C25.0801 68.7344 25.2895 68.5249 25.556 68.5249H44.5944C44.861 68.5249 45.0704 68.7344 45.0704 69.001C45.0704 69.2581 44.861 69.4771 44.5944 69.4771Z" fill="#292929"/>
    <path d="M42.6909 54.2427H27.4602C27.1937 54.2427 26.9843 54.0332 26.9843 53.7666C26.9843 53.5 27.1937 53.2905 27.4602 53.2905H42.6909C42.9575 53.2905 43.1669 53.5 43.1669 53.7666C43.1669 54.0237 42.9575 54.2427 42.6909 54.2427Z" fill="#292929"/>
    <path d="M29.84 97.5667C29.5734 97.5667 29.364 97.3572 29.364 97.0906V90.4253C29.364 90.1587 29.5734 89.9492 29.84 89.9492C30.1065 89.9492 30.3159 90.1587 30.3159 90.4253V97.0906C30.3159 97.3477 30.1065 97.5667 29.84 97.5667Z" fill="#292929"/>
    <path d="M32.6956 97.5667C32.429 97.5667 32.2196 97.3572 32.2196 97.0906V90.4253C32.2196 90.1587 32.429 89.9492 32.6956 89.9492C32.9621 89.9492 33.1715 90.1587 33.1715 90.4253V97.0906C33.1715 97.3477 32.9621 97.5667 32.6956 97.5667Z" fill="#292929"/>
    <path d="M40.3112 97.5667C40.0446 97.5667 39.8352 97.3572 39.8352 97.0906V90.4253C39.8352 90.1587 40.0446 89.9492 40.3112 89.9492C40.5777 89.9492 40.7871 90.1587 40.7871 90.4253V97.0906C40.7871 97.3477 40.5777 97.5667 40.3112 97.5667Z" fill="#292929"/>
    <path d="M37.4548 97.5667C37.1883 97.5667 36.9789 97.3572 36.9789 97.0906V90.4253C36.9789 90.1587 37.1883 89.9492 37.4548 89.9492C37.7214 89.9492 37.9308 90.1587 37.9308 90.4253V97.0906C37.9308 97.3477 37.7214 97.5667 37.4548 97.5667Z" fill="#292929"/>
    <path d="M33.6477 86.6166H29.84C29.5734 86.6166 29.364 86.4072 29.364 86.1405V75.6665C29.364 75.3999 29.5734 75.1904 29.84 75.1904H33.6477C33.9142 75.1904 34.1236 75.3999 34.1236 75.6665V86.1405C34.1236 86.3976 33.9142 86.6166 33.6477 86.6166ZM30.3159 85.6645H33.1717V76.1426H30.3159V85.6645Z" fill="#292929"/>
    <path d="M32.6957 69.4774H30.7919C30.5253 69.4774 30.3159 69.2679 30.3159 69.0013V60.4317C30.3159 60.165 30.5253 59.9556 30.7919 59.9556H32.6957C32.9623 59.9556 33.1717 60.165 33.1717 60.4317V69.0013C33.1717 69.2584 32.9623 69.4774 32.6957 69.4774ZM31.2678 68.5252H32.2198V60.9077H31.2678V68.5252Z" fill="#292929"/>
    <path d="M33.6476 54.243H30.7919C30.5253 54.243 30.3159 54.0335 30.3159 53.7669V46.1494C30.3159 45.8828 30.5253 45.6733 30.7919 45.6733H33.6476C33.9142 45.6733 34.1236 45.8828 34.1236 46.1494V53.7669C34.1236 54.024 33.9142 54.243 33.6476 54.243ZM31.2678 53.2908H33.1717V46.6255H31.2678V53.2908Z" fill="#292929"/>
    <path d="M39.3591 54.243H36.5033C36.2368 54.243 36.0273 54.0335 36.0273 53.7669V46.1494C36.0273 45.8828 36.2368 45.6733 36.5033 45.6733H39.3591C39.6256 45.6733 39.835 45.8828 39.835 46.1494V53.7669C39.835 54.024 39.6256 54.243 39.3591 54.243ZM36.9793 53.2908H38.8831V46.6255H36.9793V53.2908Z" fill="#292929"/>
    <path d="M31.7434 87.0932C31.4769 87.0932 31.2675 86.8837 31.2675 86.6171V76.1431C31.2675 75.8765 31.4769 75.667 31.7434 75.667C32.01 75.667 32.2194 75.8765 32.2194 76.1431V86.6171C32.2194 86.8742 32.01 87.0932 31.7434 87.0932Z" fill="#292929"/>
    <path d="M26.9841 87.0932C26.7176 87.0932 26.5082 86.8837 26.5082 86.6171V76.1431C26.5082 75.8765 26.7176 75.667 26.9841 75.667C27.2507 75.667 27.4601 75.8765 27.4601 76.1431V86.6171C27.4601 86.8742 27.2507 87.0932 26.9841 87.0932Z" fill="#292929"/>
    <path d="M43.1669 87.0932C42.9003 87.0932 42.6909 86.8837 42.6909 86.6171V76.1431C42.6909 75.8765 42.9003 75.667 43.1669 75.667C43.4334 75.667 43.6428 75.8765 43.6428 76.1431V86.6171C43.6428 86.8742 43.4334 87.0932 43.1669 87.0932Z" fill="#292929"/>
    <path d="M40.311 86.6166H36.5033C36.2368 86.6166 36.0273 86.4072 36.0273 86.1405V75.6665C36.0273 75.3999 36.2368 75.1904 36.5033 75.1904H40.311C40.5775 75.1904 40.7869 75.3999 40.7869 75.6665V86.1405C40.7869 86.3976 40.5775 86.6166 40.311 86.6166ZM36.9793 85.6645H39.835V76.1426H36.9793V85.6645Z" fill="#292929"/>
    <path d="M38.407 87.0932C38.1405 87.0932 37.931 86.8837 37.931 86.6171V76.1431C37.931 75.8765 38.1405 75.667 38.407 75.667C38.6735 75.667 38.8829 75.8765 38.8829 76.1431V86.6171C38.8829 86.8742 38.6735 87.0932 38.407 87.0932Z" fill="#292929"/>
    <path d="M39.3587 69.4774H37.4548C37.1883 69.4774 36.9789 69.2679 36.9789 69.0013V60.4317C36.9789 60.165 37.1883 59.9556 37.4548 59.9556H39.3587C39.6252 59.9556 39.8346 60.165 39.8346 60.4317V69.0013C39.8346 69.2584 39.6252 69.4774 39.3587 69.4774ZM37.9308 68.5252H38.8827V60.9077H37.9308V68.5252Z" fill="#292929"/>
    <path d="M31.268 53.2901H30.316C30.0495 53.2901 29.8401 53.0806 29.8401 52.814C29.8401 52.5474 30.0495 52.3379 30.316 52.3379H31.268C31.5345 52.3379 31.7439 52.5474 31.7439 52.814C31.7439 53.0711 31.5345 53.2901 31.268 53.2901Z" fill="#292929"/>
    <path d="M31.268 47.5772H30.316C30.0495 47.5772 29.8401 47.3677 29.8401 47.1011C29.8401 46.8345 30.0495 46.625 30.316 46.625H31.268C31.5345 46.625 31.7439 46.8345 31.7439 47.1011C31.7439 47.3582 31.5345 47.5772 31.268 47.5772Z" fill="#292929"/>
    <path d="M34.1236 47.5772H33.1716C32.9051 47.5772 32.6957 47.3677 32.6957 47.1011C32.6957 46.8345 32.9051 46.625 33.1716 46.625H34.1236C34.3901 46.625 34.5995 46.8345 34.5995 47.1011C34.5995 47.3582 34.3901 47.5772 34.1236 47.5772Z" fill="#292929"/>
    <path d="M36.9793 47.5772H36.0274C35.7608 47.5772 35.5514 47.3677 35.5514 47.1011C35.5514 46.8345 35.7608 46.625 36.0274 46.625H36.9793C37.2458 46.625 37.4552 46.8345 37.4552 47.1011C37.4552 47.3582 37.2458 47.5772 36.9793 47.5772Z" fill="#292929"/>
    <path d="M39.835 47.5772H38.8831C38.6165 47.5772 38.4071 47.3677 38.4071 47.1011C38.4071 46.8345 38.6165 46.625 38.8831 46.625H39.835C40.1015 46.625 40.3109 46.8345 40.3109 47.1011C40.3109 47.3582 40.1015 47.5772 39.835 47.5772Z" fill="#292929"/>
    <path d="M34.1236 53.2901H33.1716C32.9051 53.2901 32.6957 53.0806 32.6957 52.814C32.6957 52.5474 32.9051 52.3379 33.1716 52.3379H34.1236C34.3901 52.3379 34.5995 52.5474 34.5995 52.814C34.5995 53.0711 34.3901 53.2901 34.1236 53.2901Z" fill="#292929"/>
    <path d="M36.9793 53.2901H36.0274C35.7608 53.2901 35.5514 53.0806 35.5514 52.814C35.5514 52.5474 35.7608 52.3379 36.0274 52.3379H36.9793C37.2458 52.3379 37.4552 52.5474 37.4552 52.814C37.4552 53.0711 37.2458 53.2901 36.9793 53.2901Z" fill="#292929"/>
    <path d="M39.835 53.2901H38.8831C38.6165 53.2901 38.4071 53.0806 38.4071 52.814C38.4071 52.5474 38.6165 52.3379 38.8831 52.3379H39.835C40.1015 52.3379 40.3109 52.5474 40.3109 52.814C40.3109 53.0711 40.1015 53.2901 39.835 53.2901Z" fill="#292929"/>
    <path d="M30.316 61.8602C30.1923 61.8602 30.0685 61.8126 29.9829 61.7269C29.8877 61.6317 29.8401 61.5079 29.8401 61.3842C29.8401 61.2604 29.8877 61.1366 29.9734 61.0509C30.1733 60.8605 30.4779 60.87 30.6492 61.0509C30.7444 61.1366 30.792 61.2604 30.792 61.3842C30.792 61.5079 30.7444 61.6317 30.6492 61.7269C30.5635 61.8126 30.4398 61.8602 30.316 61.8602Z" fill="#292929"/>
    <path d="M29.3639 77.0946C29.2402 77.0946 29.1164 77.047 29.0307 76.9613C28.9355 76.8661 28.8879 76.7423 28.8879 76.6185C28.8879 76.4948 28.9355 76.371 29.0212 76.2853C29.2116 76.0948 29.5257 76.1044 29.6971 76.2853C29.7923 76.3805 29.8399 76.4948 29.8399 76.6185C29.8399 76.7423 29.7923 76.8661 29.6971 76.9518C29.6114 77.047 29.4877 77.0946 29.3639 77.0946Z" fill="#292929"/>
    <path d="M27.4602 77.0952C27.3365 77.0952 27.2127 77.0476 27.127 76.9619C27.0319 76.8667 26.9843 76.7429 26.9843 76.6191C26.9843 76.4953 27.0318 76.3715 27.1175 76.2858C27.3079 76.1049 27.6125 76.1049 27.7934 76.2763C27.8886 76.381 27.9362 76.4953 27.9362 76.6191C27.9362 76.7429 27.8886 76.8667 27.8029 76.9524C27.6982 77.0476 27.584 77.0952 27.4602 77.0952Z" fill="#292929"/>
    <path d="M34.1238 77.095C34 77.095 33.8763 77.0473 33.7906 76.9521C33.7049 76.8664 33.6478 76.7426 33.6478 76.6189C33.6478 76.4951 33.6954 76.3713 33.7906 76.2856C33.962 76.1047 34.2856 76.1047 34.457 76.2856C34.5521 76.3713 34.5997 76.4951 34.5997 76.6189C34.5997 76.7426 34.5521 76.8664 34.457 76.9616C34.3713 77.0473 34.2475 77.095 34.1238 77.095Z" fill="#292929"/>
    <path d="M40.7868 77.0952C40.663 77.0952 40.5393 77.0476 40.4536 76.9619C40.3584 76.8667 40.3108 76.7429 40.3108 76.6191C40.3108 76.4953 40.3584 76.3715 40.4441 76.2858C40.6344 76.1049 40.9391 76.1049 41.1199 76.2763C41.2151 76.381 41.2627 76.4953 41.2627 76.6191C41.2627 76.7429 41.2151 76.8667 41.1199 76.9524C41.0247 77.0476 40.9105 77.0952 40.7868 77.0952Z" fill="#292929"/>
    <path d="M42.6908 77.095C42.5671 77.095 42.4433 77.0473 42.3576 76.9521C42.272 76.8759 42.2148 76.7522 42.2148 76.6189C42.2148 76.4855 42.2624 76.3713 42.3576 76.2856C42.529 76.1047 42.8526 76.1047 43.024 76.2856C43.1192 76.3713 43.1668 76.4951 43.1668 76.6189C43.1668 76.7426 43.1192 76.8664 43.024 76.9616C42.9383 77.0473 42.8145 77.095 42.6908 77.095Z" fill="#292929"/>
    <path d="M36.0274 77.0943C35.9036 77.0943 35.7894 77.0467 35.6942 76.961C35.599 76.8658 35.5514 76.742 35.5514 76.6182C35.5514 76.4945 35.599 76.3802 35.6847 76.285C35.875 76.0945 36.1892 76.1041 36.3605 76.2755C36.4557 76.3707 36.5033 76.4945 36.5033 76.6182C36.5033 76.742 36.4557 76.8658 36.3605 76.9515C36.2749 77.0467 36.1511 77.0943 36.0274 77.0943Z" fill="#292929"/>
    <path d="M29.3639 85.6643C29.2497 85.6643 29.1259 85.6167 29.0307 85.531C28.9355 85.4358 28.8879 85.312 28.8879 85.1882C28.8879 85.0644 28.9355 84.9406 29.0212 84.8549C29.2021 84.674 29.5257 84.674 29.6971 84.8549C29.7923 84.9406 29.8399 85.0644 29.8399 85.1882C29.8399 85.312 29.7923 85.4358 29.6971 85.5215C29.6019 85.6167 29.4877 85.6643 29.3639 85.6643Z" fill="#292929"/>
    <path d="M27.4602 85.6643C27.3365 85.6643 27.2127 85.6167 27.127 85.5215C27.0319 85.4358 26.9843 85.312 26.9843 85.1882C26.9843 85.0644 27.0319 84.9406 27.127 84.8549C27.2889 84.674 27.622 84.674 27.8029 84.8549C27.8886 84.9311 27.9362 85.0549 27.9362 85.1882C27.9362 85.312 27.8886 85.4358 27.7934 85.531C27.7077 85.6167 27.584 85.6643 27.4602 85.6643Z" fill="#292929"/>
    <path d="M33.1716 61.8598C33.0479 61.8598 32.9241 61.8122 32.8385 61.717C32.7433 61.6313 32.6957 61.5075 32.6957 61.3837C32.6957 61.26 32.7433 61.1362 32.8385 61.0505C33.0098 60.8696 33.3239 60.8696 33.5048 61.041C33.6 61.1362 33.6476 61.26 33.6476 61.3837C33.6476 61.5075 33.6 61.6313 33.5143 61.717C33.4096 61.8122 33.2954 61.8598 33.1716 61.8598Z" fill="#292929"/>
    <path d="M36.9794 61.8602C36.8556 61.8602 36.7414 61.8126 36.6462 61.7269C36.551 61.6317 36.5034 61.5079 36.5034 61.3842C36.5034 61.2604 36.551 61.1366 36.6367 61.0509C36.8366 60.8605 37.1412 60.87 37.3125 61.0509C37.4077 61.1366 37.4553 61.2604 37.4553 61.3842C37.4553 61.5079 37.4077 61.6317 37.3125 61.7269C37.2269 61.8126 37.1031 61.8602 36.9794 61.8602Z" fill="#292929"/>
    <path d="M39.8351 61.8598C39.7113 61.8598 39.5876 61.8122 39.5019 61.717C39.4162 61.6313 39.3591 61.517 39.3591 61.3837C39.3591 61.2504 39.4067 61.1362 39.5019 61.0505C39.6733 60.8696 39.9874 60.8696 40.1683 61.041C40.2635 61.1362 40.311 61.26 40.311 61.3837C40.311 61.5075 40.2635 61.6313 40.1683 61.717C40.0826 61.8122 39.9588 61.8598 39.8351 61.8598Z" fill="#292929"/>
    <path d="M32.6956 43.2921C32.429 43.2921 32.2196 43.0826 32.2196 42.816V40.9116C32.2196 40.645 32.429 40.4355 32.6956 40.4355C32.9621 40.4355 33.1715 40.645 33.1715 40.9116V42.816C33.1715 43.0731 32.9621 43.2921 32.6956 43.2921Z" fill="#292929"/>
    <path d="M32.6956 45.1964C32.429 45.1964 32.2196 44.9869 32.2196 44.7203V43.7681C32.2196 43.5015 32.429 43.292 32.6956 43.292C32.9621 43.292 33.1715 43.5015 33.1715 43.7681V44.7203C33.1715 44.9774 32.9621 45.1964 32.6956 45.1964Z" fill="#292929"/>
    <path d="M37.4548 45.1964C37.1883 45.1964 36.9789 44.9869 36.9789 44.7203V43.7681C36.9789 43.5015 37.1883 43.292 37.4548 43.292C37.7214 43.292 37.9308 43.5015 37.9308 43.7681V44.7203C37.9308 44.9774 37.7214 45.1964 37.4548 45.1964Z" fill="#292929"/>
    <path d="M37.4548 43.2921C37.1883 43.2921 36.9789 43.0826 36.9789 42.816V40.9116C36.9789 40.645 37.1883 40.4355 37.4548 40.4355C37.7214 40.4355 37.9308 40.645 37.9308 40.9116V42.816C37.9308 43.0731 37.7214 43.2921 37.4548 43.2921Z" fill="#292929"/>
    <path d="M32.6956 56.6232C32.429 56.6232 32.2196 56.4137 32.2196 56.1471V54.2427C32.2196 53.9761 32.429 53.7666 32.6956 53.7666C32.9621 53.7666 33.1715 53.9761 33.1715 54.2427V56.1471C33.1715 56.4041 32.9621 56.6232 32.6956 56.6232Z" fill="#292929"/>
    <path d="M32.6956 71.858C32.429 71.858 32.2196 71.6485 32.2196 71.3819V69.4776C32.2196 69.2109 32.429 69.0015 32.6956 69.0015C32.9621 69.0015 33.1715 69.2109 33.1715 69.4776V71.3819C33.1715 71.639 32.9621 71.858 32.6956 71.858Z" fill="#292929"/>
    <path d="M28.8878 71.858C28.6213 71.858 28.4119 71.6485 28.4119 71.3819V69.4776C28.4119 69.2109 28.6213 69.0015 28.8878 69.0015C29.1544 69.0015 29.3638 69.2109 29.3638 69.4776V71.3819C29.3638 71.639 29.1544 71.858 28.8878 71.858Z" fill="#292929"/>
    <path d="M37.4548 71.858C37.1883 71.858 36.9789 71.6485 36.9789 71.3819V69.4776C36.9789 69.2109 37.1883 69.0015 37.4548 69.0015C37.7214 69.0015 37.9308 69.2109 37.9308 69.4776V71.3819C37.9308 71.639 37.7214 71.858 37.4548 71.858Z" fill="#292929"/>
    <path d="M41.2628 71.858C40.9963 71.858 40.7869 71.6485 40.7869 71.3819V69.4776C40.7869 69.2109 40.9963 69.0015 41.2628 69.0015C41.5294 69.0015 41.7388 69.2109 41.7388 69.4776V71.3819C41.7388 71.639 41.5294 71.858 41.2628 71.858Z" fill="#292929"/>
    <path d="M37.4548 56.6232C37.1883 56.6232 36.9789 56.4137 36.9789 56.1471V54.2427C36.9789 53.9761 37.1883 53.7666 37.4548 53.7666C37.7214 53.7666 37.9308 53.9761 37.9308 54.2427V56.1471C37.9308 56.4041 37.7214 56.6232 37.4548 56.6232Z" fill="#292929"/>
    <path d="M35.0752 83.7605C34.5517 83.7605 34.1233 83.332 34.1233 82.8083V78.9995C34.1233 78.4758 34.5517 78.0474 35.0752 78.0474C35.5988 78.0474 36.0271 78.4758 36.0271 78.9995V82.8083C36.0271 83.332 35.5988 83.7605 35.0752 83.7605Z" fill="#292929"/>
    <path d="M35.0752 99.947C34.5517 99.947 34.1233 99.5185 34.1233 98.9948V94.2339C34.1233 93.7102 34.5517 93.2817 35.0752 93.2817C35.5988 93.2817 36.0271 93.7102 36.0271 94.2339V98.9948C36.0271 99.5185 35.5988 99.947 35.0752 99.947Z" fill="#292929"/>
    <path d="M42.6907 99.947C42.1671 99.947 41.7388 99.5185 41.7388 98.9948V94.2339C41.7388 93.7102 42.1671 93.2817 42.6907 93.2817C43.2142 93.2817 43.6426 93.7102 43.6426 94.2339V98.9948C43.6426 99.5185 43.2142 99.947 42.6907 99.947Z" fill="#292929"/>
    <path d="M27.4601 99.947C26.9365 99.947 26.5082 99.5185 26.5082 98.9948V94.2339C26.5082 93.7102 26.9365 93.2817 27.4601 93.2817C27.9836 93.2817 28.412 93.7102 28.412 94.2339V98.9948C28.412 99.5185 27.9836 99.947 27.4601 99.947Z" fill="#292929"/>
    <path d="M27.4601 92.33C27.2126 92.33 26.9651 92.2252 26.7842 92.0538C26.6129 91.8729 26.5082 91.6253 26.5082 91.3778C26.5082 91.1207 26.6129 90.8826 26.7842 90.7017C27.1364 90.3494 27.7837 90.3494 28.136 90.7017C28.3073 90.8826 28.412 91.1302 28.412 91.3778C28.412 91.6253 28.3073 91.8729 28.136 92.0538C27.9551 92.2252 27.7076 92.33 27.4601 92.33Z" fill="#292929"/>
    <path d="M35.0752 92.33C34.8277 92.33 34.5802 92.2252 34.3993 92.0538C34.228 91.8729 34.1233 91.6349 34.1233 91.3778C34.1233 91.1207 34.228 90.8826 34.4089 90.7017C34.7516 90.3494 35.3989 90.3494 35.7511 90.7017C35.9224 90.8826 36.0271 91.1302 36.0271 91.3778C36.0271 91.6253 35.9224 91.8729 35.7511 92.0538C35.5702 92.2252 35.3227 92.33 35.0752 92.33Z" fill="#292929"/>
    <path d="M42.6907 92.33C42.4432 92.33 42.1957 92.2252 42.0148 92.0538C41.8435 91.8729 41.7388 91.6253 41.7388 91.3778C41.7388 91.1302 41.8435 90.8826 42.0148 90.7017C42.367 90.3494 43.0048 90.3494 43.3666 90.7017C43.5379 90.8826 43.6426 91.1207 43.6426 91.3778C43.6426 91.6253 43.5379 91.8729 43.3666 92.0538C43.1857 92.2252 42.9382 92.33 42.6907 92.33Z" fill="#292929"/>
    <path d="M27.4601 83.7605C26.9365 83.7605 26.5082 83.332 26.5082 82.8083V78.9995C26.5082 78.4758 26.9365 78.0474 27.4601 78.0474C27.9836 78.0474 28.412 78.4758 28.412 78.9995V82.8083C28.412 83.332 27.9836 83.7605 27.4601 83.7605Z" fill="#292929"/>
    <path d="M42.6907 83.7605C42.1671 83.7605 41.7388 83.332 41.7388 82.8083V78.9995C41.7388 78.4758 42.1671 78.0474 42.6907 78.0474C43.2142 78.0474 43.6426 78.4758 43.6426 78.9995V82.8083C43.6426 83.332 43.2142 83.7605 42.6907 83.7605Z" fill="#292929"/>
    <path d="M36.5035 69.4773H33.6477C33.3812 69.4773 33.1718 69.2678 33.1718 69.0012V64.2403C33.1718 62.9263 34.0285 61.8599 35.0756 61.8599C36.1227 61.8599 36.9794 62.9263 36.9794 64.2403V69.0012C36.9794 69.2583 36.77 69.4773 36.5035 69.4773ZM34.1237 68.5251H36.0275V64.2403C36.0275 63.4691 35.5896 62.812 35.0756 62.812C34.5616 62.812 34.1237 63.4691 34.1237 64.2403V68.5251Z" fill="#292929"/>
    <path d="M43.1669 69.4773H40.3112C40.0446 69.4773 39.8352 69.2678 39.8352 69.0012V64.2403C39.8352 62.9263 40.6919 61.8599 41.739 61.8599C42.7862 61.8599 43.6429 62.9263 43.6429 64.2403V69.0012C43.6429 69.2583 43.4335 69.4773 43.1669 69.4773ZM40.7871 68.5251H42.691V64.2403C42.691 63.4691 42.2531 62.812 41.739 62.812C41.225 62.812 40.7871 63.4691 40.7871 64.2403V68.5251Z" fill="#292929"/>
    <path d="M29.8399 69.4773H26.9841C26.7176 69.4773 26.5082 69.2678 26.5082 69.0012V64.2403C26.5082 62.9263 27.3649 61.8599 28.412 61.8599C29.4591 61.8599 30.3159 62.9263 30.3159 64.2403V69.0012C30.3159 69.2583 30.1064 69.4773 29.8399 69.4773ZM27.4601 68.5251H29.3639V64.2403C29.3639 63.4691 28.9261 62.812 28.412 62.812C27.898 62.812 27.4601 63.4691 27.4601 64.2403V68.5251Z" fill="#292929"/>
    <path d="M42.6909 46.6255H27.4602C27.1937 46.6255 26.9843 46.416 26.9843 46.1494C26.9843 45.8828 27.1937 45.6733 27.4602 45.6733H42.6909C42.9575 45.6733 43.1669 45.8828 43.1669 46.1494C43.1669 46.4065 42.9575 46.6255 42.6909 46.6255Z" fill="#292929"/>
    <path d="M30.3159 49.4818C30.0589 49.4818 29.8209 49.3771 29.6401 49.2057C29.4687 49.0248 29.364 48.7867 29.364 48.5296C29.364 48.2725 29.4687 48.0345 29.6401 47.8536C29.9923 47.5013 30.6396 47.5013 30.9918 47.8536C31.1631 48.0345 31.2679 48.2821 31.2679 48.5296C31.2679 48.7867 31.1631 49.0248 30.9918 49.2057C30.8109 49.3771 30.573 49.4818 30.3159 49.4818Z" fill="#292929"/>
    <path d="M35.0752 50.4342C34.5517 50.4342 34.1233 50.0057 34.1233 49.482V48.5298C34.1233 48.0061 34.5517 47.5776 35.0752 47.5776C35.5988 47.5776 36.0271 48.0061 36.0271 48.5298V49.482C36.0271 50.0057 35.5988 50.4342 35.0752 50.4342Z" fill="#292929"/>
    <path d="M39.8351 49.4818C39.5876 49.4818 39.3401 49.3771 39.1592 49.2057C38.9879 49.0248 38.8832 48.7772 38.8832 48.5296C38.8832 48.2821 38.9879 48.0345 39.1592 47.8536C39.521 47.5013 40.1492 47.5013 40.511 47.8536C40.6823 48.0345 40.787 48.2821 40.787 48.5296C40.787 48.7772 40.6823 49.0248 40.511 49.2057C40.3301 49.3771 40.0826 49.4818 39.8351 49.4818Z" fill="#292929"/>
    <path d="M33.1716 39.836C32.9051 39.836 32.6957 39.6265 32.6957 39.3599C32.6957 37.2556 33.0669 36.2939 33.4667 35.275C33.7999 34.4276 34.1426 33.5421 34.2854 31.8281C34.3044 31.5806 34.5138 31.3901 34.7613 31.3901H35.3991C35.6466 31.3901 35.8561 31.5806 35.8751 31.8281C36.0179 33.5516 36.3606 34.399 36.6937 35.2274C37.0935 36.2082 37.4648 37.1413 37.4648 39.2456C37.4648 39.5123 37.2554 39.7217 36.9888 39.7217C36.7223 39.7217 36.5129 39.5123 36.5129 39.2456C36.5129 37.3222 36.1892 36.5129 35.8085 35.5797C35.5514 34.9418 35.2754 34.2467 35.085 33.1612C34.8946 34.2562 34.6186 34.9799 34.3615 35.6274C33.9808 36.5986 33.6571 37.4365 33.6571 39.3694C33.6476 39.6265 33.4382 39.836 33.1716 39.836Z" fill="#292929"/>
    <path d="M34.1238 85.6643C34 85.6643 33.8763 85.6167 33.7906 85.5215C33.7049 85.4453 33.6478 85.3216 33.6478 85.1882C33.6478 85.0549 33.7049 84.9312 33.7906 84.8455C33.9524 84.6836 34.2856 84.6741 34.4665 84.855C34.5522 84.9312 34.5997 85.0549 34.5997 85.1882C34.5997 85.312 34.5521 85.4358 34.457 85.531C34.3713 85.6167 34.2475 85.6643 34.1238 85.6643Z" fill="#292929"/>
    <path d="M40.7868 85.6643C40.663 85.6643 40.5393 85.6167 40.4536 85.5215C40.3584 85.4358 40.3108 85.312 40.3108 85.1882C40.3108 85.0549 40.3584 84.9312 40.4536 84.8455C40.6154 84.6836 40.9581 84.6741 41.1294 84.855C41.2151 84.9312 41.2627 85.0549 41.2627 85.1882C41.2627 85.312 41.2151 85.4358 41.1199 85.531C41.0343 85.6167 40.9105 85.6643 40.7868 85.6643Z" fill="#292929"/>
    <path d="M42.6908 85.6643C42.5671 85.6643 42.4528 85.6167 42.3576 85.531C42.2624 85.4358 42.2148 85.312 42.2148 85.1882C42.2148 85.0644 42.2624 84.9406 42.3576 84.8549C42.529 84.674 42.8526 84.674 43.024 84.8549C43.1192 84.9406 43.1668 85.0644 43.1668 85.1882C43.1668 85.312 43.1192 85.4358 43.0335 85.5215C42.9288 85.6167 42.8145 85.6643 42.6908 85.6643Z" fill="#292929"/>
    <path d="M36.0274 85.6643C35.9131 85.6643 35.7894 85.6167 35.6942 85.531C35.599 85.4358 35.5514 85.312 35.5514 85.1882C35.5514 85.0644 35.599 84.9406 35.6847 84.8549C35.8655 84.674 36.1892 84.674 36.3605 84.8549C36.4557 84.9406 36.5033 85.0644 36.5033 85.1882C36.5033 85.312 36.4557 85.4358 36.3605 85.5215C36.2653 85.6167 36.1511 85.6643 36.0274 85.6643Z" fill="#292929"/>
    <path d="M32.2193 85.6646H31.2673C31.0008 85.6646 30.7914 85.4551 30.7914 85.1885C30.7914 84.9219 31.0008 84.7124 31.2673 84.7124H32.2193C32.4858 84.7124 32.6952 84.9219 32.6952 85.1885C32.6952 85.4456 32.4858 85.6646 32.2193 85.6646Z" fill="#292929"/>
    <path d="M32.2193 77.0948H31.2673C31.0008 77.0948 30.7914 76.8853 30.7914 76.6187C30.7914 76.3521 31.0008 76.1426 31.2673 76.1426H32.2193C32.4858 76.1426 32.6952 76.3521 32.6952 76.6187C32.6952 76.8758 32.4858 77.0948 32.2193 77.0948Z" fill="#292929"/>
    <path d="M38.8828 77.0948H37.9309C37.6644 77.0948 37.455 76.8853 37.455 76.6187C37.455 76.3521 37.6644 76.1426 37.9309 76.1426H38.8828C39.1494 76.1426 39.3588 76.3521 39.3588 76.6187C39.3588 76.8758 39.1494 77.0948 38.8828 77.0948Z" fill="#292929"/>
    <path d="M38.8828 85.6646H37.9309C37.6644 85.6646 37.455 85.4551 37.455 85.1885C37.455 84.9219 37.6644 84.7124 37.9309 84.7124H38.8828C39.1494 84.7124 39.3588 84.9219 39.3588 85.1885C39.3588 85.4456 39.1494 85.6646 38.8828 85.6646Z" fill="#292929"/>
    <path d="M108.8 99.9488H17.7028C16.7662 99.9488 16 99.4065 16 98.7437C16 98.0809 16.7662 97.5386 17.7028 97.5386H108.8C109.497 97.5386 110 98.0809 110 98.7437C110 99.4065 109.497 99.9488 108.8 99.9488Z" fill="#292929"/>
    <defs>
        <filter id="filter0_d" x="-12" y="0" width="399" height="128" filterUnits="userSpaceOnUse" color-interpolation-filters="sRGB">
            <feFlood flood-opacity="0" result="BackgroundImageFix"/>
            <feColorMatrix in="SourceAlpha" type="matrix" values="0 0 0 0 0 0 0 0 0 0 0 0 0 0 0 0 0 0 127 0"/>
            <feOffset dy="3"/>
            <feGaussianBlur stdDeviation="6"/>
            <feColorMatrix type="matrix" values="0 0 0 0 0.0166667 0 0 0 0 0.0166667 0 0 0 0 0.0166667 0 0 0 0.17 0"/>
            <feBlend mode="normal" in2="BackgroundImageFix" result="effect1_dropShadow"/>
            <feBlend mode="normal" in="SourceGraphic" in2="effect1_dropShadow" result="shape"/>
        </filter>
    </defs>
</svg>
