<svg width="445" height="132" viewBox="0 0 445 132" fill="none" xmlns="http://www.w3.org/2000/svg">
    <g filter="url(#filter0_d)">
        <rect x="12" y="9" width="433" height="108" fill="#F5F3EB"/>
    </g>
    <path d="M150.452 72.0264H146.612C146.397 72.0264 146.228 71.8574 146.228 71.6423C146.228 71.4273 146.397 71.2583 146.612 71.2583H150.452C150.667 71.2583 150.836 71.4273 150.836 71.6423C150.836 71.8497 150.659 72.0264 150.452 72.0264Z" fill="#292929"/>
    <path d="M158.898 72.0264H155.059C154.844 72.0264 154.675 71.8574 154.675 71.6423C154.675 71.4273 154.844 71.2583 155.059 71.2583H158.898C159.113 71.2583 159.282 71.4273 159.282 71.6423C159.282 71.8497 159.106 72.0264 158.898 72.0264Z" fill="#292929"/>
    <path d="M143.541 80.4752C143.118 80.4752 142.773 80.1296 142.773 79.7071V78.1709C142.773 78.0173 142.819 77.8714 142.896 77.7485C142.627 77.2108 142.519 76.4965 142.811 75.6209C143.057 74.8912 142.796 74.6531 141.667 74.0079C141.268 73.7851 140.838 73.5393 140.469 73.2244C140.101 73.5393 139.671 73.7851 139.271 74.0079C138.143 74.6454 137.881 74.8912 138.127 75.6209C138.419 76.4965 138.304 77.2031 138.043 77.7485C138.12 77.8714 138.173 78.0173 138.173 78.1709V79.7071C138.173 80.1296 137.828 80.4752 137.405 80.4752C136.983 80.4752 136.638 80.1296 136.638 79.7071V78.939C136.284 78.939 135.977 78.6932 135.893 78.3553C135.808 78.0096 135.969 77.6563 136.284 77.495C136.446 77.4028 136.975 77.0188 136.676 76.1201C136.008 74.1077 137.521 73.2552 138.519 72.6868C139.072 72.3718 139.594 72.08 139.786 71.6959C140.047 71.1736 140.899 71.1736 141.16 71.6959C141.352 72.08 141.874 72.3795 142.427 72.6868C143.426 73.2552 144.946 74.1077 144.27 76.1201C143.948 77.0956 144.585 77.4643 144.662 77.495C144.977 77.6563 145.138 78.0173 145.053 78.3553C144.969 78.7009 144.662 78.939 144.309 78.939V79.7071C144.309 80.1296 143.963 80.4752 143.541 80.4752Z" fill="#292929"/>
    <path d="M168.113 80.4752C167.691 80.4752 167.345 80.1296 167.345 79.7071V78.1709C167.345 78.0173 167.391 77.8714 167.468 77.7485C167.199 77.2108 167.092 76.4965 167.383 75.6209C167.629 74.8912 167.368 74.6531 166.239 74.0079C165.84 73.7851 165.41 73.5393 165.041 73.2244C164.673 73.5393 164.243 73.7851 163.843 74.0079C162.715 74.6454 162.454 74.8912 162.699 75.6209C162.991 76.4965 162.876 77.2031 162.615 77.7485C162.692 77.8714 162.745 78.0173 162.745 78.1709V79.7071C162.745 80.1296 162.4 80.4752 161.977 80.4752C161.555 80.4752 161.21 80.1296 161.21 79.7071V78.939C160.856 78.939 160.549 78.6932 160.465 78.3553C160.38 78.0096 160.542 77.6563 160.856 77.495C161.018 77.4028 161.547 77.0188 161.248 76.1201C160.58 74.1077 162.093 73.2552 163.091 72.6868C163.644 72.3718 164.166 72.08 164.358 71.6959C164.619 71.1736 165.471 71.1736 165.732 71.6959C165.924 72.08 166.447 72.3795 166.999 72.6868C167.998 73.2552 169.518 74.1077 168.842 76.1201C168.52 77.0956 169.157 77.4643 169.234 77.495C169.549 77.6563 169.71 78.0173 169.626 78.3553C169.541 78.7009 169.234 78.939 168.881 78.939V79.7071C168.881 80.1296 168.535 80.4752 168.113 80.4752Z" fill="#292929"/>
    <path d="M156.595 83.5474C156.172 83.5474 155.827 83.2018 155.827 82.7793V77.4027C155.827 77.2106 155.896 77.034 156.011 76.8957C156.011 76.888 156.003 76.888 156.003 76.8804C155.765 76.4733 155.543 75.7973 155.865 74.8526C156.165 73.9693 155.773 73.5545 154.591 72.6021C153.984 72.1105 153.293 71.5498 152.755 70.7817C152.218 71.5498 151.519 72.1182 150.92 72.6021C149.738 73.5622 149.346 73.977 149.645 74.8526C149.968 75.7973 149.745 76.4809 149.507 76.8804C149.507 76.888 149.5 76.888 149.5 76.8957C149.615 77.034 149.684 77.203 149.684 77.4027V82.7793C149.684 83.2018 149.338 83.5474 148.916 83.5474C148.494 83.5474 148.148 83.2018 148.148 82.7793V78.1707H147.38C146.981 78.1707 146.651 77.8635 146.612 77.4718C146.582 77.0724 146.85 76.7191 147.25 76.6499C147.426 76.6192 147.987 76.4425 148.186 76.0969C148.225 76.0278 148.348 75.8204 148.186 75.3442C147.518 73.3702 148.87 72.2795 149.953 71.4039C150.82 70.7049 151.719 69.9752 152.01 68.7693C152.095 68.4237 152.402 68.1855 152.755 68.1855C153.109 68.1855 153.416 68.4313 153.5 68.7693C153.792 69.9752 154.69 70.6972 155.558 71.4039C156.641 72.2795 157.992 73.3702 157.324 75.3442C157.163 75.8204 157.286 76.0278 157.324 76.0969C157.532 76.4502 158.123 76.6192 158.261 76.6422C158.653 76.7114 158.929 77.0647 158.898 77.4641C158.868 77.8635 158.53 78.1631 158.13 78.1631H157.363V82.7716C157.363 83.2018 157.017 83.5474 156.595 83.5474Z" fill="#292929"/>
    <path d="M158.898 80.4753C158.476 80.4753 158.13 80.1296 158.13 79.7072V71.2812C157.816 71.0277 157.524 70.7051 157.355 70.2981C157.132 69.7604 157.163 69.1766 157.447 68.6159C158.299 66.9108 157.915 66.7187 156.487 66.0044C155.205 65.3669 153.485 64.5066 152.893 62.0487H152.625C152.033 64.5066 150.313 65.3669 149.031 66.0044C147.603 66.7187 147.219 66.9108 148.071 68.6159C148.355 69.1843 148.386 69.7604 148.163 70.2981C147.994 70.7051 147.703 71.0277 147.388 71.2812V79.7072C147.388 80.1296 147.042 80.4753 146.62 80.4753C146.198 80.4753 145.852 80.1296 145.852 79.7072V72.0263C145.476 72.0263 145.153 71.7498 145.092 71.3811C145.03 71.0124 145.253 70.6514 145.606 70.5285C145.906 70.4286 146.589 70.083 146.743 69.7066C146.781 69.6221 146.797 69.5069 146.697 69.2995C145.161 66.2195 146.927 65.3362 148.348 64.6295C149.615 63.992 150.92 63.3391 151.235 61.1654C151.289 60.7891 151.611 60.5049 151.995 60.5049H153.531C153.915 60.5049 154.237 60.7891 154.291 61.1654C154.606 63.3391 155.911 63.992 157.178 64.6295C158.599 65.3362 160.365 66.2272 158.829 69.2995C158.722 69.5069 158.745 69.6221 158.783 69.7066C158.944 70.0907 159.628 70.4363 159.92 70.5285C160.28 70.6437 160.495 71.0047 160.434 71.3811C160.373 71.7498 160.05 72.0263 159.674 72.0263V79.7072C159.666 80.1296 159.321 80.4753 158.898 80.4753Z" fill="#292929"/>
    <path d="M172.72 98.1416H132.79C132.368 98.1416 132.023 97.796 132.023 97.3735V83.5479C132.023 83.1254 132.368 82.7798 132.79 82.7798H172.72C173.143 82.7798 173.488 83.1254 173.488 83.5479V97.3735C173.488 97.796 173.143 98.1416 172.72 98.1416ZM133.558 96.6055H171.952V84.316H133.558V96.6055Z" fill="#292929"/>
    <path d="M149.684 98.1416C149.261 98.1416 148.916 97.796 148.916 97.3735V84.3159C148.916 83.8935 149.261 83.5479 149.684 83.5479C150.106 83.5479 150.452 83.8935 150.452 84.3159V97.3735C150.452 97.796 150.106 98.1416 149.684 98.1416Z" fill="#292929"/>
    <path d="M155.827 98.1416C155.404 98.1416 155.059 97.796 155.059 97.3735V84.3159C155.059 83.8935 155.404 83.5479 155.827 83.5479C156.249 83.5479 156.595 83.8935 156.595 84.3159V97.3735C156.595 97.796 156.249 98.1416 155.827 98.1416Z" fill="#292929"/>
    <path d="M172.72 85.8516H132.79C132.575 85.8516 132.406 85.6826 132.406 85.4675C132.406 85.2525 132.575 85.0835 132.79 85.0835H172.72C172.935 85.0835 173.104 85.2525 173.104 85.4675C173.104 85.6749 172.927 85.8516 172.72 85.8516Z" fill="#292929"/>
    <path d="M172.72 90.4605H132.79C132.575 90.4605 132.406 90.2915 132.406 90.0764C132.406 89.8614 132.575 89.6924 132.79 89.6924H172.72C172.935 89.6924 173.104 89.8614 173.104 90.0764C173.104 90.2838 172.927 90.4605 172.72 90.4605Z" fill="#292929"/>
    <path d="M138.55 96.2217C138.335 96.2217 138.166 96.0528 138.166 95.8377V80.4758C138.166 80.2608 138.335 80.0918 138.55 80.0918C138.765 80.0918 138.933 80.2608 138.933 80.4758V95.8377C138.933 96.0451 138.757 96.2217 138.55 96.2217Z" fill="#292929"/>
    <path d="M143.925 96.2217C143.71 96.2217 143.541 96.0528 143.541 95.8377V80.4758C143.541 80.2608 143.71 80.0918 143.925 80.0918C144.14 80.0918 144.309 80.2608 144.309 80.4758V95.8377C144.309 96.0451 144.132 96.2217 143.925 96.2217Z" fill="#292929"/>
    <path d="M173.488 84.316H132.023C131.6 84.316 131.255 83.9703 131.255 83.5479C131.255 83.1254 131.6 82.7798 132.023 82.7798H173.488C173.91 82.7798 174.256 83.1254 174.256 83.5479C174.256 83.9703 173.91 84.316 173.488 84.316Z" fill="#292929"/>
    <path d="M143.541 83.5476H133.174C132.959 83.5476 132.79 83.3786 132.79 83.1635V82.4262C132.79 82.2495 132.906 82.1036 133.075 82.0575L134.326 81.7195V81.2433C134.326 81.1665 134.349 81.0897 134.388 81.0282L135.094 79.9759V79.3231C135.094 78.6779 135.77 78.1709 136.63 78.1709C137.436 78.1709 138.097 78.7163 138.158 79.4076C138.304 79.4383 138.611 79.4306 138.933 79.3845C139.003 78.2631 139.955 77.4028 141.153 77.4028H141.314C142.558 77.4028 143.541 78.3322 143.541 79.5151V79.7071C143.541 79.9222 143.372 80.0912 143.157 80.0912C142.942 80.0912 142.773 79.9222 142.773 79.7071V79.5151C142.773 78.747 142.151 78.1709 141.314 78.1709H141.153C140.323 78.1709 139.694 78.747 139.694 79.5151V79.7071C139.694 79.8838 139.571 80.0451 139.394 80.0835C139.003 80.168 138.043 80.3369 137.62 79.9913C137.475 79.8684 137.39 79.6994 137.39 79.5151C137.39 79.2002 137.037 78.939 136.622 78.939C136.154 78.939 135.854 79.1694 135.854 79.3231V80.0912C135.854 80.168 135.831 80.2448 135.793 80.3062L135.086 81.3585V82.0114C135.086 82.188 134.971 82.334 134.802 82.3801L133.551 82.718V82.7795H143.533C143.748 82.7795 143.917 82.9485 143.917 83.1635C143.925 83.3709 143.748 83.5476 143.541 83.5476Z" fill="#292929"/>
    <path d="M172.336 83.5476H161.97C161.755 83.5476 161.586 83.3786 161.586 83.1635C161.586 82.9485 161.755 82.7795 161.97 82.7795H171.952V82.718L170.701 82.3801C170.532 82.334 170.416 82.1804 170.416 82.0114V81.3585L169.71 80.3062C169.672 80.2448 169.649 80.168 169.649 80.0912V79.3231C169.649 79.1694 169.349 78.939 168.881 78.939C168.466 78.939 168.113 79.2002 168.113 79.5151C168.113 79.7071 168.028 79.8761 167.882 79.9913C167.46 80.3293 166.5 80.168 166.109 80.0835C165.932 80.0451 165.809 79.8914 165.809 79.7071V79.5151C165.809 78.747 165.187 78.1709 164.35 78.1709H164.189C163.36 78.1709 162.73 78.747 162.73 79.5151V79.7071C162.73 79.9222 162.561 80.0912 162.346 80.0912C162.131 80.0912 161.962 79.9222 161.962 79.7071V79.5151C161.962 78.3322 162.937 77.4028 164.189 77.4028H164.35C165.548 77.4028 166.5 78.2631 166.569 79.3845C166.892 79.4306 167.199 79.4383 167.345 79.4076C167.406 78.7163 168.067 78.1709 168.873 78.1709C169.733 78.1709 170.409 78.6779 170.409 79.3231V79.9759L171.115 81.0282C171.154 81.0897 171.177 81.1665 171.177 81.2433V81.7195L172.428 82.0575C172.597 82.1036 172.712 82.2572 172.712 82.4262V83.1635C172.72 83.3709 172.544 83.5476 172.336 83.5476Z" fill="#292929"/>
    <path d="M148.148 80.4751H134.326C134.111 80.4751 133.942 80.3061 133.942 80.0911C133.942 79.876 134.111 79.707 134.326 79.707H148.148C148.363 79.707 148.532 79.876 148.532 80.0911C148.532 80.2985 148.355 80.4751 148.148 80.4751Z" fill="#292929"/>
    <path d="M166.961 96.2217C166.746 96.2217 166.577 96.0528 166.577 95.8377V80.4758C166.577 80.2608 166.746 80.0918 166.961 80.0918C167.176 80.0918 167.345 80.2608 167.345 80.4758V95.8377C167.345 96.0451 167.168 96.2217 166.961 96.2217Z" fill="#292929"/>
    <path d="M161.586 96.2217C161.371 96.2217 161.202 96.0528 161.202 95.8377V80.4758C161.202 80.2608 161.371 80.0918 161.586 80.0918C161.801 80.0918 161.97 80.2608 161.97 80.4758V95.8377C161.97 96.0451 161.793 96.2217 161.586 96.2217Z" fill="#292929"/>
    <path d="M171.184 80.4751H157.363C157.148 80.4751 156.979 80.3061 156.979 80.0911C156.979 79.876 157.148 79.707 157.363 79.707H171.184C171.399 79.707 171.568 79.876 171.568 80.0911C171.568 80.2985 171.392 80.4751 171.184 80.4751Z" fill="#292929"/>
    <path d="M154.291 83.1637C154.076 83.1637 153.907 82.9947 153.907 82.7796C153.907 82.1421 153.393 81.6275 152.755 81.6275C152.118 81.6275 151.603 82.1421 151.603 82.7796C151.603 82.9947 151.435 83.1637 151.22 83.1637C151.005 83.1637 150.836 82.9947 150.836 82.7796C150.836 81.7196 151.696 80.8594 152.755 80.8594C153.815 80.8594 154.675 81.7196 154.675 82.7796C154.675 82.987 154.498 83.1637 154.291 83.1637Z" fill="#292929"/>
    <path d="M151.22 83.1636C151.005 83.1636 150.836 82.9946 150.836 82.7796C150.836 82.626 150.536 82.3955 150.068 82.3955C149.599 82.3955 149.3 82.626 149.3 82.7796C149.3 82.9946 149.131 83.1636 148.916 83.1636C148.701 83.1636 148.532 82.9946 148.532 82.7796C148.532 82.1344 149.208 81.6274 150.068 81.6274C150.928 81.6274 151.604 82.1344 151.604 82.7796C151.604 82.987 151.427 83.1636 151.22 83.1636Z" fill="#292929"/>
    <path d="M156.595 83.1636C156.38 83.1636 156.211 82.9946 156.211 82.7796C156.211 82.626 155.911 82.3955 155.443 82.3955C154.974 82.3955 154.675 82.626 154.675 82.7796C154.675 82.9946 154.506 83.1636 154.291 83.1636C154.076 83.1636 153.907 82.9946 153.907 82.7796C153.907 82.1344 154.583 81.6274 155.443 81.6274C156.303 81.6274 156.979 82.1344 156.979 82.7796C156.979 82.987 156.802 83.1636 156.595 83.1636Z" fill="#292929"/>
    <path d="M143.541 78.1709H137.398C137.183 78.1709 137.014 78.0019 137.014 77.7869C137.014 77.5718 137.183 77.4028 137.398 77.4028H143.541C143.756 77.4028 143.925 77.5718 143.925 77.7869C143.925 77.9943 143.748 78.1709 143.541 78.1709Z" fill="#292929"/>
    <path d="M168.113 78.1709H161.97C161.755 78.1709 161.586 78.0019 161.586 77.7869C161.586 77.5718 161.755 77.4028 161.97 77.4028H168.113C168.328 77.4028 168.497 77.5718 168.497 77.7869C168.497 77.9943 168.32 78.1709 168.113 78.1709Z" fill="#292929"/>
    <path d="M156.595 78.1709H148.916C148.701 78.1709 148.532 78.0019 148.532 77.7869C148.532 77.5718 148.701 77.4028 148.916 77.4028H156.595C156.81 77.4028 156.979 77.5718 156.979 77.7869C156.979 77.9943 156.802 78.1709 156.595 78.1709Z" fill="#292929"/>
    <path d="M151.604 81.6276C151.389 81.6276 151.22 81.4586 151.22 81.2435V78.1712C151.22 77.9561 151.389 77.7871 151.604 77.7871C151.819 77.7871 151.987 77.9561 151.987 78.1712V81.2435C151.987 81.4509 151.811 81.6276 151.604 81.6276Z" fill="#292929"/>
    <path d="M153.907 81.6276C153.692 81.6276 153.523 81.4586 153.523 81.2435V78.1712C153.523 77.9561 153.692 77.7871 153.907 77.7871C154.122 77.7871 154.291 77.9561 154.291 78.1712V81.2435C154.291 81.4509 154.114 81.6276 153.907 81.6276Z" fill="#292929"/>
    <path d="M152.755 62.0412C152.333 62.0412 151.987 61.6956 151.987 61.2731V56.6646C151.987 56.2421 152.333 55.8965 152.755 55.8965C153.178 55.8965 153.523 56.2421 153.523 56.6646V61.2731C153.523 61.6956 153.178 62.0412 152.755 62.0412Z" fill="#292929"/>
    <path d="M154.291 58.9688H151.22C150.797 58.9688 150.452 58.6232 150.452 58.2007C150.452 57.7783 150.797 57.4326 151.22 57.4326H154.291C154.713 57.4326 155.059 57.7783 155.059 58.2007C155.059 58.6232 154.713 58.9688 154.291 58.9688Z" fill="#292929"/>
    <path d="M140.469 72.7941C140.047 72.7941 139.701 72.4485 139.701 72.026V68.9536C139.701 68.5312 140.047 68.1855 140.469 68.1855C140.892 68.1855 141.237 68.5312 141.237 68.9536V72.026C141.237 72.4485 140.892 72.7941 140.469 72.7941Z" fill="#292929"/>
    <path d="M142.005 71.2584H138.933C138.511 71.2584 138.166 70.9127 138.166 70.4903C138.166 70.0678 138.511 69.7222 138.933 69.7222H142.005C142.427 69.7222 142.773 70.0678 142.773 70.4903C142.773 70.9127 142.427 71.2584 142.005 71.2584Z" fill="#292929"/>
    <path d="M165.041 72.7941C164.619 72.7941 164.273 72.4485 164.273 72.026V68.9536C164.273 68.5312 164.619 68.1855 165.041 68.1855C165.464 68.1855 165.809 68.5312 165.809 68.9536V72.026C165.809 72.4485 165.464 72.7941 165.041 72.7941Z" fill="#292929"/>
    <path d="M166.577 71.2584H163.506C163.083 71.2584 162.738 70.9127 162.738 70.4903C162.738 70.0678 163.083 69.7222 163.506 69.7222H166.577C166.999 69.7222 167.345 70.0678 167.345 70.4903C167.345 70.9127 166.999 71.2584 166.577 71.2584Z" fill="#292929"/>
    <path d="M152.755 69.7223C152.333 69.7223 151.987 69.3767 151.987 68.9542V65.8819C151.987 65.4594 152.333 65.1138 152.755 65.1138C153.178 65.1138 153.523 65.4594 153.523 65.8819V68.9542C153.523 69.3767 153.178 69.7223 152.755 69.7223Z" fill="#292929"/>
    <path d="M154.291 68.1861H151.22C150.797 68.1861 150.452 67.8404 150.452 67.418C150.452 66.9955 150.797 66.6499 151.22 66.6499H154.291C154.713 66.6499 155.059 66.9955 155.059 67.418C155.059 67.8404 154.713 68.1861 154.291 68.1861Z" fill="#292929"/>
    <path d="M133.174 83.9316C132.959 83.9316 132.79 83.7626 132.79 83.5475V78.5549C132.79 78.3399 132.959 78.1709 133.174 78.1709H135.862C136.077 78.1709 136.246 78.3399 136.246 78.5549C136.246 78.77 136.077 78.939 135.862 78.939H133.558V83.5475C133.558 83.7549 133.382 83.9316 133.174 83.9316Z" fill="#292929"/>
    <path d="M172.336 83.9316C172.121 83.9316 171.952 83.7626 171.952 83.5475V78.939H169.649C169.434 78.939 169.265 78.77 169.265 78.5549C169.265 78.3399 169.434 78.1709 169.649 78.1709H172.336C172.551 78.1709 172.72 78.3399 172.72 78.5549V83.5475C172.72 83.7549 172.544 83.9316 172.336 83.9316Z" fill="#292929"/>
    <path d="M145.844 78.939H144.309C144.094 78.939 143.925 78.77 143.925 78.5549C143.925 78.3399 144.094 78.1709 144.309 78.1709H145.844C146.059 78.1709 146.228 78.3399 146.228 78.5549C146.228 78.7623 146.052 78.939 145.844 78.939Z" fill="#292929"/>
    <path d="M161.202 78.939H159.666C159.451 78.939 159.282 78.77 159.282 78.5549C159.282 78.3399 159.451 78.1709 159.666 78.1709H161.202C161.417 78.1709 161.586 78.3399 161.586 78.5549C161.586 78.7623 161.409 78.939 161.202 78.939Z" fill="#292929"/>
    <path d="M137.014 82.3961C136.799 82.3961 136.63 82.2271 136.63 82.012V80.4758C136.63 80.2608 136.799 80.0918 137.014 80.0918C137.229 80.0918 137.398 80.2608 137.398 80.4758V82.012C137.398 82.2194 137.221 82.3961 137.014 82.3961Z" fill="#292929"/>
    <path d="M137.014 84.6998C136.799 84.6998 136.63 84.5308 136.63 84.3157V83.5476C136.63 83.3326 136.799 83.1636 137.014 83.1636C137.229 83.1636 137.398 83.3326 137.398 83.5476V84.3157C137.398 84.5231 137.221 84.6998 137.014 84.6998Z" fill="#292929"/>
    <path d="M140.085 84.6998C139.87 84.6998 139.701 84.5308 139.701 84.3157V83.5476C139.701 83.3326 139.87 83.1636 140.085 83.1636C140.3 83.1636 140.469 83.3326 140.469 83.5476V84.3157C140.469 84.5231 140.293 84.6998 140.085 84.6998Z" fill="#292929"/>
    <path d="M142.389 84.6998C142.174 84.6998 142.005 84.5308 142.005 84.3157V83.5476C142.005 83.3326 142.174 83.1636 142.389 83.1636C142.604 83.1636 142.773 83.3326 142.773 83.5476V84.3157C142.773 84.5231 142.596 84.6998 142.389 84.6998Z" fill="#292929"/>
    <path d="M145.46 84.6998C145.245 84.6998 145.076 84.5308 145.076 84.3157V83.5476C145.076 83.3326 145.245 83.1636 145.46 83.1636C145.675 83.1636 145.844 83.3326 145.844 83.5476V84.3157C145.844 84.5231 145.668 84.6998 145.46 84.6998Z" fill="#292929"/>
    <path d="M147.764 84.6998C147.549 84.6998 147.38 84.5308 147.38 84.3157V83.5476C147.38 83.3326 147.549 83.1636 147.764 83.1636C147.979 83.1636 148.148 83.3326 148.148 83.5476V84.3157C148.148 84.5231 147.971 84.6998 147.764 84.6998Z" fill="#292929"/>
    <path d="M134.71 84.6998C134.495 84.6998 134.326 84.5308 134.326 84.3157V83.5476C134.326 83.3326 134.495 83.1636 134.71 83.1636C134.925 83.1636 135.094 83.3326 135.094 83.5476V84.3157C135.094 84.5231 134.918 84.6998 134.71 84.6998Z" fill="#292929"/>
    <path d="M170.8 84.6998C170.585 84.6998 170.417 84.5308 170.417 84.3157V83.5476C170.417 83.3326 170.585 83.1636 170.8 83.1636C171.015 83.1636 171.184 83.3326 171.184 83.5476V84.3157C171.184 84.5231 171.008 84.6998 170.8 84.6998Z" fill="#292929"/>
    <path d="M168.497 84.6998C168.282 84.6998 168.113 84.5308 168.113 84.3157V83.5476C168.113 83.3326 168.282 83.1636 168.497 83.1636C168.712 83.1636 168.881 83.3326 168.881 83.5476V84.3157C168.881 84.5231 168.704 84.6998 168.497 84.6998Z" fill="#292929"/>
    <path d="M141.237 82.0113C140.815 82.0113 140.469 81.6657 140.469 81.2432V79.7071C140.469 79.2846 140.815 78.939 141.237 78.939C141.66 78.939 142.005 79.2846 142.005 79.7071V81.2432C142.005 81.6657 141.66 82.0113 141.237 82.0113Z" fill="#292929"/>
    <path d="M164.273 82.0113C163.851 82.0113 163.506 81.6657 163.506 81.2432V79.7071C163.506 79.2846 163.851 78.939 164.273 78.939C164.696 78.939 165.041 79.2846 165.041 79.7071V81.2432C165.041 81.6657 164.696 82.0113 164.273 82.0113Z" fill="#292929"/>
    <path d="M146.228 82.3961C146.013 82.3961 145.844 82.2271 145.844 82.012V80.4758C145.844 80.2608 146.013 80.0918 146.228 80.0918C146.443 80.0918 146.612 80.2608 146.612 80.4758V82.012C146.612 82.2194 146.436 82.3961 146.228 82.3961Z" fill="#292929"/>
    <path d="M159.282 82.3961C159.067 82.3961 158.898 82.2271 158.898 82.012V80.4758C158.898 80.2608 159.067 80.0918 159.282 80.0918C159.497 80.0918 159.666 80.2608 159.666 80.4758V82.012C159.666 82.2194 159.49 82.3961 159.282 82.3961Z" fill="#292929"/>
    <path d="M168.497 82.3961C168.282 82.3961 168.113 82.2271 168.113 82.012V80.4758C168.113 80.2608 168.282 80.0918 168.497 80.0918C168.712 80.0918 168.881 80.2608 168.881 80.4758V82.012C168.881 82.2194 168.704 82.3961 168.497 82.3961Z" fill="#292929"/>
    <path d="M157.747 84.6998C157.532 84.6998 157.363 84.5308 157.363 84.3157V83.5476C157.363 83.3326 157.532 83.1636 157.747 83.1636C157.962 83.1636 158.13 83.3326 158.13 83.5476V84.3157C158.13 84.5231 157.954 84.6998 157.747 84.6998Z" fill="#292929"/>
    <path d="M160.05 84.6998C159.835 84.6998 159.666 84.5308 159.666 84.3157V83.5476C159.666 83.3326 159.835 83.1636 160.05 83.1636C160.265 83.1636 160.434 83.3326 160.434 83.5476V84.3157C160.434 84.5231 160.258 84.6998 160.05 84.6998Z" fill="#292929"/>
    <path d="M163.122 84.6998C162.907 84.6998 162.738 84.5308 162.738 84.3157V83.5476C162.738 83.3326 162.907 83.1636 163.122 83.1636C163.337 83.1636 163.506 83.3326 163.506 83.5476V84.3157C163.506 84.5231 163.329 84.6998 163.122 84.6998Z" fill="#292929"/>
    <path d="M165.425 84.6998C165.21 84.6998 165.041 84.5308 165.041 84.3157V83.5476C165.041 83.3326 165.21 83.1636 165.425 83.1636C165.64 83.1636 165.809 83.3326 165.809 83.5476V84.3157C165.809 84.5231 165.633 84.6998 165.425 84.6998Z" fill="#292929"/>
    <path d="M139.701 77.787C139.655 77.787 139.602 77.7793 139.555 77.7562C139.363 77.6718 139.271 77.449 139.348 77.257C139.348 77.257 139.509 76.8115 139.325 75.9512C139.087 74.8529 139.433 74.4381 139.732 74.0771C139.878 73.9004 140.016 73.7315 140.108 73.4549C140.208 73.14 140.738 73.14 140.838 73.4549C140.93 73.7315 141.068 73.9004 141.214 74.0771C141.514 74.4381 141.851 74.8529 141.621 75.9512C141.437 76.8115 141.598 77.257 141.606 77.2647C141.682 77.4567 141.583 77.6794 141.391 77.7639C141.199 77.8407 140.976 77.7562 140.892 77.5565C140.861 77.4951 140.638 76.896 140.869 75.7899C141.022 75.0526 140.876 74.8682 140.623 74.561C140.577 74.5072 140.531 74.4458 140.477 74.3766C140.423 74.4458 140.377 74.5072 140.331 74.561C140.078 74.8682 139.924 75.0526 140.085 75.7899C140.323 76.896 140.093 77.4874 140.062 77.5565C139.993 77.6948 139.847 77.787 139.701 77.787Z" fill="#292929"/>
    <path d="M164.273 77.787C164.227 77.787 164.174 77.7793 164.128 77.7562C163.936 77.6718 163.843 77.449 163.92 77.257C163.92 77.257 164.082 76.8115 163.897 75.9512C163.659 74.8529 164.005 74.4381 164.304 74.0771C164.45 73.9004 164.588 73.7315 164.68 73.4549C164.78 73.14 165.31 73.14 165.41 73.4549C165.502 73.7315 165.64 73.9004 165.786 74.0771C166.086 74.4381 166.424 74.8529 166.193 75.9512C166.009 76.8115 166.17 77.257 166.178 77.2647C166.255 77.4567 166.155 77.6794 165.963 77.7639C165.771 77.8407 165.548 77.7562 165.464 77.5565C165.433 77.4951 165.21 76.896 165.441 75.7899C165.594 75.0526 165.448 74.8682 165.195 74.561C165.149 74.5072 165.103 74.4458 165.049 74.3766C164.995 74.4458 164.949 74.5072 164.903 74.561C164.65 74.8682 164.496 75.0526 164.657 75.7899C164.895 76.896 164.665 77.4874 164.634 77.5565C164.565 77.6948 164.419 77.787 164.273 77.787Z" fill="#292929"/>
    <path d="M154.291 77.7868C154.26 77.7868 154.23 77.7868 154.199 77.7791C154.022 77.7407 153.155 77.4258 153.523 75.3443C153.815 73.7236 153.431 72.9708 152.993 72.1029C152.909 71.9416 152.824 71.7726 152.748 71.596C152.663 71.7726 152.586 71.9339 152.502 72.1029C152.064 72.9708 151.688 73.7236 151.972 75.3443C152.341 77.4335 151.473 77.7407 151.296 77.7791C151.089 77.8252 150.882 77.7023 150.836 77.4872C150.79 77.2799 150.912 77.0725 151.12 77.0264C151.104 77.0264 151.442 76.7806 151.212 75.4671C150.882 73.593 151.35 72.6559 151.811 71.7419C152.018 71.3271 152.233 70.9047 152.371 70.3824C152.464 70.0444 153.024 70.0444 153.116 70.3824C153.254 70.9047 153.469 71.3348 153.677 71.7419C154.138 72.6482 154.606 73.5853 154.276 75.4671C154.038 76.8036 154.406 77.0341 154.406 77.0341C154.614 77.0801 154.721 77.2799 154.675 77.4872C154.637 77.6716 154.468 77.7868 154.291 77.7868Z" fill="#292929"/>
    <path d="M155.827 71.6424C155.796 71.6424 155.773 71.6424 155.742 71.6347C155.681 71.6194 155.366 71.5349 155.143 71.1431C154.821 70.5824 154.867 69.6838 155.266 68.4779C155.973 66.3656 155.074 65.4209 153.946 64.2226C153.531 63.7848 153.109 63.3316 152.748 62.8017C152.394 63.3316 151.964 63.7771 151.55 64.2226C150.421 65.4209 149.523 66.3656 150.229 68.4779C150.628 69.6838 150.674 70.5824 150.352 71.1431C150.129 71.5349 149.814 71.6194 149.753 71.6347C149.546 71.6808 149.338 71.5502 149.292 71.3428C149.246 71.1355 149.377 70.9281 149.584 70.8897C149.722 70.8359 150.022 70.3213 149.492 68.7237C148.64 66.1736 149.83 64.9139 150.982 63.7003C151.504 63.1473 152.041 62.5789 152.387 61.8799C152.517 61.6188 152.947 61.6188 153.07 61.8799C153.416 62.5789 153.961 63.1473 154.475 63.7003C155.627 64.9139 156.817 66.1736 155.965 68.7237C155.435 70.3213 155.735 70.8359 155.896 70.8974C156.103 70.9434 156.226 71.1431 156.18 71.3505C156.172 71.5195 156.003 71.6424 155.827 71.6424Z" fill="#292929"/>
    <path d="M150.836 80.8594C150.621 80.8594 150.452 80.6904 150.452 80.4754V79.7073C150.452 79.4922 150.621 79.3232 150.836 79.3232C151.051 79.3232 151.22 79.4922 151.22 79.7073V80.4754C151.22 80.6828 151.043 80.8594 150.836 80.8594Z" fill="#292929"/>
    <path d="M154.675 80.8594C154.46 80.8594 154.291 80.6904 154.291 80.4754V79.7073C154.291 79.4922 154.46 79.3232 154.675 79.3232C154.89 79.3232 155.059 79.4922 155.059 79.7073V80.4754C155.059 80.6828 154.882 80.8594 154.675 80.8594Z" fill="#292929"/>
    <path d="M135.862 88.9244C135.44 88.9244 135.094 88.5788 135.094 88.1563V87.3882C135.094 86.9658 135.44 86.6201 135.862 86.6201C136.284 86.6201 136.63 86.9658 136.63 87.3882V88.1563C136.63 88.5788 136.284 88.9244 135.862 88.9244Z" fill="#292929"/>
    <path d="M135.862 97.3732C135.44 97.3732 135.094 97.0275 135.094 96.6051V95.0689C135.094 94.6464 135.44 94.3008 135.862 94.3008C136.284 94.3008 136.63 94.6464 136.63 95.0689V96.6051C136.63 97.0275 136.284 97.3732 135.862 97.3732Z" fill="#292929"/>
    <path d="M135.862 93.5333C135.44 93.5333 135.094 93.1876 135.094 92.7652V91.9971C135.094 91.5746 135.44 91.229 135.862 91.229C136.284 91.229 136.63 91.5746 136.63 91.9971V92.7652C136.63 93.1876 136.284 93.5333 135.862 93.5333Z" fill="#292929"/>
    <path d="M158.898 97.3732C158.476 97.3732 158.13 97.0275 158.13 96.6051V95.0689C158.13 94.6464 158.476 94.3008 158.898 94.3008C159.321 94.3008 159.666 94.6464 159.666 95.0689V96.6051C159.666 97.0275 159.321 97.3732 158.898 97.3732Z" fill="#292929"/>
    <path d="M158.898 93.5333C158.476 93.5333 158.13 93.1876 158.13 92.7652V91.9971C158.13 91.5746 158.476 91.229 158.898 91.229C159.321 91.229 159.666 91.5746 159.666 91.9971V92.7652C159.666 93.1876 159.321 93.5333 158.898 93.5333Z" fill="#292929"/>
    <path d="M141.237 93.5333C140.815 93.5333 140.469 93.1876 140.469 92.7652V91.9971C140.469 91.5746 140.815 91.229 141.237 91.229C141.66 91.229 142.005 91.5746 142.005 91.9971V92.7652C142.005 93.1876 141.66 93.5333 141.237 93.5333Z" fill="#292929"/>
    <path d="M164.273 93.5333C163.851 93.5333 163.506 93.1876 163.506 92.7652V91.9971C163.506 91.5746 163.851 91.229 164.273 91.229C164.696 91.229 165.041 91.5746 165.041 91.9971V92.7652C165.041 93.1876 164.696 93.5333 164.273 93.5333Z" fill="#292929"/>
    <path d="M146.612 97.3732C146.19 97.3732 145.844 97.0275 145.844 96.6051V95.0689C145.844 94.6464 146.19 94.3008 146.612 94.3008C147.035 94.3008 147.38 94.6464 147.38 95.0689V96.6051C147.38 97.0275 147.035 97.3732 146.612 97.3732Z" fill="#292929"/>
    <path d="M146.612 93.5333C146.19 93.5333 145.844 93.1876 145.844 92.7652V91.9971C145.844 91.5746 146.19 91.229 146.612 91.229C147.035 91.229 147.38 91.5746 147.38 91.9971V92.7652C147.38 93.1876 147.035 93.5333 146.612 93.5333Z" fill="#292929"/>
    <path d="M169.649 97.3732C169.226 97.3732 168.881 97.0275 168.881 96.6051V95.0689C168.881 94.6464 169.226 94.3008 169.649 94.3008C170.071 94.3008 170.417 94.6464 170.417 95.0689V96.6051C170.417 97.0275 170.071 97.3732 169.649 97.3732Z" fill="#292929"/>
    <path d="M169.649 93.5333C169.226 93.5333 168.881 93.1876 168.881 92.7652V91.9971C168.881 91.5746 169.226 91.229 169.649 91.229C170.071 91.229 170.417 91.5746 170.417 91.9971V92.7652C170.417 93.1876 170.071 93.5333 169.649 93.5333Z" fill="#292929"/>
    <path d="M141.237 88.9244C140.815 88.9244 140.469 88.5788 140.469 88.1563V87.3882C140.469 86.9658 140.815 86.6201 141.237 86.6201C141.66 86.6201 142.005 86.9658 142.005 87.3882V88.1563C142.005 88.5788 141.66 88.9244 141.237 88.9244Z" fill="#292929"/>
    <path d="M146.612 88.9244C146.19 88.9244 145.844 88.5788 145.844 88.1563V87.3882C145.844 86.9658 146.19 86.6201 146.612 86.6201C147.035 86.6201 147.38 86.9658 147.38 87.3882V88.1563C147.38 88.5788 147.035 88.9244 146.612 88.9244Z" fill="#292929"/>
    <path d="M152.755 84.316C152.333 84.316 151.987 83.9704 151.987 83.5479V82.7798C151.987 82.3574 152.333 82.0117 152.755 82.0117C153.178 82.0117 153.523 82.3574 153.523 82.7798V83.5479C153.523 83.9704 153.178 84.316 152.755 84.316Z" fill="#292929"/>
    <path d="M158.898 88.9244C158.476 88.9244 158.13 88.5788 158.13 88.1563V87.3882C158.13 86.9658 158.476 86.6201 158.898 86.6201C159.321 86.6201 159.666 86.9658 159.666 87.3882V88.1563C159.666 88.5788 159.321 88.9244 158.898 88.9244Z" fill="#292929"/>
    <path d="M164.273 88.9244C163.851 88.9244 163.506 88.5788 163.506 88.1563V87.3882C163.506 86.9658 163.851 86.6201 164.273 86.6201C164.696 86.6201 165.041 86.9658 165.041 87.3882V88.1563C165.041 88.5788 164.696 88.9244 164.273 88.9244Z" fill="#292929"/>
    <path d="M169.649 88.9244C169.226 88.9244 168.881 88.5788 168.881 88.1563V87.3882C168.881 86.9658 169.226 86.6201 169.649 86.6201C170.071 86.6201 170.417 86.9658 170.417 87.3882V88.1563C170.417 88.5788 170.071 88.9244 169.649 88.9244Z" fill="#292929"/>
    <path d="M151.604 88.5406C151.389 88.5406 151.22 88.3716 151.22 88.1565V87.3884C151.22 87.1734 151.389 87.0044 151.604 87.0044C151.819 87.0044 151.987 87.1734 151.987 87.3884V88.1565C151.987 88.3639 151.811 88.5406 151.604 88.5406Z" fill="#292929"/>
    <path d="M153.907 88.5406C153.692 88.5406 153.523 88.3716 153.523 88.1565V87.3884C153.523 87.1734 153.692 87.0044 153.907 87.0044C154.122 87.0044 154.291 87.1734 154.291 87.3884V88.1565C154.291 88.3639 154.114 88.5406 153.907 88.5406Z" fill="#292929"/>
    <path d="M153.907 97.7578C153.692 97.7578 153.523 97.5888 153.523 97.3737V92.8804L152.932 91.9971H152.579L151.987 92.8804V97.3737C151.987 97.5888 151.819 97.7578 151.604 97.7578C151.389 97.7578 151.22 97.5888 151.22 97.3737V92.7652C151.22 92.6884 151.243 92.6116 151.281 92.5501L152.049 91.398C152.118 91.2905 152.241 91.229 152.371 91.229H153.139C153.27 91.229 153.385 91.2905 153.462 91.398L154.23 92.5501C154.268 92.6116 154.291 92.6884 154.291 92.7652V97.3737C154.291 97.5811 154.115 97.7578 153.907 97.7578Z" fill="#292929"/>
    <path d="M126.302 98.7669H109.408C108.986 98.7669 108.641 98.4213 108.641 97.9988V90.3179C108.641 89.8954 108.986 89.5498 109.408 89.5498H126.302C126.724 89.5498 127.07 89.8954 127.07 90.3179V97.9988C127.07 98.4213 126.724 98.7669 126.302 98.7669ZM110.176 97.2307H125.534V91.086H110.176V97.2307Z" fill="#292929"/>
    <path d="M126.302 88.7816H109.408C108.986 88.7816 108.641 88.436 108.641 88.0135V78.7964C108.641 78.374 108.986 78.0283 109.408 78.0283H126.302C126.724 78.0283 127.07 78.374 127.07 78.7964V88.0135C127.07 88.436 126.724 88.7816 126.302 88.7816ZM110.176 87.2454H125.534V79.5645H110.176V87.2454Z" fill="#292929"/>
    <path d="M124.766 77.2602H110.944C110.522 77.2602 110.176 76.9145 110.176 76.4921V66.5069C110.176 66.0844 110.522 65.7388 110.944 65.7388H124.766C125.188 65.7388 125.534 66.0844 125.534 66.5069V76.4921C125.534 76.9145 125.188 77.2602 124.766 77.2602ZM111.712 75.724H123.998V67.275H111.712V75.724Z" fill="#292929"/>
    <path d="M123.23 64.9702H112.48C112.058 64.9702 111.712 64.6246 111.712 64.2022V50.3765C111.712 49.954 112.058 49.6084 112.48 49.6084H123.23C123.653 49.6084 123.998 49.954 123.998 50.3765V64.2022C123.998 64.6246 123.653 64.9702 123.23 64.9702ZM113.248 63.4341H122.462V51.1446H113.248V63.4341Z" fill="#292929"/>
    <path d="M122.463 50.3771C122.04 50.3771 121.695 50.0314 121.695 49.609C121.695 48.3263 121.05 47.7579 120.159 46.9668C119.391 46.2908 118.539 45.5304 118.055 44.2323H117.648C117.164 45.5381 116.312 46.2908 115.544 46.9668C114.653 47.7502 114.008 48.3186 114.008 49.609C114.008 50.0314 113.663 50.3771 113.24 50.3771C112.818 50.3771 112.472 50.0314 112.472 49.609C112.472 47.6273 113.563 46.6672 114.523 45.8146C115.298 45.131 116.028 44.4858 116.335 43.2722C116.419 42.9266 116.726 42.6885 117.08 42.6885H118.615C118.969 42.6885 119.276 42.9266 119.36 43.2722C119.66 44.4781 120.397 45.131 121.172 45.8146C122.132 46.6672 123.223 47.6273 123.223 49.609C123.23 50.0314 122.885 50.3771 122.463 50.3771Z" fill="#292929"/>
    <path d="M117.855 44.2322C117.433 44.2322 117.087 43.8866 117.087 43.4641V37.3194C117.087 36.8969 117.433 36.5513 117.855 36.5513C118.277 36.5513 118.623 36.8969 118.623 37.3194V43.4641C118.623 43.8866 118.277 44.2322 117.855 44.2322Z" fill="#292929"/>
    <path d="M118.623 41.9283H117.087C116.665 41.9283 116.32 41.5826 116.32 41.1602C116.32 40.7377 116.665 40.3921 117.087 40.3921H118.623C119.045 40.3921 119.391 40.7377 119.391 41.1602C119.391 41.5826 119.045 41.9283 118.623 41.9283Z" fill="#292929"/>
    <path d="M119.391 39.6236H116.319C115.897 39.6236 115.552 39.2779 115.552 38.8555C115.552 38.433 115.897 38.0874 116.319 38.0874H119.391C119.813 38.0874 120.159 38.433 120.159 38.8555C120.159 39.2779 119.813 39.6236 119.391 39.6236Z" fill="#292929"/>
    <path d="M127.07 79.5645H108.641C108.218 79.5645 107.873 79.2189 107.873 78.7964C107.873 78.374 108.218 78.0283 108.641 78.0283H127.07C127.492 78.0283 127.838 78.374 127.838 78.7964C127.838 79.2189 127.492 79.5645 127.07 79.5645Z" fill="#292929"/>
    <path d="M125.534 67.275H110.176C109.754 67.275 109.409 66.9293 109.409 66.5069C109.409 66.0844 109.754 65.7388 110.176 65.7388H125.534C125.956 65.7388 126.302 66.0844 126.302 66.5069C126.302 66.9293 125.956 67.275 125.534 67.275Z" fill="#292929"/>
    <path d="M124.781 67.275C124.774 67.275 124.774 67.275 124.766 67.275H110.944C110.637 67.275 110.353 67.0907 110.238 66.7988C110.123 66.5069 110.184 66.1843 110.407 65.9616L112.71 63.6573C112.856 63.5114 113.048 63.4346 113.256 63.4346H122.47C122.677 63.4346 122.869 63.5191 123.015 63.6573L125.234 65.8771C125.434 66.0154 125.557 66.2458 125.557 66.5069C125.549 66.9294 125.204 67.275 124.781 67.275ZM112.795 65.7388H122.908L122.14 64.9708H113.563L112.795 65.7388Z" fill="#292929"/>
    <path d="M126.317 79.5641C126.31 79.5641 126.31 79.5641 126.302 79.5641H109.409C109.101 79.5641 108.817 79.3797 108.702 79.0879C108.587 78.796 108.648 78.4734 108.871 78.2507L111.175 75.9464C111.321 75.8004 111.513 75.7236 111.72 75.7236H124.006C124.213 75.7236 124.405 75.8081 124.551 75.9464L126.77 78.1662C126.97 78.3044 127.093 78.5348 127.093 78.796C127.085 79.2185 126.74 79.5641 126.317 79.5641ZM111.259 78.0279H124.444L123.676 77.2598H112.027L111.259 78.0279Z" fill="#292929"/>
    <path d="M126.302 91.0861H109.408C108.986 91.0861 108.641 90.7404 108.641 90.318V88.0137C108.641 87.5912 108.986 87.2456 109.408 87.2456H126.302C126.724 87.2456 127.07 87.5912 127.07 88.0137V90.318C127.07 90.7404 126.724 91.0861 126.302 91.0861ZM110.176 89.5499H125.534V88.7818H110.176V89.5499Z" fill="#292929"/>
    <path d="M123.998 51.1446H111.712C111.29 51.1446 110.944 50.7989 110.944 50.3765C110.944 49.954 111.29 49.6084 111.712 49.6084H123.998C124.421 49.6084 124.766 49.954 124.766 50.3765C124.766 50.7989 124.421 51.1446 123.998 51.1446Z" fill="#292929"/>
    <path d="M123.998 54.2173H111.712C111.29 54.2173 110.944 53.8717 110.944 53.4492C110.944 53.0268 111.29 52.6812 111.712 52.6812H123.998C124.421 52.6812 124.766 53.0268 124.766 53.4492C124.766 53.8717 124.421 54.2173 123.998 54.2173Z" fill="#292929"/>
    <path d="M127.07 91.086H108.641C108.218 91.086 107.873 90.7403 107.873 90.3179C107.873 89.8954 108.218 89.5498 108.641 89.5498H127.07C127.492 89.5498 127.838 89.8954 127.838 90.3179C127.838 90.7403 127.492 91.086 127.07 91.086Z" fill="#292929"/>
    <path d="M125.534 74.188H110.176C109.961 74.188 109.792 74.019 109.792 73.804C109.792 73.5889 109.961 73.4199 110.176 73.4199H125.534C125.749 73.4199 125.918 73.5889 125.918 73.804C125.918 74.0113 125.749 74.188 125.534 74.188Z" fill="#292929"/>
    <path d="M123.998 61.8985H111.712C111.497 61.8985 111.328 61.7295 111.328 61.5144C111.328 61.2994 111.497 61.1304 111.712 61.1304H123.998C124.213 61.1304 124.382 61.2994 124.382 61.5144C124.382 61.7218 124.213 61.8985 123.998 61.8985Z" fill="#292929"/>
    <path d="M113.632 96.8464C113.417 96.8464 113.248 96.6774 113.248 96.4623V91.0857C113.248 90.8706 113.417 90.7017 113.632 90.7017C113.847 90.7017 114.016 90.8706 114.016 91.0857V96.4623C114.016 96.6697 113.847 96.8464 113.632 96.8464Z" fill="#292929"/>
    <path d="M115.935 96.8464C115.72 96.8464 115.552 96.6774 115.552 96.4623V91.0857C115.552 90.8706 115.72 90.7017 115.935 90.7017C116.15 90.7017 116.319 90.8706 116.319 91.0857V96.4623C116.319 96.6697 116.15 96.8464 115.935 96.8464Z" fill="#292929"/>
    <path d="M122.079 96.8464C121.864 96.8464 121.695 96.6774 121.695 96.4623V91.0857C121.695 90.8706 121.864 90.7017 122.079 90.7017C122.294 90.7017 122.463 90.8706 122.463 91.0857V96.4623C122.463 96.6697 122.294 96.8464 122.079 96.8464Z" fill="#292929"/>
    <path d="M119.775 96.8464C119.56 96.8464 119.391 96.6774 119.391 96.4623V91.0857C119.391 90.8706 119.56 90.7017 119.775 90.7017C119.99 90.7017 120.159 90.8706 120.159 91.0857V96.4623C120.159 96.6697 119.99 96.8464 119.775 96.8464Z" fill="#292929"/>
    <path d="M116.703 88.0135H113.632C113.417 88.0135 113.248 87.8445 113.248 87.6295V79.1804C113.248 78.9654 113.417 78.7964 113.632 78.7964H116.703C116.918 78.7964 117.087 78.9654 117.087 79.1804V87.6295C117.087 87.8368 116.918 88.0135 116.703 88.0135ZM114.016 87.2454H116.319V79.5645H114.016V87.2454Z" fill="#292929"/>
    <path d="M115.936 74.1878H114.4C114.185 74.1878 114.016 74.0188 114.016 73.8037V66.8909C114.016 66.6758 114.185 66.5068 114.4 66.5068H115.936C116.151 66.5068 116.319 66.6758 116.319 66.8909V73.8037C116.319 74.0111 116.151 74.1878 115.936 74.1878ZM114.784 73.4197H115.552V67.2749H114.784V73.4197Z" fill="#292929"/>
    <path d="M116.703 61.8982H114.4C114.185 61.8982 114.016 61.7292 114.016 61.5141V55.3694C114.016 55.1543 114.185 54.9854 114.4 54.9854H116.703C116.918 54.9854 117.087 55.1543 117.087 55.3694V61.5141C117.087 61.7215 116.918 61.8982 116.703 61.8982ZM114.784 61.1301H116.319V55.7534H114.784V61.1301Z" fill="#292929"/>
    <path d="M121.311 61.8982H119.007C118.792 61.8982 118.623 61.7292 118.623 61.5141V55.3694C118.623 55.1543 118.792 54.9854 119.007 54.9854H121.311C121.526 54.9854 121.695 55.1543 121.695 55.3694V61.5141C121.695 61.7215 121.526 61.8982 121.311 61.8982ZM119.391 61.1301H120.927V55.7534H119.391V61.1301Z" fill="#292929"/>
    <path d="M115.168 88.3973C114.953 88.3973 114.784 88.2283 114.784 88.0132V79.5642C114.784 79.3492 114.953 79.1802 115.168 79.1802C115.383 79.1802 115.552 79.3492 115.552 79.5642V88.0132C115.552 88.2206 115.383 88.3973 115.168 88.3973Z" fill="#292929"/>
    <path d="M111.328 88.3973C111.113 88.3973 110.944 88.2283 110.944 88.0132V79.5642C110.944 79.3492 111.113 79.1802 111.328 79.1802C111.543 79.1802 111.712 79.3492 111.712 79.5642V88.0132C111.712 88.2206 111.543 88.3973 111.328 88.3973Z" fill="#292929"/>
    <path d="M124.382 88.3973C124.167 88.3973 123.998 88.2283 123.998 88.0132V79.5642C123.998 79.3492 124.167 79.1802 124.382 79.1802C124.597 79.1802 124.766 79.3492 124.766 79.5642V88.0132C124.766 88.2206 124.597 88.3973 124.382 88.3973Z" fill="#292929"/>
    <path d="M122.079 88.0135H119.007C118.792 88.0135 118.623 87.8445 118.623 87.6295V79.1804C118.623 78.9654 118.792 78.7964 119.007 78.7964H122.079C122.294 78.7964 122.463 78.9654 122.463 79.1804V87.6295C122.463 87.8368 122.294 88.0135 122.079 88.0135ZM119.391 87.2454H121.695V79.5645H119.391V87.2454Z" fill="#292929"/>
    <path d="M120.543 88.3973C120.328 88.3973 120.159 88.2283 120.159 88.0132V79.5642C120.159 79.3492 120.328 79.1802 120.543 79.1802C120.758 79.1802 120.927 79.3492 120.927 79.5642V88.0132C120.927 88.2206 120.758 88.3973 120.543 88.3973Z" fill="#292929"/>
    <path d="M121.311 74.1878H119.775C119.56 74.1878 119.391 74.0188 119.391 73.8037V66.8909C119.391 66.6758 119.56 66.5068 119.775 66.5068H121.311C121.526 66.5068 121.695 66.6758 121.695 66.8909V73.8037C121.695 74.0111 121.526 74.1878 121.311 74.1878ZM120.159 73.4197H120.927V67.2749H120.159V73.4197Z" fill="#292929"/>
    <path d="M114.784 61.1299H114.016C113.801 61.1299 113.632 60.9609 113.632 60.7459C113.632 60.5308 113.801 60.3618 114.016 60.3618H114.784C114.999 60.3618 115.168 60.5308 115.168 60.7459C115.168 60.9532 114.999 61.1299 114.784 61.1299Z" fill="#292929"/>
    <path d="M114.784 56.522H114.016C113.801 56.522 113.632 56.353 113.632 56.138C113.632 55.9229 113.801 55.7539 114.016 55.7539H114.784C114.999 55.7539 115.168 55.9229 115.168 56.138C115.168 56.3453 114.999 56.522 114.784 56.522Z" fill="#292929"/>
    <path d="M117.087 56.522H116.319C116.104 56.522 115.935 56.353 115.935 56.138C115.935 55.9229 116.104 55.7539 116.319 55.7539H117.087C117.302 55.7539 117.471 55.9229 117.471 56.138C117.471 56.3453 117.302 56.522 117.087 56.522Z" fill="#292929"/>
    <path d="M119.391 56.522H118.623C118.408 56.522 118.239 56.353 118.239 56.138C118.239 55.9229 118.408 55.7539 118.623 55.7539H119.391C119.606 55.7539 119.775 55.9229 119.775 56.138C119.775 56.3453 119.606 56.522 119.391 56.522Z" fill="#292929"/>
    <path d="M121.695 56.522H120.927C120.712 56.522 120.543 56.353 120.543 56.138C120.543 55.9229 120.712 55.7539 120.927 55.7539H121.695C121.91 55.7539 122.078 55.9229 122.078 56.138C122.078 56.3453 121.91 56.522 121.695 56.522Z" fill="#292929"/>
    <path d="M117.087 61.1299H116.319C116.104 61.1299 115.935 60.9609 115.935 60.7459C115.935 60.5308 116.104 60.3618 116.319 60.3618H117.087C117.302 60.3618 117.471 60.5308 117.471 60.7459C117.471 60.9532 117.302 61.1299 117.087 61.1299Z" fill="#292929"/>
    <path d="M119.391 61.1299H118.623C118.408 61.1299 118.239 60.9609 118.239 60.7459C118.239 60.5308 118.408 60.3618 118.623 60.3618H119.391C119.606 60.3618 119.775 60.5308 119.775 60.7459C119.775 60.9532 119.606 61.1299 119.391 61.1299Z" fill="#292929"/>
    <path d="M121.695 61.1299H120.927C120.712 61.1299 120.543 60.9609 120.543 60.7459C120.543 60.5308 120.712 60.3618 120.927 60.3618H121.695C121.91 60.3618 122.078 60.5308 122.078 60.7459C122.078 60.9532 121.91 61.1299 121.695 61.1299Z" fill="#292929"/>
    <path d="M114.016 68.0439C113.916 68.0439 113.816 68.0054 113.747 67.9362C113.67 67.8593 113.632 67.7594 113.632 67.6594C113.632 67.5595 113.67 67.4595 113.739 67.3903C113.901 67.2365 114.147 67.2442 114.285 67.3903C114.362 67.4595 114.4 67.5595 114.4 67.6594C114.4 67.7594 114.362 67.8593 114.285 67.9362C114.216 68.0054 114.116 68.0439 114.016 68.0439Z" fill="#292929"/>
    <path d="M113.248 80.3334C113.148 80.3334 113.049 80.295 112.979 80.2258C112.902 80.1489 112.864 80.0489 112.864 79.949C112.864 79.849 112.902 79.7491 112.972 79.6799C113.125 79.5261 113.379 79.5338 113.517 79.6799C113.594 79.7567 113.633 79.849 113.633 79.949C113.633 80.0489 113.594 80.1489 113.517 80.2181C113.448 80.295 113.348 80.3334 113.248 80.3334Z" fill="#292929"/>
    <path d="M111.713 80.3335C111.613 80.3335 111.513 80.295 111.443 80.2258C111.367 80.1489 111.328 80.049 111.328 79.949C111.328 79.849 111.367 79.7491 111.436 79.6799C111.59 79.5338 111.836 79.5338 111.982 79.6722C112.058 79.7568 112.097 79.849 112.097 79.949C112.097 80.049 112.058 80.1489 111.989 80.2181C111.905 80.295 111.812 80.3335 111.713 80.3335Z" fill="#292929"/>
    <path d="M117.088 80.3335C116.988 80.3335 116.888 80.295 116.819 80.2181C116.75 80.1489 116.703 80.049 116.703 79.949C116.703 79.849 116.742 79.7491 116.819 79.6799C116.957 79.5338 117.218 79.5338 117.357 79.6799C117.434 79.7491 117.472 79.849 117.472 79.949C117.472 80.049 117.434 80.1489 117.357 80.2258C117.288 80.295 117.188 80.3335 117.088 80.3335Z" fill="#292929"/>
    <path d="M122.463 80.3335C122.363 80.3335 122.263 80.295 122.194 80.2258C122.117 80.1489 122.078 80.049 122.078 79.949C122.078 79.849 122.117 79.7491 122.186 79.6799C122.34 79.5338 122.586 79.5338 122.732 79.6722C122.809 79.7568 122.847 79.849 122.847 79.949C122.847 80.049 122.809 80.1489 122.732 80.2181C122.655 80.295 122.563 80.3335 122.463 80.3335Z" fill="#292929"/>
    <path d="M123.999 80.3335C123.899 80.3335 123.799 80.295 123.73 80.2181C123.66 80.1566 123.614 80.0566 123.614 79.949C123.614 79.8414 123.653 79.7491 123.73 79.6799C123.868 79.5338 124.129 79.5338 124.268 79.6799C124.345 79.7491 124.383 79.849 124.383 79.949C124.383 80.049 124.345 80.1489 124.268 80.2258C124.199 80.295 124.099 80.3335 123.999 80.3335Z" fill="#292929"/>
    <path d="M118.623 80.3334C118.523 80.3334 118.431 80.2949 118.354 80.2257C118.278 80.1489 118.239 80.0489 118.239 79.9489C118.239 79.849 118.278 79.7567 118.347 79.6798C118.5 79.526 118.754 79.5337 118.892 79.6721C118.969 79.749 119.008 79.849 119.008 79.9489C119.008 80.0489 118.969 80.1488 118.892 80.2181C118.823 80.2949 118.723 80.3334 118.623 80.3334Z" fill="#292929"/>
    <path d="M113.248 87.246C113.156 87.246 113.056 87.2076 112.979 87.1384C112.902 87.0615 112.864 86.9615 112.864 86.8616C112.864 86.7616 112.902 86.6617 112.972 86.5925C113.118 86.4464 113.379 86.4464 113.517 86.5925C113.594 86.6617 113.633 86.7616 113.633 86.8616C113.633 86.9615 113.594 87.0615 113.517 87.1307C113.441 87.2076 113.348 87.246 113.248 87.246Z" fill="#292929"/>
    <path d="M111.713 87.246C111.613 87.246 111.513 87.2076 111.443 87.1307C111.367 87.0615 111.328 86.9615 111.328 86.8616C111.328 86.7616 111.367 86.6617 111.443 86.5925C111.574 86.4464 111.843 86.4464 111.989 86.5925C112.058 86.654 112.097 86.7539 112.097 86.8616C112.097 86.9615 112.058 87.0615 111.982 87.1384C111.912 87.2076 111.812 87.246 111.713 87.246Z" fill="#292929"/>
    <path d="M116.32 68.0439C116.22 68.0439 116.12 68.0055 116.051 67.9286C115.974 67.8594 115.935 67.7594 115.935 67.6594C115.935 67.5595 115.974 67.4595 116.051 67.3903C116.189 67.2442 116.443 67.2442 116.589 67.3826C116.666 67.4595 116.704 67.5595 116.704 67.6594C116.704 67.7594 116.666 67.8594 116.597 67.9286C116.512 68.0055 116.42 68.0439 116.32 68.0439Z" fill="#292929"/>
    <path d="M119.391 68.0439C119.291 68.0439 119.199 68.0054 119.122 67.9362C119.045 67.8593 119.007 67.7594 119.007 67.6594C119.007 67.5595 119.045 67.4595 119.115 67.3903C119.276 67.2365 119.522 67.2442 119.66 67.3903C119.737 67.4595 119.776 67.5595 119.776 67.6594C119.776 67.7594 119.737 67.8593 119.66 67.9362C119.591 68.0054 119.491 68.0439 119.391 68.0439Z" fill="#292929"/>
    <path d="M121.695 68.0439C121.595 68.0439 121.495 68.0055 121.426 67.9286C121.357 67.8594 121.311 67.7671 121.311 67.6594C121.311 67.5518 121.349 67.4595 121.426 67.3903C121.564 67.2442 121.818 67.2442 121.964 67.3826C122.041 67.4595 122.079 67.5595 122.079 67.6594C122.079 67.7594 122.041 67.8594 121.964 67.9286C121.895 68.0055 121.795 68.0439 121.695 68.0439Z" fill="#292929"/>
    <path d="M115.935 53.0655C115.72 53.0655 115.552 52.8965 115.552 52.6815V51.1453C115.552 50.9302 115.72 50.7612 115.935 50.7612C116.15 50.7612 116.319 50.9302 116.319 51.1453V52.6815C116.319 52.8888 116.15 53.0655 115.935 53.0655Z" fill="#292929"/>
    <path d="M115.935 54.6016C115.72 54.6016 115.552 54.4326 115.552 54.2176V53.4495C115.552 53.2344 115.72 53.0654 115.935 53.0654C116.15 53.0654 116.319 53.2344 116.319 53.4495V54.2176C116.319 54.425 116.15 54.6016 115.935 54.6016Z" fill="#292929"/>
    <path d="M119.775 54.6016C119.56 54.6016 119.391 54.4326 119.391 54.2176V53.4495C119.391 53.2344 119.56 53.0654 119.775 53.0654C119.99 53.0654 120.159 53.2344 120.159 53.4495V54.2176C120.159 54.425 119.99 54.6016 119.775 54.6016Z" fill="#292929"/>
    <path d="M119.775 53.0655C119.56 53.0655 119.391 52.8965 119.391 52.6815V51.1453C119.391 50.9302 119.56 50.7612 119.775 50.7612C119.99 50.7612 120.159 50.9302 120.159 51.1453V52.6815C120.159 52.8888 119.99 53.0655 119.775 53.0655Z" fill="#292929"/>
    <path d="M115.935 63.8189C115.72 63.8189 115.552 63.6499 115.552 63.4349V61.8987C115.552 61.6836 115.72 61.5146 115.935 61.5146C116.15 61.5146 116.319 61.6836 116.319 61.8987V63.4349C116.319 63.6423 116.15 63.8189 115.935 63.8189Z" fill="#292929"/>
    <path d="M115.935 76.108C115.72 76.108 115.552 75.939 115.552 75.7239V74.1878C115.552 73.9727 115.72 73.8037 115.935 73.8037C116.15 73.8037 116.319 73.9727 116.319 74.1878V75.7239C116.319 75.9313 116.15 76.108 115.935 76.108Z" fill="#292929"/>
    <path d="M112.864 76.108C112.649 76.108 112.48 75.939 112.48 75.7239V74.1878C112.48 73.9727 112.649 73.8037 112.864 73.8037C113.079 73.8037 113.248 73.9727 113.248 74.1878V75.7239C113.248 75.9313 113.079 76.108 112.864 76.108Z" fill="#292929"/>
    <path d="M119.775 76.108C119.56 76.108 119.391 75.939 119.391 75.7239V74.1878C119.391 73.9727 119.56 73.8037 119.775 73.8037C119.99 73.8037 120.159 73.9727 120.159 74.1878V75.7239C120.159 75.9313 119.99 76.108 119.775 76.108Z" fill="#292929"/>
    <path d="M122.846 76.108C122.631 76.108 122.463 75.939 122.463 75.7239V74.1878C122.463 73.9727 122.631 73.8037 122.846 73.8037C123.061 73.8037 123.23 73.9727 123.23 74.1878V75.7239C123.23 75.9313 123.061 76.108 122.846 76.108Z" fill="#292929"/>
    <path d="M119.775 63.8189C119.56 63.8189 119.391 63.6499 119.391 63.4349V61.8987C119.391 61.6836 119.56 61.5146 119.775 61.5146C119.99 61.5146 120.159 61.6836 120.159 61.8987V63.4349C120.159 63.6423 119.99 63.8189 119.775 63.8189Z" fill="#292929"/>
    <path d="M117.855 85.7091C117.433 85.7091 117.087 85.3635 117.087 84.941V81.8687C117.087 81.4462 117.433 81.1006 117.855 81.1006C118.277 81.1006 118.623 81.4462 118.623 81.8687V84.941C118.623 85.3635 118.277 85.7091 117.855 85.7091Z" fill="#292929"/>
    <path d="M117.855 98.7668C117.433 98.7668 117.087 98.4211 117.087 97.9987V94.1582C117.087 93.7358 117.433 93.3901 117.855 93.3901C118.277 93.3901 118.623 93.7358 118.623 94.1582V97.9987C118.623 98.4211 118.277 98.7668 117.855 98.7668Z" fill="#292929"/>
    <path d="M123.998 98.7668C123.576 98.7668 123.23 98.4211 123.23 97.9987V94.1582C123.23 93.7358 123.576 93.3901 123.998 93.3901C124.42 93.3901 124.766 93.7358 124.766 94.1582V97.9987C124.766 98.4211 124.42 98.7668 123.998 98.7668Z" fill="#292929"/>
    <path d="M111.712 98.7668C111.29 98.7668 110.944 98.4211 110.944 97.9987V94.1582C110.944 93.7358 111.29 93.3901 111.712 93.3901C112.134 93.3901 112.48 93.7358 112.48 94.1582V97.9987C112.48 98.4211 112.134 98.7668 111.712 98.7668Z" fill="#292929"/>
    <path d="M111.712 92.6218C111.513 92.6218 111.313 92.5373 111.167 92.399C111.029 92.2531 110.944 92.0534 110.944 91.8537C110.944 91.6463 111.029 91.4543 111.167 91.3084C111.451 91.0242 111.973 91.0242 112.257 91.3084C112.396 91.4543 112.48 91.654 112.48 91.8537C112.48 92.0534 112.396 92.2531 112.257 92.399C112.111 92.5373 111.912 92.6218 111.712 92.6218Z" fill="#292929"/>
    <path d="M117.855 92.6218C117.656 92.6218 117.456 92.5373 117.31 92.399C117.172 92.2531 117.087 92.0611 117.087 91.8537C117.087 91.6463 117.172 91.4543 117.318 91.3084C117.594 91.0242 118.116 91.0242 118.4 91.3084C118.539 91.4543 118.623 91.654 118.623 91.8537C118.623 92.0534 118.539 92.2531 118.4 92.399C118.254 92.5373 118.055 92.6218 117.855 92.6218Z" fill="#292929"/>
    <path d="M123.998 92.6218C123.799 92.6218 123.599 92.5373 123.453 92.399C123.315 92.2531 123.23 92.0534 123.23 91.8537C123.23 91.654 123.315 91.4543 123.453 91.3084C123.737 91.0242 124.252 91.0242 124.543 91.3084C124.682 91.4543 124.766 91.6463 124.766 91.8537C124.766 92.0534 124.682 92.2531 124.543 92.399C124.397 92.5373 124.198 92.6218 123.998 92.6218Z" fill="#292929"/>
    <path d="M111.712 85.7091C111.29 85.7091 110.944 85.3635 110.944 84.941V81.8687C110.944 81.4462 111.29 81.1006 111.712 81.1006C112.134 81.1006 112.48 81.4462 112.48 81.8687V84.941C112.48 85.3635 112.134 85.7091 111.712 85.7091Z" fill="#292929"/>
    <path d="M123.998 85.7091C123.576 85.7091 123.23 85.3635 123.23 84.941V81.8687C123.23 81.4462 123.576 81.1006 123.998 81.1006C124.42 81.1006 124.766 81.4462 124.766 81.8687V84.941C124.766 85.3635 124.42 85.7091 123.998 85.7091Z" fill="#292929"/>
    <path d="M119.007 74.1877H116.703C116.488 74.1877 116.32 74.0187 116.32 73.8037V69.9632C116.32 68.9032 117.011 68.043 117.855 68.043C118.7 68.043 119.391 68.9032 119.391 69.9632V73.8037C119.391 74.011 119.222 74.1877 119.007 74.1877ZM117.087 73.4196H118.623V69.9632C118.623 69.341 118.27 68.8111 117.855 68.8111C117.441 68.8111 117.087 69.341 117.087 69.9632V73.4196Z" fill="#292929"/>
    <path d="M124.382 74.1877H122.079C121.864 74.1877 121.695 74.0187 121.695 73.8037V69.9632C121.695 68.9032 122.386 68.043 123.23 68.043C124.075 68.043 124.766 68.9032 124.766 69.9632V73.8037C124.766 74.011 124.597 74.1877 124.382 74.1877ZM122.463 73.4196H123.998V69.9632C123.998 69.341 123.645 68.8111 123.23 68.8111C122.816 68.8111 122.463 69.341 122.463 69.9632V73.4196Z" fill="#292929"/>
    <path d="M113.632 74.1877H111.328C111.113 74.1877 110.944 74.0187 110.944 73.8037V69.9632C110.944 68.9032 111.635 68.043 112.48 68.043C113.325 68.043 114.016 68.9032 114.016 69.9632V73.8037C114.016 74.011 113.847 74.1877 113.632 74.1877ZM111.712 73.4196H113.248V69.9632C113.248 69.341 112.895 68.8111 112.48 68.8111C112.065 68.8111 111.712 69.341 111.712 69.9632V73.4196Z" fill="#292929"/>
    <path d="M123.998 55.7534H111.712C111.497 55.7534 111.328 55.5845 111.328 55.3694C111.328 55.1543 111.497 54.9854 111.712 54.9854H123.998C124.213 54.9854 124.382 55.1543 124.382 55.3694C124.382 55.5768 124.213 55.7534 123.998 55.7534Z" fill="#292929"/>
    <path d="M114.016 58.0578C113.808 58.0578 113.617 57.9733 113.471 57.8351C113.332 57.6892 113.248 57.4971 113.248 57.2897C113.248 57.0824 113.332 56.8903 113.471 56.7444C113.755 56.4602 114.277 56.4602 114.561 56.7444C114.699 56.8903 114.784 57.09 114.784 57.2897C114.784 57.4971 114.699 57.6892 114.561 57.8351C114.415 57.9733 114.223 58.0578 114.016 58.0578Z" fill="#292929"/>
    <path d="M117.855 58.8262C117.433 58.8262 117.087 58.4806 117.087 58.0582V57.2901C117.087 56.8676 117.433 56.522 117.855 56.522C118.277 56.522 118.623 56.8676 118.623 57.2901V58.0582C118.623 58.4806 118.277 58.8262 117.855 58.8262Z" fill="#292929"/>
    <path d="M121.695 58.0578C121.495 58.0578 121.295 57.9733 121.149 57.8351C121.011 57.6892 120.927 57.4894 120.927 57.2897C120.927 57.09 121.011 56.8903 121.149 56.7444C121.441 56.4602 121.948 56.4602 122.24 56.7444C122.378 56.8903 122.462 57.09 122.462 57.2897C122.462 57.4894 122.378 57.6892 122.24 57.8351C122.094 57.9733 121.894 58.0578 121.695 58.0578Z" fill="#292929"/>
    <path d="M116.319 50.2768C116.104 50.2768 115.935 50.1079 115.935 49.8928C115.935 48.1953 116.235 47.4195 116.557 46.5977C116.826 45.9141 117.103 45.1998 117.218 43.8172C117.233 43.6175 117.402 43.4639 117.602 43.4639H118.116C118.316 43.4639 118.485 43.6175 118.5 43.8172C118.615 45.2074 118.892 45.891 119.161 46.5593C119.483 47.3504 119.783 48.1031 119.783 49.8006C119.783 50.0157 119.614 50.1847 119.399 50.1847C119.184 50.1847 119.015 50.0157 119.015 49.8006C119.015 48.2491 118.754 47.5962 118.446 46.8435C118.239 46.3289 118.016 45.7681 117.863 44.8925C117.709 45.7758 117.487 46.3596 117.279 46.8819C116.972 47.6653 116.711 48.3413 116.711 49.9005C116.703 50.1079 116.534 50.2768 116.319 50.2768Z" fill="#292929"/>
    <path d="M117.088 87.2466C116.988 87.2466 116.888 87.2081 116.819 87.1312C116.75 87.0697 116.703 86.9698 116.703 86.8621C116.703 86.7545 116.75 86.6545 116.819 86.5853C116.949 86.4546 117.218 86.4469 117.365 86.593C117.434 86.6545 117.472 86.7545 117.472 86.8621C117.472 86.9621 117.434 87.062 117.357 87.1389C117.288 87.2081 117.188 87.2466 117.088 87.2466Z" fill="#292929"/>
    <path d="M122.463 87.2466C122.363 87.2466 122.263 87.2081 122.194 87.1312C122.117 87.062 122.078 86.9621 122.078 86.8621C122.078 86.7545 122.117 86.6545 122.194 86.5853C122.324 86.4546 122.601 86.4469 122.74 86.593C122.809 86.6545 122.847 86.7545 122.847 86.8621C122.847 86.9621 122.809 87.062 122.732 87.1389C122.663 87.2081 122.563 87.2466 122.463 87.2466Z" fill="#292929"/>
    <path d="M123.999 87.246C123.899 87.246 123.806 87.2076 123.73 87.1384C123.653 87.0615 123.614 86.9615 123.614 86.8616C123.614 86.7616 123.653 86.6617 123.73 86.5925C123.868 86.4464 124.129 86.4464 124.268 86.5925C124.345 86.6617 124.383 86.7616 124.383 86.8616C124.383 86.9615 124.345 87.0615 124.275 87.1307C124.191 87.2076 124.099 87.246 123.999 87.246Z" fill="#292929"/>
    <path d="M118.623 87.246C118.531 87.246 118.431 87.2076 118.354 87.1384C118.278 87.0615 118.239 86.9615 118.239 86.8616C118.239 86.7616 118.278 86.6617 118.347 86.5925C118.493 86.4464 118.754 86.4464 118.892 86.5925C118.969 86.6617 119.008 86.7616 119.008 86.8616C119.008 86.9615 118.969 87.0615 118.892 87.1307C118.816 87.2076 118.723 87.246 118.623 87.246Z" fill="#292929"/>
    <path d="M115.552 87.2451H114.784C114.569 87.2451 114.4 87.0762 114.4 86.8611C114.4 86.646 114.569 86.4771 114.784 86.4771H115.552C115.767 86.4771 115.935 86.646 115.935 86.8611C115.935 87.0685 115.767 87.2451 115.552 87.2451Z" fill="#292929"/>
    <path d="M115.552 80.3325H114.784C114.569 80.3325 114.4 80.1636 114.4 79.9485C114.4 79.7334 114.569 79.5645 114.784 79.5645H115.552C115.767 79.5645 115.935 79.7334 115.935 79.9485C115.935 80.1559 115.767 80.3325 115.552 80.3325Z" fill="#292929"/>
    <path d="M120.927 80.3325H120.159C119.944 80.3325 119.775 80.1636 119.775 79.9485C119.775 79.7334 119.944 79.5645 120.159 79.5645H120.927C121.142 79.5645 121.311 79.7334 121.311 79.9485C121.311 80.1559 121.142 80.3325 120.927 80.3325Z" fill="#292929"/>
    <path d="M120.927 87.2451H120.159C119.944 87.2451 119.775 87.0762 119.775 86.8611C119.775 86.646 119.944 86.4771 120.159 86.4771H120.927C121.142 86.4771 121.311 86.646 121.311 86.8611C121.311 87.0685 121.142 87.2451 120.927 87.2451Z" fill="#292929"/>
    <path d="M176.837 99.0002H94.289C93.4404 99.0002 92.7461 98.5903 92.7461 98.0892C92.7461 97.5882 93.4404 97.1782 94.289 97.1782H176.837C177.468 97.1782 177.924 97.5882 177.924 98.0892C177.924 98.5903 177.468 99.0002 176.837 99.0002Z" fill="#292929"/>
    <path d="M111.246 98.9997H34.1622C33.5315 98.9997 33.076 98.5898 33.076 98.0887C33.076 97.5877 33.5315 97.1777 34.1622 97.1777H111.246C112.094 97.1777 112.788 97.5877 112.788 98.0887C112.788 98.5898 112.094 98.9997 111.246 98.9997Z" fill="#292929"/>
    <path d="M37.3463 97.6727C37.3463 97.6727 52.6692 84.4238 61.0606 84.4238H84.234C92.5257 84.4238 107.735 97.5244 107.735 97.5244L37.3463 97.6727ZM39.453 97.6683L105.365 97.3364C105.365 97.3364 91.5783 85.9759 84.234 85.9759H61.0606C53.6385 85.9759 39.453 97.6683 39.453 97.6683Z" fill="#292929" stroke="#292929" stroke-width="0.4" stroke-miterlimit="10"/>
    <path d="M83.1306 85.406H61.6299C61.3996 85.406 61.1769 85.2985 61.031 85.1218C60.8851 84.9375 60.8313 84.6994 60.8774 84.4767L62.4132 77.5638C62.4976 77.2105 62.8048 76.957 63.1657 76.957H81.5948C81.9557 76.957 82.2628 77.2105 82.3473 77.5561L83.8831 84.469C83.9368 84.6994 83.8754 84.9375 83.7295 85.1142C83.5836 85.2985 83.3609 85.406 83.1306 85.406ZM62.5898 83.8699H82.1784L80.9805 78.4932H63.78L62.5898 83.8699Z" fill="#292929"/>
    <path d="M79.2912 78.4935H65.4693C65.239 78.4935 65.0163 78.3859 64.8704 78.2093C64.7245 78.0249 64.6707 77.7868 64.7168 77.5641L66.2526 70.6512C66.337 70.2979 66.6442 70.0444 67.0051 70.0444H77.7554C78.1163 70.0444 78.4235 70.2979 78.5079 70.6435L80.0437 77.5564C80.0974 77.7868 80.036 78.0249 79.8901 78.2016C79.7442 78.3859 79.5215 78.4935 79.2912 78.4935ZM66.4292 76.9573H78.339L77.1411 71.5806H67.6194L66.4292 76.9573Z" fill="#292929"/>
    <path d="M76.2195 71.5807H68.5407C68.1184 71.5807 67.7729 71.2351 67.7729 70.8126V68.5083C67.7729 68.0859 68.1184 67.7402 68.5407 67.7402H76.2195C76.6419 67.7402 76.9874 68.0859 76.9874 68.5083V70.8126C76.9874 71.2351 76.6419 71.5807 76.2195 71.5807ZM69.3086 70.0445H75.4517V69.2764H69.3086V70.0445Z" fill="#292929"/>
    <path d="M68.5407 85.4065C68.1184 85.4065 67.7729 85.0608 67.7729 84.6384V79.2617C67.7729 78.8393 68.1184 78.4937 68.5407 78.4937C68.9631 78.4937 69.3086 78.8393 69.3086 79.2617V84.6384C69.3086 85.0608 68.9631 85.4065 68.5407 85.4065Z" fill="#292929"/>
    <path d="M76.2195 85.4065C75.7972 85.4065 75.4517 85.0608 75.4517 84.6384V79.2617C75.4517 78.8393 75.7972 78.4937 76.2195 78.4937C76.6419 78.4937 76.9874 78.8393 76.9874 79.2617V84.6384C76.9874 85.0608 76.6419 85.4065 76.2195 85.4065Z" fill="#292929"/>
    <path d="M66.6211 84.6383H64.3175C64.1025 84.6383 63.9336 84.4694 63.9336 84.2543V80.4138C63.9336 80.1988 64.1025 80.0298 64.3175 80.0298H66.6211C66.8361 80.0298 67.0051 80.1988 67.0051 80.4138V84.2543C67.0051 84.4694 66.8361 84.6383 66.6211 84.6383ZM64.7014 83.8702H66.2372V80.7979H64.7014V83.8702Z" fill="#292929"/>
    <path d="M80.4429 84.6383H78.1393C77.9243 84.6383 77.7554 84.4694 77.7554 84.2543V80.4138C77.7554 80.1988 77.9243 80.0298 78.1393 80.0298H80.4429C80.658 80.0298 80.8269 80.1988 80.8269 80.4138V84.2543C80.8269 84.4694 80.658 84.6383 80.4429 84.6383ZM78.5233 83.8702H80.059V80.7979H78.5233V83.8702Z" fill="#292929"/>
    <path d="M74.2999 84.6383H70.4605C70.2455 84.6383 70.0766 84.4694 70.0766 84.2543V80.4138C70.0766 80.1988 70.2455 80.0298 70.4605 80.0298H74.2999C74.5149 80.0298 74.6838 80.1988 74.6838 80.4138V84.2543C74.6838 84.4694 74.5149 84.6383 74.2999 84.6383ZM70.8444 83.8702H73.916V80.7979H70.8444V83.8702Z" fill="#292929"/>
    <path d="M73.1481 73.8848H72.3802C72.1652 73.8848 71.9963 73.7158 71.9963 73.5007C71.9963 73.2857 72.1652 73.1167 72.3802 73.1167H73.1481C73.3631 73.1167 73.532 73.2857 73.532 73.5007C73.532 73.7158 73.3631 73.8848 73.1481 73.8848Z" fill="#292929"/>
    <path d="M76.2196 73.1172H75.4517C75.2367 73.1172 75.0677 72.9482 75.0677 72.7332C75.0677 72.5181 75.2367 72.3491 75.4517 72.3491H76.2196C76.4346 72.3491 76.6035 72.5181 76.6035 72.7332C76.6035 72.9482 76.4346 73.1172 76.2196 73.1172Z" fill="#292929"/>
    <path d="M76.2196 75.4209H75.4517C75.2367 75.4209 75.0677 75.2519 75.0677 75.0369C75.0677 74.8218 75.2367 74.6528 75.4517 74.6528H76.2196C76.4346 74.6528 76.6035 74.8218 76.6035 75.0369C76.6035 75.2519 76.4346 75.4209 76.2196 75.4209Z" fill="#292929"/>
    <path d="M63.9336 37.0164C63.5112 37.0164 63.1657 36.6708 63.1657 36.2484V27.7993C63.1657 27.3769 63.5112 27.0312 63.9336 27.0312C64.3559 27.0312 64.7014 27.3769 64.7014 27.7993V36.2484C64.7014 36.6708 64.3559 37.0164 63.9336 37.0164Z" fill="#292929"/>
    <path d="M65.4693 37.0166H62.3978C62.1828 37.0166 62.0139 36.8476 62.0139 36.6326C62.0139 36.4175 62.1828 36.2485 62.3978 36.2485H65.4693C65.6843 36.2485 65.8533 36.4175 65.8533 36.6326C65.8533 36.8476 65.6843 37.0166 65.4693 37.0166Z" fill="#292929"/>
    <path d="M75.4518 69.2759H69.3087C68.8864 69.2759 68.5408 68.9302 68.5408 68.5078V59.6056L67.9956 59.0603C67.8574 58.922 67.773 58.73 67.773 58.5226V52.6928L67.2278 52.1474C67.0895 52.0092 67.0051 51.8171 67.0051 51.6098V48.0842L65.692 46.7708C65.5 46.5788 65.4232 46.3022 65.4924 46.0411L66.2602 42.9687C66.314 42.7613 66.4445 42.5847 66.6365 42.4848C66.8208 42.385 67.0435 42.3619 67.2508 42.4311C67.3429 42.4618 69.3625 43.1454 70.4298 44.5817L70.7139 44.0057C70.4298 43.5525 70.0766 42.7537 70.0766 41.6246C70.0766 41.4172 70.1611 41.2252 70.2993 41.0792L71.0672 40.3111C71.2131 40.1729 71.405 40.0884 71.6124 40.0884H73.1481C73.3554 40.0884 73.5474 40.1729 73.6933 40.3111L74.4612 41.0792C74.5994 41.2252 74.6839 41.4172 74.6839 41.6246C74.6839 42.7537 74.3306 43.5525 74.0465 44.0057L74.3614 44.6355C75.2367 44.4281 76.1275 43.6907 76.4423 43.3835C76.5882 43.2452 76.7879 43.1607 76.9875 43.1607C78.3236 43.1607 78.5233 45.0887 78.5233 46.2331C78.5233 46.3176 78.5079 46.3944 78.4849 46.4789L77.7554 48.6603V50.8417C77.7554 51.2641 77.4098 51.6098 76.9875 51.6098V57.7545C76.9875 57.9619 76.903 58.1539 76.7648 58.2998L76.2196 58.8375V68.5078C76.2196 68.9302 75.8741 69.2759 75.4518 69.2759ZM70.0766 67.7397H74.6839V58.5226C74.6839 58.3152 74.7683 58.1232 74.9066 57.9772L75.4518 57.4396V50.8417C75.4518 50.4192 75.7973 50.0736 76.2196 50.0736V48.5374C76.2196 48.4529 76.235 48.3761 76.258 48.2916L76.9875 46.1102C76.9798 45.7339 76.9338 45.3421 76.8723 45.0426C76.1966 45.5572 75.0908 46.2331 73.916 46.2331C73.6242 46.2331 73.3554 46.0718 73.2326 45.8107L72.4647 44.2745C72.3188 43.9826 72.3726 43.6216 72.6106 43.3912C72.626 43.3758 73.0636 42.8996 73.1404 41.9318L72.8333 41.6246H71.9349L71.6277 41.9318C71.7045 42.8919 72.1499 43.3758 72.1652 43.3989C72.3879 43.6293 72.4417 43.9903 72.3034 44.2745L71.5356 45.8107C71.405 46.0718 71.1363 46.2331 70.8445 46.2331H70.0766C69.7848 46.2331 69.516 46.0718 69.3932 45.8107C69.04 45.1117 68.2106 44.5587 67.5349 44.2207L67.0895 46.0027L68.3181 47.2316C68.4564 47.3699 68.5408 47.5619 68.5408 47.7693V51.2948L69.086 51.8402C69.2242 51.9784 69.3087 52.1705 69.3087 52.3779V58.2077L69.8539 58.753C69.9921 58.8913 70.0766 59.0833 70.0766 59.2907V67.7397Z" fill="#292929"/>
    <path d="M67.0051 43.9294C66.8054 43.9294 66.6135 43.8526 66.4599 43.7067C66.3908 43.6376 64.8243 42.063 64.0103 40.4346C63.8721 40.1504 63.1657 38.691 63.1657 37.7847C63.1657 37.3622 63.5112 37.0166 63.9336 37.0166C64.3559 37.0166 64.7014 37.3622 64.7014 37.7847C64.7014 38.1841 65.1084 39.1903 65.3849 39.7433C66.0836 41.1489 67.5272 42.6006 67.5426 42.616C67.8421 42.9156 67.8421 43.3994 67.5426 43.699C67.3967 43.8526 67.2047 43.9294 67.0051 43.9294Z" fill="#292929"/>
    <path d="M80.059 43.929C79.9131 43.929 79.7595 43.8829 79.6367 43.7984C79.5215 43.7293 76.9875 42.0088 76.9875 39.3205V36.2481C76.9875 35.9562 77.1487 35.6951 77.4098 35.5645C77.6939 35.4186 79.1529 34.7119 80.059 34.7119C80.9651 34.7119 82.4241 35.4186 82.7082 35.5645C82.9693 35.6951 83.1305 35.9562 83.1305 36.2481V39.3205C83.1305 42.0088 80.5965 43.7293 80.4813 43.7984C80.3585 43.8829 80.2049 43.929 80.059 43.929ZM78.5232 36.7397V39.3205C78.5232 40.6262 79.4831 41.6708 80.059 42.1778C80.6349 41.6631 81.5948 40.6185 81.5948 39.3205V36.7397C81.0496 36.4939 80.3662 36.2481 80.059 36.2481C79.7442 36.2481 79.0684 36.4939 78.5232 36.7397Z" fill="#292929"/>
    <path d="M76.9875 44.6974C76.7878 44.6974 76.5958 44.6206 76.4423 44.4746C76.1428 44.1751 76.1428 43.6912 76.4423 43.3916C77.095 42.7388 77.7169 41.8939 77.7553 41.6173C77.7553 41.1949 78.1009 40.8569 78.5232 40.8569C78.9455 40.8569 79.2911 41.2103 79.2911 41.6327C79.2911 42.6159 78.0625 43.9523 77.5326 44.4823C77.3791 44.6206 77.1871 44.6974 76.9875 44.6974Z" fill="#292929"/>
    <path d="M80.059 39.7046C79.4216 39.7046 78.9072 39.19 78.9072 38.5525C78.9072 38.3374 79.0761 38.1685 79.2911 38.1685C79.5061 38.1685 79.675 38.3374 79.675 38.5525C79.675 38.7676 79.844 38.9365 80.059 38.9365C80.274 38.9365 80.4429 38.7676 80.4429 38.5525C80.4429 38.3374 80.6119 38.1685 80.8269 38.1685C81.0419 38.1685 81.2108 38.3374 81.2108 38.5525C81.2108 39.19 80.6963 39.7046 80.059 39.7046Z" fill="#292929"/>
    <path d="M66.2372 47.0013C65.8148 47.0013 65.4693 46.6557 65.4693 46.2333C65.4693 45.7263 65.0086 43.23 64.7168 41.7783C64.6323 41.3636 64.901 40.9565 65.3157 40.872C65.738 40.7875 66.1373 41.0563 66.2218 41.4711C66.3523 42.1316 67.005 45.4268 67.005 46.2333C67.005 46.6557 66.6595 47.0013 66.2372 47.0013Z" fill="#292929"/>
    <path d="M77.7554 45.4651C77.333 45.4651 76.9875 45.1195 76.9875 44.697C76.9875 43.7907 77.6939 42.3313 77.8398 42.0471C78.0318 41.6707 78.4925 41.5171 78.8688 41.7015C79.2451 41.8935 79.3986 42.3543 79.2143 42.7307C78.9302 43.2914 78.5232 44.2976 78.5232 44.697C78.5232 45.1195 78.1777 45.4651 77.7554 45.4651Z" fill="#292929"/>
    <path d="M75.4518 53.5308C75.2367 53.5308 75.0678 53.3619 75.0678 53.1468C75.0678 52.6014 73.916 51.9947 72.3802 51.9947C70.8445 51.9947 69.6927 52.6014 69.6927 53.1468C69.6927 53.3619 69.5237 53.5308 69.3087 53.5308C69.0937 53.5308 68.9248 53.3619 68.9248 53.1468C68.9248 52.0561 70.4068 51.2266 72.3802 51.2266C74.3537 51.2266 75.8357 52.0561 75.8357 53.1468C75.8357 53.3619 75.6668 53.5308 75.4518 53.5308Z" fill="#292929"/>
    <path d="M71.2284 68.124C71.0134 68.124 70.8445 67.955 70.8445 67.74V54.6824C70.8445 54.4673 71.0134 54.2983 71.2284 54.2983C71.4434 54.2983 71.6124 54.4673 71.6124 54.6824V67.74C71.6124 67.955 71.4434 68.124 71.2284 68.124Z" fill="#292929"/>
    <path d="M73.532 68.1239C73.317 68.1239 73.1481 67.955 73.1481 67.7399V56.2185C73.1481 56.0035 73.317 55.8345 73.532 55.8345C73.747 55.8345 73.916 56.0035 73.916 56.2185V67.7399C73.916 67.955 73.747 68.1239 73.532 68.1239Z" fill="#292929"/>
    <path d="M69.3087 59.675C69.0937 59.675 68.9248 59.5061 68.9248 59.291C68.9248 59.099 68.9401 54.5058 70.5757 52.8774C70.7293 52.7238 70.9673 52.7238 71.1209 52.8774C71.2745 53.031 71.2745 53.2691 71.1209 53.4228C69.9537 54.5903 69.7003 58.062 69.7003 59.2987C69.6927 59.5061 69.5237 59.675 69.3087 59.675Z" fill="#292929"/>
    <path d="M75.4517 58.139C75.2366 58.139 75.0677 57.97 75.0677 57.755C75.0677 56.9638 74.8297 54.7978 73.747 54.2601C73.555 54.168 73.4782 53.9375 73.578 53.7455C73.6702 53.5535 73.9005 53.4767 74.0925 53.5765C75.8202 54.4368 75.8433 57.6244 75.8433 57.7626C75.8356 57.97 75.6667 58.139 75.4517 58.139Z" fill="#292929"/>
    <path d="M74.6838 50.4584C74.4688 50.4584 74.2999 50.2894 74.2999 50.0743C74.2999 49.1296 76.0967 48.4306 76.8646 48.1772C77.0719 48.108 77.2792 48.2156 77.3483 48.4229C77.4175 48.6226 77.31 48.8377 77.1026 48.9068C75.9738 49.2832 75.0601 49.8593 75.0601 50.082C75.0677 50.2894 74.8988 50.4584 74.6838 50.4584Z" fill="#292929"/>
    <path d="M70.0765 51.2259C69.8999 51.2259 69.7386 51.103 69.7002 50.9187C69.6849 50.8496 69.3547 49.3057 68.1568 49.3057C67.9418 49.3057 67.7729 49.1367 67.7729 48.9216C67.7729 48.7066 67.9418 48.5376 68.1568 48.5376C69.6234 48.5376 70.2992 49.997 70.4528 50.7651C70.4912 50.9725 70.3606 51.1722 70.1533 51.2182C70.1302 51.2259 70.0995 51.2259 70.0765 51.2259Z" fill="#292929"/>
    <path d="M76.9874 48.9216C76.8492 48.9216 76.711 48.8448 76.6419 48.7066L75.874 47.1704C75.7819 46.9784 75.8586 46.7479 76.0429 46.6558C76.2349 46.5636 76.4653 46.6404 76.5574 46.8247L77.3253 48.3609C77.4174 48.5529 77.3407 48.7834 77.1564 48.8755C77.1026 48.9063 77.0489 48.9216 76.9874 48.9216Z" fill="#292929"/>
    <path d="M67.7729 48.1538C67.6731 48.1538 67.5733 48.1154 67.5042 48.0385C67.3506 47.8926 67.3506 47.6468 67.5042 47.4932C67.6884 47.3089 68.1569 46.7251 68.1569 46.2258C68.1569 46.0108 68.3258 45.8418 68.5408 45.8418C68.7558 45.8418 68.9247 46.0108 68.9247 46.2258C68.9247 47.1245 68.1338 47.9464 68.0417 48.0309C67.9726 48.1154 67.8727 48.1538 67.7729 48.1538Z" fill="#292929"/>
    <path d="M74.2999 51.9943C74.0849 51.9943 73.916 51.8253 73.916 51.6102V48.5379C73.916 48.3228 74.0849 48.1538 74.2999 48.1538C74.5149 48.1538 74.6839 48.3228 74.6839 48.5379V51.6102C74.6839 51.8253 74.5149 51.9943 74.2999 51.9943Z" fill="#292929"/>
    <path d="M70.4605 51.9943C70.2455 51.9943 70.0766 51.8253 70.0766 51.6102V48.5379C70.0766 48.3228 70.2455 48.1538 70.4605 48.1538C70.6755 48.1538 70.8444 48.3228 70.8444 48.5379V51.6102C70.8444 51.8253 70.6755 51.9943 70.4605 51.9943Z" fill="#292929"/>
    <path d="M70.8445 48.9219C70.2072 48.9219 69.6927 48.4073 69.6927 47.7698C69.6927 47.5547 69.8616 47.3857 70.0766 47.3857C70.2916 47.3857 70.4606 47.5547 70.4606 47.7698C70.4606 47.9849 70.6295 48.1538 70.8445 48.1538C71.0595 48.1538 71.2284 47.9849 71.2284 47.7698C71.2284 47.5547 71.3974 47.3857 71.6124 47.3857C71.8274 47.3857 71.9963 47.5547 71.9963 47.7698C71.9963 48.4073 71.4818 48.9219 70.8445 48.9219Z" fill="#292929"/>
    <path d="M73.916 48.9216C73.2787 48.9216 72.7642 48.4069 72.7642 47.7694C72.7642 47.5544 72.9331 47.3854 73.1481 47.3854C73.3631 47.3854 73.5321 47.5544 73.5321 47.7694C73.5321 47.9845 73.701 48.1535 73.916 48.1535C74.108 48.1535 74.2692 48.0075 74.2999 47.8232L73.5551 45.588C73.486 45.3883 73.5935 45.1733 73.8008 45.1041C74.0005 45.035 74.2155 45.1502 74.2846 45.3499L75.0525 47.6542C75.0678 47.6926 75.0755 47.731 75.0755 47.7771C75.0678 48.4069 74.5533 48.9216 73.916 48.9216Z" fill="#292929"/>
    <path d="M72.7642 50.4581C72.5492 50.4581 72.3803 50.2891 72.3803 50.074V49.3059C72.3803 49.0909 72.5492 48.9219 72.7642 48.9219C72.9792 48.9219 73.1482 49.0909 73.1482 49.3059V50.074C73.1482 50.2891 72.9792 50.4581 72.7642 50.4581Z" fill="#292929"/>
    <path d="M72.7642 46.6178C72.5492 46.6178 72.3803 46.4488 72.3803 46.2337V43.9295C72.3803 43.7144 72.5492 43.5454 72.7642 43.5454C72.9792 43.5454 73.1482 43.7144 73.1482 43.9295V46.2337C73.1482 46.4488 72.9792 46.6178 72.7642 46.6178Z" fill="#292929"/>
    <path d="M200.184 47H214.042V43.438H204.162V39.616H212.742V36.054H204.162V32.362H213.912V28.8H200.184V47ZM216.016 47H220.15L222.958 42.658L225.766 47H230.004L225.09 39.85L229.796 33.064H225.662L223.036 37.12L220.436 33.064H216.198L220.904 39.928L216.016 47ZM232.37 51.16H236.322V45.18C237.258 46.298 238.558 47.26 240.664 47.26C243.966 47.26 247.008 44.712 247.008 40.058C247.008 35.352 243.914 32.804 240.664 32.804C238.61 32.804 237.284 33.766 236.322 35.066V33.064H232.37V51.16ZM239.65 43.906C237.804 43.906 236.27 42.372 236.27 40.058C236.27 37.692 237.804 36.158 239.65 36.158C241.496 36.158 243.056 37.692 243.056 40.006C243.056 42.398 241.496 43.906 239.65 43.906ZM250.096 47H254.048V28.02H250.096V47ZM264.598 47.312C268.94 47.312 272.164 44.062 272.164 40.058C272.164 36.002 268.966 32.804 264.65 32.804C260.308 32.804 257.084 36.054 257.084 40.058C257.084 44.114 260.282 47.312 264.598 47.312ZM264.65 43.906C262.466 43.906 260.984 42.112 260.984 40.058C260.984 37.952 262.336 36.21 264.598 36.21C266.782 36.21 268.264 38.004 268.264 40.058C268.264 42.164 266.912 43.906 264.65 43.906ZM275.026 47H278.978V41.852C278.978 38.524 280.59 36.938 283.216 36.938H283.424V32.804C281.084 32.7 279.784 33.948 278.978 35.872V33.064H275.026V47ZM292.116 47.312C294.638 47.312 296.51 46.324 297.81 44.712L295.548 42.71C294.456 43.724 293.494 44.14 292.168 44.14C290.4 44.14 289.152 43.204 288.762 41.41H298.46C298.486 41.046 298.512 40.682 298.512 40.37C298.512 36.418 296.38 32.804 291.726 32.804C287.67 32.804 284.836 36.08 284.836 40.058C284.836 44.374 287.93 47.312 292.116 47.312ZM288.71 38.94C289.022 37.146 290.088 35.976 291.726 35.976C293.39 35.976 294.43 37.172 294.664 38.94H288.71ZM200.444 75H204.396V64.444H207.542V61.22H204.344V60.674C204.344 59.634 204.864 59.166 205.774 59.166C206.45 59.166 206.996 59.296 207.568 59.504V56.228C206.84 55.994 206.008 55.838 204.76 55.838C203.356 55.838 202.29 56.202 201.562 56.93C200.834 57.658 200.444 58.776 200.444 60.31V61.194H198.806V64.444H200.444V75ZM213.267 75.26C215.191 75.26 216.517 74.558 217.479 73.492V75H221.301V66.914C221.301 65.042 220.833 63.508 219.793 62.468C218.805 61.48 217.245 60.908 215.087 60.908C212.721 60.908 211.213 61.35 209.679 62.026L210.667 65.042C211.941 64.574 213.007 64.288 214.515 64.288C216.491 64.288 217.505 65.198 217.505 66.836V67.07C216.517 66.732 215.503 66.498 214.099 66.498C210.797 66.498 208.483 67.902 208.483 70.944C208.483 73.752 210.641 75.26 213.267 75.26ZM214.463 72.53C213.189 72.53 212.305 71.906 212.305 70.84C212.305 69.54 213.345 68.864 215.035 68.864C215.997 68.864 216.881 69.072 217.557 69.384V70.086C217.557 71.516 216.309 72.53 214.463 72.53ZM229.59 75.26C232.606 75.26 234.92 73.856 234.92 70.762C234.92 68.162 232.658 67.226 230.708 66.576C229.2 66.056 227.874 65.692 227.874 64.912C227.874 64.314 228.368 63.898 229.33 63.898C230.344 63.898 231.722 64.392 233.1 65.198L234.608 62.468C233.1 61.454 231.176 60.856 229.408 60.856C226.6 60.856 224.312 62.442 224.312 65.276C224.312 68.032 226.522 68.942 228.472 69.514C230.006 69.982 231.358 70.268 231.358 71.126C231.358 71.802 230.838 72.218 229.694 72.218C228.394 72.218 226.808 71.646 225.3 70.554L223.61 73.154C225.456 74.61 227.64 75.26 229.59 75.26ZM244.33 75.312C247.112 75.312 248.672 74.246 250.024 72.764L247.71 70.424C246.748 71.334 245.838 71.906 244.512 71.906C242.354 71.906 240.976 70.19 240.976 68.058C240.976 65.952 242.38 64.21 244.356 64.21C245.916 64.21 246.748 64.782 247.606 65.588L249.92 63.248C248.62 61.792 247.008 60.804 244.382 60.804C240.118 60.804 237.076 64.08 237.076 68.058C237.076 72.088 240.144 75.312 244.33 75.312ZM252.684 59.53H256.844V56.02H252.684V59.53ZM252.788 75H256.74V61.064H252.788V75ZM260.452 75H264.404V67.226C264.404 65.354 265.366 64.392 266.874 64.392C268.382 64.392 269.266 65.354 269.266 67.226V75H273.218V65.978C273.218 62.78 271.476 60.804 268.486 60.804C266.484 60.804 265.314 61.87 264.404 63.04V61.064H260.452V75ZM280.603 75.26C282.527 75.26 283.853 74.558 284.815 73.492V75H288.637V66.914C288.637 65.042 288.169 63.508 287.129 62.468C286.141 61.48 284.581 60.908 282.423 60.908C280.057 60.908 278.549 61.35 277.015 62.026L278.003 65.042C279.277 64.574 280.343 64.288 281.851 64.288C283.827 64.288 284.841 65.198 284.841 66.836V67.07C283.853 66.732 282.839 66.498 281.435 66.498C278.133 66.498 275.819 67.902 275.819 70.944C275.819 73.752 277.977 75.26 280.603 75.26ZM281.799 72.53C280.525 72.53 279.641 71.906 279.641 70.84C279.641 69.54 280.681 68.864 282.371 68.864C283.333 68.864 284.217 69.072 284.893 69.384V70.086C284.893 71.516 283.645 72.53 281.799 72.53ZM296.617 75.234C297.943 75.234 298.905 74.922 299.737 74.428V71.256C299.165 71.568 298.515 71.75 297.787 71.75C296.903 71.75 296.513 71.308 296.513 70.398V64.444H299.789V61.064H296.513V57.502H292.561V61.064H290.897V64.444H292.561V71.048C292.561 74.272 294.199 75.234 296.617 75.234ZM302.78 59.53H306.94V56.02H302.78V59.53ZM302.884 75H306.836V61.064H302.884V75ZM310.547 75H314.499V67.226C314.499 65.354 315.461 64.392 316.969 64.392C318.477 64.392 319.361 65.354 319.361 67.226V75H323.313V65.978C323.313 62.78 321.571 60.804 318.581 60.804C316.579 60.804 315.409 61.87 314.499 63.04V61.064H310.547V75ZM332.987 79.212C335.691 79.212 337.693 78.64 338.993 77.34C340.163 76.17 340.761 74.35 340.761 71.854V61.064H336.809V62.884C335.743 61.714 334.469 60.804 332.311 60.804C329.113 60.804 326.123 63.144 326.123 67.304C326.123 71.49 329.061 73.856 332.311 73.856C334.417 73.856 335.691 72.998 336.861 71.594V72.27C336.861 74.766 335.587 76.066 332.883 76.066C331.037 76.066 329.607 75.598 328.177 74.792L326.825 77.756C328.593 78.692 330.725 79.212 332.987 79.212ZM333.455 70.58C331.531 70.58 330.075 69.28 330.075 67.356C330.075 65.406 331.531 64.08 333.455 64.08C335.379 64.08 336.861 65.406 336.861 67.304C336.861 69.254 335.379 70.58 333.455 70.58ZM352.502 75H356.506V69.436L358.612 67.252L364.254 75H369.064L361.316 64.522L368.726 56.8H363.89L356.506 64.756V56.8H352.502V75ZM373.112 79.238C375.478 79.238 376.622 78.172 377.688 75.338L383.044 61.064H378.936L375.894 70.554L372.722 61.064H368.536L373.996 75.052C373.658 75.754 373.294 75.962 372.618 75.962C372.098 75.962 371.448 75.728 370.928 75.416L369.602 78.276C370.616 78.874 371.682 79.238 373.112 79.238ZM385.451 59.53H389.611V56.02H385.451V59.53ZM385.555 75H389.507V61.064H385.555V75ZM397.457 75.104H401.045L406.531 61.064H402.423L399.277 70.398L396.157 61.064H391.971L397.457 75.104Z" fill="#292929"/>
    <path d="M200.188 98H201.136V94.736H203.536L205.972 98H207.136L204.556 94.568C205.876 94.328 206.836 93.512 206.836 92.12C206.836 91.436 206.596 90.848 206.188 90.44C205.66 89.912 204.832 89.6 203.8 89.6H200.188V98ZM201.136 93.884V90.476H203.728C205.084 90.476 205.876 91.1 205.876 92.132C205.876 93.236 204.976 93.884 203.716 93.884H201.136ZM209.139 95.276H214.059C214.071 95.132 214.071 95.036 214.071 94.952C214.071 93.128 213.015 91.664 211.179 91.664C209.463 91.664 208.203 93.104 208.203 94.904C208.203 96.836 209.595 98.144 211.299 98.144C212.475 98.144 213.231 97.676 213.855 96.98L213.279 96.464C212.775 96.992 212.175 97.34 211.323 97.34C210.231 97.34 209.271 96.584 209.139 95.276ZM209.139 94.532C209.271 93.332 210.087 92.444 211.155 92.444C212.379 92.444 213.027 93.404 213.135 94.532H209.139ZM217.536 98.132C218.628 98.132 219.336 97.628 219.768 97.076V98H220.68V94.208C220.68 93.416 220.464 92.816 220.032 92.384C219.588 91.94 218.904 91.7 218.028 91.7C217.116 91.7 216.456 91.916 215.772 92.228L216.048 92.984C216.624 92.72 217.2 92.54 217.932 92.54C219.096 92.54 219.768 93.116 219.768 94.22V94.412C219.216 94.256 218.664 94.148 217.872 94.148C216.3 94.148 215.22 94.844 215.22 96.176C215.22 97.472 216.372 98.132 217.536 98.132ZM217.716 97.388C216.876 97.388 216.156 96.932 216.156 96.152C216.156 95.384 216.816 94.88 217.968 94.88C218.724 94.88 219.324 95.012 219.78 95.144V95.72C219.78 96.704 218.856 97.388 217.716 97.388ZM225.241 98.132C226.381 98.132 227.113 97.496 227.617 96.752V98H228.541V89.24H227.617V92.984C227.137 92.288 226.393 91.664 225.241 91.664C223.753 91.664 222.277 92.864 222.277 94.892C222.277 96.956 223.753 98.132 225.241 98.132ZM225.409 97.304C224.233 97.304 223.225 96.368 223.225 94.904C223.225 93.38 224.209 92.492 225.409 92.492C226.561 92.492 227.653 93.452 227.653 94.88C227.653 96.332 226.561 97.304 225.409 97.304ZM237.036 98.144C238.908 98.144 240.288 96.656 240.288 94.904C240.288 93.128 238.92 91.664 237.06 91.664C235.188 91.664 233.82 93.152 233.82 94.904C233.82 96.68 235.176 98.144 237.036 98.144ZM237.06 97.316C235.752 97.316 234.768 96.236 234.768 94.904C234.768 93.572 235.692 92.48 237.036 92.48C238.344 92.48 239.34 93.572 239.34 94.904C239.34 96.236 238.404 97.316 237.06 97.316ZM241.962 98H242.886V94.448C242.886 93.284 243.678 92.504 244.746 92.504C245.838 92.504 246.462 93.224 246.462 94.376V98H247.386V94.148C247.386 92.672 246.51 91.664 245.01 91.664C243.942 91.664 243.294 92.204 242.886 92.876V91.796H241.962V98ZM253.11 98H254.034V91.208L257.094 95.696H257.142L260.202 91.196V98H261.15V89.6H260.19L257.13 94.184L254.07 89.6H253.11V98ZM263.924 95.276H268.844C268.856 95.132 268.856 95.036 268.856 94.952C268.856 93.128 267.8 91.664 265.964 91.664C264.248 91.664 262.988 93.104 262.988 94.904C262.988 96.836 264.38 98.144 266.084 98.144C267.26 98.144 268.016 97.676 268.64 96.98L268.064 96.464C267.56 96.992 266.96 97.34 266.108 97.34C265.016 97.34 264.056 96.584 263.924 95.276ZM263.924 94.532C264.056 93.332 264.872 92.444 265.94 92.444C267.164 92.444 267.812 93.404 267.92 94.532H263.924ZM273.077 98.132C274.217 98.132 274.949 97.496 275.453 96.752V98H276.377V89.24H275.453V92.984C274.973 92.288 274.229 91.664 273.077 91.664C271.589 91.664 270.113 92.864 270.113 94.892C270.113 96.956 271.589 98.132 273.077 98.132ZM273.245 97.304C272.069 97.304 271.061 96.368 271.061 94.904C271.061 93.38 272.045 92.492 273.245 92.492C274.397 92.492 275.489 93.452 275.489 94.88C275.489 96.332 274.397 97.304 273.245 97.304ZM278.466 90.44H279.522V89.42H278.466V90.44ZM278.526 98H279.45V91.796H278.526V98ZM283.875 98.132C284.943 98.132 285.579 97.592 285.999 96.92V98H286.911V91.796H285.999V95.348C285.999 96.512 285.195 97.292 284.139 97.292C283.047 97.292 282.423 96.572 282.423 95.42V91.796H281.499V95.648C281.499 97.124 282.375 98.132 283.875 98.132ZM288.989 98H289.913V94.46C289.913 93.32 290.657 92.504 291.641 92.504C292.625 92.504 293.237 93.188 293.237 94.352V98H294.149V94.424C294.149 93.2 294.929 92.504 295.865 92.504C296.873 92.504 297.473 93.176 297.473 94.376V98H298.397V94.16C298.397 92.624 297.521 91.664 296.093 91.664C295.013 91.664 294.353 92.216 293.909 92.9C293.573 92.204 292.925 91.664 291.917 91.664C290.873 91.664 290.321 92.228 289.913 92.84V91.796H288.989V98Z" fill="#A7A6A3"/>
    <defs>
        <filter id="filter0_d" x="0" y="0" width="457" height="132" filterUnits="userSpaceOnUse" color-interpolation-filters="sRGB">
            <feFlood flood-opacity="0" result="BackgroundImageFix"/>
            <feColorMatrix in="SourceAlpha" type="matrix" values="0 0 0 0 0 0 0 0 0 0 0 0 0 0 0 0 0 0 127 0"/>
            <feOffset dy="3"/>
            <feGaussianBlur stdDeviation="6"/>
            <feColorMatrix type="matrix" values="0 0 0 0 0.0166667 0 0 0 0 0.0166667 0 0 0 0 0.0166667 0 0 0 0.17 0"/>
            <feBlend mode="normal" in2="BackgroundImageFix" result="effect1_dropShadow"/>
            <feBlend mode="normal" in="SourceGraphic" in2="effect1_dropShadow" result="shape"/>
        </filter>
    </defs>
</svg>
