<?xml version="1.0" encoding="UTF-8"?>
<svg width="92px" height="92px" viewBox="0 0 92 92" version="1.1" xmlns="http://www.w3.org/2000/svg" xmlns:xlink="http://www.w3.org/1999/xlink">
    <!-- Generator: Sketch 46.2 (44496) - http://www.bohemiancoding.com/sketch -->
    <title>a&amp;r-small</title>
    <desc>Created with Sketch.</desc>
    <defs>
        <linearGradient x1="49.9996578%" y1="34.8779411%" x2="49.9996573%" y2="111.572303%" id="linearGradient-1">
            <stop stop-color="#5DD1FD" offset="0%"></stop>
            <stop stop-color="#2890BB" offset="100%"></stop>
        </linearGradient>
    </defs>
    <g id="Large" stroke="none" stroke-width="1" fill="none" fill-rule="evenodd">
        <g id="small" transform="translate(-1601.000000, -56.000000)">
            <g id="Group" transform="translate(1601.000000, 56.000000)">
                <rect id="Rectangle" x="0" y="0" width="92" height="92"></rect>
                <g id="ar-01" transform="translate(8.000000, 14.000000)">
                    <g id="Group-32" transform="translate(1.173594, 32.485075)" fill="#26231E">
                        <path d="M5.26855344,4.83218311 L4.96848899,3.69736489 C4.90145331,3.44518306 4.81526458,3.11798512 4.71790325,2.71736716 C4.61734973,2.3151531 4.55191014,2.02945344 4.51839231,1.8554799 C4.49125882,2.01349256 4.43539576,2.28163527 4.35080312,2.65033148 C4.26940265,3.0190277 4.08106433,3.7468436 3.79536466,4.83218311 L5.26855344,4.83218311 Z M5.99796543,7.66364236 L5.6564027,6.37081147 L3.4075154,6.37081147 L3.05797223,7.66364236 L1.00221152,7.66364236 L3.25907926,0.714277328 L5.75536013,0.714277328 L8.04255354,7.66364236 L5.99796543,7.66364236 Z" id="Fill-1"></path>
                        <path d="M11.6926461,7.66428079 L11.6926461,4.73865238 C11.6926461,4.38272487 11.6415713,4.11138999 11.5378256,3.92943601 C11.4340799,3.75067421 11.271279,3.65810114 11.0446345,3.65810114 C10.7318014,3.65810114 10.506753,3.78419205 10.3662973,4.03477779 C10.2274377,4.28217135 10.158806,4.7115189 10.158806,5.31643606 L10.158806,7.66428079 L8.30734445,7.66428079 L8.30734445,2.30142675 L9.70392103,2.30142675 L9.93535372,2.96220698 L10.0454838,2.96220698 C10.2019003,2.71002515 10.4221604,2.52168683 10.6998796,2.39399983 C10.980791,2.269505 11.3016046,2.2056615 11.6639165,2.2056615 C12.257661,2.2056615 12.7205264,2.37644286 13.0493205,2.72279385 C13.3797106,3.06595267 13.5441076,3.55116327 13.5441076,4.17523349 L13.5441076,7.66428079 L11.6926461,7.66428079 Z" id="Fill-3"></path>
                        <path d="M15.8668937,4.05600575 C15.8668937,4.60665595 16.0584242,4.881183 16.4398892,4.881183 C16.6154588,4.881183 16.7527223,4.81414732 16.8500836,4.6768838 C16.9458489,4.54121636 16.9953276,4.33851324 16.9953276,4.06558228 C16.9953276,3.51014382 16.8085854,3.23402069 16.4398892,3.23402069 C16.0584242,3.23402069 15.8668937,3.50695165 15.8668937,4.05600575 L15.8668937,4.05600575 Z M15.2843218,8.33352029 C15.2843218,8.48195643 15.3673183,8.60485517 15.5301193,8.69742824 C15.6945163,8.79159741 15.9131803,8.83948003 16.1893034,8.83948003 C16.637804,8.83948003 16.9969237,8.78202088 17.2650664,8.67029475 C17.5348052,8.55856863 17.6720687,8.41492075 17.6720687,8.23615895 C17.6720687,8.09570325 17.5890722,7.99514974 17.4246752,7.93928667 C17.2602781,7.88023144 17.0256533,7.84830969 16.7192045,7.84830969 L15.9945807,7.84830969 C15.7950698,7.84830969 15.6274806,7.89459622 15.4902171,7.98876539 C15.3529536,8.08133846 15.2843218,8.19625676 15.2843218,8.33352029 L15.2843218,8.33352029 Z M19.3272115,2.30030949 L19.3272115,3.19571458 L18.5930112,3.46545337 C18.6935647,3.64900344 18.7462356,3.86287917 18.7462356,4.10388838 C18.7462356,4.68326815 18.5419364,5.13017265 18.1365302,5.44779407 C17.731124,5.76541548 17.1262068,5.92662032 16.3217787,5.92662032 C16.1222677,5.92662032 15.9642551,5.91385162 15.8477407,5.88831422 C15.8030502,5.97131077 15.7823011,6.04792297 15.7823011,6.121343 C15.7823011,6.21391607 15.8557211,6.28414392 16.0025612,6.33362264 C16.1509973,6.38150526 16.34572,6.40544657 16.5851331,6.40544657 L17.477346,6.40544657 C18.6791999,6.40544657 19.2793288,6.90981023 19.2793288,7.92651797 C19.2793288,8.57931777 19.0016096,9.0868736 18.4461712,9.44918546 C17.8875405,9.81149733 17.1054577,9.99504739 16.0999225,9.99504739 C15.3369927,9.99504739 14.7512286,9.8657643 14.339438,9.61358247 C13.9292435,9.35820847 13.7217521,8.99430052 13.7217521,8.51866644 C13.7217521,7.87703926 14.120774,7.46205651 14.9156256,7.27691036 C14.7496325,7.2066825 14.6059846,7.09495638 14.486278,6.94332807 C14.3649754,6.7853154 14.3043241,6.63368709 14.3043241,6.48046269 C14.3043241,6.31446959 14.3506106,6.16603345 14.4415876,6.03994253 C14.5325646,5.91065944 14.7240951,5.75903113 15.014583,5.58026933 C14.7368638,5.45737059 14.5181998,5.26743618 14.358591,5.00248565 C14.1989823,4.74232338 14.120774,4.42150979 14.120774,4.04642923 C14.120774,3.46385729 14.3186889,3.01216452 14.7161146,2.68815876 C15.1135404,2.36574908 15.6817476,2.20614033 16.4223322,2.20614033 C16.5180974,2.20614033 16.6872827,2.21731294 16.9282919,2.23646599 C17.1677051,2.26200339 17.3448708,2.28275253 17.458193,2.30030949 L19.3272115,2.30030949 Z" id="Fill-5"></path>
                        <path d="M23.4553322,7.66428079 L23.2238995,6.9987123 L23.1153656,6.9987123 C22.9605451,7.24291369 22.7450733,7.42965593 22.4689501,7.56532337 C22.192827,7.69620255 21.8672251,7.76164213 21.4953367,7.76164213 C20.9063805,7.76164213 20.4467073,7.58926468 20.1179132,7.24610587 C19.7891192,6.90294705 19.6247222,6.41933253 19.6247222,5.79366623 L19.6247222,2.30142675 L21.4761837,2.30142675 L21.4761837,5.23184343 C21.4761837,5.5797905 21.5272585,5.84633712 21.6262159,6.02669501 C21.7267694,6.2070529 21.8895704,6.2964338 22.1162148,6.2964338 C22.4338362,6.2964338 22.6620767,6.17034288 22.7993402,5.91975714 C22.9334116,5.6691714 23.0004473,5.24301604 23.0004473,4.6476754 L23.0004473,2.30142675 L24.8519088,2.30142675 L24.8519088,7.66428079 L23.4553322,7.66428079 Z" id="Fill-7"></path>
                        <polygon id="Fill-9" points="25.6461219 7.66460001 27.4975834 7.66460001 27.4975834 0.300252227 25.6461219 0.300252227"></polygon>
                        <path d="M30.3960784,6.4515735 C30.6195306,6.4515735 30.8110611,6.38134565 30.972266,6.23769778 C31.1302786,6.09564599 31.210083,5.91209592 31.210083,5.6854515 L31.210083,5.27046874 L30.7839276,5.28802571 C30.1742222,5.31037093 29.8709656,5.53382318 29.8709656,5.95997855 C29.8709656,6.28717649 30.0449391,6.4515735 30.3960784,6.4515735 L30.3960784,6.4515735 Z M31.7687136,7.66460001 L31.4143822,6.95274498 L31.3760761,6.95274498 C31.1270865,7.26398205 30.8717125,7.47626169 30.6131463,7.5895839 C30.3545801,7.70131003 30.0209978,7.76036526 29.6092072,7.76036526 C29.1048436,7.76036526 28.7074178,7.61033304 28.4169299,7.30707641 C28.1264419,7.00062761 27.9796019,6.57287615 27.9796019,6.02541814 C27.9796019,5.45401881 28.1807089,5.02945953 28.5781347,4.75333639 C28.9755605,4.4708289 29.5517481,4.31281624 30.3051014,4.2792984 L31.1989104,4.25056882 L31.1989104,4.17555271 C31.1989104,3.73343647 30.9818425,3.5115803 30.5477067,3.5115803 C30.1550692,3.5115803 29.6586859,3.64565165 29.0569609,3.91060218 L28.5222716,2.68799915 C29.1447458,2.36558947 29.9348091,2.20598072 30.8876733,2.20598072 C31.575587,2.20598072 32.1086803,2.37676208 32.486953,2.71672872 C32.8636297,3.05669536 33.051968,3.53552162 33.051968,4.14682313 L33.051968,7.66460001 L31.7687136,7.66460001 Z" id="Fill-11"></path>
                        <path d="M37.0688414,2.20582111 C37.2316424,2.20582111 37.3848668,2.21858981 37.5301107,2.24412721 L37.6338564,2.26328026 L37.4678633,4.01099609 C37.316235,3.96949781 37.1055515,3.95353694 36.8390048,3.95353694 C36.4335986,3.95353694 36.1399185,4.04291784 35.9563684,4.22806399 C35.7744145,4.41640231 35.6834375,4.68135284 35.6834375,5.02929992 L35.6834375,7.6644404 L33.831976,7.6644404 L33.831976,2.30158636 L35.2093995,2.30158636 L35.4982913,3.15708927 L35.5892683,3.15708927 C35.7424927,2.87298569 35.9595606,2.641553 36.2340877,2.46757946 C36.5086147,2.29360592 36.78793,2.20582111 37.0688414,2.20582111" id="Fill-12"></path>
                        <path d="M42.3558813,2.30094792 C42.3558813,2.14612744 42.3111909,2.03440131 42.2202139,1.96736563 C42.1292369,1.89713778 42.0191069,1.86681212 41.8818433,1.86681212 C41.747772,1.86681212 41.6360459,1.90511822 41.5338963,1.98332651 C41.4349388,2.0615348 41.3854601,2.1892218 41.3854601,2.36000316 C41.3854601,2.59941629 41.5243197,2.84521377 41.8004429,3.09579951 C41.9808008,2.99524599 42.1212565,2.87234725 42.2138295,2.73348764 C42.3079987,2.59462803 42.3558813,2.44778798 42.3558813,2.30094792 L42.3558813,2.30094792 Z M40.9593048,5.61123343 C40.9593048,5.80755219 41.0295326,5.9719492 41.1731805,6.09644403 C41.3152323,6.22413103 41.5019745,6.28637844 41.7350033,6.28637844 C41.9169573,6.28637844 42.0733738,6.26243713 42.2090413,6.21615059 C42.3431126,6.16826797 42.4500505,6.11559708 42.5218744,6.05494576 L41.347154,4.8610723 C41.0885878,5.05579497 40.9593048,5.30318854 40.9593048,5.61123343 L40.9593048,5.61123343 Z M44.1147698,7.66380197 L43.64552,7.18337963 C43.3598204,7.36214143 43.1267916,7.48663625 42.9432415,7.55207584 C42.7644797,7.62070761 42.5601805,7.67178241 42.3335361,7.70849242 C42.1100838,7.74201026 41.8515177,7.76116331 41.5610297,7.76116331 C41.0598583,7.76116331 40.6209342,7.67178241 40.2378732,7.50259713 C39.8532161,7.33181577 39.5611321,7.09559481 39.3568329,6.78914601 C39.1509376,6.48269721 39.0519802,6.13315404 39.0519802,5.74370869 C39.0519802,4.91533927 39.4797316,4.28169253 40.3384267,3.84436455 C40.1405119,3.62250839 39.9920757,3.38947961 39.8803496,3.14048996 C39.7734117,2.89469248 39.7191448,2.61218499 39.7191448,2.30094792 C39.7191448,1.79658427 39.9138674,1.39437022 40.3017167,1.09909403 C40.6927581,0.80222175 41.2290435,0.653785612 41.912169,0.653785612 C42.5777375,0.653785612 43.0948698,0.80222175 43.4667582,1.09590185 C43.8370505,1.38958196 44.0237928,1.7933921 44.0237928,2.30094792 C44.0237928,2.65049109 43.9216432,2.97449686 43.7221322,3.27296522 C43.5210252,3.57143359 43.2049999,3.85234499 42.7724602,4.11569943 L43.7141518,5.00791235 C43.9503727,4.64560048 44.1179619,4.2338099 44.2073428,3.77892496 L46.1274361,3.77892496 C46.034863,4.21146468 45.8848308,4.65038874 45.6837238,5.08612064 C45.4778285,5.5250447 45.2479919,5.89852918 44.9910218,6.21136233 L46.5073049,7.66380197 L44.1147698,7.66380197 Z" id="Fill-13"></path>
                        <path d="M49.8467988,3.7395016 L50.1979381,3.7395016 C50.8507379,3.7395016 51.1779358,3.45060976 51.1779358,2.87282608 C51.1779358,2.39559591 50.8571222,2.15937496 50.2154951,2.15937496 L49.8467988,2.15937496 L49.8467988,3.7395016 Z M49.8467988,5.1456547 L49.8467988,7.66428079 L47.9761843,7.66428079 L47.9761843,0.740453164 L50.2458207,0.740453164 C52.1260118,0.740453164 53.0677034,1.42198253 53.0677034,2.78663736 C53.0677034,3.58787329 52.6750659,4.20875133 51.892983,4.6476754 L53.9104377,7.66428079 L51.7876413,7.66428079 L50.3208368,5.1456547 L49.8467988,5.1456547 Z" id="Fill-14"></path>
                        <path d="M56.3091976,3.46529377 C56.0905336,3.46529377 55.9101757,3.53552162 55.7649317,3.67118905 C55.6148995,3.80685649 55.5303069,4.0239244 55.5047695,4.31600841 L57.0960687,4.31600841 C57.0896844,4.05903832 57.0162643,3.85154694 56.8758086,3.69832254 C56.7337569,3.54350205 56.5454185,3.46529377 56.3091976,3.46529377 M56.4177315,7.76036526 C55.5255186,7.76036526 54.8312205,7.52254822 54.3380295,7.04691414 C53.8432424,6.56968398 53.5958488,5.89453896 53.5958488,5.01828692 C53.5958488,4.11170921 53.8256854,3.41741114 54.2821664,2.93379662 C54.7418396,2.44698993 55.3962355,2.20598072 56.243758,2.20598072 C57.0513783,2.20598072 57.6754485,2.41666427 58.1159686,2.83803137 C58.5564888,3.25780239 58.7767489,3.86591173 58.7767489,4.65757114 L58.7767489,5.48115229 L55.4680595,5.48115229 C55.4792321,5.78121675 55.5909582,6.0174377 55.7952574,6.18821906 C56.0043449,6.35900043 56.2852563,6.44199698 56.6411838,6.44199698 C56.9667856,6.44199698 57.2668501,6.4132674 57.5397811,6.35101999 C57.8111159,6.29036866 58.1079882,6.18502689 58.4256096,6.03659075 L58.4256096,7.36453556 C58.1367178,7.51456779 57.8350572,7.61990956 57.5270124,7.67258045 C57.2173714,7.72844351 56.8470791,7.76036526 56.4177315,7.76036526" id="Fill-15"></path>
                        <path d="M61.4497166,6.4515735 C61.6779571,6.4515735 61.8678916,6.38134565 62.0259042,6.23769778 C62.1871091,6.09564599 62.2653174,5.91209592 62.2653174,5.6854515 L62.2653174,5.27046874 L61.8375659,5.28802571 C61.2294566,5.31037093 60.9261999,5.53382318 60.9261999,5.95997855 C60.9261999,6.28717649 61.1017696,6.4515735 61.4497166,6.4515735 L61.4497166,6.4515735 Z M62.8255441,7.66460001 L62.4696166,6.95274498 L62.4313105,6.95274498 C62.1807247,7.26398205 61.9269468,7.47626169 61.6699767,7.5895839 C61.4114105,7.70131003 61.0762322,7.76036526 60.6660377,7.76036526 C60.1600779,7.76036526 59.7626521,7.61033304 59.4737603,7.30707641 C59.1816763,7.00062761 59.0364323,6.57287615 59.0364323,6.02541814 C59.0364323,5.45401881 59.2343472,5.02945953 59.633369,4.75333639 C60.0307948,4.4708289 60.6069824,4.31281624 61.3603357,4.2792984 L62.2557408,4.25056882 L62.2557408,4.17555271 C62.2557408,3.73343647 62.0386729,3.5115803 61.602941,3.5115803 C61.2118996,3.5115803 60.7155164,3.64565165 60.1121953,3.91060218 L59.5759099,2.68799915 C60.2015762,2.36558947 60.9900434,2.20598072 61.9445038,2.20598072 C62.6324175,2.20598072 63.1639146,2.37676208 63.5421874,2.71672872 C63.9204601,3.05669536 64.1087984,3.53552162 64.1087984,4.14682313 L64.1087984,7.66460001 L62.8255441,7.66460001 Z" id="Fill-16"></path>
                        <path d="M67.2961852,7.7610037 C66.4183371,7.7610037 65.7511725,7.52478275 65.3010758,7.04755258 C64.8477869,6.57351459 64.6195464,5.8951774 64.6195464,5.00775274 C64.6195464,4.12032808 64.86694,3.4276261 65.3537467,2.93922332 C65.8437456,2.44922445 66.5380436,2.20661915 67.4414292,2.20661915 C68.0623072,2.20661915 68.6496674,2.3406905 69.1987215,2.61202538 L68.6560518,3.97987238 C68.4294073,3.88251104 68.221916,3.80589884 68.0335776,3.7468436 C67.8452393,3.68619228 67.6473244,3.65905879 67.4414292,3.65905879 C67.1413647,3.65905879 66.9115281,3.77716927 66.7471311,4.01019804 C66.5827341,4.24482291 66.4997375,4.57361693 66.4997375,4.9997723 C66.4997375,5.8568713 66.8157629,6.28621884 67.4510057,6.28621884 C67.9936754,6.28621884 68.5155961,6.12980226 69.0119793,5.81058476 L69.0119793,7.28696571 C68.5363452,7.60299103 67.9649459,7.7610037 67.2961852,7.7610037" id="Fill-17"></path>
                        <path d="M72.3292876,6.29579536 C72.5782772,6.29579536 72.8767456,6.23514404 73.2246927,6.11064921 L73.2246927,7.46093925 C72.9741069,7.5694732 72.737886,7.6460854 72.5096454,7.68917976 C72.2861932,7.7354663 72.0228388,7.7610037 71.7195821,7.7610037 C71.0987041,7.7610037 70.6470113,7.60937538 70.3724843,7.30292658 C70.1011494,6.99807387 69.9622898,6.52882414 69.9622898,5.89836957 L69.9622898,3.68619228 L69.3110861,3.68619228 L69.3110861,2.93443506 L70.1362633,2.35026703 L70.6150896,1.22662142 L71.82652,1.22662142 L71.82652,2.30078832 L73.1432922,2.30078832 L73.1432922,3.68619228 L71.82652,3.68619228 L71.82652,5.77547083 C71.82652,6.12341791 71.9941092,6.29579536 72.3292876,6.29579536" id="Fill-18"></path>
                        <path d="M4.42454236,13.3254436 L3.14607626,13.3254436 L3.14607626,17.7178764 L2.03041109,17.7178764 L2.03041109,13.3254436 L1.16692775,13.3254436 L1.16692775,12.8067152 L2.03041109,12.4667485 L2.03041109,12.1235897 C2.03041109,11.5059038 2.17405897,11.0446345 2.4645469,10.7477623 C2.75503482,10.45089 3.19874715,10.3008578 3.79568388,10.3008578 C4.18672532,10.3008578 4.5729785,10.3678934 4.95125124,10.4939843 L4.65757114,11.3383146 C4.38304409,11.2473377 4.12128573,11.2042433 3.87069999,11.2042433 C3.61851817,11.2042433 3.43337202,11.2840477 3.3200498,11.4372721 C3.20353541,11.5968808 3.14607626,11.8299096 3.14607626,12.1411467 L3.14607626,12.4843055 L4.42454236,12.4843055 L4.42454236,13.3254436 Z" id="Fill-19"></path>
                        <path d="M7.67832636,12.3871037 C7.9033747,12.3871037 8.08852086,12.4030646 8.23376482,12.4365825 L8.12363478,13.4756354 C7.96562212,13.4341372 7.8012251,13.4165802 7.63203983,13.4165802 C7.18673141,13.4165802 6.82601563,13.5634202 6.54989249,13.8523121 C6.27217327,14.1412039 6.13490974,14.5210728 6.13490974,14.9855342 L6.13490974,17.718036 L5.02243674,17.718036 L5.02243674,12.4844651 L5.89390053,12.4844651 L6.04074058,13.4070037 L6.09660364,13.4070037 C6.27057718,13.0941705 6.49722161,12.8467769 6.77653692,12.6664191 C7.05585223,12.4812729 7.35591669,12.3871037 7.67832636,12.3871037" id="Fill-20"></path>
                        <path d="M10.3833755,16.9634059 C10.7855895,16.9634059 11.1095953,16.8516797 11.3553928,16.6234392 C11.5995942,16.3983909 11.7208968,16.0823656 11.7208968,15.6753632 L11.7208968,15.2220744 L11.048944,15.2492079 C10.5270234,15.2683609 10.1455584,15.3561457 9.9077414,15.5109662 C9.66832828,15.6673828 9.54862171,15.9067959 9.54862171,16.2276095 C9.54862171,16.4622344 9.61884956,16.6457844 9.75611309,16.7718754 C9.8949727,16.8995624 10.1040602,16.9634059 10.3833755,16.9634059 L10.3833755,16.9634059 Z M12.0401143,17.7183553 L11.8166621,16.9921354 L11.7799521,16.9921354 C11.5261741,17.312949 11.2723962,17.5268248 11.0170222,17.6417431 C10.7616482,17.7550653 10.4328542,17.8157166 10.0306401,17.8157166 C9.51829605,17.8157166 9.116082,17.6752609 8.82719016,17.3975417 C8.53829832,17.1214185 8.39305435,16.7303771 8.39305435,16.218033 C8.39305435,15.6785554 8.59416138,15.2715531 8.99637543,14.997026 C9.39539731,14.7240951 10.0066988,14.5724668 10.8270878,14.5501215 L11.7304733,14.521392 L11.7304733,14.2420767 C11.7304733,13.9053022 11.6538611,13.6563125 11.4974446,13.4903194 C11.341028,13.3259224 11.1000188,13.2413298 10.7712247,13.2413298 C10.503082,13.2413298 10.2445159,13.281232 9.99871839,13.3594403 C9.75132483,13.4376485 9.51669996,13.5318177 9.28845945,13.6387556 L8.92933976,12.843904 C9.21184725,12.6954679 9.52308431,12.5821456 9.86145487,12.5071295 C10.1982293,12.4273252 10.5174468,12.387423 10.8159152,12.387423 C11.4830798,12.387423 11.9858473,12.534263 12.325814,12.8231549 C12.6657806,13.116835 12.8349659,13.5717199 12.8349659,14.194194 L12.8349659,17.7183553 L12.0401143,17.7183553 Z" id="Fill-21"></path>
                        <path d="M18.4137706,17.7177168 L17.2965093,17.7177168 L17.2965093,14.4904279 C17.2965093,14.091406 17.2198971,13.7929376 17.0682688,13.5934267 C16.9182366,13.3971079 16.6820156,13.2965544 16.359606,13.2965544 C15.9302584,13.2965544 15.6158292,13.4370101 15.4131261,13.7163254 C15.2152112,13.9972368 15.1130616,14.4632944 15.1130616,15.112902 L15.1130616,17.7177168 L14.0021847,17.7177168 L14.0021847,12.4841459 L14.8720524,12.4841459 L15.028469,13.1688674 L15.0859281,13.1688674 C15.229576,12.9214738 15.4418556,12.7267512 15.7179788,12.5942759 C15.9925058,12.4570124 16.2973585,12.3867845 16.6277487,12.3867845 C17.4321768,12.3867845 17.9668661,12.6660998 18.2286244,13.2135579 L18.3052366,13.2135579 C18.4600571,12.9549917 18.677125,12.7538847 18.9580364,12.6070446 C19.2405439,12.4633967 19.5613575,12.3867845 19.9236694,12.3867845 C20.5493357,12.3867845 21.0042206,12.5479894 21.2899203,12.8608225 C21.5756199,13.18004 21.7192678,13.6588663 21.7192678,14.3052817 L21.7192678,17.7177168 L20.6067948,17.7177168 L20.6067948,14.4904279 C20.6067948,14.091406 20.5301826,13.7929376 20.3753621,13.5934267 C20.2221377,13.3971079 19.9843207,13.2965544 19.6651032,13.2965544 C19.2325635,13.2965544 18.9149421,13.4338179 18.7154311,13.7019606 C18.512728,13.9716994 18.4137706,14.3866822 18.4137706,14.9453128 L18.4137706,17.7177168 Z" id="Fill-22"></path>
                        <path d="M24.9992277,13.233509 C24.6448962,13.233509 24.3623887,13.3420429 24.148513,13.5686873 C23.9346373,13.7937357 23.8085464,14.1209336 23.7670481,14.5502812 L26.1452185,14.5502812 C26.1388341,14.1177414 26.0334924,13.7905435 25.8323853,13.5670912 C25.6296822,13.3420429 25.3535591,13.233509 24.9992277,13.233509 M25.2003347,17.8158762 C24.3863301,17.8158762 23.7494911,17.5796553 23.291414,17.1024251 C22.8317408,16.626791 22.6019042,15.9723951 22.6019042,15.1408335 C22.6019042,14.2837345 22.8157799,13.6133778 23.2403392,13.1233789 C23.6664946,12.6349761 24.2538548,12.3875826 24.9992277,12.3875826 C25.6903336,12.3875826 26.2345994,12.6014583 26.6368135,13.0196332 C27.0374314,13.4378082 27.2369424,14.0155918 27.2369424,14.7529843 L27.2369424,15.3531132 L23.7478951,15.3531132 C23.7638559,15.860669 23.9011195,16.2533065 24.1596856,16.5230453 C24.4198479,16.7975724 24.7837559,16.9348359 25.2546017,16.9348359 C25.5642426,16.9348359 25.8515384,16.9061063 26.118085,16.8486472 C26.3846316,16.7879958 26.6703313,16.6922306 26.9767801,16.5549671 L26.9767801,17.4599487 C26.7054452,17.5892318 26.4309182,17.6818049 26.154795,17.7344757 C25.8754797,17.7887427 25.5594544,17.8158762 25.2003347,17.8158762" id="Fill-23"></path>
                        <path d="M32.4527967,17.7177168 L31.7776517,15.2788951 C31.6930591,15.0203289 31.546219,14.4202 31.3307472,13.4753162 L31.2892489,13.4753162 C31.1056989,14.3260309 30.9604549,14.9293519 30.8535171,15.2868755 L30.1576229,17.7177168 L28.9270394,17.7177168 L27.4570428,12.4841459 L28.5934571,12.4841459 L29.2606217,15.0634233 C29.41225,15.7018583 29.520784,16.2493163 29.5846275,16.7042013 L29.6133571,16.7042013 C29.6420866,16.4727686 29.6915653,16.2094141 29.758601,15.9093497 C29.8208484,15.6124774 29.8767115,15.385833 29.9261902,15.2389929 L30.7210418,12.4841459 L31.9420487,12.4841459 L32.7145551,15.2389929 C32.7608416,15.3938134 32.8198969,15.6284383 32.8917208,15.9508479 C32.9619487,16.2684694 33.0034469,16.517459 33.0178117,16.6914326 L33.0545217,16.6914326 C33.1008083,16.3051794 33.2125344,15.7593174 33.3865079,15.0634233 L34.063249,12.4841459 L35.1805103,12.4841459 L33.7041294,17.7177168 L32.4527967,17.7177168 Z" id="Fill-24"></path>
                        <path d="M36.5303215,15.094547 C36.5303215,16.3027852 36.9756299,16.9061063 37.8694389,16.9061063 C38.7552675,16.9061063 39.1941916,16.3027852 39.1941916,15.094547 C39.1941916,13.8958853 38.7520753,13.2973525 37.8598624,13.2973525 C37.3938049,13.2973525 37.0554343,13.453769 36.8463468,13.7602178 C36.6356633,14.073051 36.5303215,14.5167633 36.5303215,15.094547 M40.3417785,15.094547 C40.3417785,15.9484538 40.1215184,16.6156184 39.6841904,17.0960407 C39.2436703,17.5764631 38.6339649,17.8158762 37.8502859,17.8158762 C37.360287,17.8158762 36.9293434,17.7041501 36.5526667,17.4822939 C36.1791823,17.2620338 35.8886943,16.9460085 35.6859912,16.5310258 C35.4848842,16.1208313 35.3843307,15.6388128 35.3843307,15.094547 C35.3843307,14.2438323 35.6013986,13.581456 36.0371305,13.1042259 C36.4712663,12.6285918 37.08576,12.3875826 37.8774194,12.3875826 C38.6355609,12.3875826 39.2356898,12.6349761 39.6794022,13.1201867 C40.1215184,13.6101856 40.3417785,14.2645815 40.3417785,15.094547" id="Fill-25"></path>
                        <path d="M43.9160569,12.3871037 C44.1411052,12.3871037 44.3262514,12.4030646 44.4698992,12.4365825 L44.3613653,13.4756354 C44.2049487,13.4341372 44.0389556,13.4165802 43.8697703,13.4165802 C43.4244619,13.4165802 43.0637461,13.5634202 42.787623,13.8523121 C42.5099038,14.1412039 42.3726402,14.5210728 42.3726402,14.9855342 L42.3726402,17.718036 L41.2601672,17.718036 L41.2601672,12.4844651 L42.131631,12.4844651 L42.2784711,13.4070037 L42.3359302,13.4070037 C42.5083077,13.0941705 42.7349521,12.8467769 43.0158635,12.6664191 C43.2919867,12.4812729 43.5952433,12.3871037 43.9160569,12.3871037" id="Fill-26"></path>
                        <polygon id="Fill-27" points="46.179309 14.9526548 46.8097635 14.1705719 48.3914863 12.4835074 49.6731445 12.4835074 47.5679051 14.7323947 49.8072159 17.7170784 48.5000202 17.7170784 46.817744 15.4235006 46.2096346 15.9246721 46.2096346 17.7170784 45.103546 17.7170784 45.103546 10.3543267 46.2096346 10.3543267 46.2096346 13.9487158 46.1505794 14.9526548"></polygon>
                        <path d="M54.0413168,16.2276095 C54.0413168,16.7415497 53.8561707,17.1341872 53.4826862,17.403926 C53.1107978,17.6784531 52.5777046,17.8157166 51.8802143,17.8157166 C51.1843202,17.8157166 50.6240935,17.7087787 50.2027264,17.4980952 L50.2027264,16.5340583 C50.815624,16.8213541 51.3902155,16.9634059 51.9201165,16.9634059 C52.6048381,16.9634059 52.9464008,16.7575106 52.9464008,16.3425278 C52.9464008,16.2084565 52.9112869,16.0999225 52.8330786,16.0121377 C52.7580625,15.9227568 52.6335676,15.8317798 52.4595941,15.7360146 C52.2872167,15.6418454 52.0430153,15.5317154 51.7365665,15.415201 C51.1332454,15.1837683 50.7262431,14.9475473 50.5107713,14.7145186 C50.2984916,14.4798937 50.1915538,14.1798292 50.1915538,13.8047487 C50.1915538,13.3562481 50.3719116,13.0067049 50.7358196,12.7609074 C51.0949393,12.5135139 51.5881303,12.387423 52.2106045,12.387423 C52.8250981,12.387423 53.406074,12.5135139 53.9551281,12.7609074 L53.5960084,13.6036416 C53.0293973,13.3690168 52.5553594,13.2509063 52.1707023,13.2509063 C51.5833421,13.2509063 51.289662,13.4184955 51.289662,13.7520778 C51.289662,13.9180709 51.3662742,14.0569305 51.5194986,14.1702527 C51.6743191,14.2835749 52.0079013,14.4399915 52.5218415,14.6395024 C52.9527851,14.8054955 53.2672144,14.9555278 53.4651292,15.0975796 C53.6582558,15.2364392 53.806692,15.3960479 53.899265,15.5764058 C53.9934342,15.7599559 54.0413168,15.9754277 54.0413168,16.2276095" id="Fill-28"></path>
                        <path d="M3.86271956,26.9716726 C4.32079667,26.9716726 4.65118679,26.8439856 4.86027425,26.5854194 C5.06936172,26.3300454 5.17629958,25.9118705 5.18268393,25.3324907 L5.18268393,25.1792663 C5.18268393,24.51689 5.07574607,24.0492364 4.86027425,23.7699211 C4.64639853,23.4922018 4.30962406,23.3549383 3.85314303,23.3549383 C3.4605055,23.3549383 3.15884496,23.5113549 2.94816141,23.8289763 C2.73588177,24.1450016 2.63054,24.5998866 2.63054,25.1872468 C2.63054,25.7698187 2.7326896,26.2103389 2.93858489,26.5135955 C3.14288409,26.8168521 3.45092898,26.9716726 3.86271956,26.9716726 M3.5626551,27.8702699 C2.90985531,27.8702699 2.40070339,27.6340489 2.03360327,27.1600109 C1.66809923,26.687569 1.48614525,26.0251927 1.48614525,25.1680937 C1.48614525,24.3078026 1.66969531,23.6438301 2.03998762,23.1618117 C2.41347209,22.6829855 2.92581619,22.4451684 3.58180815,22.4451684 C4.27131796,22.4451684 4.79483466,22.6989463 5.15395435,23.2065022 L5.2114135,23.2065022 C5.15714653,22.8314216 5.13001304,22.5377415 5.13001304,22.3190775 L5.13001304,20.4117529 L6.2472743,20.4117529 L6.2472743,27.7776968 L5.37740661,27.7776968 L5.18268393,27.0897831 L5.13001304,27.0897831 C4.77248944,27.6085115 4.25216491,27.8702699 3.5626551,27.8702699" id="Fill-29"></path>
                        <path d="M9.05926128,27.018438 C9.46466751,27.018438 9.78867327,26.9051158 10.0312786,26.6816635 C10.2770761,26.4550191 10.3999748,26.1389938 10.3999748,25.7319914 L10.3999748,25.2755104 L9.72642586,25.3058361 C9.20290916,25.323393 8.82304033,25.4111779 8.58203111,25.5659983 C8.34421408,25.724011 8.22769969,25.961828 8.22769969,26.2858338 C8.22769969,26.5188626 8.29473536,26.7008166 8.43519106,26.8269075 C8.57405068,26.9545945 8.78313814,27.018438 9.05926128,27.018438 L9.05926128,27.018438 Z M10.7175962,27.7781756 L10.4925479,27.0503597 L10.4558379,27.0503597 C10.203656,27.3679811 9.9514742,27.583453 9.69450411,27.7015634 C9.43753402,27.8148856 9.10873999,27.8707487 8.70971812,27.8707487 C8.19577794,27.8707487 7.79356388,27.7350813 7.50467204,27.4525738 C7.2157802,27.1780467 7.07053624,26.7854092 7.07053624,26.2746612 C7.07053624,25.7351836 7.27164327,25.3281813 7.67226123,25.0536542 C8.0728792,24.7791272 8.68418072,24.629095 9.50616578,24.6051537 L10.4095513,24.5764241 L10.4095513,24.2955127 C10.4095513,23.9635265 10.331343,23.7097486 10.1733304,23.5453515 C10.0185099,23.3793584 9.77590457,23.2963619 9.44711055,23.2963619 C9.17896784,23.2963619 8.92199776,23.3362641 8.67620028,23.4144724 C8.4304028,23.4958728 8.19418185,23.590042 7.96594133,23.6953838 L7.60682164,22.9005322 C7.89092522,22.7520961 8.2005662,22.6403699 8.53893675,22.5621616 C8.87571122,22.4823573 9.19492872,22.4456473 9.49499317,22.4456473 C10.1605617,22.4456473 10.6633292,22.5908912 11.0032959,22.8829752 C11.3416664,23.1718671 11.5124478,23.626752 11.5124478,24.2508222 L11.5124478,27.7781756 L10.7175962,27.7781756 Z" id="Fill-30"></path>
                        <path d="M11.8251213,22.5402952 L13.0365518,22.5402952 L14.1027382,25.5074219 C14.262347,25.9303851 14.3708809,26.329407 14.4235518,26.7044876 L14.4618579,26.7044876 C14.4905875,26.5273218 14.5416623,26.3166383 14.6182745,26.0724369 C14.6948867,25.8234473 15.0939086,24.6439386 15.8217245,22.5402952 L17.0235784,22.5402952 L14.7842676,28.4713564 C14.3772653,29.5614842 13.697332,30.1057501 12.7476599,30.1057501 C12.5018624,30.1057501 12.2624493,30.0802127 12.0294205,30.0259457 L12.0294205,29.1449054 C12.1954136,29.1816154 12.3869441,29.2007684 12.6008199,29.2007684 C13.1371053,29.2007684 13.515378,28.8927235 13.7324459,28.2702494 L13.9255725,27.7770584 L11.8251213,22.5402952 Z" id="Fill-31"></path>
                    </g>
                    <polygon id="Fill-33" fill="url(#linearGradient-1)" points="1.95905659 12.1112059 7.03301879 17.1883603 2.43788284 21.7850924 3.39393927 22.7427449 7.9906713 18.1428206 12.5858073 22.7427449 13.5450558 21.7850924 8.94832381 17.1883603 13.0662296 13.0704545 23.2173462 23.2183789 29.9831611 16.4541601 36.7521683 23.2183789 47.380515 12.5900322 46.4228625 11.6323797 36.7521683 21.3062661 29.9831611 14.538855 23.2173462 21.3062661 13.0662296 11.1567456 7.9906713 16.2307078 3.87436161 12.1112059 13.5450558 2.44051169 12.5858073 1.48285919"></polygon>
                    <g id="Group-53" transform="translate(0.844988, 0.234719)">
                        <path d="M13.3461646,1.72776473 C13.3461646,2.33427799 12.8545696,2.82587294 12.2464603,2.82587294 C11.639947,2.82587294 11.1451599,2.33427799 11.1451599,1.72776473 C11.1451599,1.11965539 11.639947,0.626464349 12.2464603,0.626464349 C12.8545696,0.626464349 13.3461646,1.11965539 13.3461646,1.72776473" id="Fill-35" fill="#40B8E6"></path>
                        <path d="M3.17110667,11.8771256 C3.17110667,12.485235 2.67631954,12.978426 2.07140237,12.978426 C1.46329303,12.978426 0.971698078,12.485235 0.971698078,11.8771256 C0.971698078,11.2706124 1.46329303,10.7774213 2.07140237,10.7774213 C2.67631954,10.7774213 3.17110667,11.2706124 3.17110667,11.8771256" id="Fill-37" fill="#55B0E3"></path>
                        <path d="M13.3461646,11.8771256 C13.3461646,12.485235 12.8545696,12.978426 12.2464603,12.978426 C11.639947,12.978426 11.1451599,12.485235 11.1451599,11.8771256 C11.1451599,11.2706124 11.639947,10.7774213 12.2464603,10.7774213 C12.8545696,10.7774213 13.3461646,11.2706124 13.3461646,11.8771256" id="Fill-39" fill="#55B0E3"></path>
                        <path d="M47.1157053,11.8771256 C47.1157053,12.485235 46.6225143,12.978426 46.0175971,12.978426 C45.4078917,12.978426 44.9147007,12.485235 44.9147007,11.8771256 C44.9147007,11.2706124 45.4078917,10.7774213 46.0175971,10.7774213 C46.6225143,10.7774213 47.1157053,11.2706124 47.1157053,11.8771256" id="Fill-41" fill="#55B0E3"></path>
                        <path d="M3.17110667,22.0288806 C3.17110667,22.6353939 2.67631954,23.1285849 2.07140237,23.1285849 C1.46329303,23.1285849 0.971698078,22.6353939 0.971698078,22.0288806 C0.971698078,21.4223674 1.46329303,20.9291763 2.07140237,20.9291763 C2.67631954,20.9291763 3.17110667,21.4223674 3.17110667,22.0288806" id="Fill-43" fill="#007EB2"></path>
                        <path d="M23.4722226,22.0288806 C23.4722226,22.6353939 22.9790315,23.1285849 22.3725183,23.1285849 C21.766005,23.1285849 21.272814,22.6353939 21.272814,22.0288806 C21.272814,21.4223674 21.766005,20.9291763 22.3725183,20.9291763 C22.9790315,20.9291763 23.4722226,21.4223674 23.4722226,22.0288806" id="Fill-45" fill="#007EB2"></path>
                        <path d="M30.2383568,15.2609908 C30.2383568,15.8691001 29.7467618,16.3622911 29.1386525,16.3622911 C28.5321392,16.3622911 28.0405443,15.8691001 28.0405443,15.2609908 C28.0405443,14.6544775 28.5321392,14.1612865 29.1386525,14.1612865 C29.7467618,14.1612865 30.2383568,14.6544775 30.2383568,15.2609908" id="Fill-47" fill="#55B0E3"></path>
                        <path d="M37.006087,22.0288806 C37.006087,22.6353939 36.512896,23.1285849 35.9079788,23.1285849 C35.2982734,23.1285849 34.8066784,22.6353939 34.8066784,22.0288806 C34.8066784,21.4223674 35.2982734,20.9291763 35.9079788,20.9291763 C36.512896,20.9291763 37.006087,21.4223674 37.006087,22.0288806" id="Fill-49" fill="#007EB2"></path>
                        <path d="M13.3212656,22.0288806 C13.3212656,22.6353939 12.8296706,23.1285849 12.2215613,23.1285849 C11.615048,23.1285849 11.1202609,22.6353939 11.1202609,22.0288806 C11.1202609,21.4207713 11.615048,20.9291763 12.2215613,20.9291763 C12.8296706,20.9291763 13.3212656,21.4207713 13.3212656,22.0288806" id="Fill-51" fill="#007EB2"></path>
                    </g>
                </g>
            </g>
        </g>
    </g>
</svg>