<?xml version="1.0" encoding="UTF-8"?>
<svg width="580px" height="580px" viewBox="0 0 580 580" version="1.1" xmlns="http://www.w3.org/2000/svg" xmlns:xlink="http://www.w3.org/1999/xlink">
    <!-- Generator: Sketch 46.2 (44496) - http://www.bohemiancoding.com/sketch -->
    <title>a&amp;r_big</title>
    <desc>Created with Sketch.</desc>
    <defs>
        <polygon id="path-1" points="12.0794146 0.162983373 12.0794146 11.8602755 0.259953542 11.8602755 0.259953542 0.162983373"></polygon>
        <polygon id="path-3" points="0.246876656 0.050736342 12.0667698 0.050736342 12.0667698 11.7471164 0.246876656 11.7471164"></polygon>
    </defs>
    <g id="Large" stroke="none" stroke-width="1" fill="none" fill-rule="evenodd">
        <g id="big-copy" transform="translate(-1969.000000, -777.000000)">
            <g id="Group-Copy-9" transform="translate(1969.000000, 777.000000)">
                <rect id="Rectangle-11" x="0" y="0" width="580" height="580"></rect>
                <g id="frontend_big" transform="translate(68.000000, 110.000000)">
                    <g id="Page-1">
                        <g id="Group-3" transform="translate(235.902440, 54.106034)">
                            <g id="Fill-1-Clipped">
                                <mask id="mask-2" fill="white">
                                    <use xlink:href="#path-1"></use>
                                </mask>
                                <g id="path-1"></g>
                                <path d="M12.0795587,6.01191448 C12.0795587,9.2416532 9.43422532,11.8602755 6.17162834,11.8602755 C2.90730314,11.8602755 0.259953542,9.2416532 0.259953542,6.01191448 C0.259953542,2.78103562 2.90730314,0.162983373 6.17162834,0.162983373 C9.43422532,0.162983373 12.0795587,2.78103562 12.0795587,6.01191448" id="Fill-1" fill="#FEFEFE" fill-rule="nonzero" mask="url(#mask-2)"></path>
                            </g>
                        </g>
                        <g id="Group-6" transform="translate(54.439024, 0.234300)">
                            <g id="Fill-4-Clipped">
                                <mask id="mask-4" fill="white">
                                    <use xlink:href="#path-3"></use>
                                </mask>
                                <g id="path-3"></g>
                                <path d="M12.0667698,5.89932542 C12.0667698,9.1287791 9.4208604,11.7471164 6.15682322,11.7471164 C2.89365018,11.7471164 0.246876656,9.1287791 0.246876656,5.89932542 C0.246876656,2.67101188 2.89365018,0.050679335 6.15682322,0.050679335 C9.4208604,0.050679335 12.0667698,2.67101188 12.0667698,5.89932542" id="Fill-4" fill="#FEFEFE" fill-rule="nonzero" mask="url(#mask-4)"></path>
                            </g>
                        </g>
                        <path d="M11.819922,60.1179478 C11.819922,63.3476864 9.17401254,65.9663088 5.90911126,65.9663088 C2.64536214,65.9663088 2.88037166e-05,63.3476864 2.88037166e-05,60.1179478 C2.88037166e-05,56.8870688 2.64536214,54.2690166 5.90911126,54.2690166 C9.17401254,54.2690166 11.819922,56.8870688 11.819922,60.1179478" id="Fill-7" fill="#FEFEFE" fill-rule="nonzero"></path>
                        <path d="M66.5057942,60.1179478 C66.5057942,63.3476864 63.8598848,65.9663088 60.5958476,65.9663088 C57.3326746,65.9663088 54.685901,63.3476864 54.685901,60.1179478 C54.685901,56.8870688 57.3326746,54.2690166 60.5958476,54.2690166 C63.8598848,54.2690166 66.5057942,56.8870688 66.5057942,60.1179478" id="Fill-9" fill="#FEFEFE" fill-rule="nonzero"></path>
                        <path d="M11.819922,114.100618 C11.819922,117.329501 9.17401254,119.949264 5.90911126,119.949264 C2.64536214,119.949264 2.88037166e-05,117.329501 2.88037166e-05,114.100618 C2.88037166e-05,110.871734 2.64536214,108.254252 5.90911126,108.254252 C9.17401254,108.254252 11.819922,110.871734 11.819922,114.100618" id="Fill-11" fill="#FEFEFE" fill-rule="nonzero"></path>
                        <path d="M120.923849,114.100618 C120.923849,117.329501 118.279092,119.949264 115.013903,119.949264 C111.74929,119.949264 109.103956,117.329501 109.103956,114.100618 C109.103956,110.871734 111.74929,108.254252 115.013903,108.254252 C118.279092,108.254252 120.923849,110.871734 120.923849,114.100618" id="Fill-13" fill="#FEFEFE" fill-rule="nonzero"></path>
                        <path d="M157.29122,78.1119334 C157.29122,81.3425274 154.645599,83.9605796 151.380986,83.9605796 C148.116949,83.9605796 145.473344,81.3425274 145.473344,78.1119334 C145.473344,74.8816248 148.116949,72.2635724 151.380986,72.2635724 C154.645599,72.2635724 157.29122,74.8816248 157.29122,78.1119334" id="Fill-15" fill="#FEFEFE" fill-rule="nonzero"></path>
                        <path d="M193.658015,114.100618 C193.658015,117.329501 191.011242,119.949264 187.750661,119.949264 C184.486048,119.949264 181.838698,117.329501 181.838698,114.100618 C181.838698,110.871734 184.486048,108.254252 187.750661,108.254252 C191.011242,108.254252 193.658015,110.871734 193.658015,114.100618" id="Fill-17" fill="#FEFEFE" fill-rule="nonzero"></path>
                        <path d="M66.3714824,114.100618 C66.3714824,117.329501 63.725861,119.949264 60.4615358,119.949264 C57.198939,119.949264 54.5515894,117.329501 54.5515894,114.100618 C54.5515894,110.870309 57.198939,108.254252 60.4615358,108.254252 C63.725861,108.254252 66.3714824,110.870309 66.3714824,114.100618" id="Fill-19" fill="#FEFEFE" fill-rule="nonzero"></path>
                        <polygon id="Fill-21" fill="#FEFEFE" fill-rule="nonzero" points="29.457705 78.2857768 11.0411847 60.0608836 62.9719814 8.6743753 57.8348386 3.5887696 0.766610918 60.0608836 24.319122 83.3693872"></polygon>
                        <polygon id="Fill-23" fill="#FEFEFE" fill-rule="nonzero" points="36.7653808 95.6851782 57.8329952 116.535819 62.9730184 111.451069 41.9022356 90.6024228"></polygon>
                        <polygon id="Fill-25" fill="#FEFEFE" fill-rule="nonzero" points="187.565367 119.078993 151.233799 83.1237434 114.902807 119.078993 60.4030068 65.1476864 8.47278606 116.535905 3.33535516 111.450869 60.4030068 54.9776152 114.902807 108.908637 151.233799 72.9545274 187.565367 108.908637 239.49818 57.520133 244.634746 62.6034584"></polygon>
                    </g>
                    <g id="Group-32" transform="translate(23.000000, 171.000000)" fill="#FFFFFF">
                        <path d="M26.3534781,27.7566121 L24.5677765,21.0032406 C24.1688432,19.5024914 23.6559289,17.5553168 23.0765257,15.1712152 C22.4781257,12.7776152 22.0886908,11.0773994 21.8892241,10.0420724 C21.7277511,10.9824152 21.3953067,12.5781486 20.8918908,14.7722819 C20.4074717,16.9664152 19.286659,21.2976914 17.5864432,27.7566121 L26.3534781,27.7566121 Z M30.6942527,44.6067962 L28.6615924,36.9130819 L15.2783289,36.9130819 L13.1981765,44.6067962 L0.964220952,44.6067962 L14.3949765,3.2507073 L29.250494,3.2507073 L42.8617194,44.6067962 L30.6942527,44.6067962 Z" id="Fill-1"></path>
                        <path d="M64.5836394,44.6105956 L64.5836394,27.2000051 C64.5836394,25.081859 64.2796902,23.4671289 63.6622933,22.3843098 C63.0448965,21.3204876 62.0760584,20.7695797 60.7272838,20.7695797 C58.8655949,20.7695797 57.5263187,21.5199543 56.6904584,23.0112051 C55.8640965,24.483459 55.4556648,27.0385321 55.4556648,30.6384305 L55.4556648,44.6105956 L44.437506,44.6105956 L44.437506,12.6959289 L52.7486171,12.6959289 L54.125887,16.6282717 L54.7812775,16.6282717 C55.7121219,15.1275225 57.0229029,14.0067098 58.6756267,13.2468368 C60.3473473,12.5059606 62.2565283,12.1260241 64.4126679,12.1260241 C67.9460775,12.1260241 70.7006171,13.1423543 72.6572902,15.2035098 C74.6234616,17.2456686 75.6017981,20.133186 75.6017981,23.8470654 L75.6017981,44.6105956 L64.5836394,44.6105956 Z" id="Fill-3"></path>
                        <path d="M89.4248381,23.137534 C89.4248381,26.4144863 90.5646476,28.0482133 92.8347683,28.0482133 C93.8795937,28.0482133 94.6964571,27.64928 95.2758603,26.8324165 C95.8457651,26.0250514 96.1402159,24.818753 96.1402159,23.1945244 C96.1402159,19.8890768 95.0289016,18.2458514 92.8347683,18.2458514 C90.5646476,18.2458514 89.4248381,19.87008 89.4248381,23.137534 L89.4248381,23.137534 Z M85.9579175,48.59328 C85.9579175,49.4766324 86.4518349,50.2080102 87.420673,50.7589181 C88.3990095,51.3193244 89.7002921,51.6042768 91.3435175,51.6042768 C94.0125714,51.6042768 96.1497143,51.262334 97.7454476,50.5974451 C99.3506794,49.9325562 100.167543,49.077699 100.167543,48.0138768 C100.167543,47.1780165 99.6736254,46.5796165 98.6952889,46.2471721 C97.7169524,45.8957308 96.3206857,45.7057625 94.4969905,45.7057625 L90.1847111,45.7057625 C88.9974095,45.7057625 88.0000762,45.9812165 87.1832127,46.5416229 C86.3663492,47.0925308 85.9579175,47.7764165 85.9579175,48.59328 L85.9579175,48.59328 Z M110.017397,12.68928 L110.017397,18.0178895 L105.648127,19.6231213 C106.246527,20.7154387 106.559975,21.988226 106.559975,23.4224863 C106.559975,26.8704102 105.344178,29.5299657 102.931581,31.4201498 C100.518984,33.310334 96.9190857,34.2696737 92.1318857,34.2696737 C90.9445841,34.2696737 90.0042413,34.1936863 89.3108571,34.0417117 C89.0449016,34.5356292 88.9214222,34.991553 88.9214222,35.42848 C88.9214222,35.9793879 89.3583492,36.3973181 90.2322032,36.6917689 C91.1155556,36.9767213 92.2743619,37.1191975 93.6991238,37.1191975 L99.0087365,37.1191975 C106.161041,37.1191975 109.732444,40.1206959 109.732444,46.1711848 C109.732444,50.0560356 108.079721,53.0765308 104.774273,55.2326705 C101.449829,57.3888102 96.7956063,58.4811276 90.8116063,58.4811276 C86.2713651,58.4811276 82.7854476,57.7117562 80.3348571,56.211007 C77.8937651,54.691261 76.6589714,52.5256229 76.6589714,49.6950959 C76.6589714,45.876734 79.0335746,43.4071467 83.7637841,42.3053308 C82.7759492,41.8874006 81.9210921,41.2225117 81.2087111,40.3201625 C80.4868317,39.3798197 80.1258921,38.4774705 80.1258921,37.5656229 C80.1258921,36.5777879 80.401346,35.6944356 80.9427556,34.944061 C81.4841651,34.1746895 82.6239746,33.2723403 84.3526857,32.2085181 C82.6999619,31.4771403 81.3986794,30.3468292 80.4488381,28.7700927 C79.4989968,27.2218514 79.0335746,25.3126705 79.0335746,23.0805435 C79.0335746,19.6136229 80.2113778,16.9255721 82.5764825,14.9973943 C84.9415873,13.0787149 88.3230222,12.1288737 92.7302857,12.1288737 C93.3001905,12.1288737 94.3070222,12.1953625 95.7412825,12.3093435 C97.1660444,12.4613181 98.2203683,12.5847975 98.8947556,12.68928 L110.017397,12.68928 Z" id="Fill-5"></path>
                        <path d="M134.584091,44.6105956 L133.206822,40.6497575 L132.56093,40.6497575 C131.639583,42.1030146 130.357298,43.2143289 128.714072,44.021694 C127.070847,44.8005638 125.133171,45.1899987 122.920041,45.1899987 C119.415126,45.1899987 116.679583,44.1641702 114.72291,42.1220114 C112.766237,40.0798527 111.787901,37.2018337 111.787901,33.4784559 L111.787901,12.6959289 L122.80606,12.6959289 L122.80606,30.1350146 C122.80606,32.2056686 123.110009,33.7919035 123.69891,34.8652241 C124.29731,35.9385448 125.266149,36.4704559 126.614923,36.4704559 C128.505107,36.4704559 129.86338,35.7200813 130.680244,34.2288305 C131.47811,32.7375797 131.877044,30.2015035 131.877044,26.6585956 L131.877044,12.6959289 L142.895203,12.6959289 L142.895203,44.6105956 L134.584091,44.6105956 Z" id="Fill-7"></path>
                        <polygon id="Fill-9" points="147.621613 44.6124952 158.639771 44.6124952 158.639771 0.786819048 147.621613 0.786819048"></polygon>
                        <path d="M175.888889,37.3937016 C177.218667,37.3937016 178.358476,36.9757714 179.317816,36.1209143 C180.258159,35.2755556 180.733079,34.1832381 180.733079,32.8344635 L180.733079,30.3648762 L178.197003,30.4693587 C174.56861,30.6023365 172.763911,31.9321143 172.763911,34.4681905 C172.763911,36.4153651 173.799238,37.3937016 175.888889,37.3937016 L175.888889,37.3937016 Z M184.057524,44.6124952 L181.948876,40.3762032 L181.720914,40.3762032 C180.239162,42.2283937 178.719416,43.4916825 177.180673,44.1660698 C175.64193,44.8309587 173.656762,45.1824 171.206171,45.1824 C168.204673,45.1824 165.839568,44.2895492 164.110857,42.4848508 C162.382146,40.6611556 161.508292,38.115581 161.508292,34.8576254 C161.508292,31.4571937 162.705092,28.9306159 165.070197,27.2873905 C167.435302,25.6061714 170.864229,24.6658286 175.347479,24.4663619 L180.66659,24.2953905 L180.66659,23.8489651 C180.66659,21.2179048 179.374806,19.8976254 176.791238,19.8976254 C174.454629,19.8976254 171.500622,20.6954921 167.919721,22.2722286 L164.737752,14.9964444 C168.442133,13.0777651 173.143848,12.1279238 178.8144,12.1279238 C182.908216,12.1279238 186.080686,13.144254 188.33181,15.1674159 C190.573435,17.1905778 191.694248,20.0401016 191.694248,23.6779937 L191.694248,44.6124952 L184.057524,44.6124952 Z" id="Fill-11"></path>
                        <path d="M215.598903,12.126974 C216.567741,12.126974 217.479589,12.2029613 218.343944,12.3549359 L218.961341,12.4689168 L217.973506,22.8696787 C217.071157,22.62272 215.817366,22.5277359 214.231131,22.5277359 C211.818535,22.5277359 210.070827,23.059647 208.978509,24.1614629 C207.89569,25.2822756 207.354281,26.8590121 207.354281,28.929666 L207.354281,44.6115454 L196.336122,44.6115454 L196.336122,12.6968787 L204.533252,12.6968787 L206.252465,17.7880279 L206.793874,17.7880279 C207.705722,16.0973105 208.997506,14.7200406 210.631233,13.6847137 C212.26496,12.6493867 213.927182,12.126974 215.598903,12.126974" id="Fill-12"></path>
                        <path d="M247.062395,12.6930794 C247.062395,11.7717333 246.796439,11.1068444 246.25503,10.7079111 C245.71362,10.289981 245.05823,10.1095111 244.241366,10.1095111 C243.4435,10.1095111 242.778611,10.337473 242.170712,10.8028952 C241.581811,11.2683175 241.28736,12.0281905 241.28736,13.0445206 C241.28736,14.4692825 242.113722,15.9320381 243.756947,17.4232889 C244.830268,16.8248889 245.666128,16.0935111 246.217036,15.2671492 C246.777443,14.4407873 247.062395,13.5669333 247.062395,12.6930794 L247.062395,12.6930794 Z M238.751284,32.3927873 C238.751284,33.5610921 239.169214,34.5394286 240.024071,35.2803048 C240.86943,36.0401778 241.980744,36.4106159 243.367512,36.4106159 C244.450331,36.4106159 245.381176,36.2681397 246.188541,35.9926857 C246.986408,35.7077333 247.622801,35.3942857 248.05023,35.033346 L241.059398,27.9285333 C239.520655,29.0873397 238.751284,30.5595937 238.751284,32.3927873 L238.751284,32.3927873 Z M257.529646,44.607746 L254.737112,41.7487238 C253.036897,42.812546 251.650128,43.5534222 250.557811,43.9428571 C249.493989,44.3512889 248.278192,44.6552381 246.929417,44.8737016 C245.599639,45.0731683 244.060897,45.1871492 242.332185,45.1871492 C239.349684,45.1871492 236.73762,44.6552381 234.458001,43.6484063 C232.168884,42.6320762 230.430674,41.2263111 229.214877,39.4026159 C227.989582,37.5789206 227.400681,35.4987683 227.400681,33.1811556 C227.400681,28.2514794 229.946255,24.4806095 235.056401,21.8780444 C233.878598,20.5577651 232.995246,19.1709968 232.330357,17.6892444 C231.693963,16.2264889 231.371017,14.5452698 231.371017,12.6930794 C231.371017,9.69158095 232.529823,7.29798095 234.837938,5.5407746 C237.165049,3.77406984 240.356516,2.89071746 244.421836,2.89071746 C248.382674,2.89071746 251.46016,3.77406984 253.67329,5.52177778 C255.876922,7.26948571 256.988236,9.67258413 256.988236,12.6930794 C256.988236,14.7732317 256.380338,16.7014095 255.193036,18.4776127 C253.996236,20.2538159 252.11555,21.9255365 249.541481,23.4927746 L255.145544,28.8023873 C256.551309,26.6462476 257.548643,24.1956571 258.080554,21.4886095 L269.507144,21.4886095 C268.956236,24.0626794 268.063385,26.6747429 266.866585,29.2678095 C265.64129,31.879873 264.273519,34.1025016 262.744274,35.9641905 L271.767766,44.607746 L257.529646,44.607746 Z" id="Fill-13"></path>
                        <path d="M291.641295,21.2539987 L293.730946,21.2539987 C297.615797,21.2539987 299.562971,19.534786 299.562971,16.0963606 C299.562971,13.2563352 297.65379,11.8505702 293.835429,11.8505702 L291.641295,11.8505702 L291.641295,21.2539987 Z M291.641295,29.6221003 L291.641295,44.6105956 L280.509156,44.6105956 L280.509156,3.40648127 L294.015898,3.40648127 C305.205029,3.40648127 310.809092,7.46230349 310.809092,15.5834463 C310.809092,20.3516495 308.472483,24.0465321 303.81826,26.6585956 L315.824254,44.6105956 L303.191365,44.6105956 L294.462324,29.6221003 L291.641295,29.6221003 Z" id="Fill-14"></path>
                        <path d="M330.099418,19.6221714 C328.798136,19.6221714 327.724815,20.0401016 326.86046,20.8474667 C325.967609,21.6548317 325.464193,22.9466159 325.312218,24.6848254 L334.782136,24.6848254 C334.744142,23.155581 334.307215,21.9207873 333.471355,21.0089397 C332.625996,20.0875937 331.505183,19.6221714 330.099418,19.6221714 M330.74531,45.1824 C325.435698,45.1824 321.303888,43.7671365 318.368879,40.9366095 C315.424371,38.0965841 313.952117,34.0787556 313.952117,28.864127 C313.952117,23.4690286 315.319888,19.337219 318.036434,16.4592 C320.771977,13.5621841 324.666326,12.1279238 329.709983,12.1279238 C334.51618,12.1279238 338.23006,13.3817143 340.851622,15.8892952 C343.473183,18.3873778 344.783964,22.006273 344.783964,26.7174857 L344.783964,31.6186667 L325.093755,31.6186667 C325.160244,33.4043683 325.825133,34.8101333 327.04093,35.8264635 C328.285222,36.8427937 329.956942,37.3367111 332.075088,37.3367111 C334.012764,37.3367111 335.798466,37.1657397 337.422695,36.7953016 C339.037425,36.4343619 340.80413,35.8074667 342.694314,34.9241143 L342.694314,42.8267937 C340.975101,43.7196444 339.179901,44.3465397 337.346707,44.6599873 C335.504015,44.9924317 333.300383,45.1824 330.74531,45.1824" id="Fill-15"></path>
                        <path d="M360.690956,37.3937016 C362.049229,37.3937016 363.17954,36.9757714 364.119883,36.1209143 C365.079223,35.2755556 365.544645,34.1832381 365.544645,32.8344635 L365.544645,30.3648762 L362.99907,30.4693587 C359.380175,30.6023365 357.575477,31.9321143 357.575477,34.4681905 C357.575477,36.4153651 358.620302,37.3937016 360.690956,37.3937016 L360.690956,37.3937016 Z M368.878588,44.6124952 L366.760442,40.3762032 L366.53248,40.3762032 C365.041229,42.2283937 363.530982,43.4916825 362.001737,44.1660698 C360.462994,44.8309587 358.468328,45.1824 356.027236,45.1824 C353.016239,45.1824 350.651134,44.2895492 348.931921,42.4848508 C347.193712,40.6611556 346.329356,38.115581 346.329356,34.8576254 C346.329356,31.4571937 347.507159,28.9306159 349.881763,27.2873905 C352.246867,25.6061714 355.675794,24.6658286 360.159045,24.4663619 L365.487655,24.2953905 L365.487655,23.8489651 C365.487655,21.2179048 364.19587,19.8976254 361.602804,19.8976254 C359.275693,19.8976254 356.321686,20.6954921 352.731286,22.2722286 L349.53982,14.9964444 C353.263197,13.0777651 357.955413,12.1279238 363.635464,12.1279238 C367.72928,12.1279238 370.892251,13.144254 373.143375,15.1674159 C375.394499,17.1905778 376.515312,20.0401016 376.515312,23.6779937 L376.515312,44.6124952 L368.878588,44.6124952 Z" id="Fill-16"></path>
                        <path d="M395.483642,45.1861994 C390.259515,45.1861994 386.289178,43.7804343 383.610626,40.9404089 C380.913077,38.1193803 379.554804,34.0825549 379.554804,28.8014375 C379.554804,23.52032 381.027058,19.3980089 383.924074,16.4914946 C386.840086,13.5754819 390.971896,12.1317232 396.347997,12.1317232 C400.04288,12.1317232 403.538296,12.9295898 406.80575,14.54432 L403.57629,22.6844597 C402.227515,22.1050565 400.992721,21.6491327 399.871909,21.2976914 C398.751096,20.9367517 397.573293,20.7752787 396.347997,20.7752787 C394.562296,20.7752787 393.194524,21.4781613 392.216188,22.8649295 C391.237851,24.2611962 390.743934,26.2178692 390.743934,28.7539454 C390.743934,33.854593 392.62462,36.409666 396.404988,36.409666 C399.634448,36.409666 402.740429,35.4788216 405.694436,33.579139 L405.694436,42.3651708 C402.863909,44.2458565 399.463477,45.1861994 395.483642,45.1861994" id="Fill-17"></path>
                        <path d="M425.435937,36.4666565 C426.917689,36.4666565 428.693892,36.1057168 430.764546,35.3648406 L430.764546,43.4004978 C429.273295,44.0463898 427.86753,44.5023137 426.509257,44.7587708 C425.179479,45.0342248 423.612241,45.1861994 421.807543,45.1861994 C418.11266,45.1861994 415.42461,44.2838502 413.790883,42.4601549 C412.176152,40.6459581 411.34979,37.8534248 411.34979,34.1015517 L411.34979,20.9367517 L407.474438,20.9367517 L407.474438,16.4629994 L412.385117,12.9865803 L415.234641,6.29969778 L422.443937,6.29969778 L422.443937,12.6921295 L430.280127,12.6921295 L430.280127,20.9367517 L422.443937,20.9367517 L422.443937,33.370174 C422.443937,35.4408279 423.44127,36.4666565 425.435937,36.4666565" id="Fill-18"></path>
                        <path d="M21.3307175,78.3005156 L13.7224889,78.3005156 L13.7224889,104.440147 L7.08309841,104.440147 L7.08309841,78.3005156 L1.94445714,78.3005156 L1.94445714,75.2135314 L7.08309841,73.1903695 L7.08309841,71.1482108 C7.08309841,67.4723251 7.93795556,64.7272838 9.66666667,62.960579 C11.3953778,61.1938743 14.0359365,60.3010235 17.5883429,60.3010235 C19.915454,60.3010235 22.2140698,60.6999568 24.4651937,61.4503314 L22.7174857,66.4749917 C21.0837587,65.9335822 19.526019,65.6771251 18.0347683,65.6771251 C16.534019,65.6771251 15.4322032,66.1520457 14.7578159,67.0638933 C14.0644317,68.0137346 13.7224889,69.4005029 13.7224889,71.2526933 L13.7224889,73.2948521 L21.3307175,73.2948521 L21.3307175,78.3005156 Z" id="Fill-19"></path>
                        <path d="M40.6941816,72.7163987 C42.0334578,72.7163987 43.1352737,72.8113829 43.9996292,73.0108495 L43.3442387,79.1943162 C42.4038959,78.9473575 41.4255594,78.8428749 40.4187276,78.8428749 C37.7686705,78.8428749 35.6220292,79.7167289 33.9788038,81.4359416 C32.32608,83.1551543 31.5092165,85.4157765 31.5092165,88.1798146 L31.5092165,104.441097 L24.8888229,104.441097 L24.8888229,73.2958019 L30.0749562,73.2958019 L30.9488102,78.7858844 L31.2812546,78.7858844 C32.3165816,76.9241956 33.6653562,75.4519416 35.3275784,74.378621 C36.9898006,73.2768051 38.7755022,72.7163987 40.6941816,72.7163987" id="Fill-20"></path>
                        <path d="M56.7920914,99.9502476 C59.1856914,99.9502476 61.1138692,99.2853587 62.5766248,97.9270857 C64.0298819,96.5878095 64.7517613,94.7071238 64.7517613,92.2850286 L64.7517613,89.5874794 L60.7529295,89.7489524 C57.6469486,89.8629333 55.3768279,90.385346 53.9615644,91.3066921 C52.5368025,92.2375365 51.8244216,93.6622984 51.8244216,95.5714794 C51.8244216,96.967746 52.2423517,98.0600635 53.0592152,98.8104381 C53.8855771,99.5703111 55.1298692,99.9502476 56.7920914,99.9502476 L56.7920914,99.9502476 Z M66.6514438,104.442997 L65.321666,100.121219 L65.1032025,100.121219 C63.5929549,102.0304 62.0827073,103.303187 60.5629613,103.987073 C59.0432152,104.66146 57.0865422,105.0224 54.6929422,105.0224 C51.6439517,105.0224 49.2503517,104.18654 47.531139,102.533816 C45.8119263,100.89059 44.9475708,98.5634794 44.9475708,95.5144889 C44.9475708,92.3040254 46.1443708,89.8819302 48.5379708,88.2482032 C50.912574,86.6239746 54.550466,85.7216254 59.4326502,85.5886476 L64.8087517,85.4176762 L64.8087517,83.755454 C64.8087517,81.7512889 64.3528279,80.2695365 63.4219835,79.2817016 C62.491139,78.3033651 61.0568787,77.7999492 59.1002057,77.7999492 C57.5044724,77.7999492 55.9657295,78.0374095 54.502974,78.5028317 C53.03072,78.968254 51.6344533,79.5286603 50.2761803,80.165054 L48.1390375,75.4348444 C49.8202565,74.5514921 51.672447,73.8771048 53.6861105,73.4306794 C55.6902756,72.9557587 57.5899581,72.7182984 59.3661613,72.7182984 C63.3364978,72.7182984 66.3284978,73.5921524 68.3516597,75.3113651 C70.3748216,77.059073 71.3816533,79.7661206 71.3816533,83.4705016 L71.3816533,104.442997 L66.6514438,104.442997 Z" id="Fill-21"></path>
                        <path d="M104.581455,104.439197 L97.9325663,104.439197 L97.9325663,85.233407 C97.9325663,82.8588038 97.4766425,81.0826006 96.5742933,79.895299 C95.6814425,78.7269943 94.2756775,78.1285943 92.3569981,78.1285943 C89.8019251,78.1285943 87.9307378,78.9644546 86.7244394,80.6266768 C85.5466362,82.2983975 84.9387378,85.071934 84.9387378,88.9377879 L84.9387378,104.439197 L78.3278425,104.439197 L78.3278425,73.2939022 L83.5044775,73.2939022 L84.4353219,77.3687213 L84.7772648,77.3687213 C85.6321219,75.8964673 86.8954108,74.737661 88.5386362,73.9492927 C90.1723632,73.1324292 91.98656,72.714499 93.9527314,72.714499 C98.7399314,72.714499 101.9219,74.3767213 103.479639,77.6346768 L103.935563,77.6346768 C104.856909,76.095934 106.148693,74.899134 107.820414,74.02528 C109.501633,73.1704229 111.410814,72.714499 113.566954,72.714499 C117.290331,72.714499 119.997379,73.6738387 121.697595,75.5355276 C123.397811,77.4352102 124.252668,80.284734 124.252668,84.1315911 L124.252668,104.439197 L117.632274,104.439197 L117.632274,85.233407 C117.632274,82.8588038 117.17635,81.0826006 116.255004,79.895299 C115.343157,78.7269943 113.927893,78.1285943 112.028211,78.1285943 C109.454141,78.1285943 107.563957,78.9454578 106.376655,80.5411911 C105.170357,82.1464229 104.581455,84.6160102 104.581455,87.9404546 L104.581455,104.439197 Z" id="Fill-22"></path>
                        <path d="M143.771906,77.753407 C141.663258,77.753407 139.982039,78.399299 138.709252,79.7480737 C137.436465,81.0873498 136.68609,83.0345244 136.439131,85.5895975 L150.591766,85.5895975 C150.553773,83.0155276 149.926877,81.068353 148.730077,79.7385752 C147.523779,78.399299 145.880554,77.753407 143.771906,77.753407 M144.968706,105.02335 C140.124516,105.02335 136.334649,103.617585 133.608604,100.777559 C130.873062,97.9470324 129.50529,94.0526832 129.50529,89.1040102 C129.50529,84.0033625 130.778077,80.0140292 133.304655,77.0980165 C135.840731,74.1915022 139.336147,72.7192483 143.771906,72.7192483 C147.884719,72.7192483 151.123677,73.9920356 153.517277,76.4806197 C155.901379,78.9692038 157.088681,82.4076292 157.088681,86.7958959 L157.088681,90.367299 L136.32515,90.367299 C136.420135,93.3877943 137.236998,95.7244038 138.775741,97.3296356 C140.323982,98.9633625 142.48962,99.780226 145.291652,99.780226 C147.134344,99.780226 148.844058,99.6092546 150.430293,99.2673117 C152.016528,98.9063721 153.716744,98.3364673 155.540439,97.5196038 L155.540439,102.905204 C153.925709,103.674575 152.291982,104.225483 150.648757,104.538931 C148.986535,104.861877 147.105849,105.02335 144.968706,105.02335" id="Fill-23"></path>
                        <path d="M188.128543,104.439197 L184.110715,89.9256229 C183.607299,88.38688 182.733445,84.8154768 181.451159,79.1924165 L181.204201,79.1924165 C180.111883,84.2550705 179.247528,87.8454705 178.611134,89.9731149 L174.469826,104.439197 L167.14655,104.439197 L158.398512,73.2939022 L165.161382,73.2939022 L169.131718,88.6433371 C170.034067,92.4427022 170.679959,95.7006578 171.059896,98.4077054 L171.230867,98.4077054 C171.401839,97.0304356 171.69629,95.4631975 172.095223,93.6774959 C172.465661,91.9107911 172.798105,90.5620165 173.092556,89.6881625 L177.822766,73.2939022 L185.089051,73.2939022 L189.686283,89.6881625 C189.961737,90.6095086 190.313178,92.0057752 190.740607,93.9244546 C191.158537,95.8146387 191.405496,97.2963911 191.490982,98.3317181 L191.709445,98.3317181 C191.984899,96.0331022 192.649788,92.7846451 193.685115,88.6433371 L197.712442,73.2939022 L204.361331,73.2939022 L195.575299,104.439197 L188.128543,104.439197 Z" id="Fill-24"></path>
                        <path d="M212.394138,88.8285562 C212.394138,96.0188546 215.044196,99.6092546 220.363307,99.6092546 C225.634926,99.6092546 228.246989,96.0188546 228.246989,88.8285562 C228.246989,81.6952483 225.615929,78.1333435 220.306316,78.1333435 C217.53278,78.1333435 215.519116,79.0641879 214.274824,80.8878832 C213.021034,82.7495721 212.394138,85.3901308 212.394138,88.8285562 M235.076348,88.8285562 C235.076348,93.910207 233.765567,97.8805435 231.163002,100.739566 C228.54144,103.598588 224.913046,105.02335 220.249326,105.02335 C217.333313,105.02335 214.768742,104.358461 212.527116,103.038182 C210.304488,101.727401 208.575777,99.8467149 207.369478,97.3771276 C206.172678,94.9360356 205.574278,92.0675149 205.574278,88.8285562 C205.574278,83.7659022 206.866062,79.824061 209.459129,76.9840356 C212.042697,74.1535086 215.699586,72.7192483 220.410799,72.7192483 C224.922545,72.7192483 228.493948,74.1915022 231.134507,77.0790197 C233.765567,79.9950324 235.076348,83.8893816 235.076348,88.8285562" id="Fill-25"></path>
                        <path d="M256.347093,72.7163987 C257.68637,72.7163987 258.788185,72.8113829 259.643043,73.0108495 L258.99715,79.1943162 C258.066306,78.9473575 257.078471,78.8428749 256.071639,78.8428749 C253.421582,78.8428749 251.274941,79.7167289 249.631716,81.4359416 C247.978992,83.1551543 247.162128,85.4157765 247.162128,88.1798146 L247.162128,104.441097 L240.541735,104.441097 L240.541735,73.2958019 L245.727868,73.2958019 L246.601722,78.7858844 L246.943665,78.7858844 C247.969493,76.9241956 249.318268,75.4519416 250.989989,74.378621 C252.633214,73.2768051 254.437912,72.7163987 256.347093,72.7163987" id="Fill-26"></path>
                        <polygon id="Fill-27" points="269.815843 87.9841473 273.567716 83.3299251 282.980643 73.2901029 290.607868 73.2901029 278.079462 86.6733663 291.405735 104.435398 283.626535 104.435398 273.615208 90.786179 269.996312 93.7686806 269.996312 104.435398 263.413912 104.435398 263.413912 60.6192203 269.996312 60.6192203 269.996312 82.0096457 269.644871 87.9841473"></polygon>
                        <path d="M316.603124,95.5714794 C316.603124,98.6299683 315.501308,100.966578 313.278679,102.57181 C311.065549,104.205537 307.893079,105.0224 303.742273,105.0224 C299.600965,105.0224 296.267022,104.386006 293.759441,103.132216 L293.759441,97.3951746 C297.406832,99.1048889 300.82626,99.9502476 303.979733,99.9502476 C308.054552,99.9502476 310.087213,98.7249524 310.087213,96.2553651 C310.087213,95.4574984 309.878248,94.8116063 309.412825,94.2891937 C308.9664,93.7572825 308.225524,93.215873 307.190197,92.6459683 C306.164368,92.0855619 304.711111,91.4301714 302.887416,90.7367873 C299.297016,89.3595175 296.874921,87.9537524 295.592635,86.5669841 C294.329346,85.1707175 293.692952,83.3850159 293.692952,81.1528889 C293.692952,78.4838349 294.766273,76.4036825 296.931911,74.940927 C299.069054,73.468673 302.004063,72.7182984 305.708444,72.7182984 C309.365333,72.7182984 312.822756,73.468673 316.09021,74.940927 L313.953067,79.9560889 C310.58113,78.5598222 307.760102,77.8569397 305.470984,77.8569397 C301.975568,77.8569397 300.22786,78.854273 300.22786,80.8394413 C300.22786,81.8272762 300.683784,82.6536381 301.595632,83.3280254 C302.516978,84.0024127 304.502146,84.9332571 307.560635,86.1205587 C310.125206,87.1083937 311.996394,88.0012444 313.174197,88.8466032 C314.323505,89.6729651 315.206857,90.6228063 315.757765,91.696127 C316.318171,92.7884444 316.603124,94.0707302 316.603124,95.5714794" id="Fill-28"></path>
                        <path d="M17.9872762,159.510044 C20.7133206,159.510044 22.6794921,158.750171 23.9237841,157.211429 C25.1680762,155.691683 25.8044698,153.203098 25.8424635,149.755175 L25.8424635,148.843327 C25.8424635,144.901486 25.2060698,142.118451 23.9237841,140.456229 C22.6509968,138.803505 20.6468317,137.986641 17.9302857,137.986641 C15.5936762,137.986641 13.7984762,138.917486 12.5446857,140.80767 C11.2813968,142.688356 10.6545016,145.395403 10.6545016,148.890819 C10.6545016,152.35774 11.2624,154.979302 12.4876952,156.784 C13.7034921,158.588698 15.5366857,159.510044 17.9872762,159.510044 M16.2015746,164.857651 C12.3167238,164.857651 9.28673016,163.451886 7.10209524,160.630857 C4.92695873,157.819327 3.84413968,153.877486 3.84413968,148.776838 C3.84413968,143.657194 4.93645714,139.705854 7.14008889,136.837333 C9.36271746,133.98781 12.4117079,132.572546 16.3155556,132.572546 C20.4188698,132.572546 23.5343492,134.082794 25.6714921,137.103289 L26.0134349,137.103289 C25.6904889,134.871162 25.5290159,133.123454 25.5290159,131.822171 L25.5290159,120.471568 L32.1779048,120.471568 L32.1779048,164.306743 L27.0012698,164.306743 L25.8424635,160.212927 L25.5290159,160.212927 C23.4013714,163.299911 20.3048889,164.857651 16.2015746,164.857651" id="Fill-29"></path>
                        <path d="M48.9122083,159.788348 C51.3248051,159.788348 53.2529829,159.113961 54.6967416,157.784183 C56.1594971,156.435408 56.8908749,154.554723 56.8908749,152.132627 L56.8908749,149.416081 L52.8825448,149.596551 C49.7670654,149.701034 47.5064432,150.223446 46.0721829,151.144792 C44.6569194,152.085135 43.9635352,153.500399 43.9635352,155.428577 C43.9635352,156.815345 44.3624686,157.898164 45.1983289,158.648538 C46.0246908,159.408411 47.2689829,159.788348 48.9122083,159.788348 L48.9122083,159.788348 Z M58.781059,164.309592 L57.4417829,159.978316 L57.2233194,159.978316 C55.7225702,161.8685 54.221821,163.150786 52.6925765,163.853669 C51.1633321,164.528056 49.206659,164.8605 46.8320559,164.8605 C43.773567,164.8605 41.379967,164.053135 39.6607543,162.371916 C37.9415416,160.738189 37.077186,158.40158 37.077186,155.362088 C37.077186,152.151624 38.273986,149.729529 40.6580876,148.095802 C43.0421892,146.462075 46.6800813,145.569224 51.5717638,145.426748 L56.9478654,145.255777 L56.9478654,143.584056 C56.9478654,141.608386 56.4824432,140.098138 55.5421003,139.119802 C54.6207543,138.131967 53.1769956,137.63805 51.2203225,137.63805 C49.6245892,137.63805 48.0953448,137.87551 46.6325892,138.340932 C45.1698337,138.825351 43.7640686,139.385757 42.4057956,140.012653 L40.2686527,135.282443 C41.9593702,134.399091 43.8020622,133.734202 45.8157257,133.26878 C47.8198908,132.793859 49.7195733,132.575396 51.5052749,132.575396 C55.466113,132.575396 58.458113,133.439751 60.4812749,135.177961 C62.4949384,136.897173 63.5112686,139.604221 63.5112686,143.3181 L63.5112686,164.309592 L58.781059,164.309592 Z" id="Fill-30"></path>
                        <path d="M65.3720076,133.138651 L72.5813029,133.138651 L78.9262425,150.796201 C79.8760838,153.31328 80.5219759,155.687883 80.8354235,157.92001 L81.0633854,157.92001 C81.2343568,156.865686 81.538306,155.611896 81.9942298,154.158639 C82.4501537,152.676886 84.8247568,145.657559 89.156033,133.138651 L96.3083378,133.138651 L82.9820648,168.434753 C80.5599695,174.922169 76.5136457,178.161128 70.8620902,178.161128 C69.3993346,178.161128 67.9745727,178.009153 66.5878044,177.686207 L66.5878044,172.443083 C67.5756394,172.661547 68.7154489,172.775528 69.9882362,172.775528 C73.1797029,172.775528 75.4308267,170.942334 76.7226108,167.237953 L77.8719187,164.302943 L65.3720076,133.138651 Z" id="Fill-31"></path>
                    </g>
                </g>
            </g>
        </g>
    </g>
</svg>