<?xml version="1.0" encoding="UTF-8"?>
<svg width="92px" height="92px" viewBox="0 0 92 92" version="1.1" xmlns="http://www.w3.org/2000/svg" xmlns:xlink="http://www.w3.org/1999/xlink">
    <!-- Generator: Sketch 46.2 (44496) - http://www.bohemiancoding.com/sketch -->
    <title>angular-small</title>
    <desc>Created with Sketch.</desc>
    <defs></defs>
    <g id="Large" stroke="none" stroke-width="1" fill="none" fill-rule="evenodd">
        <g id="small" transform="translate(-1161.000000, -56.000000)">
            <g id="Group" transform="translate(1161.000000, 56.000000)">
                <rect id="Rectangle" x="0" y="0" width="92" height="92"></rect>
                <g id="sticker_hexagon_angular-01" transform="translate(16.000000, 15.000000)">
                    <path d="M30.0513637,62.1002675 L30.0513637,36.3043484 L38.3977093,36.3043484 L42.3640775,45.487087 L48.599563,45.487087 L30.0513637,5.60398588 L30.0513637,0.0504588087 L59.3832221,10.1292236 L54.763183,48.400701 L30.0513637,62.1002675 M36.0651362,30.9381305 L30.0513637,30.9381305 L30.0513637,18.3792388 L36.0651362,30.9381305" id="Fill-2" fill="#A61F24"></path>
                    <path d="M29.9879079,62.1086773 L5.3800643,48.5864811 L0.766141407,10.3058294 L29.977969,0.0252294044 L29.9879079,0.028287514 L29.9879079,5.46713547 L29.9099261,5.29970397 L11.8464371,45.487087 L18.5849816,45.36094 L22.208077,36.3043484 L29.9879079,36.3043484 L29.9879079,62.1086773 M29.9879079,30.9381305 L24.5804055,30.9381305 L29.9099261,18.299728 L29.908397,18.2981989 L29.9580913,18.1842843 L29.9879079,18.246211 L29.9879079,30.9381305" id="Fill-3" fill="#C9262B"></path>
                    <path d="M24.649213,31.0581613 L29.9787336,18.4189942 L29.97644,18.4167007 L30.0276633,18.3043151 L36.1347082,31.0581613 L24.649213,31.0581613 Z M29.9787336,5.41973477 L11.9152446,45.6055888 L18.6537891,45.4794417 L22.2768845,36.4228501 L38.4665168,36.4228501 L42.4321205,45.6055888 L48.669135,45.6055888 L29.9787336,5.41973477 L29.9787336,5.41973477 Z" id="Fill-4" fill="#FFFFFE"></path>
                </g>
            </g>
        </g>
    </g>
</svg>