<?xml version="1.0" encoding="UTF-8"?>
<svg width="580px" height="580px" viewBox="0 0 580 580" version="1.1" xmlns="http://www.w3.org/2000/svg" xmlns:xlink="http://www.w3.org/1999/xlink">
    <!-- Generator: Sketch 46.2 (44496) - http://www.bohemiancoding.com/sketch -->
    <title>angular_big</title>
    <desc>Created with Sketch.</desc>
    <defs></defs>
    <g id="Large" stroke="none" stroke-width="1" fill="none" fill-rule="evenodd">
        <g id="big-copy" transform="translate(-58.000000, -1468.000000)">
            <g id="Group-Copy-12" transform="translate(58.000000, 1468.000000)">
                <rect id="Rectangle-11" x="0" y="0" width="580" height="580"></rect>
                <g id="sticker_hexagon_angular-01" transform="translate(136.000000, 126.000000)">
                    <path d="M154.983821,328.535435 L154.983821,192.06463 L199.139353,192.06463 L220.123038,240.645017 L253.111269,240.645017 L154.983821,29.6473431 L154.983821,0.266947428 L310.16117,53.5876738 L285.719302,256.059209 L154.983821,328.535435 M186.799101,163.675175 L154.983821,163.675175 L154.983821,97.2335783 L186.799101,163.675175" id="Fill-2" fill="#FFFFFF" opacity="0.316179801"></path>
                    <path d="M154.648115,328.579927 L24.4627077,257.04206 L0.0531967213,54.5219898 L154.595534,0.133473714 L154.648115,0.149652346 L154.648115,28.9233493 L154.23556,28.0375692 L58.6724251,240.645017 L94.3220407,239.977648 L113.489675,192.06463 L154.648115,192.06463 L154.648115,328.579927 M154.648115,163.675175 L126.040249,163.675175 L154.23556,96.8129339 L154.22747,96.8048445 L154.490373,96.2021905 L154.648115,96.5298078 L154.648115,163.675175" id="Fill-3" fill="#FFFFFF" opacity="0.219542572"></path>
                    <path d="M126.404268,164.310187 L154.599579,97.4439005 L154.587445,97.4317665 L154.858437,96.8372018 L187.167165,164.310187 L126.404268,164.310187 Z M154.599579,28.6725806 L59.0364443,241.271939 L94.6860599,240.60457 L113.853694,192.691552 L199.503372,192.691552 L220.483013,241.271939 L253.479333,241.271939 L154.599579,28.6725806 L154.599579,28.6725806 Z" id="Fill-4" fill="#FFFFFE"></path>
                </g>
            </g>
        </g>
    </g>
</svg>