<?xml version="1.0" encoding="UTF-8"?>
<svg width="92px" height="92px" viewBox="0 0 92 92" version="1.1" xmlns="http://www.w3.org/2000/svg" xmlns:xlink="http://www.w3.org/1999/xlink">
    <!-- Generator: Sketch 46.2 (44496) - http://www.bohemiancoding.com/sketch -->
    <title>docker-small</title>
    <desc>Created with Sketch.</desc>
    <defs></defs>
    <g id="Large" stroke="none" stroke-width="1" fill="none" fill-rule="evenodd">
        <g id="small" transform="translate(-1390.000000, -56.000000)">
            <g id="Group" transform="translate(1390.000000, 56.000000)">
                <rect id="Rectangle" x="0" y="0" width="92" height="92"></rect>
                <g id="docker-official" transform="translate(12.305733, 19.203379)" fill-rule="nonzero">
                    <path d="M9.87176102,44.4759683 L9.87176102,40.2933091 C9.87176102,39.7436991 10.2153311,39.3022218 10.7843691,39.3022218 L10.9418388,39.3022218 C11.5106211,39.3022218 11.8526574,39.7442104 11.8526574,40.2933091 L11.8526574,49.0990825 C11.8526574,51.2463956 10.7917825,52.9550434 8.94304808,54.0435267 C8.0961764,54.5452642 7.12949097,54.8089057 6.14515015,54.8065897 L5.75224296,54.8065897 C3.60441853,54.8065897 1.89807146,53.7449479 0.807798763,51.8974917 C0.305352748,51.0507456 0.0417424395,50.0836739 0.0449913235,49.0990825 L0.0449913235,48.7066866 C0.0449913235,46.5586065 1.10637755,44.8509813 2.95357814,43.7604529 C3.80029266,43.257683 4.76751388,42.9939677 5.75224296,42.9973899 L6.14515015,42.9973899 C7.59867665,42.9973899 8.83184793,43.5608039 9.87176102,44.4759683 Z M2.02563209,48.9025011 C2.02563209,50.4536792 2.77744733,51.6198747 4.13664544,52.3637654 C4.68625536,52.6643892 5.28290166,52.825949 5.90996823,52.825949 C7.43251552,52.825949 8.56189999,52.1076216 9.34081228,50.8174443 C9.70304356,50.2172191 9.87176102,49.5604992 9.87176102,48.8623668 C9.87176102,47.5177397 9.23523605,46.4683682 8.1516098,45.6889447 C7.49463422,45.2165358 6.75508934,44.9795644 5.94856874,44.9795644 C4.28900242,44.9795644 3.09468729,45.8180391 2.3778937,47.3073541 C2.13606534,47.8109502 2.02563209,48.3454778 2.02563209,48.9025011 Z M18.7245708,42.9973899 L18.9991201,42.9973899 C21.2941889,42.9973899 23.0396478,44.1106695 24.1457697,46.1140615 C24.5880139,46.9154695 24.8247296,47.790244 24.8247296,48.7066866 L24.8247296,49.0990825 C24.8247296,51.2463956 23.7658997,52.9573441 21.9143534,54.0437823 C21.0572176,54.5466115 20.1103547,54.8065897 19.1169667,54.8065897 L18.7245708,54.8065897 C16.5767464,54.8065897 14.8698881,53.7449479 13.7801266,51.8974917 C13.2774358,51.0508123 13.0135609,50.0837423 13.0165523,49.0990825 L13.0165523,48.7066866 C13.0165523,46.5583509 14.0822843,44.8563495 15.9248835,43.7609642 C16.781508,43.2519998 17.7291378,42.9973899 18.7245708,42.9973899 Z M14.9974487,48.9025011 C14.9974487,50.4081766 15.7362267,51.5158323 17.0079984,52.2947446 C17.605156,52.6602991 18.2628985,52.825949 18.9605196,52.825949 C20.4483009,52.825949 21.548032,52.0715774 22.3133958,50.8159105 C22.678439,50.2172191 22.8435776,49.5594766 22.8435776,48.8623668 C22.8435776,47.4622674 22.169219,46.392701 21.0163164,45.6176232 C20.3846484,45.1925063 19.6814033,44.9795644 18.920641,44.9795644 C17.2610746,44.9795644 16.0667595,45.8180391 15.3502216,47.3073541 C15.1078819,47.8109502 14.9974487,48.3454778 14.9974487,48.9025011 L14.9974487,48.9025011 Z M33.05942,45.1378009 C32.76033,44.9977143 32.2004947,44.9511892 31.8773752,44.9389188 C30.2224103,44.8765445 29.0250276,45.8085807 28.3225494,47.268498 C28.0799542,47.7720941 27.9692653,48.3050879 27.9692653,48.8623668 C27.9692653,50.5589998 28.8601446,51.7469241 30.3745116,52.471131 C30.9277004,52.7354551 31.6419377,52.785559 32.2465086,52.785559 C32.7782242,52.785559 33.5297838,52.4598832 34.0016815,52.2356935 L34.0834839,52.1968373 L34.4498053,52.1968373 L34.4901952,52.2050176 C34.9406197,52.2988347 35.280611,52.5843762 35.280611,53.0690555 L35.280611,53.2651256 C35.280611,54.4711999 33.0765474,54.747283 32.2355164,54.8060785 C29.2676228,55.0113514 27.0479657,53.3814384 26.201822,50.5505639 C26.0548333,50.0589826 25.9886245,49.5707245 25.9886245,49.0584369 L25.9886245,48.6665522 C25.9886245,46.5184722 27.0546121,44.8169821 28.8969557,43.7226193 C29.7535803,43.2139106 30.7009544,42.9582781 31.6961318,42.9582781 L32.0887833,42.9582781 C33.1445456,42.9582781 34.1169717,43.258135 34.9886786,43.8535032 L35.0602557,43.9030959 L35.1055027,43.9777406 C35.1995755,44.1336764 35.280611,44.314153 35.280611,44.4997422 L35.280611,44.6958123 C35.280611,45.2014534 34.9022748,45.4734464 34.4457152,45.561384 L34.4078815,45.5680305 L34.2908019,45.5680305 C33.9952907,45.5680305 33.3232328,45.2620383 33.05942,45.1378009 L33.05942,45.1378009 Z M39.4844878,46.4791048 C40.2539416,45.7086284 41.0259519,44.9396857 41.8069092,44.1819909 C42.0244525,43.9705829 42.8483561,43.075869 43.1727538,43.075869 L43.5275717,43.075869 L43.5679616,43.0843049 C44.0199199,43.178122 44.3583774,43.4641748 44.3583774,43.9498766 L44.3583774,44.1456911 C44.3583774,44.4769909 43.9703272,44.8619735 43.7563628,45.0887195 C43.3013369,45.5710981 42.8222816,46.0376274 42.3565191,46.5100363 L39.9632875,48.9395678 C40.9937422,49.9723232 42.0231743,51.0058454 43.0451931,52.0465254 C43.3286573,52.3337713 43.6099463,52.6231556 43.8890361,52.9146535 C43.9874546,53.0181846 44.1326539,53.1470234 44.2152232,53.2904333 C44.3039277,53.424896 44.3583774,53.5764861 44.3583774,53.7383014 L44.3583774,53.9428075 L44.3468739,53.9900995 C44.2356738,54.4420578 43.9488541,54.8065897 43.44807,54.8065897 L43.2903447,54.8065897 C42.9626238,54.8065897 42.5924679,54.4359226 42.3680226,54.2240032 C41.9053277,53.7878941 41.4587377,53.3292894 41.0052456,52.8837219 L39.4844878,51.390828 L39.4844878,53.776902 C39.4844878,54.3265119 39.1404064,54.7682449 38.5721353,54.7682449 L38.4161995,54.7682449 C37.8471615,54.7682449 37.5035914,54.3265119 37.5035914,53.776902 L37.5035914,40.3316539 C37.5035914,39.782044 37.8474171,39.3423561 38.4161995,39.3423561 L38.5721353,39.3423561 C39.1404064,39.3423561 39.4844878,39.782044 39.4844878,40.3316539 L39.4844878,46.4791048 L39.4844878,46.4791048 Z M64.1727096,43.075869 L64.3695467,43.075869 C64.9636367,43.075869 65.3601227,43.4761896 65.3601227,44.0669563 C65.3601227,44.8870254 64.5760978,45.0968997 63.8979047,45.0968997 C63.0083035,45.0968997 62.1588366,45.6355175 61.5455742,46.2395771 C60.7809774,46.9934374 60.4463544,47.9589614 60.4463544,49.0203477 L60.4463544,53.8157581 C60.4463544,54.365368 60.1030399,54.8065897 59.5337463,54.8065897 L59.3772992,54.8065897 C58.8080056,54.8065897 58.4649467,54.3656236 58.4649467,53.8157581 L58.4649467,48.7450314 C58.4649467,46.7978785 59.4128321,45.2083555 60.9931524,44.0935421 C61.936692,43.4276194 63.0175063,43.0761247 64.1727096,43.0761247 L64.1727096,43.075869 Z M50.0940042,52.5792636 C50.8148879,52.8310616 51.6367465,52.7950174 52.3762914,52.6661787 C52.7546275,52.5053858 53.721941,52.0833365 54.0777814,52.1451996 L54.1332537,52.154658 L54.1843802,52.17971 C54.4016678,52.2850306 54.6089858,52.4340643 54.7199303,52.6551865 C54.9791417,53.1733536 54.8546487,53.6943326 54.3454287,53.9885657 L54.1759443,54.0864729 C52.2970453,55.1708661 50.2985103,55.0205542 48.4254908,54.0077381 C47.5300101,53.5235701 46.8449149,52.8049871 46.3395294,51.9289345 L46.2214272,51.7241728 C45.0150973,49.6351439 45.1779352,47.4377267 46.5384115,45.4512064 C47.0080085,44.7645775 47.6217821,44.23414 48.3393426,43.8192484 L48.6108244,43.6625457 C50.3803127,42.6410381 52.2768503,42.7110814 54.0941419,43.6075847 C55.071425,44.0897076 55.8631189,44.8082906 56.4086387,45.753364 L56.5068016,45.9236153 C56.903032,46.6102443 56.3897219,47.2084244 55.8597957,47.6174364 C55.2447439,48.0918903 54.6238125,48.6629734 54.0343239,49.1716821 C52.7198615,50.3064349 51.4074441,51.4437439 50.0940042,52.5792636 L50.0940042,52.5792636 Z M48.3927698,51.3844372 C49.8626568,50.1241689 51.3330551,48.8626224 52.7991076,47.5969858 C53.3001473,47.1649668 53.8495016,46.7165874 54.3464512,46.2623284 C53.9476645,45.7597549 53.2814861,45.3975236 52.7155157,45.1815141 C51.5728384,44.7461719 50.4462658,44.8923937 49.3984281,45.4972203 C48.0269597,46.2891698 47.4428394,47.550205 47.4939659,49.1195331 C47.5144165,49.7376525 47.6805776,50.3332763 48.0085541,50.8591124 C48.1241,51.0444459 48.2531945,51.2185317 48.3927698,51.3844372 Z M37.7027291,11.6905864 L43.5480223,11.6905864 L43.5480223,17.6659966 L46.5033899,17.6659966 C47.8684675,17.6659966 49.2721457,17.42289 50.5646237,16.9849915 C51.1998705,16.7694933 51.912574,16.469892 52.5391293,16.092834 C51.7139475,15.0155986 51.2926651,13.6553779 51.168939,12.3145854 C51.0002215,10.4906474 51.3683323,8.11684377 52.6025262,6.68939178 L53.2170667,5.97873338 L53.9491983,6.56745507 C55.7925644,8.04833426 57.3429756,10.1179351 57.6162468,12.4771677 C59.8359039,11.8242822 62.4420775,11.9786843 64.3984332,13.1078131 L65.2011193,13.5710192 L64.7788143,14.3956897 C63.124105,17.6248397 59.6646301,18.6253854 56.2826119,18.4482321 C51.2218549,31.053216 40.2038377,37.0207015 26.8447378,37.0207015 C19.9426598,37.0207015 13.6106423,34.4406025 10.0046899,28.3171811 L9.94563882,28.2174844 L9.42031399,27.1484292 C8.20145814,24.45304 7.79653623,21.5002287 8.07108555,18.5497182 L8.15365486,17.6659966 L13.1522931,17.6659966 L13.1522931,11.6905864 L18.9973307,11.6905864 L18.9973307,5.8452932 L30.6881728,5.8452932 L30.6881728,0 L37.7027291,0 L37.7027291,11.6905864 L37.7027291,11.6905864 Z" id="Shape" fill="#364548"></path>
                    <path d="M56.6404974,13.9012964 C57.0323821,10.8551793 54.7529069,8.46271457 53.3392591,7.32668365 C51.710113,9.21018406 51.4570368,14.146448 54.0128508,16.2247404 C52.5864213,17.4916552 49.5809498,18.6399565 46.5033899,18.6399565 L9.04172223,18.6399565 C8.74263218,21.8524903 9.30655752,24.8109255 10.5946898,27.3429656 L11.0208292,28.1226448 C11.2906526,28.5802749 11.5855036,29.0226794 11.9040396,29.4478438 C13.4442255,29.5467736 14.8642641,29.5807727 16.1633886,29.5521418 L16.1638999,29.5521418 C18.7169018,29.4959027 20.8000512,29.1942563 22.3788377,28.6472027 C22.6108637,28.575029 22.8582941,28.7000197 22.9378837,28.9296076 C23.0174732,29.1591955 22.9004949,29.4105132 22.673582,29.4974365 C22.4634521,29.5705474 22.2446306,29.6385456 22.0186515,29.7032207 L22.0178846,29.7032207 C20.7747436,30.0582942 19.44162,30.297055 17.7217244,30.4031425 C17.8239775,30.4049319 17.6153813,30.4184804 17.6148701,30.4184804 C17.5563302,30.4223149 17.482708,30.4307508 17.4239126,30.4338184 C16.7469976,30.4719076 16.0163999,30.4798322 15.2694417,30.4798322 C14.4524401,30.4798322 13.6479646,30.4644943 12.7483938,30.4184804 L12.7253868,30.4338184 C15.8466599,33.9421191 20.727196,36.0462304 26.8449934,36.0462304 C39.7922693,36.0462304 50.7742424,30.306769 55.6373954,17.4216119 C59.0874119,17.7756629 62.4032213,16.8957758 63.9114532,13.9514004 C61.5090188,12.5651053 58.4194441,13.0070939 56.6404974,13.9012964" id="Shape" fill="#22A0C8"></path>
                    <path d="M56.6404974,13.9012964 C57.0323821,10.8551793 54.7529069,8.46271457 53.3392591,7.32668365 C51.710113,9.21018406 51.4570368,14.146448 54.0128508,16.2247404 C52.5864213,17.4916552 49.5809498,18.6399565 46.5033899,18.6399565 L11.2601012,18.6399565 C11.107233,23.5598599 12.9329604,27.2943954 16.163133,29.5521418 L16.1638999,29.5521418 C18.7169018,29.4959027 20.8000512,29.1942563 22.3788377,28.6472027 C22.6108637,28.575029 22.8582941,28.7000197 22.9378837,28.9296076 C23.0174732,29.1591955 22.9004949,29.4105132 22.673582,29.4974365 C22.4634521,29.5705474 22.2446306,29.6385456 22.0186515,29.7032207 L22.0178846,29.7032207 C20.7747436,30.0582942 19.3270967,30.3277309 17.6072011,30.4338184 C17.6066898,30.4338184 17.565533,30.3941954 17.5650217,30.3941954 C21.9713595,32.6544981 28.360383,32.6463179 35.6855329,29.8325707 C43.8990057,26.6770429 51.5421625,20.6655885 56.8749125,13.7898407 C56.7946438,13.8261405 56.7164203,13.8632072 56.6404974,13.9012964" id="Shape" fill="#37B1D9"></path>
                    <path d="M9.11202117,22.5432094 C9.34464677,24.2641275 9.84824283,25.8753793 10.5946898,27.3429656 L11.0208292,28.1226448 C11.2906068,28.5803036 11.5854594,29.0227106 11.9040396,29.4478438 C13.4444811,29.5467736 14.8645198,29.5807727 16.1638999,29.5521418 C18.7169018,29.4959027 20.8000512,29.1942563 22.3788377,28.6472027 C22.6108637,28.575029 22.8582941,28.7000197 22.9378837,28.9296076 C23.0174732,29.1591955 22.9004949,29.4105132 22.673582,29.4974365 C22.4634521,29.5705474 22.2446306,29.6385456 22.0186515,29.7032207 L22.0178846,29.7032207 C20.7747436,30.0582942 19.3347656,30.3123929 17.6148701,30.4187361 C17.5558189,30.4223149 17.452799,30.4230818 17.3932367,30.4264051 C16.716833,30.4642387 15.9936486,30.4875012 15.2464348,30.4875012 C14.4296889,30.4875012 13.5942818,30.4719076 12.6952222,30.4261494 C15.8164953,33.9344501 20.727196,36.0462304 26.8449934,36.0462304 C37.9292195,36.0462304 47.5727007,31.8390304 53.1697747,22.5432094 L9.11202117,22.5432094" id="Shape" fill="#1B81A5"></path>
                    <path d="M11.5972805,22.5432094 C12.25988,25.5647858 13.852215,27.9367999 16.1638999,29.5521418 C18.7169018,29.4959027 20.8000512,29.1942563 22.3788377,28.6472027 C22.6108637,28.575029 22.8582941,28.7000197 22.9378837,28.9296076 C23.0174732,29.1591955 22.9004949,29.4105132 22.673582,29.4974365 C22.4634521,29.5705474 22.2446306,29.6385456 22.0186515,29.7032207 L22.0178846,29.7032207 C20.7747436,30.0582942 19.3043454,30.3123929 17.5841941,30.4187361 C21.9902763,32.6785276 28.3608943,32.6460622 35.6855329,29.8325707 C40.116667,28.1300581 44.3813843,25.5957173 48.2074362,22.5432094 L11.5972805,22.5432094" id="Shape" fill="#1D91B4"></path>
                    <path d="M14.1262531,12.6648019 L19.1923783,12.6648019 L19.1923783,17.7309272 L14.1262531,17.7309272 L14.1262531,12.6648019 Z M14.5483023,13.0871069 L14.9481116,13.0871069 L14.9481116,17.3088779 L14.5483023,17.3088779 L14.5483023,13.0871069 Z M15.2998619,13.0871069 L15.7157761,13.0871069 L15.7157761,17.3088779 L15.3001176,17.3088779 L15.3001176,13.0871069 L15.2998619,13.0871069 Z M16.0672708,13.0871069 L16.4831849,13.0871069 L16.4831849,17.3088779 L16.0672708,17.3088779 L16.0672708,13.0871069 Z M16.8351909,13.0871069 L17.2508493,13.0871069 L17.2508493,17.3088779 L16.8351909,17.3088779 L16.8351909,13.0871069 Z M17.6028553,13.0871069 L18.0185138,13.0871069 L18.0185138,17.3088779 L17.6028553,17.3088779 L17.6028553,13.0871069 Z M18.3702641,13.0871069 L18.770329,13.0871069 L18.770329,17.3088779 L18.3702641,17.3088779 L18.3702641,13.0871069 Z M19.9715463,6.81950873 L25.0379272,6.81950873 L25.0379272,11.8853784 L19.9712906,11.8853784 L19.9712906,6.81950873 L19.9715463,6.81950873 Z M20.3938512,7.24181366 L20.7934048,7.24181366 L20.7934048,11.4633291 L20.3938512,11.4633291 L20.3938512,7.24181366 Z M21.1454108,7.24181366 L21.5610693,7.24181366 L21.5610693,11.4633291 L21.1456664,11.4633291 L21.1456664,7.24181366 L21.1454108,7.24181366 Z M21.9128196,7.24181366 L22.3284781,7.24181366 L22.3284781,11.4633291 L21.9128196,11.4633291 L21.9128196,7.24181366 Z M22.6804841,7.24181366 L23.0961425,7.24181366 L23.0961425,11.4633291 L22.6804841,11.4633291 L22.6804841,7.24181366 Z M23.4481485,7.24181366 L23.8640626,7.24181366 L23.8640626,11.4633291 L23.4481485,11.4633291 L23.4481485,7.24181366 Z M24.2155573,7.24181366 L24.6158779,7.24181366 L24.6158779,11.4633291 L24.2155573,11.4633291 L24.2155573,7.24181366 Z" id="Shape" fill="#23A3C2"></path>
                    <path d="M19.9715463,12.6648019 L25.0379272,12.6648019 L25.0379272,17.7309272 L19.9712906,17.7309272 L19.9712906,12.6648019 L19.9715463,12.6648019 Z M20.3938512,13.0871069 L20.7934048,13.0871069 L20.7934048,17.3088779 L20.3938512,17.3088779 L20.3938512,13.0871069 Z M21.1454108,13.0871069 L21.5610693,13.0871069 L21.5610693,17.3088779 L21.1456664,17.3088779 L21.1456664,13.0871069 L21.1454108,13.0871069 Z M21.9128196,13.0871069 L22.3284781,13.0871069 L22.3284781,17.3088779 L21.9128196,17.3088779 L21.9128196,13.0871069 Z M22.6804841,13.0871069 L23.0961425,13.0871069 L23.0961425,17.3088779 L22.6804841,17.3088779 L22.6804841,13.0871069 Z M23.4481485,13.0871069 L23.8640626,13.0871069 L23.8640626,17.3088779 L23.4481485,17.3088779 L23.4481485,13.0871069 Z M24.2155573,13.0871069 L24.6158779,13.0871069 L24.6158779,17.3088779 L24.2155573,17.3088779 L24.2155573,13.0871069 Z" id="Shape" fill="#34BBDE"></path>
                    <path d="M25.8170951,12.6648019 L30.8832204,12.6648019 L30.8832204,17.7309272 L25.8170951,17.7309272 L25.8170951,12.6648019 Z M26.2391444,13.0871069 L26.638698,13.0871069 L26.638698,17.3088779 L26.2391444,17.3088779 L26.2391444,13.0871069 Z M26.990704,13.0871069 L27.4063625,13.0871069 L27.4063625,17.3088779 L26.990704,17.3088779 L26.990704,13.0871069 Z M27.7583684,13.0871069 L28.1740269,13.0871069 L28.1740269,17.3088779 L27.7583684,17.3088779 L27.7583684,13.0871069 Z M28.5260329,13.0871069 L28.9416914,13.0871069 L28.9416914,17.3088779 L28.5260329,17.3088779 L28.5260329,13.0871069 Z M29.2934417,13.0871069 L29.7096115,13.0871069 L29.7096115,17.3088779 L29.2934417,17.3088779 L29.2934417,13.0871069 Z M30.0611062,13.0871069 L30.4609154,13.0871069 L30.4609154,17.3088779 L30.0611062,17.3088779 L30.0611062,13.0871069 L30.0611062,13.0871069 Z" id="Shape" fill="#23A3C2"></path>
                    <path d="M25.8170951,6.81950873 L30.8832204,6.81950873 L30.8832204,11.8853784 L25.8170951,11.8853784 L25.8170951,6.81950873 Z M26.2391444,7.24181366 L26.638698,7.24181366 L26.638698,11.4633291 L26.2391444,11.4633291 L26.2391444,7.24181366 Z M26.990704,7.24181366 L27.4063625,7.24181366 L27.4063625,11.4633291 L26.990704,11.4633291 L26.990704,7.24181366 Z M27.7583684,7.24181366 L28.1740269,7.24181366 L28.1740269,11.4633291 L27.7583684,11.4633291 L27.7583684,7.24181366 Z M28.5260329,7.24181366 L28.9416914,7.24181366 L28.9416914,11.4633291 L28.5260329,11.4633291 L28.5260329,7.24181366 Z M29.2934417,7.24181366 L29.7096115,7.24181366 L29.7096115,11.4633291 L29.2934417,11.4633291 L29.2934417,7.24181366 Z M30.0611062,7.24181366 L30.4609154,7.24181366 L30.4609154,11.4633291 L30.0611062,11.4633291 L30.0611062,7.24181366 L30.0611062,7.24181366 Z M31.6623883,12.6648019 L36.7285136,12.6648019 L36.7285136,17.7309272 L31.6623883,17.7309272 L31.6623883,12.6648019 Z M32.0846932,13.0871069 L32.4842468,13.0871069 L32.4842468,17.3088779 L32.0846932,17.3088779 L32.0846932,13.0871069 Z M32.8362528,13.0871069 L33.2519113,13.0871069 L33.2519113,17.3088779 L32.8362528,17.3088779 L32.8362528,13.0871069 Z M33.6036616,13.0871069 L34.0193201,13.0871069 L34.0193201,17.3088779 L33.6036616,17.3088779 L33.6036616,13.0871069 Z M34.3713261,13.0871069 L34.7872402,13.0871069 L34.7872402,17.3088779 L34.3713261,17.3088779 L34.3713261,13.0871069 Z M35.1389906,13.0871069 L35.5549047,13.0871069 L35.5549047,17.3088779 L35.1389906,17.3088779 L35.1389906,13.0871069 Z M35.906655,13.0871069 L36.3064643,13.0871069 L36.3064643,17.3088779 L35.906655,17.3088779 L35.906655,13.0871069 Z" id="Shape" fill="#34BBDE"></path>
                    <path d="M31.6623883,6.81950873 L36.7285136,6.81950873 L36.7285136,11.8853784 L31.6623883,11.8853784 L31.6623883,6.81950873 Z M32.0846932,7.24181366 L32.4842468,7.24181366 L32.4842468,11.4633291 L32.0846932,11.4633291 L32.0846932,7.24181366 Z M32.8362528,7.24181366 L33.2519113,7.24181366 L33.2519113,11.4633291 L32.8362528,11.4633291 L32.8362528,7.24181366 Z M33.6036616,7.24181366 L34.0193201,7.24181366 L34.0193201,11.4633291 L33.6036616,11.4633291 L33.6036616,7.24181366 Z M34.3713261,7.24181366 L34.7872402,7.24181366 L34.7872402,11.4633291 L34.3713261,11.4633291 L34.3713261,7.24181366 Z M35.1389906,7.24181366 L35.5549047,7.24181366 L35.5549047,11.4633291 L35.1389906,11.4633291 L35.1389906,7.24181366 Z M35.906655,7.24181366 L36.3064643,7.24181366 L36.3064643,11.4633291 L35.906655,11.4633291 L35.906655,7.24181366 Z" id="Shape" fill="#23A3C2"></path>
                    <path d="M31.6623883,0.973959901 L36.7285136,0.973959901 L36.7285136,6.04059645 L31.6623883,6.04059645 L31.6623883,0.973959901 Z M32.0846932,1.39600919 L32.4842468,1.39600919 L32.4842468,5.61803589 L32.0846932,5.61803589 L32.0846932,1.39575356 L32.0846932,1.39600919 Z M32.8362528,1.39600919 L33.2519113,1.39600919 L33.2519113,5.61803589 L32.8362528,5.61803589 L32.8362528,1.39575356 L32.8362528,1.39600919 Z M33.6036616,1.39600919 L34.0193201,1.39600919 L34.0193201,5.61803589 L33.6036616,5.61803589 L33.6036616,1.39575356 L33.6036616,1.39600919 Z M34.3713261,1.39600919 L34.7872402,1.39600919 L34.7872402,5.61803589 L34.3713261,5.61803589 L34.3713261,1.39575356 L34.3713261,1.39600919 Z M35.1389906,1.39600919 L35.5549047,1.39600919 L35.5549047,5.61803589 L35.1389906,5.61803589 L35.1389906,1.39575356 L35.1389906,1.39600919 Z M35.906655,1.39600919 L36.3064643,1.39600919 L36.3064643,5.61803589 L35.906655,5.61803589 L35.906655,1.39575356 L35.906655,1.39600919 Z" id="Shape" fill="#34BBDE"></path>
                    <path d="M37.5076815,12.6648019 L42.5738068,12.6648019 L42.5738068,17.7309272 L37.5076815,17.7309272 L37.5076815,12.6648019 Z M37.9294751,13.0871069 L38.32954,13.0871069 L38.32954,17.3088779 L37.9297308,17.3088779 L37.9297308,13.0871069 L37.9294751,13.0871069 Z M38.6810348,13.0871069 L39.0969489,13.0871069 L39.0969489,17.3088779 L38.6812904,17.3088779 L38.6812904,13.0871069 L38.6810348,13.0871069 Z M39.4489548,13.0871069 L39.864869,13.0871069 L39.864869,17.3088779 L39.4489548,17.3088779 L39.4489548,13.0871069 Z M40.2163637,13.0871069 L40.6322778,13.0871069 L40.6322778,17.3088779 L40.2163637,17.3088779 L40.2163637,13.0871069 Z M40.9842838,13.0871069 L41.3999422,13.0871069 L41.3999422,17.3088779 L40.9842838,17.3088779 L40.9842838,13.0871069 Z M41.7516926,13.0871069 L42.1515018,13.0871069 L42.1515018,17.3088779 L41.7516926,17.3088779 L41.7516926,13.0871069 Z" id="Shape" fill="#23A3C2"></path>
                    <path d="M24.7206872,25.9446557 C25.2245323,25.9379343 25.692998,26.2029144 25.9468278,26.6382023 C26.2006576,27.0734901 26.2005591,27.6117043 25.9465701,28.0468993 C25.6925812,28.4820943 25.2240186,28.746903 24.7201759,28.7399973 C23.9556361,28.7295185 23.341394,28.106686 23.3415338,27.3420743 C23.3416736,26.5774626 23.9561435,25.9548548 24.7206872,25.9446557" id="Shape" fill="#D3ECEC"></path>
                    <path d="M24.7206872,26.3411418 C24.8485035,26.3411418 24.9704402,26.3651712 25.0829185,26.4088844 C24.9233516,26.5015167 24.8456851,26.6896113 24.8934115,26.8678374 C24.9411378,27.0460635 25.1024082,27.1701743 25.2869132,27.1706693 C25.4415709,27.1706693 25.575778,27.0850324 25.64531,26.9582387 C25.8143386,27.3654195 25.6970085,27.8352491 25.356394,28.1151574 C25.0157794,28.3950656 24.5321186,28.4191148 24.1654169,28.1743767 C23.7987152,27.9296385 23.6353562,27.4737657 23.7631581,27.0518255 C23.89096,26.6298852 24.2798166,26.3412735 24.7206872,26.3411418 M0,23.0483393 L65.0142519,23.0483393 C63.5988146,22.6894312 60.5355701,22.2042407 61.0407,20.3488599 C58.4664805,23.32749 52.258956,22.4386557 50.6921843,20.9700469 C48.947748,23.5002976 38.791468,22.5383524 38.0831103,20.56717 C35.8959184,23.1339762 29.1188447,23.1339762 26.9316529,20.56717 C26.2227839,22.5383524 16.0667595,23.5002976 14.3220676,20.9697912 C12.7555515,22.4386557 6.54828263,23.32749 3.97406315,20.3491155 C4.47919301,22.2042407 1.41594853,22.6894312 0,23.0485949" id="Shape" fill="#364548"></path>
                    <path d="M28.4357946,36.0160657 C24.9745303,34.3736268 23.074925,32.1406767 22.0178846,29.7034763 C20.732053,30.070309 19.1867544,30.3049796 17.390936,30.4056988 C16.7145323,30.4435324 16.0028514,30.4629605 15.2564044,30.4629605 C14.3954341,30.4629605 13.4881943,30.4373972 12.5357075,30.3870376 C15.7098965,33.5594372 19.6146833,36.0017503 26.8449934,36.0462304 C27.3787541,36.0462304 27.9084247,36.0360051 28.4357946,36.0160657" id="Shape" fill="#BDD9D7"></path>
                    <path d="M23.3034605,31.9525312 C22.8246608,31.3024577 22.3601765,30.4854562 22.0186515,29.702965 C20.7328199,30.070309 19.18701,30.3049796 17.390936,30.4059544 C18.6246185,31.075456 20.3887385,31.6958761 23.3037161,31.9525312" id="Shape" fill="#D3ECEC"></path>
                </g>
            </g>
        </g>
    </g>
</svg>