<?xml version="1.0" encoding="UTF-8"?>
<svg width="580px" height="580px" viewBox="0 0 580 580" version="1.1" xmlns="http://www.w3.org/2000/svg" xmlns:xlink="http://www.w3.org/1999/xlink">
    <!-- Generator: Sketch 46.2 (44496) - http://www.bohemiancoding.com/sketch -->
    <title>docker_big</title>
    <desc>Created with Sketch.</desc>
    <defs></defs>
    <g id="Large" stroke="none" stroke-width="1" fill="none" fill-rule="evenodd">
        <g id="big-copy" transform="translate(-2114.000000, -1468.000000)">
            <g id="Group-Copy-14" transform="translate(2114.000000, 1468.000000)">
                <rect id="Rectangle-11" x="0" y="0" width="580" height="580"></rect>
                <g id="Group-5" transform="translate(114.000000, 114.000000)" fill-rule="nonzero" fill="#FFFFFF">
                    <path d="M207.635155,96.8840091 L238.663367,96.8840091 L238.663367,68.3887123 L207.001926,68.3887123 L207.635155,96.8840091 Z M170.274655,96.8840091 L201.302867,96.8840091 L201.302867,68.3887123 L170.274655,68.3887123 L170.274655,96.8840091 Z M132.914154,96.8840091 L164.575595,96.8840091 L164.575595,68.3887123 L132.914154,68.3887123 L132.914154,96.8840091 Z M95.5536541,96.8840091 L127.215095,96.8840091 L127.215095,68.3887123 L95.5536541,68.3887123 L95.5536541,96.8840091 Z M58.1931539,96.8840091 L89.8545948,96.8840091 L89.8545948,68.3887123 L58.8263827,68.3887123 L58.1931539,96.8840091 Z M95.5536541,62.689653 L127.215095,62.689653 L127.215095,34.1943562 L95.5536541,34.1943562 L95.5536541,62.689653 Z M132.914154,62.689653 L164.575595,62.689653 L164.575595,34.1943562 L132.914154,34.1943562 L132.914154,62.689653 Z M170.274655,62.689653 L201.302867,62.689653 L201.302867,34.1943562 L170.274655,34.1943562 L170.274655,62.689653 Z M170.274655,28.4952968 L201.302867,28.4952968 L201.302867,0 L170.274655,0 L170.274655,28.4952968 Z M333.014461,80.4200599 C326.048944,75.9874581 310.218223,74.0877717 298.186876,76.6206869 C296.287189,65.2225682 289.954901,55.0909071 278.556782,46.2257037 L272.224494,41.793102 L267.791893,48.758619 C262.092833,56.9905936 258.926689,69.0219411 260.193147,80.4200599 C260.826376,84.2194328 262.092833,91.1849498 265.892206,97.5172379 C262.092833,100.050153 253.860859,102.583068 243.095969,102.583068 L36.0301452,102.583068 L35.3969164,105.115984 C33.49723,116.514102 33.49723,152.608145 56.2934674,179.836984 C74.0238743,200.733535 100.619485,211.498425 134.813841,211.498425 C209.534841,211.498425 264.625748,177.304069 290.58813,114.614416 C300.719791,114.614416 322.8828,114.614416 333.64769,93.0846362 L336.813834,87.3855768 L338.080291,84.8526616 L333.014461,80.4200599 Z" id="Shape"></path>
                    <path d="M54.4323696,253.288439 L54.4323696,230.119953 C54.4323696,227.075567 56.3354648,224.630147 59.4874663,224.630147 L60.3597183,224.630147 C63.5103038,224.630147 65.404903,227.078399 65.404903,230.119953 L65.404903,278.896681 C65.404903,290.791026 59.5285301,300.255526 49.2880653,306.284827 C44.5970942,309.064039 39.2424536,310.524396 33.7900167,310.511567 L31.6136347,310.511567 C19.7164575,310.511567 10.2647011,304.630946 4.22548889,294.397561 C1.44235207,289.707286 -0.0178317839,284.350506 0.000164355875,278.896681 L0.000164355875,276.723131 C0.000164355875,264.824538 5.87936927,255.365701 16.1113381,249.325073 C20.8014388,246.540142 26.1590472,245.079376 31.6136347,245.098332 L33.7900167,245.098332 C41.8413556,245.098332 48.6721081,248.219182 54.4323696,253.288439 Z M10.9712818,277.807782 C10.9712818,286.40003 15.1357186,292.859792 22.6645559,296.980333 C25.7089419,298.645542 29.0138707,299.54045 32.4873027,299.54045 C40.9209598,299.54045 47.176819,295.561508 51.4913511,288.414989 C53.4978139,285.090236 54.4323696,281.452549 54.4323696,277.585471 C54.4323696,270.137345 50.9065458,264.324692 44.9041495,260.007328 C41.2650462,257.390572 37.1685771,256.077946 32.7011177,256.077946 C23.5084881,256.077946 16.8929665,260.722404 12.9225208,268.971982 C11.582991,271.76149 10.9712818,274.722332 10.9712818,277.807782 Z M103.46964,245.098332 L104.990417,245.098332 C117.703206,245.098332 127.37161,251.264984 133.498613,262.362125 C135.948282,266.801264 137.259492,271.646794 137.259492,276.723131 L137.259492,278.896681 C137.259492,290.791026 131.394447,300.26827 121.138406,306.286243 C116.39058,309.071502 111.14574,310.511567 105.64319,310.511567 L103.46964,310.511567 C91.5724625,310.511567 82.117874,304.630946 76.0814938,294.397561 C73.297001,289.707656 71.8353517,284.350885 71.8519213,278.896681 L71.8519213,276.723131 C71.8519213,264.823122 77.7551981,255.395437 87.9616791,249.327905 C92.7066733,246.508662 97.9557611,245.098332 103.46964,245.098332 Z M82.8244548,277.807782 C82.8244548,286.147983 86.9166759,292.283483 93.9612435,296.598015 C97.2690042,298.622886 100.912355,299.54045 104.776602,299.54045 C113.017684,299.54045 119.109288,295.361853 123.348772,288.406493 C125.370811,285.090236 126.285543,281.446885 126.285543,277.585471 C126.285543,269.830074 122.550152,263.905558 116.164021,259.612266 C112.665101,257.257468 108.769703,256.077946 104.555707,256.077946 C95.363077,256.077946 88.7475555,260.722404 84.7785258,268.971982 C83.436164,271.76149 82.8244548,274.722332 82.8244548,277.807782 L82.8244548,277.807782 Z M182.87289,256.954446 C181.216177,256.178481 178.115152,255.920771 176.325336,255.852803 C167.158194,255.5073 160.525681,260.670013 156.634531,268.756751 C155.290753,271.546259 154.677628,274.498605 154.677628,277.585471 C154.677628,286.983419 159.612365,293.563541 168.00071,297.575051 C171.06492,299.039188 175.021206,299.316723 178.370031,299.316723 C181.315297,299.316723 185.478318,297.512747 188.092242,296.270921 L188.54536,296.05569 L190.574478,296.05569 L190.798205,296.101001 C193.293186,296.620671 195.176457,298.202336 195.176457,300.887059 L195.176457,301.973126 C195.176457,308.653784 182.967761,310.183057 178.309143,310.508735 C161.869459,311.645778 149.574387,302.617403 144.887449,286.936692 C144.073253,284.213736 143.70651,281.509189 143.70651,278.671538 L143.70651,276.50082 C143.70651,264.602227 149.611203,255.177374 159.816268,249.115506 C164.561262,246.297679 169.808934,244.881685 175.321397,244.881685 L177.496363,244.881685 C183.344416,244.881685 188.730855,246.542646 193.559393,249.840495 L193.955871,250.115197 L194.206502,250.528667 C194.727587,251.392423 195.176457,252.392115 195.176457,253.420126 L195.176457,254.506193 C195.176457,257.307028 193.080787,258.813645 190.551822,259.300747 L190.342255,259.337563 L189.69373,259.337563 C188.056842,259.337563 184.334195,257.642619 182.87289,256.954446 L182.87289,256.954446 Z M218.46247,264.384164 C222.72461,260.116359 227.000911,255.857051 231.326771,251.660046 C232.531781,250.48902 237.095528,245.533042 238.892424,245.533042 L240.857823,245.533042 L241.08155,245.57977 C243.585026,246.09944 245.459802,247.683936 245.459802,250.374324 L245.459802,251.458975 C245.459802,253.294103 243.310323,255.426589 242.125137,256.682575 C239.604668,259.354555 236.951097,261.938743 234.371157,264.555499 L221.114626,278.013101 C226.822495,283.733714 232.524701,289.458576 238.185843,295.223085 C239.756001,296.814191 241.31411,298.417141 242.860037,300.031799 C243.405195,300.605277 244.209479,301.318937 244.666845,302.11331 C245.158195,302.858122 245.459802,303.697806 245.459802,304.59413 L245.459802,305.726925 L245.396082,305.988884 C244.780125,308.49236 243.19138,310.511567 240.417449,310.511567 L239.543781,310.511567 C237.728477,310.511567 235.678119,308.458377 234.434876,307.284518 C231.871928,304.868833 229.398188,302.328541 226.886215,299.860464 L218.46247,291.591062 L218.46247,304.807945 C218.46247,307.852331 216.556543,310.299168 213.408789,310.299168 L212.545033,310.299168 C209.393032,310.299168 207.489936,307.852331 207.489936,304.807945 L207.489936,230.332352 C207.489936,227.287966 209.394448,224.852458 212.545033,224.852458 L213.408789,224.852458 C216.556543,224.852458 218.46247,227.287966 218.46247,230.332352 L218.46247,264.384164 L218.46247,264.384164 Z M355.214872,245.533042 L356.305187,245.533042 C359.595956,245.533042 361.792162,247.750488 361.792162,251.022849 C361.792162,255.565356 357.44931,256.727887 353.692679,256.727887 C348.765022,256.727887 344.059675,259.711385 340.662707,263.057378 C336.42747,267.233142 334.573935,272.58135 334.573935,278.460555 L334.573935,305.023176 C334.573935,308.067562 332.672256,310.511567 329.518838,310.511567 L328.65225,310.511567 C325.498833,310.511567 323.59857,308.068978 323.59857,305.023176 L323.59857,276.93553 C323.59857,266.149907 328.849073,257.34526 337.602745,251.170112 C342.829177,247.481449 348.815997,245.534458 355.214872,245.534458 L355.214872,245.533042 Z M277.230447,298.174016 C281.223549,299.568769 285.775968,299.369114 289.872437,298.655454 C291.968107,297.764794 297.326227,295.426989 299.297289,295.769659 L299.60456,295.822051 L299.887759,295.960818 C301.091353,296.544207 302.239724,297.369732 302.854265,298.594566 C304.290082,301.464785 303.600494,304.350579 300.779835,305.980388 L299.841031,306.522713 C289.433479,312.529358 278.363242,311.696754 267.988258,306.086587 C263.028033,303.404696 259.23317,299.424338 256.433751,294.571728 L255.779562,293.437518 C249.097489,281.866019 249.999477,269.694139 257.535394,258.690454 C260.136574,254.887095 263.536374,251.948909 267.511068,249.650751 L269.014853,248.782747 C278.81636,243.124438 289.321615,243.51242 299.387913,248.478309 C304.801256,251.148873 309.186588,255.12923 312.208318,260.364158 L312.752059,261.30721 C314.946849,265.110568 312.103534,268.423993 309.16818,270.689583 C305.7613,273.317666 302.321852,276.480996 299.056571,279.298823 C291.775532,285.584418 284.505822,291.884173 277.230447,298.174016 L277.230447,298.174016 Z M267.807011,291.555662 C275.948973,284.574815 284.093768,277.586887 292.21449,270.576303 C294.989837,268.183274 298.032807,265.699621 300.785499,263.183401 C298.576549,260.399558 294.88647,258.393095 291.75146,257.196581 C285.421969,254.785144 279.181686,255.595092 273.377529,258.945333 C265.780724,263.33208 262.545179,270.317176 262.828377,279.00996 C262.941657,282.433832 263.862053,285.733097 265.678772,288.645796 C266.318801,289.672391 267.033878,290.636683 267.807011,291.555662 Z" id="Shape"></path>
                </g>
            </g>
        </g>
    </g>
</svg>