<?xml version="1.0" encoding="UTF-8"?>
<svg width="92px" height="92px" viewBox="0 0 92 92" version="1.1" xmlns="http://www.w3.org/2000/svg" xmlns:xlink="http://www.w3.org/1999/xlink">
    <!-- Generator: Sketch 46.2 (44496) - http://www.bohemiancoding.com/sketch -->
    <title>frontend_small</title>
    <desc>Created with Sketch.</desc>
    <defs>
        <linearGradient x1="50%" y1="15.1785714%" x2="50%" y2="98.3906649%" id="linearGradient-1">
            <stop stop-color="#FB67A6" offset="0%"></stop>
            <stop stop-color="#BC1D61" offset="100%"></stop>
        </linearGradient>
    </defs>
    <g id="Large" stroke="none" stroke-width="1" fill="none" fill-rule="evenodd">
        <g id="small" transform="translate(-184.000000, -56.000000)">
            <g id="Group-2" transform="translate(184.000000, 56.000000)">
                <rect id="Rectangle" x="0" y="0" width="92" height="92"></rect>
                <g id="frontend_small" transform="translate(15.000000, 15.000000)" fill-rule="nonzero">
                    <path d="M9.27119539,53.3525026 L7.60676586,53.3525026 L7.60676586,59.2467919 L6.15193117,59.2467919 L6.15193117,53.3525026 L5.02998236,53.3525026 L5.02998236,52.6538261 L6.15193117,52.1965106 L6.15193117,51.739195 C6.15193117,50.9092478 6.34097559,50.294207 6.71907012,49.8940538 C7.09716465,49.4939006 7.67457206,49.2938272 8.45130972,49.2938272 C8.9609154,49.2938272 9.46229408,49.3806314 9.95546088,49.554243 L9.57325852,50.6848284 C9.21571263,50.5662647 8.87461071,50.5069837 8.54994258,50.5069837 C8.22116474,50.5069837 7.98177697,50.6117841 7.83177207,50.821388 C7.68176717,51.0309921 7.60676586,51.3453934 7.60676586,51.7646014 L7.60676586,52.2219169 L9.27119539,52.2219169 L9.27119539,53.3525026 Z M16.0213818,59.2467919 L15.1398507,55.9693636 C15.0329978,55.622141 14.8398437,54.8154952 14.5603826,53.5494023 L14.5049016,53.5494023 C14.2665377,54.692697 14.0774932,55.503577 13.9377626,55.9820669 L13.0315732,59.2467919 L11.4287892,59.2467919 L9.51777754,52.2219169 L10.9972705,52.2219169 L11.8664725,55.6835415 C12.0637393,56.5388953 12.2034678,57.2714397 12.2856622,57.8811968 L12.3226496,57.8811968 C12.3637467,57.5720837 12.4264191,57.2174562 12.5106684,56.817303 C12.5949178,56.41715 12.6678642,56.1175689 12.7295101,55.918551 L13.7651552,52.2219169 L15.35561,52.2219169 L16.3604323,55.918551 C16.4220782,56.1260378 16.4991343,56.4436149 16.5916031,56.8712917 C16.6840718,57.2989685 16.7385248,57.6313659 16.7549637,57.8684936 L16.8042802,57.8684936 C16.865926,57.3476594 17.0097641,56.6193493 17.2357989,55.6835415 L18.1173301,52.2219169 L19.5721648,52.2219169 L17.6488241,59.2467919 L16.0213818,59.2467919 Z M23.0428085,59.3738241 C22.1920959,59.3738241 21.5283856,59.0562468 21.0516577,58.4210832 C20.5749299,57.7859195 20.3365695,56.8945866 20.3365695,55.7470576 C20.3365695,54.5952941 20.5780121,53.6986681 21.0609046,53.0571529 C21.5437969,52.4156376 22.2126445,52.0948849 23.0674668,52.0948849 C23.9633866,52.0948849 24.6455903,52.435751 25.1140986,53.1174933 L25.1880734,53.1174933 C25.118208,52.6135967 25.0832759,52.2155668 25.0832759,51.9233915 L25.0832759,49.3636947 L26.5381107,49.3636947 L26.5381107,59.2467919 L25.4038326,59.2467919 L25.1510861,58.3258092 L25.0832759,58.3258092 C24.6188773,59.0244891 23.9387282,59.3738241 23.0428085,59.3738241 Z M23.4311754,58.167019 C24.0270854,58.167019 24.4606545,57.9944689 24.7318963,57.6493632 C25.003138,57.3042577 25.1428666,56.7442634 25.1510861,55.9693636 L25.1510861,55.7597609 C25.1510861,54.8747661 25.0113575,54.2459635 24.7318963,53.8733343 C24.452435,53.5007048 24.0147562,53.3143931 23.4188464,53.3143931 C22.9092408,53.3143931 22.5167681,53.5271696 22.2414167,53.9527293 C21.9660651,54.3782889 21.8283915,54.9848612 21.8283915,55.772464 C21.8283915,56.5515981 21.9619555,57.1454673 22.2290876,57.5540892 C22.4962194,57.9627111 22.8969114,58.167019 23.4311754,58.167019 Z M32.8752719,59.2467919 L32.585538,58.2686446 L32.5362215,58.2686446 C32.2074437,58.6963215 31.8766159,58.9874338 31.5437283,59.1419905 C31.2108408,59.296547 30.7834359,59.3738241 30.2615011,59.3738241 C29.5916162,59.3738241 29.0686619,59.187512 28.6926222,58.8148826 C28.3165825,58.4422534 28.1285655,57.9150756 28.1285655,57.2333332 C28.1285655,56.5092465 28.389529,55.963014 28.9114637,55.5946191 C29.4333987,55.2262243 30.2286182,55.0250922 31.2971461,54.9912167 L32.474576,54.9531069 L32.474576,54.5783623 C32.474576,54.1295134 32.3728619,53.7939402 32.1694306,53.5716329 C31.9659992,53.3493256 31.6505828,53.2381736 31.2231714,53.2381736 C30.873845,53.2381736 30.5389077,53.2911031 30.2183493,53.3969638 C29.8977909,53.5028245 29.5895663,53.6277381 29.2936662,53.7717086 L28.8251601,52.704639 C29.1950351,52.5056209 29.5998367,52.3542426 30.0395771,52.2504991 C30.4793177,52.1467557 30.8943933,52.0948849 31.284817,52.0948849 C32.1519687,52.0948849 32.8064322,52.2896654 33.2482275,52.6792324 C33.6900227,53.0687994 33.910917,53.6806647 33.910917,54.5148462 L33.910917,59.2467919 L32.8752719,59.2467919 Z M30.7176782,58.2305351 C31.2437226,58.2305351 31.6659903,58.0791567 31.984494,57.7763953 C32.3029974,57.473634 32.4622468,57.0491394 32.4622468,56.5028986 L32.4622468,55.8931445 L31.5868801,55.9312541 C30.904666,55.9566606 30.4084246,56.0741642 30.0981405,56.2837682 C29.7878563,56.4933723 29.6327167,56.8141251 29.6327167,57.2460362 C29.6327167,57.5593837 29.7231292,57.8018009 29.903957,57.9732952 C30.0847849,58.1447892 30.3560224,58.2305351 30.7176782,58.2305351 Z M34.8972455,52.2219169 L36.4753713,52.2219169 L37.862396,56.2043732 C38.0719919,56.7717859 38.2117202,57.3053154 38.2815856,57.8049775 L38.3309019,57.8049775 C38.3678897,57.5720842 38.435699,57.2894405 38.5343323,56.9570384 C38.6329658,56.624636 39.1548928,55.046278 40.1001289,52.2219169 L41.6659257,52.2219169 L38.7500917,60.1804778 C38.2199374,61.6413542 37.3363601,62.3717813 36.0993337,62.3717813 C35.7787753,62.3717813 35.4664409,62.3357895 35.1623215,62.2638042 L35.1623215,61.0824057 C35.3801367,61.1332188 35.6287713,61.1586248 35.9082326,61.1586248 C36.6068854,61.1586248 37.09799,60.7415403 37.3815609,59.9073587 L37.6343074,59.2467919 L34.8972455,52.2219169 Z M47.2818342,57.2460362 C47.2818342,57.9320131 47.0393642,58.4581324 46.5544169,58.8244102 C46.0694696,59.1906878 45.3749366,59.3738241 44.4707977,59.3738241 C43.5625489,59.3738241 42.833084,59.2319729 42.282381,58.9482665 L42.282381,57.6588906 C43.083777,58.039989 43.8296805,58.2305351 44.5201141,58.2305351 C45.4119239,58.2305351 45.8578223,57.9531844 45.8578223,57.3984748 C45.8578223,57.2206291 45.8085063,57.0724264 45.709873,56.9538625 C45.6112396,56.8352985 45.448908,56.7125022 45.2228733,56.5854694 C44.9968386,56.4584368 44.6824494,56.3144684 44.2796966,56.1535604 C43.4947393,55.8402129 42.9635657,55.5268701 42.6861594,55.2135228 C42.4087531,54.9001755 42.2700518,54.4936767 42.2700518,53.9940146 C42.2700518,53.3927264 42.50533,52.9258881 42.9758935,52.5934857 C43.4464567,52.2610836 44.0865365,52.0948849 44.8961518,52.0948849 C45.6975478,52.0948849 46.4557804,52.262142 47.1708722,52.5966617 L46.7023662,53.7208957 C45.9667256,53.4075482 45.3482217,53.250877 44.8468353,53.250877 C44.082427,53.250877 43.7002285,53.4752981 43.7002285,53.924147 C43.7002285,54.1443371 43.7998878,54.3306489 43.9992093,54.4830883 C44.1985308,54.6355275 44.6331275,54.8451283 45.3030124,55.111897 C45.8660446,55.3363216 46.2749559,55.5416882 46.5297586,55.7280027 C46.7845615,55.9143176 46.9736058,56.1292113 47.0968977,56.3726906 C47.2201893,56.6161702 47.2818342,56.9072825 47.2818342,57.2460362 Z" id="fwdays" fill="#181916"></path>
                    <path d="M8.41002872,46.1481731 L6.03597884,46.1481731 L6.03597884,36.8158965 L11.3089328,36.8158965 L11.3089328,38.839379 L8.41002872,38.839379 L8.41002872,40.6202991 L11.0831235,40.6202991 L11.0831235,42.643782 L8.41002872,42.643782 L8.41002872,46.1481731 Z M16.5993819,38.7883132 C16.8068835,38.7883132 17.0042104,38.805335 17.1913687,38.839379 L17.3256337,38.8649121 L17.1120303,41.2203224 C16.9167347,41.1692563 16.646173,41.1437238 16.3003371,41.1437238 C15.7795489,41.1437238 15.4011695,41.2681953 15.1651873,41.5171424 C14.9292052,41.7660896 14.8112158,42.1246104 14.8112158,42.5927162 L14.8112158,46.1481731 L12.42496,46.1481731 L12.42496,38.9159779 L14.2009202,38.9159779 L14.5732006,40.0713417 L14.6891568,40.0713417 C14.8885209,39.6883463 15.1662027,39.3787627 15.5222102,39.1425824 C15.8782178,38.9064018 16.2372715,38.7883132 16.5993819,38.7883132 Z M24.4347638,42.5161174 C24.4347638,43.699148 24.1306363,44.6215149 23.5223718,45.2832459 C22.9141076,45.9449771 22.0627536,46.2758377 20.9682848,46.2758377 C19.918571,46.2758377 19.0834916,45.9375301 18.4630213,45.2609046 C17.842551,44.5842793 17.5323205,43.6693593 17.5323205,42.5161174 C17.5323205,41.3373424 17.8364481,40.4213586 18.4447124,39.7681384 C19.0529767,39.1149185 19.906365,38.7883132 21.0049024,38.7883132 C21.6843682,38.7883132 22.2844864,38.9393815 22.8052745,39.2415223 C23.3260627,39.5436633 23.7278365,39.9766545 24.0106083,40.5405088 C24.2933801,41.1043634 24.4347638,41.762893 24.4347638,42.5161174 Z M19.955194,42.5161174 C19.955194,43.1374212 20.0345317,43.6108391 20.1932094,43.9363853 C20.351887,44.2619314 20.6183801,44.4247021 20.9926965,44.4247021 C21.3629444,44.4247021 21.6243517,44.2619314 21.7769265,43.9363853 C21.929501,43.6108391 22.0057873,43.1374212 22.0057873,42.5161174 C22.0057873,41.8990692 21.9284841,41.4330982 21.7738749,41.1181907 C21.6192659,40.8032835 21.3548072,40.6458322 20.9804907,40.6458322 C20.6143114,40.6458322 20.351887,40.8022196 20.1932094,41.1149992 C20.0345317,41.4277789 19.955194,41.8948135 19.955194,42.5161174 Z M29.9510223,46.1481731 L29.9510223,42.2033393 C29.9510223,41.7224672 29.8849075,41.3596909 29.7526761,41.1149992 C29.6204448,40.8703077 29.4078607,40.7479638 29.1149173,40.7479638 C28.7121201,40.7479638 28.4212156,40.9160536 28.2421947,41.2522386 C28.0631736,41.5884234 27.9736644,42.1650358 27.9736644,42.9820929 L27.9736644,46.1481731 L25.5874087,46.1481731 L25.5874087,38.9159779 L27.3877807,38.9159779 L27.6868256,39.8096294 L27.8271936,39.8096294 C28.0306266,39.469189 28.3123767,39.2138625 28.6724529,39.0436423 C29.0325292,38.873422 29.4465088,38.7883132 29.9144045,38.7883132 C30.6793122,38.7883132 31.2743443,39.020235 31.6995191,39.4840848 C32.1246938,39.9479349 32.3372781,40.6011452 32.3372781,41.4437354 L32.3372781,46.1481731 L29.9510223,46.1481731 Z M37.1394907,44.3034207 C37.4609148,44.3034207 37.845397,44.2204397 38.2929493,44.0544749 L38.2929493,45.8736943 C37.9715254,46.0183815 37.6653635,46.1215759 37.3744545,46.1832809 C37.0835454,46.2449856 36.7428006,46.2758377 36.3522093,46.2758377 C35.5506839,46.2758377 34.972943,46.0705126 34.6189699,45.6598562 C34.2649968,45.2492 34.0880128,44.6183308 34.0880128,43.7672298 L34.0880128,40.7862631 L33.2519078,40.7862631 L33.2519078,39.7713301 L34.3138221,38.9861932 L34.9302206,37.4669855 L36.4925773,37.4669855 L36.4925773,38.9159779 L38.1891992,38.9159779 L38.1891992,40.7862631 L36.4925773,40.7862631 L36.4925773,43.6012658 C36.4925773,44.0693714 36.7082129,44.3034207 37.1394907,44.3034207 Z M42.6313373,46.2758377 C41.4799073,46.2758377 40.5858332,45.9556157 39.9490882,45.3151621 C39.3123433,44.6747085 38.9939756,43.7629803 38.9939756,42.5799497 C38.9939756,41.3586195 39.2889488,40.4213586 39.8789043,39.7681384 C40.4688595,39.1149185 41.3110589,38.7883132 42.405528,38.7883132 C43.4471043,38.7883132 44.2516693,39.072364 44.8192471,39.640474 C45.3868249,40.208584 45.6706094,41.0266926 45.6706094,42.0948244 L45.6706094,43.2055059 L41.4046431,43.2055059 C41.4209179,43.6097789 41.5623015,43.9268092 41.8287985,44.1566066 C42.0952959,44.3864038 42.4584179,44.5013007 42.9181764,44.5013007 C43.337248,44.5013007 43.7227477,44.4598101 44.0746864,44.3768278 C44.4266254,44.2938455 44.8080562,44.152352 45.2189907,43.9523433 L45.2189907,45.7460299 C44.8446742,45.9460386 44.4581575,46.0843404 44.059429,46.1609397 C43.6607006,46.2375387 43.1846749,46.2758377 42.6313373,46.2758377 Z M42.4909694,40.4862515 C42.210232,40.4862515 41.9752706,40.5788073 41.7860779,40.7639218 C41.5968855,40.9490364 41.4860161,41.2394701 41.453467,41.635232 L43.5040602,41.635232 C43.4959228,41.2862807 43.401328,41.0075494 43.2202726,40.7990296 C43.0392174,40.5905098 42.7961187,40.4862515 42.4909694,40.4862515 Z M51.174662,46.1481731 L51.174662,42.2033393 C51.174662,41.7224672 51.1085472,41.3596909 50.976316,41.1149992 C50.8440846,40.8703077 50.6315004,40.7479638 50.338557,40.7479638 C49.93576,40.7479638 49.6448552,40.9160536 49.4658343,41.2522386 C49.2868135,41.5884234 49.1973044,42.1650358 49.1973044,42.9820929 L49.1973044,46.1481731 L46.8110486,46.1481731 L46.8110486,38.9159779 L48.6114206,38.9159779 L48.9104652,39.8096294 L49.0508334,39.8096294 C49.2542662,39.469189 49.5360167,39.2138625 49.8960928,39.0436423 C50.2561689,38.873422 50.6701487,38.7883132 51.1380443,38.7883132 C51.9029519,38.7883132 52.4979843,39.020235 52.923159,39.4840848 C53.3483338,39.9479349 53.5609178,40.6011452 53.5609178,41.4437354 L53.5609178,46.1481731 L51.174662,46.1481731 Z M57.1242305,46.2758377 C56.6319229,46.2758377 56.2016687,46.1290248 55.8334552,45.835395 C55.4652417,45.5417651 55.18044,45.1098378 54.9790413,44.5396002 C54.7776429,43.9693624 54.6769451,43.3033858 54.6769451,42.5416504 C54.6769451,41.3671309 54.9027522,40.4479554 55.3543731,39.7840966 C55.8059942,39.1202376 56.4264552,38.7883132 57.2157747,38.7883132 C57.6022972,38.7883132 57.9410079,38.8691667 58.231917,39.0308758 C58.5228259,39.1925852 58.7883018,39.4649333 59.0283527,39.8479287 L59.0771764,39.8479287 C58.9998718,39.2819466 58.9612201,38.7159729 58.9612201,38.1499908 L58.9612201,36.215873 L61.3657848,36.215873 L61.3657848,46.1481731 L59.5654128,46.1481731 L59.0527644,45.2353718 L58.9612201,45.2353718 C58.5502857,45.9290193 57.9379621,46.2758377 57.1242305,46.2758377 Z M58.1007034,44.3034207 C58.4831573,44.3034207 58.7527018,44.1778852 58.9093451,43.9268105 C59.0659885,43.6757355 59.1504117,43.2884904 59.1626176,42.7650632 L59.1626176,42.5671832 C59.1626176,41.9288574 59.075143,41.474589 58.9001907,41.2043644 C58.7252385,40.9341398 58.450608,40.7990296 58.0762915,40.7990296 C57.7630049,40.7990296 57.5199062,40.9532892 57.3469884,41.2618134 C57.1740705,41.5703376 57.0876127,42.0097118 57.0876127,42.5799497 C57.0876127,43.1416765 57.1750874,43.5693483 57.3500398,43.8629781 C57.524992,44.1566081 57.7752107,44.3034207 58.1007034,44.3034207 Z" id="Frontend" fill="#181916"></path>
                    <g id="Group">
                        <polyline id="Fill-1" fill="url(#linearGradient-1)" points="51.5786565 12.4656587 40.4045292 23.5590591 32.5861046 15.7977568 24.7678876 23.5590591 13.0404582 11.9170025 7.17695107 17.7380308 2.41859558 13.0145209 13.5931378 1.92132653 12.4877787 0.823808135 0.207462308 13.0145209 6.07138443 18.8353433 0.760349358 24.1077153 1.86591599 25.2052337 7.17695107 19.9330676 12.4877787 25.2052337 13.5931378 24.1077153 8.28251771 18.8353433 13.0404582 14.1122453 24.7678876 25.7543018 32.5861046 17.9932054 40.4045292 25.7543018 52.6844306 13.5631771 51.5786565 12.4656587"></polyline>
                        <path d="M14.2970575,1.32674301 C14.2970575,2.02327278 13.7284033,2.58799326 13.0265583,2.58799326 C12.3249208,2.58799326 11.7560591,2.02327278 11.7560591,1.32674301 C11.7560591,0.630625128 12.3249208,0.0654927467 13.0265583,0.0654927467 C13.7284033,0.0654927467 14.2970575,0.630625128 14.2970575,1.32674301" id="Fill-3" fill="#FF76B1"></path>
                        <path d="M2.54099834,12.9687996 C2.54099834,13.6653293 1.97213669,14.2302558 1.27029171,14.2302558 C0.568861647,14.2302558 0,13.6653293 0,12.9687996 C0,12.2720639 0.568861647,11.7075493 1.27029171,11.7075493 C1.97213669,11.7075493 2.54099834,12.2720639 2.54099834,12.9687996" id="Fill-5" fill="#BE2667"></path>
                        <path d="M14.3663499,13.0005162 C14.3663499,13.697046 13.7974882,14.2619724 13.0958507,14.2619724 C12.3942131,14.2619724 11.8253515,13.697046 11.8253515,13.0005162 C11.8253515,12.3037804 12.3942131,11.7392659 13.0958507,11.7392659 C13.7974882,11.7392659 14.3663499,12.3037804 14.3663499,13.0005162" id="Fill-7" fill="#BE2667"></path>
                        <path d="M53.3103444,12.9687996 C53.3103444,13.6653293 52.7414828,14.2302558 52.0400527,14.2302558 C51.3382078,14.2302558 50.769346,13.6653293 50.769346,12.9687996 C50.769346,12.2720639 51.3382078,11.7075493 52.0400527,11.7075493 C52.7414828,11.7075493 53.3103444,12.2720639 53.3103444,12.9687996" id="Fill-8" fill="#BE2667"></path>
                        <path d="M2.54099834,24.6106502 C2.54099834,25.3073859 1.97213669,25.8721064 1.27029171,25.8721064 C0.568861647,25.8721064 0,25.3073859 0,24.6106502 C0,23.9143263 0.568861647,23.3498118 1.27029171,23.3498118 C1.97213669,23.3498118 2.54099834,23.9143263 2.54099834,24.6106502" id="Fill-10" fill="#870039"></path>
                        <path d="M25.9842391,24.7393702 C25.9842391,25.4361059 25.4153775,26.0008264 24.7135325,26.0008264 C24.0118949,26.0008264 23.4432407,25.4361059 23.4432407,24.7393702 C23.4432407,24.0430464 24.0118949,23.4785319 24.7135325,23.4785319 C25.4153775,23.4785319 25.9842391,24.0430464 25.9842391,24.7393702" id="Fill-12" fill="#870039"></path>
                        <path d="M33.8673919,16.9136048 C33.8673919,17.6099286 33.2989451,18.1748551 32.5971002,18.1748551 C31.8952552,18.1748551 31.3268084,17.6099286 31.3268084,16.9136048 C31.3268084,16.2168691 31.8952552,15.6523545 32.5971002,15.6523545 C33.2989451,15.6523545 33.8673919,16.2168691 33.8673919,16.9136048" id="Fill-13" fill="#BE2667"></path>
                        <path d="M41.5439122,24.7393702 C41.5439122,25.4361059 40.9746356,26.0008264 40.2736204,26.0008264 C39.5717754,26.0008264 39.0029138,25.4361059 39.0029138,24.7393702 C39.0029138,24.0430464 39.5717754,23.4785319 40.2736204,23.4785319 C40.9746356,23.4785319 41.5439122,24.0430464 41.5439122,24.7393702" id="Fill-14" fill="#870039"></path>
                        <path d="M14.159095,24.7393702 C14.159095,25.4361059 13.5904408,26.0008264 12.8885958,26.0008264 C12.1871658,26.0008264 11.6178892,25.4361059 11.6178892,24.7393702 C11.6178892,24.0426344 12.1871658,23.4785319 12.8885958,23.4785319 C13.5904408,23.4785319 14.159095,24.0426344 14.159095,24.7393702" id="Fill-15" fill="#870039"></path>
                    </g>
                </g>
            </g>
        </g>
    </g>
</svg>