<?xml version="1.0" encoding="UTF-8"?>
<svg width="580px" height="580px" viewBox="0 0 580 580" version="1.1" xmlns="http://www.w3.org/2000/svg" xmlns:xlink="http://www.w3.org/1999/xlink">
    <!-- Generator: Sketch 46.2 (44496) - http://www.bohemiancoding.com/sketch -->
    <title>front_big</title>
    <desc>Created with Sketch.</desc>
    <defs>
        <polygon id="path-1" points="12.0794146 0.162983373 12.0794146 11.8602755 0.259953542 11.8602755 0.259953542 0.162983373"></polygon>
        <polygon id="path-3" points="0.246876656 0.050736342 12.0667698 0.050736342 12.0667698 11.7471164 0.246876656 11.7471164"></polygon>
    </defs>
    <g id="Large" stroke="none" stroke-width="1" fill="none" fill-rule="evenodd">
        <g id="big-copy" transform="translate(-1885.000000, -31.000000)">
            <g id="Group-Copy-2" transform="translate(1885.000000, 31.000000)">
                <rect id="Rectangle-11" x="0" y="0" width="580" height="580"></rect>
                <g id="frontend_big" transform="translate(136.000000, 144.000000)">
                    <g id="Page-1">
                        <g id="Group-3" transform="translate(235.902440, 54.106034)">
                            <g id="Fill-1-Clipped">
                                <mask id="mask-2" fill="white">
                                    <use xlink:href="#path-1"></use>
                                </mask>
                                <g id="path-1"></g>
                                <path d="M12.0795587,6.01191448 C12.0795587,9.2416532 9.43422532,11.8602755 6.17162834,11.8602755 C2.90730314,11.8602755 0.259953542,9.2416532 0.259953542,6.01191448 C0.259953542,2.78103562 2.90730314,0.162983373 6.17162834,0.162983373 C9.43422532,0.162983373 12.0795587,2.78103562 12.0795587,6.01191448" id="Fill-1" fill="#FEFEFE" fill-rule="nonzero" mask="url(#mask-2)"></path>
                            </g>
                        </g>
                        <g id="Group-6" transform="translate(54.439024, 0.234300)">
                            <g id="Fill-4-Clipped">
                                <mask id="mask-4" fill="white">
                                    <use xlink:href="#path-3"></use>
                                </mask>
                                <g id="path-3"></g>
                                <path d="M12.0667698,5.89932542 C12.0667698,9.1287791 9.4208604,11.7471164 6.15682322,11.7471164 C2.89365018,11.7471164 0.246876656,9.1287791 0.246876656,5.89932542 C0.246876656,2.67101188 2.89365018,0.050679335 6.15682322,0.050679335 C9.4208604,0.050679335 12.0667698,2.67101188 12.0667698,5.89932542" id="Fill-4" fill="#FEFEFE" fill-rule="nonzero" mask="url(#mask-4)"></path>
                            </g>
                        </g>
                        <path d="M11.819922,60.1179478 C11.819922,63.3476864 9.17401254,65.9663088 5.90911126,65.9663088 C2.64536214,65.9663088 2.88037166e-05,63.3476864 2.88037166e-05,60.1179478 C2.88037166e-05,56.8870688 2.64536214,54.2690166 5.90911126,54.2690166 C9.17401254,54.2690166 11.819922,56.8870688 11.819922,60.1179478" id="Fill-7" fill="#FEFEFE" fill-rule="nonzero"></path>
                        <path d="M66.5057942,60.1179478 C66.5057942,63.3476864 63.8598848,65.9663088 60.5958476,65.9663088 C57.3326746,65.9663088 54.685901,63.3476864 54.685901,60.1179478 C54.685901,56.8870688 57.3326746,54.2690166 60.5958476,54.2690166 C63.8598848,54.2690166 66.5057942,56.8870688 66.5057942,60.1179478" id="Fill-9" fill="#FEFEFE" fill-rule="nonzero"></path>
                        <path d="M11.819922,114.100618 C11.819922,117.329501 9.17401254,119.949264 5.90911126,119.949264 C2.64536214,119.949264 2.88037166e-05,117.329501 2.88037166e-05,114.100618 C2.88037166e-05,110.871734 2.64536214,108.254252 5.90911126,108.254252 C9.17401254,108.254252 11.819922,110.871734 11.819922,114.100618" id="Fill-11" fill="#FEFEFE" fill-rule="nonzero"></path>
                        <path d="M120.923849,114.100618 C120.923849,117.329501 118.279092,119.949264 115.013903,119.949264 C111.74929,119.949264 109.103956,117.329501 109.103956,114.100618 C109.103956,110.871734 111.74929,108.254252 115.013903,108.254252 C118.279092,108.254252 120.923849,110.871734 120.923849,114.100618" id="Fill-13" fill="#FEFEFE" fill-rule="nonzero"></path>
                        <path d="M157.29122,78.1119334 C157.29122,81.3425274 154.645599,83.9605796 151.380986,83.9605796 C148.116949,83.9605796 145.473344,81.3425274 145.473344,78.1119334 C145.473344,74.8816248 148.116949,72.2635724 151.380986,72.2635724 C154.645599,72.2635724 157.29122,74.8816248 157.29122,78.1119334" id="Fill-15" fill="#FEFEFE" fill-rule="nonzero"></path>
                        <path d="M193.658015,114.100618 C193.658015,117.329501 191.011242,119.949264 187.750661,119.949264 C184.486048,119.949264 181.838698,117.329501 181.838698,114.100618 C181.838698,110.871734 184.486048,108.254252 187.750661,108.254252 C191.011242,108.254252 193.658015,110.871734 193.658015,114.100618" id="Fill-17" fill="#FEFEFE" fill-rule="nonzero"></path>
                        <path d="M66.3714824,114.100618 C66.3714824,117.329501 63.725861,119.949264 60.4615358,119.949264 C57.198939,119.949264 54.5515894,117.329501 54.5515894,114.100618 C54.5515894,110.870309 57.198939,108.254252 60.4615358,108.254252 C63.725861,108.254252 66.3714824,110.870309 66.3714824,114.100618" id="Fill-19" fill="#FEFEFE" fill-rule="nonzero"></path>
                        <polygon id="Fill-21" fill="#FEFEFE" fill-rule="nonzero" points="29.457705 78.2857768 11.0411847 60.0608836 62.9719814 8.6743753 57.8348386 3.5887696 0.766610918 60.0608836 24.319122 83.3693872"></polygon>
                        <polygon id="Fill-23" fill="#FEFEFE" fill-rule="nonzero" points="36.7653808 95.6851782 57.8329952 116.535819 62.9730184 111.451069 41.9022356 90.6024228"></polygon>
                        <polygon id="Fill-25" fill="#FEFEFE" fill-rule="nonzero" points="187.565367 119.078993 151.233799 83.1237434 114.902807 119.078993 60.4030068 65.1476864 8.47278606 116.535905 3.33535516 111.450869 60.4030068 54.9776152 114.902807 108.908637 151.233799 72.9545274 187.565367 108.908637 239.49818 57.520133 244.634746 62.6034584"></polygon>
                    </g>
                    <g id="Group-3" transform="translate(22.000000, 170.000000)" fill-rule="nonzero" fill="#FFFFFF">
                        <path d="M19.8751094,82 L12.0752846,82 L12.0752846,108.140846 L5.2576598,108.140846 L5.2576598,82 L0,82 L0,78.901408 L5.2576598,76.87324 L5.2576598,74.84507 C5.2576598,71.164302 6.143557,68.436628 7.915378,66.661972 C9.6871988,64.887314 12.393037,64 16.0329734,64 C18.42108,64 20.7706334,64.384972 23.0817042,65.15493 L21.2906332,70.169014 C19.615107,69.64319 18.0166402,69.380282 16.4951852,69.380282 C14.9544714,69.380282 13.832656,69.845066 13.1297052,70.774648 C12.4267546,71.70423 12.0752846,73.098582 12.0752846,74.957746 L12.0752846,76.985916 L19.8751094,76.985916 L19.8751094,82 Z M51.507732,108.140846 L47.376714,93.605634 C46.875982,92.06572 45.970826,88.488292 44.66122,82.87324 L44.401226,82.87324 C43.284208,87.943688 42.39831,91.539896 41.743508,93.661972 L37.4969362,108.140846 L29.9859936,108.140846 L21.030639,76.985916 L27.9638168,76.985916 L32.0370586,92.338028 C32.961487,96.131474 33.6162804,99.380268 34.001459,102.084508 L34.1747884,102.084508 C34.3673776,100.713608 34.6610718,99.140854 35.0558798,97.366198 C35.4506878,95.59154 35.7925284,94.262916 36.0814124,93.380282 L40.934636,76.985916 L48.387802,76.985916 L53.096586,93.380282 C53.38547,94.300474 53.74657,95.708912 54.179894,97.605634 C54.61322,99.502358 54.868398,100.976522 54.945434,102.02817 L55.17654,102.02817 C55.465424,99.718298 56.139476,96.488284 57.198716,92.338028 L61.329734,76.985916 L68.14736,76.985916 L59.134228,108.140846 L51.507732,108.140846 Z M84.411438,108.704226 C80.424842,108.704226 77.314572,107.295788 75.080538,104.478874 C72.846502,101.661958 71.7295,97.708946 71.7295,92.619718 C71.7295,87.511712 72.860946,83.535226 75.12387,80.69014 C77.386792,77.845056 80.521136,76.422536 84.526992,76.422536 C88.725438,76.422536 91.92237,77.934258 94.117886,80.957746 L94.464546,80.957746 C94.137144,78.722994 93.973446,76.957752 93.973446,75.661972 L93.973446,64.309858 L100.791072,64.309858 L100.791072,108.140846 L95.475634,108.140846 L94.291218,104.056338 L93.973446,104.056338 C91.797188,107.154944 88.609884,108.704226 84.411438,108.704226 Z M86.231398,103.352112 C89.023942,103.352112 91.055728,102.586862 92.326816,101.056338 C93.597906,99.525814 94.252698,97.04227 94.291218,93.605634 L94.291218,92.676056 C94.291218,88.751154 93.636424,85.96245 92.326816,84.30986 C91.01721,82.657268 88.966164,81.830986 86.173622,81.830986 C83.785516,81.830986 81.946316,82.774638 80.655968,84.661972 C79.36562,86.549306 78.720456,89.23942 78.720456,92.732394 C78.720456,96.18781 79.34636,98.821588 80.59819,100.633804 C81.85002,102.446018 83.727738,103.352112 86.231398,103.352112 Z M130.488182,108.140846 L129.130434,103.802816 L128.899328,103.802816 C127.358614,105.69954 125.808294,106.990606 124.248322,107.676058 C122.68835,108.361506 120.685452,108.704226 118.239568,108.704226 C115.100364,108.704226 112.649702,107.877942 110.88751,106.225352 C109.12532,104.572762 108.244236,102.234758 108.244236,99.211268 C108.244236,95.999984 109.46716,93.577474 111.913044,91.943662 C114.358928,90.309852 118.085472,89.417842 123.092792,89.267606 L128.610446,89.098592 L128.610446,87.43662 C128.610446,85.446 128.133796,83.957752 127.180478,82.97183 C126.227162,81.98591 124.749062,81.492958 122.746134,81.492958 C121.109126,81.492958 119.539546,81.727696 118.03735,82.197184 C116.535154,82.66667 115.090758,83.220654 113.704114,83.859156 L111.508608,79.12676 C113.24191,78.244126 115.138886,77.572772 117.19959,77.112676 C119.260296,76.65258 121.205418,76.422536 123.035016,76.422536 C127.09865,76.422536 130.165586,77.286376 132.23592,79.014084 C134.306254,80.741792 135.341406,83.45538 135.341406,87.15493 L135.341406,108.140846 L130.488182,108.140846 Z M120.377298,103.633804 C122.84244,103.633804 124.821264,102.962448 126.313832,101.619718 C127.806398,100.276988 128.55267,98.394378 128.55267,95.971832 L128.55267,93.267606 L124.45054,93.43662 C121.253558,93.549296 118.928078,94.070418 117.47403,95 C116.01998,95.929582 115.292968,97.352104 115.292968,99.267606 C115.292968,100.657284 115.716658,101.73239 116.56405,102.492958 C117.411444,103.253526 118.682512,103.633804 120.377298,103.633804 Z M139.963524,76.985916 L147.358914,76.985916 L153.858768,94.647888 C154.840974,97.164332 155.495766,99.530506 155.823168,101.746478 L156.054274,101.746478 C156.227606,100.71361 156.545372,99.460102 157.007586,97.985916 C157.469802,96.51173 159.915648,89.5118 164.3452,76.985916 L171.682814,76.985916 L158.018676,112.28169 C155.534274,118.760596 151.393668,122 145.596732,122 C144.094536,122 142.63088,121.840378 141.20572,121.521128 L141.20572,116.28169 C142.226442,116.507044 143.39159,116.619718 144.701196,116.619718 C147.975214,116.619718 150.27662,114.769972 151.605486,111.070422 L152.789904,108.140846 L139.963524,76.985916 Z M198,99.267606 C198,102.309874 196.86374,104.643184 194.591188,106.267606 C192.318634,107.892026 189.063926,108.704226 184.826962,108.704226 C180.57074,108.704226 177.152332,108.075124 174.571636,106.816902 L174.571636,101.098592 C178.327126,102.788742 181.822568,103.633804 185.058068,103.633804 C189.237254,103.633804 191.326816,102.403768 191.326816,99.943662 C191.326816,99.154926 191.095712,98.497656 190.633498,97.971832 C190.171284,97.446006 189.410568,96.901412 188.351328,96.338028 C187.292088,95.774646 185.818802,95.136154 183.931428,94.422536 C180.252972,93.032856 177.763794,91.6432 176.463818,90.25352 C175.16384,88.863844 174.51386,87.061044 174.51386,84.84507 C174.51386,82.17839 175.616416,80.107988 177.821564,78.633802 C180.02671,77.159618 183.026244,76.422536 186.82025,76.422536 C190.57574,76.422536 194.12896,77.164312 197.480012,78.647888 L195.284506,83.633804 C191.837158,82.244124 188.938734,81.549296 186.589144,81.549296 C183.006986,81.549296 181.215932,82.544592 181.215932,84.535212 C181.215932,85.511742 181.682954,86.338024 182.617012,87.014084 C183.55107,87.690144 185.58767,88.619712 188.726874,89.802816 C191.365348,90.798128 193.281582,91.708916 194.475634,92.535212 C195.669688,93.361508 196.555584,94.31455 197.133354,95.394366 C197.71112,96.474184 198,97.765252 198,99.267606 Z" id="fwdays"></path>
                        <path d="M15.2416998,45.416244 L4,45.416244 L4,2.743656 L28.9687112,2.743656 L28.9687112,11.996194 L15.2416998,11.996194 L15.2416998,20.139594 L27.8994494,20.139594 L27.8994494,29.392132 L15.2416998,29.392132 L15.2416998,45.416244 Z M54.020266,11.76269 C55.002836,11.76269 55.937226,11.840524 56.823466,11.996194 L57.459244,12.112944 L56.44778,22.883248 C55.523008,22.649744 54.241834,22.532994 52.604216,22.532994 C50.138158,22.532994 48.34644,23.102152 47.229008,24.240482 C46.111576,25.378812 45.552868,27.018178 45.552868,29.15863 L45.552868,45.416244 L34.2533698,45.416244 L34.2533698,12.346448 L42.66297,12.346448 L44.425808,17.629442 L44.974888,17.629442 C45.918926,15.878164 47.233816,14.462568 48.919598,13.382614 C50.60538,12.30266 52.305586,11.76269 54.020266,11.76269 Z M91.122692,28.808376 C91.122692,34.217878 89.682574,38.435476 86.802296,41.461294 C83.922018,44.487112 79.89065,46 74.708076,46 C69.737428,46 65.783126,44.453062 62.845048,41.359136 C59.906972,38.265212 58.437956,34.081668 58.437956,28.808376 C58.437956,23.418332 59.878074,19.229922 62.758352,16.24302 C65.63863,13.25612 69.67963,11.76269 74.88147,11.76269 C78.098904,11.76269 80.94061,12.453462 83.406666,13.835026 C85.872724,15.21659 87.77522,17.196476 89.114214,19.774746 C90.453206,22.353016 91.122692,25.364196 91.122692,28.808376 Z M69.910848,28.808376 C69.910848,31.649338 70.28653,33.814078 71.037906,35.302664 C71.789284,36.79125 73.051194,37.535532 74.823672,37.535532 C76.576886,37.535532 77.814712,36.79125 78.53719,35.302664 C79.259668,33.814078 79.620902,31.649338 79.620902,28.808376 C79.620902,25.986872 79.254852,23.856182 78.52274,22.416244 C77.79063,20.976304 76.538354,20.256346 74.765874,20.256346 C73.031928,20.256346 71.789284,20.97144 71.037906,22.40165 C70.28653,23.83186 69.910848,25.967414 69.910848,28.808376 Z M117.24351,45.416244 L117.24351,27.378172 C117.24351,25.179346 116.93044,23.520522 116.304292,22.40165 C115.678144,21.282778 114.671508,20.72335 113.28435,20.72335 C111.377008,20.72335 109.999504,21.491954 109.151798,23.029188 C108.30409,24.56642 107.880242,27.203026 107.880242,30.939086 L107.880242,45.416244 L96.580744,45.416244 L96.580744,12.346448 L105.10594,12.346448 L106.52199,16.432742 L107.186666,16.432742 C108.149972,14.87605 109.484126,13.708548 111.189174,12.930204 C112.894222,12.151858 114.854516,11.76269 117.070114,11.76269 C120.692138,11.76269 123.509758,12.823172 125.523064,14.944162 C127.53637,17.065154 128.543006,20.05201 128.543006,23.904822 L128.543006,45.416244 L117.24351,45.416244 Z M151.282644,36.980964 C152.804664,36.980964 154.62528,36.601526 156.744548,35.84264 L156.744548,44.161166 C155.22253,44.82276 153.772778,45.294626 152.395254,45.576776 C151.01773,45.858926 149.40422,46 147.554676,46 C143.75926,46 141.023518,45.061134 139.347368,43.183376 C137.67122,41.305616 136.833158,38.420916 136.833158,34.529188 L136.833158,20.898478 L132.874,20.898478 L132.874,16.257614 L137.90242,12.667512 L140.821216,5.720812 L148.219352,5.720812 L148.219352,12.346448 L156.253268,12.346448 L156.253268,20.898478 L148.219352,20.898478 L148.219352,33.770304 C148.219352,35.910754 149.24044,36.980964 151.282644,36.980964 Z M177.287864,46 C171.835564,46 167.601908,44.53576 164.586768,41.607234 C161.571626,38.678708 160.064078,34.509756 160.064078,29.100254 C160.064078,23.515624 161.460848,19.229922 164.254428,16.24302 C167.04801,13.25612 171.036028,11.76269 176.218602,11.76269 C181.150718,11.76269 184.960528,13.061536 187.648146,15.659264 C190.335764,18.256992 191.679552,21.99786 191.679552,26.88198 L191.679552,31.96066 L171.479172,31.96066 C171.556236,33.809232 172.225722,35.258878 173.48765,36.309644 C174.749578,37.360412 176.46905,37.885786 178.646116,37.885786 C180.630522,37.885786 182.455956,37.696068 184.122472,37.316624 C185.788988,36.93718 187.595154,36.29019 189.541028,35.375634 L189.541028,43.57741 C187.76855,44.491966 185.9383,45.124362 184.050224,45.47462 C182.162148,45.824874 179.908052,46 177.287864,46 Z M176.623188,19.52665 C175.293828,19.52665 174.18123,19.949868 173.285358,20.79632 C172.389486,21.642772 171.864492,22.970804 171.710364,24.780456 L181.420418,24.780456 C181.381886,23.184848 180.933956,21.910326 180.076616,20.956854 C179.219276,20.00338 178.068144,19.52665 176.623188,19.52665 Z M217.742572,45.416244 L217.742572,27.378172 C217.742572,25.179346 217.429502,23.520522 216.803356,22.40165 C216.177208,21.282778 215.17057,20.72335 213.783412,20.72335 C211.87607,20.72335 210.498566,21.491954 209.65086,23.029188 C208.803152,24.56642 208.379304,27.203026 208.379304,30.939086 L208.379304,45.416244 L197.079808,45.416244 L197.079808,12.346448 L205.605004,12.346448 L207.021052,16.432742 L207.68573,16.432742 C208.649034,14.87605 209.98319,13.708548 211.688238,12.930204 C213.393284,12.151858 215.353578,11.76269 217.569178,11.76269 C221.1912,11.76269 224.008822,12.823172 226.022126,14.944162 C228.035432,17.065154 229.042068,20.05201 229.042068,23.904822 L229.042068,45.416244 L217.742572,45.416244 Z M245.915216,46 C243.58402,46 241.546662,45.328686 239.803082,43.98604 C238.059502,42.643394 236.710898,40.668372 235.757226,38.060914 C234.803556,35.453456 234.326728,32.408224 234.326728,28.925128 C234.326728,23.554542 235.39598,19.351538 237.534514,16.31599 C239.673048,13.280442 242.611082,11.76269 246.3487,11.76269 C248.178976,11.76269 249.782854,12.1324 251.160378,12.871828 C252.537902,13.611256 253.794996,14.85659 254.931694,16.607868 L255.162886,16.607868 C254.79683,14.019868 254.613806,11.431908 254.613806,8.84391 L254.613806,0 L266,0 L266,45.416244 L257.474804,45.416244 L255.04729,41.242386 L254.613806,41.242386 C252.667932,44.414144 249.76843,46 245.915216,46 Z M250.53905,36.980964 C252.350062,36.980964 253.62642,36.406942 254.368164,35.258884 C255.109908,34.110824 255.509674,32.340114 255.567472,29.9467 L255.567472,29.041878 C255.567472,26.123082 255.153258,24.045904 254.324816,22.810278 C253.496374,21.574656 252.195934,20.956854 250.423454,20.956854 C248.939966,20.956854 247.788836,21.662218 246.970028,23.07297 C246.15122,24.483722 245.741822,26.492796 245.741822,29.100254 C245.741822,31.668794 246.156036,33.624358 246.984476,34.967006 C247.812918,36.309652 248.997764,36.980964 250.53905,36.980964 Z" id="Frontend"></path>
                    </g>
                </g>
            </g>
        </g>
    </g>
</svg>