<?xml version="1.0" encoding="UTF-8"?>
<svg width="580px" height="580px" viewBox="0 0 580 580" version="1.1" xmlns="http://www.w3.org/2000/svg" xmlns:xlink="http://www.w3.org/1999/xlink">
    <!-- Generator: Sketch 46.2 (44496) - http://www.bohemiancoding.com/sketch -->
    <title>fwdays_big</title>
    <desc>Created with Sketch.</desc>
    <defs>
        <polygon id="path-1" points="0.246876656 0.050736342 12.0667698 0.050736342 12.0667698 11.7471164 0.246876656 11.7471164"></polygon>
    </defs>
    <g id="Large" stroke="none" stroke-width="1" fill="none" fill-rule="evenodd">
        <g id="big-copy" transform="translate(-641.000000, -31.000000)">
            <g id="Group-Copy-6" transform="translate(641.000000, 31.000000)">
                <rect id="Rectangle-11" x="0" y="0" width="580" height="580"></rect>
                <path d="M177.416,386 L186.128,386 L186.128,355.472 L196.064,355.472 L196.064,348.272 L185.984,348.272 L185.984,346.184 C185.984,342.224 187.712,340.424 191.024,340.424 C192.896,340.424 194.408,340.784 196.136,341.36 L196.136,334.016 C194.192,333.44 192.104,333.008 189.08,333.008 C185.336,333.008 182.528,334.016 180.512,336.032 C178.496,338.048 177.416,341.216 177.416,345.464 L177.416,348.2 L172.592,348.2 L172.592,355.472 L177.416,355.472 L177.416,386 Z M211.688,386.288 L219.464,386.288 L228.032,360.296 L236.528,386.288 L244.304,386.288 L256.76,347.984 L248.048,347.984 L240.272,374.048 L231.776,347.84 L224.36,347.84 L215.936,374.048 L208.304,347.984 L199.376,347.984 L211.688,386.288 Z M278.792,386.792 C269.864,386.792 261.152,379.664 261.152,366.92 C261.152,354.32 269.72,347.192 278.792,347.192 C285.056,347.192 289.016,350.36 291.752,353.888 L291.752,333.44 L300.464,333.44 L300.464,386 L291.752,386 L291.752,379.664 C288.944,383.624 284.984,386.792 278.792,386.792 Z M280.88,379.232 C286.712,379.232 291.896,374.336 291.896,366.92 C291.896,359.576 286.712,354.752 280.88,354.752 C274.904,354.752 269.936,359.36 269.936,367.064 C269.936,374.408 274.976,379.232 280.88,379.232 Z M343.232,386 L334.592,386 L334.592,381.32 C332,384.416 328.04,386.792 322.28,386.792 C315.08,386.792 308.744,382.688 308.744,374.912 C308.744,366.488 315.296,362.456 324.152,362.456 C328.76,362.456 331.712,363.104 334.664,364.04 L334.664,363.32 C334.664,358.064 331.352,355.184 325.304,355.184 C321.056,355.184 317.888,356.12 314.432,357.56 L312.056,350.576 C316.232,348.704 320.336,347.408 326.528,347.408 C337.76,347.408 343.232,353.312 343.232,363.464 L343.232,386 Z M334.808,372.248 L334.808,370.088 C332.576,369.224 329.48,368.576 326.096,368.576 C320.624,368.576 317.384,370.808 317.384,374.624 C317.384,378.224 320.624,380.24 324.728,380.24 C330.488,380.24 334.808,377 334.808,372.248 Z M359.936,397.736 C366.056,397.736 369.44,394.856 372.464,387.08 L387.584,347.984 L378.512,347.984 L368.648,376.208 L357.848,347.984 L348.56,347.984 L364.4,386 C362.96,389.312 361.448,390.392 359,390.392 C357.2,390.392 355.472,389.816 353.888,388.952 L350.936,395.432 C353.6,396.872 356.264,397.736 359.936,397.736 Z M406.664,386.72 C414.584,386.72 420.776,382.76 420.776,374.768 C420.776,367.784 414.512,365.264 408.968,363.536 C408.752,363.464 408.464,363.392 408.248,363.32 C404.072,361.952 400.4,360.8 400.4,358.208 C400.4,355.832 402.344,354.248 405.728,354.248 C408.896,354.248 412.784,355.616 416.456,357.848 L419.912,351.656 C415.88,348.992 410.696,347.336 405.944,347.336 C398.384,347.336 392.408,351.728 392.408,358.928 C392.408,366.344 398.672,368.648 404.288,370.304 L404.936,370.52 C409.112,371.744 412.784,372.752 412.784,375.56 C412.784,378.224 410.624,379.808 406.88,379.808 C402.992,379.808 398.528,378.224 394.424,375.128 L390.536,381.032 C395.288,384.776 401.264,386.72 406.664,386.72 Z" id="fwdays" fill="#FFFFFF"></path>
                <g id="Page-1" transform="translate(158.000000, 166.000000)">
                    <g id="Group-3" transform="translate(227.902440, 56.106034)" fill-rule="nonzero" fill="#FEFEFE">
                        <path d="M17.8199997,8.81822612 C17.8199997,13.6875887 13.8317244,17.6355928 8.91282256,17.6355928 C3.99131515,17.6355928 -8.52651283e-14,13.6875887 -8.52651283e-14,8.81822612 C-8.52651283e-14,3.94714458 3.99131515,1.84741111e-13 8.91282256,1.84741111e-13 C13.8317244,1.84741111e-13 17.8199997,3.94714458 17.8199997,8.81822612" id="Fill-1"></path>
                    </g>
                    <g id="Group-6" transform="translate(54.439024, 0.234300)">
                        <g id="Fill-4-Clipped">
                            <mask id="mask-2" fill="white">
                                <use xlink:href="#path-1"></use>
                            </mask>
                            <g id="path-3"></g>
                            <path d="M12.0667698,5.89932542 C12.0667698,9.1287791 9.4208604,11.7471164 6.15682322,11.7471164 C2.89365018,11.7471164 0.246876656,9.1287791 0.246876656,5.89932542 C0.246876656,2.67101188 2.89365018,0.050679335 6.15682322,0.050679335 C9.4208604,0.050679335 12.0667698,2.67101188 12.0667698,5.89932542" id="Fill-4" fill="#FEFEFE" fill-rule="nonzero" mask="url(#mask-2)"></path>
                        </g>
                    </g>
                    <path d="M11.819922,60.1179478 C11.819922,63.3476864 9.17401254,65.9663088 5.90911126,65.9663088 C2.64536214,65.9663088 2.88037166e-05,63.3476864 2.88037166e-05,60.1179478 C2.88037166e-05,56.8870688 2.64536214,54.2690166 5.90911126,54.2690166 C9.17401254,54.2690166 11.819922,56.8870688 11.819922,60.1179478" id="Fill-7" fill="#FEFEFE" fill-rule="nonzero"></path>
                    <path d="M67.8199997,60.8180113 C67.8199997,65.6872551 63.8309531,69.635163 58.9099998,69.635163 C53.9903495,69.635163 50,65.6872551 50,60.8180113 C50,55.9470483 53.9903495,52 58.9099998,52 C63.8309531,52 67.8199997,55.9470483 67.8199997,60.8180113" id="Fill-9" fill="#FEFEFE" fill-rule="nonzero"></path>
                    <path d="M11.819922,114.100618 C11.819922,117.329501 9.17401254,119.949264 5.90911126,119.949264 C2.64536214,119.949264 2.88037166e-05,117.329501 2.88037166e-05,114.100618 C2.88037166e-05,110.871734 2.64536214,108.254252 5.90911126,108.254252 C9.17401254,108.254252 11.819922,110.871734 11.819922,114.100618" id="Fill-11" fill="#FEFEFE" fill-rule="nonzero"></path>
                    <path d="M120.923849,114.100618 C120.923849,117.329501 118.279092,119.949264 115.013903,119.949264 C111.74929,119.949264 109.103956,117.329501 109.103956,114.100618 C109.103956,110.871734 111.74929,108.254252 115.013903,108.254252 C118.279092,108.254252 120.923849,110.871734 120.923849,114.100618" id="Fill-13" fill="#FEFEFE" fill-rule="nonzero"></path>
                    <path d="M157.29122,78.1119334 C157.29122,81.3425274 154.645599,83.9605796 151.380986,83.9605796 C148.116949,83.9605796 145.473344,81.3425274 145.473344,78.1119334 C145.473344,74.8816248 148.116949,72.2635724 151.380986,72.2635724 C154.645599,72.2635724 157.29122,74.8816248 157.29122,78.1119334" id="Fill-15" fill="#FEFEFE" fill-rule="nonzero"></path>
                    <path d="M193.658015,114.100618 C193.658015,117.329501 191.011242,119.949264 187.750661,119.949264 C184.486048,119.949264 181.838698,117.329501 181.838698,114.100618 C181.838698,110.871734 184.486048,108.254252 187.750661,108.254252 C191.011242,108.254252 193.658015,110.871734 193.658015,114.100618" id="Fill-17" fill="#FEFEFE" fill-rule="nonzero"></path>
                    <path d="M66.3714824,114.100618 C66.3714824,117.329501 63.725861,119.949264 60.4615358,119.949264 C57.198939,119.949264 54.5515894,117.329501 54.5515894,114.100618 C54.5515894,110.870309 57.198939,108.254252 60.4615358,108.254252 C63.725861,108.254252 66.3714824,110.870309 66.3714824,114.100618" id="Fill-19" fill="#FEFEFE" fill-rule="nonzero"></path>
                    <polygon id="Fill-21" fill="#FEFEFE" fill-rule="nonzero" points="29.457705 78.2857768 11.0411847 60.0608836 62.9719814 8.6743753 57.8348386 3.5887696 0.766610918 60.0608836 24.319122 83.3693872"></polygon>
                    <polygon id="Fill-23" fill="#FEFEFE" fill-rule="nonzero" points="36.7653808 95.6851782 57.8329952 116.535819 62.9730184 111.451069 41.9022356 90.6024228"></polygon>
                    <polygon id="Fill-25" fill="#FEFEFE" fill-rule="nonzero" points="187.565367 119.078993 151.233799 83.1237434 114.902807 119.078993 60.4030068 65.1476864 8.47278606 116.535905 3.33535516 111.450869 60.4030068 54.9776152 114.902807 108.908637 151.233799 72.9545274 187.565367 108.908637 239.49818 57.520133 244.634746 62.6034584"></polygon>
                </g>
            </g>
        </g>
    </g>
</svg>