<?xml version="1.0" encoding="UTF-8"?>
<svg width="92px" height="92px" viewBox="0 0 92 92" version="1.1" xmlns="http://www.w3.org/2000/svg" xmlns:xlink="http://www.w3.org/1999/xlink">
    <!-- Generator: Sketch 46.2 (44496) - http://www.bohemiancoding.com/sketch -->
    <title>fwdays_small</title>
    <desc>Created with Sketch.</desc>
    <defs>
        <linearGradient x1="49.9552721%" y1="99.3261596%" x2="49.9552721%" y2="0.0291280148%" id="linearGradient-1">
            <stop stop-color="#9ACA3C" offset="0%"></stop>
            <stop stop-color="#B7CA3F" offset="11.95%"></stop>
            <stop stop-color="#D1CA46" offset="26.87%"></stop>
            <stop stop-color="#E5CA4D" offset="42.57%"></stop>
            <stop stop-color="#F2C952" offset="59.19%"></stop>
            <stop stop-color="#FBC955" offset="77.37%"></stop>
            <stop stop-color="#FFC956" offset="100%"></stop>
        </linearGradient>
        <linearGradient x1="49.9944298%" y1="95.8230392%" x2="49.9944298%" y2="8.90343137%" id="linearGradient-2">
            <stop stop-color="#1F6AB4" offset="0%"></stop>
            <stop stop-color="#2B79B2" offset="8.371949%"></stop>
            <stop stop-color="#398DB1" offset="21.22%"></stop>
            <stop stop-color="#459FAF" offset="34.67%"></stop>
            <stop stop-color="#4EADAC" offset="48.71%"></stop>
            <stop stop-color="#55B7A8" offset="63.56%"></stop>
            <stop stop-color="#59BEA6" offset="79.79%"></stop>
            <stop stop-color="#5AC1A6" offset="100%"></stop>
        </linearGradient>
    </defs>
    <g id="Large" stroke="none" stroke-width="1" fill="none" fill-rule="evenodd">
        <g id="small" transform="translate(-802.000000, -56.000000)">
            <g id="Group" transform="translate(802.000000, 56.000000)">
                <rect id="Rectangle" x="0" y="0" width="92" height="92"></rect>
                <g id="fwdays-copy-8" transform="translate(14.000000, 19.000000)">
                    <path d="M6.16299048,50.3038095 L8.05059048,50.3038095 L8.05059048,43.6894095 L10.2033905,43.6894095 L10.2033905,42.1294095 L8.01939048,42.1294095 L8.01939048,41.6770095 C8.01939048,40.8190095 8.39379048,40.4290095 9.11139048,40.4290095 C9.51699048,40.4290095 9.84459048,40.5070095 10.2189905,40.6318095 L10.2189905,39.0406095 C9.79779048,38.9158095 9.34539048,38.8222095 8.69019048,38.8222095 C7.87899048,38.8222095 7.27059048,39.0406095 6.83379048,39.4774095 C6.39699048,39.9142095 6.16299048,40.6006095 6.16299048,41.5210095 L6.16299048,42.1138095 L5.11779048,42.1138095 L5.11779048,43.6894095 L6.16299048,43.6894095 L6.16299048,50.3038095 Z M13.5885905,50.3662095 L15.2733905,50.3662095 L17.1297905,44.7346095 L18.9705905,50.3662095 L20.6553905,50.3662095 L23.3541905,42.0670095 L21.4665905,42.0670095 L19.7817905,47.7142095 L17.9409905,42.0358095 L16.3341905,42.0358095 L14.5089905,47.7142095 L12.8553905,42.0670095 L10.9209905,42.0670095 L13.5885905,50.3662095 Z M28.1277905,50.4754095 C26.1933905,50.4754095 24.3057905,48.9310095 24.3057905,46.1698095 C24.3057905,43.4398095 26.1621905,41.8954095 28.1277905,41.8954095 C29.4849905,41.8954095 30.3429905,42.5818095 30.9357905,43.3462095 L30.9357905,38.9158095 L32.8233905,38.9158095 L32.8233905,50.3038095 L30.9357905,50.3038095 L30.9357905,48.9310095 C30.3273905,49.7890095 29.4693905,50.4754095 28.1277905,50.4754095 Z M28.5801905,48.8374095 C29.8437905,48.8374095 30.9669905,47.7766095 30.9669905,46.1698095 C30.9669905,44.5786095 29.8437905,43.5334095 28.5801905,43.5334095 C27.2853905,43.5334095 26.2089905,44.5318095 26.2089905,46.2010095 C26.2089905,47.7922095 27.3009905,48.8374095 28.5801905,48.8374095 Z M42.0897905,50.3038095 L40.2177905,50.3038095 L40.2177905,49.2898095 C39.6561905,49.9606095 38.7981905,50.4754095 37.5501905,50.4754095 C35.9901905,50.4754095 34.6173905,49.5862095 34.6173905,47.9014095 C34.6173905,46.0762095 36.0369905,45.2026095 37.9557905,45.2026095 C38.9541905,45.2026095 39.5937905,45.3430095 40.2333905,45.5458095 L40.2333905,45.3898095 C40.2333905,44.2510095 39.5157905,43.6270095 38.2053905,43.6270095 C37.2849905,43.6270095 36.5985905,43.8298095 35.8497905,44.1418095 L35.3349905,42.6286095 C36.2397905,42.2230095 37.1289905,41.9422095 38.4705905,41.9422095 C40.9041905,41.9422095 42.0897905,43.2214095 42.0897905,45.4210095 L42.0897905,50.3038095 Z M40.2645905,47.3242095 L40.2645905,46.8562095 C39.7809905,46.6690095 39.1101905,46.5286095 38.3769905,46.5286095 C37.1913905,46.5286095 36.4893905,47.0122095 36.4893905,47.8390095 C36.4893905,48.6190095 37.1913905,49.0558095 38.0805905,49.0558095 C39.3285905,49.0558095 40.2645905,48.3538095 40.2645905,47.3242095 Z M45.7089905,52.8466095 C47.0349905,52.8466095 47.7681905,52.2226095 48.4233905,50.5378095 L51.6993905,42.0670095 L49.7337905,42.0670095 L47.5965905,48.1822095 L45.2565905,42.0670095 L43.2441905,42.0670095 L46.6761905,50.3038095 C46.3641905,51.0214095 46.0365905,51.2554095 45.5061905,51.2554095 C45.1161905,51.2554095 44.7417905,51.1306095 44.3985905,50.9434095 L43.7589905,52.3474095 C44.3361905,52.6594095 44.9133905,52.8466095 45.7089905,52.8466095 Z M55.8333905,50.4598095 C57.5493905,50.4598095 58.8909905,49.6018095 58.8909905,47.8702095 C58.8909905,46.3570095 57.5337905,45.8110095 56.3325905,45.4366095 C56.2857905,45.4210095 56.2233905,45.4054095 56.1765905,45.3898095 C55.2717905,45.0934095 54.4761905,44.8438095 54.4761905,44.2822095 C54.4761905,43.7674095 54.8973905,43.4242095 55.6305905,43.4242095 C56.3169905,43.4242095 57.1593905,43.7206095 57.9549905,44.2042095 L58.7037905,42.8626095 C57.8301905,42.2854095 56.7069905,41.9266095 55.6773905,41.9266095 C54.0393905,41.9266095 52.7445905,42.8782095 52.7445905,44.4382095 C52.7445905,46.0450095 54.1017905,46.5442095 55.3185905,46.9030095 L55.4589905,46.9498095 C56.3637905,47.2150095 57.1593905,47.4334095 57.1593905,48.0418095 C57.1593905,48.6190095 56.6913905,48.9622095 55.8801905,48.9622095 C55.0377905,48.9622095 54.0705905,48.6190095 53.1813905,47.9482095 L52.3389905,49.2274095 C53.3685905,50.0386095 54.6633905,50.4598095 55.8333905,50.4598095 Z" id="fwdays" fill="#121314"></path>
                    <g id="logo">
                        <polygon id="Shape" fill="url(#linearGradient-1)" points="14.0195212 28.4472902 0 14.5544275 14.0195212 0.661564889 15.2940232 1.89877715 2.52299362 14.5544275 15.2940232 27.1843027"></polygon>
                        <polygon id="Shape" fill="url(#linearGradient-2)" points="46.3370404 29.77042 37.3338655 20.8717236 28.3306905 29.77042 14.8128039 16.4094036 1.95112538 29.1477707 0.664957529 27.8765283 14.8128039 13.8928627 28.3306905 27.253879 37.3338655 18.3551827 46.3370404 27.253879 59.2249673 14.5414557 60.5111351 15.7867543"></polygon>
                        <path d="M15.9589807,1.32312978 C15.9589807,2.05557662 15.3652686,2.64625955 14.6290656,2.64625955 C13.8928627,2.64625955 13.2991506,2.05557662 13.2991506,1.32312978 C13.2991506,0.590682936 13.8928627,0 14.6290656,0 C15.3652686,0 15.9589807,0.590682936 15.9589807,1.32312978 L15.9589807,1.32312978 Z" id="Shape" fill="#F4772E"></path>
                        <ellipse id="Oval" fill="#C1B32D" cx="1.32991506" cy="14.5544275" rx="1.32991506" ry="1.32312978"></ellipse>
                        <ellipse id="Oval" fill="#1363A5" cx="1.32991506" cy="28.4472902" rx="1.32991506" ry="1.32312978"></ellipse>
                        <ellipse id="Oval" fill="#32BCA9" cx="14.9615444" cy="15.2159924" rx="1.99487259" ry="1.98469467"></ellipse>
                        <ellipse id="Oval" fill="#1363A5" cx="28.5931737" cy="28.4472902" rx="1.32991506" ry="1.32312978"></ellipse>
                        <ellipse id="Oval" fill="#32BCA9" cx="37.2376216" cy="19.8469467" rx="1.32991506" ry="1.32312978"></ellipse>
                        <ellipse id="Oval" fill="#1363A5" cx="46.5045435" cy="28.4472902" rx="1.32991506" ry="1.32312978"></ellipse>
                        <ellipse id="Oval" fill="#32BCA9" cx="59.1812201" cy="15.8775573" rx="1.99487259" ry="1.98469467"></ellipse>
                        <path d="M16.6239382,28.4472902 C16.6239382,29.179737 16.0302261,29.77042 15.2940232,29.77042 C14.5578202,29.77042 13.9641081,29.179737 13.9641081,28.4472902 C13.9641081,27.7148434 14.5578202,27.1241604 15.2940232,27.1241604 C16.0302261,27.1241604 16.6239382,27.7148434 16.6239382,28.4472902 L16.6239382,28.4472902 Z" id="Shape" fill="#4CB748"></path>
                    </g>
                </g>
            </g>
        </g>
    </g>
</svg>