<?xml version="1.0" encoding="UTF-8"?>
<svg width="92px" height="92px" viewBox="0 0 92 92" version="1.1" xmlns="http://www.w3.org/2000/svg" xmlns:xlink="http://www.w3.org/1999/xlink">
    <!-- Generator: Sketch 46.2 (44496) - http://www.bohemiancoding.com/sketch -->
    <title>itsat-small</title>
    <desc>Created with Sketch.</desc>
    <defs></defs>
    <g id="Large" stroke="none" stroke-width="1" fill="none" fill-rule="evenodd">
        <g id="small" transform="translate(-921.000000, -56.000000)">
            <g id="Group" transform="translate(921.000000, 56.000000)">
                <rect id="Rectangle" x="0" y="0" width="92" height="92"></rect>
                <g id="Page-1" transform="translate(16.000000, 18.000000)" fill="#0139E1">
                    <g id="Group-22" transform="translate(0.000000, 0.032304)">
                        <path d="M35.4840525,12.4595599 L35.4840525,16.3685955 L30.0598739,16.3685955 C29.9454193,16.3685955 29.8885865,16.4261421 29.8885865,16.5398455 L29.8885865,29.5877065 L25.9795884,29.5877065 L25.9795884,16.5398455 C25.9795884,16.4261421 25.9219667,16.3685955 25.8083009,16.3685955 L20.3595186,16.3685955 L20.3595186,12.4595599 L35.4840525,12.4595599 Z" id="Fill-2"></path>
                        <path d="M6.2723295,35.6007421 L36.2279923,35.6007421 L46.7283277,42.7485759 L46.6371247,35.6007421 L54.6095425,35.6007421 L54.6095425,6.26828771 L6.2723295,6.26828771 L6.2723295,35.6007421 Z M53.1441706,54.691783 L34.2994681,41.8635906 L0.00948091203,41.8635906 L0.00948091203,0.00540156557 L60.8724286,0.00540156557 L60.8724286,41.8635906 L52.9799825,41.8635906 L53.1441706,54.691783 Z" id="Fill-4"></path>
                        <path d="M4.7066042,50.0298638 L4.53411471,50.1650907 C4.02352027,50.5605169 3.43798755,50.7580234 2.77755413,50.7580234 C2.41206573,50.7580234 2.06299237,50.6930769 1.7302965,50.5628458 C1.39737525,50.4328777 1.10096528,50.2450625 0.840690951,49.999926 C0.570537546,49.74461 0.362663667,49.4518061 0.217557632,49.1214767 C0.0724515972,48.7913727 -7.51260859e-06,48.443614 -7.51260859e-06,48.0781632 C-7.51260859e-06,47.7129002 0.0724515972,47.3664187 0.217557632,47.0384557 C0.362663667,46.7107557 0.570537546,46.419229 0.840690951,46.1639505 C1.10096528,45.9138558 1.39737525,45.7236365 1.7302965,45.593443 C2.06299237,45.4634373 2.41206573,45.398303 2.77755413,45.398303 C3.43302923,45.398303 4.01600766,45.5960349 4.5266021,45.9912357 L4.69931697,46.1188749 L4.27883627,47.3799789 L3.9409567,47.0647499 C3.78570864,46.9196438 3.60938772,46.809509 3.41184368,46.734458 C3.21396157,46.6594071 3.00263189,46.6218816 2.77755413,46.6218816 C2.55221344,46.6218816 2.34069594,46.6607218 2.14322703,46.7381016 C1.94545761,46.8159323 1.7689113,46.927194 1.61385106,47.0723376 C1.31375991,47.3575538 1.16347018,47.6928415 1.16347018,48.0781632 C1.16347018,48.2683073 1.2022728,48.4496617 1.27987805,48.622339 C1.35729548,48.7950539 1.46874503,48.9490248 1.61385106,49.0839888 C1.7689113,49.2293202 1.94545761,49.3405444 2.14322703,49.4181872 C2.34069594,49.4957924 2.55221344,49.5344072 2.77755413,49.5344072 C3.00263189,49.5344072 3.21523871,49.4957924 3.41552485,49.4181872 C3.61562318,49.3405444 3.79329638,49.2293202 3.94850687,49.0839888 L4.28638644,48.7687597 L4.7066042,50.0298638 Z" id="Fill-7"></path>
                        <path d="M9.86385599,45.5483824 L9.72111643,45.946175 C9.72111643,45.9513587 9.69872885,46.0151783 9.65361564,46.1376714 C9.60857755,46.2603148 9.55227055,46.419244 9.48458194,46.6143464 C9.41708116,46.8094864 9.34075305,47.0285541 9.25582301,47.2710987 C9.17066759,47.5138686 9.08419747,47.7543097 8.99667558,47.9919335 C8.90911613,48.2295197 8.82655256,48.4548229 8.74890975,48.6674297 C8.6713045,48.8802243 8.60748489,49.0540285 8.5576763,49.1892179 C8.42248691,49.5343847 8.26596171,49.8123512 8.08847633,50.0223286 C7.91061532,50.232569 7.71938187,50.3927754 7.51409984,50.5029102 C7.30881781,50.6128948 7.09388208,50.6855793 6.86857895,50.7204754 C6.64350119,50.7556344 6.41556865,50.7731012 6.18553257,50.7731012 L5.88517848,50.7731012 L5.88517848,49.5719102 L6.18553257,49.5719102 C6.44554396,49.5719102 6.66329692,49.5320558 6.83860364,49.4518211 L5.44227264,45.5483824 L6.71096442,45.5483824 L7.64932679,48.1758046 L8.59520178,45.5483824 L9.86385599,45.5483824 Z" id="Fill-10"></path>
                        <path d="M11.8455657,48.7387807 C11.80049,48.7387807 11.7780649,48.7637977 11.7780649,48.8138316 L11.7780649,49.496878 C11.7780649,49.5419537 11.80049,49.5645666 11.8455657,49.5645666 L13.3317475,49.5645666 C13.4469158,49.5645666 13.5445797,49.5232097 13.6245514,49.4406086 C13.7045607,49.3580074 13.7420862,49.2592542 13.7373157,49.1441235 C13.7373157,49.0290303 13.6970481,48.9328314 13.6170388,48.8552261 C13.5370295,48.7775833 13.4393656,48.7387807 13.3244227,48.7387807 L11.8455657,48.7387807 Z M13.3168725,47.5375897 C13.5370295,47.5375897 13.7459927,47.5802989 13.943687,47.6652665 C14.1413813,47.7504219 14.3139084,47.8655526 14.4616062,48.0106587 C14.6092666,48.1557647 14.7254866,48.3258877 14.8106796,48.5210277 C14.895835,48.7161302 14.9383188,48.9263705 14.9383188,49.1516736 C14.9383188,49.3718682 14.8971122,49.5807563 14.8145486,49.7784881 C14.731985,49.9761824 14.6166289,50.1488973 14.4691564,50.2963698 C14.3214585,50.4440677 14.1500208,50.5605131 13.9548808,50.6454807 C13.7597784,50.7305986 13.5521299,50.7730824 13.3317475,50.7730824 L10.5769115,50.7730824 L10.5769115,45.5259761 L14.5254259,45.5259761 L14.5254259,46.7495546 L11.8455657,46.7495546 C11.80049,46.7495546 11.7780649,46.7745716 11.7780649,46.824568 L11.7780649,47.4701265 C11.7780649,47.5152021 11.80049,47.5375897 11.8455657,47.5375897 L13.3168725,47.5375897 Z" id="Fill-12"></path>
                        <path d="M16.8824955,48.7387807 C16.8374199,48.7387807 16.8149947,48.7637977 16.8149947,48.8138316 L16.8149947,49.496878 C16.8149947,49.5419537 16.8374199,49.5645666 16.8824955,49.5645666 L18.3686773,49.5645666 C18.4838456,49.5645666 18.5815095,49.5232097 18.6614812,49.4406086 C18.7414905,49.3580074 18.7789784,49.2592542 18.7742831,49.1441235 C18.7742831,49.0290303 18.7339404,48.9328314 18.6539686,48.8552261 C18.5739594,48.7775833 18.4762954,48.7387807 18.3613525,48.7387807 L16.8824955,48.7387807 Z M18.3538399,47.5375897 C18.5739594,47.5375897 18.782885,47.5802989 18.9805793,47.6652665 C19.1783112,47.7504219 19.3508006,47.8655526 19.4985361,48.0106587 C19.6461964,48.1557647 19.7624165,48.3258877 19.8476095,48.5210277 C19.9327649,48.7161302 19.9752111,48.9263705 19.9752111,49.1516736 C19.9752111,49.3718682 19.934042,49.5807563 19.8514784,49.7784881 C19.7689149,49.9761824 19.6535588,50.1488973 19.5060487,50.2963698 C19.3583508,50.4440677 19.1869882,50.5605131 18.9918106,50.6454807 C18.7966706,50.7305986 18.5890597,50.7730824 18.3686773,50.7730824 L15.6138413,50.7730824 L15.6138413,45.5259761 L19.5623181,45.5259761 L19.5623181,46.7495546 L16.8824955,46.7495546 C16.8374199,46.7495546 16.8149947,46.7745716 16.8149947,46.824568 L16.8149947,47.4701265 C16.8149947,47.5152021 16.8374199,47.5375897 16.8824955,47.5375897 L18.3538399,47.5375897 Z" id="Fill-14"></path>
                        <path d="M24.066281,48.0781632 C24.066281,47.8379475 24.0612851,47.6115551 24.051406,47.3987604 C24.041264,47.1861536 24.0011467,47.0197118 23.9312794,46.8996227 C23.921175,46.8795641 23.9023934,46.8534577 23.8747846,46.8207028 C23.8474387,46.788361 23.7984941,46.7557938 23.7286268,46.7232642 C23.6583464,46.6906595 23.5634245,46.6620365 23.4433355,46.6367941 C23.3230586,46.6120025 23.1628523,46.5992686 22.9627539,46.5992686 C22.7676515,46.5992686 22.6087222,46.6120025 22.4862667,46.6367941 C22.3633604,46.6620365 22.2685138,46.6906595 22.201013,46.7232642 C22.1332868,46.7557938 22.0856193,46.788361 22.0582734,46.8207028 C22.0307021,46.8534577 22.0119206,46.8795641 22.002004,46.8996227 C21.9319113,47.0197118 21.891794,47.1824724 21.8819149,47.3875291 C21.8717729,47.5928111 21.866777,47.8129306 21.866777,48.0481879 L21.866777,48.0631004 C21.866777,48.3034663 21.8717729,48.5298588 21.8819149,48.7424656 C21.891794,48.9552978 21.9319113,49.1214767 22.002004,49.2418287 C22.0119206,49.2567037 22.0307021,49.2819085 22.0582734,49.3168421 C22.0856193,49.3517757 22.1332868,49.3856576 22.201013,49.4181872 C22.2685138,49.4507544 22.3633604,49.479415 22.4862667,49.5044319 C22.6087222,49.5296743 22.7676515,49.5419574 22.9627539,49.5419574 C23.1628523,49.5419574 23.3230586,49.5296743 23.4433355,49.5044319 C23.5634245,49.479415 23.6583464,49.4507544 23.7286268,49.4181872 C23.7984941,49.3856576 23.8474387,49.3517757 23.8747846,49.3168421 C23.9023934,49.2819085 23.921175,49.2567037 23.9312794,49.2418287 C24.0011467,49.1214767 24.041264,48.9589414 24.051406,48.7536594 C24.0612851,48.5486027 24.066281,48.3258915 24.066281,48.0856758 L24.066281,48.0781632 Z M24.9897308,46.2991399 C25.1348369,46.5593767 25.2198045,46.838395 25.2448215,47.1361572 C25.2698009,47.4339194 25.2823094,47.7478338 25.2823094,48.0781632 L25.2823094,48.5887201 L25.2749846,48.5887201 C25.2648426,48.8138354 25.2411403,49.0315884 25.2036148,49.2418287 C25.1660893,49.4518061 25.0947196,49.6520923 24.9897308,49.8423115 C24.8045075,50.167645 24.5393124,50.4029024 24.1939202,50.5480084 C23.8836495,50.6930769 23.4733484,50.7655735 22.9627539,50.7655735 C22.4623391,50.7655735 22.0520004,50.6930769 21.7318506,50.5480084 C21.3913791,50.3977187 21.1285505,50.1624613 20.9435526,49.8423115 C20.7982211,49.5820372 20.7132535,49.3017418 20.6882365,49.0014252 C20.6632571,48.7012965 20.6507486,48.3884339 20.6507486,48.0631004 L20.6507486,47.5526938 L20.6582988,47.5526938 C20.6682154,47.3273907 20.690866,47.1098631 20.725762,46.8996227 C20.7607332,46.6893824 20.8333801,46.4893216 20.9435526,46.2991399 C21.1285505,45.978915 21.3913791,45.7435074 21.7318506,45.593443 C22.0520004,45.448337 22.4623391,45.3756525 22.9627539,45.3756525 C23.4733484,45.3756525 23.8836495,45.448337 24.1939202,45.593443 C24.5393124,45.7385491 24.8045075,45.9738064 24.9897308,46.2991399 L24.9897308,46.2991399 Z" id="Fill-16"></path>
                        <path d="M30.5299116,45.5184109 L30.5299116,46.7193765 L28.8634272,46.7193765 C28.8282682,46.7193765 28.8108013,46.7370311 28.8108013,46.7719647 L28.8108013,50.7806551 L27.6096855,50.7806551 L27.6096855,46.7719647 C27.6096855,46.7370311 27.5921811,46.7193765 27.5572099,46.7193765 L25.8832505,46.7193765 L25.8832505,45.5184109 L30.5299116,45.5184109 Z" id="Fill-18"></path>
                        <path d="M32.0984654,48.8964065 C32.0883233,48.9214235 32.0909527,48.944074 32.1057901,48.9639073 C32.120928,48.9839284 32.1409492,48.9941079 32.1659661,48.9941079 L33.4645957,48.9941079 C33.5295422,48.9941079 33.5521175,48.9615032 33.5320964,48.8964065 L32.886538,47.0947327 C32.871663,47.0597991 32.8464582,47.0421444 32.811487,47.0421444 C32.7763656,47.0421444 32.753978,47.0597991 32.7440238,47.0947327 L32.0984654,48.8964065 Z M35.48406,50.7806438 L34.207818,50.7806438 L34.0127156,50.2476618 C34.002536,50.2127282 33.979923,50.195036 33.9449894,50.195036 L31.6780973,50.195036 C31.6480845,50.195036 31.6253964,50.2127282 31.610559,50.2476618 L31.4227813,50.7806438 L30.1465394,50.7806438 L32.0383269,45.5183996 L33.5922724,45.5183996 L35.48406,50.7806438 Z" id="Fill-20"></path>
                    </g>
                    <polygon id="Fill-1" points="13.6650594 29.6199994 17.5748087 29.6199994 17.5748087 12.4918529 13.6650594 12.4918529"></polygon>
                </g>
            </g>
        </g>
    </g>
</svg>