<?xml version="1.0" encoding="UTF-8"?>
<svg width="580px" height="580px" viewBox="0 0 580 580" version="1.1" xmlns="http://www.w3.org/2000/svg" xmlns:xlink="http://www.w3.org/1999/xlink">
    <!-- Generator: Sketch 46.2 (44496) - http://www.bohemiancoding.com/sketch -->
    <title>itsut_big</title>
    <desc>Created with Sketch.</desc>
    <defs></defs>
    <g id="Large" stroke="none" stroke-width="1" fill="none" fill-rule="evenodd">
        <g id="big-copy" transform="translate(-3271.000000, -777.000000)">
            <g id="Group-Copy-11" transform="translate(3271.000000, 777.000000)">
                <rect id="Rectangle-11" x="0" y="0" width="580" height="580"></rect>
                <g id="Page-1" transform="translate(132.000000, 170.000000)" fill="#FFFFFF">
                    <g id="Group-22" transform="translate(0.000000, 0.161283)">
                        <path d="M177.158916,62.2060328 L177.158916,81.7224202 L150.077974,81.7224202 C149.506544,81.7224202 149.222798,82.0097293 149.222798,82.5774085 L149.222798,147.720614 L129.706598,147.720614 L129.706598,82.5774085 C129.706598,82.0097293 129.418914,81.7224202 128.851422,81.7224202 L101.647642,81.7224202 L101.647642,62.2060328 L177.158916,62.2060328 Z" id="Fill-2"></path>
                        <path d="M31.3154507,177.741505 L180.873136,177.741505 L233.297477,213.428029 L232.842133,177.741505 L272.645504,177.741505 L272.645504,31.2952716 L31.3154507,31.2952716 L31.3154507,177.741505 Z M265.329437,273.056101 L171.244719,209.009621 L0.0473347316,209.009621 L0.0473347316,0.0269680444 L303.913807,0.0269680444 L303.913807,209.009621 L264.509706,209.009621 L265.329437,273.056101 Z" id="Fill-4"></path>
                        <path d="M23.4983561,249.78084 L22.637179,250.455979 C20.0879674,252.430198 17.1646164,253.416275 13.8673135,253.416275 C12.0425634,253.416275 10.2997676,253.092021 8.63873856,252.441825 C6.97658433,251.792942 5.49671758,250.855249 4.19726292,249.631372 C2.84848563,248.356673 1.81064725,246.89481 1.08618581,245.245596 C0.361724368,243.597507 -3.75077113e-05,241.861275 -3.75077113e-05,240.036712 C-3.75077113e-05,238.213087 0.361724368,236.483232 1.08618581,234.845832 C1.81064725,233.209746 2.84848563,231.754259 4.19726292,230.479747 C5.49671758,229.231116 6.97658433,228.28142 8.63873856,227.631412 C10.2997676,226.982341 12.0425634,226.657149 13.8673135,226.657149 C17.1398613,226.657149 20.0504597,227.644352 22.5996713,229.617445 L23.4619736,230.254701 L21.362667,236.550933 L19.6757577,234.977109 C18.9006608,234.252648 18.0203548,233.702785 17.0340896,233.328083 C16.0461365,232.953381 14.9910445,232.76603 13.8673135,232.76603 C12.7422697,232.76603 11.6862401,232.959945 10.7003499,233.346274 C9.71295941,233.734854 8.83152819,234.290343 8.05736903,235.014992 C6.5591235,236.438972 5.80878174,238.112942 5.80878174,240.036712 C5.80878174,240.986032 6.00250907,241.891468 6.38996373,242.753583 C6.77648069,243.615886 7.33290759,244.384606 8.05736903,245.058432 C8.83152819,245.784019 9.71295941,246.33932 10.7003499,246.726963 C11.6862401,247.114417 12.7422697,247.307207 13.8673135,247.307207 C14.9910445,247.307207 16.0525128,247.114417 17.0524684,246.726963 C18.0514862,246.33932 18.9385436,245.784019 19.7134529,245.058432 L21.4003622,243.484609 L23.4983561,249.78084 Z" id="Fill-7"></path>
                        <path d="M49.246631,227.40644 L48.5339845,229.392474 C48.5339845,229.418354 48.4222115,229.736982 48.1969777,230.348545 C47.9721189,230.960859 47.6909986,231.754334 47.3530542,232.72841 C47.0160474,233.702672 46.634969,234.796397 46.2109444,236.007334 C45.7857944,237.219395 45.3540807,238.41983 44.9171159,239.606199 C44.4799635,240.79238 44.0677537,241.917236 43.6801115,242.978705 C43.2926569,244.04111 42.9740289,244.908851 42.7253527,245.583803 C42.0504015,247.307094 41.2689283,248.69488 40.3828086,249.74322 C39.4948136,250.792874 38.5400548,251.592725 37.5151566,252.142589 C36.4902584,252.691701 35.4171627,253.054589 34.2923065,253.228812 C33.1685754,253.404348 32.0305915,253.491553 30.8821054,253.491553 L29.3825471,253.491553 L29.3825471,247.494445 L30.8821054,247.494445 C32.1802473,247.494445 33.2674083,247.295467 34.1426507,246.894885 L27.17128,227.40644 L33.5053947,227.40644 L38.1902954,240.5242 L42.9127038,227.40644 L49.246631,227.40644 Z" id="Fill-10"></path>
                        <path d="M59.1405838,243.334934 C58.9155376,243.334934 58.8035771,243.459835 58.8035771,243.709636 L58.8035771,247.119837 C58.8035771,247.344883 58.9155376,247.457782 59.1405838,247.457782 L66.5605468,247.457782 C67.13554,247.457782 67.6231403,247.251302 68.0224099,246.838904 C68.421867,246.426507 68.609218,245.933468 68.5854006,245.358663 C68.5854006,244.784044 68.3843593,244.303758 67.9849022,243.916304 C67.585445,243.528661 67.0978448,243.334934 66.5239768,243.334934 L59.1405838,243.334934 Z M66.4862816,237.337826 C67.585445,237.337826 68.628722,237.551057 69.6157374,237.97527 C70.6027529,238.400419 71.4641175,238.975225 72.2015191,239.699687 C72.9387331,240.424148 73.5189774,241.27351 73.9443149,242.247773 C74.3694648,243.221848 74.5815709,244.271502 74.5815709,245.396358 C74.5815709,246.495709 74.3758411,247.538611 73.9636313,248.525814 C73.5514216,249.512829 72.9754907,250.375131 72.2392143,251.111408 C71.5018127,251.848809 70.6458867,252.430179 69.6716239,252.854391 C68.6975487,253.279353 67.6608355,253.49146 66.5605468,253.49146 L52.8066566,253.49146 L52.8066566,227.294574 L72.5201471,227.294574 L72.5201471,233.403455 L59.1405838,233.403455 C58.9155376,233.403455 58.8035771,233.528355 58.8035771,233.777969 L58.8035771,237.001007 C58.8035771,237.226053 58.9155376,237.337826 59.1405838,237.337826 L66.4862816,237.337826 Z" id="Fill-12"></path>
                        <path d="M84.2881352,243.334934 C84.063089,243.334934 83.9511284,243.459835 83.9511284,243.709636 L83.9511284,247.119837 C83.9511284,247.344883 84.063089,247.457782 84.2881352,247.457782 L91.7080982,247.457782 C92.2830914,247.457782 92.7706917,247.251302 93.1699613,246.838904 C93.5694184,246.426507 93.7565819,245.933468 93.7331395,245.358663 C93.7331395,244.784044 93.5317231,244.303758 93.1324535,243.916304 C92.7329964,243.528661 92.2453962,243.334934 91.6715282,243.334934 L84.2881352,243.334934 Z M91.6340205,237.337826 C92.7329964,237.337826 93.7760859,237.551057 94.7631013,237.97527 C95.7503043,238.400419 96.6114813,238.975225 97.3490705,239.699687 C98.0862845,240.424148 98.6665288,241.27351 99.0918663,242.247773 C99.5170162,243.221848 99.7289347,244.271502 99.7289347,245.396358 C99.7289347,246.495709 99.5233925,247.538611 99.1111827,248.525814 C98.698973,249.512829 98.1230421,250.375131 97.3865782,251.111408 C96.6491766,251.848809 95.7936257,252.430179 94.8191753,252.854391 C93.8449125,253.279353 92.8083869,253.49146 91.7080982,253.49146 L77.954208,253.49146 L77.954208,227.294574 L97.6675109,227.294574 L97.6675109,233.403455 L84.2881352,233.403455 C84.063089,233.403455 83.9511284,233.528355 83.9511284,233.777969 L83.9511284,237.001007 C83.9511284,237.226053 84.063089,237.337826 84.2881352,237.337826 L91.6340205,237.337826 Z" id="Fill-14"></path>
                        <path d="M120.154153,240.036712 C120.154153,238.837403 120.12921,237.707108 120.079887,236.644702 C120.029252,235.583234 119.828961,234.752251 119.480139,234.15269 C119.429691,234.052544 119.335922,233.922205 119.198081,233.758671 C119.061553,233.597201 118.81719,233.434605 118.468369,233.272196 C118.117484,233.109413 117.643574,232.966509 117.044013,232.840483 C116.443515,232.716707 115.643663,232.653132 114.644645,232.653132 C113.67057,232.653132 112.877094,232.716707 112.265718,232.840483 C111.652092,232.966509 111.178557,233.109413 110.841551,233.272196 C110.503419,233.434605 110.265432,233.597201 110.128904,233.758671 C109.991251,233.922205 109.897482,234.052544 109.847971,234.15269 C109.498024,234.752251 109.297733,235.564855 109.248411,236.588628 C109.197775,237.613526 109.172833,238.712502 109.172833,239.887056 L109.172833,239.961509 C109.172833,241.161568 109.197775,242.291863 109.248411,243.353332 C109.297733,244.415925 109.498024,245.245596 109.847971,245.846469 C109.897482,245.920734 109.991251,246.046573 110.128904,246.220984 C110.265432,246.395394 110.503419,246.564554 110.841551,246.726963 C111.178557,246.889559 111.652092,247.03265 112.265718,247.157551 C112.877094,247.283577 113.67057,247.344902 114.644645,247.344902 C115.643663,247.344902 116.443515,247.283577 117.044013,247.157551 C117.643574,247.03265 118.117484,246.889559 118.468369,246.726963 C118.81719,246.564554 119.061553,246.395394 119.198081,246.220984 C119.335922,246.046573 119.429691,245.920734 119.480139,245.846469 C119.828961,245.245596 120.029252,244.434116 120.079887,243.409218 C120.12921,242.385445 120.154153,241.273529 120.154153,240.07422 L120.154153,240.036712 Z M124.764601,231.154699 C125.489062,232.453966 125.913274,233.847002 126.038175,235.33362 C126.162888,236.820238 126.225338,238.387498 126.225338,240.036712 L126.225338,242.585736 L126.188768,242.585736 C126.138133,243.709655 126.019796,244.796816 125.832445,245.846469 C125.645094,246.89481 125.288771,247.894765 124.764601,248.84446 C123.839848,250.468732 122.515826,251.643286 120.791409,252.367747 C119.24234,253.092021 117.193857,253.453971 114.644645,253.453971 C112.146256,253.453971 110.097585,253.092021 108.499194,252.367747 C106.799345,251.617406 105.487137,250.442852 104.56351,248.84446 C103.837923,247.545006 103.413711,246.145593 103.28881,244.646222 C103.164097,243.147789 103.101647,241.585781 103.101647,239.961509 L103.101647,237.413235 L103.139342,237.413235 C103.188852,236.288379 103.301938,235.202343 103.476161,234.15269 C103.65076,233.103037 104.013459,232.104206 104.56351,231.154699 C105.487137,229.555932 106.799345,228.380628 108.499194,227.631412 C110.097585,226.90695 112.146256,226.544063 114.644645,226.544063 C117.193857,226.544063 119.24234,226.90695 120.791409,227.631412 C122.515826,228.355873 123.839848,229.530427 124.764601,231.154699 L124.764601,231.154699 Z" id="Fill-16"></path>
                        <path d="M152.4247,227.256803 L152.4247,233.252786 L144.104552,233.252786 C143.929016,233.252786 143.84181,233.340929 143.84181,233.51534 L143.84181,253.529267 L137.845077,253.529267 L137.845077,233.51534 C137.845077,233.340929 137.757684,233.252786 137.583086,233.252786 L129.225618,233.252786 L129.225618,227.256803 L152.4247,227.256803 Z" id="Fill-18"></path>
                        <path d="M160.255916,244.121902 C160.205281,244.246803 160.218408,244.359888 160.292486,244.458909 C160.368064,244.558867 160.468022,244.60969 160.592923,244.60969 L167.076506,244.60969 C167.40076,244.60969 167.513471,244.446906 167.413513,244.121902 L164.190475,235.126803 C164.11621,234.952392 163.990371,234.864249 163.815773,234.864249 C163.640424,234.864249 163.528651,234.952392 163.478954,235.126803 L160.255916,244.121902 Z M177.158954,253.529211 L170.787144,253.529211 L169.813068,250.868227 C169.762246,250.693816 169.649347,250.605485 169.474936,250.605485 L158.157172,250.605485 C158.007329,250.605485 157.894056,250.693816 157.819978,250.868227 L156.882473,253.529211 L150.510663,253.529211 L159.955667,227.256747 L167.713949,227.256747 L177.158954,253.529211 Z" id="Fill-20"></path>
                    </g>
                    <polygon id="Fill-1" points="68.2246514 147.881841 87.7446021 147.881841 87.7446021 62.3672597 68.2246514 62.3672597"></polygon>
                </g>
            </g>
        </g>
    </g>
</svg>