<?xml version="1.0" encoding="UTF-8"?>
<svg width="92px" height="92px" viewBox="0 0 92 92" version="1.1" xmlns="http://www.w3.org/2000/svg" xmlns:xlink="http://www.w3.org/1999/xlink">
    <!-- Generator: Sketch 46.2 (44496) - http://www.bohemiancoding.com/sketch -->
    <title>java-small</title>
    <desc>Created with Sketch.</desc>
    <defs>
        <linearGradient x1="49.9996578%" y1="34.8779411%" x2="49.9996578%" y2="87.4674675%" id="linearGradient-1">
            <stop stop-color="#E88F93" offset="0%"></stop>
            <stop stop-color="#E02328" offset="100%"></stop>
        </linearGradient>
    </defs>
    <g id="Large" stroke="none" stroke-width="1" fill="none" fill-rule="evenodd">
        <g id="small" transform="translate(-1491.000000, -56.000000)">
            <g id="Group-2" transform="translate(1491.000000, 56.000000)">
                <rect id="Rectangle" x="0" y="0" width="92" height="92"></rect>
                <g id="джава-01" transform="translate(11.000000, 11.000000)" fill-rule="nonzero">
                    <polygon id="Shape" fill="url(#linearGradient-1)" points="47.8833333 11.955 37.51 22.3266667 30.2533333 15.07 22.9966667 22.3266667 12.1116667 11.4416667 6.66833333 16.885 2.25333333 12.4666667 12.625 2.095 11.5983333 1.07 0.2 12.4666667 5.64166667 17.91 0.713333333 22.84 1.73833333 23.865 6.66833333 18.9366667 11.5983333 23.865 12.625 22.84 7.695 17.91 12.1116667 13.495 22.9966667 24.38 30.2533333 17.1233333 37.51 24.38 48.91 12.9816667"></polygon>
                    <circle id="Oval" fill="#EA5E6D" cx="12.1383333" cy="1.58333333" r="1.18"></circle>
                    <circle id="Oval" fill="#E44955" cx="1.22666667" cy="12.4666667" r="1.18"></circle>
                    <circle id="Oval" fill="#E44955" cx="12.1383333" cy="12.4666667" r="1.18"></circle>
                    <circle id="Oval" fill="#E44955" cx="48.3516667" cy="12.4666667" r="1.17833333"></circle>
                    <circle id="Oval" fill="#E02328" cx="1.22666667" cy="23.3533333" r="1.18"></circle>
                    <circle id="Oval" fill="#E02328" cx="22.9966667" cy="23.3533333" r="1.18"></circle>
                    <circle id="Oval" fill="#E44955" cx="30.2533333" cy="16.0966667" r="1.18"></circle>
                    <circle id="Oval" fill="#E02328" cx="37.5116667" cy="23.3533333" r="1.17833333"></circle>
                    <circle id="Oval" fill="#E02328" cx="12.1116667" cy="23.3533333" r="1.18"></circle>
                    <g id="Group" transform="translate(3.333333, 33.333333)" fill="#26231E">
                        <path d="M1.19833333,11.8766667 C0.78,11.8766667 0.38,11.8383333 0.00333333333,11.7533333 L0.00333333333,9.96666667 C0.128333333,9.98833333 0.26,10.015 0.4,10.045 C0.54,10.075 0.691666667,10.0866667 0.855,10.0866667 C1.23666667,10.0866667 1.50833333,9.97333333 1.67,9.74333333 C1.835,9.51333333 1.91666667,9.12333333 1.91666667,8.565 L1.91666667,0.68 L4.23,0.68 L4.23,8.36833333 C4.23,9.52166667 3.97666667,10.3966667 3.47166667,10.9883333 C2.96666667,11.58 2.21,11.8766667 1.19833333,11.8766667 Z" id="Shape"></path>
                        <path d="M9.55833333,9.20166667 L9.12166667,8.32833333 L9.075,8.32833333 C8.76833333,8.71 8.455,8.97 8.13666667,9.11 C7.81833333,9.25 7.40666667,9.31833333 6.90166667,9.31833333 C6.28,9.31833333 5.79,9.13333333 5.43166667,8.76 C5.075,8.385 4.89666667,7.86333333 4.89666667,7.18666667 C4.89666667,6.48333333 5.14,5.96 5.63166667,5.615 C6.12,5.27166667 6.83,5.08 7.75833333,5.035 L8.86,5 L8.86,4.905 C8.86,4.36166667 8.59166667,4.09 8.05666667,4.09 C7.57333333,4.09 6.96166667,4.255 6.22,4.58 L5.56166667,3.07666667 C6.33,2.68166667 7.30166667,2.48166667 8.47666667,2.48166667 C9.32333333,2.48166667 9.97833333,2.69333333 10.4433333,3.11166667 C10.9066667,3.53166667 11.14,4.11833333 11.14,4.87333333 L11.14,9.205 L9.55833333,9.205 L9.55833333,9.20166667 Z M7.86833333,7.70833333 C8.145,7.70833333 8.38,7.62 8.57666667,7.44666667 C8.77333333,7.27166667 8.87166667,7.04666667 8.87166667,6.76666667 L8.87166667,6.25333333 L8.34666667,6.275 C7.59666667,6.30333333 7.22166667,6.57833333 7.22166667,7.10333333 C7.22,7.50666667 7.43666667,7.70833333 7.86833333,7.70833333 Z" id="Shape"></path>
                        <path d="M13.5633333,9.20166667 L11.045,2.595 L13.4233333,2.595 L14.5433333,6.50333333 C14.5466667,6.52333333 14.555,6.55666667 14.5666667,6.60333333 C14.5783333,6.64833333 14.59,6.70666667 14.6016667,6.77 C14.6133333,6.835 14.6233333,6.90166667 14.635,6.975 C14.6433333,7.04666667 14.65,7.11333333 14.65,7.175 L14.69,7.175 C14.69,6.97333333 14.725,6.75333333 14.795,6.515 L15.9683333,2.595 L18.34,2.595 L15.8216667,9.20166667 L13.5633333,9.20166667 Z" id="Shape"></path>
                        <path d="M22.6416667,9.20166667 L22.205,8.32833333 L22.1583333,8.32833333 C21.8516667,8.71 21.5383333,8.97 21.22,9.11 C20.9016667,9.25 20.49,9.31833333 19.985,9.31833333 C19.3616667,9.31833333 18.8733333,9.13333333 18.515,8.76 C18.1583333,8.385 17.98,7.86333333 17.98,7.18666667 C17.98,6.48333333 18.225,5.96 18.715,5.615 C19.2033333,5.27166667 19.9133333,5.08 20.8416667,5.035 L21.9433333,5 L21.9433333,4.905 C21.9433333,4.36166667 21.675,4.09 21.14,4.09 C20.6566667,4.09 20.045,4.255 19.3033333,4.58 L18.6433333,3.07666667 C19.4133333,2.68166667 20.3833333,2.48166667 21.5583333,2.48166667 C22.405,2.48166667 23.0616667,2.69333333 23.5266667,3.11166667 C23.9916667,3.53166667 24.2216667,4.11833333 24.2216667,4.87333333 L24.2216667,9.205 L22.6416667,9.205 L22.6416667,9.20166667 Z M20.9516667,7.70833333 C21.2283333,7.70833333 21.4633333,7.62 21.66,7.44666667 C21.8566667,7.27166667 21.955,7.04666667 21.955,6.76666667 L21.955,6.25333333 L21.4316667,6.275 C20.68,6.30333333 20.3066667,6.57833333 20.3066667,7.10333333 C20.305,7.50666667 20.52,7.70833333 20.9516667,7.70833333 Z" id="Shape"></path>
                        <path d="M5.16333333,15.345 L3.58833333,15.345 L3.58833333,20.755 L2.21333333,20.755 L2.21333333,15.345 L1.15166667,15.345 L1.15166667,14.7033333 L2.21166667,14.2833333 L2.21166667,13.8633333 C2.21166667,13.1016667 2.39,12.5383333 2.74833333,12.17 C3.105,11.8033333 3.65166667,11.62 4.385,11.62 C4.86833333,11.62 5.34166667,11.7 5.80833333,11.8583333 L5.44666667,12.8966667 C5.11,12.7883333 4.78666667,12.7333333 4.48,12.7333333 C4.16833333,12.7333333 3.94166667,12.8283333 3.8,13.0216667 C3.65833333,13.2133333 3.58833333,13.5033333 3.58833333,13.8883333 L3.58833333,14.3083333 L5.16166667,14.3083333 L5.16166667,15.345 L5.16333333,15.345 Z" id="Shape"></path>
                        <path d="M9.11666667,14.1933333 C9.39333333,14.1933333 9.62,14.2116667 9.79833333,14.25 L9.66333333,15.5266667 C9.46833333,15.4816667 9.26666667,15.4566667 9.05666667,15.4566667 C8.50833333,15.4566667 8.065,15.635 7.725,15.9933333 C7.385,16.35 7.215,16.815 7.215,17.3866667 L7.215,20.755 L5.845,20.755 L5.845,14.3083333 L6.91833333,14.3083333 L7.09833333,15.4466667 L7.16833333,15.4466667 C7.38166667,15.0616667 7.66166667,14.7566667 8.005,14.5283333 C8.34833333,14.3033333 8.72,14.1933333 9.11666667,14.1933333 Z" id="Shape"></path>
                        <path d="M14.43,20.755 L14.155,19.8583333 L14.1083333,19.8583333 C13.7983333,20.25 13.485,20.5183333 13.17,20.6583333 C12.855,20.8 12.4516667,20.8716667 11.9566667,20.8716667 C11.3233333,20.8716667 10.8283333,20.6983333 10.4733333,20.3566667 C10.1183333,20.0166667 9.94,19.5316667 9.94,18.9066667 C9.94,18.2416667 10.1866667,17.7416667 10.6816667,17.4016667 C11.175,17.065 11.9283333,16.8816667 12.9383333,16.8483333 L14.0516667,16.8133333 L14.0516667,16.4683333 C14.0516667,16.0566667 13.955,15.7483333 13.7633333,15.5466667 C13.5716667,15.3416667 13.2733333,15.2383333 12.8683333,15.2383333 C12.5383333,15.2383333 12.2216667,15.285 11.9183333,15.385 C11.615,15.4816667 11.325,15.595 11.045,15.7266667 L10.6016667,14.7483333 C10.9516667,14.565 11.3333333,14.4266667 11.75,14.3316667 C12.1666667,14.2366667 12.5583333,14.19 12.9283333,14.19 C13.75,14.19 14.3666667,14.3666667 14.785,14.7233333 C15.2016667,15.0816667 15.4116667,15.645 15.4116667,16.41 L15.4116667,20.7516667 L14.43,20.7516667 L14.43,20.755 Z M12.3883333,19.8233333 C12.8866667,19.8233333 13.285,19.685 13.5866667,19.4066667 C13.8883333,19.1283333 14.0383333,18.74 14.0383333,18.2383333 L14.0383333,17.6783333 L13.2116667,17.7133333 C12.5666667,17.7383333 12.0983333,17.845 11.8033333,18.0366667 C11.5083333,18.2283333 11.3616667,18.5216667 11.3616667,18.92 C11.3616667,19.2083333 11.4483333,19.43 11.6183333,19.5866667 C11.7883333,19.7433333 12.0483333,19.8233333 12.3883333,19.8233333 Z" id="Shape"></path>
                        <path d="M22.2216667,20.755 L20.8466667,20.755 L20.8466667,16.7783333 C20.8466667,16.285 20.7533333,15.9166667 20.5666667,15.6733333 C20.38,15.43 20.0883333,15.31 19.6916667,15.31 C19.1633333,15.31 18.7766667,15.4833333 18.5283333,15.8266667 C18.2816667,16.17 18.1583333,16.7433333 18.1583333,17.5416667 L18.1583333,20.755 L16.7883333,20.755 L16.7883333,14.3083333 L17.8616667,14.3083333 L18.055,15.1533333 L18.125,15.1533333 C18.3033333,14.8466667 18.5633333,14.61 18.9033333,14.4416667 C19.2433333,14.2733333 19.6183333,14.1933333 20.025,14.1933333 C21.0166667,14.1933333 21.6733333,14.5283333 21.995,15.205 L22.0883333,15.205 C22.2783333,14.8883333 22.5466667,14.64 22.8933333,14.46 C23.24,14.2816667 23.635,14.1933333 24.0816667,14.1933333 C24.8516667,14.1933333 25.4116667,14.3866667 25.7633333,14.775 C26.1166667,15.1633333 26.29,15.7583333 26.29,16.5533333 L26.29,20.755 L24.9216667,20.755 L24.9216667,16.7783333 C24.9216667,16.285 24.8266667,15.9166667 24.64,15.6733333 C24.4516667,15.43 24.1583333,15.31 23.7616667,15.31 C23.2283333,15.31 22.84,15.4766667 22.5933333,15.8083333 C22.3466667,16.14 22.2216667,16.6516667 22.2216667,17.3366667 L22.2216667,20.755 Z" id="Shape"></path>
                        <path d="M30.5266667,20.8716667 C29.5233333,20.8716667 28.74,20.58 28.1733333,19.995 C27.61,19.4083333 27.3266667,18.605 27.3266667,17.5783333 C27.3266667,16.525 27.59,15.6983333 28.115,15.095 C28.6383333,14.4933333 29.36,14.1933333 30.2783333,14.1933333 C31.13,14.1933333 31.8016667,14.45 32.295,14.9683333 C32.7883333,15.485 33.0333333,16.195 33.0333333,17.1 L33.0333333,17.84 L28.7366667,17.84 C28.7566667,18.4666667 28.925,18.9483333 29.245,19.2816667 C29.5616667,19.6183333 30.0116667,19.7883333 30.5916667,19.7883333 C30.9733333,19.7883333 31.325,19.7533333 31.655,19.68 C31.9833333,19.6083333 32.335,19.49 32.7116667,19.3233333 L32.7116667,20.435 C32.3783333,20.595 32.04,20.7066667 31.6966667,20.7716667 C31.3566667,20.8383333 30.9666667,20.8716667 30.5266667,20.8716667 Z M30.2766667,15.23 C29.84,15.23 29.4916667,15.3683333 29.23,15.6416667 C28.9666667,15.9183333 28.8116667,16.3216667 28.76,16.85 L31.6866667,16.85 C31.6783333,16.32 31.55,15.915 31.3016667,15.64 C31.0533333,15.365 30.71,15.23 30.2766667,15.23 Z" id="Shape"></path>
                        <path d="M39.4,20.755 L38.5666667,17.7466667 C38.465,17.4283333 38.2833333,16.6883333 38.0183333,15.525 L37.9666667,15.525 C37.7416667,16.575 37.5633333,17.32 37.4316667,17.7583333 L36.575,20.755 L35.0583333,20.755 L33.2516667,14.3083333 L34.65,14.3083333 L35.4716667,17.485 C35.6566667,18.27 35.79,18.9433333 35.8683333,19.5016667 L35.9033333,19.5016667 C35.9416667,19.2183333 36.0016667,18.8933333 36.08,18.5266667 C36.1616667,18.1583333 36.23,17.8833333 36.2866667,17.7016667 L37.2666667,14.3083333 L38.77,14.3083333 L39.72,17.7016667 C39.7783333,17.89 39.8516667,18.1833333 39.94,18.575 C40.0266667,18.965 40.0783333,19.2716667 40.095,19.49 L40.1416667,19.49 C40.1983333,19.0133333 40.335,18.3433333 40.5483333,17.485 L41.3816667,14.3083333 L42.7566667,14.3083333 L40.94,20.755 L39.4,20.755 L39.4,20.755 Z" id="Shape"></path>
                        <path d="M49.0583333,17.5216667 C49.0583333,18.5733333 48.7866667,19.395 48.2466667,19.9866667 C47.7083333,20.5766667 46.9566667,20.8716667 45.99,20.8716667 C45.3883333,20.8716667 44.8533333,20.735 44.3933333,20.4616667 C43.93,20.1916667 43.5733333,19.8016667 43.325,19.2933333 C43.0766667,18.7816667 42.9516667,18.1933333 42.9516667,17.5216667 C42.9516667,16.4733333 43.2183333,15.6583333 43.755,15.0716667 C44.29,14.4833333 45.0466667,14.1933333 46.0216667,14.1933333 C46.955,14.1933333 47.6933333,14.4916667 48.2383333,15.0933333 C48.785,15.6916667 49.0583333,16.5016667 49.0583333,17.5216667 Z M44.3616667,17.5216667 C44.3616667,19.0083333 44.9133333,19.7533333 46.0133333,19.7533333 C47.0983333,19.7533333 47.645,19.0083333 47.645,17.5216667 C47.645,16.0466667 47.0966667,15.3116667 46.0016667,15.3116667 C45.4266667,15.3116667 45.01,15.5016667 44.75,15.8833333 C44.4916667,16.2616667 44.3616667,16.8083333 44.3616667,17.5216667 Z" id="Shape"></path>
                        <path d="M53.4033333,14.1933333 C53.68,14.1933333 53.9066667,14.2116667 54.085,14.25 L53.9533333,15.5266667 C53.7583333,15.4816667 53.555,15.4566667 53.345,15.4566667 C52.7966667,15.4566667 52.355,15.635 52.0133333,15.9933333 C51.6733333,16.35 51.5033333,16.815 51.5033333,17.3866667 L51.5033333,20.755 L50.1333333,20.755 L50.1333333,14.3083333 L51.2066667,14.3083333 L51.3866667,15.4466667 L51.4583333,15.4466667 C51.67,15.0616667 51.9483333,14.7566667 52.2933333,14.5283333 C52.6366667,14.3033333 53.0083333,14.1933333 53.4033333,14.1933333 Z" id="Shape"></path>
                        <polygon id="Shape" points="56.1383333 17.3516667 56.9116667 16.3833333 58.86 14.3083333 60.44 14.3083333 57.8433333 17.0766667 60.6 20.755 58.9916667 20.755 56.9216667 17.9283333 56.1716667 18.5466667 56.1716667 20.755 54.8133333 20.755 54.8133333 11.6833333 56.1716667 11.6833333 56.1716667 16.1083333 56.1016667 17.3516667"></polygon>
                        <path d="M65.7666667,18.92 C65.7666667,19.55 65.5383333,20.0316667 65.0783333,20.3683333 C64.6216667,20.7033333 63.9633333,20.8733333 63.11,20.8733333 C62.2483333,20.8733333 61.5583333,20.7433333 61.04,20.4833333 L61.04,19.3 C61.7983333,19.6483333 62.5016667,19.8233333 63.1566667,19.8233333 C64,19.8233333 64.4216667,19.5716667 64.4216667,19.06 C64.4216667,18.8966667 64.375,18.76 64.2816667,18.6516667 C64.1883333,18.5433333 64.035,18.43 63.82,18.3133333 C63.6083333,18.1983333 63.31,18.0666667 62.93,17.9183333 C62.1883333,17.6316667 61.685,17.3416667 61.4233333,17.055 C61.16,16.7666667 61.0283333,16.395 61.0283333,15.935 C61.0283333,15.3833333 61.2533333,14.955 61.6983333,14.65 C62.1433333,14.345 62.7466667,14.195 63.5133333,14.195 C64.2716667,14.195 64.9883333,14.3466667 65.665,14.6533333 L65.22,15.685 C64.525,15.3966667 63.9383333,15.2533333 63.4666667,15.2533333 C62.7433333,15.2533333 62.3833333,15.4583333 62.3833333,15.8716667 C62.3833333,16.0733333 62.475,16.245 62.665,16.385 C62.8533333,16.525 63.2633333,16.7166667 63.8966667,16.9616667 C64.43,17.1666667 64.8166667,17.3566667 65.0583333,17.5283333 C65.3,17.7016667 65.4783333,17.8966667 65.5933333,18.1183333 C65.7083333,18.3416667 65.7666667,18.6083333 65.7666667,18.92 Z" id="Shape"></path>
                        <path d="M4.10166667,32.4266667 C3.29666667,32.4266667 2.66833333,32.135 2.21833333,31.5533333 C1.76666667,30.9683333 1.54333333,30.1516667 1.54333333,29.0966667 C1.54333333,28.04 1.77166667,27.2166667 2.22833333,26.63 C2.685,26.04 3.31666667,25.7466667 4.12666667,25.7466667 C4.97333333,25.7466667 5.62,26.06 6.06166667,26.685 L6.13166667,26.685 C6.065,26.2216667 6.03166667,25.8566667 6.03166667,25.59 L6.03166667,23.24 L7.40833333,23.24 L7.40833333,32.3116667 L6.335,32.3116667 L6.09666667,31.4633333 L6.03166667,31.4633333 C5.59166667,32.1066667 4.95,32.4266667 4.10166667,32.4266667 Z M4.47,31.3183333 C5.03333333,31.3183333 5.44333333,31.1616667 5.7,30.845 C5.95666667,30.5266667 6.08833333,30.015 6.09666667,29.3016667 L6.09666667,29.11 C6.09666667,28.2966667 5.96333333,27.7216667 5.7,27.3783333 C5.43666667,27.0366667 5.02166667,26.865 4.45833333,26.865 C3.97666667,26.865 3.605,27.06 3.345,27.4516667 C3.085,27.8433333 2.955,28.3983333 2.955,29.1216667 C2.955,29.8383333 3.08166667,30.3816667 3.335,30.755 C3.585,31.1316667 3.96333333,31.3183333 4.47,31.3183333 Z" id="Shape"></path>
                        <path d="M12.8533333,32.3116667 L12.5783333,31.4116667 L12.5333333,31.4116667 C12.2216667,31.805 11.9083333,32.0716667 11.595,32.2133333 C11.28,32.355 10.8766667,32.4266667 10.3816667,32.4266667 C9.74833333,32.4266667 9.25333333,32.255 8.89833333,31.9116667 C8.54333333,31.5716667 8.365,31.0866667 8.365,30.4616667 C8.365,29.7966667 8.61166667,29.295 9.105,28.9566667 C9.59833333,28.6183333 10.3516667,28.435 11.3616667,28.4033333 L12.475,28.3683333 L12.475,28.025 C12.475,27.6133333 12.38,27.3066667 12.1866667,27.1016667 C11.995,26.8966667 11.6966667,26.7933333 11.2916667,26.7933333 C10.9616667,26.7933333 10.645,26.8433333 10.3416667,26.94 C10.0383333,27.0383333 9.74666667,27.1516667 9.46666667,27.285 L9.02333333,26.305 C9.37333333,26.1216667 9.75666667,25.985 10.1733333,25.8883333 C10.59,25.7916667 10.98,25.745 11.35,25.745 C12.17,25.745 12.7883333,25.9233333 13.2066667,26.28 C13.625,26.6383333 13.8333333,27.2016667 13.8333333,27.9666667 L13.8333333,32.31 L12.8533333,32.31 L12.8533333,32.3116667 Z M10.8116667,31.3766667 C11.31,31.3766667 11.71,31.2383333 12.01,30.96 C12.31,30.6816667 12.4616667,30.2933333 12.4616667,29.79 L12.4616667,29.2316667 L11.6333333,29.2666667 C10.9883333,29.2916667 10.52,29.3983333 10.225,29.59 C9.93166667,29.7833333 9.785,30.0766667 9.785,30.4733333 C9.785,30.7616667 9.87,30.985 10.0416667,31.14 C10.215,31.2983333 10.4716667,31.3766667 10.8116667,31.3766667 Z" id="Shape"></path>
                        <path d="M14.1616667,25.8616667 L15.655,25.8616667 L16.9666667,29.5166667 C17.165,30.0366667 17.2966667,30.5266667 17.3633333,30.9866667 L17.41,30.9866667 C17.445,30.7733333 17.5083333,30.5133333 17.6016667,30.2083333 C17.695,29.9016667 18.1883333,28.455 19.0833333,25.8616667 L20.565,25.8616667 L17.805,33.1666667 C17.3033333,34.5066667 16.4683333,35.1783333 15.2983333,35.1783333 C14.995,35.1783333 14.7,35.1433333 14.4116667,35.0766667 L14.4116667,33.9933333 C14.6183333,34.04 14.8516667,34.0633333 15.1166667,34.0633333 C15.7783333,34.0633333 16.2416667,33.6816667 16.51,32.915 L16.7483333,32.3116667 L14.1616667,25.8616667 Z" id="Shape"></path>
                    </g>
                </g>
            </g>
        </g>
    </g>
</svg>