<?xml version="1.0" encoding="UTF-8"?>
<svg width="580px" height="580px" viewBox="0 0 580 580" version="1.1" xmlns="http://www.w3.org/2000/svg" xmlns:xlink="http://www.w3.org/1999/xlink">
    <!-- Generator: Sketch 46.2 (44496) - http://www.bohemiancoding.com/sketch -->
    <title>java_big</title>
    <desc>Created with Sketch.</desc>
    <defs>
        <polygon id="path-1" points="12.0794146 0.162983373 12.0794146 11.8602755 0.259953542 11.8602755 0.259953542 0.162983373"></polygon>
        <polygon id="path-3" points="0.246876656 0.050736342 12.0667698 0.050736342 12.0667698 11.7471164 0.246876656 11.7471164"></polygon>
    </defs>
    <g id="Large" stroke="none" stroke-width="1" fill="none" fill-rule="evenodd">
        <g id="big-copy" transform="translate(-709.000000, -777.000000)">
            <g id="Group-Copy-8" transform="translate(709.000000, 777.000000)">
                <rect id="Rectangle-11" x="0" y="0" width="580" height="580"></rect>
                <g id="frontend_big" transform="translate(120.000000, 114.000000)">
                    <g id="Page-1">
                        <g id="Group-3" transform="translate(235.902440, 54.106034)">
                            <g id="Fill-1-Clipped">
                                <mask id="mask-2" fill="white">
                                    <use xlink:href="#path-1"></use>
                                </mask>
                                <g id="path-1"></g>
                                <path d="M12.0795587,6.01191448 C12.0795587,9.2416532 9.43422532,11.8602755 6.17162834,11.8602755 C2.90730314,11.8602755 0.259953542,9.2416532 0.259953542,6.01191448 C0.259953542,2.78103562 2.90730314,0.162983373 6.17162834,0.162983373 C9.43422532,0.162983373 12.0795587,2.78103562 12.0795587,6.01191448" id="Fill-1" fill="#FEFEFE" fill-rule="nonzero" mask="url(#mask-2)"></path>
                            </g>
                        </g>
                        <g id="Group-6" transform="translate(54.439024, 0.234300)">
                            <g id="Fill-4-Clipped">
                                <mask id="mask-4" fill="white">
                                    <use xlink:href="#path-3"></use>
                                </mask>
                                <g id="path-3"></g>
                                <path d="M12.0667698,5.89932542 C12.0667698,9.1287791 9.4208604,11.7471164 6.15682322,11.7471164 C2.89365018,11.7471164 0.246876656,9.1287791 0.246876656,5.89932542 C0.246876656,2.67101188 2.89365018,0.050679335 6.15682322,0.050679335 C9.4208604,0.050679335 12.0667698,2.67101188 12.0667698,5.89932542" id="Fill-4" fill="#FEFEFE" fill-rule="nonzero" mask="url(#mask-4)"></path>
                            </g>
                        </g>
                        <path d="M11.819922,60.1179478 C11.819922,63.3476864 9.17401254,65.9663088 5.90911126,65.9663088 C2.64536214,65.9663088 2.88037166e-05,63.3476864 2.88037166e-05,60.1179478 C2.88037166e-05,56.8870688 2.64536214,54.2690166 5.90911126,54.2690166 C9.17401254,54.2690166 11.819922,56.8870688 11.819922,60.1179478" id="Fill-7" fill="#FEFEFE" fill-rule="nonzero"></path>
                        <path d="M66.5057942,60.1179478 C66.5057942,63.3476864 63.8598848,65.9663088 60.5958476,65.9663088 C57.3326746,65.9663088 54.685901,63.3476864 54.685901,60.1179478 C54.685901,56.8870688 57.3326746,54.2690166 60.5958476,54.2690166 C63.8598848,54.2690166 66.5057942,56.8870688 66.5057942,60.1179478" id="Fill-9" fill="#FEFEFE" fill-rule="nonzero"></path>
                        <path d="M11.819922,114.100618 C11.819922,117.329501 9.17401254,119.949264 5.90911126,119.949264 C2.64536214,119.949264 2.88037166e-05,117.329501 2.88037166e-05,114.100618 C2.88037166e-05,110.871734 2.64536214,108.254252 5.90911126,108.254252 C9.17401254,108.254252 11.819922,110.871734 11.819922,114.100618" id="Fill-11" fill="#FEFEFE" fill-rule="nonzero"></path>
                        <path d="M120.923849,114.100618 C120.923849,117.329501 118.279092,119.949264 115.013903,119.949264 C111.74929,119.949264 109.103956,117.329501 109.103956,114.100618 C109.103956,110.871734 111.74929,108.254252 115.013903,108.254252 C118.279092,108.254252 120.923849,110.871734 120.923849,114.100618" id="Fill-13" fill="#FEFEFE" fill-rule="nonzero"></path>
                        <path d="M157.29122,78.1119334 C157.29122,81.3425274 154.645599,83.9605796 151.380986,83.9605796 C148.116949,83.9605796 145.473344,81.3425274 145.473344,78.1119334 C145.473344,74.8816248 148.116949,72.2635724 151.380986,72.2635724 C154.645599,72.2635724 157.29122,74.8816248 157.29122,78.1119334" id="Fill-15" fill="#FEFEFE" fill-rule="nonzero"></path>
                        <path d="M193.658015,114.100618 C193.658015,117.329501 191.011242,119.949264 187.750661,119.949264 C184.486048,119.949264 181.838698,117.329501 181.838698,114.100618 C181.838698,110.871734 184.486048,108.254252 187.750661,108.254252 C191.011242,108.254252 193.658015,110.871734 193.658015,114.100618" id="Fill-17" fill="#FEFEFE" fill-rule="nonzero"></path>
                        <path d="M66.3714824,114.100618 C66.3714824,117.329501 63.725861,119.949264 60.4615358,119.949264 C57.198939,119.949264 54.5515894,117.329501 54.5515894,114.100618 C54.5515894,110.870309 57.198939,108.254252 60.4615358,108.254252 C63.725861,108.254252 66.3714824,110.870309 66.3714824,114.100618" id="Fill-19" fill="#FEFEFE" fill-rule="nonzero"></path>
                        <polygon id="Fill-21" fill="#FEFEFE" fill-rule="nonzero" points="29.457705 78.2857768 11.0411847 60.0608836 62.9719814 8.6743753 57.8348386 3.5887696 0.766610918 60.0608836 24.319122 83.3693872"></polygon>
                        <polygon id="Fill-23" fill="#FEFEFE" fill-rule="nonzero" points="36.7653808 95.6851782 57.8329952 116.535819 62.9730184 111.451069 41.9022356 90.6024228"></polygon>
                        <polygon id="Fill-25" fill="#FEFEFE" fill-rule="nonzero" points="187.565367 119.078993 151.233799 83.1237434 114.902807 119.078993 60.4030068 65.1476864 8.47278606 116.535905 3.33535516 111.450869 60.4030068 54.9776152 114.902807 108.908637 151.233799 72.9545274 187.565367 108.908637 239.49818 57.520133 244.634746 62.6034584"></polygon>
                    </g>
                    <g id="Group" transform="translate(16.000000, 171.000000)" fill-rule="nonzero" fill="#FFFFFF">
                        <path d="M6.30701754,59.5087719 C4.10526316,59.5087719 2,59.3070175 0.0175438596,58.8596491 L0.0175438596,49.4561404 C0.675438596,49.5701754 1.36842105,49.7105263 2.10526316,49.8684211 C2.84210526,50.0263158 3.64035088,50.0877193 4.5,50.0877193 C6.50877193,50.0877193 7.93859649,49.4912281 8.78947368,48.2807018 C9.65789474,47.0701754 10.0877193,45.0175439 10.0877193,42.0789474 L10.0877193,0.578947368 L22.2631579,0.578947368 L22.2631579,41.0438596 C22.2631579,47.1140351 20.9298246,51.7192982 18.2719298,54.8333333 C15.6140351,57.9473684 11.6315789,59.5087719 6.30701754,59.5087719 Z" id="Shape"></path>
                        <path d="M50.3070175,45.4298246 L48.0087719,40.8333333 L47.7631579,40.8333333 C46.1491228,42.8421053 44.5,44.2105263 42.8245614,44.9473684 C41.1491228,45.6842105 38.9824561,46.0438596 36.3245614,46.0438596 C33.0526316,46.0438596 30.4736842,45.0701754 28.5877193,43.1052632 C26.7105263,41.1315789 25.7719298,38.3859649 25.7719298,34.8245614 C25.7719298,31.122807 27.0526316,28.3684211 29.6403509,26.5526316 C32.2105263,24.745614 35.9473684,23.7368421 40.8333333,23.5 L46.6315789,23.3157895 L46.6315789,22.8157895 C46.6315789,19.9561404 45.2192982,18.5263158 42.4035088,18.5263158 C39.8596491,18.5263158 36.6403509,19.3947368 32.7368421,21.1052632 L29.2719298,13.1929825 C33.3157895,11.1140351 38.4298246,10.0614035 44.6140351,10.0614035 C49.0701754,10.0614035 52.5175439,11.1754386 54.9649123,13.377193 C57.4035088,15.5877193 58.6315789,18.6754386 58.6315789,22.6491228 L58.6315789,45.4473684 L50.3070175,45.4473684 L50.3070175,45.4298246 Z M41.4122807,37.5701754 C42.8684211,37.5701754 44.1052632,37.1052632 45.1403509,36.1929825 C46.1754386,35.2719298 46.6929825,34.0877193 46.6929825,32.6140351 L46.6929825,29.9122807 L43.9298246,30.0263158 C39.9824561,30.1754386 38.0087719,31.622807 38.0087719,34.3859649 C38,36.5087719 39.1403509,37.5701754 41.4122807,37.5701754 Z" id="Shape"></path>
                        <path d="M71.3859649,45.4298246 L58.1315789,10.6578947 L70.6491228,10.6578947 L76.5438596,31.2280702 C76.5614035,31.3333333 76.6052632,31.5087719 76.6666667,31.754386 C76.7280702,31.9912281 76.7894737,32.2982456 76.8508772,32.6315789 C76.9122807,32.9736842 76.9649123,33.3245614 77.0263158,33.7105263 C77.0701754,34.0877193 77.1052632,34.4385965 77.1052632,34.7631579 L77.3157895,34.7631579 C77.3157895,33.7017544 77.5,32.5438596 77.8684211,31.2894737 L84.0438596,10.6578947 L96.5263158,10.6578947 L83.2719298,45.4298246 L71.3859649,45.4298246 Z" id="Shape"></path>
                        <path d="M119.166667,45.4298246 L116.868421,40.8333333 L116.622807,40.8333333 C115.008772,42.8421053 113.359649,44.2105263 111.684211,44.9473684 C110.008772,45.6842105 107.842105,46.0438596 105.184211,46.0438596 C101.903509,46.0438596 99.3333333,45.0701754 97.4473684,43.1052632 C95.5701754,41.1315789 94.6315789,38.3859649 94.6315789,34.8245614 C94.6315789,31.122807 95.9210526,28.3684211 98.5,26.5526316 C101.070175,24.745614 104.807018,23.7368421 109.692982,23.5 L115.491228,23.3157895 L115.491228,22.8157895 C115.491228,19.9561404 114.078947,18.5263158 111.263158,18.5263158 C108.719298,18.5263158 105.5,19.3947368 101.596491,21.1052632 L98.122807,13.1929825 C102.175439,11.1140351 107.280702,10.0614035 113.464912,10.0614035 C117.921053,10.0614035 121.377193,11.1754386 123.824561,13.377193 C126.27193,15.5877193 127.482456,18.6754386 127.482456,22.6491228 L127.482456,45.4473684 L119.166667,45.4473684 L119.166667,45.4298246 Z M110.27193,37.5701754 C111.72807,37.5701754 112.964912,37.1052632 114,36.1929825 C115.035088,35.2719298 115.552632,34.0877193 115.552632,32.6140351 L115.552632,29.9122807 L112.798246,30.0263158 C108.842105,30.1754386 106.877193,31.622807 106.877193,34.3859649 C106.868421,36.5087719 108,37.5701754 110.27193,37.5701754 Z" id="Shape"></path>
                        <path d="M27.1754386,77.7631579 L18.8859649,77.7631579 L18.8859649,106.236842 L11.6491228,106.236842 L11.6491228,77.7631579 L6.06140351,77.7631579 L6.06140351,74.3859649 L11.6403509,72.1754386 L11.6403509,69.9649123 C11.6403509,65.9561404 12.5789474,62.9912281 14.4649123,61.0526316 C16.3421053,59.122807 19.2192982,58.1578947 23.0789474,58.1578947 C25.622807,58.1578947 28.1140351,58.5789474 30.5701754,59.4122807 L28.6666667,64.877193 C26.8947368,64.3070175 25.1929825,64.0175439 23.5789474,64.0175439 C21.9385965,64.0175439 20.745614,64.5175439 20,65.5350877 C19.254386,66.5438596 18.8859649,68.0701754 18.8859649,70.0964912 L18.8859649,72.3070175 L27.1666667,72.3070175 L27.1666667,77.7631579 L27.1754386,77.7631579 Z" id="Shape"></path>
                        <path d="M47.9824561,71.7017544 C49.4385965,71.7017544 50.6315789,71.7982456 51.5701754,72 L50.8596491,78.7192982 C49.8333333,78.4824561 48.7719298,78.3508772 47.6666667,78.3508772 C44.7807018,78.3508772 42.4473684,79.2894737 40.6578947,81.1754386 C38.8684211,83.0526316 37.9736842,85.5 37.9736842,88.5087719 L37.9736842,106.236842 L30.7631579,106.236842 L30.7631579,72.3070175 L36.4122807,72.3070175 L37.3596491,78.2982456 L37.7280702,78.2982456 C38.8508772,76.2719298 40.3245614,74.6666667 42.1315789,73.4649123 C43.9385965,72.2807018 45.8947368,71.7017544 47.9824561,71.7017544 Z" id="Shape"></path>
                        <path d="M75.9473684,106.236842 L74.5,101.517544 L74.254386,101.517544 C72.622807,103.578947 70.9736842,104.991228 69.3157895,105.72807 C67.6578947,106.473684 65.5350877,106.850877 62.9298246,106.850877 C59.5964912,106.850877 56.9912281,105.938596 55.122807,104.140351 C53.254386,102.350877 52.3157895,99.7982456 52.3157895,96.5087719 C52.3157895,93.0087719 53.6140351,90.377193 56.2192982,88.5877193 C58.8157895,86.8157895 62.7807018,85.8508772 68.0964912,85.6754386 L73.9561404,85.4912281 L73.9561404,83.6754386 C73.9561404,81.5087719 73.4473684,79.8859649 72.4385965,78.8245614 C71.4298246,77.745614 69.8596491,77.2017544 67.7280702,77.2017544 C65.9912281,77.2017544 64.3245614,77.4473684 62.7280702,77.9736842 C61.1315789,78.4824561 59.6052632,79.0789474 58.1315789,79.7719298 L55.7982456,74.622807 C57.6403509,73.6578947 59.6491228,72.9298246 61.8421053,72.4298246 C64.0350877,71.9298246 66.0964912,71.6842105 68.0438596,71.6842105 C72.3684211,71.6842105 75.6140351,72.6140351 77.8157895,74.4912281 C80.0087719,76.377193 81.1140351,79.3421053 81.1140351,83.3684211 L81.1140351,106.219298 L75.9473684,106.219298 L75.9473684,106.236842 Z M65.2017544,101.333333 C67.8245614,101.333333 69.9210526,100.605263 71.5087719,99.1403509 C73.0964912,97.6754386 73.8859649,95.6315789 73.8859649,92.9912281 L73.8859649,90.0438596 L69.5350877,90.2280702 C66.1403509,90.3596491 63.6754386,90.9210526 62.122807,91.9298246 C60.5701754,92.9385965 59.7982456,94.4824561 59.7982456,96.5789474 C59.7982456,98.0964912 60.254386,99.2631579 61.1491228,100.087719 C62.0438596,100.912281 63.4122807,101.333333 65.2017544,101.333333 Z" id="Shape"></path>
                        <path d="M116.95614,106.236842 L109.719298,106.236842 L109.719298,85.3070175 C109.719298,82.7105263 109.22807,80.7719298 108.245614,79.4912281 C107.263158,78.2105263 105.72807,77.5789474 103.640351,77.5789474 C100.859649,77.5789474 98.8245614,78.4912281 97.5175439,80.2982456 C96.2192982,82.1052632 95.5701754,85.122807 95.5701754,89.3245614 L95.5701754,106.236842 L88.3596491,106.236842 L88.3596491,72.3070175 L94.0087719,72.3070175 L95.0263158,76.754386 L95.3947368,76.754386 C96.3333333,75.1403509 97.7017544,73.8947368 99.4912281,73.0087719 C101.280702,72.122807 103.254386,71.7017544 105.394737,71.7017544 C110.614035,71.7017544 114.070175,73.4649123 115.763158,77.0263158 L116.254386,77.0263158 C117.254386,75.3596491 118.666667,74.0526316 120.491228,73.1052632 C122.315789,72.1666667 124.394737,71.7017544 126.745614,71.7017544 C130.798246,71.7017544 133.745614,72.7192982 135.596491,74.7631579 C137.45614,76.8070175 138.368421,79.9385965 138.368421,84.122807 L138.368421,106.236842 L131.166667,106.236842 L131.166667,85.3070175 C131.166667,82.7105263 130.666667,80.7719298 129.684211,79.4912281 C128.692982,78.2105263 127.149123,77.5789474 125.061404,77.5789474 C122.254386,77.5789474 120.210526,78.4561404 118.912281,80.2017544 C117.614035,81.9473684 116.95614,84.6403509 116.95614,88.245614 L116.95614,106.236842 Z" id="Shape"></path>
                        <path d="M160.666667,106.850877 C155.385965,106.850877 151.263158,105.315789 148.280702,102.236842 C145.315789,99.1491228 143.824561,94.9210526 143.824561,89.5175439 C143.824561,83.9736842 145.210526,79.622807 147.973684,76.4473684 C150.72807,73.2807018 154.526316,71.7017544 159.359649,71.7017544 C163.842105,71.7017544 167.377193,73.0526316 169.973684,75.7807018 C172.570175,78.5 173.859649,82.2368421 173.859649,87 L173.859649,90.8947368 L151.245614,90.8947368 C151.350877,94.1929825 152.236842,96.7280702 153.921053,98.4824561 C155.587719,100.254386 157.95614,101.149123 161.008772,101.149123 C163.017544,101.149123 164.868421,100.964912 166.605263,100.578947 C168.333333,100.201754 170.184211,99.5789474 172.166667,98.7017544 L172.166667,104.552632 C170.412281,105.394737 168.631579,105.982456 166.824561,106.324561 C165.035088,106.675439 162.982456,106.850877 160.666667,106.850877 Z M159.350877,77.1578947 C157.052632,77.1578947 155.219298,77.8859649 153.842105,79.3245614 C152.45614,80.7807018 151.640351,82.9035088 151.368421,85.6842105 L166.77193,85.6842105 C166.72807,82.8947368 166.052632,80.7631579 164.745614,79.3157895 C163.438596,77.8684211 161.631579,77.1578947 159.350877,77.1578947 Z" id="Shape"></path>
                        <path d="M207.368421,106.236842 L202.982456,90.4035088 C202.447368,88.7280702 201.491228,84.8333333 200.096491,78.7105263 L199.824561,78.7105263 C198.640351,84.2368421 197.701754,88.1578947 197.008772,90.4649123 L192.5,106.236842 L184.517544,106.236842 L175.008772,72.3070175 L182.368421,72.3070175 L186.692982,89.0263158 C187.666667,93.1578947 188.368421,96.7017544 188.780702,99.6403509 L188.964912,99.6403509 C189.166667,98.1491228 189.482456,96.4385965 189.894737,94.5087719 C190.324561,92.5701754 190.684211,91.122807 190.982456,90.1666667 L196.140351,72.3070175 L204.052632,72.3070175 L209.052632,90.1666667 C209.359649,91.1578947 209.745614,92.7017544 210.210526,94.7631579 C210.666667,96.8157895 210.938596,98.4298246 211.026316,99.5789474 L211.27193,99.5789474 C211.570175,97.0701754 212.289474,93.5438596 213.412281,89.0263158 L217.798246,72.3070175 L225.035088,72.3070175 L215.473684,106.236842 L207.368421,106.236842 L207.368421,106.236842 Z" id="Shape"></path>
                        <path d="M258.201754,89.2192982 C258.201754,94.754386 256.77193,99.0789474 253.929825,102.192982 C251.096491,105.298246 247.140351,106.850877 242.052632,106.850877 C238.885965,106.850877 236.070175,106.131579 233.649123,104.692982 C231.210526,103.27193 229.333333,101.219298 228.026316,98.5438596 C226.719298,95.8508772 226.061404,92.754386 226.061404,89.2192982 C226.061404,83.7017544 227.464912,79.4122807 230.289474,76.3245614 C233.105263,73.2280702 237.087719,71.7017544 242.219298,71.7017544 C247.131579,71.7017544 251.017544,73.2719298 253.885965,76.4385965 C256.763158,79.5877193 258.201754,83.8508772 258.201754,89.2192982 Z M233.482456,89.2192982 C233.482456,97.0438596 236.385965,100.964912 242.175439,100.964912 C247.885965,100.964912 250.763158,97.0438596 250.763158,89.2192982 C250.763158,81.4561404 247.877193,77.5877193 242.114035,77.5877193 C239.087719,77.5877193 236.894737,78.5877193 235.526316,80.5964912 C234.166667,82.5877193 233.482456,85.4649123 233.482456,89.2192982 Z" id="Shape"></path>
                        <path d="M281.070175,71.7017544 C282.526316,71.7017544 283.719298,71.7982456 284.657895,72 L283.964912,78.7192982 C282.938596,78.4824561 281.868421,78.3508772 280.763158,78.3508772 C277.877193,78.3508772 275.552632,79.2894737 273.754386,81.1754386 C271.964912,83.0526316 271.070175,85.5 271.070175,88.5087719 L271.070175,106.236842 L263.859649,106.236842 L263.859649,72.3070175 L269.508772,72.3070175 L270.45614,78.2982456 L270.833333,78.2982456 C271.947368,76.2719298 273.412281,74.6666667 275.22807,73.4649123 C277.035088,72.2807018 278.991228,71.7017544 281.070175,71.7017544 Z" id="Shape"></path>
                        <polygon id="Shape" points="295.464912 88.3245614 299.535088 83.2280702 309.789474 72.3070175 318.105263 72.3070175 304.438596 86.877193 318.947368 106.236842 310.482456 106.236842 299.587719 91.3596491 295.640351 94.6140351 295.640351 106.236842 288.491228 106.236842 288.491228 58.4912281 295.640351 58.4912281 295.640351 81.7807018 295.27193 88.3245614"></polygon>
                        <path d="M346.140351,96.5789474 C346.140351,99.8947368 344.938596,102.429825 342.517544,104.201754 C340.114035,105.964912 336.649123,106.859649 332.157895,106.859649 C327.622807,106.859649 323.991228,106.175439 321.263158,104.807018 L321.263158,98.5789474 C325.254386,100.412281 328.95614,101.333333 332.403509,101.333333 C336.842105,101.333333 339.061404,100.008772 339.061404,97.3157895 C339.061404,96.4561404 338.815789,95.7368421 338.324561,95.1666667 C337.833333,94.5964912 337.026316,94 335.894737,93.3859649 C334.780702,92.7807018 333.210526,92.0877193 331.210526,91.3070175 C327.307018,89.7982456 324.657895,88.2719298 323.280702,86.7631579 C321.894737,85.245614 321.201754,83.2894737 321.201754,80.8684211 C321.201754,77.9649123 322.385965,75.7105263 324.72807,74.1052632 C327.070175,72.5 330.245614,71.7105263 334.280702,71.7105263 C338.27193,71.7105263 342.04386,72.5087719 345.605263,74.122807 L343.263158,79.5526316 C339.605263,78.0350877 336.517544,77.2807018 334.035088,77.2807018 C330.22807,77.2807018 328.333333,78.3596491 328.333333,80.5350877 C328.333333,81.5964912 328.815789,82.5 329.815789,83.2368421 C330.807018,83.9736842 332.964912,84.9824561 336.298246,86.2719298 C339.105263,87.3508772 341.140351,88.3508772 342.412281,89.254386 C343.684211,90.1666667 344.622807,91.1929825 345.22807,92.3596491 C345.833333,93.5350877 346.140351,94.9385965 346.140351,96.5789474 Z" id="Shape"></path>
                        <path d="M21.5877193,167.666667 C17.3508772,167.666667 14.0438596,166.131579 11.6754386,163.070175 C9.29824561,159.991228 8.12280702,155.692982 8.12280702,150.140351 C8.12280702,144.578947 9.3245614,140.245614 11.7280702,137.157895 C14.1315789,134.052632 17.4561404,132.508772 21.7192982,132.508772 C26.1754386,132.508772 29.5789474,134.157895 31.9035088,137.447368 L32.2719298,137.447368 C31.9210526,135.008772 31.745614,133.087719 31.745614,131.684211 L31.745614,119.315789 L38.9912281,119.315789 L38.9912281,167.061404 L33.3421053,167.061404 L32.0877193,162.596491 L31.745614,162.596491 C29.4298246,165.982456 26.0526316,167.666667 21.5877193,167.666667 Z M23.5263158,161.833333 C26.4912281,161.833333 28.6491228,161.008772 30,159.342105 C31.3508772,157.666667 32.0438596,154.973684 32.0877193,151.219298 L32.0877193,150.210526 C32.0877193,145.929825 31.3859649,142.903509 30,141.096491 C28.6140351,139.298246 26.4298246,138.394737 23.4649123,138.394737 C20.9298246,138.394737 18.9736842,139.421053 17.6052632,141.482456 C16.2368421,143.54386 15.5526316,146.464912 15.5526316,150.27193 C15.5526316,154.04386 16.2192982,156.903509 17.5526316,158.868421 C18.8684211,160.850877 20.8596491,161.833333 23.5263158,161.833333 Z" id="Shape"></path>
                        <path d="M67.6491228,167.061404 L66.2017544,162.324561 L65.9649123,162.324561 C64.3245614,164.394737 62.6754386,165.798246 61.0263158,166.54386 C59.3684211,167.289474 57.245614,167.666667 54.6403509,167.666667 C51.3070175,167.666667 48.7017544,166.763158 46.8333333,164.95614 C44.9649123,163.166667 44.0263158,160.614035 44.0263158,157.324561 C44.0263158,153.824561 45.3245614,151.184211 47.9210526,149.403509 C50.5175439,147.622807 54.4824561,146.657895 59.7982456,146.491228 L65.6578947,146.307018 L65.6578947,144.5 C65.6578947,142.333333 65.1578947,140.719298 64.1403509,139.640351 C63.1315789,138.561404 61.5614035,138.017544 59.4298246,138.017544 C57.6929825,138.017544 56.0263158,138.280702 54.4298246,138.789474 C52.8333333,139.307018 51.2982456,139.903509 49.8245614,140.605263 L47.4912281,135.447368 C49.3333333,134.482456 51.3508772,133.763158 53.5438596,133.254386 C55.7368421,132.745614 57.7894737,132.5 59.7368421,132.5 C64.0526316,132.5 67.3070175,133.438596 69.5087719,135.315789 C71.7105263,137.201754 72.8070175,140.166667 72.8070175,144.192982 L72.8070175,167.052632 L67.6491228,167.052632 L67.6491228,167.061404 Z M56.9035088,162.140351 C59.5263158,162.140351 61.6315789,161.412281 63.2105263,159.947368 C64.7894737,158.482456 65.5877193,156.438596 65.5877193,153.789474 L65.5877193,150.850877 L61.2280702,151.035088 C57.8333333,151.166667 55.3684211,151.72807 53.8157895,152.736842 C52.2719298,153.754386 51.5,155.298246 51.5,157.385965 C51.5,158.903509 51.9473684,160.078947 52.8508772,160.894737 C53.7631579,161.72807 55.1140351,162.140351 56.9035088,162.140351 Z" id="Shape"></path>
                        <path d="M74.5350877,133.114035 L82.3947368,133.114035 L89.2982456,152.350877 C90.3421053,155.087719 91.0350877,157.666667 91.3859649,160.087719 L91.6315789,160.087719 C91.8157895,158.964912 92.1491228,157.596491 92.6403509,155.991228 C93.1315789,154.377193 95.7280702,146.763158 100.438596,133.114035 L108.236842,133.114035 L93.7105263,171.561404 C91.0701754,178.614035 86.6754386,182.149123 80.5175439,182.149123 C78.9210526,182.149123 77.3684211,181.964912 75.8508772,181.614035 L75.8508772,175.912281 C76.9385965,176.157895 78.1666667,176.280702 79.5614035,176.280702 C83.0438596,176.280702 85.4824561,174.27193 86.8947368,170.236842 L88.1491228,167.061404 L74.5350877,133.114035 Z" id="Shape"></path>
                    </g>
                </g>
            </g>
        </g>
    </g>
</svg>