<?xml version="1.0" encoding="UTF-8"?>
<svg width="580px" height="580px" viewBox="0 0 580 580" version="1.1" xmlns="http://www.w3.org/2000/svg" xmlns:xlink="http://www.w3.org/1999/xlink">
    <!-- Generator: Sketch 46.2 (44496) - http://www.bohemiancoding.com/sketch -->
    <title>most_big</title>
    <desc>Created with Sketch.</desc>
    <defs>
        <polygon id="path-1" points="12.0794146 0.162983373 12.0794146 11.8602755 0.259953542 11.8602755 0.259953542 0.162983373"></polygon>
        <polygon id="path-3" points="0.246876656 0.050736342 12.0667698 0.050736342 12.0667698 11.7471164 0.246876656 11.7471164"></polygon>
    </defs>
    <g id="Large" stroke="none" stroke-width="1" fill="none" fill-rule="evenodd">
        <g id="big-copy" transform="translate(-3213.000000, -1468.000000)">
            <g id="Group-Copy-16" transform="translate(3213.000000, 1468.000000)">
                <rect id="Rectangle-11" x="0" y="0" width="580" height="580"></rect>
                <g id="frontend_big" transform="translate(120.000000, 114.000000)">
                    <g id="Page-1">
                        <g id="Group-3" transform="translate(235.902440, 54.106034)">
                            <g id="Fill-1-Clipped">
                                <mask id="mask-2" fill="white">
                                    <use xlink:href="#path-1"></use>
                                </mask>
                                <g id="path-1"></g>
                                <path d="M12.0795587,6.01191448 C12.0795587,9.2416532 9.43422532,11.8602755 6.17162834,11.8602755 C2.90730314,11.8602755 0.259953542,9.2416532 0.259953542,6.01191448 C0.259953542,2.78103562 2.90730314,0.162983373 6.17162834,0.162983373 C9.43422532,0.162983373 12.0795587,2.78103562 12.0795587,6.01191448" id="Fill-1" fill="#FEFEFE" fill-rule="nonzero" mask="url(#mask-2)"></path>
                            </g>
                        </g>
                        <g id="Group-6" transform="translate(54.439024, 0.234300)">
                            <g id="Fill-4-Clipped">
                                <mask id="mask-4" fill="white">
                                    <use xlink:href="#path-3"></use>
                                </mask>
                                <g id="path-3"></g>
                                <path d="M12.0667698,5.89932542 C12.0667698,9.1287791 9.4208604,11.7471164 6.15682322,11.7471164 C2.89365018,11.7471164 0.246876656,9.1287791 0.246876656,5.89932542 C0.246876656,2.67101188 2.89365018,0.050679335 6.15682322,0.050679335 C9.4208604,0.050679335 12.0667698,2.67101188 12.0667698,5.89932542" id="Fill-4" fill="#FEFEFE" fill-rule="nonzero" mask="url(#mask-4)"></path>
                            </g>
                        </g>
                        <path d="M11.819922,60.1179478 C11.819922,63.3476864 9.17401254,65.9663088 5.90911126,65.9663088 C2.64536214,65.9663088 2.88037166e-05,63.3476864 2.88037166e-05,60.1179478 C2.88037166e-05,56.8870688 2.64536214,54.2690166 5.90911126,54.2690166 C9.17401254,54.2690166 11.819922,56.8870688 11.819922,60.1179478" id="Fill-7" fill="#FEFEFE" fill-rule="nonzero"></path>
                        <path d="M66.5057942,60.1179478 C66.5057942,63.3476864 63.8598848,65.9663088 60.5958476,65.9663088 C57.3326746,65.9663088 54.685901,63.3476864 54.685901,60.1179478 C54.685901,56.8870688 57.3326746,54.2690166 60.5958476,54.2690166 C63.8598848,54.2690166 66.5057942,56.8870688 66.5057942,60.1179478" id="Fill-9" fill="#FEFEFE" fill-rule="nonzero"></path>
                        <path d="M11.819922,114.100618 C11.819922,117.329501 9.17401254,119.949264 5.90911126,119.949264 C2.64536214,119.949264 2.88037166e-05,117.329501 2.88037166e-05,114.100618 C2.88037166e-05,110.871734 2.64536214,108.254252 5.90911126,108.254252 C9.17401254,108.254252 11.819922,110.871734 11.819922,114.100618" id="Fill-11" fill="#FEFEFE" fill-rule="nonzero"></path>
                        <path d="M120.923849,114.100618 C120.923849,117.329501 118.279092,119.949264 115.013903,119.949264 C111.74929,119.949264 109.103956,117.329501 109.103956,114.100618 C109.103956,110.871734 111.74929,108.254252 115.013903,108.254252 C118.279092,108.254252 120.923849,110.871734 120.923849,114.100618" id="Fill-13" fill="#FEFEFE" fill-rule="nonzero"></path>
                        <path d="M157.29122,78.1119334 C157.29122,81.3425274 154.645599,83.9605796 151.380986,83.9605796 C148.116949,83.9605796 145.473344,81.3425274 145.473344,78.1119334 C145.473344,74.8816248 148.116949,72.2635724 151.380986,72.2635724 C154.645599,72.2635724 157.29122,74.8816248 157.29122,78.1119334" id="Fill-15" fill="#FEFEFE" fill-rule="nonzero"></path>
                        <path d="M193.658015,114.100618 C193.658015,117.329501 191.011242,119.949264 187.750661,119.949264 C184.486048,119.949264 181.838698,117.329501 181.838698,114.100618 C181.838698,110.871734 184.486048,108.254252 187.750661,108.254252 C191.011242,108.254252 193.658015,110.871734 193.658015,114.100618" id="Fill-17" fill="#FEFEFE" fill-rule="nonzero"></path>
                        <path d="M66.3714824,114.100618 C66.3714824,117.329501 63.725861,119.949264 60.4615358,119.949264 C57.198939,119.949264 54.5515894,117.329501 54.5515894,114.100618 C54.5515894,110.870309 57.198939,108.254252 60.4615358,108.254252 C63.725861,108.254252 66.3714824,110.870309 66.3714824,114.100618" id="Fill-19" fill="#FEFEFE" fill-rule="nonzero"></path>
                        <polygon id="Fill-21" fill="#FEFEFE" fill-rule="nonzero" points="29.457705 78.2857768 11.0411847 60.0608836 62.9719814 8.6743753 57.8348386 3.5887696 0.766610918 60.0608836 24.319122 83.3693872"></polygon>
                        <polygon id="Fill-23" fill="#FEFEFE" fill-rule="nonzero" points="36.7653808 95.6851782 57.8329952 116.535819 62.9730184 111.451069 41.9022356 90.6024228"></polygon>
                        <polygon id="Fill-25" fill="#FEFEFE" fill-rule="nonzero" points="187.565367 119.078993 151.233799 83.1237434 114.902807 119.078993 60.4030068 65.1476864 8.47278606 116.535905 3.33535516 111.450869 60.4030068 54.9776152 114.902807 108.908637 151.233799 72.9545274 187.565367 108.908637 239.49818 57.520133 244.634746 62.6034584"></polygon>
                    </g>
                    <g id="Group-39" transform="translate(21.000000, 173.000000)" fill="#FFFFFF">
                        <path d="M22.5563933,43.0414967 L13.9008378,12.5393189 L13.6411711,12.5393189 C14.0393267,17.7326522 14.24706,21.7661411 14.24706,24.6484411 L14.24706,43.0414967 L4.10274889,43.0414967 L4.10274889,0.681207778 L19.3451822,0.681207778 L28.1825044,30.7592633 L28.4075489,30.7592633 L37.07176,0.681207778 L52.34016,0.681207778 L52.34016,43.0414967 L41.82366,43.0414967 L41.82366,24.4666744 C41.82366,23.5059078 41.8409711,22.4326189 41.8582822,21.2554633 C41.8929044,20.0783078 42.0227378,17.1960078 42.2564378,12.5912522 L41.9967711,12.5912522 L33.4537378,43.0414967 L22.5563933,43.0414967 Z" id="Fill-1"></path>
                        <path d="M67.4951722,26.5587222 C67.4951722,29.3717778 67.8673611,31.5183556 68.62905,32.9984556 C69.3734278,34.4785556 70.6457944,35.2229333 72.4201833,35.2229333 C74.1686056,35.2229333 75.4150056,34.4785556 76.1420722,32.9984556 C76.8691389,31.5183556 77.2326722,29.3717778 77.2326722,26.5587222 C77.2326722,23.7543222 76.8604833,21.6423667 76.1247611,20.2142 C75.3976944,18.7860333 74.1426389,18.0762778 72.3595944,18.0762778 C70.6198278,18.0762778 69.3734278,18.7860333 68.62905,20.2055444 C67.8673611,21.6164 67.4951722,23.7370111 67.4951722,26.5587222 M88.7618722,26.5587222 C88.7618722,31.9251667 87.3163944,36.1144556 84.4254389,39.1092778 C81.5431389,42.1127556 77.5009944,43.6188222 72.3076611,43.6188222 C67.3220611,43.6188222 63.3578167,42.0867889 60.4149278,39.0054111 C57.4633833,35.9413444 55.9919389,31.7866778 55.9919389,26.5587222 C55.9919389,21.2095889 57.4374167,17.0462667 60.3197167,14.0860667 C63.2106722,11.1258667 67.2614722,9.63711111 72.4807722,9.63711111 C75.7006389,9.63711111 78.5483167,10.3209 81.0238056,11.6971333 C83.4906389,13.0647111 85.4035167,15.0381778 86.7451278,17.5915667 C88.0867389,20.1536111 88.7618722,23.1311222 88.7618722,26.5587222" id="Fill-3"></path>
                        <path d="M116.689888,32.9577744 C116.689888,36.47193 115.486766,39.1291856 113.097832,40.9208856 C110.700243,42.7212411 107.263988,43.6127633 102.789066,43.6127633 C100.348199,43.6127633 98.2362433,43.4915856 96.4445433,43.2319189 C94.6441878,42.9635967 92.80921,42.4961967 90.9309544,41.7950967 L90.9309544,32.73273 C92.6966878,33.4944189 94.6182211,34.13493 96.7128656,34.6369522 C98.8161656,35.1389744 100.67711,35.3899856 102.321666,35.3899856 C104.779843,35.3899856 106.000277,34.83603 106.000277,33.7108078 C106.000277,33.1395411 105.66271,32.6115522 104.970266,32.1614633 C104.286477,31.7027189 102.287043,30.8198522 98.9892767,29.5128633 C95.9771433,28.2751189 93.8738433,26.8729189 92.6793767,25.2976078 C91.4762544,23.7222967 90.8790211,21.7315189 90.8790211,19.3166189 C90.8790211,16.2612078 92.0561767,13.8895856 94.4104878,12.1930967 C96.7647989,10.4879522 100.097188,9.63970778 104.407654,9.63970778 C106.571543,9.63970778 108.596943,9.87340778 110.501166,10.3494633 C112.405388,10.8168633 114.378854,11.5093078 116.430221,12.4181411 L113.357499,19.72343 C111.851432,19.0482967 110.25881,18.4683744 108.579632,17.9923189 C106.900454,17.5249189 105.524221,17.2825633 104.459588,17.2825633 C102.615954,17.2825633 101.681154,17.7413078 101.681154,18.6501411 C101.681154,19.2040967 102.010066,19.6888078 102.650577,20.0869633 C103.299743,20.4764633 105.169343,21.28143 108.259377,22.5018633 C110.561754,23.4453189 112.266899,24.3714633 113.400777,25.2802967 C114.525999,26.18913 115.365588,27.2537633 115.893577,28.4828522 C116.421566,29.7119411 116.689888,31.2006967 116.689888,32.9577744" id="Fill-5"></path>
                        <path d="M135.877523,34.6733056 C137.400901,34.6733056 139.227223,34.2924611 141.35649,33.5394278 L141.35649,41.7881722 C139.833112,42.4459944 138.378979,42.92205 136.985434,43.1990278 C135.609201,43.4846611 133.990612,43.6144944 132.138323,43.6144944 C128.338534,43.6144944 125.594723,42.68835 123.915546,40.8274056 C122.227712,38.9578056 121.396779,36.0928167 121.396779,32.2324389 L121.396779,18.7038056 L117.423879,18.7038056 L117.423879,14.09905 L122.470068,10.5416167 L125.395646,3.64313889 L132.813457,3.64313889 L132.813457,10.2213611 L140.863123,10.2213611 L140.863123,18.7038056 L132.813457,18.7038056 L132.813457,31.4794056 C132.813457,33.6086722 133.834812,34.6733056 135.877523,34.6733056" id="Fill-7"></path>
                        <path d="M20.4730011,77.68103 L12.6483789,77.68103 L12.6483789,104.55653 L5.81914556,104.55653 L5.81914556,77.68103 L0.539256667,77.68103 L0.539256667,74.4957856 L5.81914556,72.4097967 L5.81914556,70.3151522 C5.81914556,66.54133 6.70201222,63.73693 8.48505667,61.9106078 C10.2594456,60.0842856 12.9686344,59.1667967 16.6212789,59.1667967 C19.0188678,59.1667967 21.3731789,59.5649522 23.6928678,60.3612633 L21.8925122,65.5113189 C20.2133344,64.9660189 18.6120567,64.7063522 17.0800233,64.7063522 C15.5393344,64.7063522 14.4141122,65.1824078 13.7130122,66.1345189 C13.0032567,67.0952856 12.6483789,68.5234522 12.6483789,70.43633 L12.6483789,72.5223189 L20.4730011,72.5223189 L20.4730011,77.68103 Z" id="Fill-13"></path>
                        <path d="M40.0414811,71.9415311 C41.4090589,71.9415311 42.5429367,72.0453978 43.4344589,72.2271644 L42.7593256,78.5803422 C41.7985589,78.3379867 40.7945144,78.23412 39.7558478,78.23412 C37.0293478,78.23412 34.8221811,79.1169867 33.1343478,80.8913756 C31.4378589,82.6657644 30.59827,84.9767978 30.59827,87.81582 L30.59827,104.56432 L23.7950033,104.56432 L23.7950033,72.5214533 L29.11817,72.5214533 L30.0183478,78.1735311 L30.36457,78.1735311 C31.4292033,76.2606533 32.8140922,74.7459311 34.5278922,73.6207089 C36.2330367,72.5041422 38.0680144,71.9415311 40.0414811,71.9415311" id="Fill-15"></path>
                        <path d="M56.21958,99.9284044 C58.6950689,99.9284044 60.6771911,99.23596 62.1659467,97.8597267 C63.6633578,96.4834933 64.4163911,94.5446489 64.4163911,92.0518489 L64.4163911,89.2734156 L60.3050022,89.4378711 C57.0937911,89.5590489 54.7654467,90.0870378 53.3113133,91.0478044 C51.8485244,91.9999156 51.1214578,93.4627044 51.1214578,95.4275156 C51.1214578,96.8643378 51.54558,97.9722489 52.40248,98.7512489 C53.2420689,99.5302489 54.5230911,99.9284044 56.21958,99.9284044 L56.21958,99.9284044 Z M66.3552356,104.559127 L64.9963133,100.101516 L64.7626133,100.101516 C63.2219244,102.049016 61.6639244,103.373316 60.0972689,104.074416 C58.5392689,104.792827 56.53118,105.147704 54.0730022,105.147704 C50.9310356,105.147704 48.4642022,104.290804 46.6984689,102.594316 C44.9413911,100.889171 44.0498689,98.4915822 44.0498689,95.3842378 C44.0498689,92.0778156 45.2789578,89.5850156 47.7371356,87.9058378 C50.1866578,86.22666 53.9172022,85.3178267 58.9374244,85.1533711 L64.47698,84.9716044 L64.47698,83.26646 C64.47698,81.2237489 64.0009244,79.6917156 63.0401578,78.6790156 C62.0880467,77.6663156 60.5992911,77.1556378 58.5912022,77.1556378 C56.9466467,77.1556378 55.3799911,77.3893378 53.8739244,77.8827044 C52.3678578,78.3674156 50.92238,78.9300267 49.5288356,79.5878489 L47.3303244,74.7234267 C49.0614356,73.8145933 50.9656578,73.1221489 53.0343356,72.6547489 C55.1030133,72.1786933 57.0505133,71.9449933 58.8854911,71.9449933 C62.9536022,71.9449933 66.03498,72.8365156 68.1123133,74.6109044 C70.1896467,76.3852933 71.2196578,79.1810378 71.2196578,82.9808267 L71.2196578,104.559127 L66.3552356,104.559127 Z" id="Fill-17"></path>
                        <path d="M105.00835,104.560858 L98.1704611,104.560858 L98.1704611,84.80888 C98.1704611,82.3593578 97.7117167,80.52438 96.7769167,79.3126022 C95.8507722,78.1008244 94.4052944,77.5035911 92.4318278,77.5035911 C89.8091944,77.5035911 87.8790056,78.3691467 86.6585722,80.0742911 C85.4294833,81.7794356 84.8149389,84.6184578 84.8149389,88.6000133 L84.8149389,104.560858 L78.0116722,104.560858 L78.0116722,72.5266467 L83.3434944,72.5266467 L84.2956056,76.7245911 L84.6418278,76.7245911 C85.53335,75.1925578 86.8143722,74.0240578 88.5108611,73.1931244 C90.1986944,72.3621911 92.0596389,71.9380689 94.0850389,71.9380689 C99.01005,71.9380689 102.273194,73.6259022 103.874472,76.9756022 L104.341872,76.9756022 C105.285328,75.4002911 106.618283,74.1625467 108.340739,73.27968 C110.054539,72.3881578 112.028006,71.9380689 114.243828,71.9380689 C118.069583,71.9380689 120.856672,72.9161467 122.605094,74.83768 C124.353517,76.7678689 125.219072,79.7194133 125.219072,83.6750022 L125.219072,104.560858 L118.415806,104.560858 L118.415806,84.80888 C118.415806,82.3593578 117.948406,80.52438 117.013606,79.3126022 C116.078806,78.1008244 114.624672,77.5035911 112.651206,77.5035911 C110.002606,77.5035911 108.072417,78.3345244 106.843328,79.97908 C105.614239,81.6409467 105.00835,84.1770244 105.00835,87.5873133 L105.00835,104.560858 Z" id="Fill-19"></path>
                        <path d="M144.939024,77.0976456 C142.775136,77.0976456 141.044024,77.79009 139.737036,79.1490122 C138.438702,80.5252456 137.659702,82.5246789 137.408691,85.1559678 L151.950024,85.1559678 C151.906747,82.5073678 151.274891,80.5079344 150.037147,79.1403567 C148.799402,77.7814344 147.102913,77.0976456 144.939024,77.0976456 M146.185424,105.141646 C141.199824,105.141646 137.304824,103.687512 134.500424,100.779246 C131.687369,97.8709789 130.285169,93.8634567 130.285169,88.77399 C130.285169,83.5373789 131.592158,79.4346456 134.188824,76.4311678 C136.802802,73.4363456 140.386202,71.9389344 144.939024,71.9389344 C149.162936,71.9389344 152.512636,73.2286122 154.962158,75.7993122 C157.41168,78.3613567 158.640769,81.9014789 158.640769,86.4023678 L158.640769,90.0809789 L137.287513,90.0809789 C137.382724,93.1883233 138.230969,95.5772567 139.814936,97.2477789 C141.390247,98.9183011 143.62338,99.75789 146.50568,99.75789 C148.392591,99.75789 150.158324,99.5761233 151.785569,99.2212456 C153.421469,98.8663678 155.178547,98.2604789 157.048147,97.4382011 L157.048147,102.969101 C155.38628,103.756757 153.707102,104.319368 152.010613,104.648279 C150.305469,104.97719 148.366624,105.141646 146.185424,105.141646" id="Fill-21"></path>
                        <path d="M190.194597,104.560858 L186.048586,89.6127133 C185.555219,88.0374022 184.646386,84.3501356 183.330741,78.57688 L183.071074,78.57688 C181.954508,83.79618 181.05433,87.4834467 180.405163,89.6733022 L176.14663,104.560858 L168.616297,104.560858 L159.640486,72.5266467 L166.582241,72.5266467 L170.676319,88.31438 C171.602463,92.20938 172.260286,95.5504244 172.649786,98.3288578 L172.814241,98.3288578 C173.013319,96.9266578 173.307608,95.3080689 173.705763,93.4817467 C174.103919,91.6554244 174.441486,90.2965022 174.727119,89.3790133 L179.591541,72.5266467 L187.069941,72.5266467 L191.795874,89.3790133 C192.081508,90.3224689 192.445041,91.7766022 192.886474,93.7241022 C193.310597,95.6802578 193.570263,97.19498 193.639508,98.2682689 L193.881863,98.2682689 C194.167497,95.9053022 194.84263,92.5729133 195.907263,88.31438 L200.044619,72.5266467 L206.882508,72.5266467 L197.846108,104.560858 L190.194597,104.560858 Z" id="Fill-23"></path>
                        <path d="M214.775509,88.4831633 C214.775509,95.8750078 217.502009,99.5795856 222.97232,99.5795856 C228.373387,99.5795856 231.082576,95.8750078 231.082576,88.4831633 C231.082576,81.1605633 228.356076,77.4992633 222.911731,77.4992633 C220.055398,77.4992633 217.98672,78.4513744 216.705698,80.3469411 C215.41602,82.2338522 214.775509,84.9516967 214.775509,88.4831633 M238.093576,88.4831633 C238.093576,93.7111189 236.751964,97.8051967 234.068742,100.73943 C231.38552,103.673663 227.637664,105.145108 222.859798,105.145108 C219.864976,105.145108 217.216376,104.469974 214.922653,103.111052 C212.620276,101.760786 210.854542,99.8219411 209.616798,97.2945189 C208.387709,94.7670967 207.764509,91.8328633 207.764509,88.4831633 C207.764509,83.28983 209.097464,79.23903 211.75472,76.3221078 C214.429287,73.4051856 218.185798,71.9423967 223.024253,71.9423967 C227.663631,71.9423967 231.333587,73.4398078 234.042776,76.4173189 C236.743309,79.4034856 238.093576,83.4283189 238.093576,88.4831633" id="Fill-25"></path>
                        <path d="M259.61648,71.9415311 C260.984058,71.9415311 262.117936,72.0453978 263.000802,72.2271644 L262.334324,78.5803422 C261.373558,78.3379867 260.369513,78.23412 259.322191,78.23412 C256.595691,78.23412 254.388524,79.1169867 252.700691,80.8913756 C251.012858,82.6657644 250.164613,84.9767978 250.164613,87.81582 L250.164613,104.56432 L243.361347,104.56432 L243.361347,72.5214533 L248.693169,72.5214533 L249.593347,78.1735311 L249.939569,78.1735311 C251.004202,76.2606533 252.380436,74.7459311 254.094236,73.6207089 C255.808036,72.5041422 257.643013,71.9415311 259.61648,71.9415311" id="Fill-27"></path>
                        <polygon id="Fill-29" points="273.107029 87.6470367 276.958751 82.8345478 286.627007 72.5257811 294.486251 72.5257811 281.589473 86.2881144 295.291218 104.559992 287.30214 104.559992 277.01934 90.5120256 273.288796 93.5847478 273.288796 104.559992 266.528807 104.559992 266.528807 59.4905144 273.288796 59.4905144 273.288796 81.4756256 272.933918 87.6470367"></polygon>
                        <path d="M320.890023,95.4318433 C320.890023,98.5651544 319.74749,100.962743 317.462423,102.633266 C315.194668,104.303788 311.931523,105.143377 307.681646,105.143377 C303.405801,105.143377 299.986857,104.49421 297.398846,103.195877 L297.398846,97.3187544 C301.164012,99.0585211 304.669512,99.9327322 307.915346,99.9327322 C312.095979,99.9327322 314.199279,98.6603656 314.199279,96.1329433 C314.199279,95.3193211 313.965579,94.6441878 313.498179,94.1075433 C313.039434,93.5622433 312.277746,93.0082878 311.213112,92.41971 C310.157134,91.8397878 308.677034,91.1906211 306.781468,90.4548989 C303.094201,89.0267322 300.592746,87.5985656 299.294412,86.1703989 C297.987423,84.7422322 297.338257,82.8812878 297.338257,80.6048767 C297.338257,77.8697211 298.437512,75.7404544 300.653334,74.2170767 C302.869157,72.7023544 305.88129,71.9406656 309.681079,71.9406656 C313.446246,71.9406656 317.012334,72.7023544 320.362034,74.2343878 L318.172179,79.3671322 C314.709957,77.9389656 311.80169,77.2205544 309.447379,77.2205544 C305.863979,77.2205544 304.063623,78.24191 304.063623,80.2846211 C304.063623,81.2886656 304.522368,82.1455656 305.465823,82.83801 C306.400623,83.5304544 308.443334,84.4825656 311.593957,85.7029989 C314.233901,86.7243544 316.155434,87.66781 317.358557,88.5073989 C318.553023,89.3642989 319.43589,90.3423767 320.015812,91.4502878 C320.60439,92.5668544 320.890023,93.8911544 320.890023,95.4318433" id="Fill-31"></path>
                        <path d="M17.0289556,161.159536 C19.8247,161.159536 21.8674111,160.37188 23.1397778,158.805224 C24.4121444,157.221258 25.0699667,154.667869 25.1132444,151.136402 L25.1132444,150.175636 C25.1132444,146.150802 24.4554222,143.277158 23.1397778,141.572013 C21.8241333,139.875524 19.7641111,139.018624 16.9683667,139.018624 C14.5794333,139.018624 12.7271444,139.996702 11.4374667,141.935547 C10.1477889,143.883047 9.48996667,146.644169 9.48996667,150.236224 C9.48996667,153.785002 10.1218222,156.502847 11.3768778,158.363791 C12.6319333,160.233391 14.5101889,161.159536 17.0289556,161.159536 M15.2026333,166.664469 C11.2037667,166.664469 8.08776667,165.210336 5.84597778,162.31938 C3.60418889,159.419769 2.48762222,155.351658 2.48762222,150.123702 C2.48762222,144.86978 3.6215,140.784358 5.88925556,137.85878 C8.15701111,134.933202 11.2989778,133.470413 15.3151556,133.470413 C19.5304111,133.470413 22.7329667,135.019758 24.9314778,138.135758 L25.2863556,138.135758 C24.9574444,135.83338 24.7843333,134.015713 24.7843333,132.682758 L24.7843333,121.006413 L31.6308778,121.006413 L31.6308778,166.084547 L26.2904,166.084547 L25.1132444,161.877947 L24.7843333,161.877947 C22.6117889,165.071847 19.4092333,166.664469 15.2026333,166.664469" id="Fill-33"></path>
                        <path d="M48.46853,161.4469 C50.9440189,161.4469 52.9261411,160.754456 54.4235522,159.378222 C55.9209633,158.001989 56.6739967,156.063144 56.6739967,153.570344 L56.6739967,150.791911 L52.5626078,150.965022 C49.3513967,151.0862 47.0230522,151.614189 45.5602633,152.574956 C44.10613,153.527067 43.3704078,154.989856 43.3704078,156.954667 C43.3704078,158.382833 43.79453,159.490744 44.65143,160.2784 C45.4996744,161.0574 46.7720411,161.4469 48.46853,161.4469 L48.46853,161.4469 Z M58.6128411,166.086278 L57.2539189,161.628667 L57.0115633,161.628667 C55.4708744,163.567511 53.92153,164.900467 52.3548744,165.601567 C50.7882189,166.311322 48.78013,166.6662 46.3306078,166.6662 C43.1799856,166.6662 40.7218078,165.8093 38.9560744,164.112811 C37.1903411,162.407667 36.3074744,160.010078 36.3074744,156.902733 C36.3074744,153.596311 37.5279078,151.112167 39.9860856,149.424333 C42.4356078,147.745156 46.1748078,146.836322 51.19503,146.680522 L56.72593,146.498756 L56.72593,144.784956 C56.72593,142.742244 56.2498744,141.210211 55.2977633,140.206167 C54.3369967,139.184811 52.8568967,138.682789 50.8488078,138.682789 C49.2042522,138.682789 47.6289411,138.916489 46.1228744,139.4012 C44.6168078,139.885911 43.17133,140.457178 41.7864411,141.115 L39.5792744,136.250578 C41.3190411,135.333089 43.2232633,134.640644 45.2832856,134.173244 C47.3519633,133.705844 49.3081189,133.472144 51.1430967,133.472144 C55.2112078,133.472144 58.28393,134.355011 60.3612633,136.1294 C62.4385967,137.903789 63.4772633,140.708189 63.4772633,144.499322 L63.4772633,166.086278 L58.6128411,166.086278 Z" id="Fill-35"></path>
                        <path d="M65.0274733,134.043411 L72.4366289,134.043411 L78.9629178,152.211422 C79.9496511,154.790778 80.5988178,157.231644 80.9277289,159.508056 L81.1614289,159.508056 C81.33454,158.443422 81.6547956,157.1624 82.1221956,155.639022 C82.58094,154.115644 85.0391178,146.922878 89.4794178,134.043411 L96.8279844,134.043411 L83.12624,170.336156 C80.6420956,177.009589 76.4874289,180.333322 70.6708956,180.333322 C69.1734844,180.333322 67.70204,180.168867 66.2738733,179.839956 L66.2738733,174.4562 C67.2952289,174.681244 68.4637289,174.802422 69.7793733,174.802422 C73.0598289,174.802422 75.3708622,172.8982 76.7038178,169.098411 L77.8896289,166.086278 L65.0274733,134.043411 Z" id="Fill-37"></path>
                    </g>
                </g>
            </g>
        </g>
    </g>
</svg>