<?xml version="1.0" encoding="UTF-8"?>
<svg width="92px" height="92px" viewBox="0 0 92 92" version="1.1" xmlns="http://www.w3.org/2000/svg" xmlns:xlink="http://www.w3.org/1999/xlink">
    <!-- Generator: Sketch 46.2 (44496) - http://www.bohemiancoding.com/sketch -->
    <title>java-small</title>
    <desc>Created with Sketch.</desc>
    <defs>
        <linearGradient x1="50%" y1="0%" x2="50%" y2="117.015938%" id="linearGradient-1">
            <stop stop-color="#FFA566" offset="0%"></stop>
            <stop stop-color="#EC3F2E" offset="100%"></stop>
        </linearGradient>
        <polygon id="path-2" points="0 72.8 68.95 72.8 68.95 0.7 0 0.7"></polygon>
        <polygon id="path-4" points="0 72.8 68.95 72.8 68.95 0.7 0 0.7"></polygon>
        <polygon id="path-6" points="0 72.8 68.95 72.8 68.95 0.7 0 0.7"></polygon>
        <polygon id="path-8" points="0 72.8 68.95 72.8 68.95 0.7 0 0.7"></polygon>
        <polygon id="path-10" points="0 72.8 68.95 72.8 68.95 0.7 0 0.7"></polygon>
        <polygon id="path-12" points="0 72.8 68.95 72.8 68.95 0.7 0 0.7"></polygon>
        <polygon id="path-14" points="0 72.8 68.95 72.8 68.95 0.7 0 0.7"></polygon>
        <polygon id="path-16" points="0 72.8 68.95 72.8 68.95 0.7 0 0.7"></polygon>
    </defs>
    <g id="Large" stroke="none" stroke-width="1" fill="none" fill-rule="evenodd">
        <g id="small" transform="translate(-1601.000000, -177.000000)">
            <g id="Group-2-Copy" transform="translate(1601.000000, 177.000000)">
                <rect id="Rectangle" x="0" y="0" width="92" height="92"></rect>
                <g id="ь" transform="translate(11.000000, 9.000000)">
                    <polygon id="Fill-1" fill="url(#linearGradient-1)" fill-rule="nonzero" points="53.7432 14.4424 43.2894 24.8976 35.9744 17.5826 28.6608 24.8976 17.6876 13.9258 12.2038 19.411 7.7518 14.9604 18.2056 4.5052 17.1724 3.472 5.6826 14.9604 11.1692 20.4456 6.1992 25.4142 7.2352 26.4488 12.2038 21.4802 17.1724 26.4488 18.2056 25.4142 13.237 20.4456 17.6876 15.995 28.6608 26.9668 35.9744 19.6518 43.2894 26.9668 54.7778 15.477"></polygon>
                    <g id="Group-48" transform="translate(0.000000, 0.700000)">
                        <path d="M18.90406,3.28874 C18.90406,3.94534 18.37346,4.47734 17.71546,4.47734 C17.05886,4.47734 16.52686,3.94534 16.52686,3.28874 C16.52686,2.63354 17.05886,2.10014 17.71546,2.10014 C18.37346,2.10014 18.90406,2.63354 18.90406,3.28874 Z" id="Fill-3" fill="#EE5E2F" fill-rule="nonzero"></path>
                        <path d="M7.9058,14.2604 C7.9058,14.917 7.3738,15.449 6.7172,15.449 C6.0606,15.449 5.5286,14.917 5.5286,14.2604 C5.5286,13.6038 6.0606,13.0704 6.7172,13.0704 C7.3738,13.0704 7.9058,13.6038 7.9058,14.2604" id="Fill-5" fill="#EE5E2F" fill-rule="nonzero"></path>
                        <path d="M18.90406,14.2604 C18.90406,14.917 18.37346,15.449 17.71546,15.449 C17.05886,15.449 16.52686,14.917 16.52686,14.2604 C16.52686,13.6038 17.05886,13.0704 17.71546,13.0704 C18.37346,13.0704 18.90406,13.6038 18.90406,14.2604" id="Fill-7" fill="#EE5E2F" fill-rule="nonzero"></path>
                        <path d="M55.40248,14.2604 C55.40248,14.917 54.87048,15.449 54.21388,15.449 C53.55868,15.449 53.02528,14.917 53.02528,14.2604 C53.02528,13.6038 53.55868,13.0704 54.21388,13.0704 C54.87048,13.0704 55.40248,13.6038 55.40248,14.2604" id="Fill-9" fill="#EE5E2F" fill-rule="nonzero"></path>
                        <path d="M7.9058,25.2315 C7.9058,25.8881 7.3738,26.4215 6.7172,26.4215 C6.0606,26.4215 5.5286,25.8881 5.5286,25.2315 C5.5286,24.5749 6.0606,24.0443 6.7172,24.0443 C7.3738,24.0443 7.9058,24.5749 7.9058,25.2315" id="Fill-11" fill="#EC3F2E" fill-rule="nonzero"></path>
                        <path d="M29.84842,25.2315 C29.84842,25.8881 29.31642,26.4215 28.65982,26.4215 C28.00462,26.4215 27.47122,25.8881 27.47122,25.2315 C27.47122,24.5749 28.00462,24.0443 28.65982,24.0443 C29.31642,24.0443 29.84842,24.5749 29.84842,25.2315" id="Fill-13" fill="#EC3F2E" fill-rule="nonzero"></path>
                        <path d="M37.16286,17.91832 C37.16286,18.57352 36.63086,19.10552 35.97426,19.10552 C35.31766,19.10552 34.78566,18.57352 34.78566,17.91832 C34.78566,17.26172 35.31766,16.72832 35.97426,16.72832 C36.63086,16.72832 37.16286,17.26172 37.16286,17.91832" id="Fill-15" fill="#EE5E2F" fill-rule="nonzero"></path>
                        <path d="M44.4773,25.2315 C44.4773,25.8881 43.9439,26.4215 43.2887,26.4215 C42.6321,26.4215 42.1001,25.8881 42.1001,25.2315 C42.1001,24.5749 42.6321,24.0443 43.2887,24.0443 C43.9439,24.0443 44.4773,24.5749 44.4773,25.2315" id="Fill-17" fill="#EC3F2E" fill-rule="nonzero"></path>
                        <path d="M18.87816,25.2315 C18.87816,25.8881 18.34476,26.4215 17.68816,26.4215 C17.03296,26.4215 16.50096,25.8881 16.50096,25.2315 C16.50096,24.5749 17.03296,24.0443 17.68816,24.0443 C18.34476,24.0443 18.87816,24.5749 18.87816,25.2315" id="Fill-19" fill="#EC3F2E" fill-rule="nonzero"></path>
                        <path d="M18.76322,44.5648 L18.76322,40.9444 C18.76322,40.495 18.70162,40.1576 18.57702,39.9308 C18.45522,39.7054 18.25922,39.5934 17.99322,39.5934 C17.64042,39.5934 17.38282,39.7446 17.21762,40.0442 C17.05382,40.3466 16.97122,40.8198 16.97122,41.4624 L16.97122,44.5648 L14.66682,44.5648 L14.66682,40.9444 C14.66682,40.495 14.60942,40.1576 14.49182,39.9308 C14.37422,39.7054 14.18382,39.5934 13.92202,39.5934 C13.56082,39.5934 13.29762,39.753 13.13382,40.075 C12.96862,40.3956 12.88742,40.9206 12.88742,41.65 L12.88742,44.5648 L10.59002,44.5648 L10.59002,37.9064 L12.32182,37.9064 L12.61022,38.7296 L12.74742,38.7296 C12.92242,38.423 13.17862,38.1906 13.51322,38.031 C13.84782,37.87 14.22862,37.7888 14.65702,37.7888 C15.61462,37.7888 16.28802,38.0814 16.67722,38.6652 L16.85922,38.6652 C17.04682,38.3908 17.30862,38.1766 17.64462,38.0212 C17.97782,37.8672 18.34742,37.7888 18.75202,37.7888 C19.53882,37.7888 20.12122,37.9918 20.49642,38.395 C20.87162,38.7982 21.06062,39.4114 21.06062,40.2332 L21.06062,44.5648 L18.76322,44.5648 Z" id="Fill-21" fill="#1D1C1A" fill-rule="nonzero"></path>
                        <path d="M24.00104,41.22076 C24.00104,41.79336 24.07664,42.23016 24.22924,42.52976 C24.38184,42.82656 24.63944,42.97776 24.99784,42.97776 C25.35624,42.97776 25.60684,42.82656 25.75384,42.52976 C25.90084,42.23016 25.97504,41.79336 25.97504,41.22076 C25.97504,40.65376 25.90084,40.22396 25.75104,39.93416 C25.60264,39.64436 25.34644,39.50016 24.98804,39.50016 C24.63524,39.50016 24.38184,39.64436 24.22924,39.93136 C24.07664,40.21976 24.00104,40.64956 24.00104,41.22076 M28.31304,41.22076 C28.31304,42.30996 28.02044,43.15976 27.43524,43.76876 C26.84864,44.37776 26.02964,44.68296 24.97544,44.68296 C23.96604,44.68296 23.16104,44.36936 22.56324,43.74776 C21.96684,43.12476 21.66724,42.28196 21.66724,41.22076 C21.66724,40.13716 21.95984,39.29296 22.54504,38.69096 C23.13164,38.09036 23.95344,37.78936 25.01184,37.78936 C25.66564,37.78936 26.24244,37.92796 26.74364,38.20656 C27.24484,38.48516 27.63404,38.88276 27.90564,39.40216 C28.17584,39.92156 28.31304,40.52776 28.31304,41.22076" id="Fill-23" fill="#1D1C1A" fill-rule="nonzero"></path>
                        <path d="M34.01762,42.51954 C34.01762,43.23214 33.77402,43.77254 33.28822,44.13514 C32.80242,44.50054 32.10522,44.68254 31.19802,44.68254 C30.70382,44.68254 30.27542,44.65454 29.91002,44.60134 C29.54602,44.54954 29.17502,44.45294 28.79422,44.31154 L28.79422,42.47334 C29.14982,42.62874 29.54042,42.75894 29.96602,42.85974 C30.39162,42.96054 30.77102,43.01374 31.10282,43.01374 C31.59982,43.01374 31.84902,42.89894 31.84902,42.67214 C31.84902,42.55454 31.77902,42.44954 31.64042,42.35854 C31.50182,42.26474 31.09722,42.08554 30.42662,41.81954 C29.81622,41.56894 29.38922,41.28474 29.14702,40.96554 C28.90342,40.64634 28.78302,40.24174 28.78302,39.75174 C28.78302,39.13294 29.02102,38.64994 29.49842,38.30554 C29.97722,37.96254 30.65202,37.78894 31.52562,37.78894 C31.96522,37.78894 32.37682,37.83654 32.76322,37.93454 C33.14822,38.02974 33.55002,38.16974 33.96442,38.35314 L33.34282,39.83434 C33.03622,39.69574 32.71282,39.57954 32.37262,39.48434 C32.03102,39.38914 31.75382,39.34014 31.53822,39.34014 C31.16162,39.34014 30.97402,39.43254 30.97402,39.61734 C30.97402,39.73074 31.03982,39.82734 31.17002,39.90854 C31.30162,39.98834 31.67962,40.15214 32.30822,40.39854 C32.77302,40.59034 33.12162,40.77794 33.34982,40.96274 C33.57942,41.14754 33.74742,41.36314 33.85662,41.61234 C33.96302,41.86014 34.01762,42.16394 34.01762,42.51954" id="Fill-25" fill="#1D1C1A" fill-rule="nonzero"></path>
                        <path d="M37.9477,42.86548 C38.2571,42.86548 38.6267,42.78988 39.0579,42.63728 L39.0579,44.31168 C38.7471,44.44468 38.4531,44.53848 38.1731,44.59588 C37.8931,44.65188 37.5655,44.68268 37.1889,44.68268 C36.4175,44.68268 35.8603,44.49228 35.5215,44.11568 C35.1799,43.73768 35.0091,43.15668 35.0091,42.37268 L35.0091,39.62728 L34.2041,39.62728 L34.2041,38.69488 L35.2275,37.97108 L35.8197,36.57388 L37.3247,36.57388 L37.3247,37.90668 L38.9585,37.90668 L38.9585,39.62728 L37.3247,39.62728 L37.3247,42.22008 C37.3247,42.65128 37.5319,42.86548 37.9477,42.86548" id="Fill-27" fill="#1D1C1A" fill-rule="nonzero"></path>
                        <path d="M14.04578,50.75686 L12.45958,50.75686 L12.45958,56.20986 L11.07218,56.20986 L11.07218,50.75686 L10.00258,50.75686 L10.00258,50.11006 L11.07218,49.68726 L11.07218,49.26446 C11.07218,48.49726 11.25138,47.92746 11.61258,47.55786 C11.97378,47.18686 12.52258,47.00206 13.26318,47.00206 C13.75038,47.00206 14.22778,47.08326 14.69678,47.24286 L14.33418,48.28866 C13.99258,48.17946 13.66638,48.12486 13.35698,48.12486 C13.04338,48.12486 12.81518,48.22146 12.67238,48.41466 C12.52958,48.61066 12.45958,48.90046 12.45958,49.28826 L12.45958,49.71106 L14.04578,49.71106 L14.04578,50.75686 Z" id="Fill-29" fill="#1D1C1A" fill-rule="nonzero"></path>
                        <path d="M19.37166,56.20916 L19.17846,55.35796 L19.10846,55.35796 C18.91526,55.65896 18.64226,55.89556 18.28666,56.06776 C17.93386,56.23996 17.52926,56.32676 17.07426,56.32676 C16.28606,56.32676 15.69946,56.13076 15.31166,55.74016 C14.92526,55.34816 14.73066,54.75456 14.73066,53.95936 L14.73066,49.71036 L16.12226,49.71036 L16.12226,53.71856 C16.12226,54.21556 16.22446,54.58936 16.42746,54.83856 C16.63186,55.08636 16.95106,55.21096 17.38506,55.21096 C17.96606,55.21096 18.39166,55.03736 18.66326,54.69016 C18.93626,54.34436 19.07206,53.76336 19.07206,52.94856 L19.07206,49.71036 L20.45946,49.71036 L20.45946,56.20916 L19.37166,56.20916 Z" id="Fill-31" fill="#1D1C1A" fill-rule="nonzero"></path>
                        <path d="M27.62536,56.20916 L26.23936,56.20916 L26.23936,52.21356 C26.23936,51.71376 26.13856,51.33856 25.93556,51.09216 C25.73396,50.84576 25.41336,50.72116 24.97516,50.72116 C24.39136,50.72116 23.96576,50.89336 23.69556,51.23776 C23.42536,51.58216 23.28816,52.16036 23.28816,52.97236 L23.28816,56.20916 L21.90916,56.20916 L21.90916,49.71036 L22.98996,49.71036 L23.18316,50.56296 L23.25316,50.56296 C23.45056,50.25356 23.72776,50.01416 24.08896,49.84616 C24.44736,49.67676 24.84776,49.59276 25.28736,49.59276 C26.84556,49.59276 27.62536,50.38796 27.62536,51.97416 L27.62536,56.20916 Z" id="Fill-33" fill="#1D1C1A" fill-rule="nonzero"></path>
                        <path d="M31.7016,56.32676 C30.7174,56.32676 29.9712,56.04116 29.4588,55.46576 C28.9492,54.89316 28.6944,54.06856 28.6944,52.99476 C28.6944,51.90276 28.9604,51.06276 29.4952,50.47476 C30.03,49.88676 30.8028,49.59276 31.8136,49.59276 C32.4982,49.59276 33.1142,49.72156 33.6644,49.97496 L33.2458,51.08516 C32.6634,50.85976 32.1818,50.74636 31.801,50.74636 C30.6768,50.74636 30.1154,51.49116 30.1154,52.98356 C30.1154,53.71296 30.2554,54.25896 30.5354,54.62576 C30.8168,54.99256 31.2256,55.17596 31.766,55.17596 C32.3806,55.17596 32.963,55.02196 33.5104,54.71676 L33.5104,55.92216 C33.264,56.06636 33.0008,56.17136 32.7208,56.23436 C32.4408,56.29596 32.102,56.32676 31.7016,56.32676" id="Fill-35" fill="#1D1C1A" fill-rule="nonzero"></path>
                        <path d="M37.32428,55.2111 C37.66028,55.2111 37.99768,55.1579 38.33508,55.0515 L38.33508,56.0917 C38.18248,56.1589 37.98508,56.2149 37.74428,56.2597 C37.50348,56.3045 37.25288,56.3269 36.99528,56.3269 C35.68628,56.3269 35.03248,55.6381 35.03248,54.2577 L35.03248,50.7563 L34.14488,50.7563 L34.14488,50.1459 L35.09688,49.6405 L35.56728,48.2657 L36.41988,48.2657 L36.41988,49.7105 L38.27068,49.7105 L38.27068,50.7563 L36.41988,50.7563 L36.41988,54.2353 C36.41988,54.5685 36.50248,54.8149 36.66908,54.9731 C36.83568,55.1299 37.05548,55.2111 37.32428,55.2111" id="Fill-37" fill="#1D1C1A" fill-rule="nonzero"></path>
                        <g id="Fill-39-Clipped">
                            <mask id="mask-3" fill="white">
                                <use xlink:href="#path-2"></use>
                            </mask>
                            <g id="path-2"></g>
                            <path d="M39.1328,56.2086 L40.5132,56.2086 L40.5132,49.7098 L39.1328,49.7098 L39.1328,56.2086 Z M39.0502,47.9892 C39.0502,47.7428 39.1174,47.5524 39.2532,47.4194 C39.389,47.2864 39.5808,47.2206 39.8314,47.2206 C40.0736,47.2206 40.264,47.2864 40.3984,47.4194 C40.5342,47.5524 40.6028,47.7428 40.6028,47.9892 C40.6028,48.2244 40.5342,48.4092 40.3984,48.545 C40.264,48.6794 40.0736,48.7466 39.8314,48.7466 C39.5808,48.7466 39.389,48.6794 39.2532,48.545 C39.1174,48.4092 39.0502,48.2244 39.0502,47.9892 L39.0502,47.9892 Z" id="Fill-39" fill="#1D1C1A" fill-rule="nonzero" mask="url(#mask-3)"></path>
                        </g>
                        <g id="Fill-41-Clipped">
                            <mask id="mask-5" fill="white">
                                <use xlink:href="#path-4"></use>
                            </mask>
                            <g id="path-2"></g>
                            <path d="M43.02676,52.94842 C43.02676,54.44922 43.58116,55.19822 44.68856,55.19822 C45.78756,55.19822 46.33496,54.44922 46.33496,52.94842 C46.33496,51.46442 45.78336,50.72102 44.67876,50.72102 C44.09916,50.72102 43.67916,50.91422 43.41736,51.29782 C43.15696,51.68142 43.02676,52.23022 43.02676,52.94842 M47.75736,52.94842 C47.75736,54.01102 47.48436,54.83982 46.93976,55.43342 C46.39516,56.02842 45.63776,56.32662 44.66616,56.32662 C44.05856,56.32662 43.52236,56.18942 43.05616,55.91502 C42.58996,55.64202 42.23156,55.24862 41.98096,54.73342 C41.73036,54.22102 41.60436,53.62602 41.60436,52.94842 C41.60436,51.89562 41.87596,51.07242 42.41496,50.48022 C42.95676,49.88942 43.71836,49.59402 44.70116,49.59402 C45.64196,49.59402 46.38536,49.89502 46.93556,50.50262 C47.48436,51.10742 47.75736,51.92362 47.75736,52.94842" id="Fill-41" fill="#1D1C1A" fill-rule="nonzero" mask="url(#mask-5)"></path>
                        </g>
                        <g id="Fill-42-Clipped">
                            <mask id="mask-7" fill="white">
                                <use xlink:href="#path-6"></use>
                            </mask>
                            <g id="path-2"></g>
                            <path d="M54.58222,56.20916 L53.19622,56.20916 L53.19622,52.21356 C53.19622,51.71376 53.09542,51.33856 52.89382,51.09216 C52.69082,50.84576 52.37162,50.72116 51.93202,50.72116 C51.34822,50.72116 50.92262,50.89336 50.65102,51.23776 C50.38222,51.58216 50.24642,52.16036 50.24642,52.97236 L50.24642,56.20916 L48.86602,56.20916 L48.86602,49.71036 L49.94682,49.71036 L50.14002,50.56296 L50.21142,50.56296 C50.40742,50.25356 50.68462,50.01416 51.04722,49.84616 C51.40562,49.67676 51.80602,49.59276 52.24422,49.59276 C53.80242,49.59276 54.58222,50.38796 54.58222,51.97416 L54.58222,56.20916 Z" id="Fill-42" fill="#1D1C1A" fill-rule="nonzero" mask="url(#mask-7)"></path>
                        </g>
                        <g id="Fill-43-Clipped">
                            <mask id="mask-9" fill="white">
                                <use xlink:href="#path-8"></use>
                            </mask>
                            <g id="path-2"></g>
                            <path d="M57.98786,55.2699 C58.48906,55.2699 58.89226,55.1285 59.19466,54.8485 C59.49846,54.5685 59.65106,54.1765 59.65106,53.6697 L59.65106,53.1069 L58.81666,53.1419 C58.16566,53.1657 57.69386,53.2735 57.39706,53.4695 C57.10026,53.6627 56.95326,53.9581 56.95326,54.3599 C56.95326,54.6497 57.03866,54.8737 57.21226,55.0305 C57.38306,55.1901 57.64346,55.2699 57.98786,55.2699 L57.98786,55.2699 Z M60.04446,56.2093 L59.76726,55.3049 L59.71966,55.3049 C59.40746,55.7011 59.09246,55.9699 58.77466,56.1127 C58.45826,56.2555 58.05086,56.3269 57.55246,56.3269 C56.91406,56.3269 56.41706,56.1561 56.05726,55.8103 C55.69886,55.4659 55.51966,54.9787 55.51966,54.3473 C55.51966,53.6767 55.76886,53.1727 56.26726,52.8311 C56.76426,52.4909 57.52166,52.3047 58.54086,52.2725 L59.66226,52.2375 L59.66226,51.8917 C59.66226,51.4759 59.56566,51.1651 59.37106,50.9593 C59.17786,50.7521 58.87686,50.6513 58.47086,50.6513 C58.13626,50.6513 57.81706,50.7003 57.51186,50.7983 C57.20526,50.8963 56.91266,51.0125 56.62986,51.1455 L56.18466,50.1571 C56.53606,49.9737 56.92106,49.8337 57.34106,49.7385 C57.76106,49.6405 58.15586,49.5929 58.52826,49.5929 C59.35426,49.5929 59.97866,49.7735 60.40006,50.1347 C60.82006,50.4945 61.03146,51.0601 61.03146,51.8315 L61.03146,56.2093 L60.04446,56.2093 Z" id="Fill-43" fill="#1D1C1A" fill-rule="nonzero" mask="url(#mask-9)"></path>
                        </g>
                        <g id="Fill-44-Clipped">
                            <mask id="mask-11" fill="white">
                                <use xlink:href="#path-10"></use>
                            </mask>
                            <g id="path-2"></g>
                            <polygon id="Fill-44" fill="#1D1C1A" fill-rule="nonzero" mask="url(#mask-11)" points="62.4512 56.2086 63.8316 56.2086 63.8316 47.0666 62.4512 47.0666"></polygon>
                        </g>
                        <g id="Fill-45-Clipped">
                            <mask id="mask-13" fill="white">
                                <use xlink:href="#path-12"></use>
                            </mask>
                            <g id="path-2"></g>
                            <path d="M13.34578,66.85546 C13.91418,66.85546 14.32718,66.69726 14.58618,66.37666 C14.84378,66.05746 14.97818,65.54086 14.98518,64.82406 L14.98518,64.62946 C14.98518,63.81046 14.85078,63.22806 14.58618,62.88366 C14.31878,62.54066 13.90158,62.36706 13.33318,62.36706 C12.84878,62.36706 12.47358,62.56446 12.21178,62.95786 C11.94858,63.35126 11.81698,63.91266 11.81698,64.64066 C11.81698,65.36166 11.94578,65.91046 12.20058,66.28846 C12.45398,66.66786 12.83618,66.85546 13.34578,66.85546 M12.97618,67.97266 C12.16418,67.97266 11.53278,67.67866 11.07778,67.09066 C10.62278,66.50266 10.39598,65.67806 10.39598,64.61686 C10.39598,63.55286 10.62698,62.72266 11.08618,62.12906 C11.54678,61.53546 12.18378,61.23866 12.99998,61.23866 C13.85398,61.23866 14.50218,61.55506 14.95018,62.18506 L15.02018,62.18506 C14.95298,61.71886 14.91938,61.34926 14.91938,61.08046 L14.91938,58.71166 L16.30678,58.71166 L16.30678,67.85506 L15.22458,67.85506 L14.98518,67.00246 L14.91938,67.00246 C14.47838,67.64786 13.83018,67.97266 12.97618,67.97266" id="Fill-45" fill="#1D1C1A" fill-rule="nonzero" mask="url(#mask-13)"></path>
                        </g>
                        <g id="Fill-46-Clipped">
                            <mask id="mask-15" fill="white">
                                <use xlink:href="#path-14"></use>
                            </mask>
                            <g id="path-2"></g>
                            <path d="M19.76478,66.91566 C20.26458,66.91566 20.66778,66.77426 20.97158,66.49426 C21.27538,66.21426 21.42658,65.82226 21.42658,65.31546 L21.42658,64.75266 L20.59358,64.78766 C19.94118,64.81146 19.46938,64.91926 19.17398,65.11386 C18.87858,65.30846 18.72878,65.60386 18.72878,66.00566 C18.72878,66.29406 18.81558,66.51946 18.98918,66.67626 C19.16138,66.83446 19.41758,66.91566 19.76478,66.91566 L19.76478,66.91566 Z M21.82138,67.85506 L21.54418,66.95066 L21.49798,66.95066 C21.18438,67.34686 20.86938,67.61426 20.55018,67.75846 C20.23378,67.90126 19.82638,67.97266 19.32798,67.97266 C18.69098,67.97266 18.19118,67.80046 17.83418,67.45606 C17.47578,67.11166 17.29658,66.62306 17.29658,65.99166 C17.29658,65.32246 17.54438,64.81706 18.04278,64.47686 C18.53978,64.13526 19.29718,63.95046 20.31498,63.91686 L21.43778,63.88326 L21.43778,63.53606 C21.43778,63.12026 21.34118,62.80946 21.14798,62.60646 C20.95478,62.39926 20.65378,62.29566 20.24638,62.29566 C19.91178,62.29566 19.59258,62.34466 19.28738,62.44266 C18.98078,62.54066 18.68818,62.65686 18.40538,62.78986 L17.95878,61.80286 C18.31158,61.61946 18.69798,61.47946 19.11798,61.38286 C19.53658,61.28626 19.93138,61.23866 20.30518,61.23866 C21.13118,61.23866 21.75558,61.41926 22.17558,61.77906 C22.59558,62.14026 22.80698,62.70586 22.80698,63.47726 L22.80698,67.85506 L21.82138,67.85506 Z" id="Fill-46" fill="#1D1C1A" fill-rule="nonzero" mask="url(#mask-15)"></path>
                        </g>
                        <g id="Fill-47-Clipped">
                            <mask id="mask-17" fill="white">
                                <use xlink:href="#path-16"></use>
                            </mask>
                            <g id="path-2"></g>
                            <path d="M23.16216,61.35668 L24.66716,61.35668 L25.98876,65.04148 C26.18896,65.56508 26.32196,66.05788 26.38776,66.51988 L26.43536,66.51988 C26.47176,66.30568 26.53476,66.04388 26.62996,65.73728 C26.72376,65.42928 27.22076,63.96908 28.12236,61.35668 L29.61336,61.35668 L26.83576,68.71928 C26.33036,70.07028 25.48756,70.74648 24.30876,70.74648 C24.00356,70.74648 23.70536,70.71288 23.41416,70.64708 L23.41416,69.55228 C23.62276,69.60128 23.85936,69.62228 24.12676,69.62228 C24.79176,69.62228 25.26076,69.23868 25.52956,68.46588 L25.77176,67.85548 L23.16216,61.35668 Z" id="Fill-47" fill="#1D1C1A" fill-rule="nonzero" mask="url(#mask-17)"></path>
                        </g>
                    </g>
                </g>
            </g>
        </g>
    </g>
</svg>