<?xml version="1.0" encoding="UTF-8"?>
<svg width="92px" height="92px" viewBox="0 0 92 92" version="1.1" xmlns="http://www.w3.org/2000/svg" xmlns:xlink="http://www.w3.org/1999/xlink">
    <!-- Generator: Sketch 46.2 (44496) - http://www.bohemiancoding.com/sketch -->
    <title>mostjs-small</title>
    <desc>Created with Sketch.</desc>
    <defs>
        <linearGradient x1="33.0162747%" y1="17.4056817%" x2="41.789388%" y2="125.733087%" id="linearGradient-1">
            <stop stop-color="#6FCAED" offset="0%"></stop>
            <stop stop-color="#007EB1" offset="100%"></stop>
        </linearGradient>
    </defs>
    <g id="Large" stroke="none" stroke-width="1" fill="none" fill-rule="evenodd">
        <g id="small" transform="translate(-1040.000000, -56.000000)">
            <g id="Group" transform="translate(1040.000000, 56.000000)">
                <rect id="Rectangle" x="0" y="0" width="92" height="92"></rect>
                <g id="Без-назви-2" transform="translate(12.000000, 10.000000)">
                    <g id="Group-39" transform="translate(3.350000, 35.175000)" fill="#26231E">
                        <path d="M4.945605,8.9098275 L3.270605,3.0071275 L3.220355,3.0071275 C3.297405,4.0121275 3.337605,4.7926775 3.337605,5.3504525 L3.337605,8.9098275 L1.374505,8.9098275 L1.374505,0.7123775 L4.32418,0.7123775 L6.034355,6.5330025 L6.077905,6.5330025 L7.75458,0.7123775 L10.70928,0.7123775 L10.70928,8.9098275 L8.674155,8.9098275 L8.674155,5.3152775 C8.674155,5.1293525 8.677505,4.9216525 8.680855,4.6938525 C8.687555,4.4660525 8.71268,3.9082775 8.757905,3.0171775 L8.707655,3.0171775 L7.05443,8.9098275 L4.945605,8.9098275 Z" id="Fill-1"></path>
                        <path d="M13.6420375,5.720125 C13.6420375,6.2645 13.7140625,6.6799 13.8614625,6.966325 C14.0055125,7.25275 14.2517375,7.3968 14.5951125,7.3968 C14.9334625,7.3968 15.1746625,7.25275 15.3153625,6.966325 C15.4560625,6.6799 15.5264125,6.2645 15.5264125,5.720125 C15.5264125,5.177425 15.4543875,4.768725 15.3120125,4.49235 C15.1713125,4.215975 14.9284375,4.078625 14.5833875,4.078625 C14.2467125,4.078625 14.0055125,4.215975 13.8614625,4.490675 C13.7140625,4.7637 13.6420375,5.174075 13.6420375,5.720125 M17.7575125,5.720125 C17.7575125,6.758625 17.4777875,7.569325 16.9183375,8.148875 C16.3605625,8.7301 15.5783375,9.02155 14.5733375,9.02155 C13.6085375,9.02155 12.8413875,8.725075 12.2718875,8.128775 C11.7007125,7.535825 11.4159625,6.731825 11.4159625,5.720125 C11.4159625,4.684975 11.6956875,3.8793 12.2534625,3.30645 C12.8129125,2.7336 13.5968125,2.4455 14.6068375,2.4455 C15.2299375,2.4455 15.7810125,2.577825 16.2600625,2.84415 C16.7374375,3.1088 17.1076125,3.4907 17.3672375,3.984825 C17.6268625,4.480625 17.7575125,5.056825 17.7575125,5.720125" id="Fill-3"></path>
                        <path d="M23.1620675,6.9584525 C23.1620675,7.6385025 22.9292425,8.1527275 22.4669425,8.4994525 C22.0029675,8.8478525 21.3379925,9.0203775 20.4720175,9.0203775 C19.9996675,9.0203775 19.5909675,8.9969275 19.2442425,8.9466775 C18.8958425,8.8947525 18.5407425,8.8043025 18.1772675,8.6686275 L18.1772675,6.9149025 C18.5189675,7.0623025 18.8908175,7.1862525 19.2961675,7.2834025 C19.7031925,7.3805525 20.0633175,7.4291275 20.3815675,7.4291275 C20.8572675,7.4291275 21.0934425,7.3219275 21.0934425,7.1041775 C21.0934425,6.9936275 21.0281175,6.8914525 20.8941175,6.8043525 C20.7617925,6.7155775 20.3748675,6.5447275 19.7366925,6.2918025 C19.1537925,6.0522775 18.7467675,5.7809275 18.5156175,5.4760775 C18.2827925,5.1712275 18.1672175,4.7859775 18.1672175,4.3186525 C18.1672175,3.7273775 18.3950175,3.2684275 18.8506175,2.9401275 C19.3062175,2.6101525 19.9510925,2.4460025 20.7852425,2.4460025 C21.2039925,2.4460025 21.5959425,2.4912275 21.9644425,2.5833525 C22.3329425,2.6738025 22.7148425,2.8078025 23.1118175,2.9836775 L22.5171925,4.3973775 C22.2257425,4.2667275 21.9175425,4.1545025 21.5925925,4.0623775 C21.2676425,3.9719275 21.0013175,3.9250275 20.7952925,3.9250275 C20.4385175,3.9250275 20.2576175,4.0138025 20.2576175,4.1896775 C20.2576175,4.2968775 20.3212675,4.3906775 20.4452175,4.4677275 C20.5708425,4.5431025 20.9326425,4.6988775 21.5306175,4.9350525 C21.9761675,5.1176275 22.3061425,5.2968525 22.5255675,5.4727275 C22.7433175,5.6486025 22.9057925,5.8546275 23.0079675,6.0924775 C23.1101425,6.3303275 23.1620675,6.6184275 23.1620675,6.9584525" id="Fill-5"></path>
                        <path d="M26.8752075,7.2904375 C27.1700075,7.2904375 27.5234325,7.2167375 27.9354825,7.0710125 L27.9354825,8.6672875 C27.6406825,8.7945875 27.3592825,8.8867125 27.0896075,8.9403125 C26.8232825,8.9955875 26.5100575,9.0207125 26.1516075,9.0207125 C25.4162825,9.0207125 24.8853075,8.8414875 24.5603575,8.4813625 C24.2337325,8.1195625 24.0729325,7.5651375 24.0729325,6.8180875 L24.0729325,4.2000625 L23.3041075,4.2000625 L23.3041075,3.3089625 L24.2806325,2.6205375 L24.8467825,1.2855625 L26.2822575,1.2855625 L26.2822575,2.5585625 L27.8400075,2.5585625 L27.8400075,4.2000625 L26.2822575,4.2000625 L26.2822575,6.6723625 C26.2822575,7.0844125 26.4799075,7.2904375 26.8752075,7.2904375" id="Fill-7"></path>
                        <path d="M30.593205,11.4829625 C30.18953,11.4829625 29.805955,11.4444375 29.444155,11.3657125 L29.444155,9.6438125 C29.56308,9.6655875 29.69038,9.6923875 29.82438,9.7191875 C29.95838,9.7476625 30.104105,9.7610625 30.261555,9.7610625 C30.62838,9.7610625 30.88968,9.6505125 31.04713,9.4294125 C31.202905,9.2099875 31.28163,8.8331125 31.28163,8.2987875 L31.28163,0.7127125 L33.507705,0.7127125 L33.507705,8.1061625 C33.507705,9.2166875 33.26483,10.0575375 32.77908,10.6270375 C32.29333,11.1965375 31.564705,11.4829625 30.593205,11.4829625" id="Fill-9"></path>
                        <path d="M40.11491,6.420275 C40.11491,6.929475 39.985935,7.38005 39.72966,7.77535 C39.470035,8.168975 39.09986,8.4755 38.61411,8.69325 C38.126685,8.911 37.557185,9.02155 36.903935,9.02155 C36.357885,9.02155 35.898935,8.983025 35.530435,8.905975 C35.16026,8.828925 34.77501,8.694925 34.374685,8.50565 L34.374685,6.5325 C34.796785,6.748575 35.23731,6.919425 35.691235,7.040025 C36.14851,7.160625 36.56726,7.2226 36.947485,7.2226 C37.27746,7.2226 37.51866,7.16565 37.671085,7.05175 C37.825185,6.93785 37.902235,6.79045 37.902235,6.611225 C37.902235,6.499 37.87041,6.400175 37.808435,6.316425 C37.748135,6.232675 37.647635,6.148925 37.510285,6.061825 C37.37461,5.974725 37.011135,5.800525 36.421535,5.535875 C35.888885,5.291325 35.486885,5.056825 35.218885,4.829025 C34.950885,4.601225 34.75491,4.33825 34.625935,4.04345 C34.49696,3.74865 34.431635,3.398575 34.431635,2.9949 C34.431635,2.24115 34.706335,1.65155 35.255735,1.227775 C35.805135,0.805675 36.558885,0.594625 37.520335,0.594625 C38.367885,0.594625 39.23386,0.792275 40.11491,1.184225 L39.43821,2.896075 C38.672735,2.544325 38.009435,2.366775 37.453335,2.366775 C37.165235,2.366775 36.95586,2.417025 36.82521,2.5192 C36.69456,2.6197 36.629235,2.745325 36.629235,2.896075 C36.629235,3.053525 36.712985,3.19925 36.877135,3.324875 C37.044635,3.45385 37.496885,3.685 38.23221,4.02 C38.93906,4.33825 39.42816,4.67995 39.704535,5.0451 C39.979235,5.408575 40.11491,5.867525 40.11491,6.420275" id="Fill-11"></path>
                        <path d="M4.5424325,15.6131775 L3.0282325,15.6131775 L3.0282325,20.8140525 L1.7066575,20.8140525 L1.7066575,15.6131775 L0.6849075,15.6131775 L0.6849075,14.9967775 L1.7066575,14.5931025 L1.7066575,14.1877525 C1.7066575,13.4574525 1.8775075,12.9147525 2.2225575,12.5613275 C2.5659325,12.2079025 3.0902075,12.0303525 3.7970575,12.0303525 C4.2610325,12.0303525 4.7166325,12.1074025 5.1655325,12.2615025 L4.8171325,13.2581275 C4.4921825,13.1526025 4.1823075,13.1023525 3.8858325,13.1023525 C3.5876825,13.1023525 3.3699325,13.1944775 3.2342575,13.3787275 C3.0969075,13.5646525 3.0282325,13.8410275 3.0282325,14.2112025 L3.0282325,14.6148775 L4.5424325,14.6148775 L4.5424325,15.6131775 Z" id="Fill-13"></path>
                        <path d="M8.3292725,14.502485 C8.5939225,14.502485 8.8133475,14.522585 8.9858725,14.55776 L8.8552225,15.78721 C8.6692975,15.74031 8.4749975,15.72021 8.2739975,15.72021 C7.7463725,15.72021 7.3192475,15.89106 6.9926225,16.234435 C6.6643225,16.57781 6.5018475,17.025035 6.5018475,17.574435 L6.5018475,20.81556 L5.1852975,20.81556 L5.1852975,14.61471 L6.2154225,14.61471 L6.3896225,15.708485 L6.4566225,15.708485 C6.6626475,15.33831 6.9306475,15.045185 7.2622975,14.827435 C7.5922725,14.61136 7.9473725,14.502485 8.3292725,14.502485" id="Fill-15"></path>
                        <path d="M11.460015,19.91843 C11.939065,19.91843 12.32264,19.78443 12.61074,19.518105 C12.900515,19.25178 13.04624,18.87658 13.04624,18.39418 L13.04624,17.856505 L12.250615,17.88833 C11.62919,17.91178 11.178615,18.013955 10.897215,18.19988 C10.61414,18.38413 10.47344,18.667205 10.47344,19.04743 C10.47344,19.32548 10.555515,19.53988 10.72134,19.69063 C10.883815,19.84138 11.131715,19.91843 11.460015,19.91843 L11.460015,19.91843 Z M13.42144,20.814555 L13.158465,19.95193 L13.11324,19.95193 C12.81509,20.328805 12.51359,20.58508 12.210415,20.720755 C11.908915,20.85978 11.520315,20.928455 11.044615,20.928455 C10.43659,20.928455 9.959215,20.76263 9.617515,20.43433 C9.27749,20.104355 9.104965,19.64038 9.104965,19.039055 C9.104965,18.399205 9.342815,17.916805 9.818515,17.591855 C10.29254,17.266905 11.014465,17.09103 11.985965,17.059205 L13.057965,17.02403 L13.057965,16.694055 C13.057965,16.298755 12.96584,16.00228 12.779915,15.806305 C12.595665,15.61033 12.307565,15.511505 11.918965,15.511505 C11.600715,15.511505 11.29754,15.55673 11.00609,15.652205 C10.71464,15.746005 10.434915,15.85488 10.16524,15.98218 L9.73979,15.04083 C10.07479,14.864955 10.44329,14.730955 10.843615,14.640505 C11.24394,14.54838 11.620815,14.503155 11.975915,14.503155 C12.763165,14.503155 13.359465,14.67568 13.761465,15.019055 C14.163465,15.36243 14.36279,15.903455 14.36279,16.63878 L14.36279,20.814555 L13.42144,20.814555 Z" id="Fill-17"></path>
                        <path d="M20.9014875,20.81489 L19.5782375,20.81489 L19.5782375,16.99254 C19.5782375,16.518515 19.4894625,16.163415 19.3085625,15.928915 C19.1293375,15.694415 18.8496125,15.57884 18.4677125,15.57884 C17.9601875,15.57884 17.5866625,15.74634 17.3504875,16.076315 C17.1126375,16.40629 16.9937125,16.95569 16.9937125,17.72619 L16.9937125,20.81489 L15.6771625,20.81489 L15.6771625,14.615715 L16.7089625,14.615715 L16.8932125,15.42809 L16.9602125,15.42809 C17.1327375,15.131615 17.3806375,14.90549 17.7089375,14.74469 C18.0355625,14.58389 18.3956875,14.501815 18.7876375,14.501815 C19.7407125,14.501815 20.3721875,14.82844 20.6820625,15.476665 L20.7725125,15.476665 C20.9550875,15.171815 21.2130375,14.93229 21.5463625,14.76144 C21.8780125,14.588915 22.2599125,14.501815 22.6887125,14.501815 C23.4290625,14.501815 23.9684125,14.69109 24.3067625,15.06294 C24.6451125,15.436465 24.8126125,16.00764 24.8126125,16.773115 L24.8126125,20.81489 L23.4960625,20.81489 L23.4960625,16.99254 C23.4960625,16.518515 23.4056125,16.163415 23.2247125,15.928915 C23.0438125,15.694415 22.7624125,15.57884 22.3805125,15.57884 C21.8679625,15.57884 21.4944375,15.73964 21.2565875,16.05789 C21.0187375,16.37949 20.9014875,16.870265 20.9014875,17.530215 L20.9014875,20.81489 Z" id="Fill-19"></path>
                        <path d="M28.628765,15.5002825 C28.210015,15.5002825 27.875015,15.6342825 27.62209,15.8972575 C27.37084,16.1635825 27.22009,16.5505075 27.171515,17.0597075 L29.985515,17.0597075 C29.97714,16.5471575 29.854865,16.1602325 29.61534,15.8955825 C29.375815,15.6326075 29.047515,15.5002825 28.628765,15.5002825 M28.869965,20.9272825 C27.905165,20.9272825 27.151415,20.6458825 26.608715,20.0830825 C26.06434,19.5202825 25.79299,18.7447575 25.79299,17.7598575 C25.79299,16.7464825 26.045915,15.9525325 26.548415,15.3713075 C27.054265,14.7917575 27.747715,14.5019825 28.628765,14.5019825 C29.446165,14.5019825 30.09439,14.7515575 30.568415,15.2490325 C31.04244,15.7448325 31.28029,16.4299075 31.28029,17.3009075 L31.28029,18.0127825 L27.148065,18.0127825 C27.16649,18.6141075 27.33064,19.0764075 27.637165,19.3996825 C27.942015,19.7229575 28.374165,19.8854325 28.93194,19.8854325 C29.29709,19.8854325 29.63879,19.8502575 29.95369,19.7815825 C30.270265,19.7129075 30.61029,19.5956575 30.97209,19.4365325 L30.97209,20.5068575 C30.65049,20.6592825 30.32554,20.7681575 29.99724,20.8318075 C29.667265,20.8954575 29.292065,20.9272825 28.869965,20.9272825" id="Fill-21"></path>
                        <path d="M37.3865025,20.81489 L36.5841775,17.922165 C36.4887025,17.617315 36.3128275,16.903765 36.0582275,15.78654 L36.0079775,15.78654 C35.7919025,16.796565 35.6177025,17.510115 35.4920775,17.93389 L34.6679775,20.81489 L33.2107275,20.81489 L31.4737525,14.615715 L32.8171025,14.615715 L33.6093775,17.670915 C33.7886025,18.424665 33.9159025,19.071215 33.9912775,19.60889 L34.0231025,19.60889 C34.0616275,19.33754 34.1185775,19.024315 34.1956275,18.67089 C34.2726775,18.317465 34.3380025,18.05449 34.3932775,17.87694 L35.3346275,14.615715 L36.7818275,14.615715 L37.6963775,17.87694 C37.7516525,18.059515 37.8220025,18.340915 37.9074275,18.71779 C37.9895025,19.09634 38.0397525,19.389465 38.0531525,19.597165 L38.1000525,19.597165 C38.1553275,19.13989 38.2859775,18.495015 38.4920025,17.670915 L39.2926525,14.615715 L40.6159025,14.615715 L38.8672025,20.81489 L37.3865025,20.81489 Z" id="Fill-23"></path>
                        <path d="M42.143335,17.7035775 C42.143335,19.1340275 42.67096,19.8509275 43.72956,19.8509275 C44.77476,19.8509275 45.299035,19.1340275 45.299035,17.7035775 C45.299035,16.2865275 44.77141,15.5780025 43.717835,15.5780025 C43.165085,15.5780025 42.76476,15.7622525 42.51686,16.1290775 C42.267285,16.4942275 42.143335,17.0201775 42.143335,17.7035775 M46.655785,17.7035775 C46.655785,18.7152775 46.39616,19.5075525 45.87691,20.0753775 C45.35766,20.6432025 44.632385,20.9279525 43.707785,20.9279525 C43.128235,20.9279525 42.615685,20.7973025 42.17181,20.5343275 C41.72626,20.2730275 41.38456,19.8978275 41.145035,19.4087275 C40.907185,18.9196275 40.786585,18.3518025 40.786585,17.7035775 C40.786585,16.6985775 41.044535,15.9146775 41.55876,15.3502025 C42.076335,14.7857275 42.803285,14.5026525 43.73961,14.5026525 C44.63741,14.5026525 45.34761,14.7924275 45.871885,15.3686275 C46.394485,15.9465025 46.655785,16.7253775 46.655785,17.7035775" id="Fill-25"></path>
                        <path d="M50.82084,14.502485 C51.08549,14.502485 51.304915,14.522585 51.475765,14.55776 L51.34679,15.78721 C51.160865,15.74031 50.966565,15.72021 50.76389,15.72021 C50.236265,15.72021 49.80914,15.89106 49.482515,16.234435 C49.15589,16.57781 48.99174,17.025035 48.99174,17.574435 L48.99174,20.81556 L47.67519,20.81556 L47.67519,14.61471 L48.70699,14.61471 L48.88119,15.708485 L48.94819,15.708485 C49.154215,15.33831 49.42054,15.045185 49.75219,14.827435 C50.08384,14.61136 50.43894,14.502485 50.82084,14.502485" id="Fill-27"></path>
                        <polygon id="Fill-29" points="53.431495 17.5417725 54.17687 16.6104725 56.047845 14.6155475 57.568745 14.6155475 55.072995 17.2787975 57.72452 20.8147225 56.178495 20.8147225 54.188595 18.0961975 53.46667 18.6908225 53.46667 20.8147225 52.158495 20.8147225 52.158495 12.0929975 53.46667 12.0929975 53.46667 16.3474975 53.397995 17.5417725"></polygon>
                        <path d="M62.6783325,19.0482675 C62.6783325,19.6546175 62.4572325,20.1185925 62.0150325,20.4418675 C61.5761825,20.7651425 60.9447075,20.9276175 60.1222825,20.9276175 C59.2948325,20.9276175 58.6332075,20.8019925 58.1323825,20.5507425 L58.1323825,19.4134175 C58.8610075,19.7500925 59.5393825,19.9192675 60.1675075,19.9192675 C60.9765325,19.9192675 61.3835575,19.6730425 61.3835575,19.1839425 C61.3835575,19.0264925 61.3383325,18.8958425 61.2478825,18.7919925 C61.1591075,18.6864675 61.0117075,18.5792675 60.8056825,18.4653675 C60.6013325,18.3531425 60.3149075,18.2275175 59.9480825,18.0851425 C59.2345325,17.8087675 58.7504575,17.5323925 58.4992075,17.2560175 C58.2462825,16.9796425 58.1206575,16.6195175 58.1206575,16.1789925 C58.1206575,15.6496925 58.3333825,15.2376425 58.7621825,14.9428425 C59.1909825,14.6497175 59.7738825,14.5023175 60.5092075,14.5023175 C61.2378325,14.5023175 61.9279325,14.6497175 62.5761575,14.9461925 L62.1523825,15.9394675 C61.4823825,15.6630925 60.9195825,15.5240675 60.4639825,15.5240675 C59.7705325,15.5240675 59.4221325,15.7217175 59.4221325,16.1170175 C59.4221325,16.3113175 59.5109075,16.4771425 59.6934825,16.6111425 C59.8743825,16.7451425 60.2696825,16.9293925 60.8793825,17.1655675 C61.3902575,17.3632175 61.7621075,17.5457925 61.9949325,17.7082675 C62.2260825,17.8740925 62.3969325,18.0633675 62.5091575,18.2777675 C62.6230575,18.4938425 62.6783325,18.7501175 62.6783325,19.0482675" id="Fill-31"></path>
                        <path d="M3.87595,31.767715 C4.416975,31.767715 4.812275,31.61529 5.0585,31.312115 C5.304725,31.00559 5.432025,30.511465 5.4404,29.828065 L5.4404,29.64214 C5.4404,28.863265 5.3131,28.307165 5.0585,27.97719 C4.8039,27.64889 4.40525,27.483065 3.864225,27.483065 C3.401925,27.483065 3.043475,27.67234 2.7939,28.04754 C2.544325,28.424415 2.417025,28.95874 2.417025,29.653865 C2.417025,30.340615 2.5393,30.866565 2.782175,31.22669 C3.02505,31.58849 3.388525,31.767715 3.87595,31.767715 M3.522525,32.833015 C2.748675,32.833015 2.145675,32.551615 1.71185,31.992165 C1.278025,31.43104 1.06195,30.64379 1.06195,29.63209 C1.06195,28.615365 1.281375,27.824765 1.720225,27.258615 C2.159075,26.692465 2.7671,26.40939 3.5443,26.40939 C4.360025,26.40939 4.979775,26.709215 5.405225,27.312215 L5.4739,27.312215 C5.41025,26.866665 5.37675,26.514915 5.37675,26.256965 L5.37675,23.99739 L6.701675,23.99739 L6.701675,32.72079 L5.6682,32.72079 L5.4404,31.90674 L5.37675,31.90674 C4.956325,32.524815 4.336575,32.833015 3.522525,32.833015" id="Fill-33"></path>
                        <path d="M9.9600525,31.823325 C10.4391025,31.823325 10.8226775,31.689325 11.1124525,31.423 C11.4022275,31.156675 11.5479525,30.781475 11.5479525,30.299075 L11.5479525,29.7614 L10.7523275,29.7949 C10.1309025,29.81835 9.6803275,29.920525 9.3972525,30.10645 C9.1158525,30.2907 8.9734775,30.573775 8.9734775,30.954 C8.9734775,31.230375 9.0555525,31.444775 9.2213775,31.5972 C9.3855275,31.74795 9.6317525,31.823325 9.9600525,31.823325 L9.9600525,31.823325 Z M11.9231525,32.721125 L11.6601775,31.8585 L11.6132775,31.8585 C11.3151275,32.2337 11.0153025,32.49165 10.7121275,32.627325 C10.4089525,32.764675 10.0203525,32.83335 9.5463275,32.83335 C8.9366275,32.83335 8.4609275,32.667525 8.1192275,32.339225 C7.7775275,32.00925 7.6066775,31.545275 7.6066775,30.94395 C7.6066775,30.3041 7.8428525,29.823375 8.3185525,29.49675 C8.7925775,29.1718 9.5161775,28.995925 10.4876775,28.965775 L11.5580025,28.9306 L11.5580025,28.59895 C11.5580025,28.20365 11.4658775,27.907175 11.2816275,27.712875 C11.0957025,27.515225 10.8092775,27.418075 10.4206775,27.418075 C10.1024275,27.418075 9.7975775,27.4633 9.5061275,27.5571 C9.2146775,27.6509 8.9349525,27.76145 8.6669525,27.88875 L8.2398275,26.9474 C8.5765025,26.76985 8.9450025,26.63585 9.3436525,26.5454 C9.7439775,26.45495 10.1225275,26.409725 10.4776275,26.409725 C11.2648775,26.409725 11.8595025,26.580575 12.2615025,26.92395 C12.6635025,27.267325 12.8645025,27.810025 12.8645025,28.543675 L12.8645025,32.721125 L11.9231525,32.721125 Z" id="Fill-35"></path>
                        <path d="M13.164495,26.520275 L14.598295,26.520275 L15.861245,30.0361 C16.052195,30.53525 16.17782,31.0076 16.24147,31.448125 L16.286695,31.448125 C16.320195,31.2421 16.38217,30.9942 16.47262,30.6994 C16.561395,30.4046 17.037095,29.012675 17.89637,26.520275 L19.318445,26.520275 L16.66692,33.54355 C16.186195,34.834975 15.382195,35.478175 14.256595,35.478175 C13.96682,35.478175 13.68207,35.44635 13.405695,35.3827 L13.405695,34.34085 C13.603345,34.3844 13.82947,34.40785 14.08407,34.40785 C14.718895,34.40785 15.16612,34.03935 15.42407,33.304025 L15.653545,32.721125 L13.164495,26.520275 Z" id="Fill-37"></path>
                    </g>
                    <polygon id="Fill-40" fill="url(#linearGradient-1)" points="0.256275 13.679725 5.978075 19.401525 0.795625 24.583975 1.874325 25.66435 7.056775 20.480225 12.239225 25.66435 13.3196 24.583975 8.135475 19.401525 12.78025 14.758425 24.22385 26.2037 31.85515 18.5724 39.484775 26.2037 51.467725 14.219075 50.389025 13.1387 39.484775 24.044625 31.85515 16.415 24.22385 24.044625 12.78025 12.59935 7.056775 18.322825 2.413675 13.679725 13.3196 2.7738 12.239225 1.6951"></polygon>
                    <g id="Group-60">
                        <path d="M14.04856,2.2336125 C14.04856,2.9186875 13.49246,3.4731125 12.807385,3.4731125 C12.123985,3.4731125 11.567885,2.9186875 11.567885,2.2336125 C11.567885,1.5485375 12.123985,0.9941125 12.807385,0.9941125 C13.49246,0.9941125 14.04856,1.5485375 14.04856,2.2336125" id="Fill-42" fill="#40B8E6"></path>
                        <path d="M2.5746425,13.6788875 C2.5746425,14.3639625 2.0185425,14.9200625 1.3351425,14.9200625 C0.6500675,14.9200625 0.0956425,14.3639625 0.0956425,13.6788875 C0.0956425,12.9938125 0.6500675,12.4393875 1.3351425,12.4393875 C2.0185425,12.4393875 2.5746425,12.9938125 2.5746425,13.6788875" id="Fill-44" fill="#55B0E3"></path>
                        <path d="M14.04856,13.6788875 C14.04856,14.3639625 13.49246,14.9200625 12.807385,14.9200625 C12.123985,14.9200625 11.567885,14.3639625 11.567885,13.6788875 C11.567885,12.9938125 12.123985,12.4393875 12.807385,12.4393875 C13.49246,12.4393875 14.04856,12.9938125 14.04856,13.6788875" id="Fill-46" fill="#55B0E3"></path>
                        <path d="M52.12131,13.6788875 C52.12131,14.3639625 51.566885,14.9200625 50.88181,14.9200625 C50.19841,14.9200625 49.64231,14.3639625 49.64231,13.6788875 C49.64231,12.9938125 50.19841,12.4393875 50.88181,12.4393875 C51.566885,12.4393875 52.12131,12.9938125 52.12131,13.6788875" id="Fill-48" fill="#55B0E3"></path>
                        <path d="M2.5746425,25.123325 C2.5746425,25.8084 2.0185425,26.362825 1.3351425,26.362825 C0.6500675,26.362825 0.0956425,25.8084 0.0956425,25.123325 C0.0956425,24.439925 0.6500675,23.883825 1.3351425,23.883825 C2.0185425,23.883825 2.5746425,24.439925 2.5746425,25.123325" id="Fill-50" fill="#007EB1"></path>
                        <path d="M25.464355,25.123325 C25.464355,25.8084 24.908255,26.362825 24.224855,26.362825 C23.53978,26.362825 22.985355,25.8084 22.985355,25.123325 C22.985355,24.439925 23.53978,23.883825 24.224855,23.883825 C24.908255,23.883825 25.464355,24.439925 25.464355,25.123325" id="Fill-52" fill="#007EB1"></path>
                        <path d="M33.094315,17.493365 C33.094315,18.17844 32.53989,18.73454 31.854815,18.73454 C31.16974,18.73454 30.615315,18.17844 30.615315,17.493365 C30.615315,16.80829 31.16974,16.253865 31.854815,16.253865 C32.53989,16.253865 33.094315,16.80829 33.094315,17.493365" id="Fill-54" fill="#55B0E3"></path>
                        <path d="M40.7234375,25.123325 C40.7234375,25.8084 40.1690125,26.362825 39.4856125,26.362825 C38.8005375,26.362825 38.2461125,25.8084 38.2461125,25.123325 C38.2461125,24.439925 38.8005375,23.883825 39.4856125,23.883825 C40.1690125,23.883825 40.7234375,24.439925 40.7234375,25.123325" id="Fill-56" fill="#007EB1"></path>
                        <path d="M14.0199175,25.123325 C14.0199175,25.8084 13.4638175,26.362825 12.7804175,26.362825 C12.0953425,26.362825 11.5409175,25.8084 11.5409175,25.123325 C11.5409175,24.43825 12.0953425,23.883825 12.7804175,23.883825 C13.4638175,23.883825 14.0199175,24.43825 14.0199175,25.123325" id="Fill-58" fill="#007EB1"></path>
                    </g>
                </g>
            </g>
        </g>
    </g>
</svg>