<?xml version="1.0" encoding="UTF-8"?>
<svg width="580px" height="580px" viewBox="0 0 580 580" version="1.1" xmlns="http://www.w3.org/2000/svg" xmlns:xlink="http://www.w3.org/1999/xlink">
    <!-- Generator: Sketch 46.2 (44496) - http://www.bohemiancoding.com/sketch -->
    <title>NET_big</title>
    <desc>Created with Sketch.</desc>
    <defs>
        <polygon id="path-1" points="12.0794146 0.162983373 12.0794146 11.8602755 0.259953542 11.8602755 0.259953542 0.162983373"></polygon>
        <polygon id="path-3" points="0.246876656 0.050736342 12.0667698 0.050736342 12.0667698 11.7471164 0.246876656 11.7471164"></polygon>
    </defs>
    <g id="Large" stroke="none" stroke-width="1" fill="none" fill-rule="evenodd">
        <g id="big-copy" transform="translate(-1263.000000, -31.000000)">
            <g id="Group-Copy" transform="translate(1263.000000, 31.000000)">
                <rect id="Rectangle-11" x="0" y="0" width="580" height="580"></rect>
                <g id="Net_big" transform="translate(166.000000, 144.000000)">
                    <g id="PHP" transform="translate(26.000000, 172.000000)" fill-rule="nonzero" fill="#FFFFFF">
                        <path d="M19.6743507,78 L11.953312,78 L11.953312,104.140845 L5.20455214,104.140845 L5.20455214,78 L0,78 L0,74.9014088 L5.20455214,72.8732396 L5.20455214,70.8450706 C5.20455214,67.1643012 6.08150084,64.4366286 7.83542462,62.6619722 C9.58934838,60.8873148 12.2678547,60 15.8710242,60 C18.2350085,60 20.560829,60.384972 22.8485556,61.1549298 L21.0755764,66.1690136 C19.4169745,65.64319 17.834654,65.3802816 16.3285672,65.3802816 C14.8034161,65.3802816 13.6929322,65.845066 12.997082,66.7746476 C12.3012318,67.70423 11.953312,69.0985824 11.953312,70.9577462 L11.953312,72.9859152 L19.6743507,72.9859152 L19.6743507,78 Z M50.9874526,104.140845 L46.8981616,89.6056336 C46.4024876,88.0657202 45.5064746,84.488291 44.2100964,78.8732394 L43.9527284,78.8732394 C42.8469938,83.9436874 41.970045,87.5398956 41.3218558,89.6619718 L37.1181792,104.140845 L29.6831048,104.140845 L20.8182084,72.9859152 L27.681354,72.9859152 L31.713452,88.3380282 C32.6285426,92.1314742 33.2767222,95.3802686 33.65801,98.0845074 L33.8295886,98.0845074 C34.0202324,96.713608 34.31096,95.1408546 34.70178,93.3661972 C35.0926,91.5915406 35.4309878,90.2629156 35.7169536,89.3802824 L40.5211556,72.9859152 L47.899037,72.9859152 L52.5602568,89.3802824 C52.8462226,90.3004748 53.2036746,91.7089112 53.6326232,93.6056342 C54.061572,95.5023572 54.3141714,96.9765212 54.390429,98.0281692 L54.6192004,98.0281692 C54.9051662,95.7182982 55.5724098,92.488284 56.6209512,88.3380282 L60.7102422,72.9859152 L67.459002,72.9859152 L58.5369128,104.140845 L50.9874526,104.140845 Z M83.5587974,104.704226 C79.6124688,104.704226 76.5336166,103.295789 74.3221478,100.478873 C72.1106782,97.661958 71.0049606,93.7089458 71.0049606,88.6197186 C71.0049606,83.5117114 72.1249768,79.5352252 74.3650422,76.6901406 C76.6051076,73.845056 79.707791,72.4225354 83.6731836,72.4225354 C87.8292206,72.4225354 90.9938616,73.9342576 93.1672012,76.9577468 L93.510359,76.9577468 C93.1862642,74.7229934 93.0242194,72.9577528 93.0242194,71.6619718 L93.0242194,60.3098586 L99.7729798,60.3098586 L99.7729798,104.140845 L94.5112338,104.140845 L93.3387806,100.056338 L93.0242194,100.056338 C90.8699438,103.154945 87.7148344,104.704226 83.5587974,104.704226 Z M85.360373,99.3521128 C88.12471,99.3521128 90.1359724,98.5868626 91.3942222,97.0563384 C92.6524718,95.525814 93.3006516,93.0422708 93.3387806,89.6056336 L93.3387806,88.6760568 C93.3387806,84.7511542 92.690601,81.9624494 91.3942222,80.3098594 C90.0978434,78.6572686 88.0675168,77.8309862 85.3031808,77.8309862 C82.9391968,77.8309862 81.1185746,78.7746382 79.841261,80.6619722 C78.5639462,82.5493052 77.925299,85.2394196 77.925299,88.7323942 C77.925299,92.1878106 78.5448822,94.8215876 79.7840678,96.6338032 C81.0232524,98.4460188 82.8820026,99.3521128 85.360373,99.3521128 Z M129.17012,104.140845 L127.826087,99.802817 L127.597315,99.802817 C126.072164,101.69954 124.537504,102.990607 122.993289,103.676057 C121.449073,104.361506 119.466406,104.704226 117.045229,104.704226 C113.937733,104.704226 111.511827,103.877943 109.767435,102.225352 C108.023043,100.572762 107.150861,98.2347576 107.150861,95.2112682 C107.150861,91.999984 108.361431,89.577473 110.782608,87.9436622 C113.203786,86.3098514 116.89269,85.4178418 121.849431,85.267606 L127.311351,85.0985912 L127.311351,83.43662 C127.311351,81.4459996 126.839515,79.9577516 125.895827,78.9718308 C124.95214,77.9859102 123.48897,77.4929576 121.506273,77.4929576 C119.885801,77.4929576 118.332076,77.7276968 116.845054,78.197183 C115.358032,78.6666692 113.928224,79.2206542 112.555588,79.8591552 L110.382258,75.1267608 C112.098053,74.2441266 113.975867,73.572772 116.015757,73.1126758 C118.055647,72.6525798 119.981121,72.4225354 121.792238,72.4225354 C125.814824,72.4225354 128.850782,73.2863762 130.900204,75.0140844 C132.949626,76.7417926 133.974321,79.455381 133.974321,83.1549296 L133.974321,104.140845 L129.17012,104.140845 Z M119.161366,99.6338032 C121.601607,99.6338032 123.560444,98.9624486 125.037934,97.6197182 C126.515424,96.2769888 127.254158,94.3943786 127.254158,91.9718312 L127.254158,89.2676058 L123.193463,89.4366196 C120.028775,89.5492962 117.726785,90.070418 116.287424,91.0000004 C114.848062,91.9295828 114.128392,93.3521034 114.128392,95.2676056 C114.128392,96.6572842 114.547802,97.7323908 115.386635,98.4929584 C116.225469,99.253525 117.483699,99.6338032 119.161366,99.6338032 Z M138.549752,72.9859152 L145.870441,72.9859152 L152.30464,90.6478876 C153.276924,93.1643316 153.925102,95.5305052 154.249197,97.7464788 L154.477969,97.7464788 C154.649549,96.7136098 154.964106,95.4601012 155.421651,93.9859162 C155.879197,92.5117302 158.300338,85.5117998 162.685147,72.9859152 L169.948643,72.9859152 L156.422527,108.281691 C153.963221,114.760597 149.864438,118 144.126058,118 C142.639036,118 141.190163,117.840378 139.779399,117.521128 L139.779399,112.281691 C140.789811,112.507044 141.94319,112.619718 143.239569,112.619718 C146.480515,112.619718 148.758675,110.769971 150.074118,107.070423 L151.246571,104.140845 L138.549752,72.9859152 Z M196,95.2676056 C196,98.309875 194.875218,100.643184 192.62562,102.267606 C190.376022,103.892027 187.154188,104.704226 182.960023,104.704226 C178.746793,104.704226 175.362915,104.075124 172.808287,102.816902 L172.808287,97.0985916 C176.525843,98.7887416 179.985977,99.6338032 183.188795,99.6338032 C187.325767,99.6338032 189.394222,98.4037686 189.394222,95.9436618 C189.394222,95.154926 189.165453,94.4976556 188.707908,93.971831 C188.250362,93.4460066 187.497331,92.9014116 186.448789,92.338028 C185.400248,91.7746454 183.941844,91.136154 182.073534,90.4225356 C178.432235,89.032857 175.968201,87.6431996 174.681354,86.253521 C173.394508,84.8638432 172.751094,83.0610436 172.751094,80.8450702 C172.751094,78.1783904 173.842514,76.1079884 176.025387,74.6338024 C178.208259,73.1596174 181.177493,72.4225354 184.933177,72.4225354 C188.650733,72.4225354 192.168061,73.1643114 195.485264,74.6478874 L193.311935,79.6338032 C189.899409,78.2441246 187.030262,77.5492958 184.704406,77.5492958 C181.15843,77.5492958 179.385469,78.5445912 179.385469,80.5352116 C179.385469,81.5117422 179.847773,82.3380246 180.772396,83.0140848 C181.697018,83.690144 183.713047,84.619712 186.820543,85.8028166 C189.432364,86.7981274 191.329243,87.7089162 192.511234,88.5352112 C193.693227,89.361507 194.570175,90.3145492 195.142107,91.3943664 C195.714038,92.4741844 196,93.7652514 196,95.2676056 Z" id="fwdays"></path>
                        <path d="M0,36.6052456 C0,34.8728898 0.520861368,33.5359832 1.56259957,32.594485 C2.60433786,31.6529876 4.11913636,31.1822462 6.10704048,31.1822462 C7.99937232,31.1822462 9.45204978,31.6529876 10.4651163,32.594485 C11.4781829,33.5359832 11.9847086,34.8728898 11.9847086,36.6052456 C11.9847086,38.299941 11.4638473,39.6227258 10.422109,40.5736384 C9.3803708,41.524551 7.94202898,42 6.10704048,42 C4.21470864,42 2.72380284,41.5292586 1.63427846,40.5877604 C0.54475407,39.646263 0,38.3187706 0,36.6052456 Z M57.9700542,41.2938802 L43.1181906,41.2938802 L27.8075822,12.2017485 L27.5495382,12.2017485 C27.912713,16.7774266 28.0942976,20.2703308 28.0942976,22.6805644 L28.0942976,41.2938802 L18.0592546,41.2938802 L18.0592546,0 L32.8537752,0 L48.1070404,28.6967048 L48.2790698,28.6967048 C48.0114674,24.535285 47.877668,21.1930188 47.877668,18.6698047 L47.877668,0 L57.9700542,0 L57.9700542,41.2938802 Z M90.9385154,41.2938802 L66.051609,41.2938802 L66.051609,0 L90.9385154,0 L90.9385154,8.95359752 L77.3768714,8.95359752 L77.3768714,15.4498986 L89.9350116,15.4498986 L89.9350116,24.403497 L77.3768714,24.403497 L77.3768714,32.1990582 L90.9385154,32.1990582 L90.9385154,41.2938802 Z M115.792928,41.2938802 L104.467665,41.2938802 L104.467665,9.123066 L94.2319214,9.123066 L94.2319214,0 L126,0 L126,9.123066 L115.792928,9.123066 L115.792928,41.2938802 Z" id=".NET"></path>
                    </g>
                    <g id="Page-1">
                        <g id="Group-3" transform="translate(235.902440, 54.106034)">
                            <g id="Fill-1-Clipped">
                                <mask id="mask-2" fill="white">
                                    <use xlink:href="#path-1"></use>
                                </mask>
                                <g id="path-1"></g>
                                <path d="M12.0795587,6.01191448 C12.0795587,9.2416532 9.43422532,11.8602755 6.17162834,11.8602755 C2.90730314,11.8602755 0.259953542,9.2416532 0.259953542,6.01191448 C0.259953542,2.78103562 2.90730314,0.162983373 6.17162834,0.162983373 C9.43422532,0.162983373 12.0795587,2.78103562 12.0795587,6.01191448" id="Fill-1" fill="#FEFEFE" fill-rule="nonzero" mask="url(#mask-2)"></path>
                            </g>
                        </g>
                        <g id="Group-6" transform="translate(54.439024, 0.234300)">
                            <g id="Fill-4-Clipped">
                                <mask id="mask-4" fill="white">
                                    <use xlink:href="#path-3"></use>
                                </mask>
                                <g id="path-3"></g>
                                <path d="M12.0667698,5.89932542 C12.0667698,9.1287791 9.4208604,11.7471164 6.15682322,11.7471164 C2.89365018,11.7471164 0.246876656,9.1287791 0.246876656,5.89932542 C0.246876656,2.67101188 2.89365018,0.050679335 6.15682322,0.050679335 C9.4208604,0.050679335 12.0667698,2.67101188 12.0667698,5.89932542" id="Fill-4" fill="#FEFEFE" fill-rule="nonzero" mask="url(#mask-4)"></path>
                            </g>
                        </g>
                        <path d="M11.819922,60.1179478 C11.819922,63.3476864 9.17401254,65.9663088 5.90911126,65.9663088 C2.64536214,65.9663088 2.88037166e-05,63.3476864 2.88037166e-05,60.1179478 C2.88037166e-05,56.8870688 2.64536214,54.2690166 5.90911126,54.2690166 C9.17401254,54.2690166 11.819922,56.8870688 11.819922,60.1179478" id="Fill-7" fill="#FEFEFE" fill-rule="nonzero"></path>
                        <path d="M66.5057942,60.1179478 C66.5057942,63.3476864 63.8598848,65.9663088 60.5958476,65.9663088 C57.3326746,65.9663088 54.685901,63.3476864 54.685901,60.1179478 C54.685901,56.8870688 57.3326746,54.2690166 60.5958476,54.2690166 C63.8598848,54.2690166 66.5057942,56.8870688 66.5057942,60.1179478" id="Fill-9" fill="#FEFEFE" fill-rule="nonzero"></path>
                        <path d="M11.819922,114.100618 C11.819922,117.329501 9.17401254,119.949264 5.90911126,119.949264 C2.64536214,119.949264 2.88037166e-05,117.329501 2.88037166e-05,114.100618 C2.88037166e-05,110.871734 2.64536214,108.254252 5.90911126,108.254252 C9.17401254,108.254252 11.819922,110.871734 11.819922,114.100618" id="Fill-11" fill="#FEFEFE" fill-rule="nonzero"></path>
                        <path d="M120.923849,114.100618 C120.923849,117.329501 118.279092,119.949264 115.013903,119.949264 C111.74929,119.949264 109.103956,117.329501 109.103956,114.100618 C109.103956,110.871734 111.74929,108.254252 115.013903,108.254252 C118.279092,108.254252 120.923849,110.871734 120.923849,114.100618" id="Fill-13" fill="#FEFEFE" fill-rule="nonzero"></path>
                        <path d="M157.29122,78.1119334 C157.29122,81.3425274 154.645599,83.9605796 151.380986,83.9605796 C148.116949,83.9605796 145.473344,81.3425274 145.473344,78.1119334 C145.473344,74.8816248 148.116949,72.2635724 151.380986,72.2635724 C154.645599,72.2635724 157.29122,74.8816248 157.29122,78.1119334" id="Fill-15" fill="#FEFEFE" fill-rule="nonzero"></path>
                        <path d="M193.658015,114.100618 C193.658015,117.329501 191.011242,119.949264 187.750661,119.949264 C184.486048,119.949264 181.838698,117.329501 181.838698,114.100618 C181.838698,110.871734 184.486048,108.254252 187.750661,108.254252 C191.011242,108.254252 193.658015,110.871734 193.658015,114.100618" id="Fill-17" fill="#FEFEFE" fill-rule="nonzero"></path>
                        <path d="M66.3714824,114.100618 C66.3714824,117.329501 63.725861,119.949264 60.4615358,119.949264 C57.198939,119.949264 54.5515894,117.329501 54.5515894,114.100618 C54.5515894,110.870309 57.198939,108.254252 60.4615358,108.254252 C63.725861,108.254252 66.3714824,110.870309 66.3714824,114.100618" id="Fill-19" fill="#FEFEFE" fill-rule="nonzero"></path>
                        <polygon id="Fill-21" fill="#FEFEFE" fill-rule="nonzero" points="29.457705 78.2857768 11.0411847 60.0608836 62.9719814 8.6743753 57.8348386 3.5887696 0.766610918 60.0608836 24.319122 83.3693872"></polygon>
                        <polygon id="Fill-23" fill="#FEFEFE" fill-rule="nonzero" points="36.7653808 95.6851782 57.8329952 116.535819 62.9730184 111.451069 41.9022356 90.6024228"></polygon>
                        <polygon id="Fill-25" fill="#FEFEFE" fill-rule="nonzero" points="187.565367 119.078993 151.233799 83.1237434 114.902807 119.078993 60.4030068 65.1476864 8.47278606 116.535905 3.33535516 111.450869 60.4030068 54.9776152 114.902807 108.908637 151.233799 72.9545274 187.565367 108.908637 239.49818 57.520133 244.634746 62.6034584"></polygon>
                    </g>
                </g>
            </g>
        </g>
    </g>
</svg>