<?xml version="1.0" encoding="UTF-8"?>
<svg width="92px" height="92px" viewBox="0 0 92 92" version="1.1" xmlns="http://www.w3.org/2000/svg" xmlns:xlink="http://www.w3.org/1999/xlink">
    <!-- Generator: Sketch 46.2 (44496) - http://www.bohemiancoding.com/sketch -->
    <title>JS_small</title>
    <desc>Created with Sketch.</desc>
    <defs>
        <linearGradient x1="50%" y1="15.1785714%" x2="50%" y2="100%" id="linearGradient-1">
            <stop stop-color="#75CFF5" offset="0%"></stop>
            <stop stop-color="#684C9E" offset="100%"></stop>
        </linearGradient>
    </defs>
    <g id="Large" stroke="none" stroke-width="1" fill="none" fill-rule="evenodd">
        <g id="small" transform="translate(-450.000000, -56.000000)">
            <g id="Group-2" transform="translate(450.000000, 56.000000)">
                <rect id="Rectangle" x="0" y="0" width="92" height="92"></rect>
                <g id="net_small" transform="translate(16.000000, 11.000000)" fill-rule="nonzero">
                    <path d="M10.0359622,57.4155102 L8.23423641,57.4155102 L8.23423641,63.3052027 L6.65939461,63.3052027 L6.65939461,57.4155102 L5.44489796,57.4155102 L5.44489796,56.7173786 L6.65939461,56.2604197 L6.65939461,55.8034608 C6.65939461,54.9741609 6.86403302,54.3595996 7.27331599,53.9597587 C7.68259897,53.5599175 8.30763583,53.36 9.14844541,53.36 C9.70008769,53.36 10.2428243,53.4467366 10.7766717,53.6202128 L10.3629421,54.7499165 C9.97590275,54.6314453 9.60666385,54.5722104 9.25521434,54.5722104 C8.89931611,54.5722104 8.64018162,54.6769292 8.47780304,54.8863696 C8.31542447,55.0958102 8.23423641,55.4099663 8.23423641,55.8288473 L8.23423641,56.2858062 L10.0359622,56.2858062 L10.0359622,57.4155102 Z M17.3429612,63.3052027 L16.3887139,60.0303305 C16.273047,59.6833786 16.0639598,58.8773619 15.7614464,57.6122564 L15.7013889,57.6122564 C15.4433627,58.7546594 15.2387242,59.5649072 15.0874675,60.0430239 L14.1065278,63.3052027 L12.3715327,63.3052027 L10.3028845,56.2858062 L11.9044186,56.2858062 L12.8453198,59.7447312 C13.0588588,60.5994178 13.2101133,61.3313912 13.2990878,61.9406727 L13.3391262,61.9406727 C13.3836134,61.6318007 13.4514555,61.2774496 13.5426544,60.8776085 C13.6338534,60.4777675 13.7128171,60.1784202 13.779548,59.9795575 L14.9006219,56.2858062 L16.622271,56.2858062 L17.7099795,59.9795575 C17.7767104,60.1868824 17.8601228,60.5042118 17.9602192,60.9315551 C18.0603155,61.3588985 18.1192603,61.6910366 18.1370552,61.9279794 L18.1904397,61.9279794 C18.2571706,61.4075512 18.4128737,60.6798093 18.6575538,59.7447312 L19.6118011,56.2858062 L21.1866429,56.2858062 L19.1046487,63.3052027 L17.3429612,63.3052027 Z M24.9435748,63.4321358 C24.0226881,63.4321358 23.3042294,63.1148063 22.788177,62.480138 C22.2721245,61.8454697 22.0141022,60.9548318 22.0141022,59.8081978 C22.0141022,58.6573325 22.2754611,57.7614058 22.7981865,57.1203908 C23.320912,56.4793759 24.0449317,56.1588733 24.9702671,56.1588733 C25.9400899,56.1588733 26.6785676,56.4994735 27.1857224,57.1806842 L27.2657993,57.1806842 C27.1901708,56.6771805 27.1523572,56.2794611 27.1523572,55.9875136 L27.1523572,53.4298131 L28.7271991,53.4298131 L28.7271991,63.3052027 L27.4993561,63.3052027 L27.225761,62.3849382 L27.1523572,62.3849382 C26.649651,63.0830733 25.9133975,63.4321358 24.9435748,63.4321358 Z M25.3639774,62.2262719 C26.0090431,62.2262719 26.4783767,62.0538564 26.7719929,61.7090199 C27.0656089,61.3641834 27.2168635,60.8046259 27.225761,60.0303305 L27.225761,59.8208912 C27.225761,58.9365866 27.0745064,58.3082743 26.7719929,57.9359357 C26.4694792,57.5635968 25.9956969,57.3774304 25.3506314,57.3774304 C24.7989892,57.3774304 24.374142,57.5900409 24.0760773,58.0152688 C23.7780124,58.4404965 23.6289824,59.0465958 23.6289824,59.8335843 C23.6289824,60.6121108 23.7735638,61.2055169 24.0627312,61.6138202 C24.3518983,62.0221234 24.7856428,62.2262719 25.3639774,62.2262719 Z M35.5871031,63.3052027 L35.2734694,62.3278184 L35.2200849,62.3278184 C34.8641867,62.7551616 34.5060694,63.0460469 34.1457225,63.2004831 C33.7853756,63.354919 33.3227147,63.4321358 32.7577263,63.4321358 C32.0325836,63.4321358 31.4664916,63.2459692 31.0594329,62.8736303 C30.6523743,62.5012917 30.4488481,61.974525 30.4488481,61.2933143 C30.4488481,60.5697923 30.7313381,60.0239858 31.2963264,59.6558782 C31.861315,59.2877707 32.722131,59.0867954 33.8788001,59.0529464 L35.1533543,59.0148663 L35.1533543,58.640414 C35.1533543,58.1919149 35.04325,57.8566036 34.823038,57.6344697 C34.6028258,57.4123357 34.2613912,57.3012704 33.7987233,57.3012704 C33.4205816,57.3012704 33.0580157,57.3541586 32.711015,57.4599367 C32.3640142,57.5657149 32.0303646,57.6905311 31.7100562,57.8343892 L31.2029037,56.7681519 C31.6032891,56.569289 32.0414822,56.4180286 32.5174961,56.3143661 C32.9935102,56.2107037 33.4428248,56.1588733 33.865454,56.1588733 C34.8041357,56.1588733 35.5125849,56.3535019 35.9908232,56.7427651 C36.4690614,57.1320283 36.708177,57.7434164 36.708177,58.5769474 L36.708177,63.3052027 L35.5871031,63.3052027 Z M33.2515327,62.2897385 C33.8209697,62.2897385 34.2780697,62.1384781 34.6228463,61.8359529 C34.9676226,61.5334277 35.1400081,61.1092642 35.1400081,60.5634493 L35.1400081,59.9541708 L34.1924338,59.9922506 C33.453945,60.0176374 32.9167693,60.1350493 32.5808903,60.3444899 C32.2450113,60.5539305 32.0770744,60.8744331 32.0770744,61.3060075 C32.0770744,61.6191106 32.174945,61.8613387 32.3706889,62.0326992 C32.566433,62.2040595 32.8600446,62.2897385 33.2515327,62.2897385 Z M37.7758662,56.2858062 L39.4841692,56.2858062 L40.9856075,60.2651568 C41.2124927,60.832127 41.3637469,61.3652403 41.4393753,61.8645128 L41.4927597,61.8645128 C41.5327986,61.6318011 41.6062014,61.3493779 41.7129708,61.017235 C41.8197403,60.6850919 42.3847204,59.1079647 43.4079276,56.2858062 L45.1028846,56.2858062 L41.9465278,64.2381606 C41.3726419,65.6978977 40.4161797,66.4277551 39.0771128,66.4277551 C38.7301121,66.4277551 38.3920136,66.3917913 38.0628079,66.3198623 L38.0628079,65.139385 C38.2985904,65.1901584 38.5677344,65.2155447 38.8702481,65.2155447 C39.6265317,65.2155447 40.1581468,64.7987854 40.465109,63.9652545 L40.7387042,63.3052027 L37.7758662,56.2858062 Z M51.1820408,61.3060075 C51.1820408,61.9914494 50.9195698,62.5171583 50.3946199,62.8831505 C49.8696701,63.2491424 49.1178461,63.4321358 48.1391262,63.4321358 C47.1559573,63.4321358 46.36632,63.2903952 45.7701903,63.0069101 L45.7701903,61.7185398 C46.6376923,62.099341 47.4451241,62.2897385 48.1925107,62.2897385 C49.1578844,62.2897385 49.6405643,62.0126042 49.6405643,61.4583271 C49.6405643,61.2806201 49.5871803,61.132533 49.4804109,61.0140615 C49.3736413,60.89559 49.1979193,60.7728895 48.9532394,60.6459557 C48.7085594,60.5190222 48.3682367,60.3751661 47.9322614,60.2143835 C47.0825542,59.9012804 46.5075649,59.5881821 46.2072758,59.2750789 C45.9069866,58.9619761 45.7568441,58.5557943 45.7568441,58.0565219 C45.7568441,57.4557027 46.01153,56.9892285 46.5209096,56.6570853 C47.0302888,56.3249424 47.7231679,56.1588733 48.5995671,56.1588733 C49.467069,56.1588733 50.2878471,56.3259999 51.0619257,56.6602587 L50.5547733,57.7836161 C49.7584509,57.470513 49.0889275,57.3139638 48.5461826,57.3139638 C47.7187194,57.3139638 47.3049939,57.53821 47.3049939,57.9867089 C47.3049939,58.2067272 47.4128739,58.3928937 47.6286371,58.5452142 C47.8444004,58.6975345 48.3148463,58.9069718 49.039989,59.1735326 C49.6494648,59.3977821 50.0921066,59.6029885 50.3679276,59.7891578 C50.6437488,59.9753273 50.8483872,60.1900535 50.9818491,60.4333429 C51.1153109,60.6766326 51.1820408,60.9675179 51.1820408,61.3060075 Z" id="fwdays" fill="#181916"></path>
                    <path d="M5.44489796,47.7452008 C5.44489796,47.3409507 5.5664424,47.0289799 5.80953489,46.8092787 C6.05262741,46.5895777 6.40610984,46.4797288 6.86999277,46.4797288 C7.31157364,46.4797288 7.65055996,46.5895777 7.88696183,46.8092787 C8.12336374,47.0289799 8.24156289,47.3409507 8.24156289,47.7452008 C8.24156289,48.1406626 8.12001848,48.4493381 7.87692596,48.6712362 C7.63383347,48.8931343 7.29819242,49.0040816 6.86999277,49.0040816 C6.42841189,49.0040816 6.0805049,48.8942328 5.82626137,48.6745316 C5.57201784,48.4548306 5.44489796,48.1450565 5.44489796,47.7452008 Z M18.9723707,48.8393066 L15.5066472,48.8393066 L11.9338743,42.0505771 L11.873659,42.0505771 C11.9584068,43.1183242 12.0007801,43.9334031 12.0007801,44.4958378 L12.0007801,48.8393066 L9.65907503,48.8393066 L9.65907503,39.2032653 L13.1114174,39.2032653 L16.6708091,45.8997209 L16.7109527,45.8997209 C16.6485069,44.928642 16.6172844,44.148715 16.6172844,43.5599159 L16.6172844,39.2032653 L18.9723707,39.2032653 L18.9723707,48.8393066 Z M26.6656524,48.8393066 L20.8582238,48.8393066 L20.8582238,39.2032653 L26.6656524,39.2032653 L26.6656524,41.292612 L23.5010051,41.292612 L23.5010051,42.808542 L26.431482,42.808542 L26.431482,44.8978889 L23.5010051,44.8978889 L23.5010051,46.7170047 L26.6656524,46.7170047 L26.6656524,48.8393066 Z M32.4654984,48.8393066 L29.8227169,48.8393066 L29.8227169,41.332158 L27.4341778,41.332158 L27.4341778,39.2032653 L34.8473469,39.2032653 L34.8473469,41.332158 L32.4654984,41.332158 L32.4654984,48.8393066 Z" id=".NET" fill="#181916"></path>
                    <g id="Group">
                        <polyline id="Fill-1" fill="url(#linearGradient-1)" points="55.8333014 13.4939319 43.7374373 25.50241 35.2740829 17.1008897 26.810953 25.50241 14.1161458 12.9000179 7.76896685 19.201214 2.61810186 14.088069 14.7144151 2.07981383 13.5178765 0.891762816 0.224575558 14.088069 6.5722037 20.3890421 0.82306942 26.096324 2.01983256 27.2843751 7.76896685 21.5773161 13.5178765 27.2843751 14.7144151 26.096324 8.96573 20.3890421 14.1161458 15.2763429 26.810953 27.878735 35.2740829 19.4774376 43.7374373 27.878735 57.0302892 14.681983 55.8333014 13.4939319"></polyline>
                        <path d="M15.4764,1.43618402 C15.4764,2.19016948 14.8608384,2.80147289 14.1010993,2.80147289 C13.3415848,2.80147289 12.7257985,2.19016948 12.7257985,1.43618402 C12.7257985,0.682644435 13.3415848,0.0708951438 14.1010993,0.0708951438 C14.8608384,0.0708951438 15.4764,0.682644435 15.4764,1.43618402" id="Fill-3" fill="#3598BE"></path>
                        <path d="M2.75060143,14.0385762 C2.75060143,14.7925616 2.13481525,15.404088 1.37507614,15.404088 C0.615786179,15.404088 0,14.7925616 0,14.0385762 C0,13.2843677 0.615786179,12.6732873 1.37507614,12.6732873 C2.13481525,12.6732873 2.75060143,13.2843677 2.75060143,14.0385762" id="Fill-5" fill="#4278B0"></path>
                        <path d="M15.5514083,14.072909 C15.5514083,14.8268945 14.935622,15.4384208 14.1761075,15.4384208 C13.4165929,15.4384208 12.8008068,14.8268945 12.8008068,14.072909 C12.8008068,13.3187005 13.4165929,12.7076201 14.1761075,12.7076201 C14.935622,12.7076201 15.5514083,13.3187005 15.5514083,14.072909" id="Fill-7" fill="#4278B0"></path>
                        <path d="M57.7078337,14.0385762 C57.7078337,14.7925616 57.0920475,15.404088 56.3327575,15.404088 C55.5730184,15.404088 54.9572322,14.7925616 54.9572322,14.0385762 C54.9572322,13.2843677 55.5730184,12.6732873 56.3327575,12.6732873 C57.0920475,12.6732873 57.7078337,13.2843677 57.7078337,14.0385762" id="Fill-8" fill="#4278B0"></path>
                        <path d="M2.75060143,26.6407453 C2.75060143,27.3949537 2.13481525,28.0062571 1.37507614,28.0062571 C0.615786179,28.0062571 0,27.3949537 0,26.6407453 C0,25.8869827 0.615786179,25.2759023 1.37507614,25.2759023 C2.13481525,25.2759023 2.75060143,25.8869827 2.75060143,26.6407453" id="Fill-10" fill="#523A82"></path>
                        <path d="M28.1276395,26.7800832 C28.1276395,27.5342916 27.5118533,28.145595 26.7521142,28.145595 C25.9925996,28.145595 25.377038,27.5342916 25.377038,26.7800832 C25.377038,26.0263207 25.9925996,25.4152403 26.7521142,25.4152403 C27.5118533,25.4152403 28.1276395,26.0263207 28.1276395,26.7800832" id="Fill-12" fill="#523A82"></path>
                        <path d="M36.6610615,18.3087824 C36.6610615,19.0625448 36.0457244,19.6740712 35.2859854,19.6740712 C34.5262463,19.6740712 33.9109092,19.0625448 33.9109092,18.3087824 C33.9109092,17.5545739 34.5262463,16.9434935 35.2859854,16.9434935 C36.0457244,16.9434935 36.6610615,17.5545739 36.6610615,18.3087824" id="Fill-13" fill="#3E65A1"></path>
                        <path d="M44.9708064,26.7800832 C44.9708064,27.5342916 44.354571,28.145595 43.5957302,28.145595 C42.835991,28.145595 42.2202049,27.5342916 42.2202049,26.7800832 C42.2202049,26.0263207 42.835991,25.4152403 43.5957302,25.4152403 C44.354571,25.4152403 44.9708064,26.0263207 44.9708064,26.7800832" id="Fill-14" fill="#523A82"></path>
                        <path d="M15.3270572,26.7800832 C15.3270572,27.5342916 14.7114956,28.145595 13.9517565,28.145595 C13.1924666,28.145595 12.5762312,27.5342916 12.5762312,26.7800832 C12.5762312,26.0258748 13.1924666,25.4152403 13.9517565,25.4152403 C14.7114956,25.4152403 15.3270572,26.0258748 15.3270572,26.7800832" id="Fill-15" fill="#523A82"></path>
                    </g>
                </g>
            </g>
        </g>
    </g>
</svg>