<?xml version="1.0" encoding="UTF-8"?>
<svg width="580px" height="580px" viewBox="0 0 580 580" version="1.1" xmlns="http://www.w3.org/2000/svg" xmlns:xlink="http://www.w3.org/1999/xlink">
    <!-- Generator: Sketch 46.2 (44496) - http://www.bohemiancoding.com/sketch -->
    <title>phalcon_big</title>
    <desc>Created with Sketch.</desc>
    <defs></defs>
    <g id="Large" stroke="none" stroke-width="1" fill="none" fill-rule="evenodd">
        <g id="big-copy" transform="translate(-2465.000000, -1468.000000)">
            <g id="Group-Copy-15" transform="translate(2465.000000, 1468.000000)">
                <rect id="Rectangle-11" x="0" y="0" width="580" height="580"></rect>
                <g id="phalcon-small" transform="translate(97.000000, 86.000000)">
                    <rect id="Rectangle" x="0" y="0" width="392" height="392"></rect>
                    <g id="phalcon" transform="translate(33.000000, 11.000000)" fill-rule="nonzero">
                        <polygon id="Shape" fill="#73B08F" points="253.700782 174.862024 231.58138 130.15878 238.633817 160.068469"></polygon>
                        <polygon id="Shape" fill="#C5E4D3" points="227.74298 114.492515 244.816382 186.853656 189.911063 128.643417 109.896628 53.7079074 89.4745955 0"></polygon>
                        <polygon id="Shape" fill="#76C39B" points="194.309022 130.436347 122.408814 95.8530358 83.157437 53.547869 78.0229538 25.6786713"></polygon>
                        <polygon id="Shape" fill="#000000" points="249.309054 190.026919 181.436674 172.666496 50.9061547 97.3358926 0 27.2440475 195.793286 131.399079 249.310301 190.025668"></polygon>
                        <polygon id="Shape" fill="#73B08F" points="178.323582 170.667266 178.323582 172.678999 169.557574 189.105447 123.775932 174.019322 38.7042805 109.990184 5.58561951 62.3862431 43.5745618 85.1829717 49.4193979 94.2338969 178.324828 170.667266"></polygon>
                        <polygon id="Shape" stroke="#000000" stroke-width="1.122" fill="#000000" points="54.9850777 122.54195 48.6529642 121.803022 26.4874514 113.681071 71.8727904 155.398597 83.8353882 164.628315 131.331847 180.50338 54.9838314 122.5407"></polygon>
                        <polygon id="Shape" fill="#76C39B" points="241.062726 186.916171 240.100634 223.887556 236.573792 217.844854 216.058293 216.422012 168.615421 189.049184 179.514982 169.85207"></polygon>
                        <polygon id="Shape" fill="#C5E4D3" points="47.9775055 146.190134 107.032782 191.467265 168.37116 211.950937 215.680684 216.261974 168.697673 188.95291"></polygon>
                        <polygon id="Shape" fill="#76C39B" points="76.6147101 182.258802 117.644463 205.09304 165.408862 209.916699 107.708241 191.907371 98.4113377 186.118479 76.6134636 182.258802"></polygon>
                        <polygon id="Shape" fill="#73B08F" points="167.7954 208.990226 100.655805 203.113814 135.242529 216.432014 157.961369 219.565268 167.794154 208.990226"></polygon>
                        <path d="M152.58761,219.373972 L146.817548,220.227927 L119.890176,224.067599 L133.032957,215.106696 L152.586363,219.373972 L152.58761,219.373972 Z M195.591396,225.210374 L194.27662,227.548436 L96.0061064,284.675915 L76.6147101,310.400848 L83.5163523,282.671684 L104.87929,253.273369 L166.012039,211.847162 L195.591396,225.210374 L195.591396,225.210374 Z" id="Shape" fill="#76C39B"></path>
                        <polygon id="Shape" fill="#000000" points="88.1548344 253.334633 70.8446477 276.168871 70.8446477 266.198975 88.1548344 253.333383"></polygon>
                        <polygon id="Shape" fill="#C5E4D3" points="230.804976 229.213836 165.08858 273.91583 159.6388 264.588588 136.878834 312.830182 142.007085 319.906882 145.854209 364.608876 118.286273 313.474086 140.725957 258.157042 195.541547 224.066349 230.80373 229.212586"></polygon>
                        <polygon id="Shape" fill="#000000" points="140.727204 257.19306 96.8099273 280.99253 95.5263067 313.796664 108.990616 357.857253 108.990616 335.343092 140.727204 257.19181"></polygon>
                        <path d="M86.2306493,320.228209 L86.8724598,322.480001 L92.6425217,346.922124 L84.9482747,342.098465 L86.2318958,320.228209 L86.2306493,320.228209 Z M166.227637,270.777575 L160.336691,263.484573 L135.733545,310.233307 L174.890208,361.623158 L165.188278,338.74641 L166.227637,270.778825 L166.227637,270.777575 Z" id="Shape" fill="#73B08F"></path>
                        <polygon id="Shape" fill="#76C39B" points="170.858642 267.986904 165.73039 270.685053 165.410109 326.682261 175.027294 346.922124 192.978045 340.175503 192.33748 326.682261 172.782827 307.453889 170.859888 267.986904"></polygon>
                        <polygon id="Shape" fill="#000000" points="259.378623 228.527421 229.564973 236.889431 197.187822 264.547328 179.557353 263.904674 230.527066 229.492653 259.377377 228.527421"></polygon>
                        <path d="M247.124407,232.222059 L237.781393,214.976665 L153.69925,208.372577 L191.402805,224.148869 L247.124407,232.220809 L247.124407,232.222059 Z M198.107542,263.475821 L202.274948,273.33694 L211.250323,279.797243 L212.852979,279.797243 L212.212415,290.337276 L184.643233,301.897554 L175.34633,280.477406 L172.782827,267.896883 L181.117638,261.096498 L198.107542,263.477071 L198.107542,263.475821 Z" id="Shape" fill="#73B08F"></path>
                        <path d="M212.852979,318.94165 L196.183357,311.544873 L189.772731,324.731792 L192.015952,327.947565 L191.69567,342.098465 L203.877604,355.926789 L201.95342,329.876778 L204.838451,328.590219 L214.455636,337.91746 L209.967948,327.30366 L199.710199,321.837346 L201.95342,317.977669 L212.852979,322.801328 L212.852979,318.94165 L212.852979,318.94165 Z M217.019139,263.947184 L210.608512,279.384644 L211.892134,292.570312 L225.034914,308.973004 L223.431011,282.600417 L225.355196,281.313857 L235.6117,290.319772 L231.44554,280.349876 L219.905416,274.238407 L221.828354,271.022634 L233.690007,276.168871 L233.368479,271.666539 L217.020385,263.947184 L217.019139,263.947184 Z" id="Shape" fill="#000000"></path>
                        <polygon id="Shape" fill="#C5E4D3" points="276.323662 195.767048 240.742444 187.405038 240.742444 220.851826 244.908603 228.248604 276.323662 228.569932 306.136066 238.862405 305.175219 234.6814 286.902941 224.067599 250.358383 209.595371 271.195411 209.274044 251.000193 199.946802"></polygon>
                        <polygon id="Shape" fill="#73B08F" points="317.826984 226.341896 304.363921 204.47164 273.589426 195.144399 249.226803 199.647981 268.461174 209.295299 250.509178 209.939204 284.168704 224.411432 303.401828 233.738674 317.826984 226.340646"></polygon>
                        <polygon id="Shape" fill="#000000" points="300.282506 252.369401 305.412004 244.651296 301.56488 234.6814 317.592692 225.675486 317.912974 244.007392 308.297035 252.690728 300.282505 252.369401"></polygon>
                        <polyline id="Shape" stroke="#000000" stroke-width="0.3" fill="#000000" points="313.134914 223.598737 302.133163 218.447499 296.264648 223.598737"></polyline>
                    </g>
                </g>
            </g>
        </g>
    </g>
</svg>