<?xml version="1.0" encoding="UTF-8"?>
<svg width="92px" height="92px" viewBox="0 0 92 92" version="1.1" xmlns="http://www.w3.org/2000/svg" xmlns:xlink="http://www.w3.org/1999/xlink">
    <!-- Generator: Sketch 46.2 (44496) - http://www.bohemiancoding.com/sketch -->
    <title>zend-small</title>
    <desc>Created with Sketch.</desc>
    <defs></defs>
    <g id="Large" stroke="none" stroke-width="1" fill="none" fill-rule="evenodd">
        <g id="small" transform="translate(-1491.000000, -177.000000)">
            <g id="Group-Copy" transform="translate(1491.000000, 177.000000)">
                <rect id="Rectangle" x="0" y="0" width="92" height="92"></rect>
                <g id="phalcon-small" transform="translate(10.000000, 10.000000)">
                    <rect id="Rectangle" x="0" y="0" width="70" height="70"></rect>
                    <g id="phalcon" transform="translate(6.000000, 2.000000)" fill-rule="nonzero">
                        <polygon id="Shape" fill="#73B08F" points="45.3270234 31.1398125 41.3750977 23.1789609 42.6351094 28.5053438"></polygon>
                        <polygon id="Shape" fill="#C5E4D3" points="40.6893164 20.3890781 43.739707 33.2753086 33.9301406 22.9091016 19.6344961 9.56442187 15.9858281 0"></polygon>
                        <polygon id="Shape" fill="#76C39B" points="34.7158945 23.2283906 21.8699648 17.0697187 14.8571836 9.53592187 13.9398398 4.57291406"></polygon>
                        <polygon id="Shape" fill="#000000" points="44.5423828 33.8404102 32.4160781 30.7488281 9.0950625 17.3337891 0 4.85167969 34.9810781 23.3998359 44.5426055 33.8401875"></polygon>
                        <polygon id="Shape" fill="#73B08F" points="31.8598828 30.3928008 31.8598828 30.7510547 30.2937187 33.6763125 22.1142187 30.9897422 6.91503516 19.587293 0.997945313 11.1098789 7.78517578 15.1695703 8.82943359 16.7813789 31.8601055 30.3928008"></polygon>
                        <polygon id="Shape" stroke="#000000" stroke-width="1.122" fill="#000000" points="9.82381641 21.8225391 8.6925 21.6909492 4.73233594 20.2445742 12.8410312 27.6737227 14.9783086 29.3173711 23.4641836 32.1444375 9.82359375 21.8223164"></polygon>
                        <polygon id="Shape" fill="#76C39B" points="43.0690664 33.2864414 42.8971758 39.8703867 42.2670586 38.7942891 38.6016914 38.5409062 30.1253906 33.666293 32.0727422 30.2476289"></polygon>
                        <polygon id="Shape" fill="#C5E4D3" points="8.57182031 26.0338594 19.122832 34.0969102 30.08175 37.7446875 38.5342266 38.5124063 30.1400859 33.6491484"></polygon>
                        <polygon id="Shape" fill="#76C39B" points="13.6882383 32.4570469 21.01875 36.523418 29.5524961 37.3824258 19.2435117 34.1752852 17.5824961 33.1443867 13.6880156 32.4570469"></polygon>
                        <polygon id="Shape" fill="#73B08F" points="29.9788828 37.2174375 17.9835 36.1709531 24.1628789 38.5426875 28.2219023 39.1006641 29.9786602 37.2174375"></polygon>
                        <path d="M27.2618086,39.0665977 L26.2309102,39.2186719 L21.4199766,39.9024492 L23.7681094,38.3066719 L27.2615859,39.0665977 L27.2618086,39.0665977 Z M34.9450078,40.105957 L34.7101055,40.5223242 L17.1527695,50.6957109 L13.6882383,55.2768633 L14.9213086,50.338793 L18.738082,45.1034766 L29.6602617,37.726207 L34.9450078,40.105957 L34.9450078,40.105957 Z" id="Shape" fill="#76C39B"></path>
                        <polygon id="Shape" fill="#000000" points="15.7500352 45.1143867 12.6573398 49.1807578 12.6573398 47.4052969 15.7500352 45.1141641"></polygon>
                        <polygon id="Shape" fill="#C5E4D3" points="41.2363828 40.8189023 29.4952734 48.7795313 28.5215977 47.1185156 24.4552266 55.7094844 25.371457 56.9697187 26.0587969 64.9303477 21.133418 55.8241523 25.1425664 45.9731719 34.9361016 39.9022266 41.2361602 40.8186797"></polygon>
                        <polygon id="Shape" fill="#000000" points="25.1427891 45.8015039 17.2963828 50.0397656 17.0670469 55.8815977 19.472625 63.7280039 19.472625 59.7186328 25.1427891 45.8012812"></polygon>
                        <path d="M15.4062539,57.0269414 L15.5209219,57.4279453 L16.5518203,61.7806523 L15.1771406,60.9216445 L15.4064766,57.0269414 L15.4062539,57.0269414 Z M29.6987812,48.2206641 L28.6462852,46.9219102 L24.2506055,55.2470273 L31.2464648,64.3986445 L29.5130859,60.3247031 L29.6987812,48.2208867 L29.6987812,48.2206641 Z" id="Shape" fill="#73B08F"></path>
                        <polygon id="Shape" fill="#76C39B" points="30.5261719 47.7236953 29.6099414 48.2041875 29.5527188 58.176293 31.270957 61.7806523 34.4780977 60.5791992 34.3636523 58.176293 30.8699531 54.7520625 30.5263945 47.7236953"></polygon>
                        <polygon id="Shape" fill="#000000" points="46.3414453 40.6966641 41.0148398 42.1857891 35.2302305 47.111168 32.0803125 46.9967227 41.1867305 40.8685547 46.3412227 40.6966641"></polygon>
                        <path d="M44.1520664,41.3546133 L42.4828125,38.2835156 L27.460418,37.1074453 L34.1966602,39.9169219 L44.1520664,41.3543906 L44.1520664,41.3546133 Z M35.3945508,46.9203516 L36.1391133,48.6764414 L37.7426836,49.8269062 L38.0290195,49.8269062 L37.9145742,51.7038984 L32.9889727,53.7625781 L31.327957,49.9480312 L30.8699531,47.7076641 L32.3590781,46.4966367 L35.3945508,46.9205742 L35.3945508,46.9203516 Z" id="Shape" fill="#73B08F"></path>
                        <path d="M38.0290195,56.7978281 L35.0507695,55.4805938 L33.9054258,57.8289492 L34.306207,58.4016211 L34.2489844,60.9216445 L36.4254492,63.3842227 L36.081668,58.7451797 L36.5971172,58.5160664 L38.3153555,60.177082 L37.5135703,58.2869531 L35.6808867,57.3135 L36.081668,56.6261602 L38.0290195,57.485168 L38.0290195,56.7978281 L38.0290195,56.7978281 Z M38.7733594,47.004293 L37.6280156,49.7534297 L37.8573516,52.1015625 L40.2054844,55.0225898 L39.9189258,50.3261016 L40.262707,50.0969883 L42.095168,51.7007813 L41.3508281,49.9253203 L39.2890312,48.8369766 L39.6325898,48.2643047 L41.751832,49.1807578 L41.6943867,48.3789727 L38.773582,47.004293 L38.7733594,47.004293 Z" id="Shape" fill="#000000"></path>
                        <polygon id="Shape" fill="#C5E4D3" points="49.3689023 34.862625 43.0118437 33.3735 43.0118437 39.3297773 43.7561836 40.6470117 49.3689023 40.7042344 54.6952852 42.5371406 54.5236172 41.7925781 51.2590313 39.9024492 44.7298594 37.3252031 48.4526719 37.2679805 44.8445273 35.6069648"></polygon>
                        <polygon id="Shape" fill="#73B08F" points="56.7840234 40.3074609 54.378668 36.4127578 48.8803945 34.7517422 44.5276875 35.55375 47.9641641 37.2717656 44.7568008 37.3864336 50.7705234 39.9636797 54.2067773 41.6246953 56.7840234 40.3072383"></polygon>
                        <polygon id="Shape" fill="#000000" points="53.6494688 44.9424961 54.5659219 43.5680391 53.878582 41.7925781 56.7421641 40.1887852 56.7993867 43.4533711 55.0813711 44.9997187 53.6494687 44.9424961"></polygon>
                        <polyline id="Shape" stroke="#000000" stroke-width="0.3" fill="#000000" points="55.9457227 39.8189531 53.9801133 38.9016094 52.931625 39.8189531"></polyline>
                    </g>
                </g>
            </g>
        </g>
    </g>
</svg>