<?xml version="1.0" encoding="UTF-8"?>
<svg width="290px" height="290px" viewBox="0 0 290 290" version="1.1" xmlns="http://www.w3.org/2000/svg" xmlns:xlink="http://www.w3.org/1999/xlink">
    <!-- Generator: Sketch 46.2 (44496) - http://www.bohemiancoding.com/sketch -->
    <title>front_big</title>
    <desc>Created with Sketch.</desc>
    <defs>
        <polygon id="path-1" points="6.03970732 0.0814916865 6.03970732 5.93013777 0.129976771 5.93013777 0.129976771 0.0814916865"></polygon>
        <polygon id="path-3" points="0.123438328 0.025368171 6.0333849 0.025368171 6.0333849 5.87355819 0.123438328 5.87355819"></polygon>
    </defs>
    <g id="Large" stroke="none" stroke-width="1" fill="none" fill-rule="evenodd">
        <g id="big" transform="translate(-1363.000000, -31.000000)">
            <g id="Group-Copy-4" transform="translate(1363.000000, 31.000000)">
                <rect id="Rectangle-11" x="0" y="0" width="290" height="290"></rect>
                <g id="PHP_big" transform="translate(78.000000, 72.000000)">
                    <path d="M21.736796,125 L17.9156697,125 L17.9156697,138.070423 L14.5757222,138.070423 L14.5757222,125 L12,125 L12,123.450704 L14.5757222,122.43662 L14.5757222,121.422535 C14.5757222,119.582151 15.0097224,118.218314 15.8777357,117.330986 C16.7457489,116.443657 18.0713363,116 19.8545375,116 C21.0244685,116 22.1755123,116.192486 23.3077036,116.577465 L22.4302597,119.084507 C21.6094211,118.821595 20.8263338,118.690141 20.0809746,118.690141 C19.3261804,118.690141 18.7766042,118.922533 18.4322294,119.387324 C18.0878545,119.852115 17.9156697,120.549291 17.9156697,121.478873 L17.9156697,122.492958 L21.736796,122.492958 L21.736796,125 Z M37.2335862,138.070423 L35.2098045,130.802817 C34.9644964,130.03286 34.5210615,128.244146 33.8794864,125.43662 L33.7521155,125.43662 C33.2048898,127.971844 32.7708896,129.769948 32.4501021,130.830986 L30.3697111,138.070423 L26.690108,138.070423 L22.3028888,122.492958 L25.6994456,122.492958 L27.6949227,130.169014 C28.1477992,132.065737 28.4685819,133.690134 28.6572804,135.042254 L28.7421944,135.042254 C28.8365436,134.356804 28.9804241,133.570427 29.1738401,132.683099 C29.3672561,131.79577 29.5347235,131.131458 29.6762474,130.690141 L32.0538372,122.492958 L35.7051357,122.492958 L38.0119638,130.690141 C38.1534877,131.150237 38.33039,131.854456 38.5426758,132.802817 C38.7549617,133.751179 38.8799726,134.488261 38.9177123,135.014085 L39.0309308,135.014085 C39.1724547,133.859149 39.5026722,132.244142 40.0215932,130.169014 L42.0453749,122.492958 L45.3853225,122.492958 L40.9697987,138.070423 L37.2335862,138.070423 Z M53.3530783,138.352113 C51.4000484,138.352113 49.8763307,137.647894 48.7818793,136.239437 C47.6874276,134.830979 47.1402101,132.854473 47.1402101,130.309859 C47.1402101,127.755856 47.6945037,125.767613 48.8031076,124.34507 C49.9117114,122.922528 51.4472231,122.211268 53.4096878,122.211268 C55.466502,122.211268 57.0326764,122.967129 58.1082577,124.478873 L58.2780858,124.478873 C58.117692,123.361497 58.0374963,122.478876 58.0374963,121.830986 L58.0374963,116.154929 L61.377444,116.154929 L61.377444,138.070423 L58.7734167,138.070423 L58.193172,136.028169 L58.0374963,136.028169 C56.9713497,137.577472 55.4098925,138.352113 53.3530783,138.352113 Z M54.2446744,135.676056 C55.6127391,135.676056 56.6081088,135.293431 57.230814,134.528169 C57.8535193,133.762907 58.174302,132.521135 58.193172,130.802817 L58.193172,130.338028 C58.193172,128.375577 57.8723893,126.981225 57.230814,126.15493 C56.5892388,125.328634 55.5844343,124.915493 54.2163701,124.915493 C53.0464392,124.915493 52.1454171,125.387319 51.5132771,126.330986 C50.8811366,127.274653 50.5650715,128.61971 50.5650715,130.366197 C50.5650715,132.093905 50.8717019,133.410794 51.4849723,134.316902 C52.0982423,135.223009 53.018134,135.676056 54.2446744,135.676056 Z M75.9260286,138.070423 L75.2608696,135.901408 L75.147651,135.901408 C74.3928568,136.84977 73.6333565,137.495303 72.8691275,137.838029 C72.1048985,138.180753 71.1236806,138.352113 69.925445,138.352113 C68.3875517,138.352113 67.1869756,137.938971 66.3236794,137.112676 C65.4603837,136.286381 65.0287422,135.117379 65.0287422,133.605634 C65.0287422,131.999992 65.6278511,130.788737 66.8260867,129.971831 C68.0243229,129.154926 69.8499538,128.708921 72.3030347,128.633803 L75.0061277,128.549296 L75.0061277,127.71831 C75.0061277,126.723 74.7726171,125.978876 74.305588,125.485915 C73.838559,124.992955 73.1144394,124.746479 72.1332066,124.746479 C71.3312381,124.746479 70.562303,124.863848 69.8263788,125.098592 C69.0904545,125.333335 68.3828457,125.610327 67.7035309,125.929578 L66.6279544,123.56338 C67.4770977,123.122063 68.4064241,122.786386 69.4159612,122.556338 C70.4254988,122.32629 71.3784119,122.211268 72.2747299,122.211268 C74.2654998,122.211268 75.7679892,122.643188 76.7822439,123.507042 C77.7964987,124.370896 78.3036183,125.72769 78.3036183,127.577465 L78.3036183,138.070423 L75.9260286,138.070423 Z M70.9727168,135.816902 C72.1803872,135.816902 73.1498114,135.481224 73.8810186,134.809859 C74.6122252,134.138494 74.977823,133.197189 74.977823,131.985916 L74.977823,130.633803 L72.9681937,130.71831 C71.4019956,130.774648 70.2627457,131.035209 69.5504086,131.5 C68.8380715,131.964791 68.4819085,132.676052 68.4819085,133.633803 C68.4819085,134.328642 68.6894736,134.866195 69.1046103,135.246479 C69.5197474,135.626763 70.142443,135.816902 70.9727168,135.816902 Z M80.5679895,122.492958 L84.1909833,122.492958 L87.3752553,131.323944 C87.8564368,132.582166 88.177219,133.765253 88.3376128,134.873239 L88.4508314,134.873239 C88.5357462,134.356805 88.6914199,133.730051 88.917858,132.992958 C89.1442966,132.255865 90.3425144,128.7559 92.5125471,122.492958 L96.1072367,122.492958 L89.4131894,140.140845 C88.1960837,143.380298 86.1676047,145 83.327692,145 C82.5917677,145 81.8747236,144.920189 81.1765394,144.760564 L81.1765394,142.140845 C81.6765903,142.253522 82.2473949,142.309859 82.8889701,142.309859 C84.4929077,142.309859 85.6203645,141.384986 86.2713745,139.535211 L86.8516192,138.070423 L80.5679895,122.492958 Z M109,133.633803 C109,135.154937 108.443348,136.321592 107.330026,137.133803 C106.216705,137.946013 104.622226,138.352113 102.546542,138.352113 C100.461423,138.352113 98.7867489,138.037562 97.5224685,137.408451 L97.5224685,134.549296 C99.362279,135.394371 101.074693,135.816902 102.659761,135.816902 C104.70714,135.816902 105.730814,135.201884 105.730814,133.971831 C105.730814,133.577463 105.617597,133.248828 105.391159,132.985916 C105.16472,132.723003 104.792046,132.450706 104.273125,132.169014 C103.754204,131.887323 103.032443,131.568077 102.10782,131.211268 C100.305749,130.516428 99.086303,129.8216 98.4494457,129.12676 C97.8125881,128.431922 97.4941637,127.530522 97.4941637,126.422535 C97.4941637,125.089195 98.0343052,124.053994 99.114605,123.316901 C100.194904,122.579809 101.664372,122.211268 103.523052,122.211268 C105.362863,122.211268 107.103581,122.582156 108.745258,123.323944 L107.669682,125.816902 C105.98083,125.122062 104.560895,124.774648 103.409833,124.774648 C101.654937,124.774648 100.777502,125.272296 100.777502,126.267606 C100.777502,126.755871 101.006296,127.169012 101.46389,127.507042 C101.921483,127.845072 102.919212,128.309856 104.457105,128.901408 C105.74969,129.399064 106.688452,129.854458 107.273417,130.267606 C107.858383,130.680754 108.292382,131.157275 108.575431,131.697183 C108.858478,132.237092 109,132.882626 109,133.633803 Z" id="fwdays" fill="#FFFFFF" fill-rule="nonzero"></path>
                    <path d="M27.8594301,92.6792067 C27.8594301,95.0253196 27.184857,96.8375449 25.8356906,98.1159371 C24.4865242,99.3943293 22.5701763,100.033516 20.0865897,100.033516 L18.5320216,100.033516 L18.5320216,107 L13,107 L13,86 L20.0865897,86 C22.672881,86 24.6149046,86.5793377 25.9127187,87.7380302 C27.2105328,88.8967227 27.8594301,90.5437648 27.8594301,92.6792067 Z M18.5320216,95.4083447 L19.5403901,95.4083447 C20.3713645,95.4083447 21.0319327,95.1689492 21.5221143,94.6901503 C22.0122958,94.211352 22.2573829,93.5506197 22.2573829,92.7079341 C22.2573829,91.2906905 21.4917775,90.5820793 19.9605436,90.5820793 L18.5320216,90.5820793 L18.5320216,95.4083447 Z M48.192994,107 L42.6329621,107 L42.6329621,98.4391242 L36.204613,98.4391242 L36.204613,107 L30.6445812,107 L30.6445812,86 L36.204613,86 L36.204613,93.7852256 L42.6329621,93.7852256 L42.6329621,86 L48.192994,86 L48.192994,107 Z M67,92.6792067 C67,95.0253196 66.3254268,96.8375449 64.9762602,98.1159371 C63.6270941,99.3943293 61.7107463,100.033516 59.2271594,100.033516 L57.6725914,100.033516 L57.6725914,107 L52.1405696,107 L52.1405696,86 L59.2271594,86 C61.8134506,86 63.7554745,86.5793377 65.0532884,87.7380302 C66.3511024,88.8967227 67,90.5437648 67,92.6792067 Z M57.6725914,95.4083447 L58.6809599,95.4083447 C59.5119344,95.4083447 60.1725024,95.1689492 60.6626841,94.6901503 C61.1528658,94.211352 61.3979528,93.5506197 61.3979528,92.7079341 C61.3979528,91.2906905 60.6323471,90.5820793 59.1011133,90.5820793 L57.6725914,90.5820793 L57.6725914,95.4083447 Z" id="Shape" fill="#FFFFFF" fill-rule="nonzero"></path>
                    <g id="Page-1">
                        <g id="Group-3" transform="translate(117.951220, 27.053017)">
                            <g id="Fill-1-Clipped">
                                <mask id="mask-2" fill="white">
                                    <use xlink:href="#path-1"></use>
                                </mask>
                                <g id="path-1"></g>
                                <path d="M6.03977933,3.00595724 C6.03977933,4.6208266 4.71711266,5.93013777 3.08581417,5.93013777 C1.45365157,5.93013777 0.129976771,4.6208266 0.129976771,3.00595724 C0.129976771,1.39051781 1.45365157,0.0814916865 3.08581417,0.0814916865 C4.71711266,0.0814916865 6.03977933,1.39051781 6.03977933,3.00595724" id="Fill-1" fill="#FEFEFE" fill-rule="nonzero" mask="url(#mask-2)"></path>
                            </g>
                        </g>
                        <g id="Group-6" transform="translate(27.219512, 0.117150)">
                            <g id="Fill-4-Clipped">
                                <mask id="mask-4" fill="white">
                                    <use xlink:href="#path-3"></use>
                                </mask>
                                <g id="path-3"></g>
                                <path d="M6.0333849,2.94966271 C6.0333849,4.56438955 4.7104302,5.87355819 3.07841161,5.87355819 C1.44682509,5.87355819 0.123438328,4.56438955 0.123438328,2.94966271 C0.123438328,1.33550594 1.44682509,0.0253396675 3.07841161,0.0253396675 C4.7104302,0.0253396675 6.0333849,1.33550594 6.0333849,2.94966271" id="Fill-4" fill="#FEFEFE" fill-rule="nonzero" mask="url(#mask-4)"></path>
                            </g>
                        </g>
                        <path d="M5.90996098,30.0589739 C5.90996098,31.6738432 4.58700627,32.9831544 2.95455563,32.9831544 C1.32268107,32.9831544 1.44018583e-05,31.6738432 1.44018583e-05,30.0589739 C1.44018583e-05,28.4435344 1.32268107,27.1345083 2.95455563,27.1345083 C4.58700627,27.1345083 5.90996098,28.4435344 5.90996098,30.0589739" id="Fill-7" fill="#FEFEFE" fill-rule="nonzero"></path>
                        <path d="M33.2528971,30.0589739 C33.2528971,31.6738432 31.9299424,32.9831544 30.2979238,32.9831544 C28.6663373,32.9831544 27.3429505,31.6738432 27.3429505,30.0589739 C27.3429505,28.4435344 28.6663373,27.1345083 30.2979238,27.1345083 C31.9299424,27.1345083 33.2528971,28.4435344 33.2528971,30.0589739" id="Fill-9" fill="#FEFEFE" fill-rule="nonzero"></path>
                        <path d="M5.90996098,57.0503088 C5.90996098,58.6647506 4.58700627,59.9746318 2.95455563,59.9746318 C1.32268107,59.9746318 1.44018583e-05,58.6647506 1.44018583e-05,57.0503088 C1.44018583e-05,55.435867 1.32268107,54.1271259 2.95455563,54.1271259 C4.58700627,54.1271259 5.90996098,55.435867 5.90996098,57.0503088" id="Fill-11" fill="#FEFEFE" fill-rule="nonzero"></path>
                        <path d="M60.4619247,57.0503088 C60.4619247,58.6647506 59.1395461,59.9746318 57.5069515,59.9746318 C55.8746448,59.9746318 54.5519782,58.6647506 54.5519782,57.0503088 C54.5519782,55.435867 55.8746448,54.1271259 57.5069515,54.1271259 C59.1395461,54.1271259 60.4619247,55.435867 60.4619247,57.0503088" id="Fill-13" fill="#FEFEFE" fill-rule="nonzero"></path>
                        <path d="M78.6456102,39.0559667 C78.6456102,40.6712637 77.3227995,41.9802898 75.6904929,41.9802898 C74.0584743,41.9802898 72.7366718,40.6712637 72.7366718,39.0559667 C72.7366718,37.4408124 74.0584743,36.1317862 75.6904929,36.1317862 C77.3227995,36.1317862 78.6456102,37.4408124 78.6456102,39.0559667" id="Fill-15" fill="#FEFEFE" fill-rule="nonzero"></path>
                        <path d="M96.8290077,57.0503088 C96.8290077,58.6647506 95.5056209,59.9746318 93.8753305,59.9746318 C92.2430239,59.9746318 90.9193491,58.6647506 90.9193491,57.0503088 C90.9193491,55.435867 92.2430239,54.1271259 93.8753305,54.1271259 C95.5056209,54.1271259 96.8290077,55.435867 96.8290077,57.0503088" id="Fill-17" fill="#FEFEFE" fill-rule="nonzero"></path>
                        <path d="M33.1857412,57.0503088 C33.1857412,58.6647506 31.8629305,59.9746318 30.2307679,59.9746318 C28.5994695,59.9746318 27.2757947,58.6647506 27.2757947,57.0503088 C27.2757947,55.4351544 28.5994695,54.1271259 30.2307679,54.1271259 C31.8629305,54.1271259 33.1857412,55.4351544 33.1857412,57.0503088" id="Fill-19" fill="#FEFEFE" fill-rule="nonzero"></path>
                        <polygon id="Fill-21" fill="#FEFEFE" fill-rule="nonzero" points="14.7288525 39.1428884 5.52059233 30.0304418 31.4859907 4.33718765 28.9174193 1.7943848 0.383305459 30.0304418 12.159561 41.6846936"></polygon>
                        <polygon id="Fill-23" fill="#FEFEFE" fill-rule="nonzero" points="18.3826904 47.8425891 28.9164976 58.2679097 31.4865092 55.7255344 20.9511178 45.3012114"></polygon>
                        <polygon id="Fill-25" fill="#FEFEFE" fill-rule="nonzero" points="93.7826834 59.5394964 75.6168994 41.5618717 57.4514035 59.5394964 30.2015034 32.5738432 4.23639303 58.2679525 1.66767758 55.7254347 30.2015034 27.4888076 57.4514035 54.4543183 75.6168994 36.4772637 93.7826834 54.4543183 119.74909 28.7600665 122.317373 31.3017292"></polygon>
                    </g>
                </g>
            </g>
        </g>
    </g>
</svg>