<?xml version="1.0" encoding="UTF-8"?>
<svg width="92px" height="92px" viewBox="0 0 92 92" version="1.1" xmlns="http://www.w3.org/2000/svg" xmlns:xlink="http://www.w3.org/1999/xlink">
    <!-- Generator: Sketch 46.2 (44496) - http://www.bohemiancoding.com/sketch -->
    <title>phpel-small</title>
    <desc>Created with Sketch.</desc>
    <defs>
        <path d="M0.364700557,0.2529742 L0.364700557,0.870591128 L1.0790142,3.0478628 L10.3911045,2.72132497 C19.2739822,2.21378887 25.8391125,5.37067402 28.8004186,10.8863584 L28.8004186,10.8852999 C27.2656588,5.5516723 21.1999758,0.2529742 12.9601364,0.2529742 L0.364700557,0.2529742 Z" id="path-1"></path>
    </defs>
    <g id="Large" stroke="none" stroke-width="1" fill="none" fill-rule="evenodd">
        <g id="small" transform="translate(-1271.000000, -56.000000)">
            <g id="Group" transform="translate(1271.000000, 56.000000)">
                <rect id="Rectangle" x="0" y="0" width="92" height="92"></rect>
                <g id="Page-1" transform="translate(13.183896, 24.542857)">
                    <polygon id="Fill-1" fill="#94A9D6" points="65.2180027 11.0157953 65.2180027 12.5859457 64.3247392 13.2851487 62.7015924 12.9055647 61.5247813 12.5661514 60.4687296 11.7278064 60.4687296 11.2486689 60.3870395 10.8696671 61.5638505 10.8696671 63.7357417 11.0157953"></polygon>
                    <polygon id="Fill-2" fill="#94A9D6" points="63.1552529 8.53258074 59.6257673 9.13588306 59.1792987 9.76588519 59.7368426 10.246482 62.4124029 10.8696671 65.2174608 10.8696671 65.9424304 10.4606486 66.4257434 9.70112393 66.2019673 8.90240165 65.421731 8.68823501 64.3440296 8.45418553"></polygon>
                    <polygon id="Fill-3" fill="#94A9D6" points="64.4034752 7.24644474 61.7378569 7.92841432 61.5947803 8.45418553 63.2030564 8.45418553 64.6688497 8.45418553 65.2180027 8.26939912 65.0962985 7.7154542"></polygon>
                    <path d="M2.05374854,8.45418553 C1.71607837,8.85010657 1.43756592,9.25601644 1.20774079,9.66192632 L1.20774079,9.66192632 L64.9603929,9.66192632 C64.7494145,9.65647786 63.6693935,9.62469521 62.5328323,9.51118574 L62.5328323,9.51118574 C61.2842379,9.38723339 60.6172739,9.2314984 60.2649452,9.11117836 L60.2649452,9.11117836 C61.5931145,8.46281225 64.0170105,8.42013269 64.9525401,8.46916878 L64.9525401,8.46916878 C64.9593459,8.46916878 64.9661516,8.46916878 64.9734809,8.46916878 L64.9734809,8.46916878 C65.6996027,8.52683159 66.5560808,8.74703997 66.5560808,9.04715901 L66.5560808,9.04715901 C66.5560808,9.35045633 65.7069319,9.58837218 64.9802867,9.66192632 L64.9802867,9.66192632 L67.4324527,9.66192632 C67.5580974,9.48984596 67.6334842,9.28643698 67.6334842,9.04715901 L67.6334842,9.04715901 C67.6334842,8.81650777 67.5643796,8.6203634 67.4471112,8.45418553 L67.4471112,8.45418553 L2.05374854,8.45418553 Z M55.2747559,8.91230976 L58.8959413,8.91230976 C58.8414953,9.01991674 58.8336425,9.14296101 58.8812828,9.2578326 L58.8812828,9.2578326 C58.8990824,9.3009662 58.9215938,9.34546191 58.9498638,9.38995762 L58.9498638,9.38995762 L55.6946187,9.38995762 C55.5590271,9.22741206 55.4182003,9.06895283 55.2747559,8.91230976 L55.2747559,8.91230976 Z" id="Fill-4"></path>
                    <path d="M0.349679107,10.8696671 C0.207735292,11.2778441 0.0932477618,11.6819683 0,12.0774079 L0,12.0774079 L55.8740589,12.0774079 C55.6942979,11.6721258 55.5000317,11.2749493 55.2917784,10.8870363 L55.2917784,10.8870363 L58.8103273,10.8870363 C58.9957867,11.1794185 59.3288884,11.6391242 59.815849,12.0774079 L59.815849,12.0774079 L62.6086194,12.0774079 C61.4958628,12.0085099 60.6970403,11.4081134 60.1976468,10.8702461 L60.1976468,10.8702461 C60.464957,10.9217748 60.7623138,10.9704087 61.0923072,11.0149897 L61.0923072,11.0149897 C61.9538129,11.1319426 62.7857902,11.1881031 63.288292,11.2141569 L63.288292,11.2141569 C63.4949912,11.4665898 63.6457418,11.7595509 63.6467779,11.8765037 L63.6467779,11.8765037 C63.6089607,11.9118212 63.4007074,12.0669864 62.6780372,12.0774079 L62.6780372,12.0774079 L64.6984054,12.0774079 C64.7471015,11.7381288 64.65748,11.4011657 64.5212347,11.1076256 L64.5212347,11.1076256 C64.7455473,11.0514651 64.9864374,10.9750405 65.2180027,10.8696671 L65.2180027,10.8696671 L0.349679107,10.8696671 Z" id="Fill-6"></path>
                    <path d="M66.4936326,9.66192632 C66.5324674,9.71640655 66.5534591,9.77318069 66.5534591,9.83282221 L66.5534591,9.83282221 C66.5534591,9.99511597 66.4007442,10.1424993 66.1693102,10.2657967 L66.1693102,10.2657967 L67.5762817,10.2657967 C67.6130173,10.1333237 67.6334842,9.98938121 67.6334842,9.83282221 L67.6334842,9.83282221 C67.6334842,9.77432765 67.6303355,9.71698003 67.6250875,9.66192632 L67.6250875,9.66192632 L66.4936326,9.66192632 Z M1.53153841,9.66192632 C1.41503424,9.86264297 1.30745156,10.0639331 1.20774079,10.2657967 L1.20774079,10.2657967 L55.6655673,10.2657967 C55.5296458,10.0604922 55.3884764,9.86034907 55.2446829,9.66249979 L55.2446829,9.66249979 L58.8746799,9.66249979 C58.8201014,9.79841364 58.8122295,9.95382568 58.8599857,10.0989152 L58.8599857,10.0989152 C58.8778287,10.1533954 58.9003948,10.209596 58.9287336,10.2657967 L58.9287336,10.2657967 L61.5248873,10.2657967 C60.887788,10.1459402 60.4915688,10.019202 60.247015,9.91368235 L60.247015,9.91368235 C60.3992052,9.82020574 60.5655647,9.73647822 60.7424201,9.66192632 L60.7424201,9.66192632 L1.53153841,9.66192632 Z" id="Fill-8"></path>
                    <path d="M60.3212393,7.24644474 C59.9153384,7.66475638 59.5795099,8.10237471 59.333478,8.45418553 L59.333478,8.45418553 L65.2180027,8.45418553 C64.9880614,8.36122739 64.7607153,8.29830187 64.5593221,8.25468305 L64.5593221,8.25468305 C64.5982512,7.94506093 64.6107085,7.59181999 64.5556887,7.24644474 L64.5556887,7.24644474 L60.3212393,7.24644474 Z M63.100778,7.2471598 C63.2258702,7.26289118 63.4236301,7.31151544 63.4848785,7.45810328 L63.4848785,7.45810328 C63.5482032,7.60826643 63.5315935,7.89357642 63.4828023,8.16172491 L63.4828023,8.16172491 C62.8734319,8.16029479 61.9105852,8.20677386 60.9321669,8.45347047 L60.9321669,8.45347047 C61.5290799,7.82779066 62.2931286,7.25717068 63.100778,7.2471598 L63.100778,7.2471598 Z M3.37158059,7.24644474 C3.02848534,7.62471287 2.70978567,8.02729314 2.41548158,8.45418553 L2.41548158,8.45418553 L53.2216072,8.45418553 C52.9086172,8.03301364 52.5816126,7.63043337 52.2411126,7.24644474 L52.2411126,7.24644474 L3.37158059,7.24644474 Z" id="Fill-10"></path>
                    <path d="M67.1222791,9.39211703 C67.1222791,8.21615746 65.8112301,7.81764371 64.9590482,7.68215962 C65.0183575,7.33551087 65.0167968,6.91635697 64.811295,6.55171424 C64.6489746,6.26381055 64.2998818,5.90816481 63.5605958,5.84941976 C63.5465489,5.84836129 63.5330222,5.84730282 63.5189752,5.84730282 C61.5680093,5.84730282 59.9562514,7.53609083 59.4380748,8.14576924 L53.9035748,8.14576924 C52.6898139,6.86607967 51.253903,5.8028471 49.609889,4.97300705 C46.911313,3.61075686 43.7242151,2.92010554 40.1380797,2.92010554 L40.1292353,2.92010554 L28.4791075,3.10745463 C26.5099326,0.269698017 24.3128849,0.0918751488 22.4051004,0.309919857 C21.9066936,0.367077207 21.1861369,0.636986919 20.3792174,1.01486051 C19.9645721,0.608408243 19.0884584,0.103518313 17.2873267,0.103518313 C14.7989347,0.103518313 11.8298248,3.2350002 11.1654558,3.97116571 C7.00859784,4.59777962 3.98225955,6.0955139 2.14106801,8.44954998 C0.0772062235,11.0883143 0.0407881936,14.1631681 0.0236196937,15.6407915 C0.0204981483,15.9165228 0.0168563453,16.1552076 0.00228913331,16.3076272 C0.000728360599,16.3261504 0.000208103028,16.3446736 0.000208103028,16.3626676 C0.00124861817,16.5976478 0.094894981,39.8961483 0.094894981,41.3060296 C0.094894981,41.394941 0.0938544658,41.4859694 0.0922936931,41.5785855 C0.0824087992,42.4401796 0.0688821024,43.5108215 0.85759258,44.323726 C1.5183197,45.0048511 2.60357699,45.3356228 4.17475485,45.3356228 C5.76986457,45.3356228 6.92639715,44.9344629 7.61105611,44.1416693 C8.23848674,43.4171469 8.24577035,42.5984208 8.23172339,42.3502097 L9.20304428,31.3109025 C9.34767588,29.5358492 9.93244539,28.3027323 10.9433059,27.645952 C11.7299353,27.1336528 12.7387147,26.9891717 13.7885945,27.0436829 L13.7885945,38.0591745 C13.7776691,38.2555206 13.7313662,39.6008353 14.3608778,41.0271229 C14.9664576,42.3999578 16.3222489,44.0977428 19.3433846,44.5094874 C19.4677262,44.6820179 19.6092362,44.85349 19.7720768,45.0212574 C21.1133008,46.4020308 23.4528991,47.1016791 26.7253193,47.1016791 C29.8806814,47.1016791 32.1313157,46.3284672 33.4147911,44.8053296 C34.6524839,43.3351155 34.5307436,41.6844324 34.4948458,41.3753594 L34.4948458,33.9856548 C34.9760841,34.083034 35.707046,34.1941733 36.6773263,34.2359829 L36.6773263,39.4870498 C36.6757656,39.6214755 36.6804479,40.7820872 37.4207744,41.9818623 C38.112717,43.1006646 39.5980523,44.4734994 42.7445701,44.7058335 C44.1497858,46.0389758 46.4160278,46.7142793 49.4876285,46.7142793 C52.7319547,46.7142793 55.0216083,45.9590613 56.2941583,44.4692656 C57.3991854,43.1758159 57.3258291,41.7765193 57.2987757,41.5018465 L57.2987757,25.3369009 C57.2987757,25.2183523 57.2607969,25.1077423 57.1968052,25.0177724 C58.8860815,20.345159 58.4194105,15.0454024 55.9627542,10.8803251 L59.4963437,10.8803251 C59.929198,11.5016467 61.1616881,12.9496329 63.2786162,13.0570675 C63.2869403,13.0575968 63.296305,13.0575968 63.3046291,13.0575968 C63.7275985,13.0575968 65.0121144,13.0575968 65.3502819,12.1891226 C65.4985553,11.8064859 65.4007468,11.4137937 65.2316631,11.0824927 C66.0619942,10.8930267 67.1222791,10.4442357 67.1222791,9.39211703" id="Path" fill="#6070A4"></path>
                    <path d="M11.249706,3.77683691 C7.0622572,4.38873824 4.0123602,5.85130645 2.15715472,8.1500709 L2.15715472,8.1500709 C0.0775841795,10.7268783 0.0408889594,13.7290192 0.0235897843,15.1719487 L0.0235897843,15.1719487 C0.0204444797,15.441206 0.0167749577,15.6742866 0.00262108714,15.8236443 L0.00262108714,15.8236443 C0.000524217429,15.8412158 0,15.8593041 0,15.8773924 L0,15.8773924 L0,15.8779092 C0.00104843486,16.1513009 0.0959317895,38.859352 0.0959317895,40.2350963 L0.0959317895,40.2350963 C0.0959317895,40.3219202 0.0948833546,40.4108113 0.0927864849,40.5012528 L0.0927864849,40.5012528 C0.0828263538,41.3426171 0.069720918,42.3881208 0.86443454,43.1819387 L0.86443454,43.1819387 C1.52966646,43.8465545 2.62318401,44.1695599 4.20632065,44.1695599 L4.20632065,44.1695599 C5.8140955,44.1695599 6.97943085,43.777819 7.66877677,43.0036398 L7.66877677,43.0036398 C8.30098299,42.2961289 8.30884625,41.496626 8.29416816,41.2547596 L8.29416816,41.2547596 L9.2728821,30.4741332 C9.41913876,28.7412741 10.0083592,27.5371102 11.0263894,26.8957508 L11.0263894,26.8957508 C11.8195304,26.3949633 12.8354637,26.2543913 13.8933345,26.3071058 L13.8933345,26.3071058 L13.8933345,37.0644759 C13.8823259,37.255695 13.8356706,38.5694224 14.4704979,39.9622214 L14.4704979,39.9622214 C15.080687,41.3028228 16.4462734,42.9607447 19.4909282,43.3628217 L19.4909282,43.3628217 C19.615692,43.5318181 19.7582791,43.6992641 19.9223592,43.8630924 L19.9223592,43.8630924 C21.2533472,45.1912904 23.5609523,45.8739945 26.7817442,45.89415 L26.7817442,45.89415 L27.0616763,45.89415 C30.1713341,45.8734777 32.394016,45.1189372 33.669437,43.6517177 L33.669437,43.6517177 C34.9160261,42.2165403 34.7933592,40.6040977 34.7577124,40.3022815 L34.7577124,40.3022815 L34.7577124,33.0866004 C35.2420893,33.1811764 35.979139,33.2897062 36.9562803,33.3305341 L36.9562803,33.3305341 L36.9562803,38.4588253 C36.9547076,38.5895779 36.9594256,39.7234559 37.7059112,40.8945441 L37.7059112,40.8945441 C38.4031204,41.9870773 39.8992369,43.3276787 43.069704,43.5550745 L43.069704,43.5550745 C44.4856152,44.8563984 46.7696306,45.5158462 49.864086,45.5158462 L49.864086,45.5158462 C53.1331059,45.5158462 55.4407111,44.7788772 56.7224227,43.3240611 L56.7224227,43.3240611 C57.8358605,42.060981 57.76247,40.6940223 57.7352107,40.4263155 L57.7352107,40.4263155 L57.7352107,24.640915 C57.7352107,24.5246331 57.6969429,24.4171369 57.6319399,24.3287627 L57.6319399,24.3287627 C59.3345981,19.7663768 58.8638509,14.5905391 56.3884962,10.5237726 L56.3884962,10.5237726 L59.9489809,10.5237726 C60.3851298,11.129989 61.6275251,12.5439772 63.7600416,12.6494062 L63.7600416,12.6494062 C63.7689533,12.649923 63.777865,12.649923 63.7867767,12.649923 L63.7867767,12.649923 C64.2124413,12.649923 65.5067341,12.649923 65.8474755,11.8013233 L65.8474755,11.8013233 C65.9968774,11.4281876 65.8983245,11.0447156 65.7279539,10.7206766 L65.7279539,10.7206766 C66.5646049,10.536176 67.6334842,10.0979223 67.6334842,9.06999012 L67.6334842,9.06999012 C67.6334842,7.92215832 66.3119321,7.53300148 65.4537882,7.40069849 L65.4537882,7.40069849 C65.5135489,7.06218889 65.5114521,6.65287651 65.3043862,6.29679542 L65.3043862,6.29679542 C65.1413546,6.01565157 64.7890805,5.66783941 64.0446917,5.61047366 L64.0446917,5.61047366 C64.0300136,5.60944004 64.016384,5.60892324 64.0027543,5.60892324 L64.0027543,5.60892324 C62.036939,5.60892324 60.4123891,7.25805933 59.8902686,7.85342279 L59.8902686,7.85342279 L54.3141678,7.85342279 C53.0906443,6.60326289 51.6443284,5.56551132 49.9878014,4.7551555 L49.9878014,4.7551555 C47.2681613,3.42437348 44.0568054,2.74993832 40.4438989,2.74993832 L40.4438989,2.74993832 L40.4349872,2.74993832 L28.6956621,2.93288854 C26.7114991,0.161761077 24.4977289,-0.0113697882 22.5754236,0.201555336 L22.5754236,0.201555336 C22.0732233,0.25737066 21.3471821,0.520426214 20.5341209,0.88994433 L20.5341209,0.88994433 C20.1163196,0.49303536 19.2335375,0 17.4192209,0 L17.4192209,0 C14.9113648,0 11.9196559,3.05795621 11.249706,3.77683691 M63.9807372,6.67251524 C64.1070736,6.68388503 64.3068004,6.71902801 64.3686581,6.82497376 L64.3686581,6.82497376 C64.4326126,6.93350356 64.4158377,7.13971017 64.3665612,7.33351338 L64.3665612,7.33351338 C63.75113,7.33247976 62.7787066,7.36607232 61.7905568,7.54437127 L61.7905568,7.54437127 C62.3934068,7.09216379 63.1650549,6.67975056 63.9807372,6.67251524 M62.5260338,9.59816846 C61.2757753,9.45707973 60.6079222,9.27981439 60.2551239,9.14286013 L60.2551239,9.14286013 C61.5850635,8.40485751 64.0121902,8.35627751 64.9489668,8.41209283 L64.9489668,8.41209283 C64.9557816,8.41209283 64.9625964,8.41209283 64.9699355,8.41209283 L64.9699355,8.41209283 C65.697025,8.47772752 66.5546448,8.72837967 66.5546448,9.06999012 L66.5546448,9.06999012 C66.5546448,9.41625185 65.7012188,9.68705953 64.9730808,9.77026571 L64.9730808,9.77026571 C64.8084765,9.76561443 63.6971356,9.73098826 62.5260338,9.59816846 M55.2582834,8.91649798 L58.8842953,8.91649798 C58.8297767,9.03898161 58.8219135,9.17903673 58.8696173,9.30978929 L58.8696173,9.30978929 C58.8874406,9.3588861 58.909982,9.40953334 58.9382897,9.46018058 L58.9382897,9.46018058 L55.6787058,9.46018058 C55.5429335,9.27516312 55.401919,9.09479693 55.2582834,8.91649798 M61.3528352,10.5087851 C61.6233314,10.5547811 61.9242322,10.598193 62.2581587,10.6379873 L62.2581587,10.6379873 C63.1299323,10.7423826 63.9718255,10.792513 64.4803164,10.8157694 L64.4803164,10.8157694 C64.6894791,11.0410979 64.8420264,11.3026031 64.8430749,11.4069984 L64.8430749,11.4069984 C64.8037585,11.4395573 64.5820146,11.5847805 63.8009306,11.5868478 L63.8009306,11.5868478 C62.6707178,11.5274148 61.8597535,10.9899339 61.3528352,10.5087851" id="Fill-12"></path>
                    <g id="Group-96">
                        <path d="M15.6966391,41.9051762 C15.6966391,41.9051762 14.2872614,41.7236487 14.3408479,39.1827928 C14.6446783,36.7149713 15.4417129,35.3373733 16.0176381,35.3363148 C16.5946037,35.3352563 17.1054967,37.2775478 17.1054967,37.2775478 C15.8573987,37.6040856 15.2866762,40.9980679 15.6966391,41.9051762" id="Fill-14" fill="#94A9D6"></path>
                        <path d="M17.1054967,42.6127101 C17.1054967,42.6127101 15.8620811,42.6148271 15.8927763,40.7074651 C16.1066021,38.711721 16.8380843,37.6405499 17.1054967,37.6405499 C17.3734293,37.6405499 17.9618406,38.2391144 18.3723238,40.7984935 C18.3192576,42.6307041 17.1054967,42.6127101 17.1054967,42.6127101" id="Fill-16" fill="#94A9D6"></path>
                        <path d="M14.40973,39.2057616 C14.375393,40.9485315 15.0049047,41.5613854 15.3919763,41.774667 C15.2275749,40.872851 15.4694947,39.267682 15.9705027,38.1980987 C16.243638,37.6122358 16.5661977,37.2343622 16.9298577,37.069241 C16.6790935,36.1960037 16.263928,35.3180033 16.0001574,35.3180033 C15.5334864,35.3180033 14.7234453,36.670198 14.40973,39.2057616 L14.40973,39.2057616 Z M15.9574963,42.2827323 L15.6385784,42.2425105 C15.5709449,42.2340427 13.993524,41.9985332 14.0528333,39.1893553 L14.0543941,39.1708321 C14.3540625,36.7289431 15.1724276,34.956536 15.9996372,34.9554775 C16.6905392,34.9554775 17.1837434,36.625213 17.3190104,37.1375123 L17.3658335,37.3142767 L17.1915473,37.3603201 C16.867947,37.4439392 16.5573533,37.7874125 16.2925422,38.3542229 C15.7244209,39.5688166 15.556898,41.3973226 15.8227496,41.9868901 L15.9574963,42.2827323 Z" id="Fill-18" fill="#3B3654"></path>
                        <path d="M16.0462002,40.742818 C16.0363153,41.4202385 16.183028,41.9230114 16.4821761,42.2357892 C16.7823647,42.5501546 17.1330183,42.5586224 17.1470652,42.5586224 L17.1475855,42.7396206 L17.1475855,42.5586224 C17.1933682,42.5586224 18.2463695,42.5385114 18.3030776,40.8380803 C17.8868715,38.2564733 17.3015817,37.6960137 17.1538286,37.6796074 C16.9519686,37.7515833 16.257945,38.7809449 16.0462002,40.742818 M17.1475855,42.9216774 L17.1434234,42.9216774 C17.1241739,42.9216774 16.6392938,42.9153266 16.2324524,42.4961727 C15.8594277,42.1103605 15.6768173,41.5160299 15.6893035,40.7285287 L15.690344,40.7115932 C15.9161358,38.6084143 16.6907993,37.3160231 17.1460247,37.3160231 C17.3702557,37.3160231 18.1397167,37.5674096 18.6578932,40.7978584 L18.6604945,40.8142647 L18.6599742,40.8317294 C18.5996244,42.8978618 17.2074151,42.9216774 17.1475855,42.9216774" id="Fill-20" fill="#3B3654"></path>
                        <path d="M17.3036628,42.9470806 C17.3036628,42.9470806 18.2843483,42.4707694 18.554362,41.4736912 C18.473722,42.7819594 18.881604,43.4673184 18.881604,43.4673184 C18.881604,43.4673184 17.918087,43.3043141 17.3036628,42.9470806" id="Fill-22" fill="#94A9D6"></path>
                        <path d="M21.2076235,44.9864867 C21.2076235,44.9864867 19.0886145,44.7668543 19.366432,42.1762503 C19.9829372,39.5946433 21.1228216,38.7229937 21.7616979,38.8801764 C20.7768503,41.1315409 20.2144518,43.6432889 21.2076235,44.9864867" id="Fill-24" fill="#94A9D6"></path>
                        <path d="M23.9562483,45.7529773 C23.9562483,45.7529773 22.2680125,46.4462748 21.3710885,44.913611 C21.1707893,44.5711962 21.1411346,44.0350814 21.0303198,43.4476309 C20.8170142,40.3262044 22.832492,36.8602462 23.7065247,37.8774353 C24.5800372,38.8925075 24.6164552,39.3831081 24.8297608,39.8911735 C24.2590383,40.5082612 22.2789379,43.3576609 23.9562483,45.7529773" id="Fill-26" fill="#94A9D6"></path>
                        <path d="M24.9820402,45.9193687 C24.9820402,45.9193687 23.2313735,45.7478967 23.5039884,43.3001861 C24.0049965,40.8069613 24.9404196,40.0596818 25.1958661,40.0686788 C25.4518328,40.078205 26.256151,40.6122029 26.6130477,43.3615773 C26.8518459,45.8468636 24.9820402,45.9193687 24.9820402,45.9193687" id="Fill-28" fill="#94A9D6"></path>
                        <path d="M19.362322,42.2225054 C19.2749187,43.0560501 19.4252731,43.7228858 19.808703,44.2055479 C20.0958851,44.5654275 20.461106,44.7564813 20.7363222,44.8559774 C19.9023493,43.1740694 20.7425653,40.5400682 21.428785,38.909496 C20.911649,39.0084629 19.948132,39.7816748 19.362322,42.2225054 L19.362322,42.2225054 Z M21.5047426,45.3613966 L21.0989417,45.3190578 C21.0609629,45.3142947 20.1510324,45.2110939 19.5314057,44.4341773 C19.0845044,43.8705423 18.9086574,43.1095028 19.0085468,42.1711696 L19.0127089,42.1478833 C19.6089241,39.6536 20.7118701,38.5358563 21.5401202,38.5358563 C21.6082739,38.5358563 21.6759074,38.544324 21.7398991,38.5586134 L21.9485224,38.6104784 L21.8616393,38.8099999 C20.6317504,41.6170609 20.412722,43.8843024 21.2591811,45.0295664 L21.5047426,45.3613966 Z" id="Fill-30" fill="#3B3654"></path>
                        <path d="M21.1121043,43.6954715 C21.5002164,45.7314375 22.5287656,46.1580007 23.3242394,46.1580007 C23.5182955,46.1580007 23.6894603,46.1320682 23.8148423,46.1034895 C22.3092169,43.6568373 24.0047364,40.7957944 24.8371485,39.8341749 C24.8064533,39.7516143 24.7778391,39.6701121 24.7476642,39.5859638 C24.5947084,39.1493452 24.4214627,38.6566276 23.6957034,37.8114398 C23.618185,37.7214699 23.5339032,37.6770141 23.4371353,37.6770141 C23.258687,37.6770141 23.0250913,37.8246706 22.7810905,38.0908757 C21.8638764,39.0921878 20.9659119,41.5171413 21.1121043,43.6954715 M23.3242394,46.5215849 C22.5610216,46.5215849 21.214595,46.1611761 20.7593696,43.7526288 L20.7567683,43.7309302 C20.59861,41.4224083 21.5293508,38.9244204 22.5199212,37.8426646 C22.8414404,37.4928405 23.1504734,37.3150176 23.4371353,37.3150176 C23.6369142,37.3150176 23.8190044,37.403929 23.963636,37.5727549 C24.7346577,38.4687493 24.9203897,38.997984 25.0842708,39.4637106 C25.1248509,39.5801422 25.16335,39.6907523 25.2091326,39.7997746 L25.2554356,39.908797 L25.1753159,39.9955915 C24.4058549,40.82649 22.5839129,43.7341056 24.2450953,46.1071941 L24.3782813,46.2977186 L24.1639352,46.3813377 C24.1488477,46.3876885 23.8002751,46.5215849 23.3242394,46.5215849" id="Fill-32" fill="#3B3654"></path>
                        <path d="M23.7098023,43.4096318 C23.6171965,44.2527027 23.7514229,44.9089538 24.1083196,45.360391 C24.4849861,45.8377607 25.0026424,45.933023 25.0890052,45.9457246 C25.1821313,45.9367276 25.7622185,45.870044 26.1784245,45.3815604 C26.5488479,44.9465294 26.6960808,44.3019216 26.6159611,43.4646722 C26.2647873,40.7629289 25.4896035,40.1823584 25.3012702,40.1754784 C25.1545576,40.1865923 24.2295396,40.8327879 23.7098023,43.4096318 L23.7098023,43.4096318 Z M25.0786,46.3098381 L25.0661138,46.3093089 C25.0364591,46.3061335 24.3419153,46.2304529 23.8351844,45.5937835 C23.4116947,45.0629611 23.2509352,44.3109185 23.3560272,43.3614714 L23.3586285,43.3455944 C23.8955343,40.6756052 24.9001517,39.8124234 25.302831,39.8124234 L25.3142767,39.8124234 C25.7580564,39.8288296 26.6050357,40.6089216 26.9702565,43.4218042 C27.0613016,44.372839 26.884414,45.1111214 26.4437559,45.6244791 C25.8881208,46.271204 25.1228219,46.3082504 25.0900457,46.3093089 L25.0786,46.3098381 Z" id="Fill-34" fill="#3B3654"></path>
                        <path d="M38.4589484,41.9242816 C38.4589484,41.9242816 37.0500909,41.7416956 37.1036774,39.2013689 C37.4069876,36.7340766 38.2040222,35.3554202 38.7804676,35.3554202 C39.356913,35.3543617 39.8683262,37.2966531 39.8683262,37.2966531 C38.6202282,37.623191 38.0489854,41.0161148 38.4589484,41.9242816" id="Fill-36" fill="#798DC6"></path>
                        <path d="M37.2050236,39.2460893 C37.1712069,40.9899177 37.8012388,41.6048885 38.1893509,41.8160531 C38.0244293,40.9152956 38.2668693,39.3074805 38.7678773,38.2363094 C39.0410126,37.6509758 39.3635723,37.2720437 39.7282728,37.1074517 C39.4769884,36.2326267 39.0623431,35.3551555 38.797532,35.3551555 C38.3303407,35.3551555 37.5187389,36.7078795 37.2050236,39.2460893 L37.2050236,39.2460893 Z M38.7543506,42.3262354 L38.4354328,42.2849551 C38.3677993,42.2770166 36.7898581,42.0409779 36.8486472,39.2291538 L36.8502079,39.2101013 C37.1509168,36.7660953 37.9687617,34.9926298 38.7964915,34.9915713 C39.4884341,34.9915713 39.9821585,36.6628946 40.1174255,37.1746645 L40.1637284,37.3514289 L39.9894421,37.3980016 C39.6653217,37.4826792 39.3547279,37.8256233 39.0893965,38.3924337 C38.5212753,39.6091443 38.3532321,41.4397672 38.6201242,42.0298639 L38.7543506,42.3262354 Z" id="Fill-38" fill="#3B3654"></path>
                        <path d="M39.8657769,42.9217832 C39.8657769,42.9217832 38.5037426,42.9239002 38.5365188,40.8339522 C38.771155,38.6466251 39.5728719,37.4743702 39.8657769,37.4743702 C40.1586819,37.4743702 40.8038013,38.1295628 41.2538241,40.9334484 C41.195035,42.9413649 39.8657769,42.9217832 39.8657769,42.9217832" id="Fill-40" fill="#798DC6"></path>
                        <path d="M38.7160077,40.8446428 C38.7056025,41.5511711 38.8585582,42.0745843 39.1701925,42.4005929 C39.4854686,42.7303061 39.8517299,42.7387739 39.8668174,42.7387739 L39.8678579,42.9197721 L39.8678579,42.7387739 C39.9141608,42.7387739 41.0155461,42.7176045 41.073815,40.9451974 C40.5878944,37.9264425 39.9287281,37.672939 39.8704592,37.6581205 C39.6592346,37.7316841 38.9371171,38.7965044 38.7160077,40.8446428 M39.8678579,43.1007704 L39.8631756,43.1007704 C39.8428856,43.1007704 39.3423978,43.0954781 38.9220297,42.6615056 C38.534958,42.2624626 38.3466248,41.6453749 38.359111,40.8308827 L38.3601515,40.8139472 C38.5911458,38.6657834 39.4058692,37.2945362 39.8657769,37.2945362 C40.0967713,37.2945362 40.8922451,37.5549197 41.4286306,40.9039171 L41.4317522,40.9213818 L41.4312319,40.9388465 C41.368801,43.0769548 39.9287281,43.1007704 39.8678579,43.1007704" id="Fill-42" fill="#3B3654"></path>
                        <path d="M39.8210347,43.1047397 C39.8210347,43.1047397 41.2324935,42.6077883 41.4530827,41.2338949 C41.5311214,42.997305 42.0071571,43.5688785 42.0071571,43.5688785 C42.0071571,43.5688785 40.6935067,43.4921395 39.8210347,43.1047397" id="Fill-44" fill="#798DC6"></path>
                        <path d="M43.9536487,44.5973404 C43.9536487,44.5973404 41.8309978,44.4147544 42.0625125,41.8204458 C42.633235,39.2277248 43.7575116,38.3370228 44.3995095,38.4809746 C43.4542015,40.7498039 42.9370654,43.2726659 43.9536487,44.5973404" id="Fill-46" fill="#94A9D6"></path>
                        <path d="M42.3522439,42.1227446 C42.3173866,42.9605232 42.5088414,43.616245 42.9208854,44.0745623 C43.2299184,44.4180356 43.610747,44.5863323 43.8932468,44.6683637 C42.9526211,43.0388499 43.628956,40.3471621 44.2132052,38.6731927 C43.6367598,38.8134399 42.7601258,39.7835271 42.3522439,42.1227446 L42.3522439,42.1227446 Z M44.693403,45.1235055 L44.285521,45.1081577 C44.247022,45.1070993 43.3308484,45.0631728 42.6617972,44.3238319 C42.1789981,43.789834 41.9547671,43.0399084 41.9963877,42.0957537 L41.998989,42.0714089 C42.4516131,39.4601647 43.5103373,38.2910852 44.3578368,38.2910852 C44.4067411,38.2910852 44.455125,38.2953191 44.5014279,38.3032576 L44.7121322,38.3408333 L44.6387759,38.5451179 C43.5847341,41.4352687 43.507736,43.7178581 44.4270311,44.8080816 L44.693403,45.1235055 Z" id="Fill-48" fill="#3B3654"></path>
                        <path d="M46.7190258,45.402571 C46.7190258,45.402571 44.3997176,46.3091501 43.7930972,43.0966953 C43.5792714,39.9757981 45.5947492,36.5098399 46.4693022,37.5254413 C47.3428147,38.5421012 47.3787124,39.0321726 47.5930585,39.5397087 C47.0218157,40.1578549 45.0417154,43.0067254 46.7190258,45.402571" id="Fill-50" fill="#94A9D6"></path>
                        <path d="M43.9338269,43.1057452 C44.2980072,45.0157534 45.2620445,45.4179717 46.0075736,45.4179717 C46.1829004,45.4179717 46.3374169,45.3946854 46.4539546,45.3692822 C45.0482186,43.0655234 46.6350042,40.377011 47.4221539,39.4656688 C47.3930195,39.3910467 47.3675269,39.3158953 47.339433,39.2386271 C47.1963621,38.8279409 47.0330013,38.3643313 46.3504233,37.5694207 C46.2786278,37.4868601 46.2037107,37.448226 46.1142264,37.448226 C45.9482642,37.448226 45.7313168,37.5837101 45.5039643,37.8329796 C44.640857,38.7744882 43.7964789,41.0560191 43.9338269,43.1057452 M46.0075736,45.7799683 C45.2864966,45.7799683 44.0113453,45.4407288 43.5810923,43.1634318 L43.5779707,43.1417332 C43.4286568,40.9639323 44.3073719,38.6061916 45.2433152,37.585827 C45.5476659,37.2529384 45.8410912,37.0846417 46.1142264,37.0846417 C46.3056812,37.0846417 46.4799675,37.1693193 46.6178357,37.3307359 C47.3461963,38.1769822 47.5210029,38.6765798 47.6755194,39.1158446 C47.7145387,39.2259254 47.7504365,39.3296554 47.7941381,39.432327 L47.8399208,39.5408201 L47.7598011,39.6281438 C47.0366431,40.4098235 45.3229146,43.1438501 46.8842076,45.3724576 L47.0173935,45.5645698 L46.8030474,45.6487181 C46.7890005,45.6534812 46.4586369,45.7799683 46.0075736,45.7799683" id="Fill-52" fill="#3B3654"></path>
                        <path d="M47.9673318,45.5286347 C47.9673318,45.5286347 46.2551642,45.4264924 46.4336125,43.0306468 C46.8331703,40.582407 47.7176082,39.8187212 47.9673318,39.8187212 C48.2165352,39.8187212 49.0198129,40.3087926 49.4661939,42.9766649 C49.7871928,45.389446 47.9673318,45.5286347 47.9673318,45.5286347" id="Fill-54" fill="#94A9D6"></path>
                        <path d="M46.5041074,43.0767961 C46.4432373,43.9209255 46.6013956,44.5697672 46.9749405,45.0058567 C47.3703363,45.4652324 47.880709,45.5350914 47.9660312,45.5446176 C48.0560358,45.5329745 48.6319609,45.4451215 49.0289174,44.943407 C49.3811318,44.4967329 49.5044328,43.8505373 49.393618,43.0212264 C48.9467167,40.3491203 48.155405,39.8018916 47.967592,39.8018916 C47.8229604,39.8198856 46.9265566,40.4967768 46.5041074,43.0767961 L46.5041074,43.0767961 Z M47.9691527,45.9092603 L47.9571868,45.9082019 C47.9280524,45.9060849 47.2340288,45.8573953 46.7075281,45.2445415 C46.2658295,44.7311838 46.079057,43.989726 46.1492918,43.0413374 L46.1513728,43.0249311 C46.5894297,40.341711 47.5815609,39.4383073 47.967592,39.4383073 C48.4092906,39.4383073 49.2807221,40.1813529 49.7463526,42.9672445 C49.8717347,43.9076946 49.7219005,44.6486232 49.3025729,45.1752118 C48.7734709,45.8399306 48.0128544,45.9060849 47.9816389,45.9082019 L47.9691527,45.9092603 Z" id="Fill-56" fill="#3B3654"></path>
                        <path d="M13.7965024,26.6679263 C13.6393846,26.6679263 13.4963138,26.5610208 13.4526122,26.3996042 C13.4005864,26.207492 13.5124418,26.0084998 13.7023358,25.9550471 C13.716903,25.9513424 14.6122663,25.6840789 15.4935826,24.6991731 C16.6704052,23.3824371 17.2936738,21.3771667 17.2936738,18.9014066 C17.2936738,18.7008267 17.4528726,18.5383516 17.6500503,18.5383516 C17.8472279,18.5383516 18.0069469,18.7008267 18.0069469,18.9014066 C18.0069469,22.2927428 16.9076427,24.2133356 15.985226,25.2262909 C14.9644807,26.3482685 13.9343707,26.642523 13.890669,26.6552246 C13.8589333,26.6636924 13.8282381,26.6679263 13.7965024,26.6679263" id="Fill-58" fill="#3B3654"></path>
                        <path d="M17.4433519,19.1428964 C16.3409261,19.1428964 15.4949873,18.1934493 15.4575288,18.1505813 C15.3269441,18.0013371 15.33891,17.7716492 15.4861429,17.6382821 C15.6328556,17.5049149 15.8581271,17.5176166 15.989232,17.6668608 C16.0011979,17.6795624 16.7384029,18.4977593 17.5671732,18.4104356 C18.0770256,18.3569829 18.5452575,17.9642907 18.9593825,17.2424145 C19.0582314,17.0688255 19.2772599,17.0106097 19.4479043,17.1116935 C19.6175083,17.2127774 19.6752569,17.435056 19.5753674,17.6081157 C19.0389819,18.5432735 18.3860586,19.0561019 17.6358472,19.132841 C17.5702948,19.139721 17.5063031,19.1428964 17.4433519,19.1428964" id="Fill-60" fill="#3B3654"></path>
                        <path d="M11.3501473,10.3479679 C11.3501473,10.3479679 11.5972696,10.4961536 11.7606305,10.1876097 C11.9239914,9.8790659 11.4718875,9.8303763 11.4718875,9.8303763 C11.4718875,9.8303763 7.50544382,8.43637203 5.21631051,11.182571 C4.89687236,11.6953995 5.56124128,12.0309343 5.56124128,12.0309343 C5.56124128,12.0309343 5.93166467,12.2987271 6.36451897,11.7403844 C6.79685301,11.182571 8.77227101,9.62185782 11.3501473,10.3479679" id="Fill-62" fill="#3B3654"></path>
                        <path d="M9.20918332,14.3583499 C9.20918332,14.3583499 11.4925938,13.3062312 12.1444765,15.4020008 C12.8218519,17.7062888 8.57602985,19.3305101 7.91634325,16.971711 C6.21249971,15.0844599 8.32630622,12.6436293 11.1050019,12.6886143 C11.3318342,13.1606917 9.20918332,14.3583499 9.20918332,14.3583499" id="Fill-64" fill="#3B3654"></path>
                        <path d="M11.7606825,16.1910368 C11.7606825,17.0330493 11.1046377,17.6511954 10.1145876,17.8427784 C9.17656317,17.9697947 8.12980493,17.6670725 8.12980493,16.4635927 C8.12980493,15.2474113 9.20569759,14.3948141 10.1145876,14.3948141 C11.0234775,14.3948141 11.9719071,15.0780562 11.7606825,16.1910368" id="Fill-66" fill="#93A6D5"></path>
                        <path d="M11.7606825,16.1910368 C11.7606825,17.0330493 11.0234775,17.7152328 10.1145876,17.7152328 C9.20569759,17.7152328 8.46953313,17.3050759 8.46953313,16.4635927 C8.46953313,15.6215802 9.20569759,14.6668408 10.1145876,14.6668408 C11.0234775,14.6668408 11.7606825,15.0388928 11.7606825,16.1910368" id="Fill-68" fill="#FCFCFC"></path>
                        <path d="M11.7388317,16.4388245 C11.7388317,16.4388245 11.5999229,15.0114784 10.5203885,15.0114784 C9.65520013,14.9839582 9.56623609,15.6105722 9.56623609,15.6105722 L10.2795092,16.0461323 L9.61045798,16.4996865 C9.61045798,16.4996865 10.1889844,17.7328034 11.3585234,17.1887501 C11.6758805,16.8627415 11.7388317,16.4388245 11.7388317,16.4388245" id="Fill-70" fill="#3B3654"></path>
                        <path d="M11.4055547,15.8615353 C11.4799515,16.0912231 11.4055547,16.3224987 11.2395925,16.3780684 C11.0731101,16.433638 10.8780135,16.2923323 10.804137,16.0626445 C10.7297401,15.8329566 10.804137,15.601681 10.9700991,15.5461114 C11.1365815,15.4905417 11.3311579,15.6313182 11.4055547,15.8615353" id="Fill-72" fill="#FCFCFC"></path>
                        <g id="Group-76" transform="translate(28.093909, 3.175408)">
                            <mask id="mask-2" fill="white">
                                <use xlink:href="#path-1"></use>
                            </mask>
                            <g id="Clip-75"></g>
                            <path d="M0.364700557,0.2529742 L0.364700557,0.870591128 L1.0790142,3.0478628 L10.3911045,2.72132497 C19.2739822,2.21378887 25.8391125,5.37067402 28.8004186,10.8863584 L28.8004186,10.8863584 L28.8004186,10.8852999 C27.2656588,5.5516723 21.1999758,0.2529742 12.9601364,0.2529742 L12.9601364,0.2529742 L0.364700557,0.2529742 Z" id="Fill-74" mask="url(#mask-2)"></path>
                        </g>
                        <path d="M24.6538097,21.6353274 L24.0232575,24.7927418 C24.0232575,24.7927418 23.6783268,26.3894429 24.963363,26.3894429 L26.6989422,26.3894429 C26.6989422,26.3894429 27.7217686,26.4503049 27.9600466,25.156326 L28.2810455,23.449544 L29.8745944,23.449544 C29.8745944,23.449544 32.9545192,23.6914043 34.8576214,21.16325 C34.4060379,22.5059185 34.7504484,23.4384301 35.8206182,23.4384301 L37.2362391,23.4384301 C37.2362391,23.4384301 38.4848572,23.5231077 38.6752715,21.7205342 L39.566993,17.0727948 L41.1251644,17.0727948 C41.1251644,17.0727948 41.4820611,17.0563885 41.3988199,17.6067926 L40.619474,21.6898386 C40.619474,21.6898386 40.1642487,23.43155 41.6542663,23.43155 L43.2155593,23.43155 C43.2155593,23.43155 43.8487128,23.5130522 44.1156049,23.0049869 L43.7680729,24.8922379 C43.7680729,24.8922379 43.3575896,26.3905014 44.7674876,26.3905014 L46.4526019,26.3905014 C46.4526019,26.3905014 47.4879145,26.5799674 47.7105847,24.9647431 L47.9779971,23.3950329 L49.2000822,23.3950329 C54.5873493,23.3950329 55.6580394,19.8089383 55.6580394,17.6067926 C55.6580394,17.6067926 55.9197289,13.6629354 50.9242157,13.6629354 L47.2740886,13.6629354 C47.2740886,13.6629354 45.9182974,13.5052235 45.6560876,14.9574436 L45.4422617,16.1185846 C45.4422617,16.1185846 45.6082239,13.6576431 41.5059929,13.6576431 L40.2089908,13.6576431 L40.4831666,12.162555 C40.4831666,12.162555 40.8993726,10.6748762 39.4358881,10.6748762 L37.973444,10.6748762 C37.973444,10.6748762 36.8673764,10.6140142 36.6176528,11.8841775 C36.3679292,13.1548701 35.7852407,16.3361 35.7852407,16.3361 C35.7852407,16.3361 35.5469627,13.686751 30.8490369,13.686751 C29.3158378,15.0781091 30.1009065,16.9653601 30.1009065,16.9653601 L31.0040736,17.0018773 C31.0040736,17.0018773 32.1340731,16.9653601 31.8609378,18.114858 C31.5867621,19.2643558 31.4920752,20.1227745 28.9469752,20.1227745 L28.9589411,19.4093661 C28.9589411,19.4093661 24.9503565,20.8128966 24.6538097,21.6353274" id="Fill-77" fill="#FEFEFE"></path>
                        <path d="M25.268546,25.599666 L26.6160132,25.599666 C26.6160132,25.599666 27.0889273,25.6637034 27.2049447,25.0471449 C27.3204419,24.429528 27.552997,23.1498384 27.552997,23.1498384 C27.552997,23.1498384 27.516579,22.6608255 28.292283,22.6608255 C30.0408687,22.6883457 33.9833806,23.1413706 35.0540707,18.7677749 C35.0717595,17.775989 36.1060315,14.4370471 30.6828666,14.4492195 C29.7796994,15.1991451 30.2671808,16.154943 30.2671808,16.154943 C30.2671808,16.154943 33.0614842,15.9125535 32.6806557,18.042194 C32.3008676,20.1713054 31.6110061,20.6550259 30.12411,20.8127378 C28.6377341,20.9699206 27.8526654,21.1620328 28.1018688,20.0252366 C26.2887711,20.6195672 25.5692549,21.1757929 25.5692549,21.1757929 L24.8674275,24.6226986 C24.8674275,24.6226986 24.5526716,25.599666 25.268546,25.599666" id="Fill-79" fill="#3B3654"></path>
                        <path d="M37.337117,12.2532658 C37.337117,12.2532658 37.3490829,11.4853462 37.8480099,11.4853462 L39.4665312,11.4853462 C39.4665312,11.4853462 39.8874196,11.4610014 39.6683912,12.3681097 C39.4483222,13.2757473 39.3645607,13.813979 39.3645607,13.813979 C39.3645607,13.813979 39.1871529,14.4548823 39.8229077,14.4548823 L41.7374555,14.4548823 C43.812763,14.6125942 45.0525368,15.1751707 44.6071963,17.4704618 L43.7144343,22.0980902 C43.7144343,22.0980902 43.6608478,22.661196 43.1530764,22.661196 L41.6812677,22.661196 C41.6812677,22.661196 41.2348867,22.6786607 41.306162,22.1975864 C41.3779575,21.7170412 42.1536616,17.7520146 42.1536616,17.7520146 C42.1536616,17.7520146 42.6536291,16.2278186 41.1011805,16.2278186 L39.7365449,16.2278186 C39.7365449,16.2278186 38.8089257,16.0219463 38.7730279,17.0730065 L37.7923424,21.9800709 C37.7923424,21.9800709 37.854253,22.661196 37.0338068,22.661196 L35.8205662,22.661196 C35.8205662,22.661196 35.2415195,22.6786607 35.4553454,21.9705447 L37.337117,12.2532658 Z" id="Fill-81" fill="#3B3654"></path>
                        <path d="M47.1711817,14.4353535 C47.1711817,14.4353535 46.6316746,14.3131003 46.4396995,15.1111863 L44.5527253,24.9110257 C44.5527253,24.9110257 44.3435818,25.6096156 44.8425088,25.6096156 L46.3278442,25.6096156 C46.3278442,25.6096156 46.8278117,25.5995601 46.9167757,25.033279 C47.0057398,24.4659393 47.226329,23.2989767 47.226329,23.2989767 C47.226329,23.2989767 47.2492203,22.6517227 48.0467752,22.6517227 L49.5300295,22.6517227 C52.7858014,22.7062339 54.7123152,20.6009381 54.9084523,17.8425667 C54.9084523,14.9026678 52.5178687,14.4290027 51.1802865,14.4290027 C49.842184,14.4290027 47.1711817,14.4353535 47.1711817,14.4353535" id="Fill-83" fill="#3B3654"></path>
                        <path d="M48.7619733,16.1876497 L47.8156247,20.9041896 L49.1105458,20.9041896 C52.6467365,21.1164127 53.5930851,15.9754266 50.8648544,16.1876497 L48.7619733,16.1876497 Z" id="Fill-85" fill="#FEFEFE"></path>
                        <path d="M64.481972,10.1087008 C64.3191313,10.1039377 63.215665,10.068479 62.0539299,9.93299492 C60.8131156,9.7879846 60.1503074,9.60645709 59.7996538,9.46673912 C61.1195473,8.7104627 63.5288601,8.66071463 64.4580401,8.71787198 C64.4653237,8.71840122 64.4715668,8.71787198 64.4793707,8.71787198 C65.2009679,8.78508479 66.0521093,9.04229287 66.0521093,9.39211703 C66.0521093,9.74617506 65.20513,10.0240233 64.481972,10.1087008 M63.3191963,11.9689609 C62.1970007,11.9080989 61.3926825,11.358224 60.8895934,10.8649773 C61.1575261,10.9120792 61.4566742,10.9565349 61.787558,10.997286 C62.6527463,11.1041914 63.4888003,11.1555271 63.9934501,11.1793427 C64.2005126,11.4106183 64.3524278,11.6784111 64.3534683,11.7847872 C64.3139288,11.818129 64.0943801,11.9673732 63.3191963,11.9689609 M56.0064559,25.1320871 C55.9055259,25.384532 56.0048951,25.6687311 56.2291261,25.8042152 L56.2291261,41.5325421 C56.2291261,41.5574161 56.2301666,41.5785855 56.2338084,41.6039888 C56.239011,41.6500322 56.3628323,42.7460773 55.4695501,43.7749096 C54.41915,44.9852694 52.3511262,45.6251142 49.4876285,45.6251142 C46.6074826,45.6251142 44.471305,44.9762724 43.3116509,43.7468602 C42.3278438,42.7042678 42.3595795,41.6050472 42.36062,41.5627084 C42.3611403,41.5521238 42.3616606,41.5420683 42.3616606,41.5325421 L42.3616606,32.0883483 C42.3616606,31.7872138 42.1218218,31.544295 41.8263155,31.544295 C41.5318497,31.544295 41.292011,31.7872138 41.292011,32.0883483 L41.292011,32.82028 C37.6730993,33.43578 35.3329808,33.0600233 34.4948458,32.8705573 L34.4948458,32.0391295 C34.4948458,31.7385242 34.2550071,31.494547 33.9600211,31.494547 C33.6639945,31.494547 33.424676,31.7385242 33.424676,32.0391295 L33.424676,41.4108181 C33.424676,41.4393968 33.426757,41.4663877 33.4303988,41.4939079 C33.4324799,41.5087265 33.6270562,42.8789152 32.6021488,44.0966843 C31.5314587,45.3673769 29.5534394,46.012514 26.7253193,46.012514 C23.7489257,46.012514 21.6658144,45.4213588 20.5332137,44.2554547 C19.5551294,43.2483211 19.5686561,42.062306 19.574379,41.5563576 C19.5748992,41.5182527 19.5754195,41.4817355 19.5754195,41.4520984 C19.5754195,40.6047936 19.5733384,26.8854417 19.5733384,26.8854417 L18.5026484,26.8854417 L18.5026484,27.030452 C16.3331743,26.2498308 12.7506807,25.1781305 10.3663402,26.728259 C9.05997344,27.57821 8.30976203,29.0886459 8.13651626,31.2166987 L7.16155357,42.298874 C7.15791176,42.341742 7.15635099,42.3655575 7.16311434,42.4100132 C7.16519537,42.4317119 7.21357932,42.9657097 6.79425172,43.4383163 C6.32445914,43.9670218 5.4186907,44.2464578 4.17475485,44.2464578 C2.92197462,44.2464578 2.06198886,44.0146529 1.61924966,43.5584526 C1.14529502,43.0694397 1.1541394,42.3189849 1.16298377,41.5923456 C1.16402429,41.4949664 1.1650648,41.3991749 1.1650648,41.3060296 C1.1650648,39.9146715 1.07401973,17.2909453 1.07037793,16.3848955 C1.08650591,16.1906663 1.08962746,15.9525107 1.09326926,15.6534931 C1.12500497,13.0094364 1.20252335,6.49191072 11.4812522,5.02116741 C11.5005017,5.0195797 11.519231,5.01640429 11.5384805,5.01269965 C12.3537241,4.89838495 13.2324392,4.8152951 14.1798282,4.76766397 C14.130924,4.91955434 14.1465317,5.09155563 14.238097,5.23603671 C14.3983364,5.48848167 14.7302607,5.56045759 14.9789438,5.39692406 C15.2536398,5.21539655 15.6141783,4.98359174 16.0283034,4.72267902 L16.0553567,4.72267902 C16.2723042,4.72267902 16.4580361,4.59089957 16.5423178,4.40249201 C18.5546741,3.15984887 21.4160908,1.51922121 22.5252799,1.39220488 C24.2899936,1.19003721 26.1613601,1.38638329 27.8880949,4.16645332 C29.6122285,6.941231 30.7448293,15.7339368 27.9515664,19.010429 C26.811682,20.135582 25.5823134,20.4192518 24.4980966,20.6695798 C23.0398146,21.0061731 21.5315879,21.3544096 21.5315879,23.9037333 C21.5315879,24.2043386 21.7714267,24.4483158 22.0674532,24.4483158 C22.3624393,24.4483158 22.602278,24.2043386 22.602278,23.9037333 C22.602278,22.2239422 23.2702887,22.0694057 24.7348138,21.7317539 C25.9017515,21.4618442 27.3543107,21.1268387 28.714264,19.7746439 C28.7246691,19.7645885 28.7335135,19.754533 28.7433984,19.7439483 C30.6444196,17.5349226 30.7739637,13.6064132 30.6808376,11.4614248 C30.5606581,8.65753922 29.9618416,5.90710634 29.1216256,4.18550577 L40.142762,4.00874137 C46.6012395,4.00979984 51.7580326,6.43104872 54.6641913,10.8274016 C57.3804561,14.9374385 57.8944706,20.4181934 56.0064559,25.1320871 M37.7474962,39.5087485 L37.7474962,39.4923422 L37.7474962,34.2502722 C38.7479515,34.2370413 39.9320577,34.1470714 41.292011,33.9247928 L41.292011,41.5219574 C41.2868084,41.6696139 41.2862882,42.5195648 41.8101875,43.4933567 C37.7365708,42.7524281 37.7448949,39.6479372 37.7474962,39.5087485 M14.8566833,38.1152734 C14.8577238,38.1025718 14.8582441,38.0888117 14.8582441,38.0761101 L14.8582441,27.1601146 C16.2400482,27.3829224 17.5890761,27.8497074 18.5036889,28.1857715 C18.5036889,31.6289726 18.5052496,40.7651517 18.5052496,41.4520984 C18.5052496,41.4785601 18.5052496,41.509785 18.5047294,41.5431268 C18.5000471,41.87972 18.4932837,42.5370296 18.7315617,43.2880137 C14.6366143,42.2904062 14.8457579,38.2962717 14.8566833,38.1152734 M17.2873267,1.19215415 C18.3283621,1.19215415 18.9407052,1.3757986 19.2923994,1.55679688 C18.0193291,2.22627881 16.6827874,3.03336177 15.7192704,3.63616012 C14.7229771,3.64409864 13.7719463,3.68855436 12.8677386,3.76899804 C14.080459,2.61314939 15.8966782,1.19215415 17.2873267,1.19215415 M63.8826352,7.09259213 C63.9461067,7.20426066 63.9294584,7.41542532 63.8805542,7.61388834 C63.2692516,7.61230064 62.3041738,7.64670089 61.3240085,7.82981611 C61.9223047,7.36673572 62.6881239,6.94387717 63.4971244,6.93646789 C63.6230267,6.94811105 63.8207246,6.98409901 63.8826352,7.09259213 M67.1222791,9.39211703 C67.1222791,8.21615746 65.8112301,7.81764371 64.9590482,7.68215962 C65.0183575,7.33551087 65.0167968,6.91635697 64.811295,6.55171424 C64.6489746,6.26381055 64.2998818,5.90816481 63.5605958,5.84941976 C63.5465489,5.84836129 63.5330222,5.84730282 63.5189752,5.84730282 C61.5680093,5.84730282 59.9562514,7.53609083 59.4380748,8.14576924 L53.9035748,8.14576924 C52.6898139,6.86607967 51.253903,5.8028471 49.609889,4.97300705 C46.911313,3.61075686 43.7242151,2.92010554 40.1380797,2.92010554 L40.1292353,2.92010554 L28.4791075,3.10745463 C26.5099326,0.269698017 24.3128849,0.0918751488 22.4051004,0.309919857 C21.9066936,0.367077207 21.1861369,0.636986919 20.3792174,1.01486051 C19.9645721,0.608408243 19.0884584,0.103518313 17.2873267,0.103518313 C14.7989347,0.103518313 11.8298248,3.2350002 11.1654558,3.97116571 C7.00859784,4.59777962 3.98225955,6.0955139 2.14106801,8.44954998 C0.0772062235,11.0883143 0.0407881936,14.1631681 0.0236196937,15.6407915 C0.0204981483,15.9165228 0.0168563453,16.1552076 0.00228913331,16.3076272 C0.000728360599,16.3261504 0.000208103028,16.3446736 0.000208103028,16.3626676 C0.00124861817,16.5976478 0.094894981,39.8961483 0.094894981,41.3060296 C0.094894981,41.394941 0.0938544658,41.4859694 0.0922936931,41.5785855 C0.0824087992,42.4401796 0.0688821024,43.5108215 0.85759258,44.323726 C1.5183197,45.0048511 2.60357699,45.3356228 4.17475485,45.3356228 C5.76986457,45.3356228 6.92639715,44.9344629 7.61105611,44.1416693 C8.23848674,43.4171469 8.24577035,42.5984208 8.23172339,42.3502097 L9.20304428,31.3109025 C9.34767588,29.5358492 9.93244539,28.3027323 10.9433059,27.645952 C11.7299353,27.1336528 12.7387147,26.9891717 13.7885945,27.0436829 L13.7885945,38.0591745 C13.7776691,38.2555206 13.7313662,39.6008353 14.3608778,41.0271229 C14.9664576,42.3999578 16.3222489,44.0977428 19.3433846,44.5094874 C19.4677262,44.6820179 19.6092362,44.85349 19.7720768,45.0212574 C21.1133008,46.4020308 23.4528991,47.1016791 26.7253193,47.1016791 C29.8806814,47.1016791 32.1313157,46.3284672 33.4147911,44.8053296 C34.6524839,43.3351155 34.5307436,41.6844324 34.4948458,41.3753594 L34.4948458,33.9856548 C34.9760841,34.083034 35.707046,34.1941733 36.6773263,34.2359829 L36.6773263,39.4870498 C36.6757656,39.6214755 36.6804479,40.7820872 37.4207744,41.9818623 C38.112717,43.1006646 39.5980523,44.4734994 42.7445701,44.7058335 C44.1497858,46.0389758 46.4160278,46.7142793 49.4876285,46.7142793 C52.7319547,46.7142793 55.0216083,45.9590613 56.2941583,44.4692656 C57.3991854,43.1758159 57.3258291,41.7765193 57.2987757,41.5018465 L57.2987757,25.3369009 C57.2987757,25.2183523 57.2607969,25.1077423 57.1968052,25.0177724 C58.8860815,20.345159 58.4194105,15.0454024 55.9627542,10.8803251 L59.4963437,10.8803251 C59.929198,11.5016467 61.1616881,12.9496329 63.2786162,13.0570675 C63.2869403,13.0575968 63.296305,13.0575968 63.3046291,13.0575968 C63.7275985,13.0575968 65.0121144,13.0575968 65.3502819,12.1891226 C65.4985553,11.8064859 65.4007468,11.4137937 65.2316631,11.0824927 C66.0619942,10.8930267 67.1222791,10.4442357 67.1222791,9.39211703" id="Fill-87" fill="#3B3654"></path>
                        <path d="M58.4395445,9.234458 C58.3854377,9.37050105 58.3776338,9.52606081 58.4249772,9.6712882 C58.442666,9.72582022 58.4650371,9.78264833 58.493131,9.8383284 L55.2581694,9.8383284 C55.1234227,9.63282877 54.9834734,9.43249534 54.8409228,9.234458 L58.4395445,9.234458 Z" id="Fill-90" fill="#6173AC"></path>
                        <path d="M21.5022454,1.58717495 L14.7940443,5.21666672 L14.3778382,4.95046165 C10.58412,4.97480644 2.1408599,6.57150762 1.42706652,13.7341704 L1.42706652,13.7341704 C0.71327313,20.073344 0.927619249,40.6632211 1.97437748,41.8243621 L1.97437748,41.8243621 L2.48527042,17.6896708 C2.84216711,13.8061464 3.62723579,8.25341559 13.4741508,6.94673504 L13.4741508,6.94673504 C13.248359,7.90253296 14.3898042,7.61251233 14.3898042,7.61251233 L14.3898042,7.61251233 C16.6976667,6.25714219 22.3107257,0.861064903 26.7818192,2.8451659 L26.7818192,2.8451659 C25.7059266,1.65968011 24.2575295,1.38606575 23.1499011,1.38606575 L23.1499011,1.38606575 C22.2009513,1.38606575 21.5022454,1.58717495 21.5022454,1.58717495" id="Fill-92"></path>
                        <path d="M49.3543385,17.2086493 L48.817953,19.8823432 L49.5520364,19.8823432 C51.5560686,20.0035379 52.0940149,17.0879838 50.5467689,17.2086493 L49.3543385,17.2086493 Z" id="Fill-94" fill="#6070A4"></path>
                    </g>
                </g>
            </g>
        </g>
    </g>
</svg>