<?xml version="1.0" encoding="UTF-8"?>
<svg width="290px" height="290px" viewBox="0 0 290 290" version="1.1" xmlns="http://www.w3.org/2000/svg" xmlns:xlink="http://www.w3.org/1999/xlink">
    <!-- Generator: Sketch 46.2 (44496) - http://www.bohemiancoding.com/sketch -->
    <title>phpel_big</title>
    <desc>Created with Sketch.</desc>
    <defs>
        <path d="M0.992184615,0.688227929 L0.992184615,2.36848315 L2.93550769,8.29185072 L28.2694769,7.40348957 C52.4357538,6.02271429 70.2964923,14.6111653 78.3528615,29.6168379 L78.3528615,29.6139583 C74.1774769,15.1035795 57.6755077,0.688227929 35.2586462,0.688227929 L0.992184615,0.688227929 Z" id="path-1"></path>
    </defs>
    <g id="Large" stroke="none" stroke-width="1" fill="none" fill-rule="evenodd">
        <g id="big" transform="translate(-701.000000, -661.000000)">
            <g id="Group-Copy-13" transform="translate(701.000000, 661.000000)">
                <rect id="Rectangle-11" x="0" y="0" width="290" height="290"></rect>
                <g id="Page-1" transform="translate(64.000000, 79.000000)">
                    <polygon id="Fill-3" fill="#94A9D6" points="175.212612 19.7142857 167.960675 21.5696153 167.571429 23 171.946818 23 175.934576 23 177.428571 22.4972801 177.09747 20.9902475"></polygon>
                    <path d="M5.58731722,23 C4.66867001,24.0771214 3.91096409,25.1814178 3.28571429,26.2857143 L3.28571429,26.2857143 L176.727732,26.2857143 C176.153756,26.2708915 173.215509,26.1844253 170.123442,25.8756176 L170.123442,25.8756176 C166.726584,25.5383996 164.912078,25.1147154 163.953551,24.7873792 L163.953551,24.7873792 C167.566897,23.0234694 174.161217,22.9073577 176.706368,23.0407626 L176.706368,23.0407626 C176.724884,23.0407626 176.743399,23.0407626 176.763339,23.0407626 L176.763339,23.0407626 C178.738786,23.1976369 181.068874,23.796724 181.068874,24.6132116 L181.068874,24.6132116 C181.068874,25.4383459 178.758726,26.0856069 176.781854,26.2857143 L176.781854,26.2857143 L183.453084,26.2857143 C183.794907,25.8175618 184,25.2641783 184,24.6132116 L184,24.6132116 C184,23.9857143 183.811998,23.4520945 183.492964,23 L183.492964,23 L5.58731722,23 Z M150.377512,24.246348 L160.229113,24.246348 C160.08099,24.5390977 160.059626,24.8738453 160.189234,25.1863588 L160.189234,25.1863588 C160.237659,25.3037057 160.298902,25.4247583 160.375812,25.545811 L160.375812,25.545811 L151.519768,25.545811 C151.150885,25.1035983 150.767759,24.6725027 150.377512,24.246348 L150.377512,24.246348 Z" id="Fill-4"></path>
                    <path d="M180.898981,26.2857143 C181.004633,26.4339303 181.061742,26.5883869 181.061742,26.7506444 L181.061742,26.7506444 C181.061742,27.192172 180.646274,27.5931353 180.016647,27.9285714 L180.016647,27.9285714 L183.844378,27.9285714 C183.944319,27.5681726 184,27.1765703 184,26.7506444 L184,26.7506444 C184,26.5915073 183.991434,26.4354904 183.977156,26.2857143 L183.977156,26.2857143 L180.898981,26.2857143 Z M4.16662058,26.2857143 C3.84966564,26.8317732 3.55698203,27.3793922 3.28571429,27.9285714 L3.28571429,27.9285714 L151.440732,27.9285714 C151.070952,27.3700312 150.686894,26.8255325 150.295697,26.2872745 L150.295697,26.2872745 L160.171271,26.2872745 C160.022787,26.6570343 160.001371,27.0798399 160.131294,27.4745625 L160.131294,27.4745625 C160.179837,27.6227785 160.241229,27.7756749 160.318326,27.9285714 L160.318326,27.9285714 L167.381282,27.9285714 C165.648023,27.6024963 164.570091,27.2576991 163.904771,26.9706281 L163.904771,26.9706281 C164.318812,26.7163207 164.7714,26.4885362 165.252544,26.2857143 L165.252544,26.2857143 L4.16662058,26.2857143 Z" id="Fill-8"></path>
                    <g id="Group-96">
                        <path d="M37.5340185,72.5513181 C37.1065723,72.5513181 36.7173415,72.260477 36.5984492,71.8213358 C36.4569108,71.2986857 36.7612185,70.7573181 37.2778338,70.6118976 C37.3174646,70.6018189 39.7533415,69.8747162 42.1510031,67.1952347 C45.3526031,63.6129939 47.0482338,58.1575637 47.0482338,51.4221448 C47.0482338,50.8764578 47.4813415,50.4344369 48.0177723,50.4344369 C48.5542031,50.4344369 48.9887262,50.8764578 48.9887262,51.4221448 C48.9887262,60.6484305 45.9980185,65.8734915 43.4885415,68.6292828 C40.7115569,71.6816745 37.9090954,72.4822074 37.7902031,72.5167628 C37.7038646,72.5397997 37.6203569,72.5513181 37.5340185,72.5513181" id="Fill-58" fill="#FFFFFF"></path>
                        <path d="M47.45544,52.0791289 C44.45624,52.0791289 42.1548246,49.4961144 42.0529169,49.37949 C41.6976554,48.9734644 41.7302092,48.348588 42.1307631,47.9857565 C42.5299015,47.622925 43.1427631,47.6574804 43.49944,48.0635061 C43.5319938,48.0980615 45.5375938,50.3240037 47.7923015,50.0864355 C49.1793785,49.9410149 50.4532246,48.8726778 51.5798708,46.9087806 C51.8487938,46.4365238 52.4446708,46.2781449 52.9089169,46.5531482 C53.3703323,46.8281514 53.52744,47.4328705 53.2556862,47.9036875 C51.7964246,50.4478271 50.0201169,51.8430005 47.9791323,52.0517726 C47.8007938,52.07049 47.6267015,52.0791289 47.45544,52.0791289" id="Fill-60" fill="#FFFFFF"></path>
                        <path d="M30.8785969,28.1521218 C30.8785969,28.1521218 31.5509046,28.5552679 31.9953354,27.7158602 C32.4397662,26.8764525 31.2097969,26.7439902 31.2097969,26.7439902 C31.2097969,26.7439902 20.4189046,22.9515376 14.1912123,30.4226981 C13.3221662,31.8178714 15.1296123,32.7307093 15.1296123,32.7307093 C15.1296123,32.7307093 16.1373662,33.4592518 17.3149662,31.9402551 C18.4911508,30.4226981 23.8653662,26.1767061 30.8785969,28.1521218" id="Fill-62" fill="#FFFFFF"></path>
                        <path d="M31.3816589,46.1451979 C31.7717659,45.5300799 31.9954769,44.8135203 31.9954769,44.0484592 C31.9954769,40.9139986 29.9898769,39.901814 27.5172,39.901814 C25.0445231,39.901814 23.0417538,42.4992265 23.0417538,44.78996 C23.0417538,47.0792538 25.0445231,48.1951045 27.5172,48.1951045 C28.891796,48.1951045 30.1220464,47.6215526 30.9436328,46.718592 C30.9297376,46.7333912 30.9156556,46.748124 30.9013846,46.7627841 C27.7196,48.2429061 26.1456923,44.8881549 26.1456923,44.8881549 L27.9658769,43.65424 L26.0253846,42.4692785 C26.0253846,42.4692785 26.2674154,40.7645465 28.6212,40.8394165 C31.5581231,40.8394165 31.9360308,44.722577 31.9360308,44.722577 C31.9360308,44.722577 31.8326581,45.4186951 31.3816589,46.1451979 Z" id="Combined-Shape" fill="#FCFCFC"></path>
                        <path d="M31.0293354,43.1520352 C31.2317354,43.7769116 31.0293354,44.4061074 30.5778277,44.5572872 C30.1249046,44.7084669 29.5941354,44.3240384 29.3931508,43.699162 C29.1907508,43.0742856 29.3931508,42.4450897 29.8446585,42.29391 C30.2975815,42.1427302 30.8269354,42.5257189 31.0293354,43.1520352" id="Fill-72" fill="#FCFCFC"></path>
                        <g id="Group-76" transform="translate(76.430769, 8.638844)">
                            <mask id="mask-2" fill="white">
                                <use xlink:href="#path-1"></use>
                            </mask>
                            <g id="Clip-75"></g>
                            <path d="M0.992184615,0.688227929 L0.992184615,2.36848315 L2.93550769,8.29185072 L28.2694769,7.40348957 C52.4357538,6.02271429 70.2964923,14.6111653 78.3528615,29.6168379 L78.3528615,29.6168379 L78.3528615,29.6139583 C74.1774769,15.1035795 57.6755077,0.688227929 35.2586462,0.688227929 L35.2586462,0.688227929 L0.992184615,0.688227929 Z" id="Fill-74" mask="url(#mask-2)"></path>
                        </g>
                        <path d="M67.0718215,58.8599018 C67.8785908,56.6224411 78.7841292,52.8040719 78.7841292,52.8040719 L78.7515754,54.7449323 C85.6756369,54.7449323 85.9332369,52.4095647 86.6791446,49.282303 C87.4222215,46.1550414 84.3480062,46.2543881 84.3480062,46.2543881 L81.8908985,46.1550414 C81.8908985,46.1550414 79.7550831,41.0206883 83.9262215,37.2354347 C96.7071446,37.2354347 97.3553908,44.4431104 97.3553908,44.4431104 C97.3553908,44.4431104 98.9406215,35.7884283 99.6200062,32.3314507 C100.299391,28.875913 103.308498,29.0414909 103.308498,29.0414909 L107.287145,29.0414909 C111.268622,29.0414909 110.136314,33.0887894 110.136314,33.0887894 L109.390406,37.1562453 L112.91896,37.1562453 C124.079268,37.1562453 123.62776,43.8513496 123.62776,43.8513496 L124.209483,40.6924122 C124.922837,36.7415807 128.611329,37.1706433 128.611329,37.1706433 L138.541668,37.1706433 C152.132191,37.1706433 151.420252,47.900088 151.420252,47.900088 C151.420252,53.8911265 148.507391,63.6472613 133.851083,63.6472613 L130.526345,63.6472613 L129.798837,67.91773 C129.193052,72.3120222 126.376437,71.7965711 126.376437,71.7965711 L121.792006,71.7965711 C117.956314,71.7965711 119.073052,67.7204764 119.073052,67.7204764 L120.018529,62.5861233 C119.292437,63.9683384 117.569914,63.746608 117.569914,63.746608 L113.322345,63.746608 C109.268683,63.746608 110.507145,59.0082019 110.507145,59.0082019 L112.627391,47.900088 C112.853852,46.4026883 111.882898,46.4473223 111.882898,46.4473223 L107.643822,46.4473223 L105.217852,59.0917108 C104.699822,63.9956947 101.302898,63.7653255 101.302898,63.7653255 L97.4516369,63.7653255 C94.5401908,63.7653255 93.6032062,61.2283849 94.83176,57.5755936 C89.6542831,64.4535535 81.2752062,63.7955615 81.2752062,63.7955615 L76.9398831,63.7955615 L76.0665908,68.4389403 C75.4183446,71.9592693 72.6356985,71.7936915 72.6356985,71.7936915 L67.9139754,71.7936915 C64.4179754,71.7936915 65.3563754,67.4497926 65.3563754,67.4497926 L67.0718215,58.8599018 Z M128.331366,39.2720422 C128.331366,39.2720422 126.863612,38.9394467 126.341335,41.1106762 L121.207735,67.7715896 C121.207735,67.7715896 120.638751,69.6721353 121.996105,69.6721353 L126.037028,69.6721353 C126.037028,69.6721353 127.397212,69.644779 127.639243,68.1041851 C127.881274,66.5607116 128.481397,63.3859363 128.481397,63.3859363 C128.481397,63.3859363 128.543674,61.6250518 130.713458,61.6250518 L134.74872,61.6250518 C143.606197,61.773352 148.847366,56.0457982 149.380966,48.5415222 C149.380966,40.5433921 142.877274,39.2547645 139.23832,39.2547645 C135.597951,39.2547645 128.331366,39.2720422 128.331366,39.2720422 Z M101.577342,33.3355724 L96.4578954,59.7718758 C95.8761723,61.698338 97.4514954,61.6508244 97.4514954,61.6508244 L100.752172,61.6508244 C102.984234,61.6508244 102.815803,59.7977923 102.815803,59.7977923 L105.483803,46.4478982 C105.581465,43.5884408 108.105095,44.1485258 108.105095,44.1485258 L111.817649,44.1485258 C116.041157,44.1485258 114.680972,48.2951711 114.680972,48.2951711 C114.680972,48.2951711 112.570634,59.082208 112.375311,60.3895531 C112.181403,61.698338 113.395803,61.6508244 113.395803,61.6508244 L117.399926,61.6508244 C118.781342,61.6508244 118.927126,60.1188693 118.927126,60.1188693 L121.355926,47.5291936 C122.567495,41.284749 119.194634,39.7542337 113.548665,39.3251711 L108.340049,39.3251711 C106.610449,39.3251711 107.093095,37.5815644 107.093095,37.5815644 C107.093095,37.5815644 107.320972,36.1172803 107.91968,33.6480106 C108.515557,31.1801807 107.370511,31.2464119 107.370511,31.2464119 L102.967249,31.2464119 C101.609895,31.2464119 101.577342,33.3355724 101.577342,33.3355724 Z M68.74424,69.6450669 L72.4100862,69.6450669 C72.4100862,69.6450669 73.6966708,69.8192836 74.0123015,68.141908 C74.3265169,66.4616528 74.9591938,62.9801986 74.9591938,62.9801986 C74.9591938,62.9801986 74.8601169,61.6498165 76.9704554,61.6498165 C81.7275631,61.7246865 92.4533477,62.9571616 95.3662092,51.0585934 C95.4143323,48.3603944 98.2281169,39.2766496 83.4741477,39.3097652 C81.01704,41.3499722 82.3432554,43.9502644 82.3432554,43.9502644 C82.3432554,43.9502644 89.9452862,43.2908326 88.9092246,49.0846175 C87.8759938,54.8769626 85.9991938,56.1929465 81.9540246,56.6220091 C77.9102708,57.0496319 75.7744554,57.572282 76.4524246,54.4795758 C71.5198092,56.0964795 69.5623323,57.609717 69.5623323,57.609717 L67.6529785,66.9871825 C67.6529785,66.9871825 66.7966708,69.6450669 68.74424,69.6450669 Z" id="Combined-Shape" fill="#FEFEFE"></path>
                        <path d="M132.659188,44.0392445 L138.380172,44.0392445 C145.802449,43.4618817 143.227865,57.4481706 133.607495,56.8708079 L130.084603,56.8708079 L132.659188,44.0392445 Z M134.270745,46.8169209 L132.811483,54.0908278 L134.808591,54.0908278 C140.260652,54.4205437 141.72416,46.4886448 137.514806,46.8169209 L134.270745,46.8169209 Z" id="Combined-Shape" fill="#FEFEFE"></path>
                        <path d="M175.426166,27.5011849 C174.983151,27.4882266 171.98112,27.3917596 168.820566,27.0231689 C165.444874,26.6286616 163.641674,26.1348077 162.687705,25.7546986 C166.278535,23.6972138 172.833182,23.5618719 175.361058,23.7173711 C175.380874,23.7188109 175.397858,23.7173711 175.419089,23.7173711 C177.382228,23.9002266 179.697797,24.599973 179.697797,25.5516857 C179.697797,26.5149169 177.393551,27.2708157 175.426166,27.5011849 M172.262782,32.5621079 C169.209797,32.39653 167.021612,30.9005701 165.652935,29.5586697 C166.381858,29.6868125 167.195705,29.8077563 168.095889,29.9186215 C170.449674,30.2094626 172.724197,30.3491239 174.09712,30.4139152 C174.660443,31.0431111 175.073735,31.7716536 175.076566,32.0610549 C174.968997,32.1517628 174.371705,32.5577884 172.262782,32.5621079 M152.368135,68.3729971 C152.093551,69.0597852 152.363889,69.8329618 152.97392,70.2015525 L152.97392,112.991188 C152.97392,113.058859 152.976751,113.116451 152.986658,113.185562 C153.000812,113.310825 153.337674,116.292666 150.907458,119.091652 C148.049797,122.384491 142.423643,124.125219 134.633366,124.125219 C126.797797,124.125219 120.986228,122.360015 117.831335,119.015342 C115.154843,116.178922 115.241182,113.188442 115.244012,113.073257 C115.245428,113.044461 115.246843,113.017105 115.246843,112.991188 L115.246843,87.2978254 C115.246843,86.478575 114.594351,85.8177034 113.790412,85.8177034 C112.989305,85.8177034 112.336812,86.478575 112.336812,87.2978254 L112.336812,89.289079 C102.491397,90.963575 96.1249969,89.9413117 93.8448123,89.4258607 L93.8448123,87.1639233 C93.8448123,86.3461127 93.19232,85.6823615 92.3897969,85.6823615 C91.5844431,85.6823615 90.9333662,86.3461127 90.9333662,87.1639233 L90.9333662,112.660032 C90.9333662,112.737782 90.9390277,112.811212 90.9489354,112.886082 C90.9545969,112.926397 91.4839508,116.654058 88.6956431,119.967055 C85.7827815,123.424032 80.4014892,125.179158 72.7074585,125.179158 C64.6100431,125.179158 58.9428431,123.570893 55.8615508,120.398997 C53.2006277,117.659044 53.2374277,114.432435 53.2529969,113.055979 C53.2544123,112.952313 53.2558277,112.852967 53.2558277,112.772337 C53.2558277,110.467206 53.2501662,73.143079 53.2501662,73.143079 L50.3373046,73.143079 L50.3373046,73.5375862 C44.4351508,71.4138703 34.6888123,68.4982604 28.2021046,72.7154562 C24.6480738,75.0277868 22.6070892,79.1369971 22.1357662,84.9264626 L19.4833354,115.076029 C19.4734277,115.192654 19.4691815,115.257445 19.4875815,115.378389 C19.4932431,115.437421 19.6248738,116.890187 18.4840738,118.175935 C17.2059815,119.614302 14.7417969,120.37452 11.3576123,120.37452 C7.94936615,120.37452 5.60973538,119.743885 4.40524308,118.502771 C3.11582769,117.172389 3.13988923,115.130742 3.16395077,113.153886 C3.16678154,112.888962 3.16961231,112.628357 3.16961231,112.374951 C3.16961231,108.589697 2.92192,47.0408109 2.91201231,44.5758607 C2.95588923,44.0474514 2.96438154,43.399538 2.97428923,42.5860469 C3.06062769,35.3927692 3.27152,17.6615413 31.2352738,13.6603165 C31.2876431,13.6559971 31.3385969,13.6473583 31.3909662,13.6372796 C33.6088738,13.3262812 35.9994585,13.1002315 38.5768738,12.9706488 C38.4438277,13.3838735 38.4862892,13.8518109 38.7353969,14.2448783 C39.1713354,14.9316665 40.0743508,15.1274803 40.7509046,14.6825798 C41.4982277,14.1887258 42.4790892,13.5580902 43.6057354,12.8482652 L43.6793354,12.8482652 C44.2695508,12.8482652 44.7748431,12.4897531 45.0041354,11.9771817 C50.4788431,8.59651396 58.2634585,4.13311108 61.2810585,3.7875573 C66.0820431,3.23755088 71.1731815,3.77171942 75.8708431,11.3350276 C80.5614277,18.8839377 83.64272,42.8048976 76.04352,51.7187451 C72.9424123,54.7797756 69.5978585,55.5515124 66.6481969,56.2325413 C62.6808738,57.1482587 58.5776738,58.095652 58.5776738,65.0312042 C58.5776738,65.8490148 59.2301662,66.512766 60.03552,66.512766 C60.8380431,66.512766 61.4905354,65.8490148 61.4905354,65.0312042 C61.4905354,60.4612555 63.3078892,60.0408318 67.2921969,59.1222347 C70.4669046,58.3879329 74.4186585,57.4765348 78.1184738,53.797827 C78.1467815,53.7704706 78.1708431,53.7431143 78.1977354,53.7143181 C83.3695508,47.7045621 83.7219815,37.0168719 83.4686277,31.1813326 C83.1416738,23.5532331 81.5125662,16.0705541 79.22672,11.3868607 L109.210228,10.905965 C126.780812,10.9088446 140.810105,17.4959634 148.716443,29.4564433 C156.106166,40.6379875 157.504566,55.5486327 152.368135,68.3729971 M102.693797,107.485365 L102.693797,107.440731 L102.693797,93.1794385 C105.415582,93.1434433 108.636997,92.8986761 112.336812,92.293957 L112.336812,112.962392 C112.322658,113.364098 112.321243,115.676429 113.746535,118.325674 C102.664074,116.309944 102.68672,107.864034 102.693797,107.485365 M40.4182892,103.694352 C40.42112,103.659796 40.4225354,103.622361 40.4225354,103.587806 L40.4225354,73.890339 C44.1817969,74.4964979 47.8518892,75.766408 50.3401354,76.6806857 C50.3401354,86.0480726 50.3443815,110.903467 50.3443815,112.772337 C50.3443815,112.844328 50.3443815,112.929276 50.3429662,113.019984 C50.3302277,113.935702 50.3118277,115.723943 50.9600738,117.767029 C39.8195815,115.052992 40.3885662,104.186766 40.4182892,103.694352 M47.0309662,3.24331011 C49.8631508,3.24331011 51.5290585,3.74292327 52.4858585,4.2353374 C49.0224123,6.05669374 45.3862892,8.2524 42.7649969,9.89234061 C40.0545354,9.91393772 37.4672123,10.0348815 35.0072738,10.2537323 C38.3065354,7.10919294 43.2476431,3.24331011 47.0309662,3.24331011 M173.795643,19.2957226 C173.96832,19.599522 173.923028,20.1740051 173.789982,20.7139329 C172.126905,20.7096135 169.501366,20.803201 166.834782,21.3013743 C168.462474,20.0415429 170.54592,18.8911368 172.746843,18.8709795 C173.089366,18.9026552 173.627212,19.0005621 173.795643,19.2957226 M182.609243,25.5516857 C182.609243,22.3524337 179.042474,21.2682587 176.724074,20.8996681 C176.885428,19.9565942 176.881182,18.8162668 176.322105,17.8242395 C175.880505,17.0409843 174.930782,16.0734337 172.91952,15.9136151 C172.881305,15.9107355 172.844505,15.9078559 172.806289,15.9078559 C167.498597,15.9078559 163.113735,20.5022812 161.704012,22.1609393 L146.647151,22.1609393 C143.345058,18.6794851 139.438597,15.786912 134.965982,13.5292941 C127.624382,9.82322986 118.953735,7.94428122 109.197489,7.94428122 L109.173428,7.94428122 L77.47872,8.45397303 C72.1214892,0.733725843 66.14432,0.249950562 60.9541046,0.843151204 C59.5981662,0.998650401 57.6378585,1.73295217 55.4425969,2.76097464 C54.3145354,1.65520257 51.9310277,0.281626324 47.0309662,0.281626324 C40.2611815,0.281626324 32.1835815,8.80096661 30.3761354,10.8037387 C19.0672123,12.5084706 10.83392,16.5831255 5.82487385,22.9873888 C0.210043077,30.1662684 0.110966154,38.5315493 0.0642584615,42.5514915 C0.0557661538,43.3016311 0.0458584615,43.9509843 0.00622769231,44.3656488 C0.00198153846,44.4160421 0.000566153846,44.4664353 0.000566153846,44.5153888 C0.00339692308,45.1546632 0.258166154,108.539304 0.258166154,112.374951 C0.258166154,112.616838 0.255335385,112.864485 0.251089231,113.116451 C0.224196923,115.460458 0.187396923,118.373188 2.33312,120.584732 C4.13065846,122.437764 7.08315077,123.337644 11.3576123,123.337644 C15.6971815,123.337644 18.8435815,122.24627 20.7062277,120.089439 C22.4131815,118.118342 22.4329969,115.89096 22.3947815,115.215691 L25.0373046,85.1827483 C25.4307815,80.3536343 27.0216738,76.9988831 29.7717662,75.2120822 C31.9118277,73.8183486 34.6562585,73.4252812 37.5125046,73.5735814 L37.5125046,103.541732 C37.4827815,104.075901 37.3568123,107.735891 39.0694277,111.616172 C40.7169354,115.351032 44.4054277,119.969935 52.6245662,121.090105 C52.9628431,121.559482 53.3478277,122.025979 53.7908431,122.482398 C57.4397046,126.238856 63.8046892,128.142281 72.7074585,128.142281 C81.2917662,128.142281 87.41472,126.038723 90.9064738,121.894957 C94.2736738,117.895172 93.9424738,113.404413 93.8448123,112.563565 L93.8448123,92.4595348 C95.1540431,92.7244594 97.1426585,93.0268189 99.7823508,93.1405637 L99.7823508,107.426333 C99.7781046,107.792044 99.7908431,110.949541 101.804935,114.213585 C103.687397,117.257337 107.72832,120.992198 116.288566,121.624273 C120.11152,125.251148 126.276935,127.088342 134.633366,127.088342 C143.459705,127.088342 149.688812,125.033737 153.150843,120.980679 C156.15712,117.46179 155.957551,113.654939 155.883951,112.907679 L155.883951,68.9302026 C155.883951,68.6076857 155.780628,68.306766 155.606535,68.0619987 C160.202289,55.3499393 158.932689,40.9317082 152.249243,29.6004241 L161.862535,29.6004241 C163.040135,31.2907579 166.393182,35.2300709 172.152382,35.5223518 C172.175028,35.5237917 172.200505,35.5237917 172.223151,35.5237917 C173.373858,35.5237917 176.868443,35.5237917 177.788443,33.1610677 C178.191828,32.120087 177.925735,31.0517499 177.465735,30.1504305 C179.724689,29.6349795 182.609243,28.4140228 182.609243,25.5516857" id="Fill-87" fill="#FFFFFF"></path>
                        <path d="M58.4978462,4.31798234 L40.2478769,14.1921814 L39.1155692,13.4679583 C28.7945846,13.5341894 5.82430769,17.8780883 3.8824,37.3644414 L3.8824,37.3644414 C1.94049231,54.6104543 2.52363077,110.626161 5.37138462,113.785098 L5.37138462,113.785098 L6.76129231,48.1255618 C7.73224615,37.5602552 9.86806154,22.4537961 36.6570462,18.8989117 L36.6570462,18.8989117 C36.0427692,21.4992039 39.1481231,20.7101894 39.1481231,20.7101894 L39.1481231,20.7101894 C45.4267692,17.0228427 60.6973538,2.34256661 72.8611692,7.74040449 L72.8611692,7.74040449 C69.9341538,4.51523596 65.9937231,3.77085554 62.9803692,3.77085554 L62.9803692,3.77085554 C60.3987077,3.77085554 58.4978462,4.31798234 58.4978462,4.31798234" id="Fill-92"></path>
                    </g>
                </g>
            </g>
        </g>
    </g>
</svg>