<?xml version="1.0" encoding="UTF-8"?>
<svg width="580px" height="580px" viewBox="0 0 580 580" version="1.1" xmlns="http://www.w3.org/2000/svg" xmlns:xlink="http://www.w3.org/1999/xlink">
    <!-- Generator: Sketch 46.2 (44496) - http://www.bohemiancoding.com/sketch -->
    <title>pm_big</title>
    <desc>Created with Sketch.</desc>
    <defs>
        <polygon id="path-1" points="12.0794146 0.162983373 12.0794146 11.8602755 0.259953542 11.8602755 0.259953542 0.162983373"></polygon>
        <polygon id="path-3" points="0.246876656 0.050736342 12.0667698 0.050736342 12.0667698 11.7471164 0.246876656 11.7471164"></polygon>
    </defs>
    <g id="Large" stroke="none" stroke-width="1" fill="none" fill-rule="evenodd">
        <g id="big-copy" transform="translate(-58.000000, -777.000000)">
            <g id="Group-Copy-5" transform="translate(58.000000, 777.000000)">
                <rect id="Rectangle-11" x="0" y="0" width="580" height="580"></rect>
                <g id="Group" transform="translate(149.000000, 334.000000)" fill-rule="nonzero" fill="#FFFFFF">
                    <path d="M33.5957627,17.9327119 C33.5957627,23.0083051 32.0983051,26.9227119 29.1086441,29.6864407 C26.1189831,32.4449153 21.8683051,33.8267797 16.3618644,33.8267797 L12.9150847,33.8267797 L12.9150847,48.8854237 L0.651694915,48.8854237 L0.651694915,3.48881356 L16.3671186,3.48881356 C22.0994915,3.48881356 26.4079661,4.73932203 29.2820339,7.24559322 C32.1561017,9.75186441 33.5957627,13.3142373 33.5957627,17.9327119 Z M12.9150847,23.8332203 L15.1533898,23.8332203 C16.9976271,23.8332203 18.4583051,23.3130508 19.5459322,22.2779661 C20.6335593,21.2428814 21.1747458,19.8137288 21.1747458,17.9957627 C21.1747458,14.9325424 19.4776271,13.3983051 16.0833898,13.3983051 L12.9150847,13.3983051 L12.9150847,23.8332203 L12.9150847,23.8332203 Z" id="Shape"></path>
                    <path d="M56.7564407,48.890678 L47.4722034,16.1935593 L47.1937288,16.1935593 C47.6298305,21.7630508 47.8452542,26.0872881 47.8452542,29.1715254 L47.8452542,48.890678 L36.9794915,48.890678 L36.9794915,3.4940678 L53.309661,3.4940678 L62.7830508,35.7235593 L63.03,35.7235593 L72.3142373,3.4940678 L88.6811864,3.4940678 L88.6811864,48.890678 L77.4108475,48.890678 L77.4108475,28.9876271 C77.4108475,27.9525424 77.4266102,26.8071186 77.4581356,25.5461017 C77.489661,24.2850847 77.6262712,21.1850847 77.8784746,16.2566102 L77.6,16.2566102 L68.4418644,48.890678 L56.7564407,48.890678 Z" id="Shape"></path>
                    <path d="M127.436441,20.0764407 L119.050678,20.0764407 L119.050678,48.8854237 L111.721017,48.8854237 L111.721017,20.0764407 L106.067458,20.0764407 L106.067458,16.6611864 L111.721017,14.4228814 L111.721017,12.1845763 C111.721017,8.13355932 112.672034,5.12288136 114.579322,3.16305085 C116.481356,1.20847458 119.392203,0.225932203 123.30661,0.225932203 C125.870678,0.225932203 128.397966,0.651525424 130.88322,1.49745763 L128.960169,7.03016949 C127.157966,6.45220339 125.439831,6.1579661 123.805763,6.1579661 C122.145424,6.1579661 120.942203,6.67288136 120.185593,7.69745763 C119.428983,8.7220339 119.050678,10.2562712 119.050678,12.3054237 L119.050678,14.5437288 L127.436441,14.5437288 L127.436441,20.0764407 L127.436441,20.0764407 Z" id="Shape"></path>
                    <path d="M160.727288,48.890678 L156.287458,32.8705085 C155.751525,31.1733898 154.779492,27.2274576 153.371356,21.0379661 L153.087627,21.0379661 C151.884407,26.6284746 150.938644,30.5901695 150.229322,32.9335593 L145.668644,48.890678 L137.598136,48.890678 L127.967119,14.5489831 L135.422881,14.5489831 L139.799661,31.4781356 C140.787458,35.6552542 141.49678,39.2386441 141.90661,42.2177966 L142.095763,42.2177966 C142.300678,40.7098305 142.615932,38.9759322 143.041525,37.0161017 C143.467119,35.0667797 143.834915,33.6008475 144.144915,32.6235593 L149.362373,14.5542373 L157.369831,14.5542373 L162.429661,32.6235593 C162.744915,33.6376271 163.133729,35.1928814 163.596102,37.2840678 C164.063729,39.37 164.342203,40.9988136 164.421017,42.16 L164.667966,42.16 C164.98322,39.6169492 165.703051,36.0545763 166.84322,31.4833898 L171.283051,14.5542373 L178.617966,14.5542373 L168.929153,48.8959322 L160.727288,48.8959322 L160.727288,48.890678 Z" id="Shape"></path>
                    <path d="M192.515424,49.5159322 C188.238475,49.5159322 184.891525,47.960678 182.490339,44.8554237 C180.089153,41.7449153 178.885932,37.3891525 178.885932,31.7828814 C178.885932,26.1555932 180.099661,21.7683051 182.532373,18.6315254 C184.965085,15.4947458 188.333051,13.9237288 192.641525,13.9237288 C197.149661,13.9237288 200.591186,15.589322 202.950339,18.9257627 L203.32339,18.9257627 C202.971356,16.4615254 202.792712,14.5122034 202.792712,13.0883051 L202.792712,0.572711864 L210.122373,0.572711864 L210.122373,48.8854237 L204.405763,48.8854237 L203.139492,44.3877966 L202.797966,44.3877966 C200.459831,47.8083051 197.028814,49.5159322 192.515424,49.5159322 Z M194.475254,43.6154237 C197.475424,43.6154237 199.661186,42.7747458 201.027288,41.0828814 C202.39339,39.4015254 203.097458,36.6588136 203.139492,32.8757627 L203.139492,31.8511864 C203.139492,27.5269492 202.430169,24.4532203 201.027288,22.6247458 C199.613898,20.8067797 197.412373,19.8925424 194.412203,19.8925424 C191.842881,19.8925424 189.867288,20.9328814 188.480169,23.0135593 C187.087797,25.0942373 186.399492,28.0628814 186.399492,31.9089831 C186.399492,35.7183051 187.077288,38.6186441 188.422373,40.6152542 C189.767458,42.6118644 191.785085,43.6154237 194.475254,43.6154237 Z" id="Shape"></path>
                    <path d="M238.158983,48.890678 L236.703559,44.109322 L236.451356,44.109322 C234.801525,46.2005085 233.130678,47.6244068 231.454576,48.3810169 C229.778475,49.1376271 227.624237,49.5159322 224.997119,49.5159322 C221.618644,49.5159322 218.986271,48.6016949 217.094746,46.7784746 C215.20322,44.9552542 214.252203,42.380678 214.252203,39.0442373 C214.252203,35.5028814 215.565763,32.8337288 218.198136,31.0367797 C220.825254,29.2345763 224.834237,28.2520339 230.214576,28.0838983 L236.14661,27.8947458 L236.14661,26.0610169 C236.14661,23.87 235.631695,22.230678 234.607119,21.1377966 C233.582542,20.0554237 231.995763,19.5037288 229.84678,19.5037288 C228.081356,19.5037288 226.4,19.7664407 224.781695,20.2813559 C223.16339,20.7962712 221.61339,21.4110169 220.121186,22.1150847 L217.762034,16.8976271 C219.622034,15.9255932 221.665932,15.1847458 223.877966,14.6750847 C226.095254,14.170678 228.186441,13.9132203 230.151525,13.9132203 C234.517797,13.9132203 237.812203,14.8694915 240.04,16.7715254 C242.267797,18.6735593 243.381695,21.6684746 243.381695,25.7457627 L243.381695,48.8749153 L238.158983,48.8749153 L238.158983,48.890678 Z M227.29322,43.9201695 C229.941356,43.9201695 232.069322,43.179322 233.671864,41.7028814 C235.279661,40.2211864 236.083559,38.1457627 236.083559,35.4713559 L236.083559,32.4922034 L231.67,32.6761017 C228.233729,32.8022034 225.732712,33.3801695 224.172203,34.3994915 C222.606441,35.4240678 221.828814,36.9950847 221.828814,39.1072881 C221.828814,40.6415254 222.285932,41.8289831 223.194915,42.6644068 C224.109153,43.4998305 225.47,43.9201695 227.29322,43.9201695 Z" id="Shape"></path>
                    <path d="M244.154068,14.5489831 L252.103729,14.5489831 L259.091864,34.0211864 C260.147966,36.7901695 260.852034,39.4015254 261.204068,41.8447458 L261.451017,41.8447458 C261.634915,40.7045763 261.981695,39.3279661 262.475593,37.6991525 C262.969492,36.070339 265.601864,28.3571186 270.362203,14.5489831 L278.248814,14.5489831 L263.557966,53.4566102 C260.888814,60.5971186 256.443729,64.17 250.206949,64.17 C248.593898,64.17 247.022881,63.9966102 245.488644,63.639322 L245.488644,57.8649153 C246.58678,58.1118644 247.837288,58.2327119 249.250678,58.2327119 C252.771017,58.2327119 255.245763,56.1940678 256.669661,52.1167797 L257.941186,48.8854237 L244.154068,14.5489831 Z" id="Shape"></path>
                    <path d="M303.674068,39.1072881 C303.674068,42.4647458 302.460339,45.0340678 300.017119,46.8257627 C297.568644,48.6174576 294.074576,49.5159322 289.519153,49.5159322 C284.942712,49.5159322 281.27,48.8171186 278.495763,47.4352542 L278.495763,41.1354237 C282.531017,42.9954237 286.282542,43.9254237 289.766102,43.9254237 C294.258475,43.9254237 296.507288,42.5698305 296.507288,39.8638983 C296.507288,38.9916949 296.255085,38.2666102 295.755932,37.6886441 C295.262034,37.110678 294.442373,36.5064407 293.302203,35.8864407 C292.162034,35.2664407 290.580508,34.5571186 288.557627,33.7742373 C284.601186,32.2452542 281.921525,30.7110169 280.529153,29.1767797 C279.131525,27.6477966 278.432712,25.6616949 278.432712,23.2184746 C278.432712,20.2761017 279.620169,17.9957627 281.995085,16.3669492 C284.359492,14.7433898 287.585593,13.9289831 291.668136,13.9289831 C295.70339,13.9289831 299.52322,14.7486441 303.127627,16.3827119 L300.76322,21.8786441 C297.064237,20.349661 293.94322,19.5825424 291.421186,19.5825424 C287.569831,19.5825424 285.64678,20.6754237 285.64678,22.8716949 C285.64678,23.9488136 286.145932,24.8577966 287.149492,25.6091525 C288.153051,26.3552542 290.338814,27.3798305 293.717288,28.6828814 C296.554576,29.7810169 298.614237,30.779322 299.896271,31.6935593 C301.178305,32.6025424 302.134576,33.6533898 302.754576,34.8461017 C303.374576,36.0388136 303.674068,37.4522034 303.674068,39.1072881 Z" id="Shape"></path>
                </g>
                <g id="Page-1" transform="translate(134.000000, 166.000000)">
                    <g id="Group-3" transform="translate(235.902440, 54.106034)">
                        <g id="Fill-1-Clipped">
                            <mask id="mask-2" fill="white">
                                <use xlink:href="#path-1"></use>
                            </mask>
                            <g id="path-1"></g>
                            <path d="M12.0795587,6.01191448 C12.0795587,9.2416532 9.43422532,11.8602755 6.17162834,11.8602755 C2.90730314,11.8602755 0.259953542,9.2416532 0.259953542,6.01191448 C0.259953542,2.78103562 2.90730314,0.162983373 6.17162834,0.162983373 C9.43422532,0.162983373 12.0795587,2.78103562 12.0795587,6.01191448" id="Fill-1" fill="#FEFEFE" fill-rule="nonzero" mask="url(#mask-2)"></path>
                        </g>
                    </g>
                    <g id="Group-6" transform="translate(54.439024, 0.234300)">
                        <g id="Fill-4-Clipped">
                            <mask id="mask-4" fill="white">
                                <use xlink:href="#path-3"></use>
                            </mask>
                            <g id="path-3"></g>
                            <path d="M12.0667698,5.89932542 C12.0667698,9.1287791 9.4208604,11.7471164 6.15682322,11.7471164 C2.89365018,11.7471164 0.246876656,9.1287791 0.246876656,5.89932542 C0.246876656,2.67101188 2.89365018,0.050679335 6.15682322,0.050679335 C9.4208604,0.050679335 12.0667698,2.67101188 12.0667698,5.89932542" id="Fill-4" fill="#FEFEFE" fill-rule="nonzero" mask="url(#mask-4)"></path>
                        </g>
                    </g>
                    <path d="M11.819922,60.1179478 C11.819922,63.3476864 9.17401254,65.9663088 5.90911126,65.9663088 C2.64536214,65.9663088 2.88037166e-05,63.3476864 2.88037166e-05,60.1179478 C2.88037166e-05,56.8870688 2.64536214,54.2690166 5.90911126,54.2690166 C9.17401254,54.2690166 11.819922,56.8870688 11.819922,60.1179478" id="Fill-7" fill="#FEFEFE" fill-rule="nonzero"></path>
                    <path d="M66.5057942,60.1179478 C66.5057942,63.3476864 63.8598848,65.9663088 60.5958476,65.9663088 C57.3326746,65.9663088 54.685901,63.3476864 54.685901,60.1179478 C54.685901,56.8870688 57.3326746,54.2690166 60.5958476,54.2690166 C63.8598848,54.2690166 66.5057942,56.8870688 66.5057942,60.1179478" id="Fill-9" fill="#FEFEFE" fill-rule="nonzero"></path>
                    <path d="M11.819922,114.100618 C11.819922,117.329501 9.17401254,119.949264 5.90911126,119.949264 C2.64536214,119.949264 2.88037166e-05,117.329501 2.88037166e-05,114.100618 C2.88037166e-05,110.871734 2.64536214,108.254252 5.90911126,108.254252 C9.17401254,108.254252 11.819922,110.871734 11.819922,114.100618" id="Fill-11" fill="#FEFEFE" fill-rule="nonzero"></path>
                    <path d="M120.923849,114.100618 C120.923849,117.329501 118.279092,119.949264 115.013903,119.949264 C111.74929,119.949264 109.103956,117.329501 109.103956,114.100618 C109.103956,110.871734 111.74929,108.254252 115.013903,108.254252 C118.279092,108.254252 120.923849,110.871734 120.923849,114.100618" id="Fill-13" fill="#FEFEFE" fill-rule="nonzero"></path>
                    <path d="M157.29122,78.1119334 C157.29122,81.3425274 154.645599,83.9605796 151.380986,83.9605796 C148.116949,83.9605796 145.473344,81.3425274 145.473344,78.1119334 C145.473344,74.8816248 148.116949,72.2635724 151.380986,72.2635724 C154.645599,72.2635724 157.29122,74.8816248 157.29122,78.1119334" id="Fill-15" fill="#FEFEFE" fill-rule="nonzero"></path>
                    <path d="M193.658015,114.100618 C193.658015,117.329501 191.011242,119.949264 187.750661,119.949264 C184.486048,119.949264 181.838698,117.329501 181.838698,114.100618 C181.838698,110.871734 184.486048,108.254252 187.750661,108.254252 C191.011242,108.254252 193.658015,110.871734 193.658015,114.100618" id="Fill-17" fill="#FEFEFE" fill-rule="nonzero"></path>
                    <path d="M66.3714824,114.100618 C66.3714824,117.329501 63.725861,119.949264 60.4615358,119.949264 C57.198939,119.949264 54.5515894,117.329501 54.5515894,114.100618 C54.5515894,110.870309 57.198939,108.254252 60.4615358,108.254252 C63.725861,108.254252 66.3714824,110.870309 66.3714824,114.100618" id="Fill-19" fill="#FEFEFE" fill-rule="nonzero"></path>
                    <polygon id="Fill-21" fill="#FEFEFE" fill-rule="nonzero" points="29.457705 78.2857768 11.0411847 60.0608836 62.9719814 8.6743753 57.8348386 3.5887696 0.766610918 60.0608836 24.319122 83.3693872"></polygon>
                    <polygon id="Fill-23" fill="#FEFEFE" fill-rule="nonzero" points="36.7653808 95.6851782 57.8329952 116.535819 62.9730184 111.451069 41.9022356 90.6024228"></polygon>
                    <polygon id="Fill-25" fill="#FEFEFE" fill-rule="nonzero" points="187.565367 119.078993 151.233799 83.1237434 114.902807 119.078993 60.4030068 65.1476864 8.47278606 116.535905 3.33535516 111.450869 60.4030068 54.9776152 114.902807 108.908637 151.233799 72.9545274 187.565367 108.908637 239.49818 57.520133 244.634746 62.6034584"></polygon>
                </g>
            </g>
        </g>
    </g>
</svg>