<?xml version="1.0" encoding="UTF-8"?>
<svg width="290px" height="290px" viewBox="0 0 290 290" version="1.1" xmlns="http://www.w3.org/2000/svg" xmlns:xlink="http://www.w3.org/1999/xlink">
    <!-- Generator: Sketch 46.2 (44496) - http://www.bohemiancoding.com/sketch -->
    <title>pm_big</title>
    <desc>Created with Sketch.</desc>
    <defs>
        <polygon id="path-1" points="6.03970732 0.0814916865 6.03970732 5.93013777 0.129976771 5.93013777 0.129976771 0.0814916865"></polygon>
        <polygon id="path-3" points="0.123438328 0.025368171 6.0333849 0.025368171 6.0333849 5.87355819 0.123438328 5.87355819"></polygon>
    </defs>
    <g id="Large" stroke="none" stroke-width="1" fill="none" fill-rule="evenodd">
        <g id="big" transform="translate(-19.000000, -346.000000)">
            <g id="Group-Copy-5" transform="translate(19.000000, 346.000000)">
                <rect id="Rectangle-11" x="0" y="0" width="290" height="290"></rect>
                <g id="Group" transform="translate(73.000000, 167.000000)" fill-rule="nonzero" fill="#FFFFFF">
                    <path d="M18.2978814,8.96635593 C18.2978814,11.5041525 17.5491525,13.4613559 16.054322,14.8432203 C14.5594915,16.2224576 12.4341525,16.9133898 9.6809322,16.9133898 L7.95754237,16.9133898 L7.95754237,24.4427119 L1.82584746,24.4427119 L1.82584746,1.74440678 L9.68355932,1.74440678 C12.5497458,1.74440678 14.7039831,2.36966102 16.1410169,3.62279661 C17.5780508,4.8759322 18.2978814,6.65711864 18.2978814,8.96635593 Z M7.95754237,11.9166102 L9.07669492,11.9166102 C9.99881356,11.9166102 10.7291525,11.6565254 11.2729661,11.1389831 C11.8167797,10.6214407 12.0873729,9.90686441 12.0873729,8.99788136 C12.0873729,7.46627119 11.2388136,6.69915254 9.54169492,6.69915254 L7.95754237,6.69915254 L7.95754237,11.9166102 L7.95754237,11.9166102 Z" id="Shape"></path>
                    <path d="M29.8782203,24.445339 L25.2361017,8.09677966 L25.0968644,8.09677966 C25.3149153,10.8815254 25.4226271,13.0436441 25.4226271,14.5857627 L25.4226271,24.445339 L19.9897458,24.445339 L19.9897458,1.7470339 L28.1548305,1.7470339 L32.8915254,17.8617797 L33.015,17.8617797 L37.6571186,1.7470339 L45.8405932,1.7470339 L45.8405932,24.445339 L40.2054237,24.445339 L40.2054237,14.4938136 C40.2054237,13.9762712 40.2133051,13.4035593 40.2290678,12.7730508 C40.2448305,12.1425424 40.3131356,10.5925424 40.4392373,8.12830508 L40.3,8.12830508 L35.7209322,24.445339 L29.8782203,24.445339 Z" id="Shape"></path>
                    <path d="M65.2182203,10.0382203 L61.025339,10.0382203 L61.025339,24.4427119 L57.3605085,24.4427119 L57.3605085,10.0382203 L54.5337288,10.0382203 L54.5337288,8.33059322 L57.3605085,7.21144068 L57.3605085,6.09228814 C57.3605085,4.06677966 57.8360169,2.56144068 58.789661,1.58152542 C59.740678,0.604237288 61.1961017,0.112966102 63.1533051,0.112966102 C64.435339,0.112966102 65.6989831,0.325762712 66.9416102,0.748728814 L65.9800847,3.51508475 C65.0789831,3.22610169 64.2199153,3.07898305 63.4028814,3.07898305 C62.5727119,3.07898305 61.9711017,3.33644068 61.5927966,3.84872881 C61.2144915,4.36101695 61.025339,5.12813559 61.025339,6.15271186 L61.025339,7.27186441 L65.2182203,7.27186441 L65.2182203,10.0382203 L65.2182203,10.0382203 Z" id="Shape"></path>
                    <path d="M81.8636441,24.445339 L79.6437288,16.4352542 C79.3757627,15.5866949 78.8897458,13.6137288 78.185678,10.5189831 L78.0438136,10.5189831 C77.4422034,13.3142373 76.969322,15.2950847 76.614661,16.4667797 L74.334322,24.445339 L70.2990678,24.445339 L65.4835593,7.27449153 L69.2114407,7.27449153 L71.3998305,15.7390678 C71.8937288,17.8276271 72.2483898,19.619322 72.4533051,21.1088983 L72.5478814,21.1088983 C72.650339,20.3549153 72.8079661,19.4879661 73.0207627,18.5080508 C73.2335593,17.5333898 73.4174576,16.8004237 73.5724576,16.3117797 L76.1811864,7.27711864 L80.1849153,7.27711864 L82.7148305,16.3117797 C82.8724576,16.8188136 83.0668644,17.5964407 83.2980508,18.6420339 C83.5318644,19.685 83.6711017,20.4994068 83.7105085,21.08 L83.8339831,21.08 C83.9916102,19.8084746 84.3515254,18.0272881 84.9216102,15.7416949 L87.1415254,7.27711864 L90.8089831,7.27711864 L85.9645763,24.4479661 L81.8636441,24.4479661 L81.8636441,24.445339 Z" id="Shape"></path>
                    <path d="M97.7577119,24.7579661 C95.6192373,24.7579661 93.9457627,23.980339 92.7451695,22.4277119 C91.5445763,20.8724576 90.9429661,18.6945763 90.9429661,15.8914407 C90.9429661,13.0777966 91.5498305,10.8841525 92.7661864,9.31576271 C93.9825424,7.74737288 95.6665254,6.96186441 97.8207627,6.96186441 C100.074831,6.96186441 101.795593,7.79466102 102.975169,9.46288136 L103.161695,9.46288136 C102.985678,8.23076271 102.896356,7.25610169 102.896356,6.54415254 L102.896356,0.286355932 L106.561186,0.286355932 L106.561186,24.4427119 L103.702881,24.4427119 L103.069746,22.1938983 L102.898983,22.1938983 C101.729915,23.9041525 100.014407,24.7579661 97.7577119,24.7579661 Z M98.7376271,21.8077119 C100.237712,21.8077119 101.330593,21.3873729 102.013644,20.5414407 C102.696695,19.7007627 103.048729,18.3294068 103.069746,16.4378814 L103.069746,15.9255932 C103.069746,13.7634746 102.715085,12.2266102 102.013644,11.3123729 C101.306949,10.4033898 100.206186,9.94627119 98.7061017,9.94627119 C97.4214407,9.94627119 96.4336441,10.4664407 95.7400847,11.5067797 C95.0438983,12.5471186 94.6997458,14.0314407 94.6997458,15.9544915 C94.6997458,17.8591525 95.0386441,19.309322 95.7111864,20.3076271 C96.3837288,21.3059322 97.3925424,21.8077119 98.7376271,21.8077119 Z" id="Shape"></path>
                    <path d="M120.579492,24.445339 L119.85178,22.054661 L119.725678,22.054661 C118.900763,23.1002542 118.065339,23.8122034 117.227288,24.1905085 C116.389237,24.5688136 115.312119,24.7579661 113.998559,24.7579661 C112.309322,24.7579661 110.993136,24.3008475 110.047373,23.3892373 C109.10161,22.4776271 108.626102,21.190339 108.626102,19.5221186 C108.626102,17.7514407 109.282881,16.4168644 110.599068,15.5183898 C111.912627,14.6172881 113.917119,14.1260169 116.607288,14.0419492 L119.573305,13.9473729 L119.573305,13.0305085 C119.573305,11.935 119.315847,11.115339 118.803559,10.5688983 C118.291271,10.0277119 117.497881,9.75186441 116.42339,9.75186441 C115.540678,9.75186441 114.7,9.88322034 113.890847,10.140678 C113.081695,10.3981356 112.306695,10.7055085 111.560593,11.0575424 L110.381017,8.44881356 C111.311017,7.96279661 112.332966,7.59237288 113.438983,7.33754237 C114.547627,7.08533898 115.59322,6.95661017 116.575763,6.95661017 C118.758898,6.95661017 120.406102,7.43474576 121.52,8.38576271 C122.633898,9.33677966 123.190847,10.8342373 123.190847,12.8728814 L123.190847,24.4374576 L120.579492,24.4374576 L120.579492,24.445339 Z M115.14661,21.9600847 C116.470678,21.9600847 117.534661,21.589661 118.335932,20.8514407 C119.139831,20.1105932 119.54178,19.0728814 119.54178,17.735678 L119.54178,16.2461017 L117.335,16.3380508 C115.616864,16.4011017 114.366356,16.6900847 113.586102,17.1997458 C112.80322,17.7120339 112.414407,18.4975424 112.414407,19.5536441 C112.414407,20.3207627 112.642966,20.9144915 113.097458,21.3322034 C113.554576,21.7499153 114.235,21.9600847 115.14661,21.9600847 Z" id="Shape"></path>
                    <path d="M123.577034,7.27449153 L127.551864,7.27449153 L131.045932,17.0105932 C131.573983,18.3950847 131.926017,19.7007627 132.102034,20.9223729 L132.225508,20.9223729 C132.317458,20.3522881 132.490847,19.6639831 132.737797,18.8495763 C132.984746,18.0351695 134.300932,14.1785593 136.681102,7.27449153 L140.624407,7.27449153 L133.278983,26.7283051 C131.944407,30.2985593 129.721864,32.085 126.603475,32.085 C125.796949,32.085 125.011441,31.9983051 124.244322,31.819661 L124.244322,28.9324576 C124.79339,29.0559322 125.418644,29.1163559 126.125339,29.1163559 C127.885508,29.1163559 129.122881,28.0970339 129.834831,26.0583898 L130.470593,24.4427119 L123.577034,7.27449153 Z" id="Shape"></path>
                    <path d="M153.337034,19.5536441 C153.337034,21.2323729 152.730169,22.5170339 151.508559,23.4128814 C150.284322,24.3087288 148.537288,24.7579661 146.259576,24.7579661 C143.971356,24.7579661 142.135,24.4085593 140.747881,23.7176271 L140.747881,20.5677119 C142.765508,21.4977119 144.641271,21.9627119 146.383051,21.9627119 C148.629237,21.9627119 149.753644,21.2849153 149.753644,19.9319492 C149.753644,19.4958475 149.627542,19.1333051 149.377966,18.844322 C149.131017,18.555339 148.721186,18.2532203 148.151102,17.9432203 C147.581017,17.6332203 146.790254,17.2785593 145.778814,16.8871186 C143.800593,16.1226271 142.460763,15.3555085 141.764576,14.5883898 C141.065763,13.8238983 140.716356,12.8308475 140.716356,11.6092373 C140.716356,10.1380508 141.310085,8.99788136 142.497542,8.18347458 C143.679746,7.37169492 145.292797,6.96449153 147.334068,6.96449153 C149.351695,6.96449153 151.26161,7.37432203 153.063814,8.19135593 L151.88161,10.939322 C150.032119,10.1748305 148.47161,9.79127119 147.210593,9.79127119 C145.284915,9.79127119 144.32339,10.3377119 144.32339,11.4358475 C144.32339,11.9744068 144.572966,12.4288983 145.074746,12.8045763 C145.576525,13.1776271 146.669407,13.6899153 148.358644,14.3414407 C149.777288,14.8905085 150.807119,15.389661 151.448136,15.8467797 C152.089153,16.3012712 152.567288,16.8266949 152.877288,17.4230508 C153.187288,18.0194068 153.337034,18.7261017 153.337034,19.5536441 Z" id="Shape"></path>
                </g>
                <g id="Page-1" transform="translate(67.000000, 83.000000)">
                    <g id="Group-3" transform="translate(117.951220, 27.053017)">
                        <g id="Fill-1-Clipped">
                            <mask id="mask-2" fill="white">
                                <use xlink:href="#path-1"></use>
                            </mask>
                            <g id="path-1"></g>
                            <path d="M6.03977933,3.00595724 C6.03977933,4.6208266 4.71711266,5.93013777 3.08581417,5.93013777 C1.45365157,5.93013777 0.129976771,4.6208266 0.129976771,3.00595724 C0.129976771,1.39051781 1.45365157,0.0814916865 3.08581417,0.0814916865 C4.71711266,0.0814916865 6.03977933,1.39051781 6.03977933,3.00595724" id="Fill-1" fill="#FEFEFE" fill-rule="nonzero" mask="url(#mask-2)"></path>
                        </g>
                    </g>
                    <g id="Group-6" transform="translate(27.219512, 0.117150)">
                        <g id="Fill-4-Clipped">
                            <mask id="mask-4" fill="white">
                                <use xlink:href="#path-3"></use>
                            </mask>
                            <g id="path-3"></g>
                            <path d="M6.0333849,2.94966271 C6.0333849,4.56438955 4.7104302,5.87355819 3.07841161,5.87355819 C1.44682509,5.87355819 0.123438328,4.56438955 0.123438328,2.94966271 C0.123438328,1.33550594 1.44682509,0.0253396675 3.07841161,0.0253396675 C4.7104302,0.0253396675 6.0333849,1.33550594 6.0333849,2.94966271" id="Fill-4" fill="#FEFEFE" fill-rule="nonzero" mask="url(#mask-4)"></path>
                        </g>
                    </g>
                    <path d="M5.90996098,30.0589739 C5.90996098,31.6738432 4.58700627,32.9831544 2.95455563,32.9831544 C1.32268107,32.9831544 1.44018583e-05,31.6738432 1.44018583e-05,30.0589739 C1.44018583e-05,28.4435344 1.32268107,27.1345083 2.95455563,27.1345083 C4.58700627,27.1345083 5.90996098,28.4435344 5.90996098,30.0589739" id="Fill-7" fill="#FEFEFE" fill-rule="nonzero"></path>
                    <path d="M33.2528971,30.0589739 C33.2528971,31.6738432 31.9299424,32.9831544 30.2979238,32.9831544 C28.6663373,32.9831544 27.3429505,31.6738432 27.3429505,30.0589739 C27.3429505,28.4435344 28.6663373,27.1345083 30.2979238,27.1345083 C31.9299424,27.1345083 33.2528971,28.4435344 33.2528971,30.0589739" id="Fill-9" fill="#FEFEFE" fill-rule="nonzero"></path>
                    <path d="M5.90996098,57.0503088 C5.90996098,58.6647506 4.58700627,59.9746318 2.95455563,59.9746318 C1.32268107,59.9746318 1.44018583e-05,58.6647506 1.44018583e-05,57.0503088 C1.44018583e-05,55.435867 1.32268107,54.1271259 2.95455563,54.1271259 C4.58700627,54.1271259 5.90996098,55.435867 5.90996098,57.0503088" id="Fill-11" fill="#FEFEFE" fill-rule="nonzero"></path>
                    <path d="M60.4619247,57.0503088 C60.4619247,58.6647506 59.1395461,59.9746318 57.5069515,59.9746318 C55.8746448,59.9746318 54.5519782,58.6647506 54.5519782,57.0503088 C54.5519782,55.435867 55.8746448,54.1271259 57.5069515,54.1271259 C59.1395461,54.1271259 60.4619247,55.435867 60.4619247,57.0503088" id="Fill-13" fill="#FEFEFE" fill-rule="nonzero"></path>
                    <path d="M78.6456102,39.0559667 C78.6456102,40.6712637 77.3227995,41.9802898 75.6904929,41.9802898 C74.0584743,41.9802898 72.7366718,40.6712637 72.7366718,39.0559667 C72.7366718,37.4408124 74.0584743,36.1317862 75.6904929,36.1317862 C77.3227995,36.1317862 78.6456102,37.4408124 78.6456102,39.0559667" id="Fill-15" fill="#FEFEFE" fill-rule="nonzero"></path>
                    <path d="M96.8290077,57.0503088 C96.8290077,58.6647506 95.5056209,59.9746318 93.8753305,59.9746318 C92.2430239,59.9746318 90.9193491,58.6647506 90.9193491,57.0503088 C90.9193491,55.435867 92.2430239,54.1271259 93.8753305,54.1271259 C95.5056209,54.1271259 96.8290077,55.435867 96.8290077,57.0503088" id="Fill-17" fill="#FEFEFE" fill-rule="nonzero"></path>
                    <path d="M33.1857412,57.0503088 C33.1857412,58.6647506 31.8629305,59.9746318 30.2307679,59.9746318 C28.5994695,59.9746318 27.2757947,58.6647506 27.2757947,57.0503088 C27.2757947,55.4351544 28.5994695,54.1271259 30.2307679,54.1271259 C31.8629305,54.1271259 33.1857412,55.4351544 33.1857412,57.0503088" id="Fill-19" fill="#FEFEFE" fill-rule="nonzero"></path>
                    <polygon id="Fill-21" fill="#FEFEFE" fill-rule="nonzero" points="14.7288525 39.1428884 5.52059233 30.0304418 31.4859907 4.33718765 28.9174193 1.7943848 0.383305459 30.0304418 12.159561 41.6846936"></polygon>
                    <polygon id="Fill-23" fill="#FEFEFE" fill-rule="nonzero" points="18.3826904 47.8425891 28.9164976 58.2679097 31.4865092 55.7255344 20.9511178 45.3012114"></polygon>
                    <polygon id="Fill-25" fill="#FEFEFE" fill-rule="nonzero" points="93.7826834 59.5394964 75.6168994 41.5618717 57.4514035 59.5394964 30.2015034 32.5738432 4.23639303 58.2679525 1.66767758 55.7254347 30.2015034 27.4888076 57.4514035 54.4543183 75.6168994 36.4772637 93.7826834 54.4543183 119.74909 28.7600665 122.317373 31.3017292"></polygon>
                </g>
            </g>
        </g>
    </g>
</svg>