<?xml version="1.0" encoding="UTF-8"?>
<svg width="92px" height="92px" viewBox="0 0 92 92" version="1.1" xmlns="http://www.w3.org/2000/svg" xmlns:xlink="http://www.w3.org/1999/xlink">
    <!-- Generator: Sketch 46.2 (44496) - http://www.bohemiancoding.com/sketch -->
    <title>pm_small</title>
    <desc>Created with Sketch.</desc>
    <defs>
        <linearGradient x1="49.9994709%" y1="-0.00110570544%" x2="49.9994709%" y2="100.001843%" id="linearGradient-1">
            <stop stop-color="#FBEE76" offset="0%"></stop>
            <stop stop-color="#FAEE71" offset="6.08%"></stop>
            <stop stop-color="#F7EB63" offset="12.28%"></stop>
            <stop stop-color="#F2E84B" offset="18.51%"></stop>
            <stop stop-color="#ECE428" offset="23.79%"></stop>
            <stop stop-color="#C0D113" offset="47.21%"></stop>
            <stop stop-color="#B1C71C" offset="55.05%"></stop>
            <stop stop-color="#8CAD29" offset="69.69%"></stop>
            <stop stop-color="#578E31" offset="86.05%"></stop>
            <stop stop-color="#2E5225" offset="98.8%"></stop>
            <stop stop-color="#2A4C23" offset="100%"></stop>
        </linearGradient>
    </defs>
    <g id="Large" stroke="none" stroke-width="1" fill="none" fill-rule="evenodd">
        <g id="small" transform="translate(-683.000000, -56.000000)">
            <g id="Group-2" transform="translate(683.000000, 56.000000)">
                <rect id="Rectangle" x="0" y="0" width="92" height="92"></rect>
                <g id="Без-назви-1" transform="translate(12.000000, 18.000000)" fill-rule="nonzero">
                    <g id="Group" transform="translate(5.312500, 42.500000)" fill="#26231E">
                        <path d="M7.4003125,3.6263125 C7.4003125,4.6526875 7.0975,5.44425 6.4929375,6.003125 C5.888375,6.5609375 5.0288125,6.840375 3.9153125,6.840375 L3.2183125,6.840375 L3.2183125,9.8855 L0.7384375,9.8855 L0.7384375,0.7055 L3.916375,0.7055 C5.0755625,0.7055 5.9468125,0.958375 6.528,1.4651875 C7.1091875,1.972 7.4003125,2.692375 7.4003125,3.6263125 Z M3.2183125,4.8195 L3.6709375,4.8195 C4.043875,4.8195 4.33925,4.7143125 4.5591875,4.505 C4.779125,4.2956875 4.8885625,4.0066875 4.8885625,3.6390625 C4.8885625,3.019625 4.545375,2.709375 3.859,2.709375 L3.2183125,2.709375 L3.2183125,4.8195 L3.2183125,4.8195 Z" id="Shape"></path>
                        <path d="M12.0838125,9.8865625 L10.206375,3.274625 L10.1500625,3.274625 C10.23825,4.400875 10.2818125,5.2753125 10.2818125,5.899 L10.2818125,9.8865625 L8.0845625,9.8865625 L8.0845625,0.7065625 L11.3868125,0.7065625 L13.3025,7.2239375 L13.3524375,7.2239375 L15.229875,0.7065625 L18.5395625,0.7065625 L18.5395625,9.8865625 L16.2605,9.8865625 L16.2605,5.8618125 C16.2605,5.6525 16.2636875,5.420875 16.2700625,5.165875 C16.2764375,4.910875 16.3040625,4.284 16.3550625,3.287375 L16.29875,3.287375 L14.4468125,9.8865625 L12.0838125,9.8865625 Z" id="Shape"></path>
                        <path d="M26.3765625,4.0598125 L24.6808125,4.0598125 L24.6808125,9.8855 L23.198625,9.8855 L23.198625,4.0598125 L22.055375,4.0598125 L22.055375,3.3691875 L23.198625,2.9165625 L23.198625,2.4639375 C23.198625,1.64475 23.3909375,1.0359375 23.776625,0.639625 C24.16125,0.244375 24.749875,0.0456875 25.5414375,0.0456875 C26.0599375,0.0456875 26.571,0.13175 27.0735625,0.3028125 L26.6846875,1.421625 C26.32025,1.30475 25.9728125,1.24525 25.642375,1.24525 C25.306625,1.24525 25.0633125,1.349375 24.9103125,1.5565625 C24.7573125,1.76375 24.6808125,2.074 24.6808125,2.488375 L24.6808125,2.941 L26.3765625,2.941 L26.3765625,4.0598125 L26.3765625,4.0598125 Z" id="Shape"></path>
                        <path d="M33.1085625,9.8865625 L32.21075,6.647 C32.102375,6.3038125 31.9058125,5.505875 31.6210625,4.25425 L31.5636875,4.25425 C31.320375,5.38475 31.129125,6.185875 30.9856875,6.65975 L30.0634375,9.8865625 L28.4314375,9.8865625 L26.483875,2.9420625 L27.9915625,2.9420625 L28.876625,6.3654375 C29.076375,7.210125 29.2198125,7.93475 29.3026875,8.5371875 L29.3409375,8.5371875 C29.382375,8.23225 29.446125,7.881625 29.5321875,7.4853125 C29.61825,7.091125 29.692625,6.7946875 29.7553125,6.5970625 L30.810375,2.943125 L32.429625,2.943125 L33.4528125,6.5970625 C33.5165625,6.802125 33.5951875,7.116625 33.6886875,7.5395 C33.78325,7.9613125 33.8395625,8.2906875 33.8555,8.5255 L33.9054375,8.5255 C33.9691875,8.01125 34.11475,7.290875 34.3453125,6.3665 L35.243125,2.943125 L36.726375,2.943125 L34.767125,9.887625 L33.1085625,9.887625 L33.1085625,9.8865625 Z" id="Shape"></path>
                        <path d="M39.5366875,10.013 C38.6718125,10.013 37.995,9.6985 37.5094375,9.0705625 C37.023875,8.4415625 36.7805625,7.56075 36.7805625,6.4270625 C36.7805625,5.289125 37.026,4.4019375 37.5179375,3.767625 C38.009875,3.1333125 38.6909375,2.815625 39.5621875,2.815625 C40.4738125,2.815625 41.16975,3.1524375 41.6468125,3.827125 L41.72225,3.827125 C41.6510625,3.3288125 41.6149375,2.934625 41.6149375,2.6466875 L41.6149375,0.1158125 L43.097125,0.1158125 L43.097125,9.8855 L41.941125,9.8855 L41.6850625,8.976 L41.616,8.976 C41.1431875,9.6676875 40.449375,10.013 39.5366875,10.013 Z M39.933,8.8198125 C40.5396875,8.8198125 40.9816875,8.6498125 41.2579375,8.3076875 C41.5341875,7.9676875 41.6765625,7.4130625 41.6850625,6.6480625 L41.6850625,6.440875 C41.6850625,5.5664375 41.541625,4.944875 41.2579375,4.575125 C40.972125,4.2075 40.5269375,4.022625 39.92025,4.022625 C39.4006875,4.022625 39.0011875,4.233 38.7206875,4.65375 C38.439125,5.0745 38.2999375,5.6748125 38.2999375,6.4525625 C38.2999375,7.222875 38.437,7.809375 38.709,8.213125 C38.981,8.616875 39.389,8.8198125 39.933,8.8198125 Z" id="Shape"></path>
                        <path d="M48.766625,9.8865625 L48.4723125,8.9196875 L48.4213125,8.9196875 C48.0876875,9.3425625 47.7498125,9.6305 47.410875,9.7835 C47.0719375,9.9365 46.6363125,10.013 46.1050625,10.013 C45.421875,10.013 44.8895625,9.828125 44.5070625,9.4594375 C44.1245625,9.09075 43.93225,8.570125 43.93225,7.8954375 C43.93225,7.1793125 44.197875,6.6395625 44.7301875,6.2761875 C45.2614375,5.91175 46.072125,5.7130625 47.160125,5.6790625 L48.3596875,5.6408125 L48.3596875,5.27 C48.3596875,4.8269375 48.2555625,4.4954375 48.048375,4.2744375 C47.8411875,4.0555625 47.5203125,3.944 47.08575,3.944 C46.72875,3.944 46.38875,3.997125 46.0615,4.10125 C45.73425,4.205375 45.4208125,4.3296875 45.1190625,4.4720625 L44.642,3.417 C45.018125,3.2204375 45.4314375,3.070625 45.87875,2.9675625 C46.327125,2.8655625 46.75,2.8135 47.147375,2.8135 C48.0303125,2.8135 48.6965,3.006875 49.147,3.3915 C49.5975,3.776125 49.82275,4.38175 49.82275,5.20625 L49.82275,9.883375 L48.766625,9.883375 L48.766625,9.8865625 Z M46.569375,8.8814375 C47.104875,8.8814375 47.5351875,8.731625 47.85925,8.4330625 C48.184375,8.1334375 48.3469375,7.71375 48.3469375,7.1729375 L48.3469375,6.5705 L47.4544375,6.6076875 C46.7595625,6.6331875 46.2538125,6.7500625 45.93825,6.9561875 C45.621625,7.163375 45.464375,7.4810625 45.464375,7.9081875 C45.464375,8.2184375 45.5568125,8.4585625 45.740625,8.6275 C45.9255,8.7964375 46.2006875,8.8814375 46.569375,8.8814375 Z" id="Shape"></path>
                        <path d="M49.9789375,2.9420625 L51.5865,2.9420625 L52.999625,6.8796875 C53.2131875,7.439625 53.3555625,7.9676875 53.42675,8.46175 L53.4766875,8.46175 C53.513875,8.2311875 53.584,7.9528125 53.683875,7.6234375 C53.78375,7.2940625 54.3160625,5.7343125 55.2786875,2.9420625 L56.8735,2.9420625 L53.90275,10.809875 C53.363,12.2538125 52.464125,12.9763125 51.2029375,12.9763125 C50.87675,12.9763125 50.5590625,12.94125 50.2488125,12.869 L50.2488125,11.7013125 C50.470875,11.75125 50.72375,11.7756875 51.0095625,11.7756875 C51.7214375,11.7756875 52.221875,11.3634375 52.5098125,10.5389375 L52.7669375,9.8855 L49.9789375,2.9420625 Z" id="Shape"></path>
                        <path d="M62.0149375,7.9081875 C62.0149375,8.587125 61.7695,9.1066875 61.2754375,9.469 C60.7803125,9.8313125 60.07375,10.013 59.1525625,10.013 C58.227125,10.013 57.4844375,9.8716875 56.9234375,9.59225 L56.9234375,8.3183125 C57.7394375,8.6944375 58.4980625,8.8825 59.2025,8.8825 C60.1109375,8.8825 60.5656875,8.608375 60.5656875,8.0611875 C60.5656875,7.8848125 60.5146875,7.7381875 60.41375,7.6213125 C60.313875,7.5044375 60.148125,7.38225 59.9175625,7.256875 C59.687,7.1315 59.3671875,6.9880625 58.958125,6.82975 C58.1580625,6.5205625 57.6161875,6.2103125 57.334625,5.9000625 C57.052,5.590875 56.9106875,5.18925 56.9106875,4.6951875 C56.9106875,4.1001875 57.1508125,3.6390625 57.6310625,3.3096875 C58.1091875,2.981375 58.7615625,2.8166875 59.587125,2.8166875 C60.403125,2.8166875 61.1755625,2.9824375 61.9044375,3.312875 L61.4263125,4.42425 C60.6783125,4.1150625 60.0471875,3.9599375 59.5371875,3.9599375 C58.758375,3.9599375 58.3695,4.1809375 58.3695,4.6250625 C58.3695,4.842875 58.4704375,5.0266875 58.673375,5.178625 C58.8763125,5.3295 59.3183125,5.5366875 60.0015,5.8001875 C60.57525,6.02225 60.99175,6.224125 61.251,6.409 C61.51025,6.5928125 61.703625,6.8053125 61.829,7.0465 C61.954375,7.2876875 62.0149375,7.5735 62.0149375,7.9081875 Z" id="Shape"></path>
                    </g>
                    <polygon id="Shape" fill="url(#linearGradient-1)" points="59.1685 14.6486875 46.342 27.4751875 37.3670625 18.5013125 28.392125 27.4751875 14.93025 14.0133125 8.1993125 20.74425 2.7380625 15.283 15.5645625 2.4554375 14.2959375 1.1868125 0.19975 15.283 6.9306875 22.0139375 0.8340625 28.1105625 2.1026875 29.3791875 8.1993125 23.283625 14.2959375 29.3791875 15.5645625 28.1105625 9.469 22.0139375 14.93025 16.5526875 28.392125 30.0145625 37.3670625 21.039625 46.342 30.0145625 60.4381875 15.9173125"></polygon>
                    <circle id="Oval" fill="#EFD911" cx="14.9631875" cy="1.821125" r="1.4588125"></circle>
                    <circle id="Oval" fill="#88B327" cx="1.4694375" cy="15.283" r="1.4588125"></circle>
                    <circle id="Oval" fill="#88B327" cx="14.9631875" cy="15.283" r="1.4588125"></circle>
                    <circle id="Oval" fill="#88B327" cx="59.7465" cy="15.283" r="1.4588125"></circle>
                    <circle id="Oval" fill="#24652D" cx="1.4694375" cy="28.744875" r="1.4588125"></circle>
                    <circle id="Oval" fill="#24652D" cx="28.392125" cy="28.744875" r="1.4588125"></circle>
                    <circle id="Oval" fill="#7FA72A" cx="37.3670625" cy="19.7699375" r="1.45775"></circle>
                    <circle id="Oval" fill="#24652D" cx="46.342" cy="28.744875" r="1.4588125"></circle>
                    <circle id="Oval" fill="#24652D" cx="14.93025" cy="28.744875" r="1.4588125"></circle>
                </g>
            </g>
        </g>
    </g>
</svg>