<?xml version="1.0" encoding="UTF-8"?>
<svg width="290px" height="290px" viewBox="0 0 290 290" version="1.1" xmlns="http://www.w3.org/2000/svg" xmlns:xlink="http://www.w3.org/1999/xlink">
    <!-- Generator: Sketch 46.2 (44496) - http://www.bohemiancoding.com/sketch -->
    <title>docker_big</title>
    <desc>Created with Sketch.</desc>
    <defs></defs>
    <g id="Large" stroke="none" stroke-width="1" fill="none" fill-rule="evenodd">
        <g id="big" transform="translate(-1391.000000, -661.000000)">
            <g id="Group-Copy-15" transform="translate(1391.000000, 661.000000)">
                <rect id="Rectangle-11" x="0" y="0" width="290" height="290"></rect>
                <g id="briefcase-with-stickers" transform="translate(56.000000, 71.000000)" fill-rule="nonzero" fill="#FFFFFF">
                    <path d="M100,9.594 C99.6740947,9.3435 99.3410267,9.144 99,9 C99.3410267,9.144 99.6740947,9.3435 100,9.594 Z" id="Shape"></path>
                    <path d="M103,9.903 C102.674633,9.552 102.3413,9.249 102,9 C102.3413,9.2505 102.674633,9.552 103,9.903 Z" id="Shape"></path>
                    <path d="M104,12 C104.346926,12.3173077 104.680906,12.6508413 105,13 C104.680906,12.6508413 104.346926,12.3179087 104,12 Z" id="Shape"></path>
                    <path d="M71,20 C71.1995,19.6612529 71.408,19.328693 71.63,19 C71.6285,19 71.6285,19 71.6285,19.0007734 C71.408,19.3279196 71.198,19.6620263 71,20 Z" id="Shape"></path>
                    <path d="M100,9.2745 C99.6736322,9.129 99.3404255,9.0375 99,9 C99.3404255,9.0375 99.6736322,9.1305 100,9.2745 Z" id="Shape"></path>
                    <path d="M105,13 C104.677289,12.6409597 104.343955,12.3076264 104,12 C104.344461,12.3067695 104.677289,12.6409597 105,13 Z" id="Shape"></path>
                    <path d="M103,10 C102.675844,9.62578223 102.341918,9.29411765 102,9 C102.341918,9.29286608 102.6754,9.62703379 103,10 Z" id="Shape"></path>
                    <path d="M105,13 C104.677754,12.6447761 104.344602,12.3119403 104,12 C104.344602,12.3119403 104.677754,12.6447761 105,13 Z" id="Shape"></path>
                    <rect id="Rectangle-path" x="110" y="9" width="1" height="1"></rect>
                    <path d="M105,13 C104.679692,12.648505 104.345767,12.3156146 104,12 C104.345767,12.3156146 104.6791,12.648505 105,13 Z" id="Shape"></path>
                    <path d="M103,13 C102.675957,12.6356275 102.341993,12.3016194 102,12 C102.342938,12.3006073 102.675957,12.6346154 103,13 Z" id="Shape"></path>
                    <path d="M68.5985,12.009 C68.6015,12.006 68.603,12.003 68.606,12 C68.402,12.2145 68.1995,12.4275 68,12.645 C68.003,12.642 68.0045,12.639 68.0075,12.6375 C68.2025,12.426 68.399,12.2175 68.5985,12.009 Z" id="Shape"></path>
                    <path d="M68.207,12.0165 C68.213,12.0105 68.219,12.006 68.225,12 C68.1515,12.069 68.0735,12.132 68,12.201 C68.0015,12.1995 68.003,12.198 68.0045,12.1965 C68.0705,12.135 68.141,12.078 68.207,12.0165 Z" id="Shape"></path>
                    <path d="M74.3705,6 C74.2445,6.045 74.1245,6.1005 74,6.147 L74,6.147 C74.1245,6.1005 74.2445,6.0435 74.3705,6 Z" id="Shape"></path>
                    <path d="M65.4935,12.0105 C65.4965,12.0075 65.4995,12.003 65.5025,12 C65.3345,12.2295 65.1635,12.4605 65,12.6945 C65.0015,12.6915 65.003,12.6885 65.0045,12.6855 C65.165,12.4575 65.3315,12.2355 65.4935,12.0105 Z" id="Shape"></path>
                    <path d="M65.1845,12.006 C65.186,12.0045 65.189,12.003 65.1905,12 C65.1245,12.0795 65.0645,12.1605 65,12.2385 C65.006,12.2325 65.012,12.225 65.0165,12.2175 C65.0735,12.15 65.1275,12.0765 65.1845,12.006 Z" id="Shape"></path>
                    <path d="M68.651,9.006 C68.6525,9.0045 68.6555,9.003 68.6585,9 C68.4365,9.1785 68.2175,9.36 68,9.5415 C68.003,9.5385 68.006,9.5355 68.009,9.5325 C68.222,9.357 68.4335,9.18 68.651,9.006 Z" id="Shape"></path>
                    <path d="M71.705,9.0015 C71.705,9 71.7065,9 71.708,9 C71.4725,9.12 71.2355,9.2355 71,9.3585 C71.0015,9.3585 71.0015,9.3585 71.003,9.3585 C71.2355,9.2355 71.471,9.12 71.705,9.0015 Z" id="Shape"></path>
                    <path d="M71.513,9.0075 C71.516,9.0045 71.519,9.003 71.522,9 C71.3495,9.1215 71.1725,9.2355 71,9.3585 C71.0015,9.357 71.0015,9.357 71.003,9.357 C71.1725,9.2385 71.345,9.1245 71.513,9.0075 Z" id="Shape"></path>
                    <path d="M74.435,6 C74.435,6 74.435,6 74.4365,6 C74.288,6.063 74.147,6.1335 74,6.198 C74.0015,6.198 74.003,6.1965 74.0045,6.1965 C74.1485,6.132 74.291,6.063 74.435,6 Z" id="Shape"></path>
                    <path d="M71.6165,9.0015 C71.6165,9.0015 71.618,9 71.6195,9 C71.4095,9.126 71.207,9.258 71,9.3855 C71.0015,9.3855 71.0045,9.384 71.006,9.3825 C71.2085,9.2565 71.4095,9.126 71.6165,9.0015 Z" id="Shape"></path>
                    <path d="M110.7485,20 C110.5415,19.6588067 110.291,19.3254734 110,19 C110.291,19.3254734 110.5415,19.6588067 110.7485,20 Z" id="Shape"></path>
                    <path d="M113,15 C113.1305,15.2655 113.2625,15.531 113.39,15.7995 C113.2625,15.531 113.1305,15.2655 113,15 Z" id="Shape"></path>
                    <path d="M113,15 C113.075,15.1395 113.153,15.2775 113.2265,15.417 C113.153,15.276 113.075,15.138 113,15 Z" id="Shape"></path>
                    <path d="M110,12 C110.0105,12.012 110.021,12.024 110.0315,12.0345 C110.021,12.024 110.0105,12.012 110,12 Z" id="Shape"></path>
                    <path d="M113,15 C113.147,15.3338301 113.294,15.6646796 113.4365,16 C113.294,15.6646796 113.147,15.3338301 113,15 Z" id="Shape"></path>
                    <path d="M113,19 C113.1515,19.3324709 113.2985,19.6662354 113.444,20 C113.2985,19.6662354 113.1515,19.3324709 113,19 Z" id="Shape"></path>
                    <path d="M110,12 C110.015,12.015 110.0285,12.03 110.042,12.0435 C110.03,12.0285 110.015,12.0135 110,12 Z" id="Shape"></path>
                    <path d="M107,9 C107.003,9.0015 107.006,9.003 107.0075,9.0045 C107.006,9.003 107.003,9.0015 107,9 Z" id="Shape"></path>
                    <path d="M116,19 C116.15,19.3314088 116.2925,19.665127 116.432,20 C116.2925,19.6662818 116.15,19.3325635 116,19 Z" id="Shape"></path>
                    <path d="M110,9 C110.003,9.0015 110.0045,9.003 110.006,9.006 C110.0045,9.003 110.003,9.0015 110,9 Z" id="Shape"></path>
                    <path d="M116,22 C116.1875,22.3312883 116.3585,22.6636921 116.5085,23 C116.3585,22.6642499 116.1875,22.3312883 116,22 Z" id="Shape"></path>
                    <path d="M116,19 C116.1455,19.330587 116.279,19.6652935 116.4125,20 C116.279,19.6652935 116.1455,19.330587 116,19 Z" id="Shape"></path>
                    <path d="M108,16 C107.688347,15.6556759 107.353207,15.3226566 107,15 C107.353207,15.3226566 107.688347,15.6556759 108,16 Z" id="Shape"></path>
                    <path d="M108,20 C107.7,19.6575062 107.362963,19.3244463 107,19 C107.364198,19.3244463 107.7,19.6579163 108,20 Z" id="Shape"></path>
                    <path d="M108,16 C107.684757,15.6538071 107.351157,15.3213198 107,15 C107.351955,15.3213198 107.685555,15.6548223 108,16 Z" id="Shape"></path>
                    <path d="M108,16 C107.692708,15.6564148 107.358333,15.3233743 107,15 C107.358333,15.3233743 107.692708,15.6564148 108,16 Z" id="Shape"></path>
                    <path d="M116,19 C116.144,19.3309859 116.2745,19.665493 116.402,20 C116.273,19.6646127 116.144,19.3309859 116,19 Z" id="Shape"></path>
                    <path d="M108,16 C107.683119,15.6527243 107.34907,15.3197578 107,15 C107.34907,15.3192075 107.683119,15.6527243 108,16 Z" id="Shape"></path>
                    <path d="M107.9855,20 C107.699,19.6577335 107.3675,19.3250383 107,19 C107.3675,19.3246554 107.699,19.6577335 107.9855,20 Z" id="Shape"></path>
                    <path d="M65.33,15.006 C65.33,15.0045 65.3315,15.0015 65.333,15 C65.219,15.183 65.111,15.3705 65,15.555 C65.0015,15.5505 65.0045,15.546 65.0075,15.5415 C65.1155,15.3645 65.2175,15.183 65.33,15.006 Z" id="Shape"></path>
                    <path d="M65.3225,15.006 C65.324,15.003 65.324,15.0015 65.3255,15 C65.2145,15.2475 65.108,15.498 65,15.747 C65.0015,15.744 65.003,15.7425 65.003,15.7395 C65.111,15.495 65.213,15.249 65.3225,15.006 Z" id="Shape"></path>
                    <polygon id="Shape" points="85 67.9723636 85.1169936 68 88 62"></polygon>
                    <path d="M62.2415,19.0015 C62.2415,19.0015 62.2415,19 62.243,19 C62.159,19.2835 62.081,19.5685 62,19.8535 C62,19.852 62.0015,19.852 62.0015,19.852 C62.0795,19.5685 62.159,19.2835 62.2415,19.0015 Z" id="Shape"></path>
                    <path d="M65.174,19.0105 C65.1755,19.0075 65.177,19.003 65.177,19 C65.12,19.156 65.0555,19.3105 65,19.4665 L65,19.465 C65.0555,19.312 65.117,19.1635 65.174,19.0105 Z" id="Shape"></path>
                    <path d="M65.348,15.0135 C65.3495,15.009 65.3525,15.0045 65.354,15 C65.237,15.219 65.1155,15.435 65,15.6555 C65.0015,15.654 65.0015,15.651 65.003,15.6495 C65.1155,15.435 65.234,15.225 65.348,15.0135 Z" id="Shape"></path>
                    <path d="M166,28 C166.347595,28.3039164 166.681754,28.6381201 167,29 C166.681754,28.6381201 166.347949,28.3033943 166,28 Z" id="Shape"></path>
                    <path d="M169,31 C169.340854,31.3219512 169.675262,31.6556098 170,32 C169.67365,31.6546341 169.340854,31.3219512 169,31 Z" id="Shape"></path>
                    <path d="M159,28 C159.335664,28 159.668415,28.036 160,28.087 C159.668998,28.0345 159.336247,28 159,28 Z" id="Shape"></path>
                    <path d="M163,28 C163.340238,28.235905 163.674079,28.5712166 164,29 C163.673774,28.5727003 163.340238,28.235905 163,28 Z" id="Shape"></path>
                    <path d="M166,28 C166.343385,28.2864782 166.677043,28.6210848 167,29 C166.677043,28.6210848 166.343061,28.2864782 166,28 Z" id="Shape"></path>
                    <path d="M169,31 C169.345356,31.3251488 169.67899,31.6584821 170,32 C169.678088,31.6584821 169.344454,31.3244048 169,31 Z" id="Shape"></path>
                    <path d="M163,28 C163.336269,28.1815 163.670136,28.3765 164,28.585 C163.670136,28.3765 163.33707,28.1815 163,28 Z" id="Shape"></path>
                    <path d="M166,28 C166.338608,28.3193033 166.672468,28.6502177 167,29 C166.672468,28.6502177 166.338608,28.3164006 166,28 Z" id="Shape"></path>
                    <path d="M163,28 C163.335981,28.0495 163.668785,28.114 164,28.192 C163.668785,28.1155 163.335981,28.051 163,28 Z" id="Shape"></path>
                    <path d="M169,31 C169.36391,31.3176431 169.697744,31.6518794 170,32 C169.697243,31.6518794 169.363409,31.3179817 169,31 Z" id="Shape"></path>
                    <path d="M170,32 C169.687677,31.6464891 169.353535,31.3123487 169,31 C169.353939,31.3127522 169.688081,31.6464891 170,32 Z" id="Shape"></path>
                    <path d="M69,9 C68.9995047,9 68.9995047,9 68.9990094,9.00065445 C68.658742,9.31937173 68.3273898,9.65314136 68.0024765,9.9973822 C68.0014859,9.9986911 68.0004953,9.99934555 68,10 C68.3259039,9.65445026 68.658742,9.32002618 69,9 Z" id="Shape"></path>
                    <path d="M110.944578,12.9412686 C110.936546,12.9334377 110.929317,12.9256069 110.922088,12.9185591 C110.620884,12.6068912 110.313253,12.3007048 110,12 C110.340562,12.3265466 110.673092,12.660924 111,13 C110.980723,12.981206 110.963855,12.9600626 110.944578,12.9412686 Z" id="Shape"></path>
                    <path d="M69,12 C68.9988173,12.0005211 68.9982259,12.0015633 68.9970432,12.0026055 C68.655825,12.3267327 68.3217031,12.656592 68.0023655,12.9979156 C68.0017741,12.9989578 68.0005914,12.9994789 68,13 C68.3217031,12.6571131 68.6570077,12.3256905 69,12 Z" id="Shape"></path>
                    <path d="M66,12 C65.9979689,12.0026001 65.9952607,12.0052002 65.9925525,12.0072803 C65.6506432,12.3291732 65.3229519,12.6599064 65.0040623,12.9963599 C65.0027082,12.9973999 65.0013541,12.99896 65,13 C65.3222749,12.6593864 65.6540284,12.325533 66,12 Z" id="Shape"></path>
                    <path d="M69,9 C68.9989071,9.00125865 68.9978142,9.00251731 68.9967213,9.00377596 C68.6590164,9.32410321 68.3278689,9.65198238 68.0065574,9.99307741 C68.0043716,9.99559471 68.0021858,9.99748269 68,10 C68.3251366,9.65575834 68.6595628,9.32347388 69,9 Z" id="Shape"></path>
                    <path d="M69,12 C68.9994487,12.0005549 68.9988975,12.0011099 68.9983462,12.0016648 C68.6560088,12.3224195 68.3257993,12.6564928 68.0027563,12.9966704 C68.0016538,12.9977802 68.0011025,12.9988901 68,13 C68.3246968,12.6581576 68.6560088,12.3224195 69,12 Z" id="Shape"></path>
                    <path d="M66,15 C65.9982441,15.0015075 65.9964881,15.0030151 65.9956102,15.0045226 C65.6496927,15.3291457 65.3195786,15.659799 65.0035119,15.9954774 C65.0026339,15.9969849 65.000878,15.9984925 65,16 C65.3178227,15.660804 65.6514486,15.3271357 66,15 Z" id="Shape"></path>
                    <path d="M63,19 L63,19 C62.6342072,19.3288727 62.3058677,19.6626115 62.0012484,19.9995945 C62,19.9995945 62,20 62,20 C62.3058677,19.6626115 62.6354557,19.3288727 63,19 Z" id="Shape"></path>
                    <path d="M62.963,19.000388 C62.609,19.3302289 62.2775,19.6623981 62,20 C62.276,19.6623981 62.6075,19.3294529 62.9645,19 C62.966,19 62.963,19 62.963,19.000388 Z" id="Shape"></path>
                    <path d="M66,15 C65.9991007,15.0004363 65.9991007,15.0013089 65.9982014,15.0017452 C65.6456835,15.3280977 65.3138489,15.6609948 65.0017986,15.9982548 C65.0008993,15.9986911 65.0008993,15.9991274 65,16 C65.3129496,15.6609948 65.6465827,15.3276614 66,15 Z" id="Shape"></path>
                    <path d="M72,9 C71.9994775,9.00079554 71.9984326,9.00159109 71.9979101,9.00159109 C71.6603971,9.31980907 71.3286311,9.65155131 71.0031348,9.99602228 C71.0020899,9.99761337 71.0010449,9.99840891 71,10 C71.3270637,9.6531424 71.6609195,9.32060461 72,9 Z" id="Shape"></path>
                    <path d="M66,15 C66,15.0009137 65.9988662,15.0013705 65.9977324,15.0022841 C65.6451247,15.3293741 65.3117914,15.6605756 65.0022676,15.9968022 C65.0022676,15.9977159 65.0011338,15.9990863 65,16 C65.3106576,15.6614893 65.6462585,15.3289173 66,15 Z" id="Shape"></path>
                    <path d="M66,12 C65.9992883,12.0009474 65.9985765,12.0018948 65.9978648,12.0028423 C65.6519573,12.327333 65.3181495,12.6589294 65.0014235,12.9981052 C65.0007117,12.9985789 65,12.9995263 65,13 C65.3181495,12.6594031 65.6533808,12.3263856 66,12 Z" id="Shape"></path>
                    <path d="M71,20 C71.0015,19.9954163 71.0045,19.9915966 71.0075,19.987013 C71.207,19.6531704 71.4155,19.3239114 71.636,19 C71.1905,19.328495 71.0105,19.6623377 71,20 Z" id="Shape"></path>
                    <path d="M113,12 C113.338798,12.329918 113.672131,12.6618852 114,13 C113.672131,12.6618852 113.338798,12.329918 113,12 Z" id="Shape"></path>
                    <path d="M110,12 C110.338501,12.3301587 110.674419,12.6624339 111,13 C110.674419,12.6624339 110.338501,12.3291005 110,12 Z" id="Shape"></path>
                    <path d="M110.83524,12.8231084 C110.827231,12.8149284 110.819222,12.807771 110.811213,12.799591 C110.545767,12.5276074 110.271167,12.2648262 110,12 C110.337529,12.3292434 110.672769,12.6615542 111,13 C110.943936,12.9417178 110.89016,12.8813906 110.83524,12.8231084 Z" id="Shape"></path>
                    <path d="M72,6 C71.9995301,6 71.9990602,6.00098522 71.9985902,6.00098522 C71.6607143,6.31428571 71.3284774,6.64827586 71.0009398,6.99901478 C71.0004699,6.99901478 71,6.99901478 71,7 C71.3284774,6.64926108 71.6616541,6.31428571 72,6 Z" id="Shape"></path>
                    <path d="M75,6 L75,6 C74.6620891,6.30979979 74.3283396,6.63962065 74.0004161,7 C74,7 74,7 74,7 C74.3275073,6.64067439 74.6616729,6.30979979 75,6 Z" id="Shape"></path>
                    <path d="M111,10 C110.673178,9.65892714 110.339594,9.32586069 110,9 L110,9 C110.339594,9.32586069 110.673178,9.65972778 111,10 Z" id="Shape"></path>
                    <path d="M72,9 C71.9995483,9 71.9995483,9 71.9990967,9 C71.6603433,9.31676022 71.3274616,9.64955894 71.0009033,9.99919808 C71.0004517,9.99919808 71,10 71,10 C71.3265583,9.64955894 71.6603433,9.31676022 72,9 Z" id="Shape"></path>
                    <path d="M110,10 C109.684798,9.88051795 109.364017,9.76397881 109.036262,9.65008829 C109.035565,9.64949971 109.034868,9.64920541 109.033473,9.64891112 C108.706416,9.5350206 108.374477,9.42407298 108.035565,9.31606828 C108.034868,9.31577398 108.033473,9.31547969 108.032078,9.3151854 C107.693863,9.20718069 107.349372,9.1018246 107,9 C108.050209,9.30665097 109.052999,9.64096527 110,10 L110,10 Z" id="Shape"></path>
                    <path d="M40,37 C38.3431429,37 37,38.340572 37,39.9942578 L37,133.005742 C37,134.659428 38.3431429,136 40,136 C41.6568571,136 43,134.659428 43,133.005742 L43,39.9942578 C43,38.340572 41.6568571,37 40,37 Z" id="Shape"></path>
                    <path d="M138,37 C136.343143,37 135,38.340572 135,39.9942578 L135,133.005742 C135,134.659428 136.343143,136 138,136 C139.656857,136 141,134.659428 141,133.005742 L141,39.9942578 C141,38.340572 139.657286,37 138,37 Z" id="Shape"></path>
                    <path d="M98.8441372,95.5926661 C98.6031912,93.9322421 97.0931506,92.7860588 95.4755524,93.033624 L53.5280972,99.4425217 C51.9092286,99.6896525 50.7917308,101.236283 51.0326767,102.897142 L54.1548106,124.407081 C54.2704138,125.204935 54.6909047,125.92244 55.3226996,126.402803 C55.8363505,126.792827 56.4554418,127 57.0868132,127 C57.2324818,127 57.3785737,126.989142 57.5233954,126.966991 L99.4725444,120.558094 C100.250008,120.439523 100.949556,120.008673 101.417897,119.36066 C101.885815,118.712647 102.083568,117.900894 101.967541,117.103039 L98.8441372,95.5926661 Z M57.3332641,105.008829 L71.9157849,102.780743 L74.1270671,118.282666 L59.5826572,120.504672 L57.3332641,105.008829 Z M79.9906489,117.387088 L77.7793667,101.885165 L93.416714,99.496378 L95.6673775,114.992655 L79.9906489,117.387088 Z" id="Shape"></path>
                    <path d="M128.023342,55.9375024 L90.3383098,43.1567054 C89.6045278,42.9077932 88.8005036,42.9569151 88.1026791,43.2933388 C87.4052727,43.6301753 86.8717651,44.2262437 86.6196452,44.9511025 L79.1589019,66.3926418 C78.9063639,67.1175006 78.956537,67.9117082 79.2972961,68.6002415 C79.6380552,69.2887749 80.2422233,69.8154946 80.9764233,70.0644068 L118.663546,82.8423143 C118.978382,82.9492269 119.299072,83 119.614327,83 C120.829352,83 121.965355,82.2466587 122.38221,81.0479172 L129.840445,59.6084419 C130.36559,58.0992824 129.55195,56.4555536 128.023342,55.9375024 Z M85.7152747,65.5604576 L85.6462866,65.5365158 L87.4153073,60.4521842 L91.2050504,49.560726 L91.2175937,49.5652666 L98.2945126,51.9648136 L98.1172342,52.4316788 L92.2875356,67.7886968 L85.7152747,65.5604576 Z M117.796805,76.437881 L97.8253939,69.6668903 L103.831953,53.8438327 L103.848259,53.8491989 L123.353478,60.4641551 L117.796805,76.437881 Z" id="Shape"></path>
                    <path d="M160.349632,21.0125551 L121.836899,21.0125551 C120.459124,9.20159828 110.321552,0 98.0531963,0 L79.9463819,0 C67.6771822,0 57.5396104,9.20159828 56.1622573,21.0125551 L17.6499466,21.0125551 C7.91819826,21.0125551 0,28.8674147 0,38.5226688 L0,129.490305 C0,139.14514 7.91819826,147 17.6499466,147 L160.350053,147 C170.081802,147 178,139.14514 178,129.490305 L178,38.5226688 C177.999578,28.8674147 170.081802,21.0125551 160.349632,21.0125551 Z M62.2951698,20.0395385 C62.3727909,19.6754419 62.4660206,19.3167859 62.566,18.9614779 C62.5887801,18.8819626 62.6107165,18.8024472 62.6343403,18.7233504 C62.7372727,18.3755754 62.8482203,18.0311485 62.9718235,17.6921621 C62.9874321,17.6486379 63.0055718,17.6059507 63.0216022,17.562008 C63.1363465,17.2544092 63.2607934,16.9505769 63.39199,16.6509297 C63.4223635,16.5814584 63.4523151,16.5115686 63.4835323,16.4425158 C63.6303375,16.1190139 63.7860016,15.7996971 63.9509464,15.4866578 C63.9834292,15.4255565 64.0175994,15.3652923 64.050504,15.3037725 C64.2023714,15.0242133 64.3609885,14.7492577 64.5271989,14.478487 C64.5584161,14.4270113 64.5883677,14.3746986 64.6208505,14.3236414 C64.8085755,14.0239941 65.006425,13.7314614 65.211446,13.4443692 C65.2574281,13.3790829 65.3055194,13.3146336 65.3527671,13.2506028 C65.5514603,12.9798322 65.7556376,12.7136651 65.9686738,12.4546125 C65.9868135,12.4328504 66.0036877,12.4102513 66.0222492,12.3880707 C66.2500504,12.1139521 66.487976,11.8490404 66.7318075,11.5887323 C66.788336,11.5280496 66.8452863,11.4686223 66.9022365,11.4087766 C67.1494429,11.152235 67.4017116,10.9002969 67.6641047,10.6584029 C67.6847756,10.6391518 67.706712,10.6215748 67.7273828,10.6023237 C67.9754329,10.3754957 68.2306546,10.1574563 68.4917821,9.94443891 C68.552951,9.8938002 68.6145416,9.84316148 68.676976,9.79335977 C68.9532903,9.57364635 69.2359325,9.36021045 69.5257461,9.15598159 C69.5738375,9.12166444 69.6236162,9.08985831 69.6725513,9.05595966 C69.9353663,8.8747484 70.2032435,8.70023317 70.4757612,8.53283246 C70.533977,8.49725981 70.5909273,8.46043165 70.6499868,8.42527751 C70.9549872,8.24239224 71.2658936,8.068714 71.582284,7.90382431 C71.6480932,7.86950716 71.7147462,7.83728253 71.7813991,7.80380239 C72.0754313,7.65523426 72.373682,7.51294366 72.676995,7.3798601 C72.7183367,7.36186453 72.7579909,7.34219494 72.7997545,7.32461787 C73.1321754,7.18149026 73.4709241,7.05049921 73.8130476,6.92745969 C73.8480615,6.91490464 73.8818098,6.89900157 73.9172455,6.88644652 C74.3070386,6.74875944 74.7027375,6.62446442 75.1043425,6.51314295 C75.3608297,6.44157915 75.6202698,6.37629287 75.8818193,6.31644712 C76.4044963,6.19633711 76.9360323,6.0992447 77.4747397,6.02558839 C78.2830118,5.91552243 79.1081581,5.85818769 79.9468037,5.85818769 L98.0536181,5.85818769 C98.3932105,5.85818769 98.72985,5.87074274 99.0652238,5.88915682 C99.1622502,5.89459734 99.2588548,5.90171187 99.3554593,5.9088264 C99.6089935,5.92724048 99.8608403,5.95025808 100.111422,5.9787162 C100.200433,5.98876024 100.289866,5.99754878 100.378033,6.00884832 C100.707501,6.051117 101.035282,6.10008171 101.358844,6.15992746 C101.384577,6.16453098 101.409888,6.17039 101.435621,6.17583053 C101.735559,6.23232826 102.032544,6.29761454 102.326998,6.36875984 C102.410947,6.38926643 102.494474,6.41102852 102.578423,6.43237211 C102.836176,6.49891389 103.092663,6.57047769 103.346198,6.64790052 C103.408632,6.6671516 103.471488,6.68514717 103.533501,6.70481676 C103.852,6.80567568 104.166703,6.91406764 104.477188,7.03166663 C104.497859,7.04003667 104.518108,7.04882521 104.538779,7.05677674 C104.826483,7.1672612 105.109969,7.2856972 105.390502,7.40999223 C105.449983,7.43635784 105.508621,7.46314195 105.568102,7.48992606 C105.843573,7.6163136 106.116512,7.74772315 106.384811,7.88708424 C106.405904,7.89754678 106.426997,7.90800933 106.447668,7.91847187 C106.753934,8.07917655 107.054715,8.24783276 107.350857,8.424859 C107.355497,8.42778852 107.359294,8.43071803 107.363934,8.43322904 C107.645311,8.60230375 107.921203,8.780167 108.192455,8.96347077 C108.223673,8.98481436 108.255312,9.00657646 108.286951,9.02750154 C108.4983,9.17272166 108.706695,9.32254529 108.911295,9.47571693 C108.912138,9.47613544 108.912982,9.47655394 108.913404,9.47697244 C109.118003,9.63056259 109.319227,9.78833775 109.517077,9.95029793 C109.51792,9.95071644 109.518342,9.95113494 109.518764,9.95197194 C109.717036,10.1139321 109.911088,10.2796588 110.101766,10.4495705 C110.102188,10.449989 110.10261,10.4504075 110.103032,10.450826 C110.29371,10.6211563 110.481013,10.795253 110.664519,10.9735347 C110.673378,10.9823233 110.681815,10.9902748 110.690253,10.9990634 C110.855197,11.159768 111.016346,11.3229837 111.174541,11.4899659 C111.178759,11.4941509 111.182978,11.498336 111.186353,11.5021025 C111.196055,11.5121465 111.205336,11.5234461 111.215039,11.5334901 C111.260177,11.5816178 111.30405,11.6314195 111.348767,11.6803842 C111.448746,11.7887762 111.550413,11.8967496 111.647861,12.0076526 C111.650814,12.0110006 111.653767,12.0143486 111.65672,12.0172781 C111.677391,12.0411327 111.697218,12.0654058 111.717889,12.0892604 C111.770199,12.1499432 111.821243,12.211463 111.872709,12.2725642 C111.983235,12.4031368 112.092917,12.5345463 112.199224,12.6680484 C112.251112,12.7324977 112.301313,12.7986209 112.351935,12.8639072 C112.456555,12.9986648 112.559487,13.1342594 112.660732,13.2723649 C112.682669,13.3020786 112.704183,13.3326292 112.725276,13.3623428 C113.18594,13.9993025 113.606107,14.6663943 113.980713,15.3615257 C114.001806,15.4004464 114.023742,15.4389486 114.044413,15.4778692 C114.122878,15.6260189 114.197124,15.7766795 114.271371,15.9273401 C114.308072,16.0014149 114.345195,16.0754897 114.381053,16.1504016 C114.445174,16.2855776 114.506765,16.4220092 114.567512,16.5584408 C114.608854,16.6521852 114.650195,16.7450926 114.690272,16.8392555 C114.744269,16.96648 114.796157,17.094123 114.847201,17.2230216 C114.889808,17.3305765 114.93115,17.43855 114.97207,17.5465234 C115.017208,17.667052 115.061503,17.7884175 115.10411,17.9102015 C115.146296,18.0303115 115.18595,18.1512585 115.225604,18.272624 C115.263149,18.386875 115.300272,18.501126 115.335286,18.616214 C115.376206,18.750553 115.413751,18.8865661 115.451296,19.0225792 C115.480404,19.1280416 115.510777,19.2326671 115.537776,19.3389665 C115.578274,19.4963232 115.614975,19.6553538 115.650833,19.8143845 C115.671082,19.9018514 115.693018,19.9888997 115.711158,20.0767851 C115.76389,20.3253752 115.811981,20.5748022 115.854167,20.8271588 L109.419629,20.8271588 C109.361413,20.4274896 109.290963,20.0370274 109.209123,19.6557723 C109.207014,19.6465653 109.205327,19.6365213 109.203217,19.6273142 C109.122643,19.2531736 109.029414,18.8890771 108.926059,18.5341876 C108.921419,18.5191215 108.917201,18.5032185 108.912982,18.4877339 C108.810471,18.1382849 108.695727,17.7984615 108.57128,17.4674266 C108.564109,17.4490125 108.558203,17.4297615 108.551031,17.4109289 C108.426584,17.0836605 108.291169,16.7664362 108.146052,16.4584189 C108.137193,16.4387493 108.128334,16.4186612 108.119475,16.3989916 C107.973935,16.0930668 107.817427,15.7971861 107.652482,15.5105124 C107.641936,15.4920983 107.63139,15.4728472 107.620843,15.4540146 C107.454211,15.1690149 107.277876,14.8944778 107.09226,14.6295662 C107.080448,14.6124076 107.068637,14.594412 107.056403,14.5772534 C106.869522,14.3131788 106.672516,14.0599853 106.466651,13.8168357 C106.454417,13.8021882 106.441762,13.7871221 106.429528,13.7724745 C106.221554,13.529325 106.003877,13.2970565 105.777764,13.0760876 C105.765952,13.0643696 105.753296,13.0518145 105.741062,13.039678 C105.512417,12.818709 105.274914,12.6086211 105.028551,12.4098328 C105.017161,12.4006258 105.005771,12.3910002 104.994381,12.3822117 C104.745065,12.1830048 104.487312,11.9963531 104.220701,11.8214193 C104.210576,11.8143048 104.20003,11.8076088 104.189484,11.8004942 C103.919919,11.625142 103.642339,11.4619263 103.355478,11.3121027 C103.347041,11.3074992 103.338604,11.3033141 103.330167,11.2987106 C103.040775,11.14805 102.742946,11.0099444 102.437102,10.8852309 C102.429931,10.8827199 102.423603,10.8797904 102.416431,10.8768608 C102.108056,10.7521473 101.791244,10.6408258 101.466416,10.5424779 C101.461354,10.5412224 101.456714,10.5395484 101.451652,10.5382929 C101.124293,10.4403635 100.788919,10.3558261 100.44553,10.2863548 C100.442577,10.2859363 100.439624,10.2850993 100.437093,10.2846808 C100.091594,10.214791 99.7385027,10.1591303 99.3769739,10.1189541 C99.3761302,10.1185356 99.3748646,10.1185356 99.3735991,10.1185356 C99.0112265,10.077941 98.6412606,10.0524124 98.2632795,10.0419498 L98.2632795,10.0419498 C98.1396763,10.0386018 98.0160731,10.0339983 97.8907825,10.0339983 L80.1104831,10.0339983 C79.8151853,10.0339983 79.5257935,10.0465533 79.2397766,10.0645489 C79.1883104,10.0678969 79.1360005,10.0704079 79.0849562,10.0741745 C78.8107511,10.0950995 78.5407646,10.1239762 78.2749966,10.1616413 C78.2252179,10.1687559 78.1762828,10.1767074 78.126504,10.1842404 C77.852299,10.2260906 77.5814688,10.2742183 77.3169663,10.3336455 C77.3135915,10.3344826 77.3102167,10.3353196 77.3072637,10.3361566 C77.0427613,10.3960023 76.7845867,10.4667291 76.5293651,10.5433149 C76.4884452,10.5554515 76.4475254,10.5671695 76.4070274,10.5797246 C76.1589773,10.6579844 75.9164113,10.7441958 75.6784857,10.8375217 C75.6388314,10.8530062 75.599599,10.8693278 75.5607884,10.8852309 C75.0659538,11.0873672 74.5926337,11.3238207 74.1420937,11.5933359 C74.1155169,11.6088204 74.0893619,11.6238865 74.063207,11.6397896 C73.8425774,11.7745471 73.6278537,11.9176747 73.4186142,12.0687539 C73.3920374,12.0880049 73.3663043,12.1068375 73.3397275,12.1260886 C72.9069054,12.4445684 72.4985508,12.7956914 72.1171948,13.179876 C72.104961,13.1920126 72.0923054,13.2041491 72.0800717,13.2167042 C71.891503,13.408378 71.7096839,13.6092589 71.5337708,13.8168357 C71.5190059,13.8348313 71.5038192,13.8528269 71.4886325,13.8708225 C71.1283692,14.3022978 70.7963702,14.7664162 70.4951665,15.2619223 C70.4926353,15.2665258 70.4892605,15.2707109 70.4867294,15.2753144 C70.3369712,15.5222304 70.1952283,15.777098 70.0602351,16.0394986 C70.0522198,16.0549832 70.0442046,16.0713047 70.0361894,16.0867893 C69.7636717,16.6224716 69.5219494,17.1887044 69.3143973,17.785488 C69.2523848,17.9633512 69.1933252,18.143307 69.1372187,18.3266107 C69.1363749,18.3291217 69.1355312,18.3312143 69.1351094,18.3337253 C68.8950745,19.1188346 68.7081932,19.9499791 68.5812152,20.8259033 L62.1445679,20.8259033 C62.1892844,20.5639212 62.2390632,20.3006836 62.2951698,20.0395385 Z M103.468535,21.0125551 L74.5331523,21.0125551 C75.0330492,18.4747604 76.4424632,15.895534 80.1109049,15.895534 L97.8912043,15.895534 C101.559224,15.8951155 102.96906,18.4743419 103.468535,21.0125551 Z M5.90595501,97.6753821 L18.2645877,93.6531617 L19.9098181,98.6756013 L24.328738,112.16475 L5.90595501,118.16188 L5.90595501,97.6753821 Z M172.093623,129.490305 C172.093623,135.914725 166.825511,141.140975 160.349632,141.140975 L21.8684859,141.140975 L17.6499466,141.140975 C11.1740669,141.140975 5.90595501,135.914307 5.90595501,129.490305 L5.90595501,124.328504 L10.1244943,122.9554 L28.9678656,116.821001 C30.5143821,116.317543 31.3585119,114.667809 30.855662,113.131908 L22.9657279,89.0479683 C22.7235838,88.3076387 22.1937352,87.6936966 21.4943014,87.3408996 C20.7948676,86.9885211 19.9823769,86.9270013 19.236961,87.1697324 L10.1244943,90.1360729 L5.90595501,91.5091771 L5.90595501,38.5226688 C5.90595501,32.0978298 11.1740669,26.8715797 17.6499466,26.8715797 L160.350053,26.8715797 C160.593041,26.8715797 160.83392,26.8816238 161.073955,26.8958528 C161.144404,26.9004564 161.21401,26.9063154 161.283616,26.9117559 C161.46206,26.9255665 161.638817,26.943562 161.81473,26.9653241 C161.882227,26.9741127 161.949724,26.9816457 162.016798,26.9912712 C162.488009,27.057813 162.950361,27.1528129 163.401745,27.2733414 C163.460382,27.288826 163.517755,27.3059846 163.57597,27.3223061 C163.753571,27.3729449 163.929062,27.4273501 164.102866,27.4855218 C164.155598,27.5035174 164.208751,27.520676 164.261483,27.5390901 C164.708226,27.6960282 165.142314,27.879332 165.562481,28.0869089 C165.601291,28.1057414 165.639258,28.1258295 165.677647,28.1454991 C165.8582,28.237151 166.036223,28.3329879 166.21087,28.4338468 C166.242931,28.4522609 166.274992,28.4702565 166.307053,28.4886706 C166.721735,28.7318201 167.120387,29.0000797 167.500056,29.2901014 C167.518195,29.303912 167.535913,29.3181411 167.554053,29.3323701 C167.732919,29.4704757 167.907145,29.6136033 168.077574,29.7613344 C168.089807,29.7722155 168.102463,29.782678 168.114697,29.7931406 C168.483819,30.1170609 168.83227,30.4635804 169.158785,30.8301879 C169.163004,30.8356285 169.167644,30.840232 169.171863,30.8456725 C169.333433,31.0285578 169.489519,31.2160466 169.639699,31.4081389 C169.640964,31.4102314 169.642652,31.4123239 169.644339,31.4144164 C169.950605,31.806971 170.23156,32.2200323 170.485938,32.6502521 C170.485938,32.6506706 170.48636,32.6510891 170.486782,32.6519261 C171.506402,34.3774089 172.094045,36.3832878 172.094045,38.5239244 L172.094045,129.490305 L172.093623,129.490305 Z" id="Shape"></path>
                </g>
            </g>
        </g>
    </g>
</svg>