<?xml version="1.0" encoding="UTF-8"?>
<svg width="92px" height="92px" viewBox="0 0 92 92" version="1.1" xmlns="http://www.w3.org/2000/svg" xmlns:xlink="http://www.w3.org/1999/xlink">
    <!-- Generator: Sketch 46.2 (44496) - http://www.bohemiancoding.com/sketch -->
    <title>itsat-small</title>
    <desc>Created with Sketch.</desc>
    <defs></defs>
    <g id="Large" stroke="none" stroke-width="1" fill="none" fill-rule="evenodd">
        <g id="small" transform="translate(-921.000000, -187.000000)">
            <g id="Group-Copy-2" transform="translate(921.000000, 187.000000)">
                <rect id="Rectangle" x="0" y="0" width="92" height="92"></rect>
                <g id="briefcase-with-stickers" transform="translate(14.000000, 20.000000)" fill-rule="nonzero" fill="#26231E">
                    <path d="M35.5,3.198 C35.3370474,3.1145 35.1705133,3.048 35,3 C35.1705133,3.048 35.3370474,3.1145 35.5,3.198 Z" id="Shape"></path>
                    <path d="M36.5,3.301 C36.3373166,3.184 36.1706499,3.083 36,3 C36.1706499,3.0835 36.3373166,3.184 36.5,3.301 Z" id="Shape"></path>
                    <path d="M37,4 C37.1734628,4.15865385 37.3404531,4.32542067 37.5,4.5 C37.3404531,4.32542067 37.1734628,4.15895433 37,4 Z" id="Shape"></path>
                    <path d="M25,7.5 C25.0665,7.33062645 25.136,7.16434648 25.21,7 C25.2095,7 25.2095,7 25.2095,7.0003867 C25.136,7.16395978 25.066,7.33101315 25,7.5 Z" id="Shape"></path>
                    <path d="M35.5,3.0915 C35.3368161,3.043 35.1702128,3.0125 35,3 C35.1702128,3.0125 35.3368161,3.0435 35.5,3.0915 Z" id="Shape"></path>
                    <path d="M37.5,4.5 C37.3386444,4.32047986 37.1719777,4.1538132 37,4 C37.1722307,4.15338475 37.3386444,4.32047986 37.5,4.5 Z" id="Shape"></path>
                    <path d="M36.5,3.3995 C36.3379218,3.25 36.1709591,3.1175 36,3 C36.1709591,3.117 36.3376998,3.2505 36.5,3.3995 Z" id="Shape"></path>
                    <path d="M37.5,4.5 C37.3388768,4.32238806 37.172301,4.15597015 37,4 C37.172301,4.15597015 37.3388768,4.32238806 37.5,4.5 Z" id="Shape"></path>
                    <rect id="Rectangle-path" x="39" y="3" width="1" height="1"></rect>
                    <path d="M37.5,4.5 C37.3398461,4.32425249 37.1728834,4.15780731 37,4 C37.1728834,4.15780731 37.33955,4.32425249 37.5,4.5 Z" id="Shape"></path>
                    <path d="M36.5,4.494 C36.3379783,4.314 36.1709967,4.149 36,4 C36.1714691,4.1485 36.3379783,4.3135 36.5,4.494 Z" id="Shape"></path>
                    <path d="M24.1995,4.003 C24.2005,4.002 24.201,4.001 24.202,4 C24.134,4.0715 24.0665,4.1425 24,4.215 C24.001,4.214 24.0015,4.213 24.0025,4.2125 C24.0675,4.142 24.133,4.0725 24.1995,4.003 Z" id="Shape"></path>
                    <path d="M24.069,4.0055 C24.071,4.0035 24.073,4.002 24.075,4 C24.0505,4.023 24.0245,4.044 24,4.067 C24.0005,4.0665 24.001,4.066 24.0015,4.0655 C24.0235,4.045 24.047,4.026 24.069,4.0055 Z" id="Shape"></path>
                    <path d="M26.1235,2 C26.0815,2.015 26.0415,2.0335 26,2.049 L26,2.049 C26.0415,2.0335 26.0815,2.0145 26.1235,2 Z" id="Shape"></path>
                    <path d="M23.1645,4.0035 C23.1655,4.0025 23.1665,4.001 23.1675,4 C23.1115,4.0765 23.0545,4.1535 23,4.2315 C23.0005,4.2305 23.001,4.2295 23.0015,4.2285 C23.055,4.1525 23.1105,4.0785 23.1645,4.0035 Z" id="Shape"></path>
                    <path d="M23.0615,4.002 C23.062,4.0015 23.063,4.001 23.0635,4 C23.0415,4.0265 23.0215,4.0535 23,4.0795 C23.002,4.0775 23.004,4.075 23.0055,4.0725 C23.0245,4.05 23.0425,4.0255 23.0615,4.002 Z" id="Shape"></path>
                    <path d="M24.217,3.002 C24.2175,3.0015 24.2185,3.001 24.2195,3 C24.1455,3.0595 24.0725,3.12 24,3.1805 C24.001,3.1795 24.002,3.1785 24.003,3.1775 C24.074,3.119 24.1445,3.06 24.217,3.002 Z" id="Shape"></path>
                    <path d="M25.235,3.0005 C25.235,3 25.2355,3 25.236,3 C25.1575,3.04 25.0785,3.0785 25,3.1195 C25.0005,3.1195 25.0005,3.1195 25.001,3.1195 C25.0785,3.0785 25.157,3.04 25.235,3.0005 Z" id="Shape"></path>
                    <path d="M25.171,3.0025 C25.172,3.0015 25.173,3.001 25.174,3 C25.1165,3.0405 25.0575,3.0785 25,3.1195 C25.0005,3.119 25.0005,3.119 25.001,3.119 C25.0575,3.0795 25.115,3.0415 25.171,3.0025 Z" id="Shape"></path>
                    <path d="M26.145,2 C26.145,2 26.145,2 26.1455,2 C26.096,2.021 26.049,2.0445 26,2.066 C26.0005,2.066 26.001,2.0655 26.0015,2.0655 C26.0495,2.044 26.097,2.021 26.145,2 Z" id="Shape"></path>
                    <path d="M25.2055,3.0005 C25.2055,3.0005 25.206,3 25.2065,3 C25.1365,3.042 25.069,3.086 25,3.1285 C25.0005,3.1285 25.0015,3.128 25.002,3.1275 C25.0695,3.0855 25.1365,3.042 25.2055,3.0005 Z" id="Shape"></path>
                    <path d="M39.2495,7.5 C39.1805,7.32940336 39.097,7.16273669 39,7 C39.097,7.16273669 39.1805,7.32940336 39.2495,7.5 Z" id="Shape"></path>
                    <path d="M40,5 C40.0435,5.0885 40.0875,5.177 40.13,5.2665 C40.0875,5.177 40.0435,5.0885 40,5 Z" id="Shape"></path>
                    <path d="M40,5 C40.025,5.0465 40.051,5.0925 40.0755,5.139 C40.051,5.092 40.025,5.046 40,5 Z" id="Shape"></path>
                    <path d="M39,4 C39.0035,4.004 39.007,4.008 39.0105,4.0115 C39.007,4.008 39.0035,4.004 39,4 Z" id="Shape"></path>
                    <path d="M40,5 C40.049,5.112 40.098,5.223 40.1455,5.3355 C40.098,5.223 40.049,5.112 40,5 Z" id="Shape"></path>
                    <path d="M40,7 C40.0505,7.1285 40.0995,7.2575 40.148,7.3865 C40.0995,7.2575 40.0505,7.1285 40,7 Z" id="Shape"></path>
                    <path d="M39,4 C39.005,4.005 39.0095,4.01 39.014,4.0145 C39.01,4.0095 39.005,4.0045 39,4 Z" id="Shape"></path>
                    <path d="M38,3 C38.001,3.0005 38.002,3.001 38.0025,3.0015 C38.002,3.001 38.001,3.0005 38,3 Z" id="Shape"></path>
                    <path d="M41,7 C41.05,7.1435 41.0975,7.288 41.144,7.433 C41.0975,7.2885 41.05,7.144 41,7 Z" id="Shape"></path>
                    <path d="M39,3 C39.001,3.0005 39.0015,3.001 39.002,3.002 C39.0015,3.001 39.001,3.0005 39,3 Z" id="Shape"></path>
                    <path d="M41,8 C41.0625,8.16564417 41.1195,8.33184607 41.1695,8.5 C41.1195,8.33212493 41.0625,8.16564417 41,8 Z" id="Shape"></path>
                    <path d="M41,7 C41.0485,7.1605 41.093,7.323 41.1375,7.4855 C41.093,7.323 41.0485,7.1605 41,7 Z" id="Shape"></path>
                    <path d="M38.5,5.5 C38.3441734,5.32783797 38.1766034,5.16132831 38,5 C38.1766034,5.16132831 38.3441734,5.32783797 38.5,5.5 Z" id="Shape"></path>
                    <path d="M38.405,7.5 C38.2835,7.32875308 38.147,7.16222313 38,7 C38.1475,7.16222313 38.2835,7.32895816 38.405,7.5 Z" id="Shape"></path>
                    <path d="M38.5,5.5 C38.3423783,5.32690355 38.1755786,5.1606599 38,5 C38.1759777,5.1606599 38.3427773,5.32741117 38.5,5.5 Z" id="Shape"></path>
                    <path d="M38.48,5.5 C38.3325,5.32820738 38.172,5.16168717 38,5 C38.172,5.16168717 38.3325,5.32820738 38.48,5.5 Z" id="Shape"></path>
                    <path d="M41,7 C41.048,7.16549296 41.0915,7.33274648 41.134,7.5 C41.091,7.33230634 41.048,7.16549296 41,7 Z" id="Shape"></path>
                    <path d="M38.5,5.5 C38.3415594,5.32636214 38.1745351,5.15987892 38,5 C38.1745351,5.15960374 38.3415594,5.32636214 38.5,5.5 Z" id="Shape"></path>
                    <path d="M38.3285,7.5 C38.233,7.32886677 38.1225,7.16251914 38,7 C38.1225,7.16232772 38.233,7.32886677 38.3285,7.5 Z" id="Shape"></path>
                    <path d="M23.11,5.002 C23.11,5.0015 23.1105,5.0005 23.111,5 C23.073,5.061 23.037,5.1235 23,5.185 C23.0005,5.1835 23.0015,5.182 23.0025,5.1805 C23.0385,5.1215 23.0725,5.061 23.11,5.002 Z" id="Shape"></path>
                    <path d="M23.1075,5.002 C23.108,5.001 23.108,5.0005 23.1085,5 C23.0715,5.0825 23.036,5.166 23,5.249 C23.0005,5.248 23.001,5.2475 23.001,5.2465 C23.037,5.165 23.071,5.083 23.1075,5.002 Z" id="Shape"></path>
                    <polygon id="Shape" points="30 23.9907879 30.0389979 24 31 22"></polygon>
                    <path d="M22.0805,7.0005 C22.0805,7.0005 22.0805,7 22.081,7 C22.053,7.0945 22.027,7.1895 22,7.2845 C22,7.284 22.0005,7.284 22.0005,7.284 C22.0265,7.1895 22.053,7.0945 22.0805,7.0005 Z" id="Shape"></path>
                    <path d="M23.058,7.0035 C23.0585,7.0025 23.059,7.001 23.059,7 C23.04,7.052 23.0185,7.1035 23,7.1555 L23,7.155 C23.0185,7.104 23.039,7.0545 23.058,7.0035 Z" id="Shape"></path>
                    <path d="M23.116,5.0045 C23.1165,5.003 23.1175,5.0015 23.118,5 C23.079,5.073 23.0385,5.145 23,5.2185 C23.0005,5.218 23.0005,5.217 23.001,5.2165 C23.0385,5.145 23.078,5.075 23.116,5.0045 Z" id="Shape"></path>
                    <path d="M59,10 C59.1737977,10.1519582 59.3408769,10.3190601 59.5,10.5 C59.3408769,10.3190601 59.1739745,10.1516971 59,10 Z" id="Shape"></path>
                    <path d="M60,11 C60.1704271,11.1609756 60.3376309,11.3278049 60.5,11.5 C60.3368251,11.3273171 60.1704271,11.1609756 60,11 Z" id="Shape"></path>
                    <path d="M56,10 C56.1678322,10 56.3342075,10.012 56.5,10.029 C56.3344988,10.0115 56.1681235,10 56,10 Z" id="Shape"></path>
                    <path d="M58,10 C58.1701188,10.0795 58.3370393,10.1925 58.5,10.337 C58.336887,10.193 58.1701188,10.0795 58,10 Z" id="Shape"></path>
                    <path d="M59,10 C59.1716926,10.1432391 59.3385214,10.3105424 59.5,10.5 C59.3385214,10.3105424 59.1715305,10.1432391 59,10 Z" id="Shape"></path>
                    <path d="M60,11 C60.1726781,11.1625744 60.339495,11.3292411 60.5,11.5 C60.3390442,11.3292411 60.1722272,11.1622024 60,11 Z" id="Shape"></path>
                    <path d="M58,10 C58.1681345,10.0605 58.3350681,10.1255 58.5,10.195 C58.3350681,10.1255 58.1685348,10.0605 58,10 Z" id="Shape"></path>
                    <path d="M59,10 C59.1693038,10.11 59.3362342,10.224 59.5,10.3445 C59.3362342,10.224 59.1693038,10.109 59,10 Z" id="Shape"></path>
                    <path d="M58,10 C58.1679905,10.0165 58.3343924,10.038 58.5,10.064 C58.3343924,10.0385 58.1679905,10.017 58,10 Z" id="Shape"></path>
                    <path d="M60,11 C60.1819549,11.1588215 60.3488722,11.3259397 60.5,11.5 C60.3486216,11.3259397 60.1817043,11.1589909 60,11 Z" id="Shape"></path>
                    <path d="M60.5,11.5 C60.3438384,11.3232446 60.1767677,11.1561743 60,11 C60.1769697,11.1563761 60.3440404,11.3232446 60.5,11.5 Z" id="Shape"></path>
                    <path d="M24.5,3 C24.4997524,3 24.4997524,3 24.4995047,3.00032723 C24.329371,3.15968586 24.1636949,3.32657068 24.0012382,3.4986911 C24.0007429,3.49934555 24.0002476,3.49967277 24,3.5 C24.162952,3.32722513 24.329371,3.16001309 24.5,3 Z" id="Shape"></path>
                    <path d="M39.4722892,4.4706343 C39.4682731,4.46671887 39.4646586,4.46280345 39.4610442,4.45927956 C39.3104418,4.30344558 39.1566265,4.15035239 39,4 C39.1702811,4.1632733 39.3365462,4.33046202 39.5,4.5 C39.4903614,4.49060298 39.4819277,4.48003132 39.4722892,4.4706343 Z" id="Shape"></path>
                    <path d="M24.5,4 C24.4994086,4.00026055 24.499113,4.00078166 24.4985216,4.00130276 C24.3279125,4.16336634 24.1608516,4.32829599 24.0011827,4.49895779 C24.000887,4.4994789 24.0002957,4.49973945 24,4.5 C24.1608516,4.32855654 24.3285038,4.16284523 24.5,4 Z" id="Shape"></path>
                    <path d="M23.5,4 C23.4989844,4.00130005 23.4976303,4.0026001 23.4962762,4.00364015 C23.3253216,4.16458658 23.161476,4.3299532 23.0020311,4.49817993 C23.0013541,4.49869995 23.000677,4.49947998 23,4.5 C23.1611374,4.32969319 23.3270142,4.16276651 23.5,4 Z" id="Shape"></path>
                    <path d="M24.5,3 C24.4994536,3.00062933 24.4989071,3.00125865 24.4983607,3.00188798 C24.3295082,3.1620516 24.1639344,3.32599119 24.0032787,3.4965387 C24.0021858,3.49779736 24.0010929,3.49874135 24,3.5 C24.1625683,3.32787917 24.3297814,3.16173694 24.5,3 Z" id="Shape"></path>
                    <path d="M24.5,4 C24.4997244,4.00027747 24.4994487,4.00055494 24.4991731,4.00083241 C24.3280044,4.16120977 24.1628997,4.32824639 24.0013782,4.49833518 C24.0008269,4.49889012 24.0005513,4.49944506 24,4.5 C24.1623484,4.3290788 24.3280044,4.16120977 24.5,4 Z" id="Shape"></path>
                    <path d="M23.5,5 C23.499122,5.00075377 23.4982441,5.00150754 23.4978051,5.00226131 C23.3248464,5.16457286 23.1597893,5.3298995 23.0017559,5.49773869 C23.0013169,5.49849246 23.000439,5.49924623 23,5.5 C23.1589113,5.33040201 23.3257243,5.16356784 23.5,5 Z" id="Shape"></path>
                    <path d="M22.4005,7 L22.4005,7 C22.254,7.16443633 22.1225,7.33130576 22.0005,7.49979724 C22,7.49979724 22,7.5 22,7.5 C22.1225,7.33130576 22.2545,7.16443633 22.4005,7 Z" id="Shape"></path>
                    <path d="M22.321,7.00019402 C22.203,7.16511447 22.0925,7.33119907 22,7.5 C22.092,7.33119907 22.2025,7.16472643 22.3215,7 C22.322,7 22.321,7 22.321,7.00019402 Z" id="Shape"></path>
                    <path d="M23.5,5 C23.4995504,5.00021815 23.4995504,5.00065445 23.4991007,5.0008726 C23.3228417,5.16404887 23.1569245,5.33049738 23.0008993,5.4991274 C23.0004496,5.49934555 23.0004496,5.4995637 23,5.5 C23.1564748,5.33049738 23.3232914,5.16383072 23.5,5 Z" id="Shape"></path>
                    <path d="M25.5,3 C25.4997388,3.00039777 25.4992163,3.00079554 25.4989551,3.00079554 C25.3301985,3.15990453 25.1643156,3.32577566 25.0015674,3.49801114 C25.0010449,3.49880668 25.0005225,3.49920446 25,3.5 C25.1635319,3.3265712 25.3304598,3.16030231 25.5,3 Z" id="Shape"></path>
                    <path d="M23.441,5 C23.441,5.00045683 23.4405,5.00068524 23.44,5.00114207 C23.2845,5.16468707 23.1375,5.3302878 23.001,5.4984011 C23.001,5.49885793 23.0005,5.49954317 23,5.5 C23.137,5.33074463 23.285,5.16445866 23.441,5 Z" id="Shape"></path>
                    <path d="M23.5,4 C23.4996441,4.00047371 23.4992883,4.00094742 23.4989324,4.00142113 C23.3259786,4.16366651 23.1590747,4.32946471 23.0007117,4.49905258 C23.0003559,4.49928944 23,4.49976315 23,4.5 C23.1590747,4.32970156 23.3266904,4.1631928 23.5,4 Z" id="Shape"></path>
                    <path d="M25,7.5 C25.0005,7.49770817 25.0015,7.49579832 25.0025,7.49350649 C25.069,7.32658518 25.1385,7.16195569 25.212,7 C25.0635,7.16424752 25.0035,7.33116883 25,7.5 Z" id="Shape"></path>
                    <path d="M40,4 C40.124,4.161 40.246,4.323 40.366,4.488 C40.246,4.323 40.124,4.161 40,4 Z" id="Shape"></path>
                    <path d="M39,4 C39.131,4.156 39.261,4.313 39.387,4.4725 C39.261,4.313 39.131,4.1555 39,4 Z" id="Shape"></path>
                    <path d="M39.365,4.4025 C39.3615,4.3985 39.358,4.395 39.3545,4.391 C39.2385,4.258 39.1185,4.1295 39,4 C39.1475,4.161 39.294,4.3235 39.437,4.489 C39.4125,4.4605 39.389,4.431 39.365,4.4025 Z" id="Shape"></path>
                    <path d="M25.5,2 C25.499765,2 25.4995301,2.00049261 25.4992951,2.00049261 C25.3303571,2.15714286 25.1642387,2.32413793 25.0004699,2.49950739 C25.000235,2.49950739 25,2.49950739 25,2.5 C25.1642387,2.32463054 25.3308271,2.15714286 25.5,2 Z" id="Shape"></path>
                    <path d="M26.5,2 L26.5,2 C26.3310445,2.147 26.1641698,2.3035 26.0002081,2.4745 C26,2.4745 26,2.4745 26,2.4745 C26.1637536,2.304 26.3308365,2.147 26.5,2 Z" id="Shape"></path>
                    <path d="M39.5,3.5 C39.336589,3.32946357 39.1697971,3.16293034 39,3 L39,3 C39.1697971,3.16293034 39.336589,3.32986389 39.5,3.5 Z" id="Shape"></path>
                    <path d="M25.5,3 C25.4997742,3 25.4997742,3 25.4995483,3 C25.3301716,3.15838011 25.1637308,3.32477947 25.0004517,3.49959904 C25.0002258,3.49959904 25,3.5 25,3.5 C25.1632791,3.32477947 25.3301716,3.15838011 25.5,3 Z" id="Shape"></path>
                    <path d="M39,3.5 C38.8949326,3.44025898 38.7880056,3.38198941 38.6787541,3.32504414 C38.6785216,3.32474985 38.6782892,3.32460271 38.6778243,3.32445556 C38.5688052,3.2675103 38.458159,3.21203649 38.3451883,3.15803414 C38.3449558,3.15788699 38.3444909,3.15773985 38.344026,3.1575927 C38.2312878,3.10359035 38.1164575,3.0509123 38,3 C38.3500697,3.15332549 38.6843329,3.32048264 39,3.5 L39,3.5 Z" id="Shape"></path>
                    <path d="M14,13 C13.4477143,13 13,13.4739396 13,14.058576 L13,46.941424 C13,47.5260604 13.4477143,48 14,48 C14.5522857,48 15,47.5260604 15,46.941424 L15,14.058576 C15,13.4739396 14.5522857,13 14,13 Z" id="Shape"></path>
                    <path d="M49,13 C48.4477143,13 48,13.4739396 48,14.058576 L48,46.941424 C48,47.5260604 48.4477143,48 49,48 C49.5522857,48 50,47.5260604 50,46.941424 L50,14.058576 C50,13.4739396 49.5524286,13 49,13 Z" id="Shape"></path>
                    <path d="M34.8861661,33.9150586 C34.8011263,33.3290266 34.2681708,32.9244913 33.6972538,33.0118673 L18.8922696,35.2738312 C18.3209042,35.3610538 17.9264932,35.9069235 18.0115329,36.4931088 L19.1134626,44.084852 C19.1542637,44.3664478 19.3026722,44.6196847 19.5256587,44.7892247 C19.7069472,44.9268801 19.92545,45 20.148287,45 C20.1996994,45 20.2512613,44.9961677 20.3023748,44.9883499 L35.1079569,42.726386 C35.3823557,42.6845375 35.6292549,42.5324727 35.7945518,42.3037623 C35.9596993,42.075052 36.0294946,41.7885509 35.988544,41.5069551 L34.8861661,33.9150586 Z M20.2352697,37.2384103 L25.3820417,36.4520268 L26.1624943,41.9232938 L21.0291731,42.7075312 L20.2352697,37.2384103 Z M28.2319937,41.6072074 L27.4515412,36.1359405 L32.970605,35.2928393 L33.7649568,40.7621135 L28.2319937,41.6072074 Z" id="Shape"></path>
                    <path d="M45.3023559,19.5281258 L32.0017564,15.0548469 C31.7427745,14.9677276 31.4590013,14.9849203 31.2127103,15.1026686 C30.9665668,15.2205613 30.77827,15.4291853 30.6892865,15.6828859 L28.056083,23.1874246 C27.966952,23.4411252 27.9846601,23.7190979 28.104928,23.9600845 C28.225196,24.2010712 28.4384317,24.3854231 28.6975612,24.4725424 L41.9988985,28.94481 C42.1100173,28.9822294 42.2232019,29 42.3344682,29 C42.7633008,29 43.1642431,28.7363305 43.3113684,28.316771 L45.9436865,20.8129546 C46.1290319,20.2847489 45.8418646,19.7094437 45.3023559,19.5281258 Z M30.3700969,22.8961602 L30.3457482,22.8877805 L30.9701085,21.1082645 L32.3076649,17.2962541 L32.3120919,17.2978433 L34.809828,18.1376848 L34.7472591,18.3010876 L32.6897184,23.6760439 L30.3700969,22.8961602 Z M41.6929901,26.7032583 L34.6442567,24.3334116 L36.7642187,18.7953414 L36.7699738,18.7972196 L43.6541689,21.1124543 L41.6929901,26.7032583 Z" id="Shape"></path>
                    <path d="M56.7529595,7.43301267 L43.1220485,7.43301267 C42.6344091,3.25498715 39.0463921,0 34.7042211,0 L28.2956295,0 C23.95316,0 20.365143,3.25498715 19.8776529,7.43301267 L6.2468912,7.43301267 C2.80250837,7.43301267 0,10.2116025 0,13.6270665 L0,45.8060942 C0,49.2214102 2.80250837,52 6.2468912,52 L56.7531088,52 C60.1974916,52 63,49.2214102 63,45.8060942 L63,13.6270665 C62.9998507,10.2116025 60.1974916,7.43301267 56.7529595,7.43301267 Z M22.0482904,7.08881632 C22.0757631,6.96002027 22.1087601,6.83314876 22.1441461,6.70746157 C22.1522087,6.6793337 22.1599727,6.65120583 22.1683339,6.62322599 C22.2047651,6.50020356 22.244033,6.37836545 22.2877802,6.25845189 C22.2933046,6.24305558 22.2997248,6.22795535 22.3053985,6.212411 C22.3460103,6.10360054 22.3900561,5.99612245 22.4364908,5.89012478 C22.447241,5.8655499 22.4578419,5.84082698 22.4688906,5.81640014 C22.5208498,5.70196411 22.5759444,5.58900849 22.6343237,5.4782735 C22.6458204,5.45665944 22.6579144,5.43534148 22.6695604,5.41357939 C22.7233112,5.3146877 22.779451,5.21742448 22.8382783,5.12164167 C22.849327,5.10343257 22.8599279,5.08492739 22.8714246,5.06686633 C22.9378666,4.96086866 23.007892,4.85738769 23.0804556,4.75583127 C23.0967302,4.7327368 23.1137513,4.70993842 23.1304737,4.68728808 C23.2007977,4.59150527 23.2730627,4.49735091 23.3484632,4.40571326 C23.3548834,4.39801511 23.3608557,4.39002087 23.3674253,4.38217467 C23.4480515,4.28520753 23.5322612,4.1914973 23.6185611,4.09941552 C23.6385684,4.07794951 23.6587249,4.05692763 23.6788815,4.0357577 C23.7663759,3.9450083 23.855662,3.85588735 23.9485315,3.7703194 C23.9558475,3.76350949 23.9636115,3.75729175 23.9709276,3.75048185 C24.0587206,3.67024339 24.1490519,3.5931138 24.2414735,3.5177607 C24.2631231,3.49984769 24.284922,3.48193467 24.3070196,3.46431774 C24.4048162,3.38659599 24.5048525,3.31109485 24.607427,3.23885063 C24.6244481,3.22671123 24.6420664,3.21546008 24.6593861,3.20346872 C24.7524049,3.13936678 24.8472154,3.0776335 24.9436683,3.01841692 C24.9642728,3.0058334 24.9844293,2.99280576 25.0053324,2.98037027 C25.113282,2.91567617 25.2233219,2.85423897 25.3353028,2.79591064 C25.3585948,2.78377124 25.3821854,2.77237205 25.4057761,2.76052874 C25.5098437,2.70797402 25.6154043,2.65763993 25.7227566,2.61056276 C25.7373888,2.60419697 25.7514238,2.59723903 25.7662052,2.59102129 C25.8838598,2.54039111 26.003754,2.49405414 26.1248427,2.45052996 C26.1372352,2.44608872 26.1491799,2.44046314 26.1617217,2.4360219 C26.2996822,2.38731626 26.439733,2.34334796 26.581874,2.30396893 C26.6726532,2.27865385 26.7644775,2.25555938 26.8570484,2.23438946 C27.0420408,2.19190156 27.2301687,2.15755595 27.4208348,2.13150066 C27.7069087,2.09256576 27.9989548,2.07228408 28.2957789,2.07228408 L34.7043705,2.07228408 C34.8245633,2.07228408 34.9437109,2.07672532 35.0624107,2.08323915 C35.0967515,2.08516369 35.130943,2.08768039 35.1651345,2.09019709 C35.2548685,2.09671092 35.3440053,2.1048532 35.4326942,2.11492001 C35.4641981,2.11847301 35.4958514,2.12158188 35.5270567,2.125579 C35.6436661,2.14053118 35.7596783,2.15785203 35.8741975,2.17902196 C35.8833052,2.18065041 35.8922637,2.18272299 35.9013715,2.18464753 C36.0075294,2.20463313 36.1126421,2.22772759 36.216859,2.25289464 C36.2465713,2.26014867 36.2761342,2.26784682 36.3058465,2.27539694 C36.3970736,2.29893553 36.4878527,2.32425061 36.5775868,2.35163828 C36.5996843,2.35844818 36.6219312,2.36481397 36.6438794,2.37177191 C36.7566069,2.4074499 36.8679905,2.44579263 36.9778811,2.48739228 C36.9851972,2.49035311 36.992364,2.49346198 36.9996801,2.49627476 C37.101508,2.53535771 37.2018429,2.57725343 37.3011326,2.62122174 C37.322185,2.63054835 37.3429388,2.640023 37.3639912,2.64949766 C37.4614892,2.69420617 37.5580914,2.74069118 37.6530512,2.78998898 C37.6605166,2.79369002 37.667982,2.79739105 37.6752981,2.80109209 C37.7836956,2.85794 37.8901521,2.9176007 37.9949662,2.98022223 C37.9966086,2.98125852 37.9979523,2.98229481 37.9995947,2.98318306 C38.0991831,3.0429918 38.1968304,3.10590942 38.2928354,3.17075157 C38.3038841,3.17830168 38.3150822,3.18599983 38.3262803,3.19340191 C38.4010835,3.24477229 38.4748416,3.29777112 38.5472559,3.35195429 C38.5475546,3.35210233 38.5478532,3.35225037 38.5480025,3.35239841 C38.6204168,3.40672962 38.6916366,3.46254125 38.761662,3.51983328 C38.7619606,3.51998132 38.7621099,3.52012937 38.7622592,3.52042545 C38.8324339,3.57771749 38.9011155,3.6363419 38.9686027,3.69644672 C38.968752,3.69659476 38.9689013,3.6967428 38.9690506,3.69689085 C39.0365378,3.75714371 39.1028305,3.81872895 39.1677794,3.8817946 C39.1709148,3.88490347 39.173901,3.88771626 39.1768871,3.89082513 C39.2352665,3.94767304 39.2923021,4.00540921 39.3482926,4.06447774 C39.3497856,4.06595816 39.3512787,4.06743857 39.3524732,4.06877094 C39.3559073,4.07232394 39.359192,4.07632106 39.3626261,4.07987405 C39.3786021,4.09689882 39.3941301,4.11451575 39.4099567,4.1318366 C39.4453427,4.17017933 39.4813259,4.20837402 39.515816,4.247605 C39.5168611,4.24878933 39.5179063,4.24997367 39.5189514,4.25100996 C39.5262675,4.25944832 39.533285,4.26803472 39.5406011,4.27647308 C39.5591152,4.29793909 39.5771815,4.31970118 39.5953971,4.34131523 C39.6345157,4.38750416 39.6733358,4.43398918 39.7109613,4.4812144 C39.7293262,4.50401278 39.7470938,4.52740332 39.7650108,4.55049779 C39.8020391,4.59816713 39.8384702,4.64613256 39.8743041,4.69498623 C39.8820681,4.70549718 39.8896828,4.7163042 39.8971482,4.72681514 C40.0601924,4.95213422 40.208903,5.18811227 40.3414884,5.4340091 C40.3489538,5.44777696 40.3567178,5.46139677 40.3640339,5.47516462 C40.3918051,5.52757129 40.4180833,5.58086621 40.4443615,5.63416113 C40.4573513,5.66036447 40.4704904,5.6865678 40.4831815,5.71306722 C40.5058763,5.7608846 40.5276753,5.80914611 40.5491756,5.85740762 C40.5638078,5.89056891 40.5784399,5.92343411 40.5926242,5.95674343 C40.6117356,6.00174803 40.6301005,6.04690067 40.6481667,6.09249743 C40.6632468,6.13054408 40.677879,6.16873877 40.6923618,6.20693346 C40.7083378,6.2495694 40.7240151,6.29250142 40.7390952,6.33558148 C40.754026,6.37806937 40.7680609,6.42085335 40.7820959,6.46378536 C40.7953843,6.50420068 40.8085233,6.54461599 40.8209159,6.58532739 C40.8353988,6.63284869 40.8486872,6.68096216 40.8619756,6.72907562 C40.8722778,6.76638207 40.883028,6.80339243 40.8925837,6.84099495 C40.9069172,6.89665853 40.919907,6.95291428 40.9325982,7.00917003 C40.9397649,7.04011069 40.947529,7.07090331 40.9539492,7.10199201 C40.9726127,7.18992863 40.9896338,7.27816133 41.0045646,7.36743031 L38.7271719,7.36743031 C38.7065674,7.22605074 38.681633,7.08792807 38.6526673,6.95306232 C38.6519207,6.94980541 38.6513235,6.94625242 38.650577,6.9429955 C38.6220592,6.81064646 38.5890621,6.6818504 38.5524817,6.55631126 C38.5508393,6.55098177 38.5493462,6.5453562 38.5478532,6.53987866 C38.5115714,6.41626406 38.4709596,6.29605441 38.4269138,6.17895363 C38.4243756,6.17243981 38.4222853,6.1656299 38.419747,6.15896804 C38.3757012,6.04319963 38.3277734,5.93098422 38.2764115,5.82202572 C38.273276,5.81506777 38.2701406,5.80796178 38.2670051,5.80100383 C38.2154939,5.69278554 38.1601007,5.58812024 38.1017213,5.48671186 C38.0979886,5.48019803 38.0942559,5.47338813 38.0905232,5.46672626 C38.0315466,5.36591004 37.9691359,5.26879486 37.9034405,5.17508463 C37.8992599,5.16901493 37.8950792,5.16264914 37.8907493,5.15657945 C37.8246059,5.0631653 37.7548792,4.97360023 37.6820169,4.88758815 C37.677687,4.8824067 37.6732078,4.87707721 37.6688778,4.87189576 C37.5952691,4.78588368 37.5182262,4.70372068 37.4381972,4.6255548 C37.4340166,4.62140964 37.4295374,4.6169684 37.4252074,4.61267519 C37.3442826,4.53450931 37.2602223,4.46019251 37.1730265,4.38987283 C37.1689952,4.38661592 37.1649638,4.38321096 37.1609325,4.38010209 C37.0726916,4.30963437 36.9814645,4.24360788 36.8871019,4.18172656 C36.8835185,4.17920986 36.8797858,4.17684119 36.8760532,4.17432449 C36.7806454,4.11229513 36.6824009,4.05455896 36.5808715,4.00156013 C36.5778854,3.99993167 36.5748992,3.99845126 36.5719131,3.9968228 C36.4694879,3.94352788 36.3640765,3.89467421 36.2558283,3.85055786 C36.2532901,3.84966961 36.2510505,3.84863332 36.2485123,3.84759703 C36.1393682,3.80348068 36.027238,3.76410166 35.912271,3.72931192 C35.9104793,3.7288678 35.9088369,3.72827563 35.9070452,3.72783151 C35.7911823,3.69318981 35.6724826,3.66328544 35.550946,3.63871056 C35.5499008,3.63856252 35.5488557,3.63826643 35.5479598,3.63811839 C35.4256767,3.61339547 35.300706,3.59370596 35.1727492,3.57949398 C35.1724506,3.57934594 35.1720026,3.57934594 35.1715547,3.57934594 C35.0432993,3.56498592 34.9123563,3.55595539 34.7785765,3.55225436 L34.7785765,3.55225436 C34.7348293,3.55107003 34.6910821,3.54944157 34.6467376,3.54944157 L28.3537103,3.54944157 C28.2491948,3.54944157 28.1467696,3.55388281 28.0455389,3.5602486 C28.0273233,3.56143293 28.0088092,3.56232118 27.9907429,3.56365355 C27.8936928,3.57105562 27.7981358,3.58127048 27.7040718,3.59459421 C27.6864535,3.59711091 27.6691338,3.5999237 27.6515155,3.60258845 C27.5544654,3.61739259 27.4586097,3.63441736 27.3649937,3.65543924 C27.3637992,3.65573532 27.3626048,3.65603141 27.3615596,3.65632749 C27.2679436,3.67749742 27.1765672,3.70251642 27.0862359,3.729608 C27.0717531,3.73390121 27.0572702,3.73804637 27.0429367,3.74248761 C26.9551437,3.77017136 26.8692916,3.80066789 26.785082,3.83368114 C26.7710471,3.83915867 26.7571614,3.84493229 26.7434251,3.85055786 C26.568287,3.92206188 26.4007636,4.00570529 26.2413028,4.10104398 C26.2318964,4.10652151 26.2226393,4.111851 26.2133822,4.11747658 C26.1352942,4.16514592 26.0592965,4.21577609 25.9852399,4.26921905 C25.9758335,4.27602896 25.9667257,4.28269082 25.9573193,4.28950073 C25.8041294,4.40216027 25.6595994,4.52636703 25.5246251,4.66226908 C25.5202952,4.66656228 25.515816,4.67085548 25.511486,4.67529672 C25.4447454,4.7430997 25.3803937,4.81415959 25.3181324,4.88758815 C25.3129066,4.89395393 25.3075315,4.90031971 25.3021564,4.90668549 C25.1746475,5.05931622 25.0571422,5.22349418 24.9505364,5.39877524 C24.9496406,5.4004037 24.9484461,5.40188411 24.9475503,5.40351257 C24.894546,5.49085702 24.8443786,5.58101425 24.7966,5.67383624 C24.7937632,5.67931377 24.7909263,5.68508739 24.7880895,5.69056492 C24.6916366,5.88005796 24.6060832,6.08035803 24.5326238,6.29146513 C24.5106755,6.35438274 24.4897724,6.41804056 24.4699145,6.48288271 C24.4696159,6.48377096 24.4693172,6.48451116 24.4691679,6.48539941 C24.3842118,6.76312515 24.3180684,7.05713546 24.2731267,7.36698619 L21.9949875,7.36698619 C22.0108142,7.27431225 22.0284325,7.18119418 22.0482904,7.08881632 Z M36.620886,7.43301267 L26.3797112,7.43301267 C26.556641,6.53528938 27.0554785,5.62290998 28.3538596,5.62290998 L34.6468869,5.62290998 C35.9451187,5.62276194 36.4441055,6.53514134 36.620886,7.43301267 Z M2.09030992,34.5518359 L6.46443274,33.1290096 L7.04673336,34.9056549 L8.6107331,39.6773266 L2.09030992,41.7987604 L2.09030992,34.5518359 Z M60.9095408,45.8060942 C60.9095408,48.0786783 59.0449843,49.9274198 56.7529595,49.9274198 L7.73996971,49.9274198 L6.2468912,49.9274198 C3.95486637,49.9274198 2.09030992,48.0785303 2.09030992,45.8060942 L2.09030992,43.9801511 L3.58338844,43.4944271 L10.2526715,41.3244357 C10.8000341,41.1463418 11.0987991,40.5627625 10.9208242,40.0194504 L8.12831943,31.4999616 C8.04261673,31.2380763 7.85508607,31.0208995 7.60753365,30.8961005 C7.35998123,30.7714496 7.07241431,30.7496875 6.80858733,30.8355516 L3.58338844,31.8848693 L2.09030992,32.3705933 L2.09030992,13.6270665 C2.09030992,11.3543343 3.95486637,9.50559283 6.2468912,9.50559283 L56.7531088,9.50559283 C56.8391101,9.50559283 56.9243649,9.50914583 57.0093211,9.51417924 C57.0342555,9.51580769 57.0588913,9.51788027 57.0835271,9.51980481 C57.1466843,9.52469018 57.2092443,9.53105596 57.2715057,9.53875412 C57.2953949,9.54186299 57.3192842,9.54452773 57.3430241,9.54793269 C57.509801,9.57147128 57.6734424,9.60507668 57.8332018,9.64771262 C57.8539556,9.65319015 57.8742615,9.65925985 57.8948659,9.66503347 C57.9577245,9.68294648 58.0198366,9.70219187 58.0813514,9.72276963 C58.1000149,9.72913541 58.1188277,9.73520511 58.1374912,9.74171893 C58.2956082,9.79723447 58.449246,9.86207662 58.5979566,9.93550518 C58.6116929,9.94216704 58.6251306,9.94927303 58.6387177,9.95623098 C58.7026214,9.98865205 58.7656293,10.0225535 58.8274428,10.0582315 C58.8387902,10.0647454 58.8501376,10.0711111 58.861485,10.077625 C59.0082546,10.163637 59.1493505,10.2585316 59.2837276,10.3611243 C59.2901478,10.3660097 59.2964187,10.3710431 59.302839,10.3760765 C59.3661455,10.4249302 59.4278097,10.4755604 59.48813,10.527819 C59.49246,10.5316681 59.4969392,10.5353691 59.5012691,10.5390701 C59.6319135,10.6536542 59.7552418,10.7762325 59.870806,10.9059168 C59.8722991,10.9078414 59.8739415,10.9094698 59.8754346,10.9113944 C59.9326195,10.9760885 59.9878634,11.042411 60.041017,11.110362 C60.0414649,11.1111023 60.0420622,11.1118425 60.0426594,11.1125827 C60.1510569,11.2514455 60.2504959,11.3975624 60.3405285,11.549749 C60.3405285,11.5498971 60.3406779,11.5500451 60.3408272,11.5503412 C60.7017042,12.1607161 60.9096901,12.8702787 60.9096901,13.6275107 L60.9096901,45.8060942 L60.9095408,45.8060942 Z" id="Shape"></path>
                </g>
            </g>
        </g>
    </g>
</svg>