<?xml version="1.0" encoding="UTF-8"?>
<svg width="580px" height="580px" viewBox="0 0 580 580" version="1.1" xmlns="http://www.w3.org/2000/svg" xmlns:xlink="http://www.w3.org/1999/xlink">
    <!-- Generator: Sketch 46.2 (44496) - http://www.bohemiancoding.com/sketch -->
    <title>docker_big</title>
    <desc>Created with Sketch.</desc>
    <defs></defs>
    <g id="Large" stroke="none" stroke-width="1" fill="none" fill-rule="evenodd">
        <g id="big-copy" transform="translate(-3961.000000, -1468.000000)">
            <g id="Group-Copy-15" transform="translate(3961.000000, 1468.000000)">
                <rect id="Rectangle-11" x="0" y="0" width="580" height="580"></rect>
                <g id="briefcase-with-stickers" transform="translate(130.000000, 156.000000)" fill-rule="nonzero" fill="#FFFFFF">
                    <path d="M181,17.188 C180.348189,16.687 179.682053,16.288 179,16 C179.682053,16.288 180.348189,16.687 181,17.188 Z" id="Shape"></path>
                    <path d="M186,17.806 C185.349266,17.104 184.6826,16.498 184,16 C184.6826,16.501 185.349266,17.104 186,17.806 Z" id="Shape"></path>
                    <path d="M188,22 C188.693851,22.6346154 189.361812,23.3016827 190,24 C189.361812,23.3016827 188.693851,22.6358173 188,22 Z" id="Shape"></path>
                    <path d="M128,36 C128.399,35.3225058 128.816,34.6573859 129.26,34 C129.257,34 129.257,34 129.257,34.0015468 C128.816,34.6558391 128.396,35.3240526 128,36 Z" id="Shape"></path>
                    <path d="M181,16.549 C180.347264,16.258 179.680851,16.075 179,16 C179.680851,16.075 180.347264,16.261 181,16.549 Z" id="Shape"></path>
                    <path d="M190,24 C189.354578,23.2819195 188.687911,22.6152528 188,22 C188.688923,22.613539 189.354578,23.2819195 190,24 Z" id="Shape"></path>
                    <path d="M186,18 C185.351687,17.2515645 184.683837,16.5882353 184,16 C184.683837,16.5857322 185.350799,17.2540676 186,18 Z" id="Shape"></path>
                    <path d="M190,24 C189.355507,23.2895522 188.689204,22.6238806 188,22 C188.689204,22.6238806 189.355507,23.2895522 190,24 Z" id="Shape"></path>
                    <rect id="Rectangle-path" x="198" y="16" width="1" height="1"></rect>
                    <path d="M190,24 C189.359384,23.29701 188.691533,22.6312292 188,22 C188.691533,22.6312292 189.3582,23.29701 190,24 Z" id="Shape"></path>
                    <path d="M186,24 C185.351913,23.2712551 184.683987,22.6032389 184,22 C184.685876,22.6012146 185.351913,23.2692308 186,24 Z" id="Shape"></path>
                    <path d="M124.197,22.018 C124.203,22.012 124.206,22.006 124.212,22 C123.804,22.429 123.399,22.855 123,23.29 C123.006,23.284 123.009,23.278 123.015,23.275 C123.405,22.852 123.798,22.435 124.197,22.018 Z" id="Shape"></path>
                    <path d="M123.414,22.033 C123.426,22.021 123.438,22.012 123.45,22 C123.303,22.138 123.147,22.264 123,22.402 C123.003,22.399 123.006,22.396 123.009,22.393 C123.141,22.27 123.282,22.156 123.414,22.033 Z" id="Shape"></path>
                    <path d="M133.741,11 C133.489,11.09 133.249,11.201 133,11.294 L133,11.294 C133.249,11.201 133.489,11.087 133.741,11 Z" id="Shape"></path>
                    <path d="M117.987,22.021 C117.993,22.015 117.999,22.006 118.005,22 C117.669,22.459 117.327,22.921 117,23.389 C117.003,23.383 117.006,23.377 117.009,23.371 C117.33,22.915 117.663,22.471 117.987,22.021 Z" id="Shape"></path>
                    <path d="M117.369,22.012 C117.372,22.009 117.378,22.006 117.381,22 C117.249,22.159 117.129,22.321 117,22.477 C117.012,22.465 117.024,22.45 117.033,22.435 C117.147,22.3 117.255,22.153 117.369,22.012 Z" id="Shape"></path>
                    <path d="M124.302,16.012 C124.305,16.009 124.311,16.006 124.317,16 C123.873,16.357 123.435,16.72 123,17.083 C123.006,17.077 123.012,17.071 123.018,17.065 C123.444,16.714 123.867,16.36 124.302,16.012 Z" id="Shape"></path>
                    <path d="M129.41,16.003 C129.41,16 129.413,16 129.416,16 C128.945,16.24 128.471,16.471 128,16.717 C128.003,16.717 128.003,16.717 128.006,16.717 C128.471,16.471 128.942,16.24 129.41,16.003 Z" id="Shape"></path>
                    <path d="M129.026,16.015 C129.032,16.009 129.038,16.006 129.044,16 C128.699,16.243 128.345,16.471 128,16.717 C128.003,16.714 128.003,16.714 128.006,16.714 C128.345,16.477 128.69,16.249 129.026,16.015 Z" id="Shape"></path>
                    <path d="M133.87,11 C133.87,11 133.87,11 133.873,11 C133.576,11.126 133.294,11.267 133,11.396 C133.003,11.396 133.006,11.393 133.009,11.393 C133.297,11.264 133.582,11.126 133.87,11 Z" id="Shape"></path>
                    <path d="M129.233,16.003 C129.233,16.003 129.236,16 129.239,16 C128.819,16.252 128.414,16.516 128,16.771 C128.003,16.771 128.009,16.768 128.012,16.765 C128.417,16.513 128.819,16.252 129.233,16.003 Z" id="Shape"></path>
                    <path d="M199.497,36 C199.083,35.3176134 198.582,34.6509468 198,34 C198.582,34.6509468 199.083,35.3176134 199.497,36 Z" id="Shape"></path>
                    <path d="M204,27 C204.261,27.531 204.525,28.062 204.78,28.599 C204.525,28.062 204.261,27.531 204,27 Z" id="Shape"></path>
                    <path d="M204,27 C204.15,27.279 204.306,27.555 204.453,27.834 C204.306,27.552 204.15,27.276 204,27 Z" id="Shape"></path>
                    <path d="M198,22 C198.021,22.024 198.042,22.048 198.063,22.069 C198.042,22.048 198.021,22.024 198,22 Z" id="Shape"></path>
                    <path d="M204,27 C204.294,27.6676602 204.588,28.3293592 204.873,29 C204.588,28.3293592 204.294,27.6676602 204,27 Z" id="Shape"></path>
                    <path d="M204,34 C204.303,34.6649418 204.597,35.3324709 204.888,36 C204.597,35.3324709 204.303,34.6649418 204,34 Z" id="Shape"></path>
                    <path d="M198,22 C198.03,22.03 198.057,22.06 198.084,22.087 C198.06,22.057 198.03,22.027 198,22 Z" id="Shape"></path>
                    <path d="M193,16 C193.006,16.003 193.012,16.006 193.015,16.009 C193.012,16.006 193.006,16.003 193,16 Z" id="Shape"></path>
                    <path d="M209,34 C209.3,34.6628176 209.585,35.330254 209.864,36 C209.585,35.3325635 209.3,34.665127 209,34 Z" id="Shape"></path>
                    <path d="M198,16 C198.006,16.003 198.009,16.006 198.012,16.012 C198.009,16.006 198.006,16.003 198,16 Z" id="Shape"></path>
                    <path d="M209,40 C209.375,40.6625767 209.717,41.3273843 210.017,42 C209.717,41.3284997 209.375,40.6625767 209,40 Z" id="Shape"></path>
                    <path d="M209,34 C209.291,34.661174 209.558,35.330587 209.825,36 C209.558,35.330587 209.291,34.661174 209,34 Z" id="Shape"></path>
                    <path d="M195,29 C194.376694,28.3113519 193.706414,27.6453132 193,27 C193.706414,27.6453132 194.376694,28.3113519 195,29 Z" id="Shape"></path>
                    <path d="M195,36 C194.4,35.3150123 193.725926,34.6488925 193,34 C193.728395,34.6488925 194.4,35.3158326 195,36 Z" id="Shape"></path>
                    <path d="M195,29 C194.369513,28.3076142 193.702314,27.6426396 193,27 C193.703911,27.6426396 194.371109,28.3096447 195,29 Z" id="Shape"></path>
                    <path d="M195,29 C194.385417,28.3128295 193.716667,27.6467487 193,27 C193.716667,27.6467487 194.385417,28.3128295 195,29 Z" id="Shape"></path>
                    <path d="M209,34 C209.288,34.6619718 209.549,35.3309859 209.804,36 C209.546,35.3292254 209.288,34.6619718 209,34 Z" id="Shape"></path>
                    <path d="M195,29 C194.366237,28.3054485 193.69814,27.6395157 193,27 C193.69814,27.638415 194.366237,28.3054485 195,29 Z" id="Shape"></path>
                    <path d="M194.971,36 C194.398,35.3154671 193.735,34.6500766 193,34 C193.735,34.6493109 194.398,35.3154671 194.971,36 Z" id="Shape"></path>
                    <path d="M117.66,27.012 C117.66,27.009 117.663,27.003 117.666,27 C117.438,27.366 117.222,27.741 117,28.11 C117.003,28.101 117.009,28.092 117.015,28.083 C117.231,27.729 117.435,27.366 117.66,27.012 Z" id="Shape"></path>
                    <path d="M117.645,27.012 C117.648,27.006 117.648,27.003 117.651,27 C117.429,27.495 117.216,27.996 117,28.494 C117.003,28.488 117.006,28.485 117.006,28.479 C117.222,27.99 117.426,27.498 117.645,27.012 Z" id="Shape"></path>
                    <polygon id="Shape" points="153 122.949333 153.194989 123 158 112"></polygon>
                    <path d="M112.483,34.003 C112.483,34.003 112.483,34 112.486,34 C112.318,34.567 112.162,35.137 112,35.707 C112,35.704 112.003,35.704 112.003,35.704 C112.159,35.137 112.318,34.567 112.483,34.003 Z" id="Shape"></path>
                    <path d="M117.348,34.021 C117.351,34.015 117.354,34.006 117.354,34 C117.24,34.312 117.111,34.621 117,34.933 L117,34.93 C117.111,34.624 117.234,34.327 117.348,34.021 Z" id="Shape"></path>
                    <path d="M117.696,27.027 C117.699,27.018 117.705,27.009 117.708,27 C117.474,27.438 117.231,27.87 117,28.311 C117.003,28.308 117.003,28.302 117.006,28.299 C117.231,27.87 117.468,27.45 117.696,27.027 Z" id="Shape"></path>
                    <path d="M299,50 C299.695191,50.6078329 300.363508,51.2762402 301,52 C300.363508,51.2762402 299.695898,50.6067885 299,50 Z" id="Shape"></path>
                    <path d="M305,56 C305.681708,56.6439024 306.350524,57.3112195 307,58 C306.347301,57.3092683 305.681708,56.6439024 305,56 Z" id="Shape"></path>
                    <path d="M287,50 C287.671329,50 288.33683,50.072 289,50.174 C288.337995,50.069 287.672494,50 287,50 Z" id="Shape"></path>
                    <path d="M294,50 C294.680475,50.4718101 295.348157,51.1424332 296,52 C295.347548,51.1454006 294.680475,50.4718101 294,50 Z" id="Shape"></path>
                    <path d="M299,50 C299.68677,50.5729565 300.354086,51.2421696 301,52 C300.354086,51.2421696 299.686122,50.5729565 299,50 Z" id="Shape"></path>
                    <path d="M305,56 C305.690712,56.6502976 306.35798,57.3169643 307,58 C306.356177,57.3169643 305.688909,56.6488095 305,56 Z" id="Shape"></path>
                    <path d="M294,50 C294.672538,50.363 295.340272,50.753 296,51.17 C295.340272,50.753 294.674139,50.363 294,50 Z" id="Shape"></path>
                    <path d="M299,50 C299.677215,50.6386067 300.344937,51.3004354 301,52 C300.344937,51.3004354 299.677215,50.6328012 299,50 Z" id="Shape"></path>
                    <path d="M294,50 C294.671962,50.099 295.337569,50.228 296,50.384 C295.337569,50.231 294.671962,50.102 294,50 Z" id="Shape"></path>
                    <path d="M305,56 C305.72782,56.6352861 306.395489,57.3037589 307,58 C306.394486,57.3037589 305.726817,56.6359634 305,56 Z" id="Shape"></path>
                    <path d="M307,58 C306.375354,57.2929782 305.707071,56.6246973 305,56 C305.707879,56.6255044 306.376162,57.2929782 307,58 Z" id="Shape"></path>
                    <path d="M125,16 C124.999009,16 124.999009,16 124.998019,16.0013089 C124.317484,16.6387435 123.65478,17.3062827 123.004953,17.9947644 C123.002972,17.9973822 123.000991,17.9986911 123,18 C123.651808,17.3089005 124.317484,16.6400524 125,16 Z" id="Shape"></path>
                    <path d="M199.889157,23.8825372 C199.873092,23.8668755 199.858635,23.8512138 199.844177,23.8371182 C199.241767,23.2137823 198.626506,22.6014096 198,22 C198.681124,22.6530932 199.346185,23.3218481 200,24 C199.961446,23.9624119 199.927711,23.9201253 199.889157,23.8825372 Z" id="Shape"></path>
                    <path d="M125,22 C124.997635,22.0010422 124.996452,22.0031266 124.994086,22.005211 C124.31165,22.6534653 123.643406,23.3131839 123.004731,23.9958312 C123.003548,23.9979156 123.001183,23.9989578 123,24 C123.643406,23.3142262 124.314015,22.6513809 125,22 Z" id="Shape"></path>
                    <path d="M119,22 C118.995938,22.0052002 118.990521,22.0104004 118.985105,22.0145606 C118.301286,22.6583463 117.645904,23.3198128 117.008125,23.9927197 C117.005416,23.9947998 117.002708,23.9979199 117,24 C117.64455,23.3187728 118.308057,22.651066 119,22 Z" id="Shape"></path>
                    <path d="M125,16 C124.997814,16.0025173 124.995628,16.0050346 124.993443,16.0075519 C124.318033,16.6482064 123.655738,17.3039648 123.013115,17.9861548 C123.008743,17.9911894 123.004372,17.9949654 123,18 C123.650273,17.3115167 124.319126,16.6469478 125,16 Z" id="Shape"></path>
                    <path d="M125,22 C124.998897,22.0011099 124.997795,22.0022198 124.996692,22.0033296 C124.312018,22.6448391 123.651599,23.3129856 123.005513,23.9933407 C123.003308,23.9955605 123.002205,23.9977802 123,24 C123.649394,23.3163152 124.312018,22.6448391 125,22 Z" id="Shape"></path>
                    <path d="M119,27 C118.996488,27.0030151 118.992976,27.0060302 118.99122,27.0090452 C118.299385,27.6582915 117.639157,28.319598 117.007024,28.9909548 C117.005268,28.9939698 117.001756,28.9969849 117,29 C117.635645,28.321608 118.302897,27.6542714 119,27 Z" id="Shape"></path>
                    <path d="M114,34 L114,34 C113.268414,34.6577453 112.611735,35.325223 112.002497,35.999189 C112,35.999189 112,36 112,36 C112.611735,35.325223 113.270911,34.6577453 114,34 Z" id="Shape"></path>
                    <path d="M113.926,34.0007761 C113.218,34.6604579 112.555,35.3247963 112,36 C112.552,35.3247963 113.215,34.6589057 113.929,34 C113.932,34 113.926,34 113.926,34.0007761 Z" id="Shape"></path>
                    <path d="M119,27 C118.998201,27.0008726 118.998201,27.0026178 118.996403,27.0034904 C118.291367,27.6561955 117.627698,28.3219895 117.003597,28.9965096 C117.001799,28.9973822 117.001799,28.9982548 117,29 C117.625899,28.3219895 118.293165,27.6553229 119,27 Z" id="Shape"></path>
                    <path d="M130,16 C129.998955,16.0015911 129.996865,16.0031822 129.99582,16.0031822 C129.320794,16.6396181 128.657262,17.3031026 128.00627,17.9920446 C128.00418,17.9952267 128.00209,17.9968178 128,18 C128.654127,17.3062848 129.321839,16.6412092 130,16 Z" id="Shape"></path>
                    <path d="M119,27 C119,27.0018273 118.997732,27.002741 118.995465,27.0045683 C118.290249,27.6587483 117.623583,28.3211512 117.004535,28.9936044 C117.004535,28.9954317 117.002268,28.9981727 117,29 C117.621315,28.3229785 118.292517,27.6578346 119,27 Z" id="Shape"></path>
                    <path d="M119,22 C118.998577,22.0018948 118.997153,22.0037897 118.99573,22.0056845 C118.303915,22.654666 117.636299,23.3178588 117.002847,23.9962103 C117.001423,23.9971577 117,23.9990526 117,24 C117.636299,23.3188063 118.306762,22.6527712 119,22 Z" id="Shape"></path>
                    <path d="M128,36 C128.003,35.9908327 128.009,35.9831933 128.015,35.974026 C128.414,35.3063407 128.831,34.6478228 129.272,34 C128.381,34.6569901 128.021,35.3246753 128,36 Z" id="Shape"></path>
                    <path d="M204,22 C204.677596,22.6598361 205.344262,23.3237705 206,24 C205.344262,23.3237705 204.677596,22.6598361 204,22 Z" id="Shape"></path>
                    <path d="M198,22 C198.677003,22.6603175 199.348837,23.3248677 200,24 C199.348837,23.3248677 198.677003,22.6582011 198,22 Z" id="Shape"></path>
                    <path d="M199.670481,23.6462168 C199.654462,23.6298569 199.638444,23.6155419 199.622426,23.599182 C199.091533,23.0552147 198.542334,22.5296524 198,22 C198.675057,22.6584867 199.345538,23.3231084 200,24 C199.887872,23.8834356 199.78032,23.7627812 199.670481,23.6462168 Z" id="Shape"></path>
                    <path d="M130,11 C129.99906,11 129.99812,11.0019704 129.99718,11.0019704 C129.321429,11.6285714 128.656955,12.2965517 128.00188,12.9980296 C128.00094,12.9980296 128,12.9980296 128,13 C128.656955,12.2985222 129.323308,11.6285714 130,11 Z" id="Shape"></path>
                    <path d="M135,11 L135,11 C134.324178,11.6195996 133.656679,12.2792413 133.000832,13 C133,13 133,13 133,13 C133.655015,12.2813488 134.323346,11.6195996 135,11 Z" id="Shape"></path>
                    <path d="M200,18 C199.346356,17.3178543 198.679189,16.6517214 198,16 L198,16 C198.679189,16.6517214 199.346356,17.3194556 200,18 Z" id="Shape"></path>
                    <path d="M130,16 C129.999097,16 129.999097,16 129.998193,16 C129.320687,16.6335204 128.654923,17.2991179 128.001807,17.9983962 C128.000903,17.9983962 128,18 128,18 C128.653117,17.2991179 129.320687,16.6335204 130,16 Z" id="Shape"></path>
                    <path d="M198,18 C197.474663,17.7610359 196.940028,17.5279576 196.39377,17.3001766 C196.392608,17.2989994 196.391446,17.2984108 196.389121,17.2978222 C195.844026,17.0700412 195.290795,16.848146 194.725941,16.6321366 C194.724779,16.631548 194.722455,16.6309594 194.72013,16.6303708 C194.156439,16.4143614 193.582287,16.2036492 193,16 C194.750349,16.6133019 196.421664,17.2819305 198,18 L198,18 Z" id="Shape"></path>
                    <path d="M72.5,67 C69.4624286,67 67,69.4103213 67,72.383615 L67,239.616385 C67,242.589679 69.4624286,245 72.5,245 C75.5375714,245 78,242.589679 78,239.616385 L78,72.383615 C78,69.4103213 75.5375714,67 72.5,67 Z" id="Shape"></path>
                    <path d="M248.5,67 C245.462429,67 243,69.4103213 243,72.383615 L243,239.616385 C243,242.589679 245.462429,245 248.5,245 C251.537571,245 254,242.589679 254,239.616385 L254,72.383615 C254,69.4103213 251.538357,67 248.5,67 Z" id="Shape"></path>
                    <path d="M178.307071,172.651548 C177.872423,169.672552 175.148429,167.616164 172.230408,168.060325 L96.560489,179.558642 C93.640177,180.002024 91.6242986,182.776861 92.0589461,185.756636 L97.6910309,224.347997 C97.89957,225.779443 98.6581025,227.066731 99.797811,227.928559 C100.724397,228.628307 101.841189,229 102.980134,229 C103.242908,229 103.506447,228.980519 103.767694,228.940779 L179.440668,217.442462 C180.843151,217.229732 182.105081,216.456736 182.949932,215.294125 C183.794019,214.131514 184.15075,212.675134 183.941447,211.243688 L178.307071,172.651548 Z M103.424712,189.545252 L129.730436,185.547803 L133.719415,213.360077 L107.48244,217.346617 L103.424712,189.545252 Z M144.296857,211.753305 L140.307877,183.941031 L168.516425,179.655266 L172.576446,207.45741 L144.296857,211.753305 Z" id="Shape"></path>
                    <path d="M230.434264,101.287504 L162.453422,78.2820697 C161.129737,77.8340277 159.67934,77.9224473 158.420519,78.5280099 C157.162453,79.1343155 156.200047,80.2072387 155.745242,81.5119846 L142.286647,120.106755 C141.831088,121.411501 141.921596,122.841075 142.536299,124.080435 C143.151002,125.319795 144.240873,126.26789 145.565313,126.715932 L213.549926,149.716166 C214.117866,149.908608 214.696365,150 215.26506,150 C217.456871,150 219.506131,148.643986 220.258105,146.486251 L233.712175,107.895195 C234.659496,105.178708 233.191752,102.219996 230.434264,101.287504 Z M154.113829,118.608824 L153.98938,118.565728 L157.180554,109.413931 L164.016954,89.8093067 L164.039581,89.81748 L176.805787,94.1366645 L176.485991,94.9770219 L165.969672,122.619654 L154.113829,118.608824 Z M211.986394,138.188186 L175.959534,126.000403 L186.794895,97.5188988 L186.824311,97.5285581 L222.010196,109.435479 L211.986394,138.188186 Z" id="Shape"></path>
                    <path d="M289.169841,37.8797761 L219.717104,37.8797761 C217.232465,16.5879153 198.950664,0 176.82627,0 L144.17297,0 C122.047053,0 103.765253,16.5879153 101.281374,37.8797761 L31.829398,37.8797761 C14.2794474,37.8797761 0,52.0398972 0,69.4456275 L0,233.434903 C0,250.839879 14.2794474,265 31.829398,265 L289.170602,265 C306.720553,265 321,250.839879 321,233.434903 L321,69.4456275 C320.999239,52.0398972 306.720553,37.8797761 289.169841,37.8797761 Z M112.341289,36.1256986 C112.481269,35.4693341 112.649397,34.8227773 112.829697,34.1822561 C112.870778,34.0389121 112.910337,33.8955682 112.95294,33.7529786 C113.138565,33.1260374 113.338644,32.5051316 113.561547,31.8940336 C113.589695,31.8155717 113.622408,31.7386186 113.651316,31.6594022 C113.858243,31.1048874 114.082667,30.5571625 114.319263,30.0169821 C114.374037,29.8917447 114.428051,29.7657529 114.484348,29.64127 C114.749092,29.0580863 115.029812,28.4824471 115.327269,27.9181245 C115.385847,27.807976 115.447469,27.6993364 115.506808,27.5884334 C115.780681,27.0844662 116.066726,26.5887978 116.366465,26.1006739 C116.422762,26.0078775 116.476776,25.9135723 116.535354,25.8215303 C116.873892,25.2813499 117.230688,24.753995 117.600417,24.2364478 C117.683339,24.1187549 117.770066,24.0025708 117.855271,23.8871412 C118.213588,23.3990172 118.581796,22.9191921 118.965979,22.4521926 C118.998692,22.4129616 119.029122,22.3722217 119.062596,22.3322363 C119.473405,21.8380768 119.902474,21.3605151 120.342192,20.8912522 C120.444134,20.7818581 120.546836,20.6747273 120.649539,20.5668421 C121.095344,20.1043692 121.550278,19.6501952 122.02347,19.2141277 C122.060747,19.1794234 122.100306,19.1477368 122.137584,19.1130325 C122.58491,18.7041249 123.045169,18.3110607 123.516079,17.9270497 C123.626389,17.8357623 123.73746,17.7444748 123.850052,17.6546962 C124.348349,17.2586142 124.858058,16.8738488 125.380699,16.5056811 C125.467426,16.4438168 125.557196,16.3864793 125.645444,16.3253695 C126.119397,15.9986961 126.602479,15.6840938 127.093929,15.382317 C127.198914,15.3181895 127.301616,15.2517986 127.408122,15.1884254 C127.958151,14.8587343 128.518831,14.5456409 129.0894,14.2483908 C129.208078,14.1865265 129.328278,14.1284345 129.448478,14.0680791 C129.978727,13.8002522 130.516584,13.543742 131.06357,13.3038294 C131.138124,13.2713884 131.209635,13.2359297 131.28495,13.2042431 C131.884429,12.9462239 132.495318,12.7100836 133.112294,12.4882777 C133.175437,12.4656444 133.236297,12.4369756 133.300201,12.4143424 C134.003143,12.166131 134.716735,11.9420617 135.440977,11.7413801 C135.903519,11.6123706 136.371386,11.4946776 136.843056,11.3867924 C137.785637,11.1702676 138.744193,10.9952371 139.715682,10.8624553 C141.173297,10.664037 142.661341,10.5606785 144.17373,10.5606785 L176.82703,10.5606785 C177.439441,10.5606785 178.046527,10.5833117 178.651331,10.6165072 C178.826305,10.6263149 179.000519,10.6391404 179.174733,10.651966 C179.631949,10.6851614 180.086122,10.7266557 180.538013,10.7779578 C180.698533,10.7960644 180.859814,10.8119077 181.018813,10.8322776 C181.612966,10.9084762 182.204075,10.9967459 182.787578,11.1046311 C182.833984,11.11293 182.879629,11.1234922 182.926036,11.1332999 C183.466935,11.2351496 184.00251,11.3528425 184.53352,11.4810977 C184.684911,11.5180653 184.835541,11.5572963 184.986932,11.5957728 C185.451756,11.7157291 185.914297,11.8447387 186.371513,11.9843105 C186.484106,12.0190148 186.597459,12.0514558 186.709291,12.0869146 C187.283664,12.2687351 187.85119,12.4641355 188.411109,12.6761337 C188.448386,12.6912226 188.484902,12.7070658 188.522179,12.7214002 C189.041017,12.9205729 189.552247,13.13408 190.058152,13.3581493 C190.165419,13.4056791 190.271164,13.4539634 190.378431,13.5022477 C190.875207,13.7300891 191.367418,13.9669839 191.851261,14.2182131 C191.889299,14.2370741 191.927337,14.2559352 191.964614,14.2747962 C192.516925,14.5645019 193.059346,14.868542 193.593399,15.187671 C193.601768,15.1929521 193.608614,15.1982332 193.616983,15.2027598 C194.124409,15.5075544 194.621945,15.8281922 195.111113,16.1586378 C195.16741,16.1971143 195.224467,16.2363453 195.281524,16.2740674 C195.662664,16.5358588 196.038479,16.805949 196.407447,17.0820747 C196.408968,17.0828292 196.41049,17.0835836 196.411251,17.0843381 C196.780219,17.3612183 197.143101,17.6456429 197.499897,17.9376119 C197.501418,17.9383664 197.502179,17.9391208 197.50294,17.9406297 C197.860497,18.2325987 198.210446,18.5313577 198.554309,18.8376612 C198.55507,18.8384156 198.55583,18.8391701 198.556591,18.8399245 C198.900454,19.1469824 199.238231,19.4608302 199.569162,19.7822225 C199.585137,19.7980658 199.600353,19.8124002 199.615568,19.8282435 C199.913025,20.1179492 200.203635,20.4121815 200.488919,20.7132039 C200.496527,20.7207483 200.504134,20.7282927 200.51022,20.7350827 C200.527718,20.7531893 200.544455,20.7735592 200.561952,20.7916658 C200.643353,20.8784267 200.722472,20.9682053 200.803113,21.056475 C200.983413,21.2518754 201.166756,21.4465215 201.342491,21.6464486 C201.347816,21.6524841 201.353142,21.6585196 201.358467,21.6638007 C201.395744,21.7068039 201.4315,21.7505616 201.468777,21.7935648 C201.563111,21.9029588 201.655163,22.0138618 201.747975,22.1240103 C201.947294,22.3593962 202.145092,22.596291 202.336803,22.836958 C202.430376,22.953142 202.520907,23.0723439 202.612198,23.1900368 C202.800866,23.4329671 202.986491,23.6774063 203.169073,23.9263722 C203.208633,23.9799375 203.247432,24.0350118 203.28547,24.0885772 C204.116218,25.2368378 204.873934,26.4394183 205.549488,27.6925464 C205.587526,27.7627095 205.627086,27.8321182 205.664363,27.9022813 C205.805864,28.1693537 205.939758,28.4409528 206.073651,28.7125519 C206.139837,28.8460881 206.206784,28.9796244 206.271449,29.1146695 C206.387084,29.3583542 206.498155,29.6043023 206.607704,29.8502504 C206.682259,30.0192454 206.756813,30.1867315 206.829085,30.3564809 C206.926462,30.5858313 207.020036,30.8159361 207.112088,31.0483042 C207.188924,31.2421958 207.263479,31.4368418 207.337272,31.6314878 C207.418673,31.8487671 207.498553,32.0675553 207.57539,32.2870979 C207.651466,32.5036227 207.722977,32.7216565 207.794488,32.9404446 C207.862196,33.1464073 207.929143,33.3523699 207.992286,33.5598415 C208.066079,33.8020173 208.133787,34.047211 208.201495,34.2924046 C208.253987,34.482524 208.308762,34.6711345 208.35745,34.8627627 C208.430483,35.1464329 208.496669,35.4331209 208.561334,35.7198088 C208.59785,35.8774872 208.637409,36.0344111 208.670122,36.1928439 C208.765217,36.6409824 208.851943,37.0906298 208.928019,37.5455583 L197.324162,37.5455583 C197.219177,36.8250663 197.09213,36.1211719 196.944543,35.4338753 C196.940739,35.4172776 196.937696,35.399171 196.933892,35.3825732 C196.788587,34.7081021 196.620459,34.0517376 196.434073,33.4119709 C196.425705,33.3848109 196.418098,33.3561422 196.41049,33.3282278 C196.225625,32.6982688 196.018699,32.0856619 195.794275,31.4888983 C195.781342,31.4557029 195.770692,31.4209985 195.757759,31.3870487 C195.533335,30.797075 195.289131,30.225208 195.02743,29.6699388 C195.011454,29.63448 194.995478,29.5982668 194.979502,29.562808 C194.71704,29.0113109 194.434799,28.4779205 194.137342,27.9611277 C194.118323,27.9279323 194.099304,27.893228 194.080285,27.8592781 C193.779785,27.3455031 193.461788,26.8505892 193.127054,26.3730274 C193.105753,26.3420953 193.084451,26.3096543 193.062389,26.2787222 C192.725373,25.8026693 192.370099,25.3462319 191.998848,24.9079011 C191.976786,24.8814957 191.953963,24.8543358 191.931901,24.8279303 C191.556847,24.3895995 191.164296,23.9708842 190.756529,23.5725389 C190.735227,23.5514145 190.712405,23.5287812 190.690343,23.5069024 C190.278011,23.1085571 189.849704,22.7298272 189.405421,22.3714673 C189.38488,22.3548696 189.36434,22.3375174 189.343799,22.3216741 C188.894191,21.9625598 188.429367,21.6260786 187.948567,21.3107219 C187.930309,21.2978964 187.91129,21.2858253 187.892271,21.2729998 C187.406146,20.9568886 186.905566,20.6626563 186.38825,20.392566 C186.373035,20.3842672 186.35782,20.3767228 186.342605,20.3684239 C185.820724,20.0968248 185.283628,19.847859 184.732078,19.6230352 C184.719145,19.6185086 184.707733,19.6132275 184.694801,19.6079464 C184.138686,19.3831227 183.567356,19.1824411 182.981571,19.0051473 C182.972442,19.002884 182.964074,18.9998662 182.954945,18.9976029 C182.364596,18.8210634 181.759792,18.6686662 181.140534,18.5434288 C181.135209,18.5426744 181.129884,18.5411655 181.125319,18.540411 C180.502257,18.4144192 179.865502,18.3140785 179.213532,18.241652 C179.21201,18.2408976 179.209728,18.2408976 179.207445,18.2408976 C178.553953,18.1677167 177.886768,18.1216958 177.205128,18.1028347 L177.205128,18.1028347 C176.982225,18.0967992 176.759323,18.0885003 176.533377,18.0885003 L144.468905,18.0885003 C143.936374,18.0885003 143.414493,18.1111336 142.898698,18.1435746 C142.805886,18.1496101 142.711551,18.1541368 142.6195,18.1609267 C142.125006,18.1986488 141.63812,18.2507053 141.158842,18.3186051 C141.069073,18.3314306 140.980825,18.345765 140.891055,18.359345 C140.396562,18.4347892 139.908154,18.52155 139.431158,18.6286808 C139.425072,18.6301896 139.418986,18.6316985 139.413661,18.6332074 C138.936665,18.7410926 138.47108,18.8685933 138.010821,19.0066562 C137.937028,19.028535 137.863234,19.0496594 137.790201,19.0722926 C137.342875,19.2133733 136.905438,19.3687883 136.47637,19.5370289 C136.404859,19.5649432 136.334108,19.5943665 136.264118,19.6230352 C135.371748,19.9874307 134.518176,20.4136904 133.705686,20.899551 C133.657758,20.9274654 133.610591,20.9546253 133.563424,20.9832941 C133.165547,21.2262244 132.77832,21.4842436 132.400984,21.7565971 C132.353056,21.7913014 132.30665,21.8252513 132.258722,21.8599556 C131.478183,22.434086 130.741769,23.0670628 130.054042,23.7596405 C130.03198,23.7815193 130.009158,23.8033981 129.987096,23.8260314 C129.647036,24.1715658 129.319149,24.5336979 129.001913,24.9079011 C128.975286,24.9403421 128.947899,24.9727832 128.920511,25.0052242 C128.270823,25.7830538 127.672106,26.6197299 127.128924,27.5129892 C127.124359,27.5212881 127.118273,27.5288325 127.113709,27.5371314 C126.843639,27.9822521 126.588024,28.4417073 126.344581,28.9147424 C126.330127,28.9426567 126.315672,28.97208 126.301218,28.9999943 C125.809768,29.96568 125.373853,30.98644 124.999559,32.0622742 C124.887728,32.382912 124.781221,32.7073221 124.68004,33.0377676 C124.678519,33.0422943 124.676997,33.0460665 124.676237,33.0505932 C124.243365,34.4659263 123.906348,35.964248 123.67736,37.543295 L112.069698,37.543295 C112.150339,37.0710143 112.240108,36.5964704 112.341289,36.1256986 Z M186.592134,37.8797761 L134.410909,37.8797761 C135.312409,33.3048401 137.854105,28.6552143 144.469666,28.6552143 L176.534138,28.6552143 C183.148938,28.6544599 185.691395,33.3040857 186.592134,37.8797761 Z M10.6506267,176.081471 L32.9378239,168.83053 L35.9047843,177.884587 L43.8737353,202.201761 L10.6506267,213.012914 L10.6506267,176.081471 Z M310.348613,233.434903 C310.348613,245.016341 300.848253,254.437813 289.169841,254.437813 L39.4369885,254.437813 L31.829398,254.437813 C20.1509858,254.437813 10.6506267,245.015587 10.6506267,233.434903 L10.6506267,224.129616 L18.2582173,221.654292 L52.2398026,210.595682 C55.0287453,209.688088 56.5510242,206.714078 55.6441994,203.945276 L41.4157228,160.52865 C40.9790471,159.194042 40.0235338,158.087276 38.7621953,157.451282 C37.5008567,156.816041 36.0356348,156.705138 34.6913736,157.142715 L18.2582173,162.490199 L10.6506267,164.965523 L10.6506267,69.4456275 C10.6506267,57.8634346 20.1509858,48.4419635 31.829398,48.4419635 L289.170602,48.4419635 C289.608799,48.4419635 290.043193,48.4600701 290.476065,48.4857211 C290.603111,48.49402 290.728637,48.5045822 290.854162,48.5143899 C291.175963,48.5392865 291.494721,48.5717275 291.811957,48.6109585 C291.933679,48.6268018 292.0554,48.6403817 292.176361,48.6577339 C293.026129,48.7776902 293.859921,48.9489485 294.673933,49.1662278 C294.779678,49.1941421 294.883142,49.2250742 294.988126,49.2544975 C295.308406,49.3457849 295.624882,49.4438624 295.938315,49.5487298 C296.033409,49.5811708 296.129265,49.612103 296.22436,49.6452984 C297.030004,49.9282141 297.812825,50.2586597 298.570541,50.6328629 C298.640531,50.6668128 298.708999,50.703026 298.778228,50.7384848 C299.103833,50.9037076 299.424873,51.0764748 299.739828,51.2582953 C299.797645,51.2914907 299.855463,51.3239318 299.913281,51.3571272 C300.661107,51.795458 301.380024,52.2790553 302.064707,52.8018835 C302.09742,52.8267801 302.129372,52.8524312 302.162084,52.8780822 C302.484646,53.127048 302.79884,53.3850672 303.106186,53.6513852 C303.128248,53.6710007 303.151071,53.6898617 303.173133,53.7087228 C303.838797,54.2926608 304.467184,54.9173388 305.056012,55.5782299 C305.063619,55.5880377 305.071988,55.5963365 305.079595,55.6061443 C305.370966,55.9358354 305.652447,56.2738254 305.923277,56.6201143 C305.925559,56.6238865 305.928602,56.6276587 305.931645,56.6314309 C306.483957,57.3390975 306.990622,58.0837317 307.44936,58.859298 C307.44936,58.8600524 307.450121,58.8608069 307.450881,58.8623158 C309.289636,61.9728799 310.349373,65.5889202 310.349373,69.4478908 L310.349373,233.434903 L310.348613,233.434903 Z" id="Shape"></path>
                </g>
            </g>
        </g>
    </g>
</svg>