<?xml version="1.0" encoding="UTF-8"?>
<svg width="290px" height="290px" viewBox="0 0 290 290" version="1.1" xmlns="http://www.w3.org/2000/svg" xmlns:xlink="http://www.w3.org/1999/xlink">
    <!-- Generator: Sketch 46.2 (44496) - http://www.bohemiancoding.com/sketch -->
    <title>zend_big</title>
    <desc>Created with Sketch.</desc>
    <defs>
        <polygon id="path-1" points="6.03970732 0.0814916865 6.03970732 5.93013777 0.129976771 5.93013777 0.129976771 0.0814916865"></polygon>
        <polygon id="path-3" points="0.123438328 0.025368171 6.0333849 0.025368171 6.0333849 5.87355819 0.123438328 5.87355819"></polygon>
    </defs>
    <g id="Large" stroke="none" stroke-width="1" fill="none" fill-rule="evenodd">
        <g id="big" transform="translate(-1681.000000, -346.000000)">
            <g id="Group-Copy-10" transform="translate(1681.000000, 346.000000)">
                <rect id="Rectangle-11" x="0" y="0" width="290" height="290"></rect>
                <g id="frontend_big" transform="translate(60.000000, 55.000000)">
                    <g id="Page-1">
                        <g id="Group-3" transform="translate(117.951220, 27.053017)">
                            <g id="Fill-1-Clipped">
                                <mask id="mask-2" fill="white">
                                    <use xlink:href="#path-1"></use>
                                </mask>
                                <g id="path-1"></g>
                                <path d="M6.03977933,3.00595724 C6.03977933,4.6208266 4.71711266,5.93013777 3.08581417,5.93013777 C1.45365157,5.93013777 0.129976771,4.6208266 0.129976771,3.00595724 C0.129976771,1.39051781 1.45365157,0.0814916865 3.08581417,0.0814916865 C4.71711266,0.0814916865 6.03977933,1.39051781 6.03977933,3.00595724" id="Fill-1" fill="#FEFEFE" fill-rule="nonzero" mask="url(#mask-2)"></path>
                            </g>
                        </g>
                        <g id="Group-6" transform="translate(27.219512, 0.117150)">
                            <g id="Fill-4-Clipped">
                                <mask id="mask-4" fill="white">
                                    <use xlink:href="#path-3"></use>
                                </mask>
                                <g id="path-3"></g>
                                <path d="M6.0333849,2.94966271 C6.0333849,4.56438955 4.7104302,5.87355819 3.07841161,5.87355819 C1.44682509,5.87355819 0.123438328,4.56438955 0.123438328,2.94966271 C0.123438328,1.33550594 1.44682509,0.0253396675 3.07841161,0.0253396675 C4.7104302,0.0253396675 6.0333849,1.33550594 6.0333849,2.94966271" id="Fill-4" fill="#FEFEFE" fill-rule="nonzero" mask="url(#mask-4)"></path>
                            </g>
                        </g>
                        <path d="M5.90996098,30.0589739 C5.90996098,31.6738432 4.58700627,32.9831544 2.95455563,32.9831544 C1.32268107,32.9831544 1.44018583e-05,31.6738432 1.44018583e-05,30.0589739 C1.44018583e-05,28.4435344 1.32268107,27.1345083 2.95455563,27.1345083 C4.58700627,27.1345083 5.90996098,28.4435344 5.90996098,30.0589739" id="Fill-7" fill="#FEFEFE" fill-rule="nonzero"></path>
                        <path d="M33.2528971,30.0589739 C33.2528971,31.6738432 31.9299424,32.9831544 30.2979238,32.9831544 C28.6663373,32.9831544 27.3429505,31.6738432 27.3429505,30.0589739 C27.3429505,28.4435344 28.6663373,27.1345083 30.2979238,27.1345083 C31.9299424,27.1345083 33.2528971,28.4435344 33.2528971,30.0589739" id="Fill-9" fill="#FEFEFE" fill-rule="nonzero"></path>
                        <path d="M5.90996098,57.0503088 C5.90996098,58.6647506 4.58700627,59.9746318 2.95455563,59.9746318 C1.32268107,59.9746318 1.44018583e-05,58.6647506 1.44018583e-05,57.0503088 C1.44018583e-05,55.435867 1.32268107,54.1271259 2.95455563,54.1271259 C4.58700627,54.1271259 5.90996098,55.435867 5.90996098,57.0503088" id="Fill-11" fill="#FEFEFE" fill-rule="nonzero"></path>
                        <path d="M60.4619247,57.0503088 C60.4619247,58.6647506 59.1395461,59.9746318 57.5069515,59.9746318 C55.8746448,59.9746318 54.5519782,58.6647506 54.5519782,57.0503088 C54.5519782,55.435867 55.8746448,54.1271259 57.5069515,54.1271259 C59.1395461,54.1271259 60.4619247,55.435867 60.4619247,57.0503088" id="Fill-13" fill="#FEFEFE" fill-rule="nonzero"></path>
                        <path d="M78.6456102,39.0559667 C78.6456102,40.6712637 77.3227995,41.9802898 75.6904929,41.9802898 C74.0584743,41.9802898 72.7366718,40.6712637 72.7366718,39.0559667 C72.7366718,37.4408124 74.0584743,36.1317862 75.6904929,36.1317862 C77.3227995,36.1317862 78.6456102,37.4408124 78.6456102,39.0559667" id="Fill-15" fill="#FEFEFE" fill-rule="nonzero"></path>
                        <path d="M96.8290077,57.0503088 C96.8290077,58.6647506 95.5056209,59.9746318 93.8753305,59.9746318 C92.2430239,59.9746318 90.9193491,58.6647506 90.9193491,57.0503088 C90.9193491,55.435867 92.2430239,54.1271259 93.8753305,54.1271259 C95.5056209,54.1271259 96.8290077,55.435867 96.8290077,57.0503088" id="Fill-17" fill="#FEFEFE" fill-rule="nonzero"></path>
                        <path d="M33.1857412,57.0503088 C33.1857412,58.6647506 31.8629305,59.9746318 30.2307679,59.9746318 C28.5994695,59.9746318 27.2757947,58.6647506 27.2757947,57.0503088 C27.2757947,55.4351544 28.5994695,54.1271259 30.2307679,54.1271259 C31.8629305,54.1271259 33.1857412,55.4351544 33.1857412,57.0503088" id="Fill-19" fill="#FEFEFE" fill-rule="nonzero"></path>
                        <polygon id="Fill-21" fill="#FEFEFE" fill-rule="nonzero" points="14.7288525 39.1428884 5.52059233 30.0304418 31.4859907 4.33718765 28.9174193 1.7943848 0.383305459 30.0304418 12.159561 41.6846936"></polygon>
                        <polygon id="Fill-23" fill="#FEFEFE" fill-rule="nonzero" points="18.3826904 47.8425891 28.9164976 58.2679097 31.4865092 55.7255344 20.9511178 45.3012114"></polygon>
                        <polygon id="Fill-25" fill="#FEFEFE" fill-rule="nonzero" points="93.7826834 59.5394964 75.6168994 41.5618717 57.4514035 59.5394964 30.2015034 32.5738432 4.23639303 58.2679525 1.66767758 55.7254347 30.2015034 27.4888076 57.4514035 54.4543183 75.6168994 36.4772637 93.7826834 54.4543183 119.74909 28.7600665 122.317373 31.3017292"></polygon>
                    </g>
                    <g id="Group-53" transform="translate(15.000000, 84.000000)" fill="#FFFFFF">
                        <polygon id="Fill-21" points="17.4494535 24.7345485 0.644392929 24.7345485 0.644392929 21.132104 9.98942323 7.87236667 0.869069697 7.87236667 0.869069697 3.16938687 17.2133525 3.16938687 17.2133525 6.74898283 7.87593838 20.0315687 17.4494535 20.0315687"></polygon>
                        <path d="M27.1909051,11.6518869 C26.5092586,11.6518869 25.9418545,11.8613313 25.4848848,12.2954525 C25.0317232,12.7181495 24.7613495,13.3883717 24.6813798,14.298503 L29.639501,14.298503 C29.6204606,13.4988061 29.3881677,12.8552404 28.9502384,12.3678061 C28.5161172,11.8879879 27.9258646,11.6518869 27.1909051,11.6518869 M27.5298242,25.0296747 C24.7461172,25.0296747 22.5831273,24.287099 21.0446626,22.8057556 C19.506198,21.3282202 18.7331576,19.2223515 18.7331576,16.4919576 C18.7331576,13.6663616 19.4490768,11.4995636 20.873299,9.99156364 C22.3013293,8.47975556 24.3386525,7.72956364 26.9852687,7.72956364 C29.498602,7.72956364 31.4445313,8.38455354 32.8192485,9.69072525 C34.1863495,11.0045131 34.8756121,12.9009374 34.8756121,15.3685737 L34.8756121,17.9314121 L24.5671374,17.9314121 C24.6014101,18.8682 24.9479455,19.5993515 25.5953192,20.1286747 C26.2350768,20.6656141 27.1109354,20.9321798 28.2228949,20.9321798 C29.2358444,20.9321798 30.1650162,20.8331697 31.0180263,20.6351495 C31.8634202,20.4523616 32.7925919,20.1210586 33.7788848,19.6640889 L33.7788848,23.8072808 C32.8801778,24.2680586 31.9433899,24.5841293 30.9837535,24.7631091 C30.016501,24.9382808 28.8664606,25.0296747 27.5298242,25.0296747" id="Fill-23"></path>
                        <path d="M48.0907949,24.7345485 L48.0907949,15.618003 C48.0907949,14.5098515 47.9346636,13.6682657 47.6147848,13.1008616 C47.2987141,12.5372657 46.7808152,12.2516596 46.0725121,12.2516596 C45.1014515,12.2516596 44.3969566,12.6400838 43.9628354,13.4131242 C43.5287141,14.1937808 43.3154616,15.5266091 43.3154616,17.4154172 L43.3154616,24.7345485 L37.5462192,24.7345485 L37.5462192,8.02088182 L41.8988556,8.02088182 L42.6223909,10.0810535 L42.9651182,10.0810535 C43.4525525,9.30039697 44.1303909,8.71014444 45.0024414,8.31410404 C45.8744919,7.92187172 46.8760172,7.7276596 48.0108253,7.7276596 C49.8501283,7.7276596 51.2933909,8.26459899 52.3215727,9.33847778 C53.3459465,10.4047404 53.8638455,11.9165485 53.8638455,13.8624778 L53.8638455,24.7345485 L48.0907949,24.7345485 Z" id="Fill-25"></path>
                        <path d="M64.914896,20.4691172 C65.8364515,20.4691172 66.4914414,20.1835111 66.8722495,19.5970667 C67.2492495,19.0182384 67.4548859,18.1271475 67.4815424,16.9123697 L67.4815424,16.4554 C67.4815424,14.9854808 67.272098,13.9306424 66.849401,13.3099253 C66.422896,12.6854 65.764098,12.3693293 64.8539667,12.3693293 C64.0999667,12.3693293 63.5059061,12.7349051 63.0908253,13.4432081 C62.6757444,14.1553192 62.4663,15.1720768 62.4663,16.4896727 C62.4663,17.7882283 62.6795525,18.7783293 63.0984414,19.4523596 C63.5211384,20.1263899 64.1266232,20.4691172 64.914896,20.4691172 M62.5500778,25.0273899 C61.3619566,25.0273899 60.3223505,24.6846626 59.4388758,24.0106323 C58.5439768,23.336602 57.8585222,22.3388848 57.3710879,21.0212889 C56.8836535,19.7036929 56.6399364,18.1652283 56.6399364,16.4020869 C56.6399364,13.6869253 57.1844919,11.5620162 58.2774111,10.0273596 C59.3703303,8.49270303 60.8707141,7.72727879 62.7747545,7.72727879 C63.7153505,7.72727879 64.5264717,7.91387475 65.2309667,8.28706667 C65.9354616,8.66025859 66.5790273,9.28859192 67.1540475,10.1758747 L67.2797141,10.1758747 C67.0893101,8.86208687 66.9903,7.55972323 66.9903,6.24974343 L66.9903,1.78286465 L72.8052394,1.78286465 L72.8052394,24.7341677 L68.4564111,24.7341677 L67.2149768,22.6206828 L66.9903,22.6206828 C66.0040071,24.2276929 64.5188556,25.0273899 62.5500778,25.0273899" id="Fill-27"></path>
                        <path d="M10.4151667,42.6706091 L6.43191414,42.6706091 L6.43191414,56.3644677 L2.95132828,56.3644677 L2.95132828,42.6706091 L0.266631313,42.6706091 L0.266631313,41.0521747 L2.95132828,39.9897202 L2.95132828,38.9310737 C2.95132828,36.9965687 3.40068182,35.5685384 4.30700505,34.6431747 C5.21332828,33.714003 6.59566162,33.2456091 8.45019697,33.2456091 C9.66878283,33.2456091 10.8721364,33.4474374 12.0450253,33.854902 L11.1348939,36.4824778 C10.2780758,36.2044879 9.46314646,36.0635889 8.68629798,36.0635889 C7.89802525,36.0635889 7.33062121,36.3073061 6.96885354,36.7947404 C6.60708586,37.2821747 6.43191414,38.0133263 6.43191414,38.9843869 L6.43191414,40.0506495 L10.4151667,40.0506495 L10.4151667,42.6706091 Z" id="Fill-29"></path>
                        <path d="M21.3672071,39.7513343 C22.0678939,39.7513343 22.6391061,39.8008394 23.0960758,39.9036576 L22.7533485,43.1329101 C22.258298,43.0110515 21.7518232,42.9577384 21.2186919,42.9577384 C19.8287424,42.9577384 18.7091667,43.4109 17.8485404,44.3096071 C16.9841061,45.2159303 16.557601,46.3926273 16.557601,47.8358899 L16.557601,56.3621828 L13.0884394,56.3621828 L13.0884394,40.0483646 L15.803601,40.0483646 L16.2605707,42.9310818 L16.4395505,42.9310818 C16.9841061,41.9524051 17.6847929,41.1793646 18.5568434,40.6081525 C19.4288939,40.0445566 20.3618737,39.7513343 21.3672071,39.7513343" id="Fill-31"></path>
                        <path d="M30.619701,54.0053616 C31.8839838,54.0053616 32.8893172,53.6550182 33.6509333,52.9543313 C34.4163576,52.2498364 34.7933576,51.2559273 34.7933576,49.9878364 L34.7933576,48.5750384 L32.6989131,48.6664323 C31.0690545,48.7197455 29.8809333,48.9939273 29.1383576,49.4813616 C28.3957818,49.968796 28.0225899,50.7151798 28.0225899,51.7167051 C28.0225899,52.4440485 28.2434586,53.0076444 28.6737717,53.4074929 C29.1078929,53.8035333 29.7590747,54.0053616 30.619701,54.0053616 L30.619701,54.0053616 Z M35.7872667,56.3625636 L35.0865798,54.0929475 L34.9723374,54.0929475 C34.1878727,55.0868566 33.3957919,55.7608869 32.599903,56.1264626 C31.8040141,56.4768061 30.7758323,56.6595939 29.5305899,56.6595939 C27.9235798,56.6595939 26.6783374,56.2292808 25.7758222,55.3610384 C24.8771152,54.492796 24.4277616,53.2742101 24.4277616,51.6938566 C24.4277616,50.0030687 25.0522869,48.7349778 26.3013374,47.8781596 C27.5465798,47.0289576 29.4468121,46.5605636 32.0058424,46.4767859 L34.8238222,46.3930081 L34.8238222,45.5209576 C34.8238222,44.4775434 34.5839131,43.704503 34.1002869,43.1789879 C33.6052364,42.6610889 32.8550444,42.4135636 31.8268626,42.4135636 C30.9928929,42.4135636 30.193196,42.5316141 29.4239636,42.7753313 C28.6623475,43.0266646 27.9235798,43.3122707 27.2152768,43.6473818 L26.0918929,41.1645131 C26.9753677,40.7075434 27.9502364,40.3572 28.9974586,40.1134828 C30.0484889,39.8773818 31.0462061,39.7517152 31.9829939,39.7517152 C34.058398,39.7517152 35.6197111,40.2124929 36.6745495,41.1073919 C37.737004,42.0175232 38.2625192,43.4379374 38.2625192,45.3724424 L38.2625192,56.3625636 L35.7872667,56.3625636 Z" id="Fill-33"></path>
                        <path d="M55.219903,56.3633253 L51.7393172,56.3633253 L51.7393172,46.3023758 C51.7393172,45.0533253 51.4994081,44.1203455 51.0310141,43.5072444 C50.5588121,42.8941434 49.8238525,42.589497 48.8147111,42.589497 C47.4742667,42.589497 46.499398,43.0198101 45.8748727,43.8918606 C45.2503475,44.7639111 44.9380848,46.2109818 44.9380848,48.2330727 L44.9380848,56.3633253 L41.4727313,56.3633253 L41.4727313,40.0495071 L44.1840848,40.0495071 L44.6715192,42.1820323 L44.8466909,42.1820323 C45.2998525,41.4089919 45.9548424,40.8111232 46.8192768,40.3846182 C47.679903,39.9657293 48.6243071,39.7524768 49.6601051,39.7524768 C52.1658222,39.7524768 53.8299535,40.6054869 54.6448828,42.3191232 L54.8809838,42.3191232 C55.360802,41.5156182 56.0386404,40.8872848 56.914499,40.4265071 C57.7941657,39.9809616 58.7918828,39.7524768 59.9266909,39.7524768 C61.8726202,39.7524768 63.2930343,40.2475273 64.1841253,41.226204 C65.0714081,42.2086889 65.5207616,43.7090727 65.5207616,45.7235475 L65.5207616,56.3633253 L62.0516,56.3633253 L62.0516,46.3023758 C62.0516,45.0533253 61.8116909,44.1203455 61.3356808,43.5072444 C60.8558626,42.8941434 60.1170949,42.589497 59.1155697,42.589497 C57.7675091,42.589497 56.7812162,43.0045778 56.1566909,43.8499717 C55.5321657,44.6877495 55.219903,45.9748808 55.219903,47.7151737 L55.219903,56.3633253 Z" id="Fill-35"></path>
                        <path d="M75.9076828,42.3766253 C74.8071475,42.3766253 73.9236727,42.7269687 73.2610667,43.4238475 C72.5946525,44.1283424 72.2062283,45.1489081 72.0767535,46.4779283 L79.4796626,46.4779283 C79.4644303,45.1336758 79.1369354,44.1131101 78.508602,43.4162313 C77.8802687,42.7269687 77.0082182,42.3766253 75.9076828,42.3766253 M76.5474404,56.6607364 C74.0036424,56.6607364 72.0196323,55.9219687 70.591602,54.4368172 C69.1597636,52.9592818 68.4476525,50.9219586 68.4476525,48.3248475 C68.4476525,45.6591909 69.1102586,43.5647465 70.4392788,42.0377061 C71.7644909,40.5182818 73.5923697,39.7528576 75.9076828,39.7528576 C78.0592485,39.7528576 79.7652687,40.4040394 81.0143192,41.7140192 C82.2671778,43.0278071 82.8878949,44.8252212 82.8878949,47.1100697 L82.8878949,48.9836455 L72.0158242,48.9836455 C72.0691374,50.5678071 72.4918343,51.790201 73.2953394,52.639403 C74.1026525,53.4886051 75.2412687,53.9151101 76.7073798,53.9151101 C77.6708242,53.9151101 78.5657232,53.8237162 79.3996929,53.6447364 C80.2260465,53.4619485 81.1209455,53.1534939 82.0805818,52.7384131 L82.0805818,55.5525848 C81.2275717,55.9562414 80.3783697,56.2456556 79.5063192,56.4132111 C78.6456929,56.5769586 77.6555919,56.6607364 76.5474404,56.6607364" id="Fill-37"></path>
                        <path d="M100.206285,56.3633253 L98.0966081,48.7509717 C97.8414667,47.9474667 97.3806889,46.0738909 96.7104667,43.1302444 L96.5809919,43.1302444 C96.0059717,45.7882848 95.5528101,47.6694768 95.217699,48.7852444 L93.0547091,56.3633253 L89.2161636,56.3633253 L84.6464667,40.0495071 L88.1879818,40.0495071 L90.2633859,48.0883657 C90.739396,50.0761838 91.070699,51.7745879 91.2649111,53.1911939 L91.3601131,53.1911939 C91.4515071,52.4752747 91.6038303,51.6489212 91.8094667,50.7235576 C92.0112949,49.7943859 92.1864667,49.0975071 92.3273657,48.6405374 L94.8102343,40.0495071 L98.6145071,40.0495071 L101.025022,48.6405374 C101.165921,49.1203556 101.356325,49.8591232 101.573386,50.8492242 C101.798063,51.8393253 101.919921,52.6123657 101.965618,53.1607293 L102.079861,53.1607293 C102.232184,51.9573758 102.571103,50.2589717 103.115659,48.0883657 L105.225335,40.0495071 L108.702113,40.0495071 L104.101952,56.3633253 L100.206285,56.3633253 Z" id="Fill-39"></path>
                        <path d="M113.411947,48.1782364 C113.411947,51.9406202 114.798089,53.8218121 117.589412,53.8218121 C120.338846,53.8218121 121.72118,51.9406202 121.72118,48.1782364 C121.72118,44.4501253 120.33123,42.5879737 117.555139,42.5879737 C116.100453,42.5879737 115.045614,43.0677919 114.394432,44.0312364 C113.735634,44.9984889 113.411947,46.3770141 113.411947,48.1782364 M125.285543,48.1782364 C125.285543,50.8400848 124.603897,52.9231051 123.232988,54.4196808 C121.869695,55.9162566 119.965655,56.6626404 117.524675,56.6626404 C116.005251,56.6626404 114.653382,56.312297 113.488109,55.6230343 C112.311412,54.9375798 111.412705,53.9512869 110.78818,52.6603475 C110.156038,51.3770242 109.843776,49.8766404 109.843776,48.1782364 C109.843776,45.5316202 110.513998,43.4676404 111.873483,41.9824889 C113.236776,40.4935293 115.144624,39.7509535 117.616069,39.7509535 C119.977079,39.7509535 121.83923,40.5087616 123.221564,42.0319939 C124.600089,43.5476101 125.285543,45.5963576 125.285543,48.1782364" id="Fill-41"></path>
                        <path d="M136.003768,39.7513343 C136.708263,39.7513343 137.279475,39.8008394 137.732636,39.9036576 L137.389909,43.1329101 C136.894859,43.0110515 136.388384,42.9577384 135.859061,42.9577384 C134.469111,42.9577384 133.349535,43.4109 132.485101,44.3096071 C131.628283,45.2159303 131.190354,46.3926273 131.190354,47.8358899 L131.190354,56.3621828 L127.725,56.3621828 L127.725,40.0483646 L130.44397,40.0483646 L130.900939,42.9310818 L131.076111,42.9310818 C131.616859,41.9524051 132.325162,41.1793646 133.193404,40.6081525 C134.061646,40.0445566 134.994626,39.7513343 136.003768,39.7513343" id="Fill-43"></path>
                        <polygon id="Fill-45" points="143.229601 47.7467808 145.190763 45.2981848 150.118419 40.0506495 154.113096 40.0506495 147.547965 47.0537101 154.528177 56.3644677 150.45353 56.3644677 145.221227 49.2090838 143.317187 50.770397 143.317187 56.3644677 139.874682 56.3644677 139.874682 33.4055485 143.317187 33.4055485 143.317187 44.6089222 143.142015 47.7467808"></polygon>
                        <path d="M8.65621414,84.0686364 C10.0804364,84.0686364 11.1238505,83.672596 11.7712242,82.872899 C12.418598,82.0693939 12.7575172,80.7670303 12.7765576,78.9658081 L12.7765576,78.4783737 C12.7765576,76.4220101 12.4414465,74.9635152 11.7712242,74.1028889 C11.101002,73.2308384 10.0537798,72.7967172 8.62955758,72.7967172 C7.41097172,72.7967172 6.46656768,73.2917677 5.81157778,74.2856768 C5.1527798,75.2719697 4.81766869,76.6809596 4.81766869,78.5088384 C4.81766869,80.3214848 5.13754747,81.7000101 5.78492121,82.6482222 C6.42467879,83.5964343 7.38050707,84.0686364 8.65621414,84.0686364 M7.72323434,86.8713838 C5.68971919,86.8713838 4.10555758,86.1402323 2.95932525,84.662697 C1.82070909,83.1851616 1.25330505,81.1173737 1.25330505,78.4517172 C1.25330505,75.7746364 1.82832525,73.6878081 2.98598182,72.1988485 C4.1398303,70.713697 5.74303232,69.9673131 7.78797172,69.9673131 C9.92811313,69.9673131 11.5655879,70.7555859 12.6851636,72.3397475 L12.8603354,72.3397475 C12.6927798,71.1744747 12.6128101,70.245303 12.6128101,69.5712727 L12.6128101,63.6268586 L16.093396,63.6268586 L16.093396,86.5781616 L13.3782343,86.5781616 L12.7765576,84.4418283 L12.6128101,84.4418283 C11.5008505,86.0602626 9.87099192,86.8713838 7.72323434,86.8713838" id="Fill-47"></path>
                        <path d="M25.0675192,84.2171515 C26.3279939,84.2171515 27.3371354,83.8668081 28.1025596,83.1661212 C28.8603677,82.4578182 29.2487919,81.4753333 29.2487919,80.2072424 L29.2487919,78.7868283 L27.1429232,78.8782222 C25.5130646,78.9391515 24.3287515,79.2133333 23.5823677,79.6931515 C22.8436,80.1767778 22.4666,80.9269697 22.4666,81.9284949 C22.4666,82.6634545 22.6874687,83.2194343 23.1139737,83.6230909 C23.5557111,84.0191313 24.2030848,84.2171515 25.0675192,84.2171515 L25.0675192,84.2171515 Z M30.2312768,86.5781616 L29.5382061,84.3047374 L29.4201556,84.3047374 C28.6318828,85.3024545 27.8436101,85.9802929 27.0439131,86.3344444 C26.2518323,86.688596 25.2236505,86.8713838 23.9746,86.8713838 C22.371398,86.8713838 21.1223475,86.4410707 20.2236404,85.5728283 C19.3211253,84.712202 18.8717717,83.486 18.8717717,81.9018384 C18.8717717,80.2224747 19.496297,78.9505758 20.7453475,78.0975657 C21.9905899,77.2369394 23.8908222,76.7723535 26.4536606,76.6923838 L29.2716404,76.604798 L29.2716404,75.7327475 C29.2716404,74.6931414 29.0279232,73.9124848 28.544297,73.3983939 C28.0568626,72.8804949 27.3028626,72.6253535 26.2784889,72.6253535 C25.4445192,72.6253535 24.6410141,72.739596 23.8717818,72.9947374 C23.1063576,73.2346465 22.3675899,73.5278687 21.6630949,73.8629798 L20.5397111,71.3839192 C21.4231859,70.9231414 22.3904384,70.5689899 23.4452768,70.3328889 C24.5001152,70.0853636 25.4940242,69.9673131 26.427004,69.9673131 C28.5024081,69.9673131 30.0637212,70.4204747 31.1261758,71.3191818 C32.1772061,72.2369293 32.7065293,73.6497273 32.7065293,75.5842323 L32.7065293,86.5781616 L30.2312768,86.5781616 Z" id="Fill-49"></path>
                        <path d="M34.520699,70.2605354 L38.290699,70.2605354 L41.6151535,79.5103636 C42.110204,80.8279596 42.4491232,82.0693939 42.6166788,83.2270505 L42.7347293,83.2270505 C42.8223152,82.6901111 42.9822545,82.0351212 43.2221636,81.2620808 C43.4582646,80.4890404 44.7035071,76.8218586 46.9655071,70.2605354 L50.7164667,70.2605354 L43.7324465,88.7449596 C42.4681636,92.1417677 40.3508707,93.8325556 37.3919919,93.8325556 C36.6303758,93.8325556 35.8801838,93.7525859 35.1528404,93.5850303 L35.1528404,90.8432121 C35.6707394,90.9650707 36.2686081,91.0183838 36.9350222,91.0183838 C38.6105778,91.0183838 39.7834667,90.0511313 40.4613051,88.1090101 L41.070598,86.5781616 L34.520699,70.2605354 Z" id="Fill-51"></path>
                    </g>
                </g>
            </g>
        </g>
    </g>
</svg>