<svg width="73" height="200" viewBox="0 0 73 200" fill="none" xmlns="http://www.w3.org/2000/svg">
    <g filter="url(#filter0_d)">
        <rect x="12" y="9" width="61" height="176" fill="#F5F3EB"/>
    </g>
    <path d="M51 159.32L51 148.66L48.26 148.66L48.26 156.26L45.32 156.26L45.32 149.66L42.58 149.66L42.58 156.26L39.74 156.26L39.74 148.76L37 148.76L37 159.32L51 159.32ZM51 147.142L51 143.962L47.66 141.802L51 139.642L51 136.382L45.5 140.162L40.28 136.542L40.28 139.722L43.4 141.742L40.28 143.742L40.28 147.002L45.56 143.382L51 147.142ZM54.2 134.562L54.2 131.522L49.6 131.522C50.46 130.802 51.2 129.802 51.2 128.182C51.2 125.642 49.24 123.302 45.66 123.302C42.04 123.302 40.08 125.682 40.08 128.182C40.08 129.762 40.82 130.782 41.82 131.522L40.28 131.522L40.28 134.562L54.2 134.562ZM48.62 128.962C48.62 130.382 47.44 131.562 45.66 131.562C43.84 131.562 42.66 130.382 42.66 128.962C42.66 127.542 43.84 126.342 45.62 126.342C47.46 126.342 48.62 127.542 48.62 128.962ZM51 120.926L51 117.886L36.4 117.886L36.4 120.926L51 120.926ZM51.24 109.771C51.24 106.431 48.74 103.951 45.66 103.951C42.54 103.951 40.08 106.411 40.08 109.731C40.08 113.071 42.58 115.551 45.66 115.551C48.78 115.551 51.24 113.091 51.24 109.771ZM48.62 109.731C48.62 111.411 47.24 112.551 45.66 112.551C44.04 112.551 42.7 111.511 42.7 109.771C42.7 108.091 44.08 106.951 45.66 106.951C47.28 106.951 48.62 107.991 48.62 109.731ZM51 101.749L51 98.7094L47.04 98.7094C44.48 98.7094 43.26 97.4694 43.26 95.4494L43.26 95.2894L40.08 95.2894C40 97.0894 40.96 98.0894 42.44 98.7094L40.28 98.7094L40.28 101.749L51 101.749ZM51.24 88.603C51.24 86.663 50.48 85.223 49.24 84.223L47.7 85.963C48.48 86.803 48.8 87.543 48.8 88.563C48.8 89.923 48.08 90.883 46.7 91.183L46.7 83.723C46.42 83.703 46.14 83.683 45.9 83.683C42.86 83.683 40.08 85.323 40.08 88.903C40.08 92.023 42.6 94.203 45.66 94.203C48.98 94.203 51.24 91.823 51.24 88.603ZM44.8 91.223C43.42 90.983 42.52 90.163 42.52 88.903C42.52 87.623 43.44 86.823 44.8 86.643L44.8 91.223ZM51 75.1012L51 72.0212L46.72 72.0212L45.04 70.4012L51 66.0612L51 62.3612L42.94 68.3212L37 62.6212L37 66.3412L43.12 72.0212L37 72.0212L37 75.1012L51 75.1012ZM54.26 59.248C54.26 57.428 53.44 56.548 51.26 55.728L40.28 51.608L40.28 54.768L47.58 57.108L40.28 59.548L40.28 62.768L51.04 58.568C51.58 58.828 51.74 59.108 51.74 59.628C51.74 60.028 51.56 60.528 51.32 60.928L53.52 61.948C53.98 61.168 54.26 60.348 54.26 59.248ZM39.1 49.7558L39.1 46.5558L36.4 46.5558L36.4 49.7558L39.1 49.7558ZM51 49.6758L51 46.6358L40.28 46.6358L40.28 49.6758L51 49.6758ZM51.08 40.5206L51.08 37.7606L40.28 33.5406L40.28 36.7006L47.46 39.1206L40.28 41.5206L40.28 44.7406L51.08 40.5206Z" fill="black"/>
    <defs>
        <filter id="filter0_d" x="0" y="0" width="85" height="200" filterUnits="userSpaceOnUse" color-interpolation-filters="sRGB">
            <feFlood flood-opacity="0" result="BackgroundImageFix"/>
            <feColorMatrix in="SourceAlpha" type="matrix" values="0 0 0 0 0 0 0 0 0 0 0 0 0 0 0 0 0 0 127 0"/>
            <feOffset dy="3"/>
            <feGaussianBlur stdDeviation="6"/>
            <feColorMatrix type="matrix" values="0 0 0 0 0.0166667 0 0 0 0 0.0166667 0 0 0 0 0.0166667 0 0 0 0.17 0"/>
            <feBlend mode="normal" in2="BackgroundImageFix" result="effect1_dropShadow"/>
            <feBlend mode="normal" in="SourceGraphic" in2="effect1_dropShadow" result="shape"/>
        </filter>
    </defs>
</svg>
