<?xml version="1.0" encoding="UTF-8"?>
<svg width="12px" height="12px" viewBox="0 0 12 12" version="1.1" xmlns="http://www.w3.org/2000/svg" xmlns:xlink="http://www.w3.org/1999/xlink">
    <!-- Generator: sketchtool 52.5 (67469) - http://www.bohemiancoding.com/sketch -->
    <title>57AE96C2-B964-4C1D-A965-BB6D50A98EF5</title>
    <desc>Created with sketchtool.</desc>
    <g id="business-event" stroke="none" stroke-width="1" fill="none" fill-rule="evenodd">
        <g id="Business_audience" transform="translate(-248.000000, -1516.000000)" fill-rule="nonzero">
            <g id="Group-4" transform="translate(169.000000, 1238.000000)">
                <g id="2-copy" transform="translate(78.000000, 68.000000)">
                    <g id="Group-5" transform="translate(0.000000, 206.000000)">
                        <rect id="Rectangle" x="0" y="3" width="14" height="14"></rect>
                        <path d="M6.11322111,14.0923679 C5.9879707,14.2744732 5.78997005,14.3915408 5.57321934,14.412965 C5.54846926,14.4160255 5.52371918,14.4167907 5.4997191,14.4167907 C5.30771847,14.4167907 5.12246787,14.3418062 4.98221741,14.2048447 C4.98221741,14.2048447 2.23195842,11.5268267 2.23195842,11.5268267 C1.93270744,11.2353053 1.9214574,10.7509666 2.20720834,10.4456726 C2.49295927,10.1388482 2.96771082,10.1281361 3.2677118,10.4204227 C3.2677118,10.4204227 5.38796874,12.484792 5.38796874,12.484792 C5.38796874,12.484792 9.63673263,6.32535058 9.63673263,6.32535058 C9.8744834,5.97950369 10.3424849,5.89610255 10.681486,6.13941962 C11.0204872,6.38273668 11.1014874,6.86018903 10.8629866,7.20603593 C10.8629866,7.20603593 6.11322111,14.0923679 6.11322111,14.0923679 Z" id="Path" fill="#FF516B"></path>
                    </g>
                </g>
            </g>
        </g>
    </g>
</svg>