<svg width="271" height="272" viewBox="0 0 271 272" fill="none" xmlns="http://www.w3.org/2000/svg">
<g opacity="0.7" clip-path="url(#clip0)">
<path d="M154.256 119.796L161.498 119.376C162.832 119.301 163.977 120.319 164.056 121.653C164.133 122.988 163.112 124.132 161.778 124.211L154.535 124.631C153.651 124.681 152.849 124.25 152.388 123.565C152.153 123.218 152.005 122.804 151.98 122.354C151.899 121.018 152.92 119.873 154.256 119.796Z" fill="#E3E0CC"/>
<path d="M178.21 118.411C179.545 118.334 180.69 119.355 180.767 120.687C180.844 122.022 179.823 123.167 178.489 123.246L171.248 123.664C170.365 123.714 169.563 123.283 169.101 122.598C168.867 122.251 168.718 121.835 168.693 121.387C168.616 120.052 169.637 118.907 170.971 118.828L178.21 118.411Z" fill="#E3E0CC"/>
<path d="M148.734 145.784L151.164 187.83C151.241 189.165 150.219 190.31 148.885 190.389C148.002 190.438 147.2 190.007 146.738 189.323C146.504 188.975 146.355 188.559 146.33 188.111L143.901 146.066C143.824 144.73 144.845 143.586 146.179 143.507C147.512 143.431 148.656 144.452 148.734 145.784Z" fill="#E3E0CC"/>
<path d="M160.334 142.689C161.668 142.614 162.816 143.636 162.892 144.966L165.321 187.011C165.398 188.347 164.377 189.491 163.043 189.57C162.16 189.62 161.358 189.188 160.896 188.504C160.662 188.157 160.512 187.74 160.488 187.293L158.058 145.247C157.978 143.911 158.999 142.767 160.334 142.689Z" fill="#E3E0CC"/>
<path d="M174.494 141.872C175.829 141.795 176.974 142.816 177.052 144.148L179.479 186.195C179.556 187.53 178.535 188.675 177.201 188.754C176.317 188.803 175.515 188.372 175.054 187.687C174.819 187.34 174.67 186.924 174.646 186.476L172.218 144.429C172.138 143.093 173.159 141.949 174.494 141.872Z" fill="#E3E0CC"/>
<path d="M188.65 141.055C189.986 140.978 191.13 141.999 191.208 143.331L193.637 185.377C193.714 186.712 192.693 187.857 191.359 187.936C190.476 187.986 189.674 187.554 189.212 186.87C188.978 186.522 188.828 186.106 188.804 185.658L186.374 143.613C186.296 142.275 187.315 141.132 188.65 141.055Z" fill="#E3E0CC"/>
<path d="M66.9467 64.4938L2.81715 107.75C1.70714 108.498 1.41645 110.003 2.1638 111.111L26.2308 146.792C26.9227 147.817 28.2783 148.156 29.3711 147.576C33.2307 145.531 37.9848 146.725 40.4313 150.352C42.8778 153.98 42.201 158.834 38.862 161.647C37.9168 162.445 37.7228 163.829 38.4146 164.855L77.1417 222.27C77.8891 223.378 79.3929 223.672 80.5029 222.924L129.014 190.202L129.793 203.701C129.819 204.151 129.967 204.565 130.201 204.912C130.663 205.597 131.465 206.028 132.348 205.979L209.576 201.518C210.913 201.439 211.931 200.294 211.854 198.959L207.861 129.82C207.786 128.592 206.798 127.603 205.561 127.543C201.199 127.329 197.713 123.876 197.467 119.51C197.214 115.143 200.272 111.312 204.581 110.599C205.803 110.397 206.674 109.308 206.602 108.071L204.12 65.1028C204.082 64.4624 203.801 63.8636 203.312 63.4371C202.834 63.0093 202.203 62.7891 201.563 62.8268L124.339 67.2851C123.696 67.3241 123.096 67.6121 122.67 68.0925C122.242 68.571 122.022 69.2014 122.059 69.8418L124.543 112.809C124.619 114.037 125.609 115.025 126.844 115.085C131.203 115.3 134.687 118.746 134.939 123.121C135.191 127.486 132.132 131.316 127.822 132.031C126.6 132.233 125.729 133.323 125.801 134.559L126.612 148.617L106.561 118.89C105.869 117.864 104.513 117.526 103.42 118.105C99.5595 120.149 94.8053 118.954 92.3602 115.329C89.915 111.704 90.5905 106.847 93.9295 104.034C94.8761 103.238 95.0701 101.854 94.3782 100.829L70.3099 65.1457C69.5605 64.0391 68.0567 63.7451 66.9467 64.4938ZM130.75 136.273C135.525 134.653 138.942 130.462 139.641 125.489L145.067 125.176C146.404 125.098 147.422 123.953 147.345 122.618C147.266 121.284 146.121 120.266 144.788 120.342L139.463 120.648C138.318 115.582 134.339 111.631 129.265 110.535L127.037 71.9779L199.43 67.7962L201.655 106.356C196.74 108.024 193.24 112.408 192.689 117.575L187.682 117.863C186.347 117.94 185.327 119.086 185.404 120.418C185.428 120.869 185.576 121.283 185.812 121.633C186.274 122.317 187.076 122.749 187.959 122.699L193.071 122.405C194.337 127.266 198.211 131.031 203.143 132.095L206.881 196.825L134.489 201.004L130.75 136.273ZM67.6473 69.8622L89.2448 101.882C85.8689 105.826 85.0958 111.383 87.2628 116.107L83.1018 118.913C81.9918 119.662 81.7011 121.166 82.4485 122.274C83.1958 123.382 84.6996 123.676 85.8096 122.928L90.0549 120.064C93.6237 123.597 98.8792 124.86 103.661 123.255L127.158 158.091L128.689 184.581L79.8023 217.555L43.5461 163.803C46.8232 159.972 47.6223 154.623 45.6847 149.992L50.193 146.951C51.303 146.203 51.5937 144.698 50.8463 143.59C50.099 142.482 48.5952 142.188 47.4852 142.937L43.0612 145.921C39.4925 142.146 34.0498 140.779 29.1297 142.43L7.53221 110.41L67.6473 69.8622Z" fill="#E3E0CC"/>
<path d="M64.7211 134.228C65.4684 135.336 65.1778 136.841 64.0678 137.589L58.054 141.646C56.944 142.394 55.4402 142.1 54.6929 140.992C53.9455 139.884 54.2362 138.38 55.3462 137.631L61.3599 133.575C62.4699 132.826 63.9737 133.12 64.7211 134.228Z" fill="#E3E0CC"/>
<path d="M78.598 124.867C79.3454 125.975 79.0547 127.48 77.9447 128.229L71.931 132.285C70.821 133.034 69.3172 132.739 68.5698 131.631C67.8225 130.523 68.1132 129.019 69.2232 128.27L75.2369 124.214C76.3469 123.465 77.8507 123.759 78.598 124.867Z" fill="#E3E0CC"/>
<path d="M63.8617 162.801L87.4129 197.717C88.1603 198.825 87.8696 200.329 86.7596 201.078C85.6495 201.827 84.1457 201.533 83.3984 200.425L59.8472 165.509C59.0999 164.401 59.3905 162.896 60.5006 162.147C61.6106 161.399 63.1144 161.693 63.8617 162.801Z" fill="#E3E0CC"/>
<path d="M75.6195 154.87L99.1707 189.786C99.9181 190.894 99.6274 192.398 98.5174 193.147C97.4074 193.896 95.9036 193.602 95.1562 192.494L71.605 157.577C70.8577 156.469 71.1484 154.965 72.2584 154.216C73.3684 153.468 74.8722 153.762 75.6195 154.87Z" fill="#E3E0CC"/>
<path d="M87.3773 146.94L110.929 181.856C111.676 182.964 111.385 184.468 110.275 185.217C109.165 185.966 107.661 185.672 106.914 184.564L83.3628 149.648C82.6155 148.54 82.9062 147.035 84.0162 146.286C85.1262 145.538 86.63 145.832 87.3773 146.94Z" fill="#E3E0CC"/>
<path d="M99.1352 139.009L122.686 173.925C123.434 175.033 123.143 176.537 122.033 177.286C120.923 178.035 119.419 177.741 118.672 176.633L95.1207 141.716C94.3733 140.608 94.664 139.104 95.774 138.355C96.884 137.607 98.3878 137.901 99.1352 139.009Z" fill="#E3E0CC"/>
</g>
<defs>
<clipPath id="clip0">
<rect width="196.115" height="193.694" fill="white" transform="translate(161.17 0.465881) rotate(56)"/>
</clipPath>
</defs>
</svg>
