<?xml version="1.0" encoding="UTF-8"?>
<svg width="16px" height="16px" viewBox="0 0 16 16" version="1.1" xmlns="http://www.w3.org/2000/svg" xmlns:xlink="http://www.w3.org/1999/xlink">
    <!-- Generator: Sketch 46.2 (44496) - http://www.bohemiancoding.com/sketch -->
    <title>Rectangle 3</title>
    <desc>Created with Sketch.</desc>
    <defs></defs>
    <g id="Page-1" stroke="none" stroke-width="1" fill="none" fill-rule="evenodd">
        <g id="question">
            <rect id="Rectangle-3" x="0" y="0" width="16" height="16"></rect>
            <rect id="Rectangle-path" fill="#A9A9A9" fill-rule="nonzero" x="7.19437939" y="11.1912693" width="1.59876347" height="1.59876347"></rect>
            <path d="M7.99374239,0 C3.57894145,0 0,3.57894145 0,7.99374239 C0,12.4085433 3.57894145,15.9874848 7.99374239,15.9874848 C12.4085433,15.9874848 15.9874848,12.4085433 15.9874848,7.99374239 C15.9874848,3.57894145 12.4085808,0 7.99374239,0 Z M7.99374239,14.5406276 C4.37800468,14.5406276 1.44685714,11.6094801 1.44685714,7.99374239 C1.44685714,4.37800468 4.37800468,1.44685714 7.99374239,1.44685714 C11.607644,1.45124122 14.5362061,4.37980328 14.5406276,7.99374239 C14.5406276,11.6095176 11.6095176,14.5406276 7.99374239,14.5406276 Z" id="Shape" fill="#A9A9A9" fill-rule="nonzero"></path>
            <path d="M11.1033255,5.63559719 C10.6921218,3.91820141 8.96655738,2.85935363 7.24916159,3.27055738 C5.80530211,3.6162623 4.78935831,4.91035129 4.79625293,6.39501639 L6.39501639,6.39501639 C6.47007026,5.51205621 7.24668852,4.85710539 8.12964871,4.93215925 C9.0126089,5.00721311 9.66755972,5.78383138 9.59250585,6.66679157 C9.42920843,7.46132084 8.71644028,8.02207026 7.90583607,7.99374239 C7.51291803,7.99374239 7.19437939,8.31228103 7.19437939,8.70519906 L7.19437939,8.70519906 L7.19437939,10.3918689 L8.79314286,10.3918689 L8.79314286,9.4805808 C10.483822,9.0446089 11.5122061,7.33305855 11.1033255,5.63559719 Z" id="Shape" fill="#A9A9A9" fill-rule="nonzero"></path>
        </g>
    </g>
</svg>